<svg width="330" height="167" viewBox="0 0 330 167" fill="none" xmlns="http://www.w3.org/2000/svg">
<path d="M196.834 29.0198L196.656 28.9606L196.419 28.8422L195.886 28.4868L195.797 28.398L195.561 28.1907L195.413 28.0722L195.205 27.8353L195.028 27.6281L194.82 27.3616L194.435 26.7693L194.258 26.4436L194.139 26.2067L194.11 26.1475L193.991 25.8513L193.932 25.6441L193.813 25.3183L193.695 24.963L193.636 24.6372L193.488 24.1338L193.428 23.8377L193.34 23.4232L193.28 22.979L193.162 22.5052L193.132 22.2387L193.073 21.5872L193.103 21.2022L193.132 20.6396L193.192 20.2547L193.31 19.6624L193.369 19.2775L193.428 18.626V18.2707L193.34 17.4119V17.0862L193.28 16.3755V15.8425L193.251 15.3687V15.0133L193.192 14.4211L193.162 14.0065L193.103 13.5327L193.073 13.207L193.044 12.6147L193.014 12.3186L192.984 11.8152V11.4895L193.044 10.9565V10.3938L193.073 10.1569L193.103 9.86082L193.192 9.41664L193.31 8.94286L193.369 8.5875L193.517 8.20255L193.695 7.81758L193.784 7.5807L194.05 7.04769L194.139 6.8404L194.317 6.42584L194.435 6.1001L194.583 5.74475L194.909 5.09328L195.057 4.76754L195.176 4.41221L195.294 4.05686L195.59 2.81316L195.62 2.48743V2.13207L195.561 1.86557L195.531 1.59905L195.472 1.42139L195.353 1.21411L195.235 1.06604L195.087 0.917989L194.909 0.740302L194.761 0.621851L194.554 0.503422L194.435 0.414567L194.198 0.296139L194.021 0.236902L193.784 0.177688L193.488 0.148069L193.221 0.118451L192.895 0.0592368L192.599 0.0296184H192.362L192.096 0H191.681H191.237L191 0.0296184L190.645 0.148069L190.615 0.236902L190.527 0.533018L190.438 0.799538L190.349 1.06604L190.201 1.39177L189.964 2.04324L189.816 2.36897L189.727 2.60588L189.549 2.93161L189.312 3.43501L189.105 3.90879L188.927 4.29376L188.809 4.56026L188.513 5.18211L188.335 5.44863L188.009 5.98165L187.654 6.66271L187.476 7.07728L187.24 7.52147L187.032 8.02487L186.766 8.40984L186.322 9.15014L185.729 10.0089L185.374 10.5123L184.989 11.0749L184.545 11.7264L184.19 12.2594L183.923 12.5555L183.479 13.1181L183.242 13.4143L183.094 13.5919L182.857 13.8881L182.679 14.1546L182.591 14.3026L182.413 14.4507L182.294 14.5692L182.176 14.7468L182.028 14.8949L181.939 15.0429L181.791 15.1614L181.732 15.2502L181.613 15.4279L181.436 15.6944L181.228 15.8425L181.169 15.9905L181.051 16.1682L180.873 16.3163L180.725 16.5532L180.577 16.7901L180.399 16.9381L180.103 17.0269L179.925 17.1158L179.866 17.2638L179.837 17.4415L179.689 17.6192L179.57 17.6784L179.481 17.7376L179.363 17.9153L179.304 18.1226L178.948 18.3595L178.919 18.5075L178.771 18.8629L178.534 19.0998L178.356 19.3071L178.001 19.6032L177.882 19.7809L177.734 19.9289L177.586 20.225L177.379 20.4027L177.171 20.61L177.023 20.7877L176.846 20.9357L176.638 21.143L176.431 21.3207L176.253 21.4392L176.076 21.4984L175.928 21.6464L175.75 21.7353L175.543 21.8833L175.424 22.0906L175.247 22.2387L175.039 22.3275L174.803 22.3867L174.447 22.6236L174.151 22.8901L173.914 23.1863L173.796 23.4232L173.677 23.5416L173.47 23.8081L173.351 24.0154L173.203 24.2227L173.026 24.4596L172.996 24.5188V24.6372L173.026 24.7261L173.055 24.8741V25.0222L172.996 25.0814L172.937 25.1703L172.759 25.3479L172.493 25.4664L172.315 25.5256L172.108 25.5552L171.96 25.5848H171.871L171.812 25.6441L172.256 25.9698L172.522 26.2659L172.7 26.5324L172.848 26.8285L172.937 26.9766L172.996 27.1543L173.055 27.3319L173.144 27.6577L173.174 27.9538V28.2499V28.398V28.7237L173.085 29.079L172.996 29.4048L172.937 29.5825L172.907 29.8193L172.878 29.9082L172.818 29.997L172.789 30.2043L172.67 30.4708L172.522 30.8854L172.404 31.2407L172.197 31.8034L171.96 32.3364L171.752 32.8102L171.575 33.1359L171.279 33.817L171.101 34.3204L170.894 35.1791L170.835 35.6529L170.686 36.1267L170.509 36.7486L170.39 37.1335L170.124 37.8738L169.946 38.4957L169.857 38.8807L169.709 39.4433L169.502 40.0355L169.354 40.5981L169.176 40.9831L169.058 41.2496L168.939 41.5161L168.732 41.9307L168.554 42.3156L168.406 42.7006L168.199 43.2336L168.11 43.5593L167.992 44.0924L167.903 44.5069L167.844 44.9215L167.814 45.2768L167.755 45.6322V46.0764L167.725 46.4317L167.696 46.8167V47.1424V47.5274L167.666 47.9123L167.696 48.1196L167.784 48.5046L167.933 49.008L168.021 49.3633L168.14 49.689L168.317 50.3701L168.525 50.8439L168.673 51.14L168.939 51.6138L169.117 51.9396L169.324 52.3245L169.472 52.5614L169.709 52.976L170.005 53.3313L170.627 54.2197L170.835 54.5158L170.983 54.6935L171.308 54.9304L171.664 55.3746L171.812 55.7299L171.93 56.026L172.049 56.4998L172.108 56.6775L172.226 57.0625L172.374 57.4474L172.522 57.7731L172.67 58.2173L172.907 58.6911L173.026 58.8984L173.233 59.1945L173.44 59.5203L173.5 59.7868L173.44 60.0829L173.411 60.4086L173.47 60.8528L173.648 61.1489L173.796 61.2674L174.033 61.445L174.477 61.6523L174.743 61.7412L175.039 61.7708L175.424 61.8004L175.691 61.8596L175.809 62.3334L175.839 62.6295V63.1033L175.957 63.4883L176.017 63.6956L176.105 64.0805V64.2582L176.076 64.4951L176.046 64.732L175.957 64.9097L175.78 65.1169L175.632 65.3242L175.484 65.5611L175.424 65.8572L175.572 66.1534L175.839 66.6568L176.105 67.3082L176.313 67.7524L176.638 68.5519L176.727 68.8185L176.935 69.4107L177.023 69.6772L177.112 70.0029L177.142 70.4175L177.112 70.684L177.023 71.0394L176.846 71.2762L176.609 71.5131L176.402 71.7204L176.165 71.9277L176.017 72.1054L175.987 72.3719L176.046 72.6384L176.194 72.9049L176.313 73.2306L176.431 73.5268V73.8229L176.342 74.1782L176.224 74.504L176.076 74.8297L175.987 75.0666L176.046 75.4812L176.165 75.9846L176.283 76.2807L176.461 76.6064L176.668 76.9618L176.816 77.2283L176.875 77.554L176.816 77.7909L176.698 78.0278L176.55 78.1759L176.253 78.4128L175.869 78.5608L175.572 78.6497L175.128 78.7385L174.862 78.7977L174.358 78.9162L173.944 79.0346L173.677 79.1531L173.47 79.3011L173.115 79.5676L172.907 79.8045L172.789 80.1303L172.73 80.4264V80.7521V81.1074L172.67 81.3443L172.582 81.6701L172.404 81.8181L172.167 81.9366L171.752 82.2031L171.516 82.3512L171.397 82.4696L171.071 82.7361L170.894 82.9434L170.686 83.1211L170.479 83.3876L170.301 83.6541L170.153 83.8614V83.9798L170.094 84.1575L170.035 84.4536L170.005 84.7794V85.4012L170.035 85.7565L170.094 86.0823L170.153 86.6153L170.213 87.1483L170.301 87.5333L170.39 87.8886L170.627 88.4809L170.835 88.9843L170.894 89.1915L171.101 90.0503V90.3464L171.131 90.7314V90.9683L171.19 91.3532L171.308 91.7382L171.397 92.0343L171.516 92.3008L171.693 92.6265L171.782 92.745L171.901 92.9819L172.019 93.278L172.137 93.5149L172.374 94.1071L172.434 94.4625L172.463 94.8474L172.404 95.0547L172.256 95.3212L172.108 95.4989L171.723 95.9135L171.575 96.0615L171.338 96.328L171.131 96.5946L170.923 97.0091L170.864 97.246L170.894 97.631L170.864 97.8383V98.1048L170.835 98.2824L170.894 98.4897L170.983 98.6082L171.368 98.8155L171.693 98.8451L171.989 98.8747L172.167 99.0228L172.315 99.3485L172.167 99.615L172.019 99.7631L171.782 100L171.634 100.326V100.533L171.96 100.859L172.256 100.918L172.7 100.948L172.907 101.007L173.055 101.244L173.144 101.599V102.102V102.576L173.174 102.872V103.168L173.144 103.198L172.967 103.376L172.7 103.642L172.463 103.909L172.167 104.294L171.93 104.56L171.901 104.708L172.049 104.886L172.167 104.945L172.404 105.064L172.552 105.389L172.611 105.685L172.641 106.278V106.544L172.582 106.781L172.285 106.988L171.901 107.196L171.752 107.433L171.782 107.729L171.989 108.232L172.137 108.617L172.197 108.824L172.167 109.298L171.96 109.653L171.782 110.038L171.841 110.275L172.049 110.631L172.463 111.016L172.937 111.401L173.233 111.637L173.529 111.993L173.736 112.23L174.062 112.555L174.358 112.97L174.566 113.355L174.654 113.621L174.773 114.184L174.832 114.717L174.714 115.369L174.625 115.694L174.447 116.287L174.388 116.553L174.329 116.701L174.092 117.234L174.003 117.53L173.885 117.945L173.766 118.33L173.618 118.685L173.47 119.041L173.44 119.129V119.366L173.5 119.899L173.588 120.166L173.648 120.432L173.588 120.61L173.085 120.847L172.848 121.025L172.493 121.35L172.315 121.558L172.137 121.706L171.782 122.091L171.575 122.387L171.456 122.653L171.486 122.801L171.604 123.068L171.812 123.186L172.197 123.334L172.374 123.453L172.522 123.63L172.434 123.867L172.256 124.045L172.019 124.282L171.96 124.4L171.93 124.578V124.904L172.049 125.141L172.167 125.496L172.256 125.762L172.315 126.059L172.345 126.355L172.404 126.562L172.522 126.828L172.67 127.065L172.937 127.184L173.322 127.213L173.618 127.302L173.796 127.45L173.914 127.658L174.003 127.954L173.914 128.368L173.648 128.783V128.931V129.109L173.766 129.405L173.914 129.582L174.299 129.908L174.773 130.175L175.276 130.323L176.638 130.678L176.964 130.797L177.408 131.004L177.704 131.27L177.823 131.418L177.971 131.655L178.03 131.981L177.971 132.277L177.882 132.514L177.764 132.84L177.734 133.047V133.195L177.764 133.373L177.882 133.521L178.178 133.639H178.326L178.563 133.61L178.889 133.462L179.007 133.402L179.215 133.373L179.363 133.462L179.452 133.61L179.54 133.817L179.689 133.876H179.896L180.133 133.728L180.34 133.58L180.458 133.55L180.695 133.521L180.843 133.61L181.021 134.024L181.258 134.468L181.643 134.824L182.235 135.061L182.62 135.179L183.153 135.238L183.686 135.061L184.041 134.853L184.426 134.676L184.693 134.646L184.989 134.794L185.433 135.149L185.818 135.534L186.262 135.919L186.559 136.275L186.736 136.423L187.21 136.63L187.713 136.6H188.098L188.454 136.571L188.898 136.541L189.283 136.512L189.638 136.482H190.023L190.467 136.541L190.763 136.719L190.971 137.074L191.089 137.341L191.267 137.726L191.504 138.14L191.681 138.348L191.8 138.436L192.155 138.466L192.392 138.496L192.747 138.555L193.221 138.584H193.606L193.991 138.555L194.465 138.525L194.968 138.436L195.235 138.466L195.413 138.525L195.561 138.821L195.649 138.999V139.206L195.531 139.443L195.324 139.71L195.116 139.887L194.939 140.035L194.85 140.154L194.791 140.332L194.82 140.687L194.85 140.924L195.057 141.338L195.383 141.575L195.797 141.635L196.39 141.664L196.923 141.694L197.337 141.783L198.196 141.871L198.67 141.901L199.469 141.96L199.736 141.99H200.15L200.595 142.019H200.861L201.187 142.079L201.365 142.168L201.453 142.345L201.424 142.671L201.305 142.967L201.216 143.145L201.039 143.53L200.95 143.737L200.891 143.944V144.152L200.92 144.329L200.95 144.448L201.009 144.744L201.068 144.951L201.128 145.099L201.157 145.218L201.187 145.306L201.216 145.336L201.365 145.454L201.542 145.691L201.72 145.869L202.105 146.106L202.904 146.461L203.26 146.609L203.882 146.757L204.326 146.787L204.622 146.817H204.829L204.948 146.905L205.096 147.113V147.409L205.125 147.587L205.244 147.646L205.451 147.883L205.718 148.06L205.925 148.268L206.221 148.505L206.784 148.889L207.02 148.978L207.465 149.097L207.909 149.186L208.679 149.334L209.271 149.422L209.952 149.6L210.396 149.719L211.048 150.074L211.462 150.34L211.877 150.607L212.114 150.785L212.647 151.258L213.15 151.584L213.328 151.614L213.772 151.791L214.66 151.94L215.845 151.643L216.23 151.436L217.562 151.051L218.125 150.933L218.984 150.755H219.013H219.25L220.02 150.844L220.849 151.11L221.412 151.288L222.419 151.495L222.892 151.436L223.544 151.318H224.373L224.995 151.377L225.35 151.466L225.617 151.791L225.765 151.91L226.387 152.413L226.92 152.709L227.749 153.035L228.134 153.242L228.697 153.835L229.2 154.101L229.881 154.397L230.325 154.427H231.006L231.569 154.397L232.102 154.427H232.724L233.434 154.457L233.79 154.427L234.471 154.308L234.589 154.279L235.063 154.131L235.418 154.072L235.537 154.16L235.744 154.516L236.04 154.841L236.573 155.078L236.869 155.108L237.728 154.901L237.935 154.753L238.291 154.516L238.498 154.664L238.765 154.93L239.12 155.167L239.831 155.375L240.127 155.256L240.512 155.078L240.867 154.871L241.133 154.753L241.696 154.575L241.992 154.605L242.14 154.901L242.229 155.138L242.496 155.523L242.91 155.73L243.177 155.759L243.769 155.73L244.421 155.7L244.776 155.819L245.25 156.056L245.457 156.204L245.931 156.677L246.227 157.033L246.73 157.418H246.967L247.618 157.033L247.944 156.677L248.388 156.233L248.477 156.115L248.655 155.996L248.981 155.967L249.306 156.174L249.455 156.233L250.017 156.944L250.106 157.181L250.373 157.803L250.639 158.188L250.906 158.425L251.527 158.78L252.534 158.898L253.126 158.81L253.482 158.691L253.896 158.454L254.281 158.513L254.429 158.632L254.725 158.958L255.11 159.343L256.088 159.757L256.591 159.876L256.769 160.083L257.213 160.586L257.716 161.09L258.486 161.771L258.93 162.245L259.167 162.541L259.641 162.896L260.026 163.014L260.737 162.985L261.359 162.866L261.744 162.748L262.513 162.481L263.046 162.57L263.283 162.718L263.372 162.985L263.342 163.162L263.254 163.37L263.224 164.11L263.342 164.347L263.639 164.702L263.935 164.998L264.468 165.443L264.823 165.531L265.03 165.413L265.149 165.265L265.652 164.584L265.978 164.317L266.274 164.14L267.015 163.755L267.34 163.695L267.607 163.755L268.051 164.051L268.466 164.495L268.762 164.791L269.117 165.028L269.502 165.324L269.531 165.354L269.768 165.502L270.183 165.709L270.449 165.857L271.071 166.064L271.752 166.153H272.226L273.144 166.094H273.559L273.736 166.064L274.003 165.916L274.121 165.798V165.561L274.033 165.295L273.973 164.969L273.914 164.791L273.885 164.673V164.406V164.229V163.903L273.914 163.607V163.488L273.973 163.222L274.062 162.985L274.151 162.866L274.269 162.689L274.418 162.6L274.536 162.57L274.714 162.511H274.891H275.158L275.484 162.629H275.543H275.72L276.076 162.748L276.342 162.866L276.638 163.133L276.905 163.459L277.083 163.755L277.29 164.169L277.379 164.584L277.438 164.939L277.468 165.413L277.497 165.768L277.616 165.946L277.852 166.035L278.119 165.976L278.178 165.946L278.474 165.739L278.8 165.531L279.037 165.354L279.155 165.265L279.422 165.087L279.807 164.88L280.103 164.791L280.34 164.732L280.636 164.643L280.843 164.584L281.169 164.495L281.406 164.436L281.495 164.377L281.672 164.258L281.732 164.14V164.051L281.702 163.844V163.577L281.761 163.37L281.969 163.014L282.117 162.6L282.206 162.363L282.383 161.948L282.561 161.682L282.739 161.504L282.946 161.297L283.538 160.823L283.834 160.557L284.012 160.379L284.278 160.083L284.308 159.994V159.639L284.041 159.343L283.597 159.017L283.42 158.81L283.331 158.425L283.657 158.188L283.775 158.099L283.834 157.743L283.805 157.684L283.716 157.447L283.686 157.24L283.745 156.737L283.893 156.263L283.982 155.967L284.071 155.671L284.219 155.375L284.456 155.078L284.693 154.841L284.841 154.723L285.019 154.397L284.871 154.19L284.634 154.012H284.604L284.574 153.835V153.42L284.693 153.035L284.811 152.887L284.959 152.769L285.226 152.68L285.64 152.591L286.025 152.532L286.351 152.413L286.529 152.295L286.618 152.147L286.588 151.969L286.499 151.673L286.529 151.377L286.647 151.17L286.736 150.962L286.884 150.755L287.121 150.37L287.388 150.104L287.654 149.719L288.009 149.334L288.246 149.156L288.542 148.949L288.809 148.801L289.016 148.712L289.253 148.564L289.668 148.208L289.905 147.942L290.26 147.675L290.467 147.498L290.793 147.231L291.119 146.965L291.533 146.639L291.918 146.343L292.185 146.136L292.51 145.928L292.807 145.632L293.103 145.366L293.369 145.158L293.517 145.01L293.636 144.892L293.725 144.744L293.902 144.27L294.109 143.885L294.287 143.5L294.613 142.878L294.82 142.523L295.116 142.286L295.501 142.049L295.768 141.783L295.945 141.516L295.975 141.131L296.064 140.805L296.419 140.746L297.1 140.805L297.426 140.776L297.989 140.628L298.433 140.48L298.759 140.272L299.321 139.976L300.387 139.739L300.713 139.828L300.95 139.947L301.276 140.213L301.631 140.48L301.927 140.776L302.045 140.983L302.105 141.279L302.282 141.427L302.43 141.398L302.638 141.279L302.845 141.22L303.023 141.19L303.585 141.131L304.266 141.101L304.711 141.072L305.214 141.101L305.718 141.072L305.954 141.101L306.251 141.161L306.813 141.398L307.405 141.694L307.761 141.901L308.234 142.256L308.56 142.552L308.738 142.582L308.886 142.552L309.064 142.464L309.271 142.375L309.449 142.227L309.656 141.99L309.833 141.783L310.041 141.427L310.159 141.19L310.337 140.509V140.124V139.739V139.414L310.307 139.206L310.218 138.851L310.13 138.555L310.041 138.259L310.13 137.903L310.396 137.637L310.633 137.4L310.84 137.252L311.255 136.985L311.61 136.808L312.084 136.571L312.528 136.393L312.972 136.245L313.505 136.038L313.654 136.008L313.95 135.89L314.068 135.682V135.475L313.92 135.238L313.713 135.001L313.535 134.883L313.387 134.676L313.357 134.557L313.476 134.409L313.861 134.172L314.157 133.965L314.335 133.758L314.483 133.432L314.631 133.165L314.838 132.81L315.164 132.544L315.578 132.425L315.845 132.396L316.437 132.366L316.94 132.425L317.266 132.484L317.621 132.603L317.799 132.662L318.303 132.751L318.717 132.81L318.984 132.869L319.28 132.929L319.576 132.958L320.346 133.017L320.642 133.047L320.908 133.284L320.849 133.491L320.76 133.698L320.642 133.935V134.054L320.672 134.172L320.82 134.291H321.116L321.234 134.261L321.59 134.143L321.797 134.024L322.093 133.876L322.537 133.758L322.863 133.639L323.159 133.491L323.485 133.136L323.662 132.869L323.988 132.603L324.521 132.277L324.876 132.159L325.409 131.981L325.972 131.833L326.298 131.803L326.86 131.714L327.186 131.626L327.601 131.448L327.956 131.211L328.282 131.004L328.726 130.856L328.993 130.767L329.466 130.53L329.733 130.352L329.851 129.997L329.911 129.553L329.881 129.286V128.961V128.664L329.94 128.339L329.999 128.191L329.792 128.161H329.674L329.555 128.131H329.437H329.17L328.904 128.161L328.696 128.22L328.489 128.279L328.223 128.487L328.045 128.783L327.956 129.079L327.867 129.227L327.63 129.345L327.275 129.375L327.157 129.286L327.097 129.138L327.068 128.901V128.605L326.949 128.279L326.801 128.102L326.564 127.865L326.268 127.687L326.061 127.48L326.002 127.184L326.09 126.947L326.268 126.384L326.239 126.059L326.179 125.792L326.09 125.437L326.061 125.348L326.031 125.289L325.854 124.844L325.735 124.489L325.587 124.134L325.35 123.69L325.084 123.512L324.669 123.393L324.491 122.949L324.521 122.594L324.491 122.268L324.462 122.12L324.225 122.061H324.018L323.751 122.12L323.396 122.209L323.1 122.298L322.508 122.446L322.182 122.505L321.797 122.476L321.56 122.446L320.938 122.357L320.405 122.268L320.109 122.179L319.694 122.002L319.25 121.765L318.806 121.498L318.391 121.291L318.214 121.173L317.858 121.143L317.266 121.173H316.644L316.496 121.084L316.467 120.788L316.585 120.491L316.674 120.284L316.703 120.047L316.467 119.87L316.141 119.899L315.815 120.077L315.43 120.343L315.045 120.521L314.72 120.61L314.187 120.699L313.594 120.58L313.328 120.432L313.209 120.284L313.15 120.018L313.18 119.603L313.298 119.277L313.476 118.922L313.713 118.567L313.89 118.211L314.098 117.738L314.157 117.293L314.039 117.145H313.742L313.269 117.175L312.943 117.234L312.469 117.323L312.084 117.501L311.61 117.678L311.225 117.708L310.811 117.441L310.633 117.234L310.426 117.086H310.07L309.745 117.145H309.152L308.531 117.027L308.086 116.79L307.879 116.583L307.583 116.405H307.168L306.784 116.435L306.31 116.494L305.777 116.523L305.51 116.494L305.392 116.316L305.333 115.931L305.362 115.665L305.392 115.398L305.481 115.072L305.569 114.865L305.718 114.539L306.102 113.918L306.339 113.621L306.428 113.414L306.369 113.148L306.28 113L306.043 112.644L305.836 112.319L305.599 112.022L305.451 111.815L305.244 111.578L305.096 111.223L305.036 110.897L305.066 110.601L305.214 110.246L305.333 110.038L305.688 109.594L305.925 109.328L306.221 108.943L306.458 108.765L306.724 108.499L306.813 108.291L306.636 108.084L306.487 107.936L306.162 107.729L305.658 107.462L305.244 107.314L304.563 107.136L304.237 107.107L303.674 107.018H303.378H302.904L302.608 107.077L302.342 107.196L302.075 107.314L301.897 107.462L301.572 107.788L301.276 108.025L301.009 108.202L300.654 108.262L300.506 108.232L300.269 108.114L300.062 107.906L299.765 107.581L299.381 106.87L299.292 106.603L299.203 106.1L299.173 105.804L299.144 105.419L299.025 105.152L298.907 104.975L298.67 104.945H298.463L298.315 104.975L298.137 104.945L297.989 104.916L297.722 104.797L297.485 104.471L297.367 104.205L297.189 103.82L296.893 103.405L296.656 102.932L296.478 102.576L296.212 102.043L296.034 101.747L295.59 101.332L295.057 101.096L294.583 100.948L293.873 100.888H293.576L293.132 100.948L292.836 101.007L292.481 101.066L292.066 100.948L291.8 100.859L291.385 100.681L291.06 100.563L290.467 100.415L290.082 100.296L289.727 100.148L289.312 99.9703L288.898 99.7927L288.454 99.5262L288.187 99.2597L287.891 99.0228L287.595 98.8155L287.328 98.6674L287.091 98.5489L286.677 98.3121L286.44 98.1936L286.025 97.9567L285.315 97.3645L285.048 97.098L284.9 96.8018L284.811 96.5353V96.2096L284.841 96.0319V95.647L284.782 95.4693L284.456 95.2916L284.19 95.2324L283.834 95.2028L283.657 95.114L283.242 94.9067L282.916 94.6106L282.798 94.4625L282.65 94.1664L282.59 93.9295L282.531 93.4853V93.13L282.502 92.8634L282.354 92.5081L282.176 92.3008L281.909 92.1528L281.761 92.0343L281.317 91.7678L280.903 91.3828L280.695 91.0275L280.547 90.7906L280.369 90.4945L280.251 90.4056L279.925 90.376H279.777L279.215 90.4352L278.77 90.5241L278.415 90.5833L277.912 90.6129L277.675 90.6425H277.319L276.609 90.5537L276.372 90.4649L275.78 90.1095L275.217 89.6653L274.891 89.3692L274.684 89.1915L274.24 88.8066L273.944 88.5993L273.47 88.4809L273.203 88.4512L272.789 88.4216L272.493 88.392L272.315 88.3328L272.019 88.0663V87.9182L272.078 87.5333L272.226 86.941L272.285 86.7041L272.315 86.4672V86.0823L272.137 85.49L272.019 84.9866L271.93 84.5128L271.841 84.2167L271.604 83.6837L271.367 83.2691L271.19 83.0322L270.864 82.7361L270.42 82.3808L270.213 82.1735L269.739 81.7293L269.502 81.5516L269.413 81.4924L269.147 81.4332H269.028L268.702 81.374H268.347L268.051 81.3443L267.725 81.374H267.251L266.778 81.4036L266.274 81.4332H265.771L265.179 81.4036L264.823 81.3443L264.379 81.1667L264.083 80.989L263.846 80.6633L263.727 80.456L263.491 79.923L263.313 79.4788L263.254 79.0938L263.194 78.5608L263.135 78.1759V77.4059V76.8137V76.5176V76.1622L262.987 75.4515L262.839 75.1258L262.632 74.7409L262.484 74.504L262.04 74.0598L261.566 73.6452L261.329 73.3491L261.033 72.8753L260.826 72.0165L260.796 71.602L260.766 71.3059V70.9209L260.796 70.6248L260.855 70.2102L260.974 69.8253L261.122 69.3515L261.27 68.8777L261.359 68.4927L261.388 67.9597L261.329 67.5451L261.092 67.1898L260.885 66.9825L260.707 66.6271L260.618 66.2126L260.678 65.9757L260.855 65.6796L260.974 65.5019L261.062 65.1762L260.885 64.7616L260.559 64.5247L260.441 64.4655L260.174 64.347L259.671 64.2286L259.315 64.199L258.427 64.0509L258.042 63.9028L257.805 63.7844L257.509 63.5771L257.272 63.3402L257.006 63.1625L256.621 62.9256L256.413 62.8368L255.88 62.5703L255.258 62.3334L254.933 62.2446L254.4 62.1557L253.748 62.0373L253.245 62.0077L252.712 62.0373L252.001 61.83L251.527 61.5931L251.35 61.4154L251.291 61.1785L251.261 60.9713L251.32 60.7344L251.439 60.4679L251.557 60.3494L251.705 60.2013L251.883 60.0829L252.179 59.9052L252.416 59.7868L252.801 59.5795L253.126 59.4018L253.452 59.1649L253.778 58.928L253.985 58.78L254.104 58.6911L254.311 58.5431L254.637 58.3358L254.903 58.1581L255.17 57.9804L255.436 57.7731L255.703 57.477L255.821 57.2994L255.91 57.0921L255.969 56.7959V56.5887L255.999 56.2629L256.028 56.026L255.999 55.7595L256.028 55.6115L256.058 55.493L256.176 55.4042L256.236 55.3746L256.295 55.345H256.591L256.828 55.3746L257.035 55.4042H257.242L257.45 55.3746L257.716 55.3153L258.042 55.1969L258.22 55.0192L258.338 54.8416L258.368 54.7823L258.397 54.6639L258.427 54.5454L258.486 54.3085L258.516 54.1605L258.545 53.9236L258.516 53.7459V53.5979L258.545 53.3313L258.605 53.0648L258.634 52.7687L258.664 52.4726L258.723 52.0876L258.782 51.7915L258.842 51.4954L258.901 51.1993V50.8143L258.871 50.4293L258.753 50.0444L258.694 49.8667L258.575 49.689L258.486 49.5114L258.338 49.4225L258.101 49.3041L257.746 49.2153L257.272 49.1264L256.917 49.0672L256.265 48.9487L255.643 48.8599L254.577 48.7119L253.867 48.5934L253.63 48.5638H252.919L252.001 48.623L251.172 48.6526L250.639 48.7415L249.988 48.8007L249.425 48.8895L248.921 49.0968L248.685 49.2449L248.3 49.6298L247.974 49.9259L247.589 50.3701L247.322 50.8143L247.056 51.14L246.316 51.7323L245.812 51.9692L245.072 52.2949L244.569 52.443H244.154H243.799L243.384 52.3837H242.97L242.673 52.4134L242.17 52.443L241.222 52.6799L240.956 52.7687L240.571 52.8871L240.304 53.0648L240.038 53.3017L239.89 53.4202L239.653 53.7755L239.416 54.0124L239.09 54.1901L238.824 54.3085L238.35 54.5454L237.817 54.8416L237.61 54.96L237.343 55.2561L237.225 55.493L237.047 55.8188L236.958 56.0556L236.781 56.2037L236.544 56.2925L236.248 56.3222L235.892 56.3518H235.626L235.122 56.2925L234.589 56.2629L234.382 56.2037L234.264 56.0853L234.175 55.9076L234.115 55.7003V55.493V55.1673V55.0488L234.086 54.6047L234.056 54.3974L234.027 54.1901L233.997 54.0124L233.879 53.7459L233.73 53.509L233.553 53.2721L233.405 53.1833L232.99 52.9464L232.576 52.8576L232.398 52.7687L232.013 52.6207L231.924 52.5614L231.895 52.5318L231.776 52.3837L231.687 52.1765L231.628 51.9099V51.8507V51.6434V51.3473L231.687 51.0512L231.776 50.6366L231.865 50.3701L232.013 49.9556L232.161 49.5114L232.22 49.2745L232.279 48.9487V48.6822L232.22 48.475L232.131 48.2677L232.043 48.1788L231.835 48.0012L231.539 47.8827L231.065 47.7939L230.592 47.7347L230.444 47.705L230.147 47.6162L230.029 47.4681L229.999 47.3201L230.029 47.024L230.088 46.8463L230.118 46.7278L230.266 46.5206L230.355 46.3429L230.473 46.1652L230.71 45.8987L230.858 45.721L231.125 45.4545L231.391 45.188L231.658 44.9511L231.835 44.8327L232.161 44.655L232.398 44.5662L232.694 44.5069L232.961 44.4773L233.286 44.3589L233.434 44.2404V44.0331L233.405 43.9147L233.346 43.737L233.227 43.589L232.99 43.3521L232.842 43.204L232.605 43.0559L232.428 42.9375L232.102 42.7598L231.835 42.671L231.421 42.5229L231.065 42.4637L230.532 42.3453L230.296 42.2564L229.733 42.1084L229.407 42.0787L228.815 41.9899L228.252 41.9307L227.956 41.9011L227.394 41.7826L227.009 41.6938L226.535 41.5457L226.298 41.4569L225.795 41.22L225.291 40.9535L225.054 40.8054L224.669 40.5685L224.343 40.3316L223.929 40.0355L223.485 39.7098L223.129 39.5617L222.774 39.4729L221.975 39.236L221.234 38.9991L220.82 38.8807L220.198 38.6734L219.842 38.5845L219.309 38.4069L218.451 38.1699L217.947 38.0219L217.74 37.9035L217.622 37.8146L217.355 37.6073L217.089 37.3112L216.822 36.9855L216.526 36.6301L216.319 36.4228L216.171 36.2156L215.963 35.801L215.786 35.4456L215.726 35.2384L215.638 34.8238L215.519 34.4388L215.371 34.0539L215.312 33.8466L215.193 33.4616L215.075 33.0767L214.956 32.899L214.779 32.6325L214.631 32.4844L214.364 32.3068L214.187 32.1883L213.95 32.0995L213.624 32.0107L213.209 31.9218L213.061 31.833L212.617 31.6849L212.114 31.5369L211.906 31.448L211.581 31.2704L211.166 30.9742L210.87 30.7373L210.722 30.5004L210.426 30.1747L210.189 29.997L210.041 29.8786L209.893 29.7898L209.745 29.6713L209.567 29.5232L209.36 29.3159L209.182 29.1679L208.916 28.931L208.679 28.7533L208.501 28.6349L208.116 28.4276L207.82 28.2795L207.465 28.1019L207.02 27.9538L206.724 27.865L206.399 27.7169L206.073 27.5688L205.866 27.5096L205.629 27.4504L205.333 27.3616L205.096 27.3319L204.859 27.2727L204.385 27.2135L204.03 27.1543L203.733 27.1247H203.171L202.667 27.095L202.075 27.0654H201.779L201.335 27.095L201.039 27.1839L200.772 27.2135L200.358 27.3616L199.884 27.5984L199.736 27.7465L199.529 27.865L199.292 28.013L198.848 28.3387L198.226 28.7533L198.048 28.8422L197.693 28.9902L197.308 29.0495H197.071L196.834 29.0198Z" fill="#186149"/>
<path d="M145.662 157.921L145.81 156.5L145.928 155.226L145.958 153.953L145.81 152.117L145.573 151.318L145.01 150.192L144.536 149.748L143.826 149.422L142.73 149.067L142.049 148.86L141.072 148.534L139.71 148.001L138.881 147.616L138.496 147.32L138.229 146.905V146.728V146.52L138.318 146.372L138.377 146.283L138.466 146.165L138.496 146.047L138.525 145.928L138.555 145.78L138.614 145.602V145.366L138.584 145.099L138.496 144.714L138.436 144.24L138.377 143.944L138.17 142.967L138.051 142.612L137.726 141.782L137.548 141.22L137.43 140.864L137.311 140.42L137.281 140.006L137.341 139.739L137.607 139.384L137.814 139.117L137.933 138.525L137.844 138.111L137.755 137.814L137.637 137.4L137.578 136.985L137.607 136.719L137.785 136.334L138.081 135.86L138.288 135.534L138.525 135.149L138.94 134.379L139.206 133.935L139.591 133.284L139.769 132.899L140.006 132.336L140.095 131.951L140.035 131.477L139.947 131.033L139.739 130.5L139.562 129.849L139.473 129.582L139.236 129.108L138.969 128.724L138.525 127.776L138.348 127.421L138.199 127.006L138.111 126.651L138.051 126.325V125.999L138.111 125.733L138.288 125.318L138.436 125.022L138.762 124.519L139.029 124.015L139.325 123.601L139.621 123.216L140.035 122.623L140.391 122.268L140.42 122.002L140.302 121.617L140.539 121.172L140.657 120.847L140.598 120.314L140.391 120.018L140.065 119.751L139.65 119.514L139.295 119.218L139.029 118.922L138.851 118.419L138.525 118.211L138.259 118.182L137.607 118.152L137.252 118.122L136.067 117.856L135.653 117.619L134.913 116.938L134.409 116.464L134.024 116.168L133.313 115.665L132.366 115.013L131.892 114.687L131.3 114.214L130.915 113.651L130.678 113.296L130.323 112.97L129.938 112.763L129.701 112.615L129.493 112.378L129.227 111.993L128.872 111.756L128.013 111.519L127.332 111.4L126.532 111.223L124.756 110.66L124.252 110.334L123.867 110.038L123.245 109.624L122.653 109.268L122.239 109.12L121.854 108.913L121.498 108.617L121.261 108.084L121.202 107.758L121.173 107.225L121.202 106.84V106.485L121.35 105.833L121.38 105.448L121.439 104.915L121.498 104.442L121.528 103.879L121.469 103.405L121.261 102.665L121.054 102.28L120.788 101.954L120.373 101.54L119.544 100.74L119.366 100.474L119.218 99.9998L119.1 99.5853L119.011 99.2595L118.892 98.7561L118.833 98.4304L118.715 98.1047L118.478 98.0158L118.093 97.9566L117.619 97.8974L116.612 97.6901L116.079 97.6308L115.457 97.542L114.599 97.4236L113.858 97.3347L113.414 97.3051L112.792 97.2755L112.319 97.2459H112.022H111.637H111.223H110.808L110.009 97.2163L109.357 97.2459L108.558 97.3051H108.054L107.136 97.3643L106.603 97.4236L105.597 97.5124L104.827 97.5716L103.909 97.6605L103.05 97.7197L102.191 97.5716L101.954 97.3939L101.717 96.9794L101.658 96.624L101.599 95.9726V95.6468L101.54 94.9658L101.481 94.5216L101.362 93.8701L101.332 93.574V93.0706L101.421 92.4784L101.362 91.7084L101.303 91.2642L101.096 90.8201L100.859 90.6128L100.563 90.4944H100.148H99.6446L99.1708 90.5239L98.6673 90.5536L98.0455 90.5832L97.6605 90.5536L97.246 90.4944L96.8018 90.3759L96.3576 90.2574L95.9727 89.8429L95.8246 89.3395L95.7061 88.9545L95.6469 88.5399L95.6173 88.1846L95.7061 87.8885L95.8246 87.5035L95.9727 87.1778L96.1799 86.8224L96.5057 86.6448L96.713 86.4671L97.1867 86.0821L97.4829 85.8453L97.8975 85.4899L98.2232 85.1938L98.8154 84.6904L99.0819 84.4831L99.4076 84.2758L99.8519 83.9797L100.237 83.7132L100.888 82.8841L100.918 82.4991L100.829 82.2326L100.474 81.8476L100.118 81.4034L99.763 80.8704L99.5261 80.4559L99.3484 80.1301L98.9339 79.5675L98.6081 79.1529L98.3416 78.8568L98.0159 78.4422L97.6902 77.8796L97.6013 77.317L97.6605 77.1097L97.8382 76.8728L98.1048 76.6063L98.3416 76.399L98.9043 75.9844L99.2004 75.8068L99.763 75.5403L100.207 75.333L100.355 75.2738L100.859 75.0072L101.392 74.6815L101.865 74.3854L102.635 73.9412L103.02 73.6747L103.761 73.1713L104.086 72.9048L105.33 71.9276L105.685 71.6611L105.982 71.4242L106.396 71.0096L106.515 70.7727V70.5062L106.455 70.2397L106.337 69.7955L106.159 69.2625L106.07 68.8479L106.011 68.4334L106.041 68.1076L105.952 67.545L105.893 67.16L105.745 66.5086V66.2124L105.863 65.6498L105.922 65.3537L106.041 64.8503L106.189 64.5838L106.307 64.2581L106.515 63.8435L106.574 63.6658L106.692 63.3697L106.396 63.5474L106.07 63.7843L105.685 64.0804L105.3 64.3173L104.945 64.4949L104.56 64.643L104.383 64.7615L103.968 64.9984L103.494 65.3241L103.228 65.5906L103.139 65.709V65.9459L102.902 66.5382H102.665L102.487 66.5086L102.132 66.5974L101.806 66.9527L101.392 67.2193L100.829 67.545L100.355 67.93L99.9111 68.3445L99.23 68.8479L98.9043 69.0256L98.5193 69.3217L98.0455 69.6178L97.3645 70.0324L96.8907 70.3581L96.6242 70.4766L96.2688 70.6247L95.9727 70.8319L95.6766 71.0392L95.2324 71.365L94.5513 71.8387L94.2552 72.0164L93.7813 72.2533L93.278 72.4606L92.8634 72.6383L92.3896 72.8752L92.0639 73.0232L91.3828 73.0824L90.9386 73.2009L90.524 73.349L89.7542 73.6451L89.1915 73.8524L88.5104 74.1781L88.2143 74.3262L87.7406 74.5038L87.4148 74.7111L87.0891 74.8888L86.556 75.0072L86.1711 75.1257L85.6973 75.3033L85.3419 75.4218L85.1642 75.481L84.8385 75.0961L84.572 74.7111L84.1871 74.2373L84.1279 74.2669L84.6609 75.0072L84.4536 75.1257L84.0686 74.563L83.8021 74.7111L84.0982 75.1257L83.8613 75.2441L83.4171 74.5038L83.2395 74.5927L83.5652 75.1849H83.4468L83.0618 74.948L82.973 75.0072L83.0914 75.1257L82.973 75.2738V75.4514L82.6768 75.3033L82.7657 75.2145L82.7065 75.0072L82.6473 74.948L82.6768 74.8888L82.7361 74.9184L82.7657 74.8592L82.6768 74.7999L83.3283 74.2077L85.5788 73.2009L85.5492 73.1121L83.2691 74.1189L82.6473 74.7407L82.3215 74.6223L82.0254 74.5335L81.8181 74.4446L81.6404 74.415L81.522 74.3854H81.3739L81.0482 74.5335L80.8705 74.6519L80.5448 74.7999L80.3967 74.8592L80.2191 74.8296L80.071 74.8592L79.8341 74.9184L79.5972 74.8592L79.4195 74.7703L79.1826 74.6223L79.005 74.415L78.8273 74.3262L78.7385 74.2077L78.6792 74.1189H78.5608L78.472 74.2373L78.3238 74.3558L78.235 74.415L78.1166 74.5927L77.9685 74.7999L77.7317 75.0961L77.554 75.2441L77.1986 75.3922L77.0802 75.481L76.8729 75.5995L76.6656 75.7179L76.4879 75.8364L76.1918 75.8068L76.0438 75.7772L75.8364 75.7475L75.718 75.6587L75.5996 75.6291L75.5108 75.7772L75.4515 75.9548V76.0733V76.1917L75.4811 76.3102L75.5403 76.4286L75.5699 76.5175L75.4515 76.6063L75.2443 76.6359L75.0666 76.6655L74.8593 76.784L74.7408 76.8432L74.5335 76.9616L74.3855 77.0209L74.2078 77.0801L74.0005 77.1393L73.8228 77.1985L73.5564 77.2578L73.2899 77.3466H73.1417L72.9345 77.3762L72.6976 77.465L72.6087 77.6427L72.5496 77.85L72.4903 77.9981L72.3126 78.2646L71.9573 78.4718L71.6908 78.6791L71.217 78.916L70.7728 79.1825L70.2102 79.5379L69.7364 79.7452L69.3218 79.834L68.9664 79.8932L68.7296 79.9821L68.5223 80.1597L68.1669 80.4559L67.6636 80.6927L67.4858 80.7816L67.3378 80.9296L66.9233 81.2554L66.5975 81.4627L66.0645 81.6996L65.5315 81.9365L64.8504 82.203L64.4062 82.351L63.7843 82.5879L63.281 82.7952L62.9848 82.8544L62.896 82.9136L62.7183 82.8841L62.4815 82.736L62.4518 82.6768L62.3925 82.5583L62.2445 82.6175L62.2149 82.7064L62.2445 82.9136L62.126 83.1802L61.5339 83.4171L61.0897 83.5355L60.7343 83.6244L60.3198 83.7132L60.2606 83.7428L59.7275 83.5355L59.4313 83.1209L59.2833 82.9729L59.1945 82.8248L59.0168 82.736L58.928 82.7064L58.7207 82.8841L58.6615 82.9433L58.3653 83.0617L58.2173 83.1802L57.9804 83.4171L57.625 83.6539L57.3289 83.8316L56.9144 84.0389L56.6182 84.1278L56.2925 84.2462L55.9964 84.3943L55.8779 84.5719L55.7298 84.7496L55.493 84.8977L54.9895 85.1346L54.6342 85.253L54.3677 85.2826L54.2197 85.3122L53.9827 85.3715L53.8347 85.253L53.7755 85.1642L53.5682 85.2234L53.6274 85.3715V85.4011L53.4794 85.6084L53.124 85.8453L52.7094 86.0525L52.3541 86.2302L52.2949 86.3487L52.058 86.4375L51.7323 86.5263L51.4953 86.7632L50.9623 87.089L50.2812 87.3259L49.6298 87.4147L49.3041 87.5035L48.8006 87.7996L48.5341 88.0365L47.9419 88.2142L47.4681 88.3919L47.0535 88.5696L46.6982 88.8065L46.3429 88.9545H46.1652L46.0764 89.0137L45.8987 89.073L45.6026 89.221L45.2176 89.3395H44.6549L43.9443 89.2506L43.6185 89.1618L43.204 89.2506L42.6117 89.4579L42.0491 89.6356L41.5161 89.8133L40.9238 90.0798L40.4204 90.4055L39.8578 90.7312L39.236 91.057L38.9102 91.2642L38.3772 91.6196L38.1404 91.7381L37.1335 92.0934L37.0446 92.123L36.8078 92.2415L36.482 92.3895L36.1563 92.4784L35.7417 92.508L35.416 92.5376L35.0607 92.7153L34.8237 92.8041L34.3796 92.8929L33.9946 92.9818L33.6393 93.1298L33.3431 93.2483L33.1359 93.3371L32.899 93.3963L32.6917 93.4852L32.4844 93.6628L32.3363 93.7813L32.2475 93.8701L32.0402 93.8997L31.6849 93.8405L31.4184 93.8701L31.1519 93.9886L30.6781 94.2255L30.2339 94.3735L29.4936 94.5512L28.8718 94.6696L28.1315 95.025L27.9538 95.2323L27.48 95.4988L26.71 95.6468L25.9697 95.7949L25.5848 96.091L25.0221 96.4464L24.5483 96.5648L23.9561 96.9794L23.2158 97.1571L22.3867 97.3051L21.7056 97.5124L20.9653 97.6901L20.4915 97.7789L19.8993 97.8974L19.6624 97.8677L19.3662 97.927L18.774 98.1342L18.5667 98.1639L18.4187 98.1935L18.3299 98.1342L18.1522 98.0454L17.7376 98.075L17.5896 98.1342L17.4119 98.3711L17.1158 98.6377L16.3755 99.2299L15.7535 99.6149L14.9541 100.029L14.0657 100.385L13.2661 100.592L12.6443 100.711L12.141 100.829H11.4599L10.986 100.859H10.6307L10.1866 100.918L9.89042 101.095L9.83114 101.184L9.47581 101.392H9.32778L8.76515 101.362H8.49865L8.14332 101.421L7.93601 101.51L7.55104 101.717L7.34373 101.836L6.86993 102.132L5.71511 102.428H5.41897H5.12283H4.91561L4.61947 102.369L4.47136 102.28L4.2345 102.25L3.99765 102.458L3.64223 102.635L3.40537 102.783L3.10923 103.05L2.87237 103.316L2.66507 103.553L2.4874 103.849L2.36893 104.086L2.13207 104.442L1.77674 104.738L1.53979 105.034L1.42132 105.389L1.30294 105.656L1.18446 105.952L1.06599 106.189L0.710661 106.633L0.35533 106.959L0.236857 107.077L0 107.284H0.0295506L0.473804 107.314H0.710661L1.18446 107.344H1.98396L2.90192 107.462L3.55339 107.551L4.2345 107.699L4.67867 107.847L5.44861 108.054L6.42577 108.291L7.07724 108.41L7.81754 108.587L8.29134 108.706L8.88362 108.854L9.68311 109.18L10.0681 109.328L10.5714 109.505L10.986 109.653L11.519 109.861L11.9928 110.098L12.437 110.334L12.822 110.453L13.1478 110.571L13.355 110.601L13.8288 110.719L14.3322 110.808L14.7467 110.867L15.1317 110.927L15.8128 110.897L16.1978 110.838L16.9973 110.719L17.6784 110.69L18.3891 110.631L18.8332 110.571L19.2774 110.482L19.5735 110.423L20.1954 110.334L20.5508 110.275L21.2022 110.186L21.7056 110.127L22.1498 110.068L22.594 110.009L22.9493 109.949L23.4232 109.92L23.8969 109.861H24.2523L24.6964 109.89L25.111 109.92L25.7329 110.038L26.2067 110.186L26.6509 110.394L27.243 110.69L27.7465 110.897L28.3387 111.134L28.6645 111.282L29.2567 111.46L29.7897 111.667L30.3524 112.022L30.9742 112.466L31.5368 112.851L31.9513 113.088L32.3068 113.296L32.8398 113.562L33.3431 113.769L33.9058 114.066L34.7053 114.51L35.0903 114.717L35.6233 115.102L35.949 115.339L36.2748 115.576L36.6301 115.872L36.9558 116.138L37.4592 116.642L37.7554 116.879L38.0515 117.145L38.1699 117.293L38.4957 117.619L38.6733 117.826L38.851 118.122L39.0287 118.448L39.1767 118.863L39.1471 119.336L39.0583 119.633L38.9102 119.929L38.7325 120.225L38.466 120.491L38.1995 120.758L37.8442 121.113L37.6665 121.35L37.4296 121.705L37.2816 121.913L37.0743 122.209L36.9558 122.475L36.8374 122.742L36.8078 123.038L36.867 123.541L36.9854 123.956L37.1631 124.311L37.3408 124.667L37.6073 125.14L38.1699 125.822L38.4068 126.118L38.5549 126.266L38.7325 126.414L39.0583 126.71L39.2655 126.917L39.5617 127.154L39.8875 127.361L40.2428 127.48L40.5981 127.539L41.1904 127.598L41.6937 127.628L42.0195 127.657L42.5822 127.806L43.1743 127.894L43.7666 128.013L44.4181 128.102L44.7142 128.161L45.1879 128.22L45.721 128.368L46.1948 128.457L46.7574 128.575L47.4385 128.694L47.7938 128.753L48.3565 128.842L48.6822 128.901L49.3337 129.079L49.7482 129.197L50.2812 129.434L50.7255 129.819L51.0215 130.026L51.6434 130.5L52.2356 130.944L52.7094 131.181L53.0056 131.359L53.5089 131.685L53.8643 131.981L54.19 132.307L54.6638 132.632L55.2561 132.928L55.7891 133.136L56.1148 133.254L56.6774 133.373L56.9736 133.461L57.4474 133.58L57.8324 133.669L58.2469 133.787L58.543 133.846L58.8095 133.906L59.1353 133.994L59.3425 134.054L59.4313 134.202L59.461 134.409L59.3425 134.942L59.1945 135.327L59.0168 135.771L58.928 136.393V136.719L58.9576 137.133L59.1945 137.992L59.3425 138.496L59.4906 138.821L59.6683 139.236L59.9051 139.71L60.1421 140.154L60.3198 140.42L60.6454 140.924L60.8824 141.249L61.1192 141.546L61.3266 141.871L61.6522 142.345L61.9484 142.819L62.0669 143.026L62.3334 143.441L62.5703 143.826L62.748 144.122L62.8663 144.299L63.044 144.566L63.2218 144.892L63.3106 145.069L63.3402 145.099V145.129L63.5178 145.336L63.814 145.632L64.1101 145.869L64.4951 146.254L64.8208 146.609L65.2057 146.876L65.7092 147.201L66.0941 147.379L66.479 147.586L66.8344 147.675L67.0417 147.734L67.3674 147.883L67.8708 148.149L68.1669 148.267L68.7296 148.534L69.1442 148.741L69.5291 148.949L69.7956 149.037L70.2694 149.067L70.6543 149.097L71.2466 149.067L71.5723 149.097L71.8388 149.156L72.1054 149.334L72.2238 149.482L72.5199 149.867L72.5791 150.133L72.7568 150.488L73.0825 150.844L73.2306 150.962L73.5267 151.169L74.2967 151.614L74.4447 151.762L74.6816 152.236L74.7112 152.472L74.5928 152.68L74.2967 152.946L73.734 153.331L73.4082 153.45L72.7864 153.686L72.2831 153.894L71.7204 154.16L71.217 154.368L70.9505 154.604L70.6543 154.871L70.5359 154.989L70.3286 155.286L70.1213 155.582L69.8845 155.937L69.5883 156.411L69.4402 156.677L69.2922 157.24L69.2034 157.506L69.1145 158.039L69.0553 158.395L68.9961 158.75L68.9664 159.076L69.0257 159.52L69.0553 159.757L69.233 160.083L69.3514 160.32L69.7364 160.734L70.0029 160.882L70.8616 161.06L71.1873 161.09L71.8981 161.06L72.3719 160.971L72.9641 160.882L73.3194 160.823L74.1485 160.882L74.652 160.971L75.2443 161.208L75.6588 161.326L76.3991 161.474L77.0209 161.652L77.5835 161.83L77.9982 161.948L78.5903 162.156L79.0346 162.333L79.3306 162.452L79.7156 162.6L80.1006 162.777L80.3079 162.866L80.6632 163.044L80.9001 163.162L81.3443 163.458L81.6404 163.725L82.055 163.991L82.2919 164.11L82.5584 164.199L82.8249 164.228L83.6541 164.436L83.9206 164.495L84.4239 164.465L84.6905 164.347L85.0162 164.199L85.3419 164.11H85.7269L86.2007 164.169L86.5264 164.317L87.0003 164.436L87.5036 164.613H87.6221L87.7109 164.643L88.0366 164.613L88.4809 164.584L88.8362 164.525L89.1915 164.376L89.4877 164.199L89.6949 164.021L89.9022 163.755L90.1687 163.37L90.376 163.162L90.6425 162.866L91.1459 162.392L91.3236 162.215L91.5604 161.978L91.7381 161.859L91.9751 161.741L92.1824 161.652L92.5672 161.474L93.041 161.386L93.2187 161.415L93.5445 161.474L93.8702 161.682L94.2848 161.978L94.8178 162.244L95.2028 162.452L95.6766 162.629L95.9134 162.718L96.1799 162.837L96.4761 162.896L96.9202 162.837L97.4533 162.777L98.1343 162.629L98.8154 162.452L99.3188 162.215L99.7038 162.037L100.237 161.771L100.711 161.504L101.184 161.208L101.895 160.971L102.102 160.941L102.872 160.971L103.583 160.823L104.294 160.734L104.827 160.823L105.626 161.03L106.159 161.178L106.84 161.238H107.581L108.084 161.326L108.469 161.356L108.913 161.09L109.357 161.001L109.861 160.971L110.364 161.149L111.075 161.386L112.022 161.445L112.911 161.415L113.296 161.326L114.066 161.149L114.747 161.06L116.079 161.03H116.879L118.063 160.971H118.744L119.751 160.941L120.284 161.06L120.965 161.474L121.439 161.978L121.942 162.452L122.505 162.837L123.038 163.192L123.305 163.281L123.897 163.518L124.075 163.458L124.4 163.162L124.667 162.925L125.081 162.629L125.318 162.511L125.674 162.156L125.91 161.859L126.118 161.534L126.355 161.297L126.414 161.238L126.562 161.09L126.977 160.645L127.361 160.349L127.539 160.201L128.013 159.816L128.783 159.846L129.405 159.964L130.411 160.29L131.181 160.438L131.803 160.497H132.78L133.639 160.438L134.913 160.468L136.215 160.349L137.193 160.26L138.229 160.083L139.354 159.816L140.243 159.698L141.605 159.55L142.641 159.254L143.085 159.165L144.122 158.75L145.129 158.217L145.662 157.921Z" fill="#3C8E74"/>
<path d="M170.125 37.8738L170.392 37.1335L170.51 36.7485L170.688 36.1267L170.836 35.6529L170.895 35.1791L171.102 34.3203L171.28 33.8169L171.576 33.1358L171.754 32.8101L171.961 32.3363L172.198 31.8033L172.405 31.2407L172.524 30.8853L172.672 30.4707L172.79 30.2042L172.82 29.997L172.879 29.9081L172.909 29.8193L172.938 29.5824L172.997 29.4047L173.086 29.079L173.175 28.7236V28.3979V28.2498V27.9537L173.146 27.6576L173.057 27.3319L172.997 27.1542L172.938 26.9765L172.849 26.8285L172.701 26.5323L172.524 26.2658L172.257 25.9697L171.813 25.644L171.458 25.792L171.369 25.8809L171.31 25.9697L170.984 26.2066L170.658 26.4435L170.303 26.7396L170.066 26.9765L169.74 27.2726L169.592 27.4503L169.355 27.6872L169.089 27.9833L168.881 28.2202L168.733 28.3387L168.615 28.4867L168.378 28.7236L168.052 29.0198L167.904 29.1974L167.756 29.2863L167.608 29.4343L167.549 29.5528L167.401 29.6712L166.957 30.3227L166.66 30.5004L166.276 30.8557L166.127 31.0334L165.831 31.2999L165.476 31.596L165.15 31.8625L164.884 32.0402L164.676 32.2771L164.44 32.514L164.291 32.7509L164.203 32.9285L163.995 33.1654L163.758 33.4319L163.433 33.6096L163.137 33.7281L162.752 34.0242L162.396 34.3795L162.189 34.6461L161.923 34.7941L161.686 34.9718L161.656 35.1198L161.745 35.1495L161.626 35.2975L161.33 35.4159L161.153 35.6825L161.034 35.8009L160.738 36.0082L160.59 36.0674L160.264 36.3043L160.116 36.5412L159.909 36.7485L159.613 36.867L159.346 36.8966L159.08 36.9558L158.813 37.1927L158.517 37.4592L158.369 37.6961L158.28 37.933L158.073 37.9922L157.836 37.933H157.54L157.451 38.1995L157.392 38.466L157.214 38.6437L157.066 38.6733L156.829 38.6141L156.622 38.4956H156.474L156.385 38.7029L156.326 38.999L156.207 39.3544L156.089 39.4728L155.763 39.5024L155.526 39.4432L155.23 39.5024L155.112 39.5913L154.845 39.8874L154.638 40.0947L154.49 40.1835L154.075 40.3908L153.779 40.45L153.69 40.5981L153.602 40.8646L153.542 41.0422L153.453 41.1903L153.365 41.3088L153.276 41.368L153.069 41.5161L152.743 41.5456L152.476 41.5161L152.269 41.5753L152.002 41.7825L151.706 41.9898L151.44 42.3156L151.203 42.5821L150.996 42.8486L150.7 43.1447L150.433 43.3224L150.048 43.4704L149.574 43.6185L149.16 43.7666L148.597 44.0035L148.094 44.1219L147.679 44.2107H147.117L146.791 44.27L146.613 44.3884L146.199 44.7142L145.814 44.8918L145.488 44.951L145.132 45.0695L144.777 45.2176L144.303 45.4545L143.918 45.6617L143.533 45.9579L143.297 46.1651L142.941 46.4316L142.704 46.6982L142.112 47.0831L141.698 47.2312L141.401 47.4088L141.135 47.5865L140.602 48.0011L140.395 48.2084L140.098 48.4749L139.832 48.6525L139.565 48.8302L139.299 48.9487L139.032 49.0079H138.647L138.411 49.0671L138.203 49.2448L137.878 49.4817L137.729 49.5409L137.433 49.5705L137.256 49.5113L137.078 49.4817H137.019L136.9 49.6001L136.575 49.8667L136.042 50.1036H135.864L135.449 50.3108L135.035 50.3997L134.739 50.3404L134.295 50.3701L134.028 50.607L133.525 50.9327L133.169 51.0511L132.577 51.2584L132.044 51.5249L130.83 51.9987L130.06 52.1764L129.083 52.2652L128.52 52.2356L128.135 52.206L127.898 52.1468L127.661 52.2948L127.484 52.5317L127.128 52.8279L126.743 53.0944L126.151 53.3016L125.737 53.5682L125.233 53.8643L124.789 54.1012L124.404 54.3381L123.871 54.5157L123.575 54.6342L123.279 54.7822L122.835 54.9303L122.687 55.0191L122.598 55.1376L122.272 55.4337L121.857 55.5522L121.532 55.9371L121.147 56.2332L120.91 56.5294L120.732 56.8255L120.466 57.092L120.081 57.1808L119.666 57.2697L119.222 57.3881L118.6 57.5362L118.304 57.6842L118.008 58.0396L117.623 58.4245L117.475 58.6022L117.356 58.8095L117.149 59.1056L116.705 59.2833L116.231 59.4313L115.905 59.7571L115.698 59.994L115.372 60.4085L114.928 60.527L114.632 60.5862L114.425 60.7935V61.06V61.2673V61.445L114.188 61.593L114.01 61.7115H113.566L113.329 61.8595L113.151 62.126L112.559 62.4222L112.174 62.5702L111.878 62.5998H111.671L111.404 62.7183L110.901 62.8367L110.457 62.896L109.953 62.9848L109.124 63.0144L108.591 62.896L108.266 62.7775L107.851 62.6887L107.703 62.6294L107.673 62.5406V62.4518L107.792 62.2741L108.088 62.1557L108.266 62.0668L108.325 61.978H108.206L107.94 62.0964L107.703 62.2149L107.584 62.3037L107.466 62.5702L107.377 62.7479L107.229 63.0144L106.992 63.2217L106.696 63.3697L106.578 63.6659L106.518 63.8435L106.311 64.2581L106.193 64.5839L106.045 64.8503L105.926 65.3537L105.867 65.6499L105.748 66.2125V66.5086L105.896 67.1601L105.956 67.5451L106.045 68.1077L106.015 68.4334L106.074 68.848L106.163 69.2625L106.341 69.7956L106.459 70.2397L106.518 70.5063V70.7728L106.4 71.0097L105.985 71.4242L105.689 71.6611L105.334 71.9276L104.09 72.9048L103.764 73.1713L103.024 73.6748L102.639 73.9413L101.869 74.3854L101.395 74.6816L100.862 75.0073L100.359 75.2738L100.211 75.333L99.7669 75.5403L99.2042 75.8068L98.9081 75.9845L98.3454 76.3991L98.1086 76.6063L97.842 76.8728L97.6643 77.1097L97.6051 77.317L97.694 77.8797L98.0198 78.4423L98.3454 78.8569L98.6119 79.153L98.9377 79.5675L99.3522 80.1302L99.5299 80.4559L99.7669 80.8705L100.122 81.4035L100.478 81.8477L100.833 82.2326L100.922 82.4991L100.892 82.8841L100.241 83.7132L99.8557 83.9797L99.4114 84.2759L99.0857 84.4831L98.8192 84.6904L98.227 85.1938L97.9013 85.49L97.4867 85.8453L97.1905 86.0822L96.7168 86.4672L96.5095 86.6448L96.1837 86.8225L95.9765 87.1778L95.8284 87.5036L95.7099 87.8885L95.6211 88.1846L95.6507 88.54L95.7099 88.9546L95.8284 89.3395L95.9765 89.8429L96.3614 90.2575L96.8056 90.376L97.2498 90.4944L97.6643 90.5536L98.0493 90.5832L98.6711 90.5536L99.1746 90.524L99.6484 90.4944H100.152H100.566L100.862 90.6129L101.099 90.8201L101.307 91.2643L101.366 91.7085L101.425 92.4784L101.336 93.0706V93.5741L101.366 93.8702L101.484 94.5216L101.544 94.9658L101.603 95.6469V95.9726L101.662 96.6241L101.721 96.9794L101.958 97.394L102.195 97.5717L103.054 97.7197L103.913 97.6605L104.83 97.5717L105.6 97.5125L106.607 97.4236L107.14 97.3644L108.058 97.3052H108.562L109.361 97.246L110.013 97.2163L110.812 97.246H111.227H111.641H112.026H112.322L112.796 97.2756L113.418 97.3052L113.862 97.3348L114.602 97.4236L115.461 97.5421L116.083 97.6309L116.616 97.6901L117.623 97.8974L118.097 97.9566L118.482 98.0159L118.719 98.1047L118.837 98.4304L118.896 98.7562L119.015 99.2596L119.104 99.5853L119.222 99.9999L119.37 100.474L119.548 100.74L120.377 101.54L120.791 101.954L121.058 102.28L121.265 102.665L121.472 103.405L121.532 103.879L121.502 104.442L121.443 104.915L121.384 105.448L121.354 105.833L121.206 106.485V106.84L121.176 107.225L121.206 107.758L121.265 108.084L121.502 108.617L121.857 108.913L122.242 109.12L122.657 109.268L123.249 109.624L123.871 110.038L124.256 110.334L124.759 110.66L126.536 111.223L127.336 111.401L128.017 111.519L128.875 111.756L129.231 111.993L129.497 112.378L129.705 112.615L129.942 112.763L130.326 112.97L130.682 113.296L130.919 113.651L131.304 114.214L131.896 114.687L132.37 115.013L133.317 115.665L134.028 116.168L134.413 116.464L134.916 116.938L135.657 117.619L136.071 117.856L137.256 118.122L137.611 118.152L138.263 118.182L138.529 118.211L138.855 118.419L139.032 118.922L139.299 119.218L139.654 119.514L140.069 119.751L140.395 120.018L140.602 120.314L140.661 120.847L140.543 121.173L140.306 121.617L140.424 122.002L140.395 122.268L140.039 122.623L139.625 123.216L139.329 123.601L139.032 124.015L138.766 124.519L138.44 125.022L138.292 125.318L138.114 125.733L138.055 125.999V126.325L138.114 126.651L138.203 127.006L138.351 127.421L138.529 127.776L138.973 128.724L139.24 129.109L139.477 129.582L139.565 129.849L139.743 130.5L139.95 131.033L140.039 131.477L140.098 131.951L140.01 132.336L139.773 132.899L139.595 133.284L139.21 133.935L138.944 134.379L138.529 135.149L138.292 135.534L138.085 135.86L137.789 136.334L137.611 136.719L137.581 136.985L137.641 137.4L137.759 137.814L137.848 138.111L137.937 138.525L137.818 139.117L137.611 139.384L137.345 139.739L137.285 140.006L137.315 140.42L137.433 140.865L137.552 141.22L137.729 141.783L138.055 142.612L138.174 142.967L138.381 143.944L138.44 144.24L138.499 144.714L138.588 145.099L138.618 145.366V145.602L138.559 145.78L138.529 145.928L138.499 146.047L138.47 146.165L138.381 146.284L138.322 146.372L138.233 146.52V146.728V146.905L138.499 147.32L138.884 147.616L139.713 148.001L141.076 148.534L142.053 148.86L142.734 149.067L143.83 149.422L144.54 149.748L145.014 150.192L145.577 151.318L145.814 152.117L145.962 153.953L145.932 155.226L145.814 156.5L145.666 157.921L146.584 157.507L147.324 157.181L147.798 156.973L148.39 156.737L148.775 156.648L149.219 156.559L150.137 156.352L151.173 156.085L151.706 155.878L152.772 155.552L153.572 155.315L155.319 154.901L156.326 154.693L157.836 154.397L158.695 154.308H159.435H160.412L161.093 154.368L161.301 154.397L161.745 154.693L161.923 154.96L162.396 155.641L162.841 156.085L163.67 156.47L164.025 156.589L164.528 156.825L164.913 157.151L165.239 157.418L166.068 157.803L166.305 157.862L166.572 157.891L167.075 157.862L167.519 157.773L168.082 157.655L169.178 157.447L169.77 157.299L170.925 156.973L172.109 156.707L172.82 156.559L173.531 156.381L174.034 156.233L174.745 156.085L175.278 155.937L176.551 155.522L177.35 155.434L178.061 155.374H179.009L180.164 155.345H180.963L182.118 155.374L182.799 155.315L183.776 155.286L184.368 155.197L185.05 155.049L185.523 154.93L185.938 154.841L186.826 154.456L187.359 154.071L187.626 153.746L188.04 153.272L188.633 152.65L188.988 152.295L189.314 151.851L189.699 151.229L189.995 150.637L190.321 149.955L190.646 149.245L190.824 148.771L191.031 148.297L191.179 147.942L191.446 147.586L191.653 147.379L191.712 147.35L191.771 147.29L192.156 147.142L192.423 147.083H192.66H193.341H193.815L194.466 147.172L194.999 147.32L196.302 147.586L196.776 147.675L197.664 147.883L198.227 148.06L199.323 148.416L200.033 148.653L200.774 148.86L201.928 149.067H202.461L203.231 148.919L203.587 148.712L204.12 148.327L204.327 148.119L204.742 147.735L205.008 147.616L205.127 147.586L205.097 147.409V147.113L204.949 146.905L204.83 146.817H204.623L204.327 146.787L203.883 146.757L203.261 146.609L202.906 146.461L202.106 146.106L201.721 145.869L201.543 145.691L201.366 145.454L201.218 145.336L201.188 145.306L201.159 145.217L201.129 145.099L201.07 144.951L201.011 144.744L200.951 144.448L200.922 144.329L200.892 144.151V143.944L200.951 143.737L201.04 143.53L201.218 143.145L201.307 142.967L201.425 142.671L201.455 142.345L201.366 142.167L201.188 142.079L200.862 142.019H200.596L200.152 141.99H199.737L199.471 141.96L198.671 141.901L198.197 141.871L197.339 141.783L196.924 141.723L196.391 141.664L195.799 141.634L195.384 141.575L195.058 141.338L194.851 140.924L194.822 140.687L194.792 140.331L194.851 140.154L194.94 140.035L195.118 139.887L195.325 139.71L195.532 139.443L195.651 139.206V138.999L195.562 138.821L195.414 138.525L195.236 138.466L194.97 138.436L194.466 138.525L193.992 138.555L193.607 138.584H193.223L192.749 138.555L192.393 138.496L192.156 138.466L191.801 138.436L191.683 138.347L191.505 138.14L191.268 137.726L191.09 137.341L190.972 137.074L190.765 136.719L190.469 136.541L190.024 136.482H189.639L189.284 136.512L188.899 136.541L188.455 136.571L188.1 136.6H187.715L187.211 136.63L186.737 136.423L186.56 136.275L186.264 135.919L185.819 135.534L185.435 135.149L184.99 134.794L184.694 134.646L184.428 134.676L184.043 134.853L183.687 135.061L183.154 135.238L182.621 135.179L182.236 135.061L181.644 134.824L181.259 134.468L181.022 134.024L180.845 133.61L180.697 133.521L180.46 133.55L180.341 133.58L180.134 133.728L179.897 133.876H179.69L179.542 133.817L179.453 133.61L179.364 133.461L179.216 133.373L179.009 133.402L178.89 133.461L178.565 133.61L178.328 133.639H178.18L177.883 133.521L177.765 133.373L177.735 133.195V133.047L177.765 132.84L177.883 132.514L177.972 132.277L178.032 131.981L177.972 131.655L177.824 131.418L177.706 131.27L177.41 131.004L176.965 130.796L176.64 130.678L175.278 130.323L174.774 130.175L174.3 129.908L173.915 129.582L173.767 129.405L173.649 129.109V128.931V128.783L173.915 128.368L174.004 127.954L173.915 127.658L173.797 127.45L173.619 127.302L173.323 127.213L172.938 127.184L172.672 127.065L172.524 126.828L172.405 126.562L172.346 126.355L172.316 126.058L172.257 125.762L172.168 125.496L172.05 125.141L171.931 124.904V124.578L171.961 124.4L172.02 124.282L172.257 124.045L172.435 123.867L172.524 123.63L172.376 123.453L172.198 123.334L171.813 123.186L171.606 123.068L171.487 122.801L171.458 122.653L171.576 122.387L171.783 122.09L172.139 121.706L172.316 121.557L172.494 121.35L172.849 121.024L173.086 120.847L173.59 120.61L173.649 120.432L173.59 120.195L173.501 119.899L173.442 119.366V119.277V119.129L173.471 119.04L173.619 118.685L173.767 118.33L173.886 117.945L174.004 117.53L174.093 117.234L174.33 116.701L174.389 116.553L174.448 116.287L174.626 115.694L174.715 115.369L174.833 114.717L174.774 114.184L174.656 113.621L174.567 113.355L174.36 112.97L174.064 112.555L173.738 112.23L173.531 111.993L173.234 111.637L172.938 111.401L172.464 111.016L172.05 110.631L171.843 110.275L171.783 110.038L171.961 109.653L172.168 109.298L172.198 108.824L172.139 108.617L171.991 108.232L171.872 107.966L171.783 107.729L171.754 107.432L171.902 107.196L172.287 106.988L172.583 106.781L172.642 106.544V106.278L172.612 105.685L172.553 105.389L172.405 105.064L172.168 104.945L172.05 104.886L171.902 104.708L171.931 104.56L172.168 104.294L172.464 103.909L172.701 103.642L172.997 103.376L173.146 103.198L173.175 103.168V102.872L173.146 102.576V102.102V101.599L173.057 101.244L172.909 101.007L172.701 100.947L172.257 100.918L171.961 100.859L171.635 100.533V100.326L171.783 99.9999L172.02 99.763L172.168 99.6149L172.316 99.3484L172.168 99.0227L171.991 98.8746L171.694 98.845L171.369 98.8154L170.984 98.6081L170.895 98.4897L170.836 98.2824L170.865 98.1047V97.8382L170.895 97.6309L170.865 97.246L170.925 97.0091L171.132 96.5945L171.339 96.328L171.576 96.0615L171.724 95.9134L172.109 95.4988L172.257 95.3212L172.405 95.0547L172.464 94.8474L172.435 94.4624L172.376 94.1071L172.139 93.5148L172.02 93.2779L171.902 92.9818L171.783 92.7449L171.694 92.6265L171.517 92.3007L171.398 92.0342L171.31 91.7381L171.191 91.3532L171.132 90.9682V90.7313L171.102 90.3463V90.0502L170.895 89.1915L170.836 88.9842L170.628 88.4808L170.392 87.8885L170.303 87.5332L170.214 87.1482L170.155 86.6152L170.096 86.0822L170.036 85.7565L170.007 85.4011V84.7793L170.036 84.4535L170.096 84.1574L170.155 83.9797V83.8613L170.303 83.654L170.48 83.3875L170.688 83.121L170.895 82.9433L171.073 82.736L171.398 82.4695L171.517 82.3511L171.754 82.203L172.168 81.9365L172.405 81.8181L172.583 81.67L172.672 81.3443L172.731 81.1074V80.752V80.4263L172.79 80.1302L172.909 79.8045L173.116 79.5675L173.471 79.301L173.679 79.153L173.945 79.0345L174.36 78.9161L174.863 78.7976L175.129 78.7384L175.574 78.6496L175.87 78.5607L176.255 78.4127L176.551 78.1758L176.699 78.0277L176.817 77.7908L176.877 77.5539L176.817 77.2282L176.669 76.9617L176.462 76.6063L176.284 76.2806L176.166 75.9845L176.047 75.4811L175.988 75.0665L176.077 74.8296L176.225 74.5039L176.344 74.1782L176.432 73.8228V73.5267L176.314 73.2306L176.196 72.9048L176.047 72.6383L175.988 72.3718L176.018 72.1053L176.166 71.9276L176.403 71.7203L176.61 71.5131L176.847 71.2762L177.025 71.0393L177.114 70.6839L177.143 70.4174L177.114 70.0028L177.025 69.6771L176.936 69.4106L176.729 68.8184L176.64 68.5519L176.314 67.7523L176.107 67.3082L175.84 66.6567L175.574 66.1533L175.426 65.8572L175.485 65.561L175.633 65.3242L175.781 65.1169L175.959 64.9096L176.047 64.7319L176.077 64.495L176.107 64.2581V64.0804L176.018 63.6955L175.959 63.4882L175.84 63.1032V62.6294L175.811 62.3333L175.692 61.8595L175.426 61.8003L175.041 61.7707L174.745 61.7411L174.478 61.6522L174.034 61.445L173.797 61.2673L173.649 61.1488L173.471 60.8527L173.412 60.4085L173.442 60.0828L173.501 59.7867L173.442 59.5202L173.234 59.1945L173.027 58.8983L172.909 58.691L172.672 58.2173L172.524 57.7731L172.376 57.4473L172.228 57.0624L172.109 56.6774L172.05 56.4997L171.931 56.026L171.813 55.7298L171.665 55.3745L171.31 54.9303L170.984 54.6934L170.836 54.5157L170.628 54.2196L170.007 53.3313L169.711 52.9759L169.474 52.5613L169.326 52.3245L169.118 51.9395L168.941 51.6138L168.674 51.14L168.526 50.8439L168.319 50.3701L168.141 49.689L168.023 49.3633L167.934 49.0079L167.786 48.5045L167.697 48.1195L167.667 47.9122L167.697 47.5273V47.1423V46.8166L167.726 46.4316L167.756 46.0763V45.6321L167.815 45.2768L167.845 44.9214L167.904 44.5069L167.993 44.0923L168.111 43.5593L168.2 43.2336L168.408 42.7005L168.556 42.3156L168.733 41.9306L168.941 41.5161L169.059 41.2495L169.178 40.983L169.355 40.5981L169.503 40.0354L169.711 39.4432L169.859 38.8806L169.947 38.4956L170.125 37.8738Z" fill="#227359" stroke="#EAF3E9" stroke-width="0.98"/>
</svg>
