<svg width="331" height="209" viewBox="0 0 331 209" fill="none" xmlns="http://www.w3.org/2000/svg">
<path d="M144.563 34.963L144.505 35.0607L144.426 35.1388L144.368 35.256L144.27 35.4708L144.153 35.7248L144.075 35.9396L144.094 36.2131L144.133 36.3889L144.172 36.5647L144.212 36.799L143.801 37.2874L143.43 37.5413L142.903 37.7757L142.454 37.9905L142.161 38.1858L141.711 38.4984L141.125 38.8304L140.735 39.0062L140.149 39.2797L139.641 39.4555L139.133 39.6312L138.684 39.7875L138.196 40.0024L137.903 40.1391L137.453 40.3735L136.828 40.725L136.535 40.9009L136.359 41.0571L136.086 41.3696L135.871 41.604L135.539 41.8579L135.266 42.0142L134.934 42.1705L134.524 42.3462L134.289 42.4634L134.074 42.5806L133.977 42.7174L133.996 42.8931L134.055 43.1666L134.113 43.3229L134.152 43.5963L134.191 43.7331L134.309 43.987L134.426 44.1432L134.68 44.3971L135.012 44.6901L135.246 44.905L135.969 45.4519L136.242 45.5496L136.555 45.6277L136.985 45.7058L137.473 45.784L137.824 45.8426L138.254 45.9207L138.508 45.9988L138.996 46.116L139.368 46.2332L139.7 46.3113L140.149 46.4481L140.422 46.4676L140.774 46.5457L141.301 46.6434L141.77 46.702L142.317 46.6824L142.59 46.6238L143.04 46.5066L143.313 46.4285L143.704 46.3113L143.938 46.2527L144.309 46.1551L144.817 46.0769L145.208 46.0379H145.462L145.813 46.116L146.126 46.1941L146.477 46.4285L146.555 46.5457L146.692 46.7996L146.77 47.0926L146.809 47.2684L146.848 47.6591L146.868 47.952L146.907 48.2646L146.966 49.2998L146.907 49.6318L146.77 49.9443L146.692 50.1006L146.595 50.4327V50.7257L146.634 51.0577L146.712 51.2921L146.79 51.5655L146.731 51.8585L146.634 52.0734L146.458 52.3468L146.438 52.5617L146.399 52.8742L146.38 53.2648V53.4407L146.438 53.8117L146.555 53.968L146.712 54.0852L147.024 54.2805L147.298 54.4368L147.649 54.6321L148.079 54.8665L148.274 54.9837L148.45 55.14L148.723 55.4134L148.821 55.5502L148.938 55.6673L148.958 55.7845L148.899 56.0775L148.685 56.2533L148.489 56.3119L148.001 56.4486L147.669 56.5268L147.298 56.6244L147.005 56.7612L146.673 56.976L146.419 57.1518L145.989 57.4057L145.852 57.5424L145.618 57.7964L145.52 57.9526L145.442 58.1089L145.325 58.4019L145.305 58.5972V58.773L145.208 59.0074L145.032 59.2418L144.68 59.5152L144.329 59.7301L144.192 59.8277L143.704 60.1598L143.508 60.316L143.352 60.4723L143.254 60.609L143.157 60.8043L143.118 60.9411L143.137 61.3513L143.196 61.6247L143.254 61.8005L143.372 61.9568L143.45 62.0349L143.606 62.113L143.938 62.1326H144.114H144.29L144.446 62.1716L144.661 62.2693L144.739 62.4646L144.797 62.6209L144.973 62.8748L145.169 62.992L145.676 63.0701L146.165 63.1092L146.829 63.1678L147.102 63.2069L147.415 63.324L147.512 63.4022L147.63 63.4803L148.118 63.5975L148.86 63.5194L149.466 63.4998H149.817L150.325 63.5389L150.696 63.5779L150.931 63.5975L151.38 63.6366H151.517L151.692 63.6756L151.79 63.7147L151.81 63.8124L151.79 63.9295V64.0467L151.829 64.1639L151.868 64.203H151.966L152.064 64.2225L152.142 64.2811L152.083 64.4569L151.985 64.5741L151.868 64.7108L151.829 64.7694L151.849 64.8476L151.927 64.9062L152.044 64.9648L152.064 65.0624L151.868 65.2577L151.653 65.375L151.458 65.5117L151.263 65.746L151.224 65.9609L151.263 66.0586L151.497 66.2344L151.946 66.3906L152.142 66.4297L152.454 66.4688H152.943L153.255 66.4297L153.685 66.3711L154.134 66.332H154.642L154.915 66.3711L155.111 66.3906L155.501 66.4688L155.736 66.4883L155.931 66.5078L156.068 66.5274L156.263 66.5078H156.497L156.634 66.5274L156.829 66.625L156.966 66.8008L157.162 67.0352L157.357 67.3086L157.611 67.6212L157.884 67.9532L158.021 68.129L158.275 68.3829L158.412 68.5197L158.958 68.7345L159.193 68.754H159.525L159.896 68.715L160.248 68.6564L160.541 68.5587L160.853 68.461L161.498 68.2853L161.81 68.2462L162.123 68.2267L162.22 68.2462L162.435 68.3048L162.67 68.3829L162.963 68.4415H163.138L163.47 68.4025H163.666L164.057 68.5587L164.193 68.6369L164.389 68.754L164.584 68.8908L164.701 68.9494L165.092 69.0275L165.365 68.9884L165.736 68.9689H165.932L166.049 69.008L166.205 69.1838L166.244 69.3986L166.283 69.8088L166.244 70.1799L166.185 70.4143L166.107 70.6291L165.971 70.9807L165.893 71.1761L165.853 71.2737L165.775 71.4105L165.756 71.4886V71.6058L165.853 71.7034L166.127 71.7816H166.517L166.889 71.6839L167.26 71.5472L167.553 71.4691L167.69 71.4495L168.1 71.4886L168.451 71.5667L168.783 71.6253L169.057 71.6839L169.33 71.762L169.369 71.7816L169.35 71.8988L169.213 72.1331L169.018 72.348L168.822 72.5433L168.686 72.6605L168.549 72.8949L168.471 73.0902L168.412 73.3637L168.393 73.5004L168.51 73.7348L168.568 73.852L168.607 74.0473L168.568 74.1255L168.275 74.3208L168.119 74.3598L167.826 74.438L167.475 74.5161L167.279 74.5552L166.967 74.6919L166.752 74.8286L166.615 74.9458L166.459 75.0826L166.342 75.1802L166.068 75.2779L165.775 75.3365L165.15 75.4536L164.838 75.5122L164.467 75.5904L164.174 75.649L163.861 75.7467L163.627 75.8248L163.47 75.9029L163.353 76.0396L163.334 76.2154V76.4303L163.314 76.6061V76.8405L163.334 77.0944L163.373 77.3092L163.451 77.6608L163.431 77.8952L163.392 78.0905L163.295 78.3054L163.217 78.5202V78.7742L163.275 78.8523L163.353 78.9109L163.49 79.0281L163.588 79.1257L163.666 79.2039L163.685 79.3406L163.783 79.575L163.939 79.6922L164.252 79.7312L164.721 79.7703H164.994L165.228 79.8094L165.521 80.0047L165.58 80.1805L165.756 80.4344L165.99 80.6883L166.225 80.8641L167.006 81.3524L167.396 81.5282L167.709 81.665L167.924 81.7626L168.1 81.8603L168.256 82.0556L168.49 82.3681L168.627 82.6025L168.783 82.8369L168.861 82.9736L169.057 83.1103L169.154 83.1299L169.506 82.915L169.623 82.7978L170.287 82.5634L170.639 82.583L171.303 82.7002L171.557 82.7197L171.616 82.7393L171.908 82.7783L172.221 82.9541L172.397 83.0322L172.612 83.1299L173.178 83.4424L173.452 83.6963L173.608 83.8721L173.901 84.1065L174.135 84.3214L174.389 84.5167L174.565 84.6534L174.917 85.1613V85.4152L174.838 85.7082V86.1184L174.995 86.509L175.073 86.8606L175.131 87.2512L175.405 87.72L175.6 87.9348L175.795 88.0911L176.01 88.306L176.245 88.6185L176.44 88.9505L176.557 89.3021L176.655 89.7123L176.733 90.0053L176.889 90.5131L177.085 90.8843L177.319 91.2163L177.729 91.4898L178.159 91.6655L178.686 91.8609L179.214 92.0757L179.761 92.3101L180.288 92.525L180.6 92.6617L181.03 92.8961L181.636 93.15L181.909 93.3063L182.143 93.3844L182.378 93.4039H182.515L182.729 93.3453L182.964 93.2672L183.394 93.0524L183.569 92.9742H183.687L183.862 92.9938L184.038 93.0719L184.175 93.2086L184.272 92.8961L184.312 92.6617L184.429 92.4273L184.546 92.3296L184.683 92.232L185.073 92.1343L185.386 92.0367L185.562 91.9781L185.835 91.8413L186.05 91.6851L186.206 91.5484L186.402 91.4116L186.616 91.2749L187.027 91.0991L187.359 91.06L187.534 91.0796L187.671 91.1186L187.769 91.2358L187.886 91.5679L187.925 91.7632L187.984 91.9976L188.062 92.2124L188.159 92.3687L188.667 92.4664L189.39 92.1734L189.703 91.9195L190.171 91.4898L190.386 91.2944L190.601 91.1382L191.031 91.0405L191.206 91.1186L191.382 91.2749L191.675 91.4116H192.007L192.417 91.2554L193.003 90.9429L193.199 90.8452L193.453 90.8061L193.746 90.8452L193.98 90.9038L194.117 90.9429L194.254 91.0405L194.429 91.2554L194.664 91.6069L194.976 92.0171L195.25 92.4469L195.445 92.7398L195.601 92.8765L195.758 92.9156L196.168 92.8961L196.402 92.8375L196.558 92.857L196.832 93.0133L197.008 93.1891L197.554 93.2867L198.101 93.15L198.414 93.0914L198.922 92.9742L199.273 92.857L199.547 92.7398L199.762 92.7203L200.055 92.8961L200.25 93.111L200.484 93.3844L200.66 93.5993L200.914 93.8727L201.149 93.9313H201.676L202.106 93.8922L202.36 93.7946L202.535 93.6774L202.731 93.3844L202.848 93.2086L202.945 93.0328L203.043 92.9352L203.219 92.8765L203.356 92.9352L203.492 93.0914L203.805 93.4821L204.039 93.5797L204.528 93.5993L205.055 93.5797L205.914 93.5602H206.305L206.813 93.5407L207.321 93.4235L207.653 93.2477L207.868 93.1305L207.985 93.0719L208.415 92.9938L208.59 93.0328L208.825 93.15L209.157 93.4235L209.352 93.6188L209.587 93.736L210.016 93.8532L210.68 93.8922L211.383 93.8532L211.969 93.8336L212.77 93.7165L213.298 93.6579L213.727 93.6383L214.313 93.5602L214.567 93.4625L214.743 93.2867L214.938 92.9547L215.095 92.6617L215.212 92.3101L215.251 92.0953L215.329 91.8804L215.485 91.646L215.642 91.4898L216.11 91.3335L216.501 91.2358L216.794 91.0991L217.067 90.9233L217.224 90.7671L217.399 90.6108L217.614 90.4155L217.907 90.2397L218.22 90.1029L218.337 90.1225L218.649 90.2788L219.001 90.6694L219.333 91.1968L219.548 91.5484L219.782 91.6655L220.583 91.7241L221.072 91.7437L221.462 91.8218L221.833 91.9585L221.95 92.0562L222.126 92.3882L222.146 92.7008L222.322 92.9547L222.595 93.0524L223.22 93.0328L223.337 93.15L223.454 93.3649L223.513 93.6383L223.63 93.9899L223.689 94.2048L223.786 94.3805L223.904 94.5563L224.197 94.8689L224.548 95.2009L225.017 95.533L225.662 95.9041L226.58 96.3924L227.048 96.6854L227.478 96.9784L228.103 97.4276L228.338 97.6425L228.689 97.955L229.275 98.3847L229.47 98.5605L229.588 98.7167L229.724 98.8535L230.31 99.2441L230.662 99.4785L231.15 99.7324L231.736 100.025L232.693 100.494L233.377 100.846L233.807 101.041L234.451 101.373L234.998 101.705L235.643 102.115L236.092 102.35L236.307 102.447L236.541 102.506L236.736 102.565L238.104 102.955L239.139 103.151L239.588 103.326L239.881 103.483L240.233 103.658L240.956 104.088L241.327 104.303L241.795 104.557L242.284 104.811L242.772 105.104L243.143 105.377L243.456 105.651L244.217 106.334L244.667 106.725L244.96 107.018L245.331 107.389L245.624 107.702L245.819 107.877L246.112 108.034L246.503 108.151L246.815 108.209L247.03 108.249L247.343 108.307L247.577 108.346L247.968 108.268L248.143 108.131L248.3 108.034L248.612 107.995L248.827 108.014L249.061 108.112H249.12L249.257 107.897L249.315 107.467L249.413 107.194L249.589 106.979L249.804 106.842L250.058 106.725L250.683 106.666L251.151 106.608L251.601 106.588H251.855L252.284 106.608L252.909 106.588L253.319 106.627L253.808 106.647L254.452 106.803L254.687 106.862L254.98 106.979L255.312 107.057L255.8 107.135L255.995 107.116L256.288 106.979L256.66 106.745L256.835 106.51L256.894 106.354L256.933 106.217L256.972 106.041L257.011 105.67L257.07 105.358V105.065V104.635L257.089 104.342L257.148 104.069L257.167 103.815L257.265 103.6L257.441 103.365L257.714 103.072L257.929 102.916L258.124 102.819L258.515 102.662L258.75 102.643L258.964 102.682L259.179 102.76L259.394 102.897L259.765 103.092L259.921 103.151L260.097 103.17L260.488 103.112L261.308 102.721L261.66 102.584L262.226 102.389L263.008 102.096L263.222 102.076L263.887 102.252L264.199 102.33L264.453 102.291L264.746 102.213L264.883 102.135L265.254 101.94L265.488 101.901L265.859 101.959L266.094 101.998L266.309 102.018L266.543 101.881L266.934 101.686L267.207 101.608L267.305 101.647L267.422 101.686L267.734 101.861L267.871 101.881L267.969 101.822L268.184 101.588L268.242 101.373L268.379 101.197L268.633 101.061L269.024 100.943L269.375 100.846L269.844 100.748L270.41 100.65H270.606L270.723 100.67L270.996 100.729H271.172L271.446 100.631L271.856 100.397L272.051 100.299L272.325 100.24L272.891 100.397L273.086 100.533L273.418 100.748L273.711 100.963L273.926 101.158L274.043 101.256L274.336 101.119L275.098 100.631L275.626 100.201L276.094 99.8301L276.563 99.4785L276.993 99.1855L277.227 98.9707L277.208 98.7558L277.09 98.1894L277.032 97.8183L276.973 97.4667L276.915 97.1151L276.719 96.9002L276.563 96.7244L276.583 96.4119V96.1775L276.68 96.0603L276.954 95.9236L277.227 95.8455L277.442 95.8064L277.559 95.7869L277.774 95.7478H278.106H278.321L278.633 95.6697L278.868 95.5525L279.063 95.4744L279.884 95.4548L280.274 95.6111L280.645 95.8455L281.075 96.1189L281.27 96.2166L281.583 96.3533L282.091 96.5682L282.403 96.6854L282.931 96.783L283.282 96.7635L283.595 96.7049L283.946 96.5877L284.298 95.9431L284.571 95.2009L284.688 94.5954L284.942 93.775L285.06 93.3258L285.177 92.8961L285.411 92.3882L285.626 92.1539L285.704 92.0757L285.997 91.8804L286.251 91.7046L286.642 91.4702L286.974 91.353L287.716 91.1577L288.165 91.0405L288.673 90.9624L289.161 90.9233L289.982 90.8647H290.255L290.49 90.7475L291.154 90.2983L291.408 90.1615L291.779 89.9858L292.169 89.8295L292.482 89.7514L292.814 89.6537L293.029 89.517L293.224 89.1654L293.341 88.8334L293.42 88.4818L293.556 88.013L293.673 87.6419L293.908 87.2122L294.162 86.7043L294.377 86.3527L294.533 86.1379L294.787 85.7668L295.119 85.3761L295.373 85.2003L295.49 85.1417L295.9 84.8097L296.017 84.6534L296.154 84.4972L296.252 84.4386L296.486 84.4776L296.681 84.5753L296.779 84.6925L296.877 84.7901L297.072 84.9269L297.287 84.8683L297.443 84.7901L297.541 84.8097L297.775 84.8683H298.029L298.361 84.8488L299.279 84.5558L299.357 84.3995L299.318 84.2237V83.8526L299.416 83.7549L299.689 83.6573L299.865 83.5596L300.021 83.3643L300.197 82.8174L300.334 82.6611L301.193 82.5048L301.272 82.5244L301.447 82.5439L301.623 82.4658L301.76 82.1923V82.0165L301.838 81.8212L302.15 81.704L302.58 81.6845H303.029L303.342 81.6454L303.694 81.5478L304.162 81.372L304.514 81.1376L304.709 80.8251L304.768 80.6688L305.002 80.1024L305.159 79.8875L305.295 79.6922L305.432 79.4773L305.549 78.6765L305.53 78.4812L305.491 78.1491L305.412 77.778L305.432 77.4655L305.471 77.192L305.51 76.9967V76.86L305.471 76.6256L305.412 76.274L305.451 75.8248L305.354 75.3951V74.9067L305.451 74.477L305.901 74.1645L306.448 74.0669L307.405 73.9301L307.952 73.8129L308.831 73.559L309.143 73.4223L310.003 73.1293L310.51 73.1098L311.155 73.2074L311.721 73.3441L312.288 73.4809L312.932 73.2856L313.577 73.1879L314.436 73.4028L315.022 73.5395H315.901L316.858 73.4028L317.581 73.1879L318.148 72.9535L318.909 72.6996L319.476 72.4652L320.179 72.1917L320.609 71.9769L321.448 71.43L322.191 71.1175L322.953 70.844L323.558 70.6487L324.222 70.4338L324.867 70.2581L325.433 70.0822L325.941 69.926L326.8 69.7502L327.816 69.633L328.597 69.5549L329.047 69.34L329.027 69.1056L328.91 68.8126L328.793 68.5783L328.871 68.3243L329.047 68.1681L329.34 68.0118L329.437 67.8165L329.594 67.5431L329.73 67.3672L329.926 67.25L330.316 67.1524L330.746 66.8985L330.902 66.7031L331 66.3711L330.883 66.1758L330.668 65.9609L330.297 65.707L329.867 65.5703L329.613 65.5312L329.164 65.5117L328.832 65.4921L328.48 65.5117H328.09L327.464 65.2773L327.386 65.2187L327.347 65.1991L327.269 65.121L326.957 65.0234L326.41 64.9257L325.785 64.8476L325.16 64.9257L324.73 64.9648L323.91 64.9062L322.933 64.8866L322.601 65.0038L322.406 65.1015L321.8 65.1601L321.409 65.0819L321.312 64.9648L321.234 64.7304L321.156 64.4764L320.941 64.1249L320.355 63.6756L319.73 63.4998L319.026 63.4412L318.636 63.5389L318.48 63.8124L318.343 64.1639L318.128 64.3202L317.386 64.1639L316.487 63.9295L315.452 63.7538L314.788 63.4412L314.554 63.1287L314.241 62.7967L313.343 62.6795L312.171 62.6209L311.448 62.6013L310.94 62.6795L310.139 62.7381L309.612 62.6209L309.085 62.3865L308.498 62.406L307.581 62.7185H306.916L306.545 62.4451L306.213 62.074L305.998 61.6052L305.823 61.0778L305.784 60.57L305.608 59.7496L305.354 59.398L305.022 59.2418L304.651 59.2613L304.026 58.8121L303.83 58.7144L303.537 58.8316L303.401 59.1246L303.264 59.398L303.029 59.5543L302.17 59.5348L301.565 59.5543L300.549 59.5934L299.904 59.6715L299.279 59.7691H298.615L298.127 59.6324L297.678 59.6129L296.799 59.6519L296.056 59.7887L295.549 60.0426L295.216 60.277L294.924 60.2965L294.689 60.2184L294.377 60.1793L294.181 60.277L293.869 60.4528L293.693 60.3356L293.302 60.1988L293.088 60.277L292.892 60.5504L292.619 60.8239L292.248 61.0192L291.896 61.0778L291.33 61.0583L290.88 60.9997L290.548 60.902L289.982 60.7653L289.396 60.6872L288.634 60.4723L288.126 60.3356L287.716 60.1988L287.384 59.9254L287.189 59.8082H286.896L286.388 60.0621L286.036 60.4528L285.509 60.6872L284.845 60.7653L284.005 60.8239L283.185 60.9216L282.618 60.9997L281.856 61.1364L281.075 60.9802L280.782 60.6676L280.665 60.316L280.645 59.8863L280.743 59.4762L280.88 59.066L281.153 58.5972L281.407 58.187L281.837 57.5424L282.345 56.9369L282.931 56.3314L283.36 55.9408L283.888 55.2767L284.278 54.7493L284.65 54.3391L285.314 53.636L285.919 53.0891L286.544 52.5422L287.169 51.9952L287.599 51.6827L288.615 50.96L289.161 50.335L289.415 49.8857L289.572 49.2412L289.533 48.8505L289.396 48.6943L289.083 48.538L288.771 48.4794L288.322 48.5771L287.931 48.7333L287.521 48.7724L287.208 48.6357L286.954 48.3817L286.837 48.1474L286.661 47.8544L286.271 47.3661L285.939 47.1707L285.743 47.2293L285.235 47.3075H284.903L284.278 47.1121L283.477 46.8387L283.321 46.6238L283.243 46.3504L282.833 46.2332L282.657 46.3113L281.974 46.2332H281.29L280.138 46.4481L279.512 46.6824L278.946 46.7996L278.458 46.7215L278.204 46.5262L277.637 46.2527L277.266 46.1355L276.661 46.0379L276.504 46.1551L276.387 46.4481L276.29 46.6629L276.153 46.8973L275.958 47.1317H275.586L275 46.995L274.707 47.0536L274.395 47.2684L274.043 47.4637L273.653 47.4833L273.204 47.4637L273.008 47.5809L272.969 47.7958L273.028 48.1669L273.086 48.7529V49.0263L273.047 49.4951L272.93 49.7881L272.696 49.9443L272.188 50.0811L271.621 50.2178L270.996 50.4131L270.547 50.4912H270L269.18 50.5303L268.633 50.6475L268.047 50.7257L267.402 50.8233L266.836 50.8624L266.289 50.96L265.898 51.0382L265.527 51.1358L265.117 51.0382L264.922 50.8819L264.531 50.5108L264.219 50.2373L263.906 49.9248L263.867 49.8076L264.043 49.6123L264.512 49.4756H265.137L265.742 49.4365L266.191 49.2998L266.641 49.1435L266.816 48.9482L266.641 48.7333L266.074 48.4208L265.469 48.245L264.844 48.1278L264.355 48.0497L263.711 48.0302L263.32 47.913L262.91 47.7567L262.422 47.7372H261.855L261.132 47.6395L260.644 47.5223L260.332 47.2684L260.117 46.7215L260.097 46.409L260.273 46.0769L260.937 45.6081L261.601 45.2566L262.285 44.9441L262.597 44.4167L262.441 44.2214L261.992 44.1823L261.269 44.4753L260.761 44.8855L260.175 45.2566L259.726 45.4519L258.671 45.6667L258.027 45.7449L257.656 45.7058L257.128 45.8035L256.425 45.9793L255.878 45.9988L255.175 45.9012L254.726 45.823L254.335 45.7644L253.788 45.6277L253.28 45.4714L252.987 45.3542V45.1589H252.538L251.718 45.198L251.269 45.2175L250.878 45.1784L250.39 45.0612L250.018 45.0222L249.394 45.0417L248.905 45.0026L248.729 44.8269L248.632 44.4753L248.495 44.0651L248.202 43.7916L247.733 43.6745L247.167 43.6354H246.581H245.975L245.233 43.5572L244.745 43.44L244.081 43.1276L243.768 42.8931L243.456 42.6197V42.3658L243.729 42.19L244.139 42.0337L244.471 41.9165L244.823 41.8384L245.096 41.7993L245.624 41.8579L246.014 41.9556L246.815 41.7993L247.323 41.6236L247.987 41.311L248.593 40.9399L249.159 40.4516L249.706 39.9828L250.546 39.7289L251.269 39.5531L251.796 39.3383L252.577 38.7914L252.948 38.3226L252.792 37.8733L252.538 37.7561L252.089 37.5608L251.796 37.1897L251.659 36.8186L251.523 36.3889L251.269 35.9982L251.054 35.9396L250.78 36.174L250.526 36.6623L250.429 37.0334L250.272 37.3655L250.058 37.5608L249.901 37.5999L249.726 37.4827L249.452 37.0725L249.374 36.7405L249.394 36.3498L249.374 35.8615L249.159 35.7052L248.769 35.7638L248.358 35.8224L247.968 35.7834L247.714 35.5099L247.675 35.2364L247.772 34.9435L248.026 34.5724L248.143 34.1036L247.929 33.9278L247.577 33.8301L247.186 33.7715L246.62 33.8301L246.112 33.9669L245.839 34.0059L245.253 34.1426L244.569 34.084L244.061 34.0254L243.592 34.0059L242.792 33.9669L242.42 33.8887L242.206 33.7324L242.264 33.459L242.655 33.2637L243.006 33.1855L243.924 33.2246L244.53 33.1855L245.35 32.9707L245.76 32.834L246.679 32.1894L247.089 31.8183L247.44 31.4862L247.655 31.3104L248.104 31.2519L248.632 31.3886L249.433 31.4472H249.96L250.448 31.2909L250.683 31.0956L251.386 30.9003L251.991 30.9784H252.265L253.319 30.4901L253.378 30.2166L253.534 30.0994L253.866 30.0604L254.159 30.2362L254.452 30.4315L254.804 30.5096L255.097 30.3729L255.37 30.1971L255.8 30.1385L256.132 30.2948L256.367 30.4315L257.031 30.3924L257.539 30.2166L257.89 30.0799L258.398 29.6893L258.652 29.3767L258.828 29.2205L259.355 28.9079L259.824 28.7908L260.41 28.9666L260.644 29.1619L261.074 29.6307L261.289 29.8064L262.051 30.0799L262.656 30.2557L263.144 30.451H263.691L264.375 30.3729L264.961 30.3924L265.898 30.451L267.246 30.3924L267.773 30.2752L268.32 30.0994L268.77 29.9236L269.844 29.6697L269.883 29.6111L269.844 29.3181L269.942 28.9861L270.274 28.8103H270.586L270.977 28.9079L271.368 29.0447L271.895 29.0838H272.11H272.617H273.086L273.36 29.1228L273.633 29.1814L274.122 29.3572L274.629 29.5721L275.098 29.6893L275.626 29.8064L276.036 29.8455L276.602 29.9432L277.286 30.0799L277.735 30.2166L278.087 30.3338L278.79 30.3729L279.317 30.3143L279.766 30.1776L279.923 30.0018L279.884 29.7674L279.766 29.5721L279.591 29.2986L279.415 29.0252L279.239 28.7126L279.161 28.4978L279.122 28.3415L278.966 28.0681L278.887 27.9313L278.712 27.6383L278.516 27.3649L278.282 26.9157L278.145 26.6031L277.95 26.3102L277.716 26.0367L277.501 25.8023L277.247 25.4898L277.051 25.2163L276.915 24.8843L276.934 24.7476L277.012 24.6499L277.266 24.5913L277.657 24.5522L277.95 24.435L278.126 24.2983L278.301 24.1421L278.477 24.0053L278.731 23.8881L278.907 23.8295L279.317 23.8686L280.118 24.0639L280.489 24.1811L280.899 24.3374L281.27 24.5132L281.544 24.7671L282.11 25.2359L282.755 25.2945L283.302 25.1382L283.634 24.9233L283.81 24.8062L284.181 24.5522L284.454 24.1616L284.571 23.6733L284.669 23.3022L285.001 22.7943L285.157 22.7162L285.528 22.6771L285.782 22.6967L286.193 22.9115L286.525 23.185L286.798 23.517L287.189 23.9467L287.521 24.2592L288.165 24.5718L288.576 24.6694L289.259 24.7671L289.865 24.8257L290.255 24.8843L290.9 25.021L291.173 25.0601L291.837 25.0405L292.482 24.8452L292.755 24.6694L292.99 24.4741L293.244 24.3178L293.576 24.1811L293.713 24.0639L293.791 23.8881L293.771 23.7905L293.654 23.6538L293.38 23.4193L293.224 23.3217L292.853 23.0482L292.443 22.7162L292.15 22.3646L291.896 21.8958L291.759 21.5833L291.544 20.9973L291.388 20.4895L291.369 20.0793L291.525 19.7668L291.681 19.5324L291.857 19.2785L292.072 19.0441L292.345 18.7902L292.834 18.5753L293.302 18.38L293.713 18.0675L293.947 17.8331L294.123 17.5401L294.299 17.0908L294.318 16.7002L294.259 16.3877L294.162 15.997L294.045 15.6064L293.908 15.3134L293.732 14.9423L293.361 14.1219L293.029 13.6922L292.658 13.3797L292.326 13.1844L291.935 12.9305L291.681 12.7351L291.29 12.4226L291.037 12.0515L290.861 11.7585L290.646 11.2702L290.568 10.8795L290.372 10.4694L290.001 10.1764L289.826 10.0006L289.669 9.66855V9.37556L289.611 8.90678L289.357 8.53566L289.142 8.30127L289.025 8.14502L288.966 8.0083L288.497 8.30127L288.263 8.53566L287.97 8.77006L287.833 8.86771L287.384 8.82865L287.072 8.61379L286.857 8.22314L286.681 7.89109L286.388 7.65671L285.939 7.46138L285.587 7.34419L285.138 7.30513L284.435 7.32465L283.946 7.34419L283.282 7.38326L283.009 7.42232L282.462 7.34419L282.169 6.91447L281.798 6.73869H281.446L281.212 6.62148L281.075 6.42616L280.821 6.09411L280.235 5.95739H279.669H279.102L278.575 5.99645L278.008 5.95739L277.462 5.82066L276.778 5.72299L276.231 5.56675L275.997 5.44954L275.372 5.03936L274.981 4.78545L274.024 4.39479L273.477 4.2776L272.774 4.31666L272.285 4.39479L272.051 4.43386L271.446 4.47292L270.821 4.19947L270.274 3.65256L269.981 3.32052L269.199 3.35957L268.496 3.53537L267.91 3.7307L267.539 3.88696L267.344 3.94555L266.992 4.02368H266.68L266.152 3.69162L265.898 3.37911L265.664 2.9494L265.469 2.51968L265.312 2.08997H264.707L264.512 2.26577L264.16 2.59781L263.555 2.79313L262.558 2.85173L261.797 2.75408L261.386 2.79313L260.918 3.20331L260.566 3.59397L260.058 3.82835L259.648 3.94555L259.355 4.12134L258.984 4.29714L258.476 4.35573H257.929L257.324 4.25806L257.011 4.35573L256.601 4.53152L255.878 4.68778H255.312L254.765 4.57059L254.374 4.49246L254.14 4.59013L253.984 4.8831L253.671 5.21516L253.378 5.37141L252.929 5.74253L252.577 5.97692L252.421 6.36757L252.402 6.71915L252.206 7.227L251.757 7.5981L251.503 7.73483L251.171 7.93016L250.605 8.41847L250.37 8.80912L250.292 9.02397L249.901 8.98491L249.823 8.45753L249.882 7.75436L249.843 7.44185L249.686 6.93401L249.511 6.46523L249.276 6.03552L249.061 5.80112L248.593 5.48861L248.182 5.29328L247.733 5.0003L247.538 4.68778L247.284 4.12134L247.147 3.75023L246.952 3.4963L246.6 3.22285L246.034 2.92986L245.682 2.57828L245.565 2.2853L245.35 1.60166L245.194 1.19148L244.921 0.918025L244.569 0.781299L244.296 0.683646L243.866 0.48831L243.495 0.429715H243.006L242.713 0.37112L242.167 0.234394L242.01 0.156263L241.776 0.0781314L241.463 0.0390731L240.838 0L240.35 0.117205L240.155 0.253931L239.979 0.507847L239.842 0.761762L239.705 0.957098L239.51 1.05475L238.983 1.07429L238.651 1.09382L238.377 1.21101L238.28 1.34774L238.143 1.75792L237.83 2.01185L237.459 2.18763L237.205 2.2853L236.99 2.42203L236.795 2.59781L236.678 2.79313L236.561 2.87126L236.385 2.96893L236.307 3.02753L236.19 3.10566L236.033 3.28144L235.994 3.45724L235.975 3.5549L236.033 3.78929L236.053 3.94555L236.033 4.00415L235.877 4.14087L235.721 4.2776L235.643 4.35573L235.447 4.60965L235.35 4.72685L235.252 4.84404L235.037 5.21516L234.9 5.39095L234.608 5.72299L234.49 5.85972L234.217 6.17224L233.904 6.48476L233.729 6.58242L233.553 6.66055L233.064 6.79728L232.869 6.83634L232.225 6.95354L231.99 6.9926L231.307 7.09027L231.053 7.1684L230.818 7.28559L230.349 7.51999L230.056 7.71531L229.451 8.24267L229.217 8.49661L228.67 9.02397L228.377 9.1607L228.201 9.18024L228.103 9.14116L227.947 9.00444L227.908 8.90678L227.83 8.71145L227.791 8.59426L227.693 8.3794L227.615 8.22314L227.556 8.08641L227.498 7.96922L227.224 7.7739L226.99 7.63717L226.677 7.50045L226.619 7.46138L226.17 7.34419L225.994 7.30513L225.876 7.36372L225.759 7.51999L225.662 7.71531L225.544 7.96922L225.486 8.08641L225.388 8.18408L225.173 8.26221L224.802 8.34034L224.451 8.39894L224.177 8.438L223.884 8.45753L223.552 8.51613L223.22 8.59426L223.005 8.65285L222.771 8.78958L222.575 8.94584L222.478 9.02397L222.243 9.12164L221.95 9.19976L221.658 9.25837L221.189 9.27789L220.739 9.23883L220.212 9.06303L220.017 9.12164L219.802 9.25837L219.528 9.41462L219.411 9.43415L219.118 9.45369H218.884L218.61 9.53182L218.396 9.66855L218.161 9.96153L218.005 10.1959L217.712 10.567L217.634 10.6452L217.282 10.8405L216.989 10.8795L216.638 10.9186L216.325 10.9772L216.149 11.0553L215.993 11.1921L216.032 11.5827V11.6999L215.915 11.7585H215.798L215.7 11.6999L215.544 11.6608H215.466L215.368 11.7194L215.329 11.7976L215.388 12.0515L215.446 12.1687L215.485 12.325V12.5593L215.446 12.6765L215.27 12.8133L215.075 12.9305L214.724 13.1062L214.411 13.2625L213.669 13.7508L213.434 13.9266L213.22 14.1415L212.77 14.5516L212.536 14.7274L212.145 14.8056L211.891 14.747L211.637 14.7079L211.481 14.7665L211.13 14.9423L210.915 15.0204H210.758L210.485 14.9032L210.309 14.8446L210.153 14.8251L210.036 14.8642L209.879 15.0009L209.762 15.1962V15.4892L209.782 15.6845L209.879 15.997V16.251L209.821 16.4463L209.743 16.7197L209.606 16.9932L209.489 17.4034V17.4815L209.626 17.6573L209.977 17.8917L210.172 18.0089L210.504 18.2433L210.817 18.38L211.149 18.5362L211.286 18.6144L211.442 18.7511L211.755 18.966L211.969 19.005L212.262 19.0831L212.36 19.1808L212.38 19.3176L212.341 19.3957L212.223 19.5324L212.087 19.6691L211.813 19.7863L211.54 20.0012L211.364 20.177L211.208 20.4309L211.09 20.7629L210.895 21.1536L210.739 21.388L210.524 21.5638L210.133 21.7786L209.645 21.9154L209.372 21.9349L208.805 22.0521L208.493 22.013L208.356 21.9544L208.161 21.7591L208.043 21.6028L207.809 21.5052L207.575 21.4857L207.399 21.5052L207.204 21.6028L206.989 21.7396L206.735 21.9544L206.481 22.1107L205.582 22.5404L204.84 22.892L204.313 23.185L203.746 23.4975L203.453 23.6733L203.199 23.8686L202.945 24.1421L202.652 24.4546L202.34 24.7085L201.754 25.0601L201.09 25.4117L200.895 25.5288L200.68 25.6851L200.563 25.9586L200.621 26.1734L200.738 26.3492L200.895 26.6227L200.992 26.9157L201.266 27.3454L201.324 27.4821L201.207 27.6774L201.109 27.7751L200.934 27.8923L200.191 28.2243L199.801 28.2829L199.664 28.2048L199.566 28.1267L199.469 27.9704L199.371 27.8141L199.254 27.6383L199.098 27.404L198.922 27.1696L198.687 26.9547L198.531 26.818L198.258 26.6617L197.945 26.5836L197.73 26.5641L197.437 26.525L196.715 26.4859L196.461 26.4664L195.66 26.4273H195.347L195.211 26.4078L194.898 26.3492L194.781 26.3102L193.824 26.1539L193.589 26.1148L193.238 26.0562H192.867L192.574 26.0953L192.32 26.1539L192.085 26.1734L191.832 26.1929L191.48 26.2125L191.148 26.232L190.679 26.2516L190.23 26.2711L189.585 26.1734L189.468 26.0953L189.253 26.0367L189.019 26.0562H188.921L188.726 26.2125L188.667 26.4469L188.687 26.6812L188.706 26.8375L188.745 27.0133L188.784 27.2086V27.3454L188.921 27.5407L189.097 27.6579L189.234 27.736L189.41 27.8141L189.507 27.9899L189.488 28.029L189.331 28.1071L188.902 28.3415L188.745 28.4978L188.55 28.7126L188.355 28.7908L188.218 28.8103L187.671 28.8298L187.359 28.8493L186.988 28.8689H186.148L185.777 28.8884H185.347L184.995 28.9079L184.37 28.9275H183.901H183.647L183.179 28.9666L183.003 28.9861L182.808 29.0447L182.476 29.2009L182.143 29.3377L181.968 29.4158L181.772 29.4353L181.597 29.4549L181.225 29.3767L180.991 29.2791L180.678 29.2205L180.366 29.1814H180.112L179.761 29.2205L179.448 29.24L178.862 29.2595L178.491 29.24L178.12 29.2009L177.768 29.1814L177.377 29.2009L176.694 29.2791H176.538L175.834 29.3377L175.444 29.3963L175.092 29.3767H174.545L174.213 29.4549L173.823 29.5721L173.53 29.6111L173.315 29.6307L173.022 29.5525L172.963 29.533L172.866 29.4939L172.748 29.4158L172.612 29.2986L172.455 29.3181L171.987 29.2791L171.83 29.1814L171.537 28.947L171.44 28.9079L171.127 28.8298L170.346 28.8103L169.975 28.8298H169.623L169.115 28.8493L168.607 28.8103L168.275 28.7712L167.885 28.8103L167.533 28.8884L167.26 28.947L166.791 29.0252L166.42 29.0642L165.736 29.2009L165.326 29.2986L164.974 29.4158L164.232 29.6502H164.017L163.607 29.5721L163.275 29.533H162.963H162.631H162.377L161.869 29.6502L161.576 29.8064L161.42 29.9627L161.341 30.0799L161.322 30.158V30.3338V30.4901V30.8417L161.341 31.0956L161.361 31.2519L161.478 31.6816L161.537 31.8769L161.595 32.2285L161.654 32.5996L161.693 32.9512L161.654 33.1465L161.576 33.2832L161.537 33.3027L161.068 33.3809L160.814 33.4004L160.599 33.4199L160.345 33.459L160.13 33.4785L159.642 33.5176H159.408H159.076H158.548L158.255 33.4199L157.865 33.2637L157.201 32.9902L156.849 32.9707L156.576 32.9316L156.146 32.834L155.794 32.7558L155.325 32.6777H154.954L154.544 32.7363L154.427 32.7949L154.134 32.9512L153.646 33.2051L153.196 33.3809L152.63 33.5176L152.064 33.5957L151.751 33.6543L150.52 33.8887L150.11 33.9669L149.661 34.045L148.997 34.2012L148.47 34.3575L147.825 34.5724L147.434 34.6895L146.887 34.8067L146.399 34.8458L146.106 34.8653H145.501L145.305 34.8849L144.915 34.9044L144.758 34.9239L144.563 34.963Z" fill="#3C8E74"/>
<path d="M144.563 34.9629L144.29 34.9434L144.094 34.8066L143.958 34.6308L143.84 34.5137L143.743 34.3183L143.567 34.0644L143.469 33.9082L143.274 33.6933L143.079 33.5175L142.922 33.4198L142.747 33.3808L142.434 33.3613H142.317L141.926 33.3417H141.594L141.204 33.3222L140.832 33.3417L140.442 33.4003L139.602 33.5175H139.426L138.899 33.4394L138.528 33.244L138.254 33.0292L138.078 32.8534L137.922 32.5018L137.883 32.3456L137.688 32.0135H137.571L137.414 32.0916L137.141 32.2479L137.024 32.287H136.77H136.496L136.359 32.3065L136.184 32.3456L135.656 32.4823L135.207 32.5995L134.856 32.6776L134.504 32.7557L133.449 32.8534L133.195 32.8143L133 32.8534L132.648 32.9511L132.219 32.8729L132.043 32.7167L131.887 32.4823L131.809 32.1698V31.9158L131.789 31.6033V31.408L131.711 30.8416L131.496 30.4314L131.34 30.2361L131.203 30.0407L131.164 29.8454L131.125 29.5134L131.008 29.3376L130.871 29.1813L130.695 29.0837L130.558 28.986L130.344 28.8297L130.109 28.7321L129.894 28.7711L129.621 28.9078L129.465 29.0055L129.191 29.2399L128.918 29.4548L128.8 29.5524L128.488 29.7282L128.312 29.8259L128.019 29.9626L127.902 30.0798L127.531 30.3337L127.316 30.4704L127.043 30.529L126.828 30.5486L126.574 30.6267L126.281 30.7439L126.007 30.9002L125.871 31.0173L125.695 31.2908L125.636 31.3885L125.441 31.5252L125.304 31.6033L125.109 31.5838L124.953 31.5252L124.738 31.4275L124.64 31.3689L124.288 31.1932L124.054 31.1346L123.468 30.9197L123.331 30.8611L123.136 30.7634L123.019 30.7048L122.745 30.49L122.628 30.2947L122.511 30.0993L122.452 30.0212L122.355 29.9235L122.277 29.8454L122.16 29.8259L122.023 29.8454L121.866 29.9235L121.632 30.0017L121.417 30.0212H121.241L121.066 30.0017L120.87 29.9821L120.714 30.0017L120.421 30.0798L120.245 30.0993L119.933 30.1579L119.679 30.1775L119.386 30.2165L119.073 30.197L118.722 30.2165L118.429 30.2751L118.312 30.3142L118.136 30.4118L117.94 30.5876L117.843 30.7048L117.726 30.9197L117.648 31.1346L117.589 31.2322L117.315 31.3885H116.964L116.729 31.3299L116.515 31.2908L116.222 31.3689L115.987 31.4861L115.714 31.6619L115.421 31.8182L115.05 31.9549L114.776 32.033L114.444 32.1112L114.21 32.1893L113.975 32.3456L113.761 32.5213L113.487 32.6971L113.311 32.8143L113.116 32.8729L112.862 32.9511L112.745 33.0097L112.471 33.0683L112.12 33.1659L111.885 33.1854L111.495 33.205L111.241 33.1854H111.026L110.694 33.2245L110.538 33.2831L110.342 33.3613L110.186 33.4589L110.108 33.5566L109.913 33.7128L109.795 33.7323H109.639L109.463 33.7128L109.229 33.7714L109.034 33.9082L108.916 34.0449L108.819 34.1621L108.682 34.2988L108.526 34.416L108.409 34.4746L108.311 34.5527L108.077 34.6308L107.823 34.6894L107.686 34.748L107.471 34.7285H107.276L107.022 34.5918L106.709 34.416L106.514 34.2988L106.319 34.1425L106.182 33.9277L106.123 33.7714L105.987 33.5566L105.772 33.4394L105.537 33.4003L105.186 33.4589L104.932 33.537L104.756 33.6152L104.658 33.6737L104.405 33.7323L104.073 33.7519L103.779 33.7714L103.545 33.83L103.154 33.9668L102.725 34.1035L102.49 34.1816L102.178 34.2988L101.904 34.416L101.572 34.5332L101.24 34.6113L101.045 34.6699L100.752 34.748L100.576 34.7871L100.4 34.8262L100.186 34.9238L99.9316 35.0606L99.6973 35.2168L99.5605 35.2949L99.287 35.4512L98.8378 35.6075L98.4863 35.7247L98.0369 35.8809L97.6658 36.0177L97.2362 36.1544L96.8846 36.2911L96.4744 36.4083L96.0252 36.5255L95.7126 36.6232L95.361 36.7599L94.9899 36.8771L94.7555 36.9552L94.5407 36.9943L94.2282 37.0529L94.0524 37.1115L93.818 37.1701L93.6032 37.2482L93.3688 37.3654L93.271 37.3849L93.0366 37.5021L92.8609 37.5607L92.607 37.6779L92.2944 37.7951L92.0015 37.9513L91.8257 38.1076L91.6889 38.2834L91.6499 38.4592L91.6889 38.5568L91.8843 38.635L92.275 38.6545L92.7242 38.635L93.0562 38.6545L93.5055 38.7327L93.9547 38.7717L94.3844 38.8694L94.5993 38.928L94.8923 39.0647L95.0681 39.1233L95.4392 39.1819L95.8298 39.2014L96.1619 39.1819H96.3963L96.9237 39.26L97.0409 39.2991L97.2947 39.4163L97.4705 39.5335L97.7245 39.6897L97.8221 39.846L97.9197 40.0609L97.998 40.2366L98.0956 40.3343L98.3495 40.6273L98.6424 40.9203L98.7402 40.9984L98.8964 41.1351L99.1113 41.2719L99.1699 41.3891L99.1503 41.5453L99.0527 41.6625L98.7792 41.8188L98.2519 42.0336L98.0369 42.1313L97.744 42.3071L97.3729 42.5805L97.0018 42.7954L96.7479 42.9712L96.3963 43.2056L96.1033 43.3618L95.8298 43.4399L95.4782 43.5962L95.2634 43.6744L94.8337 43.8501L94.443 43.9478L93.8765 44.065L93.5836 44.1627L93.0562 44.2799L92.7046 44.358L92.3335 44.4361L91.8648 44.5728L91.4936 44.7096L91.103 44.8854L90.4194 45.1783L90.0678 45.3151L89.6576 45.4909L89.2084 45.6666L88.7982 45.862L88.3098 46.1159L87.9974 46.3308L87.5091 46.6433L87.3137 46.7409L87.2356 46.78L86.923 46.8972L86.5324 46.9753L86.005 47.0144H85.6926L85.048 47.0535L84.501 47.1706L84.2862 47.2292L83.9151 47.3855L83.4463 47.659L83.2315 47.7175H82.7236L82.4697 47.6785L82.079 47.8152L81.9814 47.8738L81.7665 48.0691L81.2782 48.2059L80.868 48.323L80.6532 48.3621L80.0086 48.4598L79.7546 48.4793L79.364 48.5379L78.9148 48.577H78.5632L78.0749 48.6551L77.7233 48.8114L77.235 48.9872L76.8834 49.163L76.5513 49.3387L76.1412 49.5536L75.8873 49.6903L75.5161 49.8271L75.1255 50.0028L74.7348 50.1982L74.4809 50.3154L74.0121 50.4716L73.5238 50.6083L73.2113 50.6474L72.9379 50.706L72.5082 50.7646L72.0199 50.8232L71.6878 50.8623L71.4143 50.8818L70.9846 50.9599L70.6721 50.999L70.2815 51.038L69.7736 51.0576L69.5001 51.0966L69.3438 51.2139L69.0509 51.3115L68.7774 51.4678L68.6212 51.5068L68.3868 51.624L68.211 51.7608L68.0352 51.917L67.8399 52.0537L67.7227 52.1319L67.6055 52.2491L67.4884 52.3663L67.3516 52.503L67.2149 52.6006L67.0586 52.7764L66.9609 52.9132L66.8438 53.0694L66.6485 53.2452L66.5117 53.3233L66.1796 53.4796L65.9843 53.5773L65.8085 53.7726L65.5937 54.0265L65.4374 54.1828L65.203 54.4172L64.9882 54.593L64.7733 54.7883L64.5585 54.9445L64.3631 55.0422L64.1874 55.1008L64.0115 55.1594L63.8552 55.2766L63.6991 55.4914L63.5623 55.6672L63.5232 55.843L63.5037 55.9211L63.4647 56.0384L63.3865 56.1556L63.2888 56.2532L63.113 56.3899L62.9958 56.4876L62.8201 56.6439L62.5466 56.7415L62.1755 56.8197L61.863 56.9368L61.4723 57.0736L61.1793 57.1517L60.8277 57.2494L60.5153 57.308L60.2613 57.4056L60.0074 57.4837L59.6363 57.5423L59.2652 57.6205L59.0503 57.6791L58.5425 57.8353L58.1127 57.9525L57.8589 58.0697L57.605 58.1674L57.3315 58.3432L57.0385 58.6166L56.8627 58.7924L56.6284 59.0268L56.4721 59.144L56.3158 59.3198L56.2962 59.3393L56.2181 59.4175L56.0814 59.4956L55.8079 59.6128L55.3978 59.6714L55.0852 59.6909H54.6945L54.4212 59.73L54.2453 59.769L54.1281 59.8862L54.0696 60.1206L54.0501 60.2964V60.5308L54.1281 60.6675L54.2258 60.9019L54.304 61.0973L54.3234 61.273L54.2649 61.4488L53.9524 61.6442L53.5031 61.8199L53.1711 61.9371L52.7219 62.152L52.3897 62.3083L52.2725 62.445L52.253 62.5817L52.1358 62.8161L51.8038 63.0309L51.5109 63.1286L51.2178 63.3239L51.1398 63.4802L51.1592 63.6755L51.1983 63.988L51.2178 64.1248V64.281L51.1006 64.4959L51.0811 64.5154L50.9835 64.5935L50.8272 64.6912L50.5147 64.8279L50.3193 64.8865L50.1826 64.9451L49.831 65.0428H49.6748L49.499 65.0623L49.3427 65.1404L49.2646 65.3749V65.5897L49.1865 65.8436L49.1279 66.078L49.0888 66.2147L49.0498 66.4296L49.1083 66.7226L49.2255 66.8984L49.4403 67.2109L49.6357 67.4453L49.831 67.6015L50.1045 67.6797L50.378 67.7383H50.5928L50.7295 67.7187L50.9639 67.6406L51.1983 67.582L51.4913 67.4843L51.7061 67.4257L51.9405 67.3476L52.1749 67.3281L52.3702 67.3085L52.546 67.289L52.7609 67.3085L52.9171 67.3476L53.0148 67.4257L53.0734 67.582L52.9952 67.6992L52.8195 67.8554L52.5656 67.9922L52.253 68.1484L51.9796 68.3242L51.7647 68.4609L51.5694 68.5782L51.2959 68.6954L51.042 68.8321L50.7295 69.0274L50.378 69.2618L50.2021 69.3985L50.1436 69.5352L50.1826 69.6524L50.2998 69.7306L50.4169 69.7892L50.5147 70.004L50.456 70.1798L50.4169 70.3556L50.456 70.4337L50.5928 70.5704L50.7295 70.629L50.9835 70.6486L51.2374 70.6681L51.5109 70.7267L51.7647 70.8244L51.8429 70.9025L51.9014 71.0197L51.9601 71.215L52.0186 71.3908L52.0773 71.508L52.1749 71.5861L52.3116 71.6643L52.5069 71.7424L52.6828 71.801L52.8585 71.8791L53.1711 71.9573L53.4835 71.9768L53.6985 72.0159L53.8157 72.0354L53.9914 72.1135L54.1477 72.2502L54.2844 72.4846L54.343 72.719L54.3625 72.9925L54.3821 73.1487V73.4027L54.3625 73.6956L54.2453 73.8519L54.0696 73.9886L53.8157 74.1058L53.5813 74.2035L53.3078 74.4379L53.2296 74.5941L53.132 74.848L53.0148 74.9652L52.8585 75.102L52.6047 75.2582L52.4679 75.3559L52.3312 75.5121L52.2725 75.6098L52.1945 75.727L52.1554 75.8247L52.1164 75.9223L52.0773 76.0786L52.0577 76.2153L52.0382 76.352L52.0577 76.4888L52.1358 76.6646L52.1749 76.7622L52.2336 76.9185L52.2921 77.1138L52.3312 77.3091L52.3508 77.4654L52.3702 77.7388L52.3508 77.9537L52.3312 78.11V78.403L52.3508 78.5201L52.4875 78.8327L52.7023 78.9694L52.878 79.1061L53.2883 79.2624L53.5813 79.3796L53.7766 79.4382L54.0501 79.4968L54.2649 79.5554L54.4797 79.653L54.5188 79.7116L54.5774 79.9069L54.5384 80.1999L54.3821 80.3562L54.0696 80.5711L53.8938 80.6882L53.7766 80.825L53.5031 81.1766L53.3078 81.45L53.0734 81.6844L52.7023 82.0555L52.5265 82.2508L52.4093 82.3876L52.253 82.5047L51.6085 83.0516L51.4718 83.1884L51.1787 83.5204L51.0226 83.7158L50.9053 83.9111L50.5928 84.2627L50.378 84.5166L50.1436 84.79L50.0264 84.9463L49.831 85.2002L49.7529 85.3174L49.4013 85.6299L49.2255 85.7081L48.9326 85.7862L48.7763 85.7276L48.581 85.5713L48.4052 85.2979L48.3075 85.1416L48.1121 84.8682L47.9949 84.6728L47.8778 84.5361L47.7216 84.4775L47.1355 84.4385L46.9011 84.4775L46.7059 84.5361L46.4324 84.6728L46.1199 84.8291L45.9832 84.8487L45.7878 84.9268L45.5925 85.083L45.2214 85.4346L44.9674 85.669L44.7722 85.8839L44.4596 86.294L44.3034 86.6456L44.2057 86.88L44.0885 87.1925L43.8541 87.4269L43.483 87.6418L43.2096 87.7785L42.9361 87.9543L42.7407 88.1496L42.6431 88.3059L42.6822 88.5598L42.6626 88.8137L42.4478 88.9114H42.2134L42.0571 88.8137L41.7056 88.5989L41.5297 88.5207L41.2758 88.4621H40.7875H40.4555L39.9086 88.5793L39.5569 88.7356L39.0492 88.9895L38.7757 89.1458L38.4437 89.3411L37.9748 89.595L37.6428 89.7318L37.2912 89.8685L36.9592 90.0442L36.5881 90.2982L36.3927 90.4544L36.1388 90.7474L35.9239 91.0795L35.8263 91.3529L35.7872 91.7826V92.017L35.7482 92.4272L35.5724 92.6811L35.338 92.7202L34.8888 92.896L34.752 92.9351L34.5957 93.0327L34.5177 93.1694L34.4005 93.4038L34.127 93.5406L33.8926 93.5796L33.6387 93.6578L33.3067 93.8335L33.0332 93.8531L32.6816 93.9312L32.3886 94.0289L32.3495 94.3023L32.33 94.4976L32.1933 94.6734L31.9003 94.7711L31.7245 95.0445L31.705 95.2594L31.8807 95.5719L32.0175 95.7087L32.2518 96.0016L32.1346 96.3532L32.0566 96.6071L31.9589 96.9587L31.9003 97.3103L31.9394 97.7009L31.9003 98.0525L31.7831 98.2674L31.744 98.5409L31.6854 98.9315L31.6074 99.0682L31.3339 99.3807L31.119 99.6542L31.0019 99.83L30.8065 100.201L30.6502 100.435L30.3377 100.807L30.0447 101.1L29.9079 101.334L29.7713 101.607L29.5759 101.979L29.4392 102.467L29.4002 102.838V103.092L29.4392 103.307L29.5955 103.522L29.6735 103.541L29.8885 103.619L30.3962 103.717L30.7284 103.776L30.9236 103.834L30.9041 103.951L30.7479 104.166L30.494 104.576L30.3768 104.85L30.3377 105.436L30.3573 105.592L30.3768 105.807L30.3377 106.002L30.2401 106.08L29.9079 106.158L29.2634 106.256L28.9313 106.295L28.5993 106.334L28.2477 106.51L27.9547 106.647L27.4859 106.823L26.8609 106.901L26.5093 106.94L25.9429 107.077L25.5522 107.213L25.0639 107.428L24.5561 107.643L24.2045 107.799L23.7553 108.073L23.4233 108.268L22.8959 108.463L22.5052 108.502L22.2123 108.522L21.9973 108.639L21.6067 108.756H21.47L21.2357 108.717L20.8645 108.854L20.6887 108.991L19.9464 109.108L19.7512 109.147L19.3018 109.245H18.9698L18.5596 109.42L18.3058 109.577L17.9347 109.909L17.8565 110.143L17.7784 110.475L17.6612 110.71L17.3292 111.061L16.9775 111.178L16.5283 111.276L15.9814 111.471L15.7275 111.686L15.4931 111.921L15.2392 112.272L15.1805 112.565L15.2782 112.897L15.454 113.073L15.5908 113.444L15.6884 113.718L15.9228 114.167L16.0595 114.421L16.1181 114.948L16.0204 115.241L15.6884 115.554L15.4149 115.788L15.122 116.14L15.1025 116.452L15.1414 116.706L14.9853 116.979L14.7118 117.116L14.3407 117.292L14.0086 117.39L13.3445 117.624L12.7781 117.741L12.4265 117.819L12.1139 118.034L12.1726 118.21L12.3288 118.64L12.3874 118.972L12.5242 119.519L12.6414 119.948L12.8953 120.808L13.0516 121.394L13.1297 121.784L13.286 122.351L13.5203 122.781L13.7352 122.917L14.1063 123.034L14.4187 123.191L14.8681 124.05L14.8876 124.285L15.0634 124.675L15.2392 124.929L15.3368 125.203L15.3564 125.554L15.454 125.671L15.6688 125.73H15.8447L16.0986 125.769L16.1572 126.003L16.2743 126.238L16.5478 126.511L16.919 126.746L17.3486 126.882L17.9151 127.039L18.462 127.214L18.7159 127.332L18.8526 127.449L19.0285 127.839V127.918L19.0675 128.191V128.445L19.1457 128.855L19.1847 129.324L19.1651 129.695L19.087 130.047L18.9698 130.496L18.9894 130.886L19.0479 131.258L19.1457 131.707L19.2433 132.058L19.4581 132.527L19.6534 132.762L20.259 133.484L20.298 133.836L20.6106 134.578L20.7278 134.637L21.0794 134.773L21.47 134.969L21.7044 135.164L22.2513 135.731L22.5247 135.828L22.7591 135.848L22.9154 136.043L23.0716 136.258L23.4037 136.434L23.7357 136.512L24.224 136.766L24.3803 136.922L25.103 137.02H25.3765L26.0992 137.117L26.3336 137.176L26.5875 137.332L26.6852 137.567L26.6656 137.899L26.6071 138.153L26.4703 138.446V138.66L26.6265 138.778L27.1539 138.758L27.4274 138.699L27.9742 138.543L28.1892 138.504L28.4236 138.641L28.5212 138.739L28.5797 138.973V139.129L28.5016 139.305L28.1305 139.442L27.7203 139.52L27.2515 139.657L26.8609 139.832L26.3726 140.125L25.9625 140.379L25.7085 140.555L25.435 140.77L25.2398 140.907L24.8491 141.024L24.6343 140.965L24.4389 140.868L24.0873 140.789L23.9116 140.633L23.6186 140.496L23.2865 140.594L23.0131 140.731L22.6615 140.828L22.4467 140.907L22.2123 141.024L21.8216 140.926L21.6262 140.965L21.2746 141.102L20.9035 141.18L20.5324 141.219L20.259 141.082L20.1027 140.868L19.9269 140.633L19.7316 140.145L19.7121 139.852L18.8917 140.321L18.6183 140.516L17.8175 140.965L17.3486 140.926L17.0557 140.828L16.9581 140.711L16.8409 140.653L16.6259 140.711L16.2158 140.887L15.8447 141.004L15.3759 141.082L14.8681 141.161L14.4774 141.278L14.0086 141.454L13.7352 141.512L13.3445 141.727L13.1492 141.922L12.8562 142.098L12.6609 142.137H12.2898L12.1139 142.176L11.8405 142.391L11.7233 142.665L11.6647 142.938L11.6061 143.251L11.5084 143.465L11.3717 143.543L11.0983 143.348L10.8834 143.016L10.7272 142.782L10.4537 142.547L10.2974 142.489H10.1217L10.0631 142.645L10.1607 143.055L10.2389 143.231L10.1607 143.543L9.98497 143.739L9.92632 143.934L10.0631 144.129L10.2583 144.344L10.1803 144.54L9.63341 144.676L9.22318 144.774L8.83251 144.794L8.40286 144.755L8.26611 144.735L8.10982 144.715H7.99263L7.87544 144.735L7.6996 144.794L7.56298 144.833L7.54342 144.891L7.50432 144.989L7.46522 145.145L7.32848 145.38L7.23084 145.497L6.97691 145.673L6.82074 145.79L6.50815 145.887L6.31287 145.966L6.15658 146.083L5.90265 146.317L5.66827 146.473L5.33625 146.669L5.04322 146.766L4.59401 146.962L4.32053 147.137L3.79312 147.43L3.51976 147.587L3.24627 147.762L2.99234 147.899L2.64077 148.036L2.34774 148.055L2.13291 148.095L1.87898 148.192L1.74224 148.27L1.56652 148.427L1.48831 148.641L1.44933 148.778L1.37112 148.993L1.29303 149.169L1.17584 149.384L1.11719 149.52L1.05865 149.638L1 149.794V149.95L1.01955 150.145L1.11719 150.36L1.17584 150.458L1.44933 150.692L1.6055 150.751L1.74224 150.81L1.83988 150.868L1.85943 150.985L1.82045 151.083L1.70326 151.259L1.6446 151.396L1.6055 151.571L1.62505 151.767L1.6446 151.923L1.66415 152.177L1.68371 152.567L1.8009 152.646L1.95707 152.802L2.2501 153.075L2.48448 153.271L2.58212 153.485L2.62122 153.622V153.837L2.58212 154.15L2.54314 154.325V154.696L2.69931 154.833L2.91426 154.931L3.18762 155.048L3.51976 155.4L3.59784 155.634L3.61739 155.849L3.63695 156.025L3.6565 156.396L3.69548 156.65L3.77369 156.767L3.89088 156.865L4.22289 156.943L4.43772 157.001L4.57446 157.099L4.65255 157.197L4.75031 157.451L4.73075 157.568L4.63312 157.665L4.28143 157.978L4.0666 158.29L3.94941 158.564L3.85177 158.818L3.73458 159.013L3.67593 159.111L3.59784 159.208L3.5002 159.404L3.53919 159.541L3.6565 159.677L3.81267 159.951V160.107V160.361L3.73458 160.654V160.849L3.81267 160.986L3.92986 161.123L4.53536 161.416L4.94558 161.474L5.2776 161.513L5.53153 161.572L5.78546 161.631L5.8831 161.689L5.9222 161.826L5.90265 162.041L5.82456 162.295L5.74636 162.412L5.64872 162.588L5.60974 162.705L5.59019 162.841L5.60974 162.998L5.64872 163.076L5.9222 163.115L6.19568 163.095L6.46905 163.115L6.60579 163.33L6.5277 163.681L6.4886 163.818L6.46905 163.994L6.5668 164.248L6.70355 164.326L7.03556 164.482L7.91455 164.931L8.28567 165.107L8.46139 165.185L8.55903 165.244L8.69577 165.322L8.81296 165.381L9.02791 165.498L9.69194 165.908L9.94587 166.064L10.1411 166.182L10.4342 166.318L10.5905 166.435L10.6881 166.494L10.8444 166.572L10.9029 166.631L10.942 166.768L10.61 167.178L10.4928 167.275L10.4146 167.412L10.3755 167.549L10.3561 167.725V167.842L10.3755 168.213L10.5514 168.428L10.6881 168.545L10.8638 168.682L10.9811 168.76L11.0788 168.877L11.1373 169.15L10.9811 169.365L10.8053 169.502L10.649 169.58L10.5514 169.678L10.4928 169.756V169.873L10.649 170.147L10.8638 170.264L11.1764 170.361L11.4889 170.42L11.86 170.479L12.1139 170.596L12.2702 170.752L12.5633 171.065L12.7194 171.299L12.8562 171.514L12.9734 171.787L13.2077 172.315L13.3445 172.666L13.4617 172.862L13.5789 172.979L13.7352 173.096L13.9891 173.194L14.1258 173.233L14.3016 173.272L14.7313 173.291H15.0634L15.3173 173.252H15.4931L15.5712 173.311L15.5517 173.467L15.5126 173.604L15.3954 173.799L15.3564 174.248L15.4345 174.522L15.5126 174.698L15.6297 174.834L15.8056 174.952L16.0009 174.991L16.372 174.971L16.6846 174.932L16.8409 174.893L17.0947 174.834L17.1924 174.854L17.3292 175.088L17.3682 175.206L18.13 175.323H18.2667L18.4815 175.362L18.6183 175.401L18.7355 175.479L18.8917 175.655L19.087 175.791L19.2629 175.85L19.6534 175.909L19.9856 175.928L20.5519 175.909L20.9231 175.85L21.2746 175.831L21.724 175.85H22.3684L22.9739 175.791L23.3061 175.733L23.6772 175.674L24.3021 175.655H24.5952L24.9663 175.674L25.3959 175.713L25.7476 175.752L26.2945 175.811H26.6852L27.0563 175.772L27.4078 175.791L27.7985 175.831L28.2282 175.87L28.7556 175.948L28.9509 176.026L29.1267 176.104L29.4587 176.26L29.7126 176.475L29.947 176.69L30.6112 177.354L30.8845 177.667L31.1776 177.96L31.5683 178.331L31.8222 178.565L32.0566 178.819L32.33 179.092L32.4472 179.249L32.916 179.854L33.0723 180.128L33.2676 180.518L33.4043 180.792L33.5606 181.143L33.7168 181.554L33.8926 181.827L33.9902 182.022L34.2833 182.432L34.752 183.136L34.9473 183.448L35.0841 183.683L35.2599 183.897L35.4161 184.093L35.9044 184.757L36.0802 185.03L36.3146 185.362L36.4709 185.597L36.6662 185.948L37.096 186.632L37.2717 186.925L37.4475 187.198L37.7015 187.667L37.8772 187.96L37.9554 188.175L38.1507 188.624L38.2287 188.859L38.2874 189.034L38.3459 189.327L38.4046 189.542L38.5022 189.874L38.5413 190.226V190.421L38.5218 190.597V190.656L38.5413 190.773L38.5999 191.007V191.183L38.5803 191.32V191.496V191.613L38.7953 191.828L39.0101 191.867L39.264 191.886H39.596L40.2797 191.789L40.6313 191.671L40.9633 191.554L41.2758 191.437L41.8813 191.3L42.0962 191.222L42.2915 191.124L42.4674 191.046L42.7603 191.105L43.0729 191.144L43.3462 191.085L43.5025 191.007L43.6979 191.066L43.8932 191.124L44.1667 190.988L44.3424 190.949L44.44 190.91L44.694 190.929L44.9283 191.085L45.1628 191.105L45.3386 191.085H45.5534L46.0613 191.183L46.2956 191.261L46.5105 191.359L46.8035 191.456L47.1355 191.613L47.4481 191.71L47.7606 191.769L48.0732 191.847L48.4637 191.886L49.0498 191.828L49.245 191.808L49.4794 191.789L49.9482 191.867L50.2803 191.886L50.5537 191.828L50.7686 191.749L50.8858 191.71L51.0811 191.749L51.335 191.925L51.4718 192.218L51.589 192.433L51.8038 192.648L52.0186 192.746L52.3702 192.921L52.4875 192.941L52.7804 193.117L52.8391 193.292L52.878 193.429L53.0734 193.82L53.2102 194.015L53.3664 194.171L53.5617 194.25L53.757 194.367L53.8547 194.504L53.9133 194.699L53.9914 194.933L54.2258 195.148L54.4212 195.265L54.6556 195.422L55.0267 195.656L55.222 195.812L55.3978 195.968L55.6517 196.086L56.0033 196.047L56.2377 196.008L56.4916 196.027L56.6869 196.105L56.9213 196.281L57.1361 196.437L57.3119 196.496L57.5268 196.476L57.6635 196.457L57.7611 196.437L57.9761 196.379L58.0737 196.34L58.1714 196.281L58.2105 196.183L58.2299 196.105L58.2495 195.949L58.2105 195.715L58.1909 195.48L58.3081 195.441H58.4644L58.6597 195.48L59.0308 195.422L59.2847 195.285L59.7535 194.972L59.8902 194.875L60.0074 194.855L60.1246 194.894L60.3981 194.953H60.7888L60.9254 195.011L61.0036 195.148L61.1012 195.304L61.1793 195.48L61.1403 195.675L60.5738 195.558L60.3394 195.636L60.2418 195.773L60.3199 196.066L60.4566 196.183L60.5543 196.398L60.652 196.496L60.8082 196.711L60.8277 196.926L60.9254 197.179L61.0036 197.277L61.1208 197.59L61.1598 197.824L61.1208 198.019L61.1403 198.176L61.3747 198.449L61.7263 198.683L61.9998 198.82L62.4685 198.976L62.8396 199.055L63.1326 199.152L63.2888 199.308V199.465L63.1326 199.66L62.9373 199.758L62.8005 199.875L62.8201 199.953L62.9177 200.187L62.9764 200.402L62.9958 200.559L62.7029 200.812L62.4685 200.832L62.1364 200.891L61.7458 201.008L61.5504 201.086L61.4332 201.184L61.3943 201.262L61.4919 201.477L61.7067 201.496H61.7654L62.0192 201.535L62.3122 201.652L62.449 201.828L62.5466 202.004L62.6247 202.297L62.6442 202.531L62.6638 202.707L62.742 202.981L63.0154 203.332V203.371L63.0349 203.586V203.742L63.074 203.977L63.1521 204.055L63.2303 204.074L63.4647 204.016L63.6209 203.84L63.8163 203.625L64.0115 203.488L64.1678 203.449L64.5779 203.567L64.7733 203.684L65.1249 203.742L65.8085 203.664L66.2578 203.801L66.707 204.172L67.0586 204.446L67.3125 204.602L67.5273 204.719L67.7423 204.856L67.8985 205.051L67.9767 205.227L68.0743 205.52L68.5626 205.891L68.7579 205.871L69.09 205.832L69.2658 205.91L69.5978 206.067H69.9299H70.2424L70.4377 206.047L70.7502 206.028L70.8674 206.047L71.1214 206.184L71.2776 206.321L71.6292 206.575L71.7854 206.692L71.9808 206.809L72.1761 206.868L72.4886 206.809L72.7426 206.672L73.0159 206.399L73.2699 206.282L73.5043 206.203L73.8754 206.184L74.3247 206.262L74.9106 206.457L75.2427 206.653L75.5161 206.868L75.5357 206.887L75.8091 207.082L75.9264 207.356L76.1802 207.746L76.2974 207.883L76.3756 207.961L76.5904 208.079H76.7467L77.0592 208.02L77.2546 208L77.4107 208.02L77.6842 208.079L77.8405 208.098L78.0553 208.176L78.2506 208.254L78.4069 208.293H78.5436H78.6608L78.9539 208.215L79.1687 208.098L79.3445 207.942L79.5007 207.766L79.7155 207.59L79.95 207.473L80.2234 207.317L80.3797 207.141L80.3992 206.926L80.4383 206.692L80.5555 206.496L80.8289 206.34L81.1805 206.164L81.4344 206.028L82.0399 205.559L82.3525 205.149L82.5282 204.797L82.7041 204.406L82.8212 204.055L82.9384 203.82L83.4072 203.234L83.7588 202.942L84.3643 202.297L84.462 202.043L84.6182 201.848L84.9893 201.398L85.2432 201.184L85.5558 201.066L85.9074 200.988H86.1613L86.3957 201.008L86.6105 201.066L87.1184 201.262L87.3919 201.379L87.5481 201.496L87.7043 201.574L87.802 201.633L87.8802 201.652L87.9387 201.574V201.32V201.145L87.9974 200.871L88.0364 200.793L88.1341 200.773L88.4075 200.793L88.6224 200.812L88.8373 200.871L89.2279 200.93L89.6185 200.871L89.9115 200.754L90.1068 200.578L90.3022 200.227L90.4194 200.051L90.5757 199.855L90.7709 199.641L91.0249 199.328L91.1616 199.191L91.3373 199.016L91.5132 198.859L91.7476 198.742L91.8648 198.762L92.0406 198.801L92.3531 198.879L92.5679 198.957L92.7633 199.016L92.939 198.996L93.1929 198.801L93.3882 198.703L93.525 198.664L94.0915 198.508L94.1891 198.351L94.2282 198.156L94.2672 197.98L94.4821 197.765L94.7165 197.668L95.1071 197.57L95.4392 197.433L95.7908 197.336L96.1033 197.238L96.2986 197.219H96.5135L96.7674 197.238H96.787L97.1385 197.316L97.2557 197.375L97.3925 197.531L97.5292 197.668L97.7245 197.863L97.8417 197.941L98.0956 197.961L98.4863 197.824L98.7596 197.648L99.2675 197.004L99.4824 196.75L99.6777 196.359L99.7949 196.027L99.9121 195.812L100.029 195.675L100.127 195.461L100.146 195.246L100.107 195.031V194.914L100.146 194.816L100.342 194.64L100.518 194.445V194.132L100.478 193.996L100.518 193.429L100.361 193.351L100.146 193.234L100.029 192.941L100.127 192.707L100.264 192.55L100.381 192.433L100.674 192.023L100.752 191.867L100.811 191.613L100.947 191.242L101.084 190.988L101.182 190.831L101.279 190.675L101.338 190.441V190.285L101.318 190.109L101.299 189.855L101.24 189.718L101.025 189.406L100.889 189.269L100.693 189.113L100.127 188.683L99.9316 188.605L99.4238 188.234V187.96L99.5214 187.784L99.6386 187.491L99.7558 187.257L99.873 187.062L100.01 187.003L100.244 186.964L100.654 186.984L100.85 187.023L101.182 187.198L101.533 187.296L101.709 187.277L101.826 187.159L101.904 186.984L102.315 187.003L102.764 187.413L102.959 187.53L103.096 187.57H103.213L103.291 187.237L103.174 186.944L103.115 186.651L103.096 186.495V186.163L103.233 185.831L103.428 185.597L103.584 185.499H103.858L104.424 185.597L104.639 185.577L104.834 185.636L105.049 185.753L105.264 185.87L105.459 185.987L105.655 186.085L106.045 186.3L106.143 186.105L105.967 185.831L105.811 185.577L105.772 185.362L105.869 185.05L106.084 185.03L106.26 185.089L106.573 185.323L106.827 185.48L106.963 185.577L107.1 185.675L107.256 185.773L107.432 185.87L107.784 185.909L107.901 185.597L108.038 185.226L108.194 184.952L108.331 184.776L108.448 184.64L108.624 184.562L108.799 184.601L108.995 184.679L109.131 184.776L109.249 184.855L109.756 184.991L109.971 185.108L110.03 185.284L110.089 185.792L110.108 185.948L110.186 186.046L110.401 185.87L110.596 185.499L110.928 184.855L111.006 184.679L111.124 184.581L111.28 184.522L111.514 184.503L111.671 184.386L111.749 184.308L111.846 183.976L111.788 183.819L111.749 183.507L111.788 183.37L111.905 183.194L111.983 182.784L112.159 182.628L112.413 182.53L112.667 182.491L112.901 182.589L113.057 182.745L113.116 182.862L113.253 182.882L113.468 182.843L113.936 182.94L114.171 183.058L114.347 183.233L114.503 183.331L114.913 183.272L115.069 183.214H115.265L115.558 183.331L116.144 183.507L116.495 183.604L116.612 183.722L116.71 183.819L116.847 184.034L116.905 184.132L117.003 184.19L117.12 184.132L117.062 183.819L117.003 183.526L116.983 183.272L117.003 183.116L117.315 183.058L117.608 183.292L117.843 183.351L118.155 183.253L118.39 183.194L118.507 183.214L118.741 183.311L119.034 183.487L119.816 183.839L120.206 183.956L120.499 183.995L120.851 183.936L121.066 183.858L121.359 183.8L121.593 183.858L121.906 183.976L122.16 184.132L122.335 184.229L122.511 184.308L122.687 184.386L122.902 184.405L123.195 184.347L123.449 184.308L123.722 184.249L123.937 184.19L124.23 184.112L124.425 184.073L124.757 184.015L125.031 184.034L125.246 184.073L125.402 184.132L125.578 184.269L125.714 184.308L125.812 184.249L125.929 184.073L126.007 183.741L126.066 183.526L126.125 183.292L126.183 182.999L126.203 182.784V182.628L126.3 182.452L126.378 182.354L126.535 182.257L126.672 182.237L126.867 182.257L127.824 182.452H128.332L128.664 182.393H128.918L129.211 182.432L129.855 182.55L130.031 182.589H130.187L130.558 182.237L130.695 182.12L130.832 182.081L131.008 182.061L131.34 182.022L131.515 182.003L131.711 181.925L131.906 181.788L132.043 181.593L132.023 181.456L131.945 181.28L131.809 181.104L131.691 180.772L131.711 180.636L131.769 180.44L131.926 180.186L132.16 179.913L132.473 179.62L133.195 179.034L133.508 178.839L133.703 178.76L133.918 178.682L134.231 178.702L134.387 178.76L134.484 178.799L134.758 178.741L135.207 178.428L135.735 177.745L135.813 177.569L135.93 177.335L136.125 177.1L136.281 176.924L136.496 176.729L136.731 176.534L136.926 176.397L137.434 176.319L137.746 176.299L138.078 176.26L138.313 176.241L138.567 176.163L139.192 175.928L139.426 175.733L139.7 175.479L140.032 175.225L140.227 175.206L140.481 175.225L140.813 175.362L141.008 175.538L141.223 176.065L141.243 176.28L141.262 176.514L141.282 176.788L141.379 177.354L141.497 177.471L141.868 177.413L142.395 177.198L142.59 177.12L142.903 176.983L143.118 176.905L143.333 176.768L143.606 176.631L143.938 176.514L144.133 176.475H144.329H144.583L144.739 176.612L144.876 176.924L144.934 177.178L144.954 177.315L145.012 177.51L145.169 177.725L145.54 177.53L145.97 177.002L146.067 176.827L146.223 176.456L146.321 176.221L146.458 175.889L146.575 175.655L146.751 175.381L146.946 175.225L147.317 175.01L147.942 174.795L148.216 174.815L148.528 174.756L148.821 174.62L149.095 174.444L149.368 174.287L149.524 174.19L149.798 174.092L150.032 173.955L150.228 173.838L150.423 173.721L150.735 173.662L150.931 173.702L151.185 173.721L151.439 173.78L151.653 173.819L151.888 173.858H152.122L152.22 173.78L152.318 173.682L152.532 173.409L152.65 173.252L152.806 173.233L153.157 173.311L153.431 173.467L153.646 173.662L153.841 173.858L154.114 174.014L154.681 174.17L155.033 174.287L155.345 174.385L155.716 174.561L156.263 174.717L156.751 174.737H157.142L157.591 174.678L158.216 174.561L158.666 174.424L159.173 174.209L159.662 174.034L159.974 173.936L160.228 173.838L160.697 173.662L160.853 173.506L160.951 173.311L161.088 172.803L161.107 172.51L161.146 172.08L161.185 171.729L161.205 171.397V171.104L161.224 170.85L161.244 170.674L161.322 170.498L161.439 170.381L161.927 170.244L162.142 170.303L162.396 170.479L162.611 170.694L162.826 170.967L162.943 171.162L163.197 171.533L163.295 171.709L163.47 171.924L163.627 172.119L163.881 172.51L164.037 172.764L164.31 173.135L164.681 173.604L164.975 174.053L165.17 174.346L165.404 174.639L165.619 174.893L165.893 175.127L166.205 175.323L166.459 175.44L166.674 175.518L167.123 175.538L167.358 175.498L167.553 175.459L167.826 175.342L168.119 175.049L168.197 174.854L168.217 174.639L168.022 174.444L167.748 174.248L167.221 173.955L167.104 173.819L167.084 173.604L167.201 173.409L167.416 173.233L167.885 173.194H168.022L168.1 172.998L168.08 172.51V172.198L168.158 171.885L168.393 171.631L168.705 171.514L168.959 171.436L169.272 171.065L169.428 170.694L169.486 170.264L169.526 169.58L169.428 168.701L169.33 167.92L169.194 166.807L169.057 166.162L169.096 165.869L169.018 164.912L168.861 164.58L168.666 164.013L168.569 163.525L168.588 162.9L168.725 162.724L169.213 162.373L169.584 162.06L169.76 161.884L169.819 161.611V161.377L169.877 161.103L169.975 160.83L170.072 160.654L171.42 160.263L171.713 160.576L171.83 160.849L171.85 161.025L171.928 161.513L171.987 161.748L172.065 161.982L172.162 162.119L172.299 162.236L172.436 162.314L172.846 162.451L173.022 162.431L173.198 162.216L173.237 161.904L173.413 161.533L173.627 161.396L173.803 161.357L174.135 161.416L174.33 161.455L174.643 161.533H174.838L175.6 161.631L175.835 161.728L176.049 161.865L176.342 161.982L176.694 162.138L176.909 162.236L177.182 162.431L177.299 162.49L177.514 162.568L177.885 162.549L178.003 162.568L178.12 162.627L178.296 162.881L178.374 162.998L178.569 163.252L178.764 163.467L179.116 163.72L179.389 163.779L179.643 163.818L179.897 163.935L180.093 164.111L180.171 164.248L180.249 164.424L180.327 164.482L180.464 164.541L180.932 164.502L181.304 164.404L181.831 164.346L182.554 164.287L183.628 164.267L183.862 164.209L184.058 163.877L184.155 163.33L184.273 162.841L184.37 162.451L184.273 161.963L184.136 161.689L183.784 161.416L183.394 161.201L183.12 161.064L182.866 160.986L182.593 160.81L182.417 160.615L182.28 160.341L182.241 160.068L182.28 159.736L182.397 159.482L182.534 159.384L183.022 159.267H183.413L183.706 159.306L184.136 159.462L184.39 159.58L184.585 159.658L184.8 159.697L184.956 159.677L185.21 159.619L185.347 159.384L185.757 157.9L185.952 157.431L186.245 156.767L186.363 156.533L186.675 156.142L186.988 155.712L187.124 155.575L187.241 155.439L187.613 155.107L187.984 154.833L188.179 154.696L188.374 154.618L189.175 154.325L189.507 154.267L189.8 154.189L190.289 153.935L190.523 153.72L190.757 153.466L190.894 153.271L191.089 153.095L191.285 152.978L191.519 152.841L191.968 152.724L192.261 152.685L192.613 152.665L193.003 152.685L193.394 152.704L193.668 152.782L193.98 152.9L194.39 152.997L194.761 153.095L195.113 153.153L195.308 153.212L196.07 153.271L196.344 153.29L196.578 153.232L196.773 153.153L196.851 153.017V152.86L196.793 152.763L196.734 152.626L196.637 152.45L196.441 152.138L196.012 151.61L195.758 151.356L195.465 151.005L195.269 150.692L194.957 150.165L194.879 149.911L194.859 149.599L194.918 149.091L194.957 148.641L195.035 148.173V147.743L194.996 147.391L194.976 147.177L194.839 146.805L194.703 146.005L194.82 145.497L194.859 145.204L194.82 144.872L194.644 144.403L194.449 144.071L194.293 143.836L194.078 143.446L193.843 142.977L193.668 142.586L193.531 142.215L193.355 141.805L193.277 141.532L193.199 141.102L193.238 140.848L193.355 140.496L193.453 140.262L193.628 140.008L193.902 139.774L194.449 139.364L194.703 139.188L195.113 138.934L195.621 138.524L196.246 138.094L196.851 137.625L197.359 137.293L197.887 136.942L199.156 136.121L199.82 135.672L200.367 135.359L201.305 134.91L201.852 134.598L202.477 133.934L202.516 133.719L202.477 133.523L202.379 133.152L202.262 132.82L202.145 132.371L201.969 131.863L201.852 131.414L201.695 130.691L201.559 129.988L201.422 129.441L200.973 128.621L200.23 127.488L199.879 127L199.488 126.492L199.098 125.925L198.727 125.261L198.453 124.695L198.16 124.011L197.926 123.288L197.75 122.136L197.555 121.394L197.418 120.788L197.223 119.909L197.047 119.304L196.91 118.796L196.773 118.249L196.715 117.819L196.617 117.331L196.48 116.784L196.402 116.296L196.226 115.573L196.109 115.28L195.933 115.124L195.582 114.87L195.269 114.694L195.015 114.538L194.801 114.362L194.468 114.089L194.195 113.776L194.039 113.6L193.707 113.171L193.394 112.819L192.984 112.37L192.632 112.038L192.261 111.745L191.91 111.393L191.07 110.69L190.718 110.436L190.386 110.124L189.996 109.713L189.8 109.381L189.644 109.01L189.488 108.541L189.331 108.073L189.175 107.448L189.117 107.077L189.038 106.744L188.921 106.354L188.804 105.846L188.726 105.475L188.609 105.045L188.452 104.615L188.277 104.186L188.179 103.854L188.12 103.58L188.257 103.15L188.335 102.701L188.238 102.506L187.945 102.311L187.554 102.115L187.437 101.998L187.3 101.686L187.261 101.412L187.183 101.061L187.085 100.689L186.948 99.8495L186.909 99.3026L186.773 98.7948L186.558 98.4432L186.245 98.1893L185.816 97.9939L185.112 97.7009L184.566 97.408L184.175 97.1736L183.823 96.8415L183.647 96.6853L183.55 96.529L183.491 96.3142L183.55 96.0407L183.647 95.8454L183.745 95.6891L183.862 95.4938L184.019 95.2594L184.136 95.0836L184.37 94.5758L184.39 94.2047V93.9312L184.37 93.7359L184.312 93.482L184.273 93.3062L184.175 93.2085L184.038 93.0718L183.862 92.9937L183.687 92.9741H183.569L183.394 93.0523L182.964 93.2671L182.73 93.3452L182.515 93.4038H182.378L182.143 93.3843L181.909 93.3062L181.636 93.1499L181.03 92.896L180.6 92.6616L180.288 92.5249L179.761 92.31L179.214 92.0756L178.686 91.8608L178.159 91.6654L177.729 91.4897L177.319 91.2162L177.085 90.8842L176.889 90.513L176.733 90.0052L176.655 89.7122L176.557 89.302L176.44 88.9504L176.245 88.6184L176.01 88.3059L175.795 88.091L175.6 87.9347L175.405 87.7199L175.131 87.2511L175.073 86.8605L174.995 86.5089L174.838 86.1182V85.7081L174.917 85.4151V85.1611L174.565 84.6533L174.389 84.5166L174.135 84.3213L173.901 84.1064L173.608 83.872L173.452 83.6962L173.178 83.4423L172.612 83.1298L172.397 83.0321L172.221 82.954L171.908 82.7782L171.616 82.7392L171.557 82.7196L171.303 82.7001L170.639 82.5829L170.287 82.5633L169.623 82.7977L169.506 82.9149L169.154 83.1298L169.057 83.1102L168.861 82.9735L168.783 82.8368L168.627 82.6024L168.49 82.368L168.256 82.0555L168.1 81.8602L167.924 81.7625L167.709 81.6649L167.397 81.5281L167.006 81.3523L166.225 80.864L165.99 80.6882L165.756 80.4343L165.58 80.1804L165.521 80.0046L165.228 79.8093L164.994 79.7702H164.721L164.252 79.7311L163.939 79.6921L163.783 79.5749L163.685 79.3405L163.666 79.2038L163.588 79.1256L163.49 79.028L163.353 78.9108L163.275 78.8522L163.217 78.7741V78.5201L163.295 78.3053L163.392 78.0904L163.431 77.8951L163.451 77.6607L163.373 77.3091L163.334 77.0943L163.314 76.8404V76.606L163.334 76.4302V76.2153L163.353 76.0395L163.47 75.9028L163.627 75.8247L163.861 75.7465L164.174 75.6489L164.467 75.5903L164.838 75.5121L165.15 75.4535L165.775 75.3364L166.068 75.2778L166.342 75.1801L166.459 75.0825L166.615 74.9457L166.752 74.8285L166.967 74.6918L167.279 74.5551L167.475 74.516L167.826 74.4379L168.119 74.3597L168.275 74.3207L168.569 74.1254L168.608 74.0472L168.569 73.8519L168.51 73.7347L168.393 73.5003L168.412 73.3636L168.471 73.0901L168.549 72.8948L168.686 72.6604L168.822 72.5432L169.018 72.3479L169.213 72.133L169.35 71.8987L169.369 71.7815L169.33 71.7619L169.057 71.6838L168.783 71.6252L168.451 71.5666L168.1 71.4885L167.69 71.4494L167.553 71.4689L167.26 71.5471L166.889 71.6838L166.518 71.7815H166.127L165.853 71.7033L165.756 71.6057V71.4885L165.775 71.4104L165.853 71.2736L165.893 71.176L165.971 70.9806L166.107 70.629L166.186 70.4142L166.244 70.1798L166.283 69.8087L166.244 69.3985L166.205 69.1837L166.049 69.0079L165.932 68.9688H165.736L165.365 68.9883L165.092 69.0274L164.701 68.9493L164.584 68.8907L164.389 68.7539L164.193 68.6368L164.057 68.5586L163.666 68.4023H163.47L163.138 68.4414H162.963L162.67 68.3828L162.435 68.3047L162.22 68.2461L162.123 68.2266L161.81 68.2461L161.498 68.2852L160.853 68.4609L160.541 68.5586L160.248 68.6563L159.896 68.7149L159.525 68.7539H159.193L158.958 68.7344L158.412 68.5196L158.275 68.3828L158.021 68.1289L157.884 67.9531L157.611 67.6211L157.357 67.3085L157.162 67.0351L156.966 66.8007L156.83 66.6249L156.634 66.5273L156.498 66.5077H156.263L156.068 66.5273L155.931 66.5077L155.736 66.4882L155.501 66.4687L155.111 66.3905L154.915 66.371L154.642 66.3319H154.134L153.685 66.371L153.255 66.4296L152.943 66.4687H152.454L152.142 66.4296L151.946 66.3905L151.497 66.2343L151.263 66.0585L151.224 65.9608L151.263 65.7459L151.458 65.5116L151.653 65.3749L151.868 65.2576L152.064 65.0623L152.044 64.9647L151.927 64.9061L151.849 64.8475L151.829 64.7693L151.868 64.7107L151.985 64.574L152.083 64.4568L152.142 64.281L152.064 64.2224L151.966 64.2029H151.868L151.829 64.1638L151.79 64.0466V63.9294L151.81 63.8123L151.79 63.7146L151.692 63.6755L151.517 63.6365H151.38L150.931 63.5974L150.696 63.5778L150.325 63.5388L149.817 63.4997H149.466L148.86 63.5192L148.118 63.5974L147.63 63.4802L147.513 63.4021L147.415 63.3239L147.102 63.2068L146.829 63.1677L146.165 63.1091L145.676 63.07L145.169 62.9919L144.973 62.8747L144.798 62.6208L144.739 62.4645L144.661 62.2692L144.446 62.1715L144.29 62.1325H144.114H143.938L143.606 62.1129L143.45 62.0348L143.372 61.9567L143.254 61.8004L143.196 61.6246L143.137 61.3512L143.118 60.941L143.157 60.8042L143.254 60.6089L143.352 60.4722L143.508 60.3159L143.704 60.1597L144.192 59.8276L144.329 59.73L144.68 59.5151L145.032 59.2417L145.208 59.0073L145.305 58.7729V58.5971L145.325 58.4018L145.442 58.1088L145.52 57.9525L145.618 57.7963L145.852 57.5423L145.989 57.4056L146.419 57.1517L146.673 56.9759L147.005 56.7611L147.298 56.6243L147.669 56.5267L148.001 56.4485L148.489 56.3118L148.685 56.2532L148.899 56.0774L148.958 55.7844L148.938 55.6672L148.821 55.5501L148.724 55.4133L148.45 55.1399L148.274 54.9836L148.079 54.8664L147.649 54.632L147.298 54.4367L147.024 54.2804L146.712 54.0851L146.555 53.9679L146.438 53.8116L146.38 53.4406V53.2647L146.399 52.8741L146.438 52.5616L146.458 52.3467L146.634 52.0733L146.731 51.8584L146.79 51.5654L146.712 51.292L146.634 51.0576L146.595 50.7256V50.4325L146.692 50.1005L146.77 49.9442L146.907 49.6317L146.966 49.2997L146.907 48.2645L146.868 47.9519L146.849 47.659L146.809 47.2683L146.77 47.0925L146.692 46.7995L146.555 46.5456L146.477 46.4284L146.126 46.194L145.813 46.1159L145.462 46.0378H145.208L144.817 46.0768L144.309 46.155L143.938 46.2526L143.704 46.3112L143.313 46.4284L143.04 46.5065L142.59 46.6237L142.317 46.6823L141.77 46.7019L141.301 46.6433L140.774 46.5456L140.422 46.4675L140.149 46.448L139.7 46.3112L139.368 46.2331L138.996 46.1159L138.508 45.9987L138.254 45.9206L137.824 45.8425L137.473 45.7839L136.985 45.7057L136.555 45.6276L136.242 45.5495L135.969 45.4518L135.246 44.9049L135.012 44.69L134.68 44.397L134.426 44.1431L134.309 43.9869L134.191 43.733L134.152 43.5962L134.113 43.3228L134.055 43.1665L133.996 42.893L133.977 42.7173L134.074 42.5805L134.289 42.4633L134.524 42.3461L134.934 42.1704L135.266 42.0141L135.539 41.8578L135.871 41.6039L136.086 41.3695L136.359 41.057L136.535 40.9008L136.828 40.7249L137.453 40.3734L137.903 40.139L138.196 40.0023L138.684 39.7874L139.133 39.6311L139.641 39.4554L140.149 39.2796L140.735 39.0061L141.125 38.8303L141.711 38.4983L142.161 38.1857L142.454 37.9904L142.903 37.7756L143.43 37.5412L143.801 37.2873L144.212 36.7989L144.172 36.5646L144.133 36.3888L144.094 36.213L144.075 35.9395L144.153 35.7247L144.27 35.4707L144.368 35.2559L144.426 35.1387L144.505 35.0606L144.524 35.0215L144.563 34.9629Z" fill="#13825F" stroke="#EAF3E9" stroke-width="0.98"/>
</svg>
