<svg width="331" height="160" viewBox="0 0 331 160" fill="none" xmlns="http://www.w3.org/2000/svg">
<path d="M78.4224 74.3413L78.0546 73.7396L78.0213 73.4387L78.1549 73.2047L78.4559 72.9707L78.7566 72.7367L78.8903 72.4025L78.8235 72.1685L78.6897 71.8676L78.4891 71.6336L78.322 71.4999L77.8875 71.199L77.6869 71.0653L77.3192 70.7645L77.0852 70.4302L77.0183 70.2296L76.751 69.9288L76.5839 69.7951L76.3164 69.6613L75.982 69.5276L75.7482 69.4273L75.3136 69.2268L75.0796 69.0931L74.7452 68.8925L74.2774 68.4914L74.0434 68.1571L73.7759 67.8897L73.5753 67.7894L73.3747 67.6891L73.3413 67.7559L73.1407 68.1905L73.0071 68.4579L72.6727 68.8256L71.7703 69.2936L71.2018 69.7951L70.9678 70.1628L70.8007 70.497L70.5667 71.1656L70.4665 71.6002L70.2994 71.9345L69.965 72.5362L69.7645 72.9039L69.497 73.3384L69.0959 73.9736L68.9288 74.1741L68.7617 74.3747L68.4275 74.5753L68.0931 74.6087L67.6585 74.475L67.3912 74.4081L67.0568 74.3747L66.756 74.5753L66.6891 74.8761L66.6557 75.1101L66.5555 75.5781L66.4551 76.0461L66.3547 76.4807L66.2545 76.7815L66.054 77.4835L65.9871 78.1521L65.9536 78.5866L65.6529 79.5226L65.4858 79.7566L65.1848 79.9572L64.8172 79.9906L64.416 79.7901L64.0484 79.4892L63.8144 79.2552L63.2127 79.1884L62.7446 79.2552L62.2097 79.3889L61.6749 79.4892H60.6721L60.2041 79.3221L59.6691 79.0546L58.8334 78.8875L58.4323 78.9544L57.8306 79.1884L57.1287 79.3555L56.6272 79.4558L55.7915 79.4892L55.2568 79.4223L54.6549 79.2218L54.1536 79.0881L53.485 78.9544H53.1842L52.9502 78.9878L52.5156 79.1549L52.1478 79.6898L52.0141 80.0575L51.8805 80.5255L51.5796 80.7929L50.9444 81.0603L50.3093 81.4615L50.0752 81.7623L49.7745 82.13L49.4401 82.4309L48.5711 82.9323L48.0362 83.1329L46.9665 83.5006L46.5988 83.5674H46.2311L45.9302 83.4003L45.7296 82.9657L45.5625 82.6649L45.3954 82.4309L45.128 82.1969L44.7938 81.9963L44.2923 81.9295L43.6571 81.7957L43.1223 81.6955L42.4203 81.5952L42.0192 81.4949L41.2504 81.428L40.916 81.3946L40.4147 81.428L39.579 81.5618L39.3115 81.5952H38.9438L38.5093 81.4949L38.1081 81.3278L37.7737 81.2275L37.3391 81.1606H36.938L36.6373 81.1272L36.2362 81.0603L35.7681 80.96L35.4672 80.8263L35.2332 80.7261L34.6984 80.7929L34.2638 80.8598H33.8962L33.5952 80.6926L33.4616 80.5255L33.261 80.1912L32.9601 79.7232L32.6928 79.4892L32.2582 79.2552L31.8903 79.0546L31.1885 78.9209H30.8208H30.3862H30.0853L29.7846 78.9878L29.4836 79.0546L29.2161 79.1884L29.116 79.2886L28.9154 79.3889L28.8485 79.6898L28.9154 79.8569L29.116 80.1243L28.9489 80.5589L28.4139 80.6592L28.0128 80.6258L27.478 80.5923L26.9765 80.7261L26.6756 80.8932L26.0072 81.2609L25.6393 81.2275L25.138 81.5283L24.8036 81.8292L24.5363 82.2972L24.4694 82.4977L24.1352 82.6983L23.9346 82.9323L23.7673 83.1663L23.7006 83.4003L23.5001 83.6343L23.3328 83.9017L23.1991 84.0689L23.0989 84.236L22.9316 84.3029L22.4638 84.2694H22.2632L21.8954 84.3697L21.6948 84.47L21.3606 84.5034L20.6251 84.1023L20.4245 83.9017L20.2909 83.6677L20.2574 83.2666L20.224 82.9323L20.1238 82.598L20.0569 82.4643L19.7227 82.2637L19.2881 82.13L18.7197 82.0632L18.4524 82.0297H18.1849L17.7503 82.0632L17.5498 82.13L17.249 82.4309L17.0817 82.6649L16.9481 82.8989L16.8477 83.066L16.6806 83.3L16.48 83.4672L16.2795 83.6009L15.7447 83.768L15.3101 83.8683L14.9425 84.0354L14.4075 84.4031L13.7724 84.8711L13.5049 85.172L13.037 85.7403L12.569 86.342L12.1679 86.8434L11.8002 87.2445L11.5997 87.4785L11.2653 87.9131L10.8307 88.4479L10.5299 88.8825L10.1621 89.2168L9.92826 89.4508L9.69423 89.5845L9.12581 89.7851L8.62451 90.0191L8.12301 90.1862L7.58825 90.3199L7.05328 90.5205L6.75254 90.6208L6.31796 90.7879L5.98356 90.8882L5.51572 91.0219L5.14786 91.1556L4.71348 91.3228L4.51271 91.4565L4.34561 91.6236L4.04488 91.9913L3.94449 92.1585L3.74393 92.4259L3.57683 92.6933L3.47645 92.8939L3.37627 93.1613L3.27589 93.3953L3.07533 93.6293L2.94169 93.7296L2.74113 93.8299L2.54057 93.8967H2.50711L2.44019 94.0973V94.231L2.34001 94.465L2.40693 94.4984L2.47365 94.5319L2.54057 94.5653L2.74113 94.5987L2.80805 94.5653H2.87477L2.60749 95.3007L2.40693 95.167L2.20637 95.1336H2.00561L1.87197 95.2338L1.77179 95.4344L1.63794 95.5013L1.40392 95.5347L1.23682 95.6016L1.10318 95.6684L0.936085 95.7687L0.702064 95.8021L0.36766 95.7353L0.200561 95.6684L0.100382 95.869L0 96.0361L0.234021 96.5041L0.601682 97.3398L0.802242 97.7075L1.0028 98.209L1.1699 98.7772L1.30375 99.1784L1.40392 99.6464L1.43738 100.148V100.749L1.40392 101.217V101.819L1.37067 102.488L1.33721 102.922L1.27028 103.39V103.825L1.20336 104.527L1.23682 105.028L1.27028 105.53L1.30375 106.232L1.40392 106.8L1.50431 107.569L1.63794 108.237L1.60448 109.508V110.009V110.745L1.57123 111.446L1.53777 111.848L1.50431 112.55L1.47085 113.218V113.619V114.121L1.53777 114.589L1.60448 115.224L1.67141 115.993L1.77179 116.427L1.90543 117.062L2.07253 117.597L2.23963 117.998L2.57403 118.634L2.80805 119.102L3.14225 119.737L3.40973 120.038L3.81085 120.506L4.04488 120.74L4.446 121.107L4.54617 121.241L4.57964 121.341L4.64656 121.542L4.74673 121.742L4.98076 122.043L5.21478 122.21L5.41534 122.277L5.9503 122.244L6.68562 122.143L7.1202 122.077L7.68843 122.01L8.45741 122.043L9.05909 122.077L9.8948 122.377L10.4296 122.611L10.9645 122.812L11.6329 123.046L12.034 123.28L12.2013 123.447L12.6359 123.815L12.9367 124.149L13.4716 124.684L13.6053 124.885L13.9395 125.353L14.4075 125.887L14.7752 126.188L15.3769 126.69L15.7447 127.057L15.9787 127.325L16.1124 127.759V128.127L16.246 128.562L16.4133 128.863L16.8812 129.097L17.3157 129.264L17.7838 129.431L18.1514 129.531L18.6864 129.665L19.3883 129.999L19.7561 130.4L19.8228 130.501L19.9567 130.902L20.0569 131.37L19.9567 131.604L19.7227 131.971L19.6223 132.205L19.4217 132.707L19.3548 132.907L19.0875 133.442L18.9204 133.743L18.7866 133.877L18.6529 134.01L18.586 134.378L18.7531 134.579L19.1877 134.88L19.9232 135.214L20.1905 135.314L20.6585 135.515L20.8591 135.682L21.1266 135.983L21.2937 136.317L21.3941 136.584L21.6281 136.752L21.7952 136.785H21.8954H22.0292H22.0959L22.4638 136.718L22.7645 136.651L23.032 136.584L23.3328 136.484L23.7673 136.317L24.3023 136.183L24.7034 136.05L25.4053 135.648L25.7397 135.448L26.1743 135.247L26.5754 135.147L27.01 135.281L27.5447 135.448L28.0128 135.348L28.3804 135.247L29.3165 134.913L29.6842 134.712L30.0184 134.478L30.2859 134.278L30.6535 134.144L31.155 134.044L31.4892 134.178L31.7232 134.412L32.0577 134.712L32.2917 134.913L32.5255 135.08L32.8599 135.247L33.2276 135.414L33.8627 135.782L34.4309 136.183L35.0326 136.484L35.8016 136.852L36.2694 137.052L36.4702 137.086L36.8713 137.119H37.5064L38.2083 137.186L38.576 137.353L39.0775 137.42L39.6792 137.387L40.6152 137.052L41.0498 136.852L41.4509 136.618L41.9522 136.317L42.3201 136.25L42.6543 136.35L43.256 136.484L43.5902 136.384H43.9246L44.3257 136.518L44.6934 136.818L45.061 137.119L45.5625 137.42L45.9971 137.688L46.4652 137.955L46.9999 138.256L47.468 138.356L48.2033 138.624L48.6379 138.991L49.1728 139.359L49.507 139.526L49.8414 139.727L50.2758 140.028L50.6102 140.462L50.911 140.93L51.3455 141.131L51.914 141.264L52.2816 141.331L52.5156 141.465L52.9168 141.732L53.4181 142L53.7859 142.134L54.2872 142.267L54.6216 142.434L54.9558 142.735L55.3569 143.136L55.5575 143.437L55.9586 143.872L56.4601 144.206L56.8613 144.373L57.4964 144.507L58.0312 144.574L58.4323 144.908L58.8669 145.677L59.268 146.245L59.4685 146.646L59.5689 147.014L59.6024 147.248L59.5355 147.582L59.6691 147.983L59.9031 148.351L60.0035 148.552V148.752L59.9366 148.919L59.7026 149.187L59.3684 149.354L59.1343 149.488L58.7667 149.722L58.4323 149.855L57.9644 150.023L57.6635 150.156L57.2624 150.491L57.1287 150.691L57.0953 150.825L57.0618 150.992L57.2289 150.925L57.5299 150.825L57.7639 150.758L58.2317 150.658L58.6663 150.591H59.1009L59.5689 150.557L60.1706 150.524H60.5717L60.9728 150.624L61.2738 150.758L61.3405 151.025L61.2403 151.326L61.2069 151.527V151.727L61.2403 152.028L61.374 152.229L61.5745 152.429L62.0091 152.563L62.5106 152.663L62.9117 152.73L63.4132 152.797H64.1151H64.3826L64.9843 152.73L65.3519 152.663L65.7198 152.596L66.3215 152.563L66.7226 152.596H67.1904L67.8925 152.563H68.5276H69.0626H69.3633L69.7645 152.463L70.2325 152.396L70.6002 152.329L71.1017 152.162L71.6699 152.062L72.0041 152.028L72.305 151.861L72.606 151.56L72.8065 151.226L73.0071 150.892L73.3078 150.457L73.5753 150.156L73.8428 149.922L74.1435 149.555L74.5447 149.053L74.7452 148.819L75.0796 148.585H75.5142H75.8819H76.2495L76.7176 148.518L77.1856 148.351L77.6202 148.217L77.8207 148.117L78.2886 147.883L78.6564 147.649L78.9237 147.382L79.1912 146.981L79.4922 146.613L79.726 146.279L79.9267 145.911L80.2275 145.51L80.5617 145.109L80.963 144.841L81.3307 144.707L81.5647 144.741L81.832 144.975L81.9993 145.175L82.2665 145.409L82.6009 145.577L82.6677 145.61L83.0355 145.71L83.6037 145.877L83.9379 145.944L84.4729 146.111L85.1081 146.312L85.6428 146.479L85.8434 146.579L86.278 146.747L86.6456 146.78L86.7795 146.646L86.9466 146.513L87.3142 146.345L87.7153 146.145L88.2168 145.911L88.7181 145.677L89.3867 145.409L89.6877 145.343L90.0888 145.476L90.3228 145.677L90.4899 145.911L90.657 146.212L90.8241 146.446L90.9914 146.713L91.1251 146.981L91.2587 147.248L91.4927 147.515L91.6598 147.683L91.7602 147.749L92.1279 147.783L92.5625 147.749L92.7965 147.716L93.3312 147.616L93.7658 147.449L94.3675 147.348L94.4344 147.315L94.7686 147.114L95.0026 146.813L95.1365 146.579L95.337 146.379L95.5041 146.279H95.6712H96.0389L96.2395 146.245L96.3064 146.279H96.7744H97.1756L97.443 146.178L97.6771 146.045L98.0447 145.811L98.3455 145.643L98.9139 145.543L99.1144 145.51L99.549 145.476L100.05 145.443H100.284H100.752L101.087 145.51L101.588 145.744L101.889 145.978L102.123 146.145L102.424 146.345L102.624 146.446L102.892 146.513L103.193 146.546L103.627 146.513L103.761 146.446L103.794 146.312L103.895 146.011L103.995 145.811L104.095 145.71L104.262 145.543L104.463 145.309L104.63 145.142L104.831 144.841L104.998 144.641L105.098 144.44L105.165 144.206L105.299 143.838L105.332 143.571L105.432 143.136L105.533 142.668L105.666 142.301L105.733 142.067L105.8 141.766L105.867 141.432L105.967 140.897V140.395L105.934 139.593V139.259L105.967 138.824L106.001 138.523L106.201 138.256L106.402 138.156L106.669 138.055L106.903 137.955L107.237 137.788L107.371 137.621L107.538 137.42L107.705 137.186L107.806 137.052V136.785L107.839 136.518L107.906 136.217L108.107 135.849L108.274 135.548L108.508 135.314L108.675 135.013L108.775 134.846L108.909 134.579L108.942 134.345L108.842 133.843L108.708 133.375L108.574 132.941L108.474 132.573L108.24 132.172L108.107 131.838L107.873 131.437L107.639 131.102L107.471 130.801L107.371 130.567L107.237 130.233L107.003 129.732L106.87 129.498L106.468 128.996L106.067 128.528L105.8 128.261L105.7 128.127H105.666L105.365 128.161L105.131 128.194L104.831 128.261L104.496 128.294L104.262 128.361L103.995 128.428H103.895L103.794 128.395L103.728 128.361V128.328L103.694 128.294V128.227V128.127L103.728 127.927L103.828 127.693L103.961 127.358L104.062 127.191L104.329 126.857L104.496 126.69L104.764 126.489L104.897 126.389L105.098 126.322L105.365 126.188L105.733 126.055L106.034 126.021L106.435 125.954L106.769 125.821L107.003 125.754L107.171 125.62L107.338 125.419L107.405 125.252L107.471 125.018L107.538 124.751L107.672 124.483L107.772 124.517L107.973 124.684L108.14 124.885L108.374 125.152L108.608 125.319L109.009 125.587L109.377 125.62L109.611 125.553L109.778 125.52L110.346 125.453L110.446 125.486L110.513 125.687L110.58 125.887L110.68 126.021L110.781 126.155L110.914 126.355L111.182 126.589L111.55 126.924L111.917 127.158L112.252 127.425L112.552 127.693L112.853 128.027L113.221 128.328L113.422 128.495L113.789 128.695L114.09 128.729L114.358 128.863L114.424 129.063L114.391 129.23L114.491 129.397L114.558 129.464L114.692 129.531H114.926L114.993 129.498L115.227 129.464L115.427 129.397L115.561 129.364L115.661 129.297L115.828 129.13L115.929 129.063L116.096 128.929L116.33 128.695L116.564 128.629L116.865 128.461L117.165 128.395L117.567 128.328L117.7 128.094L117.767 127.96L117.868 127.525V127.258L117.934 126.89L118.102 126.389L118.168 126.121L118.235 125.921L118.302 125.687V125.486V125.319L118.269 125.185L118.168 124.885L118.068 124.684L118.001 124.483L117.934 124.249L117.868 123.982L117.801 123.715L117.7 123.347V123.113L117.734 122.979L117.767 122.779L117.834 122.545L117.901 122.244L118.001 122.01L118.102 121.776L118.202 121.508L118.302 121.341L118.469 121.141L118.636 120.907L118.87 120.606L119.138 120.238L119.372 119.937L119.773 119.469L120.308 119.001L120.776 118.5L120.107 118.132L119.907 117.965L119.773 117.865L119.572 117.731L119.305 117.497L119.138 117.196L119.004 116.962L118.837 116.628L118.636 116.327L118.503 115.892L118.436 115.592L118.336 115.257L118.302 115.124L118.168 114.622L118.102 114.288L118.068 114.054L117.868 113.653L117.634 113.385L117.433 113.218L117.132 112.984L116.898 112.75L116.597 112.182L116.397 111.814L116.063 111.413L115.661 110.945L115.394 110.678L114.859 110.276L114.558 110.109L114.124 110.043L113.656 109.842L113.355 109.541L113.154 109.274L112.954 109.006L112.82 108.739L112.653 108.471L112.452 108.237L112.118 107.903L111.483 107.736L110.914 107.703H110.446L109.912 107.736L109.577 107.602L109.477 107.535L109.176 107.235L108.976 107.101H108.574L108.107 107.067L107.739 107.001L107.137 106.867L106.736 106.8L106.034 106.633L105.265 106.432L104.864 106.265L104.396 105.998L104.195 105.897L103.828 105.764L103.159 105.73L102.992 105.764L102.491 105.864L101.989 105.897L101.822 105.797V105.496L101.889 105.329V105.129L101.755 104.828L101.555 104.727L101.354 104.627L101.187 104.56L101.02 104.36L100.919 104.159V103.925V103.658L101.02 103.29L101.187 103.056L101.354 102.621V102.254L101.187 101.853L100.819 101.619L100.619 101.518L100.385 101.251L100.318 101.117L100.217 100.816L100.251 100.482L100.284 100.348L100.685 99.8804L100.819 99.6798L101.154 99.0112L101.254 98.5767L101.12 97.975L100.953 97.7744L100.752 97.5738L100.518 97.3064L100.318 97.1058L99.8498 96.6044L99.549 96.2701L99.081 95.7687L98.7133 95.3676L98.2787 94.8661L97.8776 94.3313L97.6771 93.997L97.3761 93.3953L97.2425 93.1279L97.1086 92.7936L97.0085 92.4593L96.8414 92.1919L96.8079 92.0916L96.6073 91.6236L96.4735 91.2893L96.3733 91.0219L96.2395 90.5873L96.0724 90.2196L95.9387 90.0191L95.6043 89.6514L95.3705 89.3839L95.2367 89.2502L95.0361 89.1165L94.8355 88.9828L94.401 88.6485L93.6991 88.1805L93.4651 87.98L92.9301 87.6457L92.6294 87.4785L92.1279 87.278L91.7937 87.1442L91.2252 86.9771L90.9914 86.9103L90.7909 86.8768L90.4565 86.9437L90.0553 87.0774L89.6877 87.3114L89.4871 87.4451L89.1862 87.7794L88.5176 88.4814L88.1499 88.7488L87.8824 88.8491L87.5482 88.6819L87.3811 88.2808V88.0468L87.4146 87.6457L87.4813 87.3448L87.6486 86.9103L87.7823 86.6763L87.9828 86.4088L88.3505 86.0746L88.618 85.8405L88.9522 85.4728V85.2388L88.8185 84.938L88.6849 84.8043L88.4174 84.5703L88.2168 84.4366L87.8157 84.236L87.5482 84.1023L87.1806 83.8349L86.8129 83.5674L86.4116 83.1997L86.1109 82.9657L85.7432 82.6649L85.4422 82.3306L85.2752 82.0632L85.0077 81.6286L84.8071 81.3278L84.5396 81.0603L84.3725 80.9266L83.9714 80.6258L83.5703 80.2915L83.3028 80.0575L82.8682 79.6229L82.4338 79.1549L82.2665 78.8875L81.9323 78.4195L81.6314 77.9515L81.5647 77.8178L81.0632 77.283L80.6286 76.7815L80.2944 76.4138L79.5589 75.6115L79.1577 75.0767L78.8235 74.7758L78.4224 74.3413Z" fill="#227359"/>
<path d="M100.954 2.47084L100.519 2.40398L100.252 2.33712L100.018 2.23684L100.118 1.93599L100.151 1.56828L99.9508 1.30085L99.8839 1.10029L99.6834 1H99.6164L99.4828 1.13371L99.2822 1.36771L99.0817 1.60171L98.9146 1.8357L98.714 2.0697L98.48 2.27027L98.3129 2.40398L98.1456 2.50426L97.711 2.63798L97.3768 2.60455L97.0426 2.53769L96.842 2.57112L96.5746 2.77169L96.2736 2.9054L96.0396 2.93883L95.4714 2.83855L95.2039 2.70483L95.1037 2.67141L94.9701 2.73826L94.7693 2.9054L94.5688 3.07254L94.4017 3.23968L94.1009 3.3734H93.8334L93.6329 3.23968L93.4323 3.03912L93.2652 2.80512L93.1648 2.63798L93.0312 2.47084L92.9643 2.27027L92.7303 2.0697L92.5297 2.03627H92.1286H91.7944L91.46 2.13656L91.2259 2.23684L91.0254 2.47084L90.8917 2.60455L90.7246 2.77169L90.4906 2.93883L90.1897 2.97226L89.9559 3.00569L89.588 2.97226L89.4878 2.87197L89.2873 2.77169H89.2203L88.9863 2.93883L88.7188 3.30654L88.5852 3.47368L88.5183 3.60739V3.64082L88.6856 3.77453L88.7523 4.07539L88.5852 4.30938L88.1172 4.67709L87.8831 4.94452L87.6826 5.17851L87.5824 5.31223L87.248 5.44594L86.8136 5.51279L86.2117 5.64651L85.8106 5.74679L85.4095 6.14793L85.2424 6.44878L85.1422 6.68278L84.6072 7.05049L84.2061 7.28449L83.8385 7.58534L83.4373 7.88619L82.9024 8.35418L82.5347 8.72189L82.2005 9.05617L81.7325 9.45731L81.3981 9.72474L81.231 9.82502L80.8633 10.1593L80.6628 10.3599L80.5291 10.4936L80.3953 10.6273L80.1947 10.6942L79.9607 10.7944L79.5261 10.8947L79.2588 10.7944L79.1584 10.6607L78.9913 10.6273L78.5902 10.6942L78.256 10.9281L78.1891 10.9616L77.9885 11.0953L77.7545 11.3627L77.487 11.5633L77.1863 11.7973L76.8519 11.931L76.6513 11.8641L76.4508 11.7973L76.2168 11.931L76.0162 12.0981L75.8156 12.2318L75.4145 12.4324L75.0469 12.5327L74.7459 12.633L74.3783 12.7333L74.0106 12.8001L73.6429 12.9004L73.4424 12.867L72.9074 12.7667L72.7403 12.6664L72.3392 12.5996H72.0382L71.5704 12.4324L70.9018 12.1316L70.5007 12.165L70.0326 12.2653L69.5981 12.4324L69.4644 12.4658H69.1635L69.0298 12.4324L68.5283 12.6664L68.2943 12.8001L67.9601 12.9673L67.5925 13.1344H67.325L66.79 13.101L66.4558 13.0341L66.0881 12.9673L65.8207 13.0007L65.5532 12.8001H64.985L64.684 12.7333L64.4167 12.5661L64.2162 12.4658L63.7481 12.0981L63.581 12.0313H63.1799L62.9459 11.9978L62.5448 11.7973L62.2773 11.8976L61.7425 12.0313L61.241 12.2653L60.9068 12.4993L60.6059 12.6664L59.7367 12.8001L59.4025 12.9004L59.1016 13.0007L58.7005 13.0675L58.433 12.9673H58.1657L57.8982 13.1678L57.6307 13.6024L57.1627 13.9701L56.8285 14.0704L56.3939 14.1038L56.1264 14.0704L55.8926 14.2041L55.6586 14.3712L55.1905 14.4381L54.9231 14.4047L54.6223 14.4381L54.3883 14.6052L54.3214 14.739L54.2212 15.0732L54.2879 15.4075L54.3883 15.7084V15.7418L54.455 16.0092L54.1877 16.3769L53.9537 16.8115L53.7532 17.2795L53.5191 17.6472L53.2517 17.9815L53.0176 18.2823L52.7504 18.6166L52.4494 18.8506L52.3158 18.9509L52.1152 19.0846L51.8477 19.1849H51.5803L51.3128 19.1515L50.8115 19.3855L50.3434 19.6195L50.1763 19.7197L49.7083 19.82L49.4076 19.8869L49.1401 19.9203H48.7724L48.438 19.82L48.204 19.6863L48.0034 19.5192L47.8698 19.352L47.7361 19.2183L47.6692 19.1849L47.6023 19.0846L47.5356 18.9509L47.9367 18.6835L47.8698 18.4829L47.6358 18.65L47.3016 18.6166L47.101 18.7169L47.0341 18.4829L47.101 18.3492L47.4017 18.3158L47.2681 18.1152L48.7055 17.9481L48.7389 17.8478L47.1343 17.9481L46.633 18.2155H46.566L46.4324 18.1486L46.2318 18.0149L45.8642 17.8478L45.5967 17.7141L45.1956 17.6806L44.9281 17.6138L44.761 17.5469L44.6272 17.4801H44.5604L44.4266 17.4466L44.1928 17.4801L43.9588 17.5469L43.7582 17.6472L43.4238 17.5803L43.2567 17.4801L43.0896 17.2795L42.9225 17.2126H42.7886L42.5881 17.1792L42.3541 17.0789L42.2204 17.0121L42.0199 16.8449L41.8528 16.7112L41.7524 16.6444H41.6187L41.3847 16.8115L41.2176 16.9786L40.9836 17.0789H40.7496L40.4154 17.0455L40.1144 17.0789L39.9808 17.1458L39.6129 17.1792L39.1451 17.0455H38.9111L38.3429 17.1123L38.0419 17.1792L37.741 17.1458L37.5072 17.0789L37.2731 17.0121L37.1393 16.9118H36.8051H36.6045L36.3705 16.8784L36.2701 16.7446L36.103 16.6778L35.8023 16.6444L35.5013 16.7112L35.3008 16.7781L35 16.8784H34.6991L34.5987 16.8449L34.3314 16.7112L34.1643 16.6109L33.9303 16.5775L33.7965 16.6444L33.5625 16.8115L33.1613 17.1458L33.0277 17.2461L32.6935 17.3463L32.2924 17.4466L31.958 17.7141L31.6905 17.8478L31.4567 17.9146L31.2559 17.9815L31.1557 18.0483L30.9552 18.3492L30.8215 18.65L30.7546 18.7838L30.6542 18.9509L30.5206 19.1515L30.4537 19.2518L30.4871 19.2852L30.5875 19.4189L30.8215 19.5192L30.8548 19.5526L30.9552 19.6195L30.9886 19.7532L30.9217 19.8535L30.8548 19.9203L30.6542 19.9872L30.5206 20.054L30.3535 20.1543L30.2866 20.3214V20.6223L30.1529 21.0569L30.086 21.2909L29.9524 21.6251L29.8185 21.9929L29.6849 22.4608L29.618 22.7951L29.5512 23.1628L29.4843 23.4971L29.3507 23.7311L29.1501 23.9651L29.0832 24.0988L28.8826 24.2994L28.7823 24.5334L28.6486 24.968L28.6152 25.2354L28.5817 25.6699L28.5482 26.1045L28.4481 26.6728L28.4146 26.7731L28.214 27.1742L28.0469 27.5419L27.8129 28.0099L27.5789 28.5113L27.3449 29.1465L27.1109 29.815L27.0107 30.3499L26.7767 30.985L26.5761 31.3862L26.2752 31.9544L26.0746 32.4559L25.874 33.0576L25.7404 33.4253L25.6068 33.9267L25.4729 34.1607L25.2389 34.6621L25.1722 34.9964L25.1387 35.4978L25.1052 35.9992L24.8712 36.4338L24.7376 36.8684L24.6037 37.5035L24.4366 38.0049L24.3365 38.3726L24.1359 38.8406L24.0355 39.2418L23.835 39.6429L23.768 39.9438L23.6679 40.1443V40.3115L23.7346 40.7126L23.534 41.3477L23.4004 41.682L23.2333 42.1834L23.1329 42.6849L22.9658 43.1529L22.7987 43.6543V43.9551L22.7652 44.1223L22.7318 44.3897L22.6651 44.8577L22.4645 45.2254L22.3976 45.3591L22.3641 45.5597L22.3307 45.7268L22.2972 45.9608L22.2639 46.1948L22.2972 46.3285L22.3307 46.4622L22.3641 46.6628L22.431 46.7631L22.4645 46.7965L22.5647 46.8634L22.3641 46.9971L22.0299 47.2311L21.963 47.2645L21.8626 47.4985L21.7624 47.8328L21.6621 48.1336L21.4615 48.3676L21.3948 48.5682L21.2609 49.0028L21.1608 49.4373L21.1273 50.0056L21.0604 50.3733L20.8933 51.0753L20.6927 51.443L20.4587 51.9444L20.2916 52.3456L20.1912 52.7133L20.0576 53.1813L19.9239 53.7496L19.7568 54.1173L19.5895 54.5184L19.4224 54.9864L19.2888 55.421L19.1884 56.0227L19.1217 56.357L18.9878 56.6912L18.9544 56.825L18.8207 56.9921V57.2595L18.6202 57.5604L18.4196 57.9281L18.286 58.3961L18.1856 58.6301L18.1521 58.8975L18.0185 59.1983L17.8514 59.2986L17.7176 59.4658L17.6174 59.6329L17.4503 59.7332L17.2497 59.9003L17.1828 59.9672L17.0824 59.8669L16.9153 59.8001L16.5811 60.034L16.2802 60.3349L16.0796 60.5689L15.8456 61.0703L15.7789 61.3043L15.411 61.7055L15.2439 61.8726L15.177 62.2403L15.1103 62.608L14.7426 63.0426L14.5419 63.31L14.2411 63.8449V63.9451L14.2746 64.3797L14.0071 64.9146L13.8735 65.2154L13.6394 65.5831L13.5725 65.8171L13.539 66.0177V66.2183L13.4054 66.586L13.2718 66.8868L12.9374 67.2879L12.7368 67.5219L12.5362 67.8228L12.1017 68.3576L11.9011 68.6251L11.6004 69.1265L11.4665 69.2936L11.2994 69.6613L11.199 70.0291L11.1323 70.3633L11.0319 70.8648L10.8983 71.199L10.7312 71.4999L10.5641 71.667L10.4637 71.9345L10.3301 72.4359L10.2297 72.7033L10.1962 73.0042V73.2047L10.2297 73.4053L10.1628 73.8064L9.92896 74.241L9.62802 74.9764L9.36053 75.3776L9.09326 75.7453L9.0598 76.0461V76.3804L8.92595 76.9487L8.72539 77.4835L8.55829 78.1521L8.19063 78.8207L8.02353 79.4558L7.88969 80.0241L7.68913 80.5255L7.45511 80.96L7.32147 81.3612L7.15437 81.896L6.88689 82.5646L6.68633 83.0326L6.58615 83.4337L6.41884 83.8349L6.31867 84.3697L6.25174 84.8377L5.91755 85.3057L5.58314 85.7737L5.31586 86.4757L5.1153 87.1442L4.91474 87.5454L4.68072 87.9465L4.54688 88.3477L4.4467 88.8491L4.37978 89.1834V89.4174L4.24614 89.8185L4.1123 90.1528L3.91174 90.4536L3.67771 90.8213L3.64446 91.0553L3.51062 91.423L3.37698 91.9245L3.31005 92.1585L3.10949 92.6265L3.00932 92.827L2.90893 93.0276L2.64145 93.529L2.54127 93.8633L2.50781 93.8967H2.54127L2.74183 93.8299L2.94239 93.7296L3.07603 93.6293L3.27659 93.3953L3.37698 93.1613L3.47715 92.8939L3.57754 92.6933L3.74464 92.4259L3.9452 92.1585L4.04558 91.9913L4.34632 91.6236L4.51342 91.4565L4.71418 91.3228L5.14856 91.1556L5.51642 91.0219L5.98426 90.8882L6.31867 90.7879L6.75325 90.6208L7.05399 90.5205L7.58895 90.3199L8.12371 90.1862L8.62521 90.0191L9.12651 89.7851L9.69494 89.5845L9.92896 89.4508L10.1628 89.2168L10.5306 88.8825L10.8314 88.4479L11.266 87.9131L11.6004 87.4785L11.8009 87.2445L12.1686 86.8434L12.5697 86.342L13.0377 85.7403L13.5056 85.172L13.7731 84.8711L14.4082 84.4031L14.9432 84.0354L15.3108 83.8683L15.7454 83.768L16.2802 83.6009L16.4807 83.4672L16.6813 83.3L16.8484 83.066L16.9488 82.8989L17.0824 82.6649L17.2497 82.4309L17.5505 82.13L17.751 82.0632L18.1856 82.0297H18.4531L18.7204 82.0632L19.2888 82.13L19.7234 82.2637L20.0576 82.4643L20.1245 82.598L20.2247 82.9323L20.2581 83.2666L20.2916 83.6677L20.4252 83.9017L20.6258 84.1023L21.3613 84.5034L21.6955 84.47L21.8961 84.3697L22.2639 84.2694H22.4645L22.9323 84.3029L23.0996 84.236L23.1998 84.0689L23.3335 83.9017L23.5008 83.6343L23.7013 83.4003L23.768 83.1663L23.9353 82.9323L24.1359 82.6983L24.4701 82.4977L24.537 82.2972L24.8043 81.8292L25.1387 81.5283L25.64 81.2275L26.0079 81.2609L26.6763 80.8932L26.9772 80.7261L27.4787 80.5923L28.0135 80.6258L28.4146 80.6592L28.9496 80.5589L29.1167 80.1243L28.9161 79.8569L28.8492 79.6898L28.9161 79.3889L29.1167 79.2886L29.2168 79.1884L29.4843 79.0546L29.7853 78.9878L30.086 78.9209H30.3869H30.8215H31.1892L31.891 79.0546L32.2589 79.2552L32.6935 79.4892L32.9608 79.7232L33.2617 80.1912L33.4623 80.5255L33.5959 80.6926L33.8969 80.8598H34.2645L34.6991 80.7929L35.2339 80.7261L35.4679 80.8263L35.7688 80.96L36.2369 81.0603L36.638 81.1272L36.9387 81.1606H37.3398L37.7744 81.2275L38.1088 81.3278L38.51 81.4949L38.9445 81.5952H39.3122L39.5797 81.5618L40.4154 81.428L40.9167 81.3946L41.2511 81.428L42.0199 81.4949L42.421 81.5952L43.123 81.6955L43.6578 81.7958L44.293 81.9295L44.7945 81.9963L45.1287 82.1969L45.3961 82.4309L45.5632 82.6649L45.7303 82.9657L45.9309 83.4003L46.2318 83.5674H46.5995L46.9672 83.5006L48.0369 83.1329L48.5718 82.9323L49.4408 82.4309L49.7752 82.13L50.0759 81.7623L50.31 81.4615L50.9451 81.0603L51.5803 80.7929L51.8812 80.5255L52.0148 80.0575L52.1485 79.6898L52.5163 79.1549L52.9509 78.9878L53.1849 78.9544H53.4857L54.1543 79.0881L54.6556 79.2218L55.2575 79.4224L55.7922 79.4892L56.6279 79.4558L57.1294 79.3555L57.8313 79.1884L58.433 78.9544L58.8341 78.8875L59.6698 79.0546L60.2048 79.3221L60.6728 79.4892H61.6756L62.2104 79.3889L62.7453 79.2552L63.2134 79.1884L63.8151 79.2552L64.0491 79.4892L64.4167 79.7901L64.8179 79.9906L65.1855 79.9572L65.4865 79.7566L65.6536 79.5226L65.9543 78.5866L65.9878 78.1521L66.0547 77.4835L66.2552 76.7815L66.3554 76.4807L66.4558 76.0461L66.5562 75.5781L66.6564 75.1101L66.6898 74.8761L66.7567 74.5753L67.0575 74.3747L67.3919 74.4081L67.6592 74.475L68.0938 74.6087L68.4282 74.5753L68.7624 74.3747L68.9295 74.1741L69.0966 73.9736L69.4977 73.3384L69.7652 72.9039L69.9657 72.5362L70.3001 71.9345L70.4672 71.6002L70.5674 71.1656L70.8014 70.4971L70.9685 70.1628L71.2025 69.7951L71.771 69.2936L72.6734 68.8256L73.0078 68.4579L73.1414 68.1905L73.342 67.7559L73.3754 67.6891H73.3085L73.108 67.5888L72.8405 67.3548L72.6399 67.1208L72.3057 66.7531L72.1052 66.4522L71.7375 65.6834L71.6037 65.3157L71.5369 64.948L71.47 64.6806L71.3364 64.3128L71.1024 64.1123L70.7012 63.8783L70.5339 63.778L70.1997 63.544L69.7652 63.2766L69.5311 63.0426L69.2304 62.6749L69.13 62.4743L69.0298 62.0732L68.9964 61.8057L69.0966 61.5049L69.3975 60.9366L69.665 60.6692L69.9323 60.2346V59.7332L69.7317 59.1983L69.2971 58.4295L69.0298 58.0618L68.7958 57.4935L68.6954 57.0589L68.662 56.6244L68.6287 56.2567L68.7958 55.9224L68.9295 55.5881L69.1635 55.3207L69.8321 54.719L70.3001 54.4516L71.002 54.1173L71.47 53.8833L72.0717 53.6493L72.7738 53.4153L73.6095 53.0476L74.1442 52.5127L74.2781 52.0782L74.3113 51.7439L74.4117 51.0085L74.7125 50.4402L74.9799 49.9722L75.0469 49.8385L75.4814 49.4708L76.1833 49.0362L76.5846 48.8022L77.1528 48.5013L77.788 48.1336L78.2226 47.7659L78.8242 47.3314L79.0248 46.9971L78.9579 46.4957L78.7573 46.1614L78.5233 45.8605L78.4231 45.7268L78.1556 45.3925L77.9551 45.1251L77.2865 44.0888L76.9188 43.6543L76.6513 43.2866L76.4842 43.0191L76.2502 42.618L75.9495 42.1166L75.8156 41.6486L75.682 41.214L75.5816 40.98L75.4814 40.746L75.3476 40.3449L75.1138 39.9772L74.8463 39.6095L74.5119 39.2418L74.2781 38.9743L74.0775 38.7069L73.7766 38.2389L73.576 37.9381L73.3085 37.4032L73.0745 36.9687L72.9409 36.5675L72.9074 36.1329L72.9409 35.9658L72.9743 35.5312V35.4644L73.1414 35.0967L73.6095 34.6621L73.9437 34.495V34.0604L73.81 33.9267L73.4424 33.5256L73.3754 33.3918L73.4756 32.8904L73.7431 32.7901L74.1108 32.7567L74.5454 32.7233L74.8798 32.623L75.3476 32.2887L75.7822 32.1884L76.0497 32.2887L76.3171 32.4893L76.5846 32.5896L76.9188 32.4559L76.9857 32.3556L76.9523 32.0547L76.8854 31.8876L76.7517 31.4196L76.6513 30.985L76.6848 30.7176L76.7852 30.4167L76.9523 30.2496V30.2162V29.9822L76.9188 29.7147L76.8854 29.4808L76.9523 29.0128L77.0859 28.6451L77.1863 28.2773L77.4203 27.9096L77.6209 27.8093L78.3562 27.6088L78.7573 27.5419L79.4259 27.2745L79.593 27.0405L79.4929 26.8065L79.2588 26.6728L78.7908 26.3719L78.5902 26.1714L78.4231 25.3357L78.4898 25.0014L78.6237 24.6337L78.7908 24.4665L79.0583 24.2994L79.4929 24.1657L79.7936 24.0654L80.5291 23.9651L80.8633 23.8648L81.3314 23.7645V23.798L81.465 23.8648L82.0332 24.0988L82.3676 24.1323L83.0362 24.0988H83.4039L83.9386 24.1323L84.7409 24.5334L85.2089 24.4665L85.8775 24.266L86.6798 24.0988H87.2147L88.485 24.3328L88.7858 24.3997L89.0867 24.5668H89.4878L89.8555 24.5334L90.1564 24.3997L90.2231 24.1991V23.8648L90.1564 23.564L90.056 23.2966L89.9891 22.9623L90.1564 22.4608L90.3235 22.2603L90.7246 21.9594L91.1258 21.7589L91.6605 21.458L91.9615 21.1237L92.1286 20.756L92.2622 20.4886L92.3626 19.8535L92.3291 19.586L92.162 18.9843L92.0951 18.7503L91.928 18.2155L91.8278 17.8812L91.694 17.4132L91.6273 16.9118V16.5775V16.2766V15.8087L91.694 15.5078L91.8278 15.0732L91.8945 14.8058L92.0951 14.4047L92.2957 14.1038L92.7303 13.6358L93.0647 13.3015L93.3319 13.0007L93.6329 12.5996L93.8 12.3656L94.0005 11.7973V11.3627L94.034 10.7944L94.1676 10.527L94.5355 10.1593L95.1037 9.82502L95.3712 9.72474L96.0063 9.45731L96.4742 9.29017L97.0426 9.12303L97.7445 8.85561L98.1121 8.72189L98.8811 8.4879L99.0817 8.38761L99.4159 7.91962L99.4493 7.61877L99.3492 7.31791L99.2488 7.1842L99.0817 6.98363L98.9478 6.74963L98.8811 6.64935L98.7473 5.91393L98.7807 5.64651L99.0482 4.97795L99.2153 4.71052L99.6164 4.24253L99.8839 3.94167L100.118 3.64082L100.419 3.23968L100.686 2.93883L100.82 2.73826L100.954 2.47084Z" fill="#3C8E74" stroke="#EAF3E9" stroke-width="0.98"/>
<path d="M105.998 2.53767L105.73 2.43739L105.396 2.27025L105.128 2.06968L104.761 1.90254L104.36 1.70197L104.092 1.63511L103.791 1.60168L103.49 1.66854L103.056 1.70197L102.755 1.76883L102.521 1.86911L102.287 2.03625L102.02 2.30368L101.986 2.40396L101.819 2.5711H101.585L101.485 2.60453L101.117 2.50424L100.95 2.47082L100.816 2.73824L100.682 2.93881L100.415 3.23966L100.114 3.6408L99.8802 3.94165L99.6127 4.24251L99.2116 4.7105L99.0445 4.97792L98.777 5.64649L98.7436 5.91391L98.8774 6.64933L98.9441 6.74961L99.078 6.98361L99.2451 7.18418L99.3454 7.31789L99.4456 7.61875L99.4122 7.9196L99.078 8.38759L98.8774 8.48788L98.1084 8.72187L97.7408 8.85559L97.0389 9.12301L96.4705 9.29015L96.0026 9.45729L95.3675 9.72472L95.1 9.825L94.5318 10.1593L94.1639 10.527L94.0303 10.7944L93.9968 11.3627V11.7973L93.7963 12.3655L93.6292 12.5995L93.3282 13.0007L93.0609 13.3015L92.7265 13.6358L92.292 14.1038L92.0914 14.4047L91.8908 14.8058L91.8241 15.0732L91.6903 15.5078L91.6236 15.8086V16.2766V16.5775V16.9118L91.6903 17.4132L91.8241 17.8812L91.9243 18.2155L92.0914 18.7503L92.1583 18.9843L92.3254 19.586L92.3589 19.8534L92.2585 20.4886L92.1249 20.756L91.9578 21.1237L91.6568 21.458L91.1221 21.7588L90.7209 21.9594L90.3198 22.2603L90.1527 22.4608L89.9854 22.9622L90.0523 23.2965L90.1527 23.564L90.2194 23.8648V24.1991L90.1527 24.3997L89.8518 24.5334L89.4841 24.5668H89.083L88.782 24.3997L88.4813 24.3328L87.211 24.0988H86.6761L85.8738 24.2659L85.2052 24.4665L84.7372 24.5334L83.9349 24.1322L83.4002 24.0988H83.0325L82.3639 24.1322L82.0295 24.0988L81.4613 23.8648L81.3276 23.798V23.7645L80.8596 23.8648L80.5254 23.9651L79.7899 24.0654L79.4891 24.1657L79.0546 24.2994L78.7871 24.4665L78.62 24.6337L78.4861 25.0014L78.4194 25.3356L78.5865 26.1713L78.7871 26.3719L79.2551 26.6728L79.4891 26.8065L79.5893 27.0405L79.4222 27.2745L78.7536 27.5419L78.3525 27.6088L77.6172 27.8093L77.4166 27.9096L77.1826 28.2773L77.0822 28.645L76.9486 29.0127L76.8816 29.4807L76.9151 29.7147L76.9486 29.9822V30.2161V30.2496L76.7815 30.4167L76.6811 30.7176L76.6476 30.985L76.748 31.4196L76.8816 31.8876L76.9486 32.0547L76.982 32.3556L76.9151 32.4558L76.5809 32.5895L76.3134 32.4893L76.0459 32.2887L75.7785 32.1884L75.3439 32.2887L74.876 32.623L74.5416 32.7233L74.1071 32.7567L73.7394 32.7901L73.4719 32.8904L73.3717 33.3918L73.4387 33.5255L73.8063 33.9267L73.94 34.0604V34.4949L73.6058 34.6621L73.1377 35.0967L72.9706 35.4644V35.5312L72.9372 35.9658L72.9037 36.1329L72.9372 36.5675L73.0708 36.9686L73.3048 37.4032L73.5723 37.938L73.7729 38.2389L74.0738 38.7069L74.2744 38.9743L74.5082 39.2417L74.8426 39.6094L75.1101 39.9772L75.3439 40.3449L75.4777 40.746L75.5779 40.98L75.6783 41.214L75.8119 41.6486L75.9458 42.1166L76.2465 42.618L76.4805 43.0191L76.6476 43.2865L76.9151 43.6543L77.2828 44.0888L77.9514 45.1251L78.1519 45.3925L78.4194 45.7268L78.5196 45.8605L78.7536 46.1614L78.9542 46.4956L79.0211 46.9971L78.8205 47.3313L78.2189 47.7659L77.7843 48.1336L77.1491 48.5013L76.5809 48.8022L76.1796 49.0362L75.4777 49.4707L75.0431 49.8385L74.9762 49.9722L74.7087 50.4402L74.408 51.0084L74.3076 51.7439L74.2744 52.0781L74.1405 52.5127L73.6058 53.0475L72.7701 53.4153L72.068 53.6493L71.4663 53.8833L70.9983 54.1172L70.2964 54.4515L69.8284 54.719L69.1598 55.3207L68.9257 55.5881L68.7921 55.9224L68.625 56.2567L68.6583 56.6244L68.6917 57.0589L68.7921 57.4935L69.0261 58.0618L69.2934 58.4295L69.728 59.1983L69.9285 59.7332V60.2346L69.6613 60.6692L69.3938 60.9366L69.0928 61.5049L68.9927 61.8057L69.0261 62.0731L69.1263 62.4743L69.2267 62.6748L69.5274 63.0426L69.7614 63.2766L70.196 63.544L70.5302 63.778L70.6975 63.8783L71.0986 64.1123L71.3327 64.3128L71.4663 64.6805L71.5332 64.948L71.5999 65.3157L71.7338 65.6834L72.1015 66.4522L72.302 66.7531L72.6362 67.1208L72.8368 67.3548L73.1043 67.5888L73.3048 67.6891H73.3717L73.5723 67.7893L73.7729 67.8896L74.0403 68.1571L74.2744 68.4913L74.7422 68.8925L75.0766 69.093L75.3106 69.2268L75.7452 69.4273L75.979 69.5276L76.3134 69.6613L76.5809 69.795L76.748 69.9288L77.0153 70.2296L77.0822 70.4302L77.3162 70.7645L77.6839 71.0653L77.8844 71.199L78.319 71.4999L78.4861 71.6336L78.6867 71.8676L78.8205 72.1684L78.8873 72.4024L78.7536 72.7367L78.4529 72.9707L78.1519 73.2047L78.0183 73.4387L78.0515 73.7396L78.4194 74.3413L78.8205 74.7758L79.1547 75.0767L79.5559 75.6115L80.2914 76.4138L80.6256 76.7815L81.0602 77.2829L81.5617 77.8178L81.6284 77.9515L81.9293 78.4195L82.2635 78.8875L82.4308 79.1549L82.8652 79.6229L83.2998 80.0575L83.5673 80.2915L83.9684 80.6257L84.3695 80.9266L84.5366 81.0603L84.8041 81.3277L85.0047 81.6286L85.2721 82.0632L85.4392 82.3306L85.7402 82.6649L86.1078 82.9657L86.4086 83.1997L86.8099 83.5674L87.1776 83.8348L87.5452 84.1023L87.8127 84.236L88.2138 84.4365L88.4144 84.5703L88.6819 84.8043L88.8155 84.938L88.9491 85.2388V85.4728L88.6149 85.8405L88.3475 86.0745L87.9798 86.4088L87.7792 86.6762L87.6456 86.9102L87.4783 87.3448L87.4116 87.6456L87.3781 88.0468V88.2808L87.5452 88.6819L87.8794 88.8491L88.1469 88.7488L88.5146 88.4814L89.1832 87.7794L89.4841 87.4451L89.6847 87.3114L90.0523 87.0774L90.4535 86.9437L90.7879 86.8768L90.9884 86.9102L91.2222 86.9771L91.7907 87.1442L92.1249 87.2779L92.6264 87.4785L92.9271 87.6456L93.4621 87.9799L93.6961 88.1805L94.3979 88.6485L94.8325 88.9828L95.0331 89.1165L95.2336 89.2502L95.3675 89.3839L95.6013 89.6513L95.9357 90.019L96.0694 90.2196L96.2365 90.5873L96.3703 91.0219L96.4705 91.2893L96.6043 91.6236L96.8049 92.0916L96.8383 92.1919L97.0054 92.4593L97.1056 92.7936L97.2395 93.1279L97.3731 93.3953L97.674 93.997L97.8746 94.3313L98.2757 94.8661L98.7103 95.3675L99.078 95.7687L99.546 96.2701L99.8467 96.6044L100.315 97.1058L100.515 97.3064L100.749 97.5738L100.95 97.7744L101.117 97.9749L101.251 98.5766L101.15 99.0112L100.816 99.6798L100.682 99.8803L100.281 100.348L100.248 100.482L100.214 100.816L100.315 101.117L100.382 101.251L100.616 101.518L100.816 101.619L101.184 101.853L101.351 102.254V102.621L101.184 103.056L101.017 103.29L100.916 103.658V103.925V104.159L101.017 104.36L101.184 104.56L101.351 104.627L101.552 104.727L101.752 104.828L101.886 105.129V105.329L101.819 105.496V105.797L101.986 105.897L102.488 105.864L102.989 105.764L103.156 105.73L103.825 105.764L104.192 105.897L104.393 105.998L104.861 106.265L105.262 106.432L106.031 106.633L106.733 106.8L107.134 106.867L107.736 107.001L108.104 107.067L108.571 107.101H108.973L109.173 107.235L109.474 107.535L109.574 107.602L109.909 107.736L110.443 107.703H110.911L111.48 107.736L112.115 107.903L112.449 108.237L112.65 108.471L112.817 108.739L112.951 109.006L113.151 109.274L113.352 109.541L113.653 109.842L114.121 110.042L114.555 110.109L114.856 110.276L115.391 110.678L115.658 110.945L116.06 111.413L116.394 111.814L116.594 112.182L116.895 112.75L117.129 112.984L117.43 113.218L117.631 113.385L117.865 113.653L118.065 114.054L118.099 114.288L118.165 114.622L118.299 115.124L118.333 115.257L118.433 115.592L118.5 115.892L118.633 116.327L118.834 116.628L119.001 116.962L119.135 117.196L119.302 117.497L119.569 117.731L119.77 117.865L119.904 117.965L120.104 118.132L120.773 118.5L121.207 118.667L121.441 118.801L121.909 119.168L122.043 119.402L122.244 119.703L122.444 119.837L122.745 119.803L122.979 119.703L123.213 119.302L123.246 119.001L123.28 118.6L123.313 118.299L123.38 117.898L123.547 117.631L123.714 117.43L123.915 117.296L124.183 116.862L124.417 115.959L124.45 115.725L124.383 115.157L124.35 114.99V114.589V114.422V114.288L124.417 114.188L124.751 114.087L124.951 114.054L125.453 113.987L125.988 113.887L126.589 113.72L126.924 113.486L127.391 113.151L127.592 112.917L128.027 112.55L128.227 112.282L128.562 111.914L128.695 111.714L128.896 111.346L129.063 111.045L129.33 110.678L129.531 110.41L129.731 110.176L129.999 110.009L130.367 109.842L130.768 109.808L131.236 109.875L131.57 110.009L131.904 110.109L132.473 110.21L132.941 110.143L133.308 109.976L133.509 109.742L133.877 109.708L134.077 109.608L134.345 109.541L134.579 109.508L134.846 109.474H135.08L135.314 109.508L135.548 109.173L135.514 108.839L135.414 108.471L135.281 108.104L135.247 108.037L135.08 107.636L135.013 107.435L134.846 107.067L134.779 106.7L134.746 106.432L134.579 105.998L134.211 105.663L133.943 105.53L133.676 105.396L133.141 104.961L133.108 104.761L133.074 104.493V104.259V104.092V103.892L133.141 103.725L133.509 103.524L133.977 103.357L134.746 103.257L135.214 103.424L135.849 103.658L136.25 103.825L136.852 104.293L137.219 104.627L137.42 104.794L137.721 104.961L137.821 105.028L138.323 105.296L139.359 106.432L139.793 107.001L140.128 107.301L140.562 107.703L140.83 107.97L141.164 108.204L141.498 108.438L141.732 108.639L142.033 108.906L142.735 109.441L142.969 109.675L143.504 110.109L144.106 110.41L144.574 110.678L145.209 110.878L145.844 111.045L146.546 111.279L146.847 111.547L146.981 111.981L147.081 112.416L147.348 112.917L147.549 113.218L148.184 113.987L148.652 114.355L149.12 114.823L149.421 115.09L149.755 115.391L149.955 115.625L150.156 115.859L150.423 116.16L150.557 116.294L150.825 116.528L151.025 116.661L151.293 116.828L151.593 116.929H151.894L152.329 116.895L152.596 116.962L152.797 116.996L153.131 117.096L153.699 117.497L153.967 117.564L154.401 117.664H154.569L154.803 117.731L154.97 117.764L156.073 117.865L156.541 117.932L157.109 118.099L157.31 118.166L157.778 118.333L157.878 118.366L158.145 118.5H158.279L158.48 118.466L158.781 118.4L158.881 118.299L159.115 118.232L159.483 118.299L159.783 118.4L159.95 118.5L160.251 118.634L160.352 118.7L160.686 118.801L160.853 118.867L161.154 118.968L161.254 119.001L161.421 119.068L161.555 119.135H161.756L162.023 119.035L162.357 118.901L162.491 118.867H162.725L162.926 118.934L163.227 119.068L163.527 119.269L163.795 119.536L164.062 119.77L164.129 119.87L164.263 120.037L164.53 120.405L164.664 120.505L164.931 120.706L165.299 120.773L165.633 120.84H165.901H166.168H166.569H166.67L166.87 120.873H167.204L167.606 120.907L167.873 120.94L168.207 121.007L168.374 121.04L168.742 121.074L169.01 121.007L169.244 120.94L169.544 120.84L169.778 120.806H169.946H170.246L170.413 120.907L170.447 120.973V121.107L170.48 121.241L170.447 121.408V121.609L170.48 121.876L170.848 121.976L171.316 122.043L171.985 122.01L172.519 121.943L173.054 121.876L173.756 122.01L174.091 122.21L174.391 122.411L174.659 122.645L175.194 122.779L175.528 122.745L175.996 122.645L176.564 122.611L177.032 122.812L177.3 122.912L177.701 122.979L178.336 123.013L179.874 123.18L180.743 123.38L181.545 123.547L182.514 123.748L183.183 123.848L183.751 123.982L184.186 124.082L185.022 124.316L185.523 124.483L185.958 124.751L186.559 125.085L187.061 125.386L187.495 125.587L188.03 125.72H189.066L189.735 125.687L190.404 125.72L191.072 125.687L191.44 125.72L191.874 125.754L192.443 125.887L192.81 126.055L193.445 126.322L194.047 126.422L194.382 126.389L195.05 126.222L195.518 126.055L195.919 125.921L196.889 126.021L197.29 126.289L198.159 126.89L198.894 127.124L199.563 127.358L200.165 127.626L200.633 127.826L201.167 128.094L201.602 128.328L201.936 128.796L202.003 129.13L202.07 129.564L202.204 129.932L202.404 130.2L202.571 130.668L202.672 131.069L202.739 131.436L202.772 131.737L202.906 132.172L203.039 132.64L203.24 132.874L203.641 133.141L204.243 133.208L205.012 133.074L205.68 132.974L206.148 132.874L206.85 132.74L207.352 132.573L207.686 132.339L207.953 132.172L208.254 131.938L208.622 131.67L208.689 131.57L208.823 131.37L209.023 131.102L209.19 130.868L209.491 130.701L210.193 130.434L210.427 130.367L210.761 130.4L211.062 130.634L211.229 130.902L211.263 131.336L211.296 131.737L211.363 132.272L211.497 132.874L211.664 133.342L211.864 133.643L212.199 133.776L212.633 133.977L213.402 134.044L214.238 134.01L214.606 133.977L215.174 133.877L215.675 133.743L216.177 133.542L216.411 133.375L216.578 133.074L216.712 132.84L216.812 132.606L216.879 132.339V132.172L216.946 131.771L217.012 131.503L217.146 131.269L217.28 131.102L217.38 130.968L217.514 130.835L217.581 130.601L217.647 130.4L217.714 130.066L217.781 129.798L217.815 129.531L217.948 129.297L218.049 129.163L218.249 129.063L218.617 129.03L219.018 128.963L219.553 128.829L219.82 128.729L220.589 128.562L221.024 128.361L221.659 128.094L222.227 127.793L222.628 127.459L223.096 127.057L223.832 126.623L224.132 126.589L225.002 126.79L225.67 127.057L226.272 127.392L226.472 127.559L226.907 128.027L227.241 128.461L227.509 128.662L227.81 128.963L228.144 129.197L228.679 129.564L229.08 129.798L229.414 130.032L230.417 130.968L230.551 131.303L230.584 131.637L230.551 132.005L230.618 132.406L230.918 133.008L231.086 133.242L231.42 133.542L231.721 133.877L231.921 134.244L232.055 134.746L232.155 135.414V135.849L232.189 136.25L232.222 137.186L232.891 137.955L234.495 137.454L235.465 137.22L236.401 137.086L237.069 136.986L237.537 137.052L238.039 137.587L238.707 138.423L239.409 139.158L240.512 140.094L241.214 140.596L241.716 140.897L242.017 141.064L242.685 141.164L243.12 141.131L244.089 141.03L244.524 140.963L244.891 140.93L245.493 140.863L246.028 140.796L247.599 140.729L248.301 140.663L248.769 140.696H249.304L249.738 140.629L252.112 140.495L252.613 140.462L253.382 140.562L253.817 140.763L254.385 140.997L254.886 141.264L255.187 141.431L255.889 141.665L256.658 142.133L257.36 142.501L258.162 142.835L258.831 143.17L260.369 143.738L260.937 143.872L261.94 144.139L262.575 144.239H263.043H263.578L264.514 144.072L265.182 143.905L265.684 143.671L266.285 143.103L266.352 142.568L266.419 142.267L266.486 141.833L266.62 141.465L266.887 141.164L267.388 140.696L267.689 140.429L268.391 140.094L268.993 139.894L269.528 139.727L270.13 139.426L270.665 139.058L271.099 138.757L271.433 138.456L271.768 138.122L272.336 137.554L272.57 137.353L272.67 137.253L272.971 137.019L273.272 136.651L273.773 136.083L274.041 135.816L274.241 135.582L274.375 135.481L274.709 135.18L274.91 135.047H275.177H275.311V135.08L275.445 135.214L275.712 135.648L275.913 135.949L276.046 136.183L276.314 136.718L276.514 137.153L276.648 137.654L276.715 137.888L276.815 138.356L276.949 138.624L277.083 138.891L277.417 139.192L277.751 139.459L277.952 139.86L277.985 140.295V140.495V140.729V141.03V141.231L278.052 141.431L278.353 141.766L278.554 141.966L278.687 142.401L278.587 142.702L278.453 142.869L278.119 143.136L277.684 143.437L277.417 143.638L276.916 143.939L276.514 144.273L276.214 144.54L275.979 144.808L276.013 145.175L276.347 145.376L276.682 145.409L277.216 145.376L277.751 145.242L278.186 145.276L278.52 145.61L278.654 145.844L278.955 146.412L279.088 146.613L279.289 146.88L279.389 146.947L279.757 147.248L279.957 147.348L280.359 147.449L280.827 147.549L281.127 147.582H281.495L281.729 147.515L282.164 147.449L282.465 147.482L282.632 147.549L282.866 147.917L283.033 148.351L283.1 148.719L283.133 149.153V149.855L283.1 150.223L283.066 150.591L282.966 150.992L282.832 151.493L282.665 151.928L282.531 152.329L282.331 153.165L282.264 153.733L282.231 154V154.502V154.87L282.13 155.237L282.03 155.538L281.896 156.106L281.796 156.508L281.729 156.808L281.829 157.076L282.097 157.544L282.331 157.811L282.598 158.079L282.966 158.346L283.367 158.58L283.668 158.747L284.37 158.914L284.871 158.981L285.306 158.914L285.908 158.814L286.342 158.747L287.011 158.647L287.579 158.58L288.281 158.48L288.716 158.38L289.384 158.279L289.919 158.246H290.721L290.989 158.212H291.39L291.657 158.179L291.925 158.146H292.292L292.326 158.045L292.359 157.945L292.526 157.744L292.827 157.477L293.195 157.243L293.362 157.143L293.496 157.042L293.797 156.875L294.265 156.608L294.666 156.441L294.967 156.24L295.502 156.04L295.969 155.872L296.504 155.772L297.608 155.605L298.243 155.505L298.978 155.438L299.546 155.404L300.048 155.304L300.482 155.104L301.184 154.502L301.686 154.101L302.154 153.566L302.454 153.031L302.722 152.53L302.856 152.028L302.822 151.828L302.588 151.761L301.318 151.727L300.917 151.694L300.549 151.594L300.315 151.46L300.181 150.892L300.282 150.758L300.415 150.658L300.883 150.39L301.151 150.223L301.418 150.056L301.819 149.822L302.053 149.688L302.354 149.521L302.722 149.354L303.357 149.053L303.625 148.919L303.825 148.853L304.193 148.786L304.393 148.819L304.627 148.853L304.962 148.886L305.229 148.919L305.63 148.886L305.931 148.786L306.366 148.685L306.666 148.652L306.934 148.351L307.034 148.151L307.201 147.816L307.302 147.549L307.435 147.315L307.536 146.947L307.669 146.579L307.837 146.145L307.669 145.911L307.569 145.744L307.335 145.142L307.201 144.674V144.407L307.268 144.139L307.402 143.905L307.469 143.671L307.569 143.471L307.837 143.069L308.071 142.735L308.472 142.401L309.04 141.933L309.408 141.599L309.876 141.197L310.544 140.596L310.845 140.328L311.046 139.994L311.146 139.626L311.246 138.924L311.179 138.055L310.711 137.153L310.544 136.919L310.41 136.551L310.377 136.217L310.511 136.016L310.711 135.849L310.979 135.715L311.179 135.615L311.447 135.414L311.647 135.214L311.848 135.013L311.915 134.746L312.115 134.211L312.55 134.044L312.918 134.01H313.218L313.921 133.977L314.455 133.944L314.756 133.877L314.89 133.643L314.856 133.476L314.689 133.208L314.522 132.941L314.422 132.774L314.355 132.506L314.322 132.272L314.388 131.971L314.489 131.737L314.923 131.303L315.191 131.136L315.558 130.968L315.826 130.935L316.361 130.801L316.996 130.634L317.364 130.567L318.132 130.801L318.834 131.136L319.135 131.202H319.469L319.737 131.136L320.907 130.668L321.208 130.601L321.575 130.567L321.943 130.634H322.211L322.378 130.367V130.166L322.445 129.798L322.545 129.431L322.645 128.996L322.679 128.729L322.745 128.328L322.846 128.027L323.013 127.592L323.213 127.225L323.514 127.057L323.815 126.857L324.049 126.79L324.216 126.757L324.45 126.723H324.718L325.353 126.89L325.654 126.957L325.921 127.024L326.255 127.091L326.59 127.124L326.824 126.991L327.225 126.757L327.459 126.589L327.726 126.355L327.96 126.222L328.261 125.988L328.529 125.687L328.629 125.386L328.696 125.085L328.796 124.918L328.863 124.684L328.963 124.483L328.996 124.249L328.863 124.015L328.462 123.481L328.295 123.313L328.194 123.18L328.161 122.946L328.228 122.779L328.328 122.645L328.595 122.511L328.829 122.478L329.498 122.311L329.899 122.143L329.999 121.776L329.899 121.675L329.632 121.609L329.431 121.542L329.23 121.508H329.03L328.696 121.408L328.228 121.375L327.86 121.341L327.358 121.308L326.89 121.274L326.456 121.241L326.021 121.207L325.487 121.274L325.386 121.341L325.319 121.408L325.186 121.508L324.985 121.575L324.651 121.642L324.35 121.709L323.715 121.609L323.046 121.575L322.946 121.508L322.812 121.308L322.612 121.207L322.344 121.141H322.044L321.809 121.308L321.709 121.475L321.509 121.642L320.873 121.776L320.339 121.843L319.971 121.876L318.533 121.776L317.932 121.642L317.698 121.542L317.397 121.375L317.196 121.241L317.063 121.074L316.795 120.873L316.461 120.706L315.893 120.405L315.224 120.071L314.723 119.636L314.288 119.102L313.921 118.767L313.252 118.433L312.784 118.232L312.483 118.032L312.383 117.597L312.65 117.163L313.152 116.695L313.319 116.193L313.118 115.892L313.051 115.224L313.118 114.923L313.586 114.355L314.021 114.121L314.756 113.753L315.458 113.352L315.625 113.051L315.458 112.583L315.258 112.115L315.09 111.547L315.023 110.945L315.124 110.577L315.458 110.377L315.893 110.41L316.294 110.51L316.762 110.544L317.33 110.51L317.664 110.243L317.832 109.942L318.066 109.608L318.467 109.106L318.701 108.772L318.868 108.137L318.767 107.87L318.634 107.703L318.467 107.569L318.099 107.402L317.564 107.168L317.129 106.833L316.661 106.365L316.394 105.964L316.227 105.496L316.026 104.727L316.06 103.992L316.16 103.39L316.227 102.855L316.16 102.521L316.127 102.187L316.093 101.752L316.06 101.217L316.026 100.85L316.093 100.415L315.759 100.348L315.391 100.382L314.689 100.616L313.854 100.749L312.683 100.716L312.015 100.482L311.012 100.148L310.511 99.9138L310.11 99.7132L309.441 99.0112L309.107 98.6101L308.706 97.9081L308.438 97.2061L308.204 96.7715L307.937 96.2367L307.736 95.869L307.469 95.5013L307.201 95.0333L306.9 94.6321L306.533 94.7993L306.031 94.8995L305.53 94.8661H305.229L304.794 94.8995L304.393 94.9664L303.959 95.0333L303.591 95.1335L303.19 95.167L302.923 95.2004L302.689 95.2338L302.321 95.2673L301.953 95.2338L301.652 95.2004L301.318 95.167L301.084 95.1335L300.75 95.0667L300.482 94.9664L300.215 94.8661L299.881 94.7658L299.647 94.6656L299.48 94.6321L299.212 94.5318L298.978 94.4316L298.811 94.3981L298.644 94.3647H298.443L298.075 94.2978L297.808 94.2644H297.674L297.374 94.1976L297.106 94.0973L296.972 93.9636L296.805 93.8967L296.571 93.763H296.371L296.07 93.6961L295.903 93.6293L295.736 93.529L295.602 93.4287L295.502 93.3953L295.268 93.295L294.933 93.1279L294.699 92.9273L294.465 92.6599L294.331 92.4593L294.265 92.4259L293.997 92.2253L293.83 92.2922L293.63 92.2587L293.529 92.125V91.9244L293.496 91.7239L293.462 91.6236L293.362 91.4565L293.195 91.189V91.0219L293.229 90.8882L292.994 90.7879L292.827 90.6876L292.66 90.5873L292.526 90.5205L292.426 90.3533L292.393 90.253L292.359 90.0525L292.46 89.8519L292.593 89.7516L292.827 89.6513V89.4842L292.794 89.4508L292.426 89.4173H292.092L292.025 89.1833L292.092 88.9159L292.192 88.8156L292.259 88.6819L292.292 88.4145L292.359 88.3142L292.66 88.3476L292.928 88.5148L293.028 88.4814V88.3811L292.961 88.1805V88.0134L293.128 87.9465L293.362 87.8462H293.563L293.596 87.7459L293.462 87.5788L293.362 87.4785L293.229 87.4117L293.061 87.2779L292.894 87.1442L292.593 87.0105L292.159 86.8768L291.925 86.8099L291.59 86.7431H291.357L291.022 86.8768H290.721L290.487 86.9771L290.253 87.1777L290.019 87.2111L289.852 87.2445L289.652 87.3114L289.251 87.5119L289.117 87.5788L288.983 87.6456L288.883 87.7459L288.749 87.9131L288.615 88.0468L288.482 88.2139L288.314 88.3476L288.114 88.5148L287.746 88.6819L287.546 88.7488L287.245 88.9159L286.944 89.0496L286.677 89.1833L286.476 89.2836L286.376 89.3505L286.041 89.551L285.974 89.6513L285.841 89.7516L285.74 89.8853L285.573 89.9522L285.306 90.019H285.072L284.47 90.0859L284.169 90.1528L283.802 90.253L283.401 90.1193L283.233 90.019H283.133L282.832 90.1528L282.531 90.253L282.297 90.3533L282.197 90.3868L281.93 90.487L281.696 90.5205L281.361 90.487L281.094 90.4536H280.894L280.693 90.4202L280.425 90.3868L280.225 90.2865L279.991 90.0859V89.8185L280.191 89.6513L280.292 89.5845H280.225L280.125 89.6179H279.991L279.69 89.6513L279.523 89.7182L279.255 89.8853L278.921 90.0859H278.754L278.219 90.1528L278.119 90.1862L277.484 90.3199L277.317 90.1528L277.15 90.0859L276.982 90.1528L276.882 90.0859L276.715 89.9856L276.481 90.1193L276.448 90.2196V90.4202L276.18 90.5873L275.879 90.7879L275.645 90.8882L275.344 90.955L275.044 91.0219L274.642 91.0887H274.108L273.974 91.1556L273.74 91.4899L273.539 91.657L273.205 91.7573L272.971 91.7907H272.57H272.202L271.868 91.9244L271.6 92.125L271.4 92.2922L271.199 92.2587L270.932 92.2253H270.631L270.464 92.2922L270.163 92.3256L269.896 92.5262L269.695 92.7602L269.26 93.0944L269.06 93.1613L268.625 93.3953L268.425 93.4956L268.124 93.6627L267.79 93.9301L267.556 94.231L267.255 94.3313L266.787 94.1976L266.653 94.0973L266.553 94.0304H266.219L265.985 94.1641L265.75 94.4316L265.516 94.5318H265.383H265.149L265.082 94.4984L264.948 94.3981H264.815L264.748 94.465L264.714 94.6656L264.614 94.7658L264.28 94.8995L263.912 94.9664H263.812L263.511 94.8995L263.31 94.7658L263.143 94.6656L262.976 94.6321L262.876 94.699L262.775 94.9998L262.709 95.0667L262.475 95.1335L262.307 95.1001L262.107 94.9998L262.007 94.933L261.873 94.8327L261.706 94.7658L261.539 94.6321L261.405 94.5987H261.07L260.837 94.6321L260.402 94.7658L260.101 94.8661L259.733 94.9664L259.433 95.1001H259.165L258.898 95.1335L258.597 95.2004L258.497 95.167L258.296 95.0333L258.062 94.9998L257.761 95.0333L257.494 95.2338L257.159 95.3341H256.925L256.658 95.4344L256.324 95.7353L255.956 96.0027H255.756L255.455 96.0361L255.254 96.2032L254.987 96.2367H254.886H254.853L254.652 96.4038L254.418 96.6712L254.218 96.805L253.85 96.9052L253.349 96.8718L253.014 96.805L252.713 96.7047H252.413L251.978 96.7715H251.778L251.376 96.805L251.142 96.8384L250.875 96.805L250.708 96.6712L250.641 96.6044L250.474 96.5041L250.307 96.4372L250.073 96.3704H249.805L249.438 96.4038L249.27 96.4372L249.103 96.5041L248.836 96.6378L248.568 96.8384L248.368 96.9052L247.933 97.0055L247.599 97.0389L247.332 97.1058L246.997 97.2395L246.797 97.3732L246.496 97.4735L246.229 97.5404L245.995 97.5069L245.593 97.6072L245.426 97.6407H245.292L245.226 97.5404L245.092 97.3064L245.025 97.2729H244.891L244.824 97.3064L244.691 97.4735L244.624 97.6072L244.59 97.7075L244.524 97.9749V98.2424L244.457 98.4095L244.256 98.5766L244.022 98.6101L243.822 98.5432L243.621 98.4095L243.487 98.3426H243.354L243.32 98.3761L243.253 98.4764V98.5432L243.387 98.6435L243.454 98.7772V98.8775L243.32 99.1115L243.253 99.1449L243.12 99.1783H242.886L242.785 99.1115L242.685 99.0446L242.518 99.0112H242.184L241.916 99.0446L241.682 99.1783L241.448 99.1449L241.381 99.2118L241.348 99.3789L241.181 99.5126L240.98 99.4792L240.813 99.4458L240.746 99.5126L240.646 99.7466L240.546 99.9806L240.345 100.181L240.111 100.281L239.71 100.415L239.242 100.515L238.774 100.449H238.573L238.273 100.582L238.139 100.616L237.972 100.649L237.905 100.716L237.738 100.95L237.671 101.017L237.537 101.117L237.404 101.184L237.169 101.284H237.036L236.802 101.251L236.601 101.418L236.434 101.552L236.334 101.652L236.033 101.685L235.799 101.652H235.699L235.364 101.585L235.064 101.552L234.729 101.485L234.562 101.451H234.395H234.361L234.228 101.485L234.094 101.585L233.86 101.652L233.66 101.585L233.626 101.518L233.559 101.284L233.392 100.95L233.225 100.816L233.058 100.85L232.924 100.917L232.757 100.95L232.59 101.017H232.255L231.988 100.95H231.888L231.687 100.816L231.32 100.683L230.852 100.549L230.484 100.415L230.149 100.348L229.581 100.248L229.18 100.215L228.913 100.248L228.478 100.348L228.244 100.415L228.01 100.515L227.743 100.582L227.475 100.616L227.141 100.649L227.041 100.683L226.74 100.716H226.506L226.138 100.649L225.537 100.482L225.236 100.382L224.801 100.248L224.5 100.148L223.965 100.014L223.497 99.9138L222.829 99.8135L222.361 99.6463L221.926 99.4458L221.592 99.2786L221.124 99.0112L220.756 98.8441L220.255 98.6435L219.887 98.5098L219.252 98.2758L218.884 98.1755L218.55 98.1086L218.283 98.0084L217.948 97.9415L217.681 97.8746L217.347 97.8078L217.113 97.7744L216.812 97.7409L216.578 97.7075L216.277 97.7409L215.909 97.7744L215.709 97.8412L215.341 97.9081L215.107 97.9415H214.739L214.371 97.9081L214.204 97.8746L214.004 97.8412L213.569 97.7744L213.235 97.7075H213.135L212.8 97.6741L212.5 97.6072L211.998 97.4735L211.764 97.4067L211.563 97.3732L211.33 97.1727L211.062 97.1392L210.494 97.0055L210.226 96.9721L209.725 96.8718L209.257 96.6378L209.157 96.571L208.722 96.5041H208.354L207.886 96.4372L207.485 96.337L207.318 96.2701L206.85 96.1698L206.549 96.0695L206.215 95.9358L205.747 95.8355L205.48 95.869L205.312 95.9358L205.078 96.0695L204.744 96.2032L204.577 96.2701L204.41 96.337H204.109H203.741L203.574 96.3035L202.939 96.1698L202.505 96.0695L202.137 95.9358L201.836 95.869L201.368 95.8355L200.967 95.7687L200.666 95.6684L200.332 95.5013L200.131 95.3007L199.897 95.0333L199.697 94.8327L199.496 94.6656L199.429 94.6321L199.295 94.4984L199.162 94.2978L199.095 94.1641L198.928 93.997L198.727 93.8967L198.627 93.8633L198.46 93.7964L198.192 93.6293L198.092 93.529L197.992 93.1279H197.39L197.089 93.1613L197.156 93.3953V93.4621L196.822 93.4956L196.621 93.5624V93.4956V93.3619L196.655 93.1613H196.254L195.986 93.1947L195.886 93.4621L195.852 93.529L195.819 93.6961L195.785 93.7964L195.719 93.8299L195.585 93.8967L195.518 93.9301L195.451 93.9636L195.317 94.0304H195.184L195.117 94.0638H194.983L194.849 94.0973L194.749 94.1307H194.549L194.382 94.1976L194.281 94.2644L194.181 94.3313H193.98H193.914H193.78L193.646 94.2644L193.345 94.1641L193.011 93.997L192.61 93.8967L192.242 93.7964L191.941 93.6627L191.707 93.5959L191.44 93.4621L191.105 93.3284L190.771 93.1947L190.604 93.1613L190.236 93.0944L189.835 93.0276L189.367 92.9607L188.899 92.8604L188.398 92.6933L188.064 92.593L187.729 92.3924L187.495 92.1584L187.127 91.891L186.86 91.7907L186.593 91.7239H186.192L185.958 91.7907L185.657 91.8576L185.289 91.8242L184.955 91.6236L184.453 91.423L184.153 91.2893L183.952 91.1556L183.718 91.0553L183.484 90.8882L183.25 90.7879L182.916 90.5873L182.682 90.4202L182.514 90.3199L182.147 90.1862L181.879 90.0859L181.712 90.019H181.411L181.044 89.9856L180.642 89.9522L180.208 89.6848L180.041 89.551L179.673 89.1499L179.372 88.8156L179.272 88.6485L179.105 88.3811L178.871 88.2474L178.67 88.1471L178.47 88.0468L178.303 88.0134L178.135 87.9799L177.734 87.8796L177.601 87.8462L177.467 87.8128L176.999 87.7125L176.464 87.5454L176.03 87.3114L175.628 87.1108L175.327 86.9437L174.993 86.6762L174.726 86.4422L174.325 86.1748L174.024 85.9742L173.79 85.7737L173.656 85.5731L173.422 85.3391L173.255 85.172L173.021 84.9714L172.887 84.938L172.62 84.9045L172.486 84.8377L172.352 84.704L172.185 84.4365L172.018 84.2025L171.884 84.002L171.65 83.6677L171.483 83.534L171.316 83.3668L171.049 83.2331L170.915 83.0994L170.714 82.8654L170.48 82.5311L170.246 82.3306L170.079 82.1634L169.845 81.9294L169.645 81.7289L169.444 81.5617L169.244 81.4949L169.143 81.5283L169.01 81.5952L168.976 81.6286L168.842 81.7289L168.742 81.8292L168.608 81.9294H168.508L168.307 81.9629L168.04 81.896L167.873 81.8292L167.572 81.7289L167.338 81.5952L167.171 81.4949L166.77 81.428L166.402 81.3946L166.168 81.3612L165.901 81.2943L165.5 81.194L165.299 81.1272L164.998 81.0269L164.798 80.96L164.396 80.7929L164.096 80.6592L163.661 80.4252L163.494 80.3249L163.227 80.2246L163.059 80.1578L162.524 79.9572L162.324 79.8569L161.99 79.6898L161.956 79.6563L161.789 79.5895L161.655 79.4892L161.455 79.2886L161.254 79.0881L161.054 78.8541L160.719 78.5532L160.652 78.5198L160.485 78.3526L160.352 78.2858L160.218 78.1186L160.118 77.9515L159.95 77.7844L159.917 77.6506L159.817 77.5504L159.75 77.4166L159.65 77.2161L159.583 77.1158L159.549 77.0489L159.449 76.9152L159.382 76.7815L159.249 76.6144L159.182 76.4807L158.981 76.2801L158.847 76.1464L158.68 75.9792L158.513 75.8121L158.48 75.7787L158.279 75.645L158.112 75.5112L157.945 75.3775L157.711 75.2104L157.41 74.9764L157.343 74.9095L157.109 74.6087L156.942 74.4081L156.741 74.2075L156.574 74.0404L156.441 73.8733L156.34 73.773L156.14 73.6393L156.039 73.5056L155.805 73.305L155.538 73.2047L155.338 73.1044L155.07 72.9707L154.869 72.8704L154.602 72.7033L154.368 72.5696L154.167 72.4024L153.967 72.2687L153.766 72.135L153.499 71.9344L153.232 71.7339L152.964 71.433L152.797 71.2659L152.663 71.0987L152.463 70.965L152.262 70.8982L152.061 70.7979L151.894 70.6976L151.527 70.4302L151.293 70.263L151.126 70.0959L150.858 69.8953L150.624 69.6947L150.591 69.6279L150.49 69.4942L150.39 69.3605L150.223 69.1599L150.156 69.0262L150.089 68.8925L150.022 68.7253L149.855 68.5916H149.755L149.488 68.6585L149.187 68.7588L148.986 68.8256L148.685 68.859L148.318 68.8925L148.15 68.9259L148.017 68.9928L147.883 69.0596L147.214 68.8256L146.813 68.6919L146.613 68.6585L146.345 68.5916L145.844 68.4913H145.576L145.209 68.4579L144.741 68.3911L144.44 68.3576L144.306 68.3242L143.704 68.0568L143.404 67.7893L143.203 67.5219V67.3214L143.069 66.9871L142.969 66.8199L142.835 66.6194L142.802 66.4857L142.668 66.2851L142.568 66.1179L142.434 65.9174L142.367 65.7502L142.234 65.5497L142.133 65.3825L142 65.2488L141.966 65.182L141.799 65.0148L141.766 64.9145L141.732 64.8477L141.565 64.48L141.431 64.2794L141.298 64.1123L141.097 63.8114L140.863 63.4771L140.663 63.1428L140.562 62.9088L140.328 62.608L140.128 62.374L139.86 62.0063L139.726 61.7723L139.593 61.5717L139.392 61.204L139.259 60.9032L139.125 60.6692L138.991 60.3683L138.791 59.9337L138.557 59.5326L138.289 59.1649L138.155 59.0312L137.921 58.9309H137.721L137.587 58.8975L137.286 58.8306L136.885 58.5298L136.584 58.2289L136.183 57.8278L135.782 57.5269L135.548 57.3932L135.414 57.2929L134.98 57.1592L134.612 56.9921L134.445 56.8584L134.244 56.6578L134.111 56.5909L133.676 56.4572L133.074 56.1229L132.774 55.9558L132.573 55.8221L132.205 55.4878L132.038 55.2538L131.904 54.953L131.57 54.5852L131.269 54.1507L131.102 53.8833L130.968 53.7161L130.734 53.2815L130.434 53.1478L130.133 53.0475L129.731 52.6798L129.497 52.2787L129.263 51.8776L128.996 51.6101L128.762 51.4764L128.261 51.3761L127.793 51.3427H127.559H127.325L127.191 51.3761L126.957 51.2759L126.723 51.2424L126.522 51.1756L126.422 51.1087L126.288 51.0084L126.121 50.8747L126.054 50.7744L125.854 50.7076L125.62 50.6742L125.252 50.741L125.085 50.8079L124.851 50.9416L124.684 51.0419L124.65 51.0753H124.483H124.45L124.283 51.0419L124.116 51.0084L123.982 50.975L123.882 50.8747L123.748 50.6742L123.414 50.3399L123.213 50.1727L123.046 50.039L122.979 49.9387L122.879 49.805L122.778 49.7047L122.645 49.6045L122.511 49.5376H122.377H122.311L122.077 49.6045L121.876 49.6713L121.809 49.7047L121.508 49.8385L121.374 49.8719L121.241 49.9053L120.906 49.7047L120.706 49.5042L120.472 49.3036L120.305 49.103L120.138 48.8356L119.87 48.4679L119.837 48.167L119.77 47.8662L119.67 47.5653L119.569 47.2645L119.502 47.0973L119.469 46.8968L119.369 46.5625L119.335 46.3619V46.0611L119.202 45.6934L119.001 45.5262L118.567 45.1585L118.399 44.8911L118.165 44.4231L117.998 43.9885L117.898 43.7211L117.697 43.2197L117.564 42.9188L117.43 42.6848L117.263 42.2168L117.162 41.8826L117.129 41.5149V41.3143L117.096 40.98L116.862 40.7126L116.728 40.4786L116.594 40.1443L116.427 39.7432L116.227 39.2417L116.126 38.8406L116.093 38.5397L115.926 37.938L115.859 37.6706L115.825 37.3029L115.725 36.9018L115.558 36.3669L115.525 36.2332L115.458 35.8321L115.391 35.4978L115.19 34.9964L115.056 34.7958L114.99 34.6287L114.923 34.4281L114.889 34.3278L115.023 33.9935L115.123 33.793L115.257 33.6258L115.458 33.3918L115.558 33.1913L115.625 32.9907L115.725 32.7901L115.859 32.6564L116.026 32.4893L116.126 32.2887L116.227 32.0547L116.293 31.9544L116.26 31.8207L116.026 31.687H115.926L115.859 31.6536L115.658 31.687L115.458 31.7204L115.224 31.8207L114.99 31.8876L114.722 31.7873L114.555 31.7538L114.154 31.7204L113.82 31.7538L113.552 31.7873L113.352 31.8541L112.917 32.0213L112.783 32.0881L112.449 32.2218L112.148 32.2887L111.848 32.3556L111.413 32.389L111.079 32.3221L110.677 32.2553L110.41 32.155L110.143 31.7873L109.942 31.5533L109.775 31.3861L109.608 31.219L109.273 30.517L109.207 30.3499L109.039 30.049L108.906 29.6813L108.805 29.347L108.672 28.8456L108.605 28.6116V28.4779L108.271 27.8762L108.237 27.6756L108.204 27.4082V27.1073L108.104 26.6059L108.037 26.3385L107.936 25.9039L107.903 25.7368L107.836 25.5696L107.736 24.7674L107.602 24.2659L107.569 23.9985L107.602 23.798L107.502 23.6642L107.368 23.2631L107.268 22.5945V22.3271L107.234 22.0597V21.926L107.134 21.6251L106.967 21.1906L106.867 20.9231V20.6891L107 20.4886L107.168 20.3883L107.335 20.2211L107.268 19.9871L106.967 19.9203L106.833 19.8869L106.633 19.5526V19.4189L106.599 18.884V18.7169V18.5163L106.566 18.0817L106.432 17.5469V17.1458L106.532 16.778V16.5106L106.465 15.9423L106.432 15.1735L106.332 14.6052L106.298 14.4047L106.198 13.7695L106.131 13.101V12.6664L106.198 12.0981L106.165 11.3961L106.198 10.8947L105.964 10.7276L106.198 10.6273L106.399 10.4267L106.833 9.72472L106.967 9.39044L107 8.95587L107.034 8.7553L107.134 8.45445L107.168 8.12017L107.201 7.9196L107.335 7.58532L107.535 7.11732L107.636 7.05047L107.736 6.95018L108.07 6.74961L108.237 6.68276L108.304 6.64933H108.571L108.739 6.68276H109.006L109.173 6.64933L109.407 6.54905L109.675 6.48219L109.875 6.31505L110.042 6.11448L110.143 5.98077L110.276 5.84705L110.443 5.74677L110.544 5.71334L110.744 5.67992L111.079 5.64649L111.279 5.67992L111.48 5.84705L111.614 5.88048L111.881 5.94734L112.082 5.91391L112.349 5.88048L112.65 5.7802L113.017 5.57963L113.185 5.44592L113.352 5.34563L113.586 5.27878L113.887 5.11164L114.154 5.04478L114.555 4.9445L114.822 4.87764L114.956 4.81078L115.224 4.67707L115.324 4.61022L115.525 4.50993L115.658 4.40965L115.825 4.24251L115.859 4.00851L115.692 3.80794L115.491 3.57394L115.324 3.4068L115.123 3.23966L114.822 3.03909L114.722 2.90538L114.522 2.70481L114.421 2.63796L114.254 2.67138L114.087 2.8051L113.954 2.93881L113.82 3.27309L113.552 3.44023L113.318 3.57394L113.084 3.80794L112.85 4.17565L112.717 4.30936L112.516 4.50993L112.215 4.67707L112.015 4.74393L111.68 4.81078L111.413 4.77736L110.945 4.74393L110.577 4.67707L110.243 4.54336L110.042 4.27593L109.909 4.24251L109.708 4.27593L109.374 4.40965L109.073 4.54336L108.739 4.64364L108.271 4.57679L107.836 4.4765L107.636 4.34279L107.602 4.20908L107.268 3.8748L107.134 3.6408L107 3.33995L106.766 3.00567L106.399 2.73824L105.998 2.53767Z" fill="#186149" stroke="#EAF3E9" stroke-width="0.98"/>
</svg>
