<svg width="330" height="313" viewBox="0 0 330 313" fill="none" xmlns="http://www.w3.org/2000/svg">
<path d="M201.62 162.164L201.65 106.06L329.878 105.766V59.513L329.929 10.6324L329.99 10.3889L330 9.66858L329.828 9.67874L329.787 9.70917L329.685 9.95265L329.614 10.0135L329.493 10.0541L329.432 10.0744L329.351 10.1556L329.31 10.2266L329.219 10.5107L329.168 10.5918L328.864 10.886L328.752 10.9571L328.651 11.0484H328.641V11.0889L328.61 11.2005L328.59 11.2513L328.569 11.3223L328.509 11.3933L328.387 11.4643L328.133 11.5049L328.001 11.5252L327.92 11.5759L327.717 12.0223L327.626 12.1339L327.514 12.1948L327.352 12.2252L327.301 12.2455L327.271 12.347L327.159 12.5803L327.048 12.6513H326.946L326.835 12.6311L326.439 12.7528L326.358 12.8137L326.246 12.9151L326.064 13.0571L325.911 13.1586L325.79 13.2296L325.627 13.2803L325.323 13.3615L325.181 13.4325L325.12 13.4934L325.09 13.5441V13.5847L325.242 13.6253L325.364 13.605L325.495 13.6253L325.627 13.8079L325.668 13.9499L325.759 14.234L325.82 14.2746L325.851 14.2543L325.911 14.2137L326.003 14.1529L326.135 14.0413L326.226 13.9905H326.287L326.419 14.092L326.469 14.1731L326.551 14.305L326.561 14.3659L326.52 14.4471L326.439 14.6398L326.246 14.9036L325.993 15.208L325.729 15.3602L325.526 15.5326L325.445 15.6138L325.12 15.8573L325.019 15.9182L324.745 16.0095L324.653 16.0298L324.592 16.1312V16.2124L324.562 16.3341L324.532 16.395V16.5269L324.572 16.5979L324.653 16.7095L324.694 16.8312L324.765 16.9327L324.856 17.0037L324.958 17.1457V17.2371L324.937 17.2776L324.887 17.3791L324.826 17.511L324.795 17.6327L324.775 17.7646L324.684 18.1806L324.603 18.2719L324.491 18.3328L324.369 18.4444L324.278 18.5864L324.156 18.6777L324.035 18.7082L323.892 18.7487L323.791 18.7792L323.629 18.8603L323.263 19.0227L322.908 19.2256L322.817 19.3067L322.716 19.4183L322.614 19.5604L322.574 19.7024L322.553 19.814V20.0981V20.1995L322.533 20.2706L322.462 20.3416L322.411 20.3821L322.269 20.4329L322.147 20.4126L321.965 20.3923L321.813 20.372L321.721 20.3416L321.61 20.3213L321.478 20.2706L321.458 20.2502V20.0778L321.447 20.0169L321.285 20.0372L321.234 20.0575L321.173 20.0778L320.971 20.0474L320.93 19.9865L320.768 20.0474L320.758 20.1082L320.747 20.1589L320.676 20.2502L320.636 20.2706L320.585 20.3111L320.534 20.3314L320.362 20.3923L320.311 20.4025H320.179H320.129H320.057L319.936 20.4126H319.794L319.52 20.3923L319.357 20.4126L319.286 20.443L319.134 20.5546L318.881 20.7068L318.769 20.7575L318.607 20.7677L318.505 20.7575H318.373L318.211 20.8184L318.079 20.9198L317.633 21.1938L317.501 21.2851H317.207L317.115 21.3054L317.004 21.4068L316.862 21.4271L316.669 21.417L316.537 21.3967L316.223 21.3662L316.121 21.2851L316.02 21.2547L315.918 21.2648L315.878 21.2952L315.898 21.417L315.888 21.5387L315.847 21.6808L315.756 21.7721L315.604 21.8329L315.502 21.8634L315.37 21.8532L315.157 21.8431L315.035 21.7822L314.924 21.7011L314.782 21.6605H314.731L314.68 21.7315L314.66 21.8431L314.64 21.975L314.609 22.0156L314.559 22.0257L314.549 22.0358L314.467 22.0561L314.406 22.0967L314.386 22.1576L314.396 22.2388L314.406 22.2996V22.4315L314.356 22.5127L314.305 22.5736L314.224 22.6243L314.072 22.6344L314.011 22.6141L313.727 22.5837L313.656 22.675L313.686 22.7257L313.737 22.7562L313.97 22.8678L314.082 22.9286L314.204 23.091L314.234 23.1823L314.295 23.2939L314.396 23.5069L314.417 23.6388L314.386 23.7606L314.285 23.8722L314.193 23.9432L314.092 23.9635L313.899 24.0142L313.767 24.0649L313.635 24.1055L313.473 24.1461L313.25 24.1258L313.118 24.1156L312.844 24.1664L312.621 24.2577L312.53 24.3287L312.306 24.4809L312.205 24.5012L312.144 24.4707L312.032 24.4606L311.961 24.4707L311.88 24.5519L311.809 24.6534L311.616 24.765L311.403 24.8563L311.211 24.9375L310.967 25.0592L310.856 25.1403L310.774 25.252L310.744 25.3534L310.653 25.4954L310.592 25.5563L310.5 25.5665L310.409 25.536L310.277 25.465L310.216 25.4447L310.135 25.4143H310.085L309.983 25.4346L309.932 25.4853L309.882 25.536L309.78 25.5259L309.74 25.5056L309.669 25.4853L309.638 25.5056L309.618 25.536L309.577 25.6273L309.557 25.6984L309.435 25.9114L309.445 25.9723L309.486 26.0027L309.496 26.0534L309.486 26.1143L309.456 26.165L309.435 26.1955L309.395 26.2361L309.263 26.3679L309.202 26.581L309.192 26.6622L309.182 26.7738L309.171 26.8955V26.9462L309.151 27.0071L308.908 27.1593L308.837 27.281L308.705 27.626L308.441 27.8492L308.055 27.9709L307.67 28.0825L307.447 28.2043L307.274 28.5391V28.8738V28.9956L307.173 29.1376L306.899 29.3507L306.625 29.4623L306.351 29.4217L306.239 29.4623L306.108 29.6855L305.59 29.9188H305.073L304.555 30.142L304.17 30.3754L303.52 30.6087L303.003 30.7203L302.222 30.8319L301.441 30.9435L300.791 30.8319L300.142 30.7203L299.706 30.4261L299.503 30.3754L299.27 30.4058L298.975 30.487L298.59 30.6087L298.072 30.8319L297.809 31.0653L297.636 31.258L297.038 31.6334L296.764 31.8465L296.52 31.9783L296.104 32.1001L295.475 32.2117L294.958 32.3233L294.44 32.6683L293.669 32.8915L293.355 32.861L293.142 32.8915L292.959 33.0234L292.503 33.4697L291.589 33.8147L290.94 34.0379L290.159 34.3828L289.52 34.5046L288.475 34.2712L287.826 34.0379H287.308L286.537 34.1596L285.522 34.2205L284.853 34.0379L284.122 33.7944L283.94 33.4697L283.554 33.1248L283.199 33.0741L282.905 33.1248L282.732 33.348L282.347 33.5509L281.83 33.7234L281.221 33.835L280.44 33.8147L279.79 33.5813L279.395 33.5306L279.009 33.5813L278.624 33.7031L278.218 33.6929L277.619 33.5205L277.325 33.3581L277.071 32.8915L276.422 32.4349L275.641 32.2117H275.255L274.606 31.9783L274.089 31.745L273.571 31.4102L273.074 30.7913L272.567 30.3551L272.019 29.9594L271.471 29.858L270.974 29.6855L270.162 29.1478L269.381 28.7014L268.468 28.1434L267.92 27.8897L267.403 27.5752L266.703 27.139L266.601 27.0883L266.51 27.0071L266.297 26.8854L266.175 26.8143L266.053 26.7738L265.83 26.7027L265.668 26.6926H265.526L265.343 26.7027L265.171 26.7129L265.059 26.723L264.907 26.7332L264.806 26.6926L264.714 26.6114L264.653 26.5506L264.521 26.4694L264.45 26.4593H264.298H264.207L264.106 26.4897L263.842 26.5303L263.7 26.51L263.588 26.439L263.527 26.3477L263.416 26.1853L263.355 26.0636L263.253 25.881L263.203 25.7795L263.091 25.6476L263.03 25.5867L262.939 25.5259L262.807 25.465L262.716 25.4853L262.614 25.4954H262.513L262.442 25.465L262.371 25.394L262.33 25.3331L262.279 25.2722L262.137 25.2215L262.036 25.1911H261.924L261.589 25.1403L261.559 25.1099L261.549 25.049L261.559 25.0288L261.6 24.9679L261.66 24.9171L261.752 24.8563L261.853 24.7954L261.914 24.7345L261.924 24.6432V24.562V24.4099V24.2577V24.136L261.975 23.9229L262.016 23.7809L262.107 23.5983L262.198 23.4562L262.35 23.233L262.462 23.091L262.553 22.8881L262.533 22.8272L262.482 22.7866L262.411 22.7156L262.35 22.6446L262.3 22.5533L262.249 22.3808L262.239 22.2895L262.289 22.1272L262.371 21.9344L262.492 21.7112L262.553 21.5489L262.563 21.4271L262.553 21.3561L262.462 21.2952L262.391 21.2648L262.32 21.2344L262.198 21.143L262.026 20.93L261.863 20.7271L261.742 20.5851L261.549 20.3517L261.417 20.1589L261.275 19.8749V19.7734L261.346 19.6923L261.447 19.6517L261.579 19.5807L261.64 19.5502L261.61 19.4792L261.559 19.4488L261.498 19.4183L261.437 19.3676L261.397 19.3169L261.366 19.256L261.387 19.2154L261.458 19.1647L261.488 19.0734L261.417 18.9922L261.387 18.9719H261.336L261.285 18.9821L261.184 19.0024L261.092 19.0227L261.011 19.0429L260.869 19.0632L260.839 19.0531L260.778 19.0328L260.707 19.0227H260.615L260.484 19.0632L260.24 19.1444L259.956 19.2763L259.784 19.3778L259.581 19.5096L259.388 19.6212L259.236 19.7125L259.033 19.8444L258.901 19.9155L258.749 19.9662L258.657 19.8444L258.627 19.7633L258.607 19.6821L258.576 19.5401L258.556 19.4285L258.536 19.2661L258.515 19.1444L258.526 18.9516L258.546 18.7893V18.6067L258.556 18.4444L258.576 18.2212L258.586 17.9878V17.8052L258.566 17.5617L258.556 17.3588L258.546 17.024L258.526 16.8516L258.475 16.5979L258.455 16.4153L258.444 16.2327L258.475 16.0805L258.526 15.9892L258.617 15.9182L258.86 15.8066L258.972 15.7558L259.195 15.6848L259.388 15.6037L259.52 15.5124L259.591 15.4109L259.642 15.2689L259.449 15.1674L259.317 15.1471L259.175 15.137H259.043H258.931H258.799L258.576 15.1065L258.515 15.0862L258.455 15.0457L258.394 14.9746L258.333 14.8428L258.292 14.7311L258.231 14.4471L258.241 14.3456L258.231 14.1934V14.0514L258.201 13.8789L258.16 13.8181L258.13 13.7978H258.069L257.957 13.8384L257.866 13.8992L257.673 13.9499L257.582 13.9398L257.521 13.8485L257.481 13.7673L257.44 13.7471H257.379H257.298L257.115 13.8181L257.014 13.8485L256.852 13.8688L256.699 13.8789L256.608 13.8891H256.557L256.425 13.9195L256.182 13.9398L255.989 13.9499L255.817 13.9804H255.675L255.533 13.9195L255.472 13.8789L255.33 13.8282L255.218 13.8485L255.046 13.8688L254.904 13.8891L254.741 13.9398L254.599 13.9905L254.477 14.0311L254.224 14.1224L253.97 14.1934L253.838 14.2036L253.747 14.1934H253.575L253.463 14.1731L253.372 14.163L253.29 14.1731L252.935 14.2645L252.621 14.4268L252.509 14.508L252.418 14.5891L252.276 14.7109L252.002 14.8529L251.688 14.9036L251.556 14.8326L251.535 14.792L251.485 14.7007L251.444 14.5891L251.414 14.5282L251.383 14.4877L251.332 14.4775L251.231 14.4978L251.16 14.5181L251.069 14.5587L250.937 14.6297L250.734 14.7514L250.572 14.8833L250.46 14.9746L250.338 15.0964L250.054 15.35L249.953 15.4718L249.8 15.6442L249.577 15.8167L249.415 15.9182L249.253 16.0399L249.111 16.1414L248.999 16.2022L248.898 16.2631L248.776 16.3443L248.644 16.4356L248.482 16.5573L248.39 16.6385L248.269 16.7298L248.147 16.8008L248.035 16.8414L247.974 16.8617L247.792 16.953L247.67 17.0342L247.568 17.1153L247.457 17.1863L247.345 17.2472L247.224 17.2878L247.132 17.3081L247.041 17.3182L246.97 17.3385L246.858 17.3994L246.777 17.4501L246.696 17.511L246.605 17.5922L246.513 17.6733L246.402 17.7342L246.27 17.8052L246.097 17.9067L245.874 18.0487L245.732 18.1603L245.539 18.3023L245.296 18.4748L245.154 18.5661L245.032 18.6473L244.87 18.7995L244.718 19.0227L244.616 19.2053L244.505 19.3879L244.373 19.4995L244.241 19.4893L244.17 19.398L244.089 19.2661L244.048 19.185L243.916 19.114L243.733 19.1343L243.652 19.1647L243.531 19.2256L243.338 19.3169L243.145 19.398L242.8 19.5096L242.536 19.6111L242.262 19.7836L241.938 20.0474L241.826 20.1691L241.735 20.372L241.633 20.7981L241.603 20.9807L241.583 21.1329L241.522 21.2851L241.38 21.6098L241.299 21.8431L241.187 22.1069L241.086 22.2489L240.629 22.5837L240.446 22.6547L240.193 22.8069L240.03 22.9895L239.909 23.1417L239.817 23.162L239.767 23.091L239.696 22.9591L239.655 22.8678L239.614 22.817L239.574 22.7968L239.412 22.7866L239.31 22.7765L239.249 22.7663L239.178 22.7359L239.128 22.7054L239.056 22.604L238.996 22.5127L238.945 22.4417L238.874 22.3707L238.783 22.3301L238.641 22.2895L238.498 22.259L238.377 22.2489H238.214L238.042 22.2895L237.93 22.3402L237.667 22.3605H237.504L237.342 22.3504L237.18 22.3301L236.997 22.3199L236.784 22.2895L236.601 22.259L236.48 22.1982L236.409 22.1069L236.368 21.9648L236.358 21.8532L236.368 21.7721L236.358 21.7011L236.266 21.6605L236.155 21.6503L236.053 21.6402H235.911L235.688 21.5996L235.597 21.5692L235.546 21.5286L235.455 21.4068L235.404 21.3054L235.353 21.1634L235.323 21.0112L235.282 20.8793L235.211 20.6966L235.15 20.514L235.12 20.3517L235.019 20.2401L234.846 20.1793L234.714 20.1589L234.582 20.1691L234.41 20.1184L234.237 20.0068L234.136 19.885L234.055 19.7125L233.801 19.327L233.649 19.114L233.456 18.9618L233.324 18.8806L233.061 18.7082L232.908 18.6371L232.746 18.6473L232.624 18.6879L232.452 18.7386L232.218 18.7589L232.087 18.6676L232.005 18.5661L231.985 18.4444L232.016 18.2415L232.076 18.1197L232.147 17.9675L232.218 17.7951L232.279 17.6835L232.35 17.5414L232.432 17.3182L232.533 17.0646L232.594 16.8211L232.655 16.5472L232.705 16.3037L232.756 16.1109L232.898 15.7558L233.05 15.4515L233.162 15.208L233.263 15.0051L233.405 14.721L233.578 13.9297L233.761 13.2702L233.832 12.9456L233.892 12.6513L233.923 12.3875L233.984 12.0629L234.024 11.7078L234.055 11.3933L234.106 11.1701L234.146 10.9571L234.248 10.6831L234.319 10.4092L234.41 10.1251L234.552 9.72945L234.694 9.34392L234.846 8.98886L234.978 8.67435L235.13 8.29894L235.485 7.26412L235.566 6.99021L235.648 6.7467L235.719 6.47278L235.79 6.11769L235.851 5.82346L235.993 4.76836L236.064 4.16978L236.104 3.84512L236.155 3.49003L236.246 3.05378L236.297 2.67841L236.317 2.13054L236.297 1.82619L236.246 1.42035L236.216 1.116L236.185 0.852211L236.155 0.659446L236.114 0.294226L236.084 0.091305L236.064 0L235.962 0.0405903L235.82 0.131895L235.658 0.233356L235.475 0.395686L235.353 0.537706L235.313 0.618887L235.15 0.801497L235.019 0.902957L234.937 0.943516L234.887 1.01454L234.795 1.13628L234.714 1.23774L234.613 1.37979L234.471 1.52181L234.379 1.5624L234.248 1.59284L234.187 1.62327L234.014 1.71458L233.842 1.84647L233.629 1.95806L233.548 1.98849L233.456 2.03924L233.132 2.22185L232.918 2.32331L232.705 2.4552L232.574 2.57694L232.503 2.63781L232.442 2.73928L232.381 2.87117L232.31 3.02335L232.289 3.0639L232.229 3.17552L232.097 3.3277L231.894 3.53062L231.681 3.76394L231.6 3.87556L231.488 4.01758L231.275 4.21034L231.143 4.34224L230.991 4.4437L230.737 4.64662L230.605 4.78864L230.423 4.94081L230.22 5.08286L230.057 5.17417L229.905 5.28575L229.794 5.38721L229.672 5.49883L229.54 5.60026L229.459 5.66116L229.357 5.73215L229.155 5.85389L229.023 5.95536L228.87 6.11769L228.739 6.21915L228.637 6.32061L228.546 6.40176L228.414 6.46263L228.221 6.57424L228.14 6.65539L228.089 6.71626L228.028 6.79744L228.008 6.838L227.968 6.8989L227.927 6.9699L227.907 7.02064L227.886 7.08151L227.907 7.14238L227.927 7.1931V7.25397L227.917 7.33515L227.886 7.38586L227.805 7.4163L227.734 7.43661L227.683 7.47717L227.623 7.53804L227.592 7.58878V7.66993L227.572 7.76124L227.541 7.85254L227.521 7.91344V8.00475L227.511 8.0859L227.501 8.15692L227.44 8.26851L227.339 8.43084L227.278 8.48159L227.176 8.57289L227.085 8.67435L227.014 8.7555L226.953 8.83665L226.852 8.95842L226.76 9.04973L226.679 9.12072L226.567 9.21206L226.507 9.25262L226.385 9.32364L226.314 9.36423L226.212 9.41495L226.111 9.46569L226.02 9.52656L225.908 9.60771L225.847 9.6483L225.796 9.69902L225.776 9.73961V9.82076L225.796 9.86135V9.98309L225.756 10.0338L225.725 10.0845L225.675 10.1454L225.644 10.186L225.593 10.2469L225.553 10.2875L225.522 10.328L225.482 10.3483L225.431 10.3788L225.411 10.4193L225.391 10.5309L225.38 10.602L225.34 10.6527L225.289 10.7136L225.228 10.7846L225.167 10.8353L225.137 10.9266L225.107 11.0382L224.944 11.16L224.833 11.2614L224.721 11.3629L224.609 11.4542L224.538 11.5252L224.417 11.5455L224.325 11.5861L224.204 11.6774L224.133 11.7585L224.021 11.8904L223.94 11.9615L223.889 12.0223L223.788 12.0934L223.727 12.1339L223.635 12.1847L223.585 12.2658L223.544 12.3774L223.524 12.4789L223.483 12.6209L223.453 12.7528L223.422 12.905L223.392 13.0267L223.351 13.1079L223.29 13.1789L223.24 13.2499L223.098 13.4021L222.996 13.5035L222.905 13.6354L222.793 13.7572L222.733 13.8282L222.651 13.8992L222.57 13.9297L222.367 13.9499L222.286 13.9601L222.205 14.0007L222.134 14.0514L222.022 14.1427L221.89 14.2036L221.738 14.2543L221.596 14.3456L221.454 14.4775L221.373 14.5587L221.201 14.721L221.038 14.8428L220.866 14.9036L220.805 14.9138L220.663 14.9746L220.561 15.0254L220.49 15.066L220.409 15.1775L220.399 15.1978L220.348 15.2384L220.186 15.279L219.983 15.3703L219.719 15.4819L219.506 15.5326L219.374 15.5631L219.202 15.6239L219.029 15.695L218.877 15.7457L218.725 15.7863L218.573 15.837L218.421 15.908L218.218 15.9892L218.005 16.0906L217.822 16.1515L217.579 16.2529L217.426 16.2834L217.203 16.3443L217.102 16.3848L217.021 16.466L216.838 16.5573L216.666 16.608L216.483 16.6486L216.29 16.7399L216.026 16.7805L215.752 16.8516L215.519 16.9023L215.316 16.9631L215.144 17.0544L214.961 17.0748L214.728 17.1153L214.444 17.2066L214.302 17.2371L214.109 17.2878L213.865 17.3487L213.652 17.4197L213.429 17.4907L213.226 17.582L213.023 17.653L212.77 17.724L212.465 17.8255L212.273 17.8864L212.12 17.9371L211.968 18.0183L211.725 18.1096L211.461 18.2009L211.309 18.2516L211.045 18.3632L210.812 18.4342L210.528 18.5458L210.406 18.6168L210.294 18.7082L210.203 18.7589L209.99 18.7893L209.675 18.8908L209.604 18.9212L209.462 18.9719L209.229 19.0125L209.006 19.0937L208.884 19.1647L208.712 19.2357L208.539 19.327L208.387 19.4285L208.235 19.4792L208.072 19.5604L207.819 19.6517L207.656 19.6923L207.413 19.7633L207.22 19.8242L207.068 19.8647L206.987 19.8952L206.885 19.956L206.824 20.0372L206.743 20.0778L206.632 20.0575H206.571L206.398 20.0778L206.206 20.1285L205.84 20.2097L205.648 20.3416L205.424 20.4227L205.272 20.4734L205.12 20.5343L204.998 20.5749L204.836 20.6358L204.623 20.717L204.501 20.7474L204.258 20.8387L204.045 20.9503L203.882 21.001L203.649 21.1025L203.537 21.1634L203.436 21.2141L203.304 21.2851L203.091 21.3764L202.888 21.4981L202.705 21.5894L202.523 21.6909L202.371 21.7721L202.198 21.8532L202.016 21.8938L201.823 21.9851L201.772 21.9953L201.64 22.0358H201.62L201.6 22.046L201.468 22.0866L201.305 22.1373L201.082 22.2388L200.95 22.2895L200.717 22.3707L200.534 22.4518L200.372 22.5228L200.271 22.5837L200.118 22.675L199.976 22.7765L199.875 22.8779L199.814 22.9692L199.784 23.0707L199.743 23.1519L199.621 23.2127L199.489 23.2634L199.276 23.3649L199.013 23.4664L198.688 23.5272L198.495 23.5983L198.363 23.649L198.14 23.72L197.947 23.7504L197.866 23.7403L197.623 23.7606L197.481 23.8215L197.288 23.862L197.054 23.9128L196.821 23.9533L196.649 23.9736L196.537 24.0142L196.263 24.0852L196.08 24.1258L195.796 24.1765L195.594 24.1968L195.401 24.2475L195.178 24.2679L194.954 24.2881L194.701 24.349L194.528 24.3997L194.315 24.4505L194.082 24.4809L193.96 24.5012L193.869 24.5316L193.727 24.562L193.534 24.5722L193.392 24.6026L193.179 24.6432L192.976 24.6737L192.875 24.6838L192.824 24.7143L192.773 24.7852L192.743 24.8056L192.682 24.8461L192.601 24.8664L192.53 24.8461L192.459 24.8157L192.367 24.7852L192.286 24.7751H192.185L192.043 24.7852L191.88 24.8157L191.728 24.8563L191.545 24.8969L191.393 24.9375L191.17 24.9679L190.856 25.0288L190.49 25.0896L190.227 25.1403L189.953 25.1911L189.567 25.2824L189.385 25.323L188.989 25.4041L188.725 25.4244L188.603 25.4346L188.35 25.4853L188.096 25.5563L187.832 25.607L187.558 25.5969L187.244 25.5867L187.041 25.6172L186.858 25.6882L186.605 25.7897L186.381 25.8201L186.158 25.8404L185.844 25.8607L185.489 25.9012L185.184 25.9621L185.022 26.0027L184.819 26.0433L184.586 26.0839L184.342 26.1244L184.068 26.1447L183.734 26.1955L183.5 26.2259L183.236 26.2766L183.054 26.3375L182.851 26.3984L182.648 26.4593L182.455 26.51L182.303 26.5506L182.141 26.6013L181.989 26.652L181.775 26.6825L181.623 26.6926H181.42L181.258 26.7129L181.116 26.7433L180.933 26.7941L180.274 26.8651L180.203 26.8854L179.959 26.9056L179.939 26.9158L179.828 26.9361L179.736 26.9462L179.614 26.9665L179.574 26.997L179.452 27.0274L179.341 27.0578L179.178 27.0477L179.087 27.0781L178.874 27.1086L178.62 27.1187L178.397 27.1999H178.154L177.961 27.21L177.758 27.2303L177.606 27.2506L177.484 27.281L177.362 27.3216L177.22 27.3419L177.129 27.3723L177.038 27.3926L176.885 27.4129L176.703 27.4332L176.53 27.4535L176.216 27.4941L176.023 27.5347L175.871 27.5752L175.597 27.6057L175.475 27.6158H175.303L175.221 27.626L175.029 27.6361L174.907 27.6463L174.745 27.6665L174.603 27.6767L174.501 27.6869L174.278 27.697L174.126 27.7173L173.933 27.7274H173.781L173.588 27.768H173.466L173.314 27.7782L173.233 27.7883L173.142 27.8187L173.01 27.839L172.898 27.8796L172.837 27.8999L172.766 27.9101L172.716 27.8897H172.634L172.574 27.9202L172.462 27.9405H172.35H172.289L172.178 27.9303L172.137 27.9405L172.016 27.9506L171.924 27.9811H171.802H171.65L171.518 27.9912L171.346 28.0014L171.184 28.0216L171.021 28.0521H170.869L170.646 28.0825L170.524 28.1028L170.331 28.1231H170.24L170.108 28.1434L169.936 28.1535L169.794 28.1738L169.601 28.2043L169.52 28.2144L169.347 28.2246H169.124H168.982L168.86 28.255L168.739 28.2854L168.597 28.3361L168.475 28.397L168.383 28.4376L168.323 28.468L168.292 28.4883L168.211 28.5391L168.15 28.5492H168.049H167.917L167.754 28.5695L167.572 28.5898L167.47 28.6304L167.379 28.6608H167.298L167.125 28.671L166.994 28.6811H166.811L166.72 28.6912L166.588 28.7115L166.496 28.7217L166.415 28.7115L166.304 28.7014L166.08 28.7115L165.928 28.7217H165.756H165.654L165.522 28.6912H165.431L165.35 28.7014L165.289 28.742L165.228 28.8029L165.137 28.9043L165.086 28.955L164.995 29.0159L164.924 29.0362L164.853 29.0768L164.802 29.1275L164.731 29.2087L164.701 29.2898L164.66 29.3406L164.579 29.4014L164.538 29.4521L164.508 29.5435L164.427 29.6348L164.305 29.7159L164.183 29.787L163.991 29.8478L163.859 29.8985L163.747 29.9493L163.605 30.0102L163.544 30.1015L163.524 30.1623L163.483 30.2638L163.443 30.416L163.412 30.5073L163.372 30.6189L163.29 30.7102L163.199 30.8116L163.047 30.9537L162.925 30.9841L162.814 31.0348L162.783 31.0754L162.763 31.1667L162.753 31.187L162.732 31.2783L162.712 31.3291L162.682 31.3595V31.4204L162.712 31.4609V31.4914L162.722 31.5218L162.682 31.5725L162.631 31.6131L162.57 31.6436L162.53 31.674L162.489 31.6943L162.469 31.7146L162.479 31.7856L162.509 31.816L162.54 31.8566L162.56 31.9378L162.57 31.9783L162.54 32.0189L162.509 32.0798L162.479 32.161L162.459 32.2523V32.3538L162.438 32.4045L162.398 32.4552L162.327 32.5465L162.256 32.6074L162.164 32.6885L162.114 32.7291L162.083 32.7596L162.043 32.8002L162.022 32.9523L162.002 33.003L161.961 33.1045L161.921 33.1654L161.89 33.2262L161.87 33.277V33.3683L161.88 33.5002L161.89 33.5611L161.901 33.6219L161.88 33.6726L161.86 33.7234L161.83 33.7741L161.779 33.8451L161.738 33.8958L161.698 33.9567L161.677 34.0176L161.657 34.1089V34.1799V34.2915V34.3422L161.647 34.4031L161.617 34.4538L161.556 34.5147L161.485 34.5452L161.424 34.5959L161.363 34.6365L161.312 34.6669L161.241 34.7176L161.16 34.7683L161.059 34.8292L161.008 34.8698L160.947 34.9408L160.876 35.0118L160.805 35.1133L160.774 35.2046L160.693 35.3669L160.592 35.58L160.49 35.793L160.409 35.9858L160.358 36.1583L160.308 36.28L160.237 36.3612L160.166 36.4018L160.095 36.4931L160.034 36.5945L159.963 36.7264L159.871 36.8177L159.75 36.8888L159.618 37.0003L159.445 37.1221L159.364 37.1931L159.263 37.2641L159.131 37.3352L159.06 37.3554L158.847 37.4163L158.603 37.5076L158.38 37.5482L158.228 37.5989L158.086 37.6497L157.903 37.7105L157.629 37.7815L157.497 37.8729L157.416 37.9337L157.295 38.0555L157.163 38.1975L157.051 38.2381L156.96 38.2787L156.797 38.4106L156.686 38.4816L156.493 38.5323L156.392 38.5627L156.25 38.6236L156.087 38.6642L155.955 38.6845L155.803 38.7048L155.631 38.7555L155.539 38.8367L155.468 38.9483L155.407 39.0801V39.1715V39.2729V39.3642L155.397 39.486V39.5773L155.367 39.6787L155.306 39.7295L155.245 39.8309L155.205 39.9324L155.164 40.0541L155.134 40.1454L155.063 40.2672L154.961 40.4397L154.89 40.5614L154.819 40.6933L154.728 40.8455L154.657 40.9672L154.565 41.1194L154.505 41.2411L154.423 41.3832L154.352 41.4745L154.271 41.5962L154.2 41.718L154.17 41.8296L154.149 41.931L154.139 42.0629L154.099 42.1542L154.078 42.276L154.038 42.3165L153.997 42.4687L153.947 42.6209L153.936 42.7122L153.906 42.7934L153.896 42.8948L153.886 43.0369L153.865 43.118L153.835 43.1992L153.805 43.2702L153.784 43.3311V43.3919L153.815 43.4224L153.835 43.4833L153.805 43.5949L153.754 43.6963L153.693 43.7978L153.662 43.8485L153.642 43.8789L153.5 44.1427L153.409 44.376L153.307 44.579L153.247 45.0152L153.176 45.279L153.115 45.4718L153.013 45.7152L152.962 45.8979L152.952 46.1008L152.912 46.2935L152.871 46.4051L152.76 46.6385L152.638 46.8718L152.567 47.0139L152.404 47.3284L152.303 47.5516L152.181 47.8154L152.141 47.9473L151.968 48.3023L151.897 48.5052L151.796 48.7487L151.755 48.8401L151.654 48.9821L151.644 49.1241L151.613 49.3067L151.512 49.5198L151.451 49.6821L151.39 49.7836L151.309 50.0169L151.238 50.2097L151.187 50.4227L151.136 50.514L151.075 50.6662L150.984 50.93L150.923 51.1633L150.832 51.417L150.801 51.5184L150.659 51.8025L150.609 51.8938L150.578 52.0054L150.528 52.1373L150.345 52.3199L150.203 52.4924L150.122 52.5938L150.081 52.6344L150.02 52.7156L150.01 52.7765V52.8475L150.02 52.9185L150.051 52.9895V53.1011L150.01 53.2229L149.98 53.3751L149.949 53.5272L149.858 53.6896L149.797 53.8215L149.716 53.9533L149.665 54.0446L149.564 54.207L149.483 54.3389L149.401 54.4403L149.361 54.5418L149.32 54.6737L149.239 54.836L149.087 55.0896L149.036 55.1809L148.975 55.2519L148.874 55.3737L148.732 55.5259L148.651 55.6476L148.58 55.7592L148.478 55.8505L148.346 55.9621L148.265 56.0737L148.214 56.1955L148.103 56.3781L148.001 56.5607L147.94 56.7028L147.819 56.7839L147.677 56.9665L147.545 57.1187L147.453 57.2405L147.403 57.4231L147.342 57.5854L147.24 57.7274L147.19 57.8289L147.088 58.0419L147.017 58.1333L146.946 58.2347L146.814 58.4275L146.682 58.5796L146.591 58.7217L146.54 58.8536L146.469 58.9956L146.459 59.1173L146.277 59.3405L146.124 59.513L146.013 59.6246L145.901 59.7667L145.8 59.9696L145.78 60.1116L145.8 60.2536V60.4363L145.729 60.5884L145.688 60.7203L145.678 60.8421L145.637 61.0146L145.566 61.1769V61.2479L145.516 61.4001L145.506 61.5015L145.536 61.6842L145.506 61.8769L145.475 62.0494L145.435 62.2421L145.404 62.3639V62.4349L145.435 62.5769L145.455 62.6885V62.8813L145.435 63.0335L145.384 63.2262L145.262 63.4799L145.171 63.6422L145.029 63.8654L144.958 63.9872L144.917 64.0785L144.887 64.19L144.897 64.2306L144.917 64.3321L144.856 64.5046L144.785 64.6364L144.694 64.8698L144.582 65.1437L144.481 65.4075L144.359 65.6713L144.319 65.9351L144.268 66.0365V66.138L144.197 66.209L144.166 66.3307L144.065 66.4728L144.034 66.5945L144.024 66.6554V66.7264L143.994 66.767L143.984 66.8177L143.953 66.8685L143.913 66.9598L143.872 66.9902L143.832 67.0308L143.801 67.0612L143.74 67.1119L143.69 67.1931L143.669 67.2134L143.629 67.2641L143.588 67.3351L143.558 67.3757L143.497 67.4569L143.466 67.5076L143.446 67.5583L143.405 67.6192L143.355 67.7004L143.304 67.7917L143.284 67.8424L143.253 67.9439L143.233 68.0047L143.213 68.0555L143.192 68.1062L143.152 68.2178L143.142 68.3497L143.132 68.512L143.121 68.5932L143.111 68.6642V68.725V68.8062L143.101 68.9077V68.9686L143.081 69.0497V69.1005L143.061 69.1918L143.04 69.2831L143.01 69.4657L142.99 69.5469L142.979 69.699L142.959 69.77L142.929 69.8309L142.888 69.9121L142.868 69.9527L142.847 70.0135L142.787 70.0744L142.756 70.115L142.716 70.1759L142.695 70.2063L142.634 70.257L142.574 70.3179L142.482 70.3788L142.401 70.4295L142.32 70.4904L142.239 70.5715L142.188 70.6628L142.137 70.7643L142.076 70.9165L142.036 71.0179L141.975 71.1498L141.914 71.2614L141.853 71.373L141.803 71.4643L141.691 71.6267L141.63 71.6977L141.579 71.7687L141.539 71.8397L141.498 71.9107L141.447 72.0122L141.407 72.0629L141.366 72.1238L141.295 72.3267L141.265 72.4383L141.245 72.5296L141.234 72.6006L141.194 72.7021L141.153 72.8948L141.123 73.047L141.113 73.0876L141.082 73.2398L141.021 73.4224L140.991 73.5543L140.971 73.6659L140.93 73.7673L140.889 73.8891L140.859 74.0007L140.839 74.092L140.798 74.1833L140.758 74.2847L140.727 74.3355L140.676 74.4268L140.636 74.5282L140.595 74.6297L140.534 74.7413L140.443 74.8732L140.423 74.9239L140.342 75.0558L140.281 75.1674L140.23 75.2587L140.159 75.3703L140.108 75.4921L140.078 75.5631L140.027 75.6544L139.946 75.7863L139.895 75.8472L139.794 76.0095L139.753 76.0602L139.692 76.1312L139.652 76.1921L139.581 76.2732L139.53 76.3341L139.459 76.3747L139.378 76.4153L139.266 76.4762L139.246 76.4863L139.165 76.5269L139.144 76.537L139.063 76.5979L138.992 76.6588L138.962 76.6994L138.891 76.8211L138.84 76.9023L138.779 77.0037L138.718 77.0849L138.678 77.1762L138.617 77.2675L138.526 77.369L138.434 77.4704L138.373 77.5414L138.292 77.6327L138.211 77.7037L138.13 77.7646L138.049 77.8255L138.008 77.8458L137.826 77.9878L137.775 78.0487L137.704 78.1501L137.623 78.2415L137.491 78.3328L137.41 78.4038L137.359 78.4545L137.328 78.485L137.186 78.6879L137.136 78.7487L137.044 78.8908L136.994 78.9821L136.933 79.0835L136.882 79.1647L136.841 79.2256L136.791 79.3372L136.74 79.4488L136.71 79.5299L136.689 79.6009L136.669 79.7024L136.628 79.814L136.588 79.8952L136.507 80.0271L136.436 80.1082L136.385 80.159L136.233 80.301L136.162 80.3618L136.05 80.4532L135.959 80.514L135.837 80.585L135.776 80.6155L135.695 80.6561L135.533 80.7372L135.502 80.7575L135.401 80.8184L135.299 80.8691L135.198 80.93L135.086 81.001L134.985 81.0518L134.893 81.1126L134.762 81.2039L134.691 81.2546L134.599 81.3257L134.518 81.3865L134.427 81.4576L134.366 81.4982L134.325 81.5286L134.214 81.6199L134.082 81.6909L133.98 81.7518L133.848 81.8025L133.676 81.8837L133.493 81.9547L133.351 82.0359L133.199 82.0764L133.148 82.0967L133.017 82.1272L132.844 82.1779L132.672 82.2185L132.56 82.2591L132.469 82.3098L132.377 82.3808L132.306 82.4112L132.235 82.4721L132.063 82.5837L131.982 82.6243L131.738 82.7156L131.637 82.7663L131.535 82.8069L131.363 82.8982L131.201 82.9794L131.109 83.02L131.018 83.0707L130.856 83.1417L130.764 83.2026L130.683 83.2533L130.521 83.3345L130.318 83.4258L130.237 83.4663L130.074 83.5171L129.882 83.578L129.729 83.6388L129.547 83.72L129.425 83.7707L129.151 83.8722L129.05 83.9127L128.898 83.9736L128.766 84.0244L128.593 84.1157L128.411 84.1563L128.36 84.1867L128.197 84.2272L128.106 84.2678L127.984 84.3389L127.832 84.4302L127.731 84.491L127.639 84.5519L127.548 84.6432L127.467 84.694L127.345 84.765L127.244 84.8157L127.153 84.8664L127 84.9374L126.879 84.9983L126.787 85.0389L126.615 85.12L126.534 85.1606L126.432 85.2317L126.31 85.3128L126.26 85.3636L126.037 85.4954L125.945 85.5563L125.763 85.6781L125.61 85.7896L125.519 85.8505L125.438 85.9317L125.336 86.023L125.235 86.1143L125.103 86.2158L124.961 86.3375L124.87 86.4187L124.809 86.4897L124.707 86.5607L124.626 86.6317L124.535 86.7129L124.363 86.8245L124.281 86.8854L124.2 86.9361L124.058 86.997L123.936 87.0477L123.896 87.0781L123.713 87.1694L123.622 87.2202L123.52 87.281L123.389 87.3622L123.226 87.4434L123.054 87.5347L122.942 87.5854L122.79 87.6564L122.618 87.7376L122.516 87.8086L122.415 87.8593L122.212 87.9608L122.151 87.9912L121.989 88.0724L121.836 88.1332L121.796 88.1535L121.522 88.2651L121.38 88.3159L121.278 88.3767L121.217 88.397L121.086 88.4376L120.954 88.4579L120.761 88.4883L120.639 88.539L120.507 88.5492L120.396 88.5898L120.294 88.6304L120.172 88.6811L119.888 88.7724L119.757 88.8028L119.533 88.8231L119.422 88.8434L119.31 88.8637L119.209 88.8941L119.016 88.9347L118.823 88.9854L118.712 89.0159L118.509 89.0666L118.397 89.0768L118.275 89.1072L118.154 89.1173L118.062 89.1377L117.951 89.1579L117.778 89.1681L117.677 89.1782L117.525 89.1884L117.393 89.2086L117.21 89.2188L117.068 89.2391L116.916 89.2492L116.824 89.2594L116.622 89.2797H116.51L116.348 89.2695L116.175 89.2594L116.074 89.2492L115.942 89.2391L115.881 89.2492H115.83H115.759L115.688 89.2594L115.627 89.2695L115.556 89.2898L115.526 89.3L115.506 89.3203L115.445 89.3811L115.424 89.4318L115.404 89.4724L115.313 89.6246L115.282 89.6956L115.232 89.8275L115.15 89.9899L115.1 90.0812L115.049 90.2029L114.927 90.345L114.836 90.4667L114.724 90.5884L114.592 90.7305L114.491 90.8421L114.39 90.974L114.288 91.1059L114.197 91.2175L114.075 91.3392L113.974 91.4407L113.73 91.674L113.659 91.7552L113.487 91.9378L113.456 91.9784L113.416 92.0392L113.355 92.1711L113.324 92.2929L113.294 92.3639L113.253 92.4653L113.182 92.5567L113.101 92.6682L113.03 92.7393L112.918 92.8204L112.766 92.8914L112.716 92.9219L112.634 92.9827L112.533 93.0436L112.442 93.1045L112.34 93.1654L112.279 93.2161L112.188 93.2871L112.147 93.3277L112.097 93.3987L111.965 93.5205L111.884 93.5509L111.752 93.6016L111.62 93.6321L111.376 93.7234L111.305 93.7538L111.214 93.835L111.153 93.8857L111.042 93.9669L110.91 94.0785L110.839 94.1495L110.727 94.2814L110.656 94.393L110.555 94.5451L110.484 94.6162L110.352 94.7075L110.169 94.7886L109.936 94.8394L109.784 94.8799L109.631 94.9307L109.428 94.9915L109.084 95.0727L108.83 95.1031L108.647 95.1336L108.475 95.164L108.231 95.2046L108.069 95.2147H107.866L107.734 95.2249L107.582 95.235L107.43 95.2452L107.298 95.2756L107.207 95.3263L107.095 95.4278L107.044 95.4785L106.953 95.5901L106.872 95.7017L106.801 95.7829L106.659 95.9249L106.517 96.0264L106.354 96.138L106.223 96.2496L106.121 96.3815L105.989 96.5742L105.857 96.767L105.776 96.8786L105.634 97.0004L105.492 97.1525L105.35 97.3351L105.208 97.5482L105.137 97.6496L104.964 97.8627L104.782 98.0555L104.63 98.1873L104.467 98.3395L104.386 98.4105L104.335 98.4613L104.275 98.5627L104.214 98.6743L104.153 98.8265L104.082 99.0091L104.021 99.1613L103.97 99.2425L103.838 99.4251L103.757 99.557L103.686 99.699L103.625 99.8309L103.544 99.973L103.483 100.105L103.402 100.257L103.301 100.409L103.27 100.47L103.219 100.541L103.118 100.663L103.027 100.734L103.006 100.744L102.915 100.825L102.895 100.866L102.875 100.886L102.854 100.916L102.844 100.937L102.834 100.967L102.804 101.038V101.079V101.119V101.16L102.814 101.201L102.875 101.272L102.915 101.322L102.966 101.363L102.996 101.403L103.077 101.474L103.098 101.485L103.138 101.535L103.179 101.576L103.25 101.657L103.29 101.698L103.341 101.759L103.382 101.83L103.433 101.921L103.463 102.012L103.473 102.093L103.504 102.256L103.514 102.357L103.534 102.469L103.544 102.55L103.554 102.641L103.575 102.763V102.834L103.585 102.946L103.575 103.027V103.108L103.564 103.25L103.554 103.351L103.544 103.443L103.524 103.534L103.514 103.646L103.504 103.727L103.493 103.767L103.504 103.879L103.534 103.97L103.544 104.082L103.534 104.193L103.524 104.275V104.386L103.514 104.457L103.473 104.609L103.443 104.711L103.412 104.762L103.382 104.792L103.341 104.853L103.311 104.934L103.29 105.036L103.26 105.157L103.24 105.218L103.179 105.37L103.138 105.472L103.098 105.583L103.057 105.725L103.017 105.847L102.986 105.949L102.966 106.03L102.946 106.08L102.925 106.152L102.905 106.223L102.875 106.334L102.864 106.405L102.854 106.486L102.834 106.567L102.824 106.628L102.763 106.76L102.712 106.862L102.672 106.933L102.601 107.034L102.55 107.105L102.479 107.227L102.418 107.349L102.357 107.47L102.286 107.582L102.215 107.673L102.114 107.815L102.043 107.917L101.951 108.069L101.911 108.15L101.87 108.282L101.84 108.343L101.759 108.414L101.688 108.505L101.647 108.566L101.627 108.627L101.596 108.728L101.576 108.85L101.545 108.972L101.515 109.073L101.454 109.205L101.383 109.276L101.312 109.378L101.261 109.469L101.221 109.571L101.17 109.743L101.109 109.905L101.048 110.108L101.008 110.271L100.916 110.463L100.845 110.585L100.805 110.636L100.734 110.737L100.663 110.849L100.602 110.95L100.521 111.123L100.501 111.204L100.44 111.336L100.369 111.427L100.328 111.508L100.267 111.65L100.227 111.731L100.186 111.803L100.125 111.874L100.034 111.975L99.9831 112.026L99.8816 112.137L99.7903 112.229L99.6584 112.36L99.5874 112.452L99.5164 112.523L99.415 112.624L99.3338 112.736L99.2628 112.847L99.1918 112.939L99.1309 113.04L99.1106 113.081L99.0091 113.182L98.9077 113.284L98.8265 113.365L98.7453 113.456L98.6337 113.568L98.5627 113.649L98.4917 113.74L98.4511 113.801L98.3903 113.882L98.3598 113.913L98.2685 113.984L98.1873 114.045L98.1366 114.106L98.0859 114.146L98.0047 114.197L97.9439 114.237L97.883 114.288L97.8525 114.349L97.7917 114.481L97.7714 114.552L97.7409 114.653L97.7207 114.694L97.7105 114.765L97.7004 114.856V114.917L97.6598 114.978L97.6192 115.049L97.5685 115.191L97.5482 115.272L97.5177 115.374L97.4264 115.506L97.3656 115.577L97.325 115.658L97.2945 115.739L97.2438 115.871L97.2235 115.982L97.1728 116.135L97.1018 116.256L97.0511 116.378L96.9902 116.49L96.9293 116.622L96.909 116.682L96.8684 116.814L96.838 116.906L96.8076 117.088L96.7467 117.21L96.6858 117.393L96.6351 117.514L96.5844 117.646L96.5539 117.738L96.4931 117.89L96.4626 117.961L96.3916 118.093V118.184L96.351 118.285L96.3307 118.356L96.3003 118.488L96.2699 118.63L96.2496 118.671L96.2191 118.783L96.1989 118.884L96.1786 118.985L96.1278 119.107L96.0568 119.219L95.9959 119.341L95.9452 119.452L95.9046 119.513L95.8742 119.594L95.8539 119.665L95.8336 119.797L95.7626 119.97L95.7119 120.041L95.6611 120.162L95.6206 120.243L95.5901 120.315L95.5495 120.386L95.509 120.457L95.4887 120.497L95.4379 120.609L95.4177 120.67L95.4075 120.741L95.3974 120.852V120.903V121.015V121.167L95.3872 121.268L95.3669 121.38L95.3568 121.41L95.3365 121.613V121.715L95.3263 121.836V121.887V121.978V122.039V122.11V122.171L95.3365 122.262L95.3568 122.333L95.3872 122.445V122.496L95.3669 122.567L95.3365 122.668L95.3162 122.739L95.2756 122.851L95.2452 122.912L95.1843 123.064L95.1539 123.196L95.1133 123.297L95.0626 123.389L95.0118 123.5L94.9104 123.683L94.8698 123.794L94.8292 123.906L94.7683 124.028L94.6973 124.149L94.6162 124.302L94.5553 124.413L94.4843 124.555L94.4437 124.657L94.4031 124.748L94.3828 124.85L94.3524 124.951L94.3321 125.022L94.3017 125.103L94.2509 125.235L94.2306 125.286L94.1901 125.397L94.1698 125.448L94.119 125.56L94.0582 125.651L94.0074 125.712L93.906 125.813L93.8451 125.894L93.8147 125.935L93.7842 126.006L93.7234 126.118L93.6625 126.199L93.6016 126.27L93.5103 126.361L93.4494 126.442L93.3683 126.523L93.2973 126.605L93.2567 126.655L93.2161 126.716L93.1552 126.787L93.1146 126.838L93.0335 126.95L92.9726 127L92.9219 127.051L92.8711 127.122L92.8204 127.203L92.7494 127.295L92.6987 127.345L92.6074 127.416L92.5465 127.457L92.4349 127.558L92.374 127.619L92.1407 127.853L92.1001 127.903L92.0595 127.964L91.9986 128.035L91.9682 128.096L91.9175 128.228L91.8972 128.279L91.8262 128.37L91.7247 128.471L91.6841 128.532L91.6537 128.634L91.6131 128.725L91.5624 128.816L91.532 128.857L91.4711 128.928L91.4102 128.999L91.3595 129.07L91.2783 129.212L91.2479 129.293L91.2175 129.385L91.1464 129.496L91.0957 129.537L91.0348 129.638L91.0145 129.76L91.0247 129.902V130.014L91.0348 130.135L91.045 130.216L91.0551 130.379L91.0653 130.46V130.531L91.0551 130.602V130.673L91.0145 130.774L90.974 130.856L90.9232 130.947L90.8928 131.018L90.8421 131.109L90.7913 131.241L90.7508 131.373L90.7203 131.454L90.6493 131.576L90.6189 131.759L90.5681 131.901L90.5377 132.012L90.5174 132.124V132.225V132.357L90.4768 132.469L90.4261 132.56L90.3855 132.621L90.3247 132.753L90.2841 132.824L90.2435 132.925L90.1826 133.088L90.142 133.199L90.0609 133.29L90 133.382L89.9391 133.483L89.8985 133.534L89.858 133.585L89.7869 133.717L89.7565 133.808L89.7261 133.94V134.021L89.7464 134.143L89.7666 134.224L89.7869 134.305L89.8072 134.417L89.8174 134.559V134.67L89.8072 134.772L89.8174 134.883L89.8478 135.015L89.8782 135.178L89.8985 135.249L89.929 135.38L89.9391 135.472L89.9594 135.644V135.746L89.9493 135.867L89.929 135.999L89.9188 136.131V136.233L89.8985 136.385L89.8681 136.466L89.8072 136.578L89.7464 136.649L89.6753 136.72L89.584 136.801L89.513 136.872L89.3913 137.014L89.3507 137.044L89.3 137.115L89.2594 137.176L89.2188 137.247L89.1579 137.389L89.1681 137.541V137.724V137.815V137.937L89.1782 137.998L89.1985 138.13L89.2086 138.221L89.2188 138.383V138.485L89.2391 138.586L89.2594 138.678L89.2695 138.779L89.2797 138.84L89.3 139.012L89.3202 139.124L89.3405 139.236L89.371 139.357L89.4116 139.499L89.4217 139.601L89.4116 139.692L89.371 139.804L89.3202 139.905L89.3 139.986L89.2391 140.129L89.1782 140.2L89.0768 140.321L89.0057 140.392L88.9043 140.514L88.8434 140.626L88.8333 140.697L88.8231 140.747L88.8333 140.829L88.8739 140.93L88.9043 141.011L88.955 141.102L89.0057 141.204L89.0666 141.316L89.1072 141.437L89.1275 141.549L89.1376 141.691L89.1478 141.813L89.1884 141.955V142.147L89.1782 142.218L89.1579 142.381L89.1782 142.462L89.2594 142.584L89.3304 142.655L89.4623 142.746L89.5536 142.827L89.6753 142.949L89.7768 143.05L89.8782 143.162L89.9797 143.263L90.0203 143.314L90.0304 143.466L90 143.578L90.0101 143.71L89.9898 143.842L89.9696 143.923L89.9391 144.024L89.9087 144.095L89.8478 144.258L89.7869 144.379L89.7464 144.461L89.7362 144.511L89.7159 144.603L89.655 144.745L89.6145 144.846V144.937L89.6449 145.059L89.6753 145.13L89.6855 145.201L89.7362 145.333L89.7666 145.414L89.7971 145.465L89.8377 145.516L89.9188 145.617L89.9797 145.668L90 145.729L90.0203 145.78L90.0406 145.81L90.071 145.881L90.0812 145.972V146.033L90.071 146.094L90.0304 146.226L89.9594 146.358L89.8985 146.449L89.8478 146.53L89.8072 146.622L89.7666 146.723L89.7362 146.824L89.6956 146.926V146.946L89.6855 146.956L89.6753 147.068L89.6449 147.2L89.6145 147.311L89.5942 147.403L89.5637 147.484L89.5333 147.575L89.5232 147.616L89.5029 147.707L89.4927 147.758V147.88V147.971L89.5232 148.052L89.5434 148.133L89.5536 148.184L89.5942 148.285L89.6043 148.336L89.6145 148.377L89.6449 148.468L89.655 148.559L89.6652 148.641L89.6855 148.722L89.7058 148.783L89.7261 148.874L89.7464 148.925L89.7768 148.965L89.7971 149.046V149.127V149.229L89.7768 149.29L89.7565 149.381L89.7159 149.483L89.655 149.604L89.6246 149.655L89.5637 149.736L89.5029 149.858L89.4623 149.929L89.4116 150L89.371 150.061L89.3405 150.101L89.3 150.193L89.2492 150.304L89.2188 150.386L89.2086 150.406L89.1478 150.578L89.1376 150.619L89.0971 150.7L89.0768 150.741L89.026 150.893L89.0057 150.974L88.9855 151.116L88.9652 151.238L88.9347 151.37L88.9043 151.522L88.8739 151.623L88.8536 151.725L88.8333 151.806L88.7927 151.907L88.7521 152.019L88.7014 152.171L88.6507 152.283L88.6101 152.364L88.5593 152.475L88.5188 152.618L88.468 152.78L88.4072 152.983L88.3564 153.115L88.2956 153.257L88.2651 153.368L88.2246 153.51L88.1738 153.581L88.1231 153.683L88.0724 153.784L88.0318 153.865L88.0014 153.947L87.9912 154.089L87.9811 154.17V154.241L87.9608 154.363L87.9506 154.505L87.9405 154.606L87.9303 154.748L87.91 154.89L87.8796 155.052L87.8695 155.174L87.8593 155.276L87.8492 155.377V155.468L87.839 155.58L87.7883 155.773L87.768 155.864L87.7579 155.945L87.7376 156.006L87.7071 156.087L87.6868 156.189L87.6767 156.31L87.6868 156.361L87.6767 156.463L87.6463 156.564L87.6158 156.706L87.5651 156.787L87.5347 156.879L87.4738 156.99L87.4332 157.061L87.4028 157.112L87.3723 157.183V157.234L87.3825 157.325L87.3622 157.416L87.3521 157.518L87.3318 157.629L87.2912 157.721L87.21 157.853L87.1593 157.964L87.0984 158.086L87.0274 158.187L86.9665 158.279L86.9361 158.36L86.8955 158.461L86.8549 158.553L86.7636 158.705L86.6723 158.837L86.6013 158.918L86.5201 158.999L86.4288 159.07L86.3578 159.131L86.3172 159.151L86.2665 159.182L86.1143 159.283L86.0027 159.374L85.9114 159.466L85.8505 159.547L85.7998 159.598L85.678 159.709L85.5867 159.8L85.5056 159.861L85.4143 159.932L85.3331 159.973L85.2722 160.003L85.1403 160.054L85.0795 160.074L84.9882 160.125L84.8968 160.186L84.8563 160.206L84.7954 160.257L84.6737 160.318L84.5722 160.358L84.3997 160.419L84.3084 160.45L84.1867 160.49L84.0649 160.521L83.9533 160.582L83.8417 160.663L83.791 160.724L83.6794 160.825L83.6388 160.947L83.578 161.069L83.5272 161.17L83.4461 161.322L83.375 161.414L83.304 161.505L83.2634 161.566L83.1823 161.637L83.1113 161.708L83.0504 161.809L83.02 161.87L82.9997 161.961L82.9692 162.032L82.9286 162.134L82.9084 162.195L82.8678 162.286L82.8475 162.357L82.817 162.408L82.7765 162.459L82.746 162.519L82.7054 162.59L82.6446 162.661L82.604 162.712L82.5634 162.763L82.5228 162.814L82.4721 162.854L82.4214 162.905L82.3504 162.956L82.2692 163.017L82.2388 163.037L82.1779 163.077L82.0866 163.128L81.9953 163.179L81.904 163.24L81.8634 163.27L81.8228 163.311L81.8126 163.331L81.7112 163.402L81.63 163.463L81.5489 163.514L81.4778 163.554L81.417 163.585L81.3358 163.625L81.2344 163.676L81.1735 163.717L81.0923 163.757L81.0416 163.777L80.9909 163.808L80.9503 163.848L80.8793 163.879L80.7677 163.94L80.6966 163.97L80.5952 164.011L80.5242 164.041L80.4126 164.092L80.3314 164.122L80.2503 164.163L80.1488 164.204L80.0676 164.234L79.956 164.285L79.8952 164.315L79.8343 164.335L79.7126 164.386L79.6415 164.417L79.5604 164.447L79.4488 164.488L79.3372 164.538L79.2763 164.559L79.2154 164.589L79.114 164.62L79.043 164.65L78.9516 164.68L78.8908 164.701L78.8096 164.721L78.7183 164.741L78.6473 164.751L78.5357 164.772L78.3531 164.822L78.2313 164.863L78.1501 164.893L78.0183 164.944L77.8762 165.025L77.8559 165.056L77.8052 165.076L77.6936 165.127L77.653 165.147L77.5414 165.208L77.4298 165.279L77.3791 165.32L77.2472 165.391L77.1559 165.421L77.095 165.451L77.024 165.492L76.9428 165.543L76.8718 165.594L76.8008 165.644L76.6486 165.756L76.5776 165.807L76.4964 165.867L76.4254 165.928L76.3443 165.999L76.2935 166.04L76.2124 166.08L76.1617 166.131L76.1312 166.151L76.0602 166.233L76.0095 166.294L75.9587 166.344L75.8979 166.425L75.8573 166.486L75.7964 166.557L75.7254 166.628L75.6544 166.689L75.5732 166.77L75.5326 166.801L75.4413 166.882L75.3805 166.943L75.3196 166.994L75.2384 167.075L75.1674 167.136L75.0964 167.196L75.0152 167.247L74.9036 167.308L74.8123 167.369L74.7311 167.42L74.65 167.481L74.5485 167.552L74.4674 167.612L74.3558 167.714L74.2949 167.765L74.2137 167.846L74.163 167.907L74.0818 167.988L74.0108 168.069L73.8586 168.181L73.8282 168.211L73.7572 168.282L73.6862 168.373L73.6456 168.434L73.5644 168.566L73.5035 168.647L73.4731 168.698L73.4021 168.759L73.3615 168.789L73.3209 168.84L73.2905 168.901L73.2398 168.992L73.2093 169.053L73.1485 169.144L73.118 169.215L73.0977 169.276L73.0571 169.368L73.0267 169.428L72.9861 169.51L72.9557 169.581L72.8847 169.672L72.8339 169.733L72.7325 169.844L72.6615 169.936L72.6006 170.027L72.5093 170.169L72.4078 170.301L72.3267 170.402L72.2658 170.514L72.2049 170.605L72.1339 170.697L72.0223 170.829L71.86 170.991L71.7991 171.052L71.6875 171.173L71.6165 171.265L71.4948 171.397L71.3324 171.589L71.2107 171.711L71.1397 171.813L71.0484 171.894L70.9469 171.965L70.8455 172.046L70.7744 172.107L70.6933 172.198L70.602 172.289L70.5309 172.371L70.2875 172.634L70.2266 172.695L70.1251 172.807L70.0237 172.898L69.9425 172.979L69.8613 173.04L69.7802 173.101L69.7092 173.152L69.6584 173.192L69.5468 173.284L69.4758 173.355L69.3946 173.416L69.2729 173.527L69.1714 173.598L69.07 173.669L69.0091 173.73L68.9178 173.811L68.8468 173.872L68.7453 173.974L68.6845 174.045L68.583 174.136L68.5221 174.177L68.441 174.227L68.3598 174.308L68.2584 174.379L68.2076 174.41L68.1366 174.45L68.0555 174.491L67.9844 174.521L67.9236 174.552L67.8424 174.582H67.7612L67.7004 174.592H67.6395L67.5583 174.603L67.467 174.613H67.4163L67.3351 174.623L67.254 174.633L67.2033 174.643L67.1119 174.674L67.0815 174.684L67.0105 174.724L66.9395 174.775L66.8583 174.846L66.8177 174.917L66.767 174.988L66.7264 175.049L66.6858 175.12L66.6452 175.181L66.5945 175.262L66.5539 175.313L66.5032 175.384L66.4423 175.475L66.3916 175.566L66.351 175.607L66.2902 175.698L66.2394 175.769L66.1887 175.82L66.1481 175.871L66.0974 175.962L66.0467 176.023L65.9756 176.084L65.8945 176.175L65.8336 176.236L65.7423 176.307L65.6713 176.378L65.5597 176.469L65.4887 176.561L65.3669 176.682L65.2858 176.764L65.235 176.804L65.1133 176.906L65.0626 176.946L64.9408 177.027L64.8799 177.068L64.7988 177.129L64.7176 177.19L64.6466 177.24L64.5959 177.301L64.5249 177.372L64.4538 177.454L64.3727 177.514L64.3321 177.565L64.2814 177.616L64.2205 177.677L64.1495 177.738L64.119 177.778L64.0379 177.88L63.9669 177.94L63.906 178.001L63.8553 178.052L63.7944 178.113L63.7538 178.154L63.7132 178.225L63.6828 178.316L63.6219 178.417L63.5509 178.498L63.4799 178.559L63.3886 178.62L63.3074 178.681L63.2262 178.762L63.1654 178.813L63.0842 178.874L62.9929 178.935L62.8712 179.016L62.8001 179.067L62.6987 179.117L62.6378 179.158L62.5566 179.229L62.4653 179.31L62.3943 179.371L62.3334 179.412L62.2827 179.493L62.2421 179.533L62.2117 179.594L62.1711 179.655L62.1102 179.756L62.1001 179.797L62.0697 179.878L62.0291 179.99L62.0088 180.041L61.9682 180.132L61.9378 180.183L61.9073 180.274L61.8363 180.365L61.8059 180.436L61.7146 180.528L61.6841 180.558L61.6436 180.609L61.5928 180.649L61.5015 180.72L61.4508 180.741L61.3899 180.791L61.329 180.822L61.258 180.852L61.1667 180.883L61.116 180.893L61.0551 180.923L60.9841 180.964L60.9131 180.984L60.8522 180.994L60.771 181.015L60.7203 181.025L60.6087 181.086L60.5884 181.096L60.5073 181.167L60.487 181.177L60.3957 181.258L60.3247 181.319L60.2841 181.349L60.2333 181.38L60.1623 181.441L60.1015 181.502L60.0406 181.552L60 181.603L59.9797 181.623L59.9188 181.704L59.8985 181.745L59.8783 181.796L59.8681 181.857L59.8783 181.897V181.958L59.9087 182.029L59.9391 182.09L59.9696 182.171L59.9899 182.222L60.0101 182.293V182.374L60.0203 182.435L60 182.536L59.9899 182.618L59.9696 182.689L59.9391 182.76L59.9087 182.82L59.8681 182.881L59.8275 182.952L59.7869 183.003L59.7261 183.115L59.6449 183.196L59.5739 183.267L59.4927 183.328L59.4116 183.389L59.2898 183.49L59.2188 183.541L59.1072 183.602L59.0463 183.642L58.9347 183.703L58.8637 183.744L58.7724 183.794L58.7217 183.825L58.6202 183.906L58.5289 183.977L58.4579 184.018L58.3666 184.078L58.2854 184.119L58.2144 184.18L58.1535 184.221L58.0825 184.261L58.0013 184.312L57.9405 184.332L57.7984 184.393L57.7071 184.434L57.6463 184.474L57.5549 184.535L57.4839 184.586L57.3622 184.657L57.2709 184.707L57.2201 184.748L57.1288 184.789L57.0578 184.829L56.9767 184.88L56.8854 184.921L56.8651 184.931L56.8042 184.992L56.794 185.022L56.7636 185.093L56.7332 185.154L56.7129 185.205L56.6824 185.255L56.6622 185.296L56.581 185.357L56.5506 185.377L56.4491 185.458L56.3476 185.519L56.2056 185.61L56.0433 185.702L55.9926 185.732L55.881 185.773L55.8404 185.783L55.7694 185.823H55.7592L55.6983 185.854L55.6375 185.884L55.5563 185.935L55.5056 185.955L55.465 185.976L55.3838 186.006L55.323 186.037L55.2621 186.057L55.1404 186.097L55.0896 186.108L55.0085 186.138L54.9577 186.158L54.8969 186.179L54.8563 186.219L54.8055 186.28L54.7244 186.321L54.6128 186.351L54.5113 186.402L54.4302 186.432L54.3287 186.493L54.207 186.554L54.1055 186.605L54.0446 186.625L53.862 186.706L53.7606 186.757L53.6591 186.797L53.6084 186.808L53.4968 186.858L53.4562 186.919L53.3953 186.98L53.304 187.051L53.2533 187.092L53.2026 187.122L53.1214 187.153L53.0504 187.173L52.9997 187.183L52.9185 187.234L52.817 187.355L52.7765 187.406L52.7156 187.487L52.6446 187.558L52.5533 187.619L52.462 187.68L52.3808 187.731L52.3199 187.782L52.1982 187.873L52.1474 187.903L52.0866 187.924L52.0156 187.964L51.9648 187.995L51.8938 188.035L51.8329 188.066L51.7416 188.106L51.6808 188.126L51.63 188.157L51.5895 188.187L51.5489 188.228L51.5184 188.299L51.4981 188.35L51.4576 188.421L51.4068 188.502L51.3663 188.553L51.2547 188.634L51.2039 188.674L51.1431 188.725L51.1025 188.745L51.0112 188.796L50.9807 188.827L50.8894 188.867L50.7677 188.938L50.6967 188.989L50.5851 189.08L50.5242 189.131L50.4532 189.192L50.3517 189.283L50.2604 189.364L50.1792 189.425L50.1184 189.476L50.0169 189.587L49.9256 189.689L49.8546 189.76L49.743 189.882L49.672 189.973L49.5908 190.054L49.5198 190.135L49.4386 190.227L49.3574 190.328L49.2763 190.44L49.185 190.551L49.0632 190.663L48.9821 190.754L48.9009 190.835L48.84 190.957L48.7995 191.048L48.7386 191.16L48.6676 191.251H48.6067L48.5154 191.332L48.4139 191.414L48.3226 191.485L48.2009 191.586L48.14 191.667L48.0588 191.748L47.9472 191.86L47.8154 192.002L47.7545 192.093L47.7038 192.144L47.6023 192.286L47.5313 192.388L47.4603 192.499L47.3791 192.611L47.2979 192.722L47.2269 192.814L47.1661 192.905L47.1153 193.017L47.0747 193.148L47.0342 193.27L47.0139 193.382L46.9733 193.524L46.9327 193.646L46.882 193.757L46.8414 193.859L46.8008 193.96L46.7805 194.021L46.7501 194.173L46.7602 194.295L46.7501 194.386L46.7602 194.457L46.7805 194.579L46.7602 194.67L46.6892 194.772L46.6588 194.843L46.6081 194.934L46.5573 195.015L46.4965 195.096L46.4457 195.178L46.3848 195.289L46.3544 195.35L46.324 195.401L46.253 195.451L46.1616 195.533L46.0703 195.583L45.9587 195.644L45.8776 195.705L45.7863 195.746L45.6848 195.796L45.5834 195.847L45.492 195.888L45.421 195.928L45.3602 196.02L45.35 196.091L45.3602 196.202V196.294V196.365L45.3703 196.446L45.3804 196.557V196.618V196.659L45.3602 196.76L45.3297 196.852L45.279 196.943L45.2587 197.024L45.208 197.095L45.1674 197.146L45.1167 197.196L45.0355 197.267L44.9543 197.339L44.8732 197.389L44.7819 197.43L44.7007 197.47L44.6094 197.552L44.5485 197.633L44.4572 197.744L44.3963 197.825L44.3253 197.907L44.3152 197.917L44.2645 197.988L44.2239 198.039L44.163 198.12L44.1123 198.201L44.0717 198.241L44.0108 198.302L43.9601 198.363L43.8992 198.434L43.8688 198.475L43.7978 198.546L43.7369 198.607L43.6862 198.678L43.6456 198.728L43.605 198.769L43.5644 198.85L43.5137 198.901L43.4833 198.941L43.463 198.982L43.4325 199.033L43.4122 199.094V199.155L43.4224 199.215L43.463 199.266L43.5036 199.327L43.5441 199.388L43.6152 199.479L43.6354 199.5L43.7065 199.53L43.7775 199.54L43.8485 199.57L43.8891 199.581L43.9297 199.601L43.9804 199.631L44.0311 199.662L44.0818 199.692L44.1224 199.723L44.1934 199.753L44.2239 199.773L44.2543 199.794L44.2949 199.814L44.3253 199.804L44.3659 199.773L44.3761 199.753L44.3862 199.733L44.3963 199.702V199.672L44.4065 199.642L44.4166 199.601V199.581L44.4268 199.53V199.5L44.4166 199.469L44.3963 199.459L44.3862 199.469L44.3761 199.489L44.3659 199.53L44.3558 199.601L44.3456 199.631L44.3355 199.652L44.2746 199.662H44.2442L44.2137 199.642L44.2036 199.621H44.1833H44.1529H44.1326H44.1123L44.092 199.601V199.57L44.0818 199.54L44.0717 199.51H44.0615L44.0311 199.5L44.0007 199.51L43.9601 199.479L43.9398 199.459L43.9297 199.408V199.378L43.9398 199.368L43.9601 199.327V199.317L43.9398 199.286L43.9094 199.297H43.8688L43.8384 199.307L43.7978 199.286L43.7876 199.266L43.7978 199.226L43.8181 199.195L43.8586 199.175L43.8992 199.165L43.9398 199.155H43.9601L43.9905 199.114V199.073L44.0007 199.033L44.0108 199.023L44.0413 199.013H44.0615L44.0818 199.002L44.1123 198.982L44.1326 198.952L44.1529 198.901L44.1833 198.891L44.1934 198.901V198.931V198.952L44.2036 198.982L44.2137 199.013L44.2442 199.043L44.2645 199.084L44.2543 199.144V199.195L44.2442 199.236L44.2746 199.266L44.305 199.246L44.3253 199.195L44.3456 199.124L44.3659 199.023L44.3963 198.952L44.4268 198.891L44.4674 198.84L44.5181 198.769L44.5891 198.698L44.6601 198.637L44.7514 198.586L44.8022 198.556L44.8529 198.536L44.9543 198.505L45.0355 198.465L45.0862 198.414L45.1167 198.363L45.1674 198.282L45.2688 198.16L45.35 198.059L45.4312 197.978L45.4819 197.947L45.5428 197.957L45.5834 197.927L45.6341 197.907H45.6747L45.7761 197.856L45.8674 197.805L45.9587 197.724L46.0399 197.663L46.0906 197.633L46.1819 197.592L46.2225 197.541L46.253 197.46L46.2834 197.399L46.3037 197.339L46.3443 197.288L46.4153 197.196L46.466 197.136L46.4863 197.105L46.5269 197.054L46.5573 197.004L46.5979 196.943L46.6283 196.872L46.6385 196.841L46.6791 196.791L46.7298 196.72L46.7704 196.649L46.8414 196.557L46.9226 196.466L46.9733 196.385L47.0037 196.283L47.0342 196.151L47.0443 196.06L47.0545 195.969L47.0747 195.878L47.1052 195.786L47.1458 195.665L47.1762 195.583L47.2168 195.502L47.2472 195.411L47.2777 195.33L47.3081 195.208L47.3284 195.157L47.3588 195.046L47.3893 194.995L47.4298 194.924L47.4603 194.833V194.762V194.64V194.549V194.457L47.4806 194.376L47.5313 194.325L47.6124 194.244L47.653 194.153V194.072L47.7038 193.991L47.7748 193.869L47.8255 193.646L47.8458 193.575L47.8762 193.483L47.8864 193.453L47.9168 193.402L47.9878 193.27L48.0081 193.169L48.0386 193.088L48.0588 193.027L48.0791 192.996L48.14 192.946L48.211 192.885L48.3023 192.804L48.3531 192.743L48.4241 192.601L48.4647 192.489L48.4849 192.428L48.5154 192.327L48.5458 192.225L48.5864 192.144L48.627 192.073L48.769 191.911L48.8096 191.88L48.9212 191.799L49.0734 191.688L49.1444 191.637L49.2053 191.576L49.2357 191.485L49.256 191.414L49.2763 191.322L49.3067 191.241L49.3372 191.18L49.398 191.089L49.469 191.008L49.5299 190.947L49.6111 190.856L49.6821 190.785L49.743 190.724L49.8039 190.663L49.885 190.551L49.9357 190.49L50.0068 190.419L50.0981 190.348L50.1488 190.318L50.2198 190.257L50.3111 190.166L50.3923 190.095L50.4532 190.054L50.4735 190.034L50.5242 189.983L50.5546 189.953L50.5952 189.902L50.6662 189.882L50.7169 189.861L50.7575 189.841L50.7778 189.851L50.7981 189.861V189.912L50.7778 189.943L50.7575 189.963L50.7372 189.983V190.014L50.7474 190.044L50.788 190.064L50.8488 190.024L50.859 190.014L50.8894 189.993L50.8996 189.963V189.902L50.9097 189.8L50.9199 189.74L50.9503 189.669L50.9706 189.648L50.9807 189.669L51.001 189.699L51.0112 189.719H51.0315L51.072 189.689L51.0923 189.658H51.1228L51.1431 189.689L51.1329 189.729V189.76H51.1532H51.1735L51.2445 189.719L51.2851 189.679L51.3257 189.648L51.3663 189.638L51.3967 189.658L51.417 189.679L51.4576 189.709L51.5184 189.679L51.5387 189.669L51.6097 189.679L51.63 189.669L51.7011 189.587L51.7416 189.527L51.7924 189.445L51.8431 189.364L51.8634 189.293L51.8938 189.202L51.904 189.161L51.9242 189.1L51.9344 189.05L51.9445 189.009L51.9344 188.999L51.9141 188.989L51.8735 188.999L51.8329 189.019L51.7924 189.05H51.7721H51.7518L51.7315 189.06L51.7213 189.05V189.029L51.7315 188.999L51.7721 188.948L51.8025 188.877L51.8127 188.827L51.8228 188.745L51.8329 188.695L51.8431 188.613L51.8532 188.583V188.532L51.8329 188.522L51.8228 188.492L51.7924 188.482L51.7721 188.461L51.7518 188.421L51.7822 188.38L51.7924 188.37L51.8025 188.309L51.8228 188.269L51.8532 188.238L51.8837 188.248V188.309V188.35L51.8938 188.39L51.904 188.431H51.9344L51.9547 188.421L51.9648 188.39L51.975 188.34L51.9953 188.269L52.0156 188.228H52.0257L52.0663 188.248L52.0764 188.289L52.0663 188.319V188.35V188.38V188.411L52.0967 188.431L52.117 188.411H52.1272V188.4L52.1373 188.461V188.512V188.573L52.1272 188.705L52.117 188.766L52.0967 188.857L52.0866 188.908L52.0967 188.938L52.1373 188.989L52.1982 188.948L52.259 188.867L52.2996 188.776L52.3301 188.684L52.4112 188.603L52.4822 188.573L52.5736 188.532L52.6446 188.461L52.7257 188.38L52.8373 188.289H52.8881L52.9895 188.319L53.0199 188.34L53.0605 188.411L53.0707 188.502L53.0504 188.583L53.0301 188.664L52.9794 188.745L52.9286 188.816L52.8881 188.867L52.817 188.969L52.7967 189.009L52.7866 189.06L52.7967 189.141L52.8069 189.192L52.7866 189.263L52.7765 189.313L52.7866 189.354L52.8475 189.344L52.8982 189.222L52.9185 189.202L52.9895 189.141V189.09L52.9997 189.019L53.0199 188.928L53.0504 188.847L53.1113 188.816H53.1417L53.1924 188.847V188.938L53.162 188.989L53.1417 189.06V189.1L53.1823 189.171L53.2229 189.141L53.2939 189.05L53.3345 188.958L53.3547 188.837L53.4156 188.654L53.4562 188.563L53.5069 188.512L53.6287 188.411L53.6997 188.329L53.72 188.299V188.208L53.7098 188.157L53.72 188.076L53.7403 187.964L53.7504 187.893V187.853L53.7301 187.782L53.6997 187.69L53.6794 187.619L53.6693 187.528V187.416L53.6794 187.325L53.6997 187.274L53.7504 187.213L53.8214 187.173L53.8722 187.163L53.9838 187.132L54.0751 187.112L54.1867 187.092L54.3084 187.051L54.4099 187L54.5316 186.95L54.6229 186.889L54.7142 186.808L54.7751 186.716L54.8258 186.635L54.8766 186.554L54.907 186.483L54.9577 186.361L55.0287 186.31L55.1201 186.26L55.2215 186.209L55.3331 186.158L55.4143 186.128L55.4853 186.108H55.5056V186.138L55.5157 186.209L55.4954 186.351L55.465 186.432L55.4041 186.625L55.3534 186.726L55.3027 186.838L55.252 186.96L55.1911 187.092L55.1505 187.183L55.0896 187.345L55.0389 187.548L55.0287 187.711L54.9577 187.974L54.9476 188.015L54.9374 188.076L54.9171 188.197L54.8766 188.279L54.8461 188.421L54.8258 188.542L54.7954 188.644L54.7853 188.735L54.7751 188.847V188.918L54.7548 189.04L54.7447 189.141L54.7345 189.293L54.7142 189.364L54.7041 189.506L54.6838 189.618L54.6432 189.76L54.6331 189.821L54.5722 189.993L54.5316 190.064L54.4809 190.156L54.4403 190.237L54.3896 190.287L54.3389 190.358L54.3186 190.419V190.49L54.2881 190.622L54.2374 190.754L54.1968 190.856L54.1562 190.967L54.1055 191.048L54.0649 191.16L54.0243 191.282L53.9939 191.393L53.9432 191.505L53.9229 191.576L53.862 191.698L53.8417 191.738V191.769L53.8519 191.809L53.8925 191.819H53.9736L54.0345 191.799L54.1359 191.769L54.1968 191.759L54.2983 191.789L54.3591 191.83L54.42 191.901L54.4707 191.941L54.5215 191.982L54.5621 192.043L54.5823 192.134V192.266L54.5722 192.357L54.5215 192.499L54.5012 192.55L54.4403 192.651L54.3794 192.712L54.3287 192.763L54.2678 192.824L54.2171 192.905L54.1562 193.037L54.1055 193.169L54.0649 193.24L54.0142 193.341L53.9838 193.422L53.9635 193.493L53.933 193.575L53.8823 193.625L53.8417 193.717L53.791 193.838L53.6693 193.95L53.6084 194.011L53.4968 194.122L53.4055 194.204L53.3345 194.285L53.233 194.396L53.1214 194.518L53.0402 194.579L52.9083 194.66L52.817 194.711L52.7054 194.772L52.6141 194.833L52.5228 194.944L52.4315 195.035L52.3301 195.137L52.2692 195.198L52.2286 195.269L52.1474 195.391L52.1272 195.411L52.117 195.441L52.0358 195.502L51.9648 195.543L51.8735 195.604L51.8431 195.644L51.7822 195.705L51.7315 195.756L51.7011 195.796L51.6909 195.878L51.7721 195.908L51.8228 195.898L51.8431 195.918L51.7822 196.04L51.7213 196.111L51.6706 196.202L51.6199 196.304L51.5286 196.456L51.4677 196.557L51.3967 196.659L51.3257 196.76L51.2749 196.892L51.2547 197.034L51.2039 197.176L51.1126 197.278L51.0112 197.339L50.8894 197.46L50.8083 197.562L50.7169 197.663L50.5952 197.836L50.514 197.917L50.4126 197.978L50.3213 198.069L50.2401 198.181L50.1387 198.282L50.0473 198.363L49.9763 198.475L49.9357 198.597L49.9053 198.698L49.8343 198.86L49.7633 198.952L49.7227 199.002L49.6517 199.124L49.4995 199.256L49.4183 199.347L49.3067 199.469L49.2154 199.56L49.1342 199.642L49.0024 199.753L48.8502 199.844L48.7284 199.855H48.6777L48.5763 199.875L48.5154 199.956L48.556 199.997L48.5357 200.118L48.5052 200.24L48.4545 200.331L48.3632 200.443L48.2719 200.565L48.1704 200.747L48.1299 200.849L48.0893 200.981L48.0386 201.123L47.9472 201.295L47.8661 201.397L47.7849 201.488L47.7139 201.579L47.6632 201.66L47.6429 201.782L47.6124 201.884L47.5719 201.985L47.4907 202.066L47.3588 202.178L47.2878 202.249L47.1153 202.371L47.0443 202.432L46.9226 202.513L46.8313 202.584L46.7501 202.675L46.6791 202.756L46.5979 202.858L46.5269 202.99L46.4457 203.111L46.3747 203.223L46.2935 203.324L46.2428 203.436L46.2022 203.507L46.1515 203.578L46.0602 203.69L46.0095 203.75L45.9486 203.801L45.8066 203.862L45.695 203.903L45.5834 203.953L45.4616 204.004L45.3703 204.075L45.2486 204.136L45.1268 204.187L45.0456 204.237L44.9645 204.298L44.863 204.379L44.7819 204.45L44.7311 204.481L44.6804 204.532L44.6601 204.562L44.6398 204.592V204.613L44.6601 204.623L44.721 204.664L44.8123 204.704L44.863 204.745L44.9239 204.826L44.9645 204.917L44.9848 204.998L45.0254 205.12L45.0558 205.171L45.1167 205.242L45.1978 205.333L45.2688 205.414L45.3602 205.495L45.4007 205.577L45.4515 205.658L45.4819 205.739L45.492 205.82V205.911L45.4819 206.003L45.4515 206.094L45.421 206.226L45.4109 206.307L45.3602 206.429L45.2993 206.54L45.2688 206.611L45.2283 206.662L45.137 206.743L45.0964 206.784L45.0051 206.835L44.9645 206.885L44.9239 206.956L44.9138 206.987L44.9036 207.027L44.8833 207.129L44.863 207.21L44.8224 207.322L44.792 207.413L44.721 207.545L44.6601 207.636L44.5993 207.687L44.5282 207.768L44.4978 207.849L44.4877 207.991L44.4775 208.072L44.4572 208.194L44.4471 208.235L44.4166 208.316L44.2949 208.448L44.1326 208.58L44.021 208.701L43.9601 208.813L43.8384 209.006L43.7673 209.117L43.6659 209.249L43.605 209.31L43.5949 209.33L43.5644 209.371L43.4731 209.493L43.3412 209.655L43.1789 209.817L43.047 209.909L42.8137 210.132L42.7021 210.233L42.5803 210.335L42.4383 210.467L42.3267 210.568L42.1644 210.71L42.0325 210.812L41.8904 210.954L41.8296 211.015L41.7078 211.126L41.5861 211.217L41.4745 211.288L41.3426 211.37L41.2208 211.471L41.1498 211.552L41.0991 211.623L41.0687 211.674L41.0484 211.735V211.816L41.0585 211.917L41.0788 212.019L41.0991 212.131L41.1194 212.242V212.333V212.445L41.0889 212.587L41.0687 212.678L41.0179 212.77L40.9368 212.851L40.886 212.912L40.7947 212.973L40.7339 213.023L40.6628 213.105L40.6223 213.145L40.5817 213.257L40.5208 213.389L40.4701 213.419L40.4193 213.52L40.3686 213.612L40.3179 213.734L40.2469 213.876L40.1759 213.987L40.1048 214.089L39.9729 214.251L39.8208 214.403L39.7193 214.515L39.6381 214.606L39.5367 214.738L39.4352 214.87L39.3541 214.961L39.2222 215.063L39.1004 215.164L39.0091 215.255L38.928 215.377L38.8874 215.458L38.8367 215.55L38.7656 215.702L38.7149 215.844L38.6642 215.986L38.6135 216.128L38.5526 216.26L38.5019 216.381L38.441 216.493L38.3801 216.574L38.2888 216.716L38.1975 216.838L38.0859 216.97L38.0047 217.081L37.9236 217.183L37.8424 217.274L37.8018 217.325L37.6902 217.447L37.5685 217.568L37.4264 217.7L37.3047 217.802L37.1424 217.924L37.0206 218.035L36.9496 218.086L36.8279 218.198L36.696 218.319L36.6351 218.4L36.5032 218.542L36.4221 218.654L36.3206 218.776L36.1988 218.908L36.1075 219.04L36.0264 219.121L35.864 219.314L35.7322 219.476L35.6307 219.608L35.5394 219.729L35.4177 219.912L35.2858 220.064L35.1945 220.176L35.093 220.338L34.9915 220.5L34.9205 220.602L34.8698 220.693L34.8089 220.795L34.7481 220.916L34.6973 221.018L34.6466 221.109L34.606 221.201L34.5654 221.282L34.5553 221.322L34.5857 221.424L34.6669 221.515L34.7075 221.545L34.7582 221.556L34.8495 221.545L34.9814 221.495L35.1234 221.403L35.2046 221.322L35.2858 221.221L35.3365 221.14L35.3872 221.069L35.4684 220.967L35.5394 220.886L35.651 220.785L35.722 220.693L35.793 220.622L35.8539 220.551L35.9452 220.46L36.0162 220.369L36.0974 220.277L36.1583 220.196L36.209 220.156L36.2902 220.074L36.351 220.034L36.3713 220.024L36.4018 220.014L36.4525 220.034L36.5337 220.166L36.5641 220.257L36.5742 220.379L36.5844 220.541V220.663V220.825V220.886L36.6047 221.018L36.6655 221.19L36.7163 221.302L36.7771 221.424L36.8684 221.535L36.98 221.637L37.0409 221.698L37.1221 221.769L37.183 221.85L37.2235 221.972L37.2641 222.144L37.2946 222.286L37.3351 222.469L37.3757 222.641L37.4062 222.804L37.4366 222.986L37.4975 223.179L37.5279 223.341L37.5583 223.473L37.5989 223.554L37.6395 223.666L37.6699 223.828V223.93L37.6902 224.062V224.183L37.7004 224.315L37.6902 224.437L37.6699 224.569L37.6395 224.68L37.5786 224.873L37.5279 225.025L37.4873 225.127L37.4569 225.228L37.4062 225.36L37.3656 225.472L37.3453 225.543L37.325 225.604L37.2844 225.675L37.2438 225.746L37.1627 225.837L37.0916 225.928L36.909 226.141L36.8177 226.253L36.7366 226.344L36.6554 226.456L36.5641 226.557L36.4728 226.638L36.4119 226.689L36.3409 226.781L36.2496 226.852L36.1887 226.902L36.138 226.953L36.0974 227.014L36.067 227.085L36.0061 227.207L35.9452 227.278L35.8336 227.339L35.7017 227.44L35.6408 227.501L35.58 227.562L35.4684 227.653L35.3466 227.744L35.2858 227.775L35.2147 227.805L35.1336 227.836H35.0727H35.0321L34.951 227.897L34.8799 227.998L34.7886 228.069L34.6872 228.11L34.5451 228.16L34.393 228.231L34.2611 228.302L34.1901 228.333L34.0987 228.353L33.9263 228.404L33.7842 228.434L33.7031 228.465L33.6625 228.485L33.5306 228.536L33.4494 228.556L33.3277 228.576L33.1958 228.607L33.1146 228.627L33.0436 228.637L32.932 228.627L32.8712 228.607L32.8306 228.536L32.8001 228.465L32.7393 228.363L32.7291 228.312L32.6987 228.262L32.6378 228.211L32.5668 228.17L32.5262 228.14L32.5059 228.11L32.4755 228.049L32.445 227.978L32.3537 227.957L32.3132 227.978L32.2117 228.028L32.1407 228.059L32.0798 228.079L32.0494 228.12L32.0291 228.201V228.282L32.0595 228.384L32.0494 228.475L32.0291 228.576L31.9885 228.708L31.9682 228.759L31.9073 228.87L31.8668 228.972L31.8262 229.073L31.8059 229.155L31.7856 229.246L31.7653 229.337L31.745 229.439L31.6638 229.55L31.5928 229.621L31.5015 229.733L31.4609 229.794L31.4204 229.875L31.4102 229.946L31.4305 230.057L31.4711 230.149L31.4812 230.23L31.4711 230.321L31.4914 230.413L31.532 230.473L31.5827 230.504L31.7349 230.555L31.816 230.565L31.9073 230.595L31.9581 230.646L31.9784 230.666L32.0189 230.737L32.0291 230.818L32.0189 230.869L31.9986 230.971L31.9885 231.042L31.9784 231.133L31.9175 231.285L31.8668 231.387L31.8059 231.488L31.745 231.579L31.6841 231.681L31.603 231.792L31.5015 231.914L31.4001 232.026L31.3493 232.087L31.2479 232.198L31.2073 232.259L31.116 232.36L31.0551 232.432L30.9638 232.523L30.9029 232.563L30.8522 232.634L30.8116 232.726L30.7812 232.817L30.7609 232.908L30.7305 232.969L30.6696 233.081L30.6189 233.182L30.5783 233.233L30.5377 233.294L30.4768 233.334L30.416 233.385L30.3551 233.426L30.3044 233.466L30.2536 233.537L30.2333 233.558V233.629L30.2435 233.659L30.2638 233.7L30.2841 233.74L30.2536 233.903L30.1623 234.004L30.0812 234.095L30.0304 234.187L29.9696 234.329L29.9391 234.43L29.9087 234.532L29.8884 234.653L29.8783 234.745L29.858 234.937L29.8478 235.008L29.8174 235.171L29.7565 235.313L29.6956 235.455L29.6348 235.607L29.6043 235.698L29.584 235.769L29.5739 235.871L29.584 235.962L29.6145 236.084L29.6551 236.195L29.6855 236.317L29.7159 236.388L29.7565 236.52L29.7667 236.601L29.7565 236.693L29.7464 236.784L29.7159 236.896L29.6956 236.977L29.6753 237.068L29.6449 237.18L29.6043 237.291L29.5637 237.443L29.5435 237.545L29.5232 237.626V237.697V237.819V237.88L29.5435 237.981L29.5637 238.042L29.5942 238.133L29.584 238.255L29.5637 238.387L29.5536 238.468L29.4826 238.569L29.4217 238.661L29.3608 238.772L29.3203 238.874L29.3 238.985L29.2797 239.107L29.2594 239.158L29.2289 239.198L29.1884 239.239L29.1579 239.27L29.1376 239.3L29.1173 239.391L29.0768 239.574L29.026 239.686L28.9652 239.817L28.955 239.919L28.9449 240.01V240.142V240.213L28.9652 240.304L28.9753 240.426L28.955 240.528L28.9144 240.629L28.8739 240.71L28.8536 240.832L28.8434 240.994L28.8231 241.146L28.7724 241.299L28.7014 241.461L28.671 241.552L28.6101 241.654L28.4883 241.796L28.3767 241.897L28.2347 242.029L28.1332 242.12L27.9912 242.242L27.8695 242.344L27.7376 242.435L27.6057 242.516L27.4535 242.587L27.352 242.638L27.2506 242.699L27.1694 242.76L27.1086 242.82L27.0071 242.912L26.9361 242.942L26.8955 242.952L26.8346 242.962L26.7636 243.003L26.6926 243.033L26.652 243.064L26.5404 243.105L26.4694 243.125L26.3172 243.165L26.1955 243.236L26.1346 243.277L26.0737 243.338L26.0128 243.419L25.9012 243.581L25.7998 243.734L25.7288 243.865L25.6882 243.957L25.6273 244.078L25.5563 244.2L25.4954 244.373L25.4853 244.434V244.535L25.4954 244.636V244.647L25.5563 244.799L25.5867 244.91L25.5969 245.002V245.103L25.4548 245.286L25.4041 245.377L25.3838 245.438L25.3635 245.55L25.3331 245.651L25.3128 245.692L25.2519 245.783L25.1911 245.813L25.1606 245.864V245.955L25.1708 246.006L25.2012 246.067L25.2215 246.168L25.2114 246.331V246.432L25.2012 246.513L25.1708 246.696L25.1302 246.808L25.1099 246.889L25.049 247L25.0186 247.092L24.9983 247.203L24.9882 247.315L24.9679 247.426L24.9374 247.528L24.8969 247.639L24.8563 247.741L24.8157 247.832L24.7853 247.934L24.7548 248.035V248.157L24.765 248.248L24.7853 248.309L24.7954 248.38L24.7853 248.482L24.7142 248.634L24.6432 248.725L24.5823 248.847L24.5316 248.979L24.4809 249.07L24.4606 249.121L24.3591 249.314L24.2678 249.425L24.1867 249.557L24.0954 249.658L24.0446 249.709L23.9533 249.79L23.8722 249.861L23.8214 249.902L23.7606 249.932L23.7403 249.943L23.7098 249.953L23.6794 249.963V250.074L23.6997 250.095L23.72 250.176L23.6895 250.257L23.6591 250.318L23.649 250.409L23.6895 250.632L23.7098 250.693L23.6895 250.845L23.6388 250.927L23.5171 251.048L23.3953 251.16L23.2432 251.251L23.0707 251.383L22.9489 251.485L22.8069 251.586L22.7054 251.657L22.5431 251.769L22.5228 251.83L22.3605 251.961L22.1576 252.063L21.9851 252.134L21.8634 252.185L21.701 252.276L21.5083 252.377L21.3257 252.489L21.1025 252.59L20.8996 252.661L20.7372 252.722L20.5546 252.814L20.4024 252.854L20.2705 252.905L20.0981 252.956L19.8952 253.027L19.7024 253.118L19.5705 253.169L19.3676 253.23L19.2459 253.25L18.8806 253.351L18.7284 253.372L18.5661 253.412L18.4038 253.422L18.2313 253.463L18.1502 253.453L18.069 253.422L18.0081 253.341L17.9472 253.27L17.8965 253.209L17.7951 253.138L17.6936 253.088L17.6327 253.027L17.6023 252.864L17.5719 252.773L17.4806 252.672L17.4197 252.601L17.369 252.499L17.3588 252.388L17.3182 252.327L17.2371 252.276L17.1356 252.235L17.0443 252.205L16.9327 252.164L16.8718 252.134L16.7907 252.154L16.7501 252.164L16.6588 252.205L16.5878 252.256L16.4965 252.296L16.3544 252.388L16.1718 252.469L16.0602 252.53L15.9384 252.621L15.837 252.712L15.7558 252.783L15.5935 252.966L15.5428 253.027L15.4819 253.108L15.3703 253.24L15.3094 253.29L15.2689 253.331L15.2181 253.443L15.208 253.534L15.1167 253.666V253.686L15.0659 253.828L14.9442 254.001L14.863 254.102L14.721 254.264L14.6196 254.346L14.5282 254.417L14.3558 254.508L14.2746 254.579L14.2036 254.64L14.1123 254.741L14.021 254.833L13.9499 254.904L13.8789 254.975L13.8282 255.035L13.7369 255.117L13.6963 255.137L13.6151 255.167L13.5137 255.208L13.4021 255.269L13.2702 255.34L13.1688 255.411L13.0774 255.482L13.0064 255.543L12.9253 255.634L12.8745 255.695L12.834 255.766L12.8035 255.867L12.7731 255.949L12.6919 256.06L12.6412 256.111L12.4992 256.182L12.4484 256.212L12.3977 256.243L12.4078 256.283L12.4687 256.324L12.56 256.365L12.6615 256.415L12.7224 256.456L12.7629 256.496L12.8238 256.588L12.8542 256.72L12.8644 256.811L12.8542 256.943L12.8137 257.054L12.7426 257.125L12.6108 257.247L12.5194 257.308L12.3876 257.399L12.2962 257.481L12.1846 257.531L12.0629 257.592H12.0528L12.002 257.633L11.9006 257.683L11.8397 257.704L11.7484 257.734L11.6469 257.775H11.5962L11.5049 257.805L11.4542 257.876L11.3832 257.978L11.3223 258.089L11.2513 258.211L11.2005 258.312L11.1701 258.394L11.1092 258.627L11.0889 258.749L11.0585 258.952L11.0179 259.104L10.9672 259.226L10.9165 259.297L10.886 259.368L10.8556 259.439L10.815 259.55L10.7947 259.611V259.713L10.7643 259.804L10.6933 259.946L10.6324 260.078L10.6121 260.139L10.5512 260.26L10.5411 260.281L10.5107 260.372L10.4904 260.514L10.4498 260.626L10.3991 260.727L10.3686 260.788L10.3483 260.859L10.3179 260.981L10.2672 261.113L10.1961 261.265L10.1454 261.376L10.1048 261.529L10.0541 261.66L10.0034 261.823L9.9628 261.945L9.92222 262.087L9.88163 262.198L9.84105 262.3L9.78018 262.432L9.68888 262.543L9.57728 262.685L9.5164 262.746V262.756L9.47582 262.827L9.42509 262.929L9.4048 262.99L9.33378 263.111L9.30335 263.192L9.27291 263.243L9.24248 263.314L9.23233 263.345L9.20189 263.405L9.19175 263.456L9.17146 263.578L9.16131 263.639L9.15116 263.801L9.14102 263.892V264.024L9.13088 264.085L9.11059 264.177L9.10044 264.278L9.09029 264.339L9.05986 264.44L9.03957 264.491L9.01928 264.542L8.97869 264.603L8.95841 264.633L8.93811 264.674L8.91782 264.714L8.88739 264.785L8.87724 264.856L8.86709 264.948V265.039V265.13L8.87724 265.252V265.323L8.86709 265.374L8.84681 265.455L8.80622 265.536L8.75549 265.627L8.70477 265.708L8.65404 265.79L8.58302 265.922L8.49172 266.074L8.4207 266.185L8.35982 266.246L8.27866 266.358L8.23808 266.419L8.1772 266.49L8.14677 266.591L8.10619 266.672L8.0656 266.733L8.00473 266.804L7.99459 266.825L7.954 266.926L7.92357 266.987V267.149L7.94386 267.24L7.954 267.322L7.96415 267.403V267.443L7.954 267.514V267.616L7.94386 267.677L7.93372 267.738L7.92357 267.849L7.91343 267.92L7.93372 268.042L7.92357 268.164V268.245L7.93372 268.377V268.438L7.92357 268.539L7.8627 268.691L7.81197 268.833L7.77139 268.996L7.7511 269.127L7.73081 269.188L7.70037 269.249L7.65979 269.33L7.6395 269.422L7.58878 269.483L7.5279 269.564L7.45688 269.685L7.39601 269.756L7.32499 269.838L7.22354 269.959L7.16266 270.01L7.0815 270.081L7.02063 270.142L6.91917 270.233L6.83801 270.294L6.73656 270.365L6.68583 270.406L6.61481 270.436L6.5235 270.467L6.46263 270.497L6.40176 270.528L6.36117 270.558L6.3003 270.588L6.23943 270.599L6.13798 270.629L6.05682 270.659L6.00609 270.69L5.95536 270.72L5.88435 270.761L5.79303 270.812L5.70173 270.862L5.59013 270.903L5.5394 270.933L5.43794 270.994L5.40751 271.035L5.35678 271.126L5.33649 271.207L5.3162 271.288L5.30606 271.339V271.4L5.28576 271.471L5.26547 271.532L5.25533 271.573L5.22489 271.654L5.17416 271.735L5.14373 271.806L5.12344 271.857L5.10314 271.928L5.093 271.988V272.09L5.12344 272.161L5.14373 272.222L5.17416 272.252L5.2046 272.344L5.18431 272.394L5.12344 272.486L5.093 272.577L5.08286 272.648L5.07271 272.709V272.76L5.08286 272.81L5.13358 272.841L5.22489 272.871L5.25533 272.881H5.3162L5.37707 272.891L5.4278 272.962L5.46838 272.983L5.51911 272.993L5.57998 273.003H5.70173L5.77275 272.993L5.81333 272.983L5.8539 272.973H5.90463H5.94522H5.9655L6.00609 273.003L6.02638 273.054L6.05682 273.145L6.04667 273.236L6.00609 273.358L5.97565 273.449L5.93507 273.531L5.86405 273.622L5.80318 273.754L5.72201 273.876L5.60027 274.068L5.51911 274.19L5.40751 274.292L5.32634 274.363L5.23504 274.474L5.16401 274.565L5.093 274.636L4.97126 274.728L4.89009 274.789L4.80893 274.87L4.77849 274.91L4.74806 274.951L4.72777 274.992L4.70747 275.073V275.154L4.71762 275.255V275.357V275.428L4.70747 275.56L4.69733 275.651L4.67704 275.752L4.65674 275.813L4.6466 275.884V275.925L4.65674 276.006V276.047L4.6466 276.097V276.158V276.219L4.65674 276.29L4.68719 276.371L4.71762 276.463L4.72777 276.524L4.73791 276.615V276.706V276.737V276.777V276.828V276.858L4.74806 276.909L4.77849 276.97L4.80893 277.01L4.84951 277.071L4.87994 277.163L4.90024 277.234L4.94082 277.335L4.95096 277.437L4.96111 277.477L4.97126 277.538L5.01184 277.639L5.07271 277.721L5.10314 277.771L5.15387 277.842L5.18431 277.903L5.19446 277.944L5.14373 278.106L5.12344 278.197L5.06256 278.319L5.02198 278.492L4.9814 278.593L4.96111 278.705V278.806L4.95096 278.857L4.96111 278.948V279.04L4.94082 279.151L4.92053 279.222L4.8698 279.303L4.83936 279.384L4.80893 279.496L4.79879 279.537L4.76834 279.628V279.729L4.77849 279.821L4.78864 279.892L4.80893 280.003L4.81907 280.105L4.82922 280.227V280.308L4.78864 280.45L4.77849 280.511L4.76834 280.643L4.74806 280.734L4.73791 280.845V280.937L4.7582 280.998L4.80893 281.109L4.83936 281.15L4.87994 281.211V281.312L4.83936 281.434L4.78864 281.556L4.76834 281.627L4.7582 281.657L4.77849 281.809V281.88L4.73791 281.972L4.69733 282.053L4.65674 282.114L4.6466 282.195L4.63646 282.276L4.61617 282.327L4.57559 282.398L4.52486 282.438L4.47413 282.479L4.44369 282.57L4.45384 282.651L4.44369 282.773L4.4234 282.834L4.40311 282.915L4.38282 283.027L4.34224 283.159L4.33209 283.23L4.3118 283.341L4.29151 283.473L4.28137 283.524V283.544L4.27122 283.656L4.25093 283.727L4.2205 283.777V283.859V283.93L4.21035 284.041L4.19005 284.072L4.17991 284.143L4.19005 284.193L4.2205 284.275L4.26107 284.386L4.28137 284.467V284.528L4.26107 284.579L4.2205 284.64L4.2002 284.751V284.853L4.17991 284.934V285.015V285.117L4.2002 285.228L4.19005 285.36L4.15962 285.431L4.1089 285.523L4.09875 285.573L4.0886 285.654L4.06831 285.756L4.05817 285.817L4.03788 285.918L4.01758 286.009L3.9973 286.08V286.101L3.95671 286.162L3.89584 286.212L3.82482 286.263L3.72337 286.314L3.67264 286.344L3.6422 286.405L3.60163 286.466L3.57118 286.517L3.5509 286.628V286.72V286.791L3.53061 286.912L3.52046 287.024L3.51031 287.146L3.52046 287.257L3.56104 287.369L3.57118 287.47V287.572L3.56104 287.663L3.5509 287.765V287.846L3.54075 287.886L3.51031 288.049L3.44944 288.231L3.4393 288.302L3.39871 288.394L3.37843 288.485L3.34799 288.617L3.29726 288.769L3.18566 288.992L3.16537 289.104L3.12479 289.236L3.08421 289.327L3.06391 289.459L3.04363 289.601V289.692L3.01319 289.824V289.946V290.088L3.00304 290.179L2.97261 290.24L2.94217 290.331L2.92188 290.463V290.605L2.91174 290.666L2.90159 290.717L2.88129 290.849V290.95L2.89144 291.011L2.93203 291.123L2.97261 291.204L3.00304 291.316V291.427L3.01319 291.518L3.02334 291.64V291.711L3.01319 291.772L3.02334 291.894L3.03348 291.995L3.07406 292.087L3.09436 292.127V292.158L3.07406 292.239L3.04363 292.34L2.9929 292.452L2.94217 292.574L2.90159 292.675L2.87115 292.776L2.85086 292.858L2.83057 292.959L2.82042 293.03L2.81028 293.101V293.182L2.82042 293.314L2.83057 293.395V293.548L2.82042 293.598L2.77984 293.669L2.73926 293.781L2.71897 293.872L2.68854 293.953L2.64795 294.095L2.62766 294.197L2.60737 294.308L2.58708 294.4L2.53635 294.521L2.51607 294.593L2.48562 294.735L2.47548 294.806L2.46534 294.937L2.45519 295.029L2.4349 295.201L2.42475 295.303L2.41461 295.495L2.40447 295.566L2.39432 295.708L2.37402 295.871V295.952L2.36388 296.033V296.155V296.206L2.34359 296.256L2.31315 296.358V296.419V296.581L2.3233 296.703L2.34359 296.814L2.38417 296.906L2.45519 296.997L2.49577 297.058L2.55664 297.109L2.58708 297.139L2.59722 297.352L2.51607 297.474L2.48562 297.575L2.45519 297.646L2.40447 297.758L2.36388 297.89L2.30301 298.062V298.143L2.28272 298.306L2.24214 298.468L2.23199 298.488L2.22185 298.59L2.20155 298.772L2.18127 298.935L2.16097 299.026L2.13054 299.107L2.07981 299.188L2.03923 299.3L2.01894 299.412V299.513L1.9885 299.685L1.97835 299.858L1.93778 299.98L1.8972 300.081L1.85661 300.172L1.80588 300.254L1.77545 300.335L1.7653 300.426L1.77545 300.528L1.81603 300.629L1.82618 300.751V300.802L1.85661 300.903V301.004L1.84647 301.075V301.238L1.86675 301.4V301.532L1.84647 301.603L1.81603 301.664L1.80588 301.745L1.81603 301.877L1.82618 301.999L1.7856 302.12L1.75516 302.171V302.252V302.323L1.72472 302.425L1.674 302.587L1.6537 302.628L1.64356 302.678L1.62327 302.76V302.81V302.881L1.64356 302.962L1.66385 303.034L1.68414 303.094L1.6537 303.236L1.63341 303.297L1.64356 303.368L1.66385 303.449L1.6537 303.581L1.57254 303.703L1.49138 303.825L1.41021 303.936L1.36963 304.078L1.31891 304.2L1.24789 304.363L1.14643 304.545L1.10585 304.586L1.04498 304.667L0.963812 304.748L0.852211 304.91L0.811636 304.992L0.791341 305.174L0.771054 305.286L0.750759 305.397L0.730471 305.519L0.720324 305.59L0.669601 305.742L0.649306 305.813L0.588436 305.965L0.537706 306.097L0.497123 306.179L0.466688 306.239L0.415966 306.331L0.395671 306.381L0.365236 306.463L0.34494 306.544L0.355088 306.594L0.385523 306.666L0.405818 306.716L0.415966 306.797L0.436253 306.909L0.466688 306.97L0.547853 307.051L0.618871 307.122L0.659454 307.183L0.679741 307.224L0.710176 307.295L0.750759 307.376L0.791341 307.487L0.831924 307.548L0.862359 307.619L0.913089 307.731L0.933377 307.802L0.953672 307.893L0.973959 307.964V308.015L0.963812 308.096L0.943524 308.167L0.923237 308.238L0.892794 308.299L0.852211 308.411L0.831924 308.471L0.801489 308.542L0.760906 308.624L0.730471 308.684L0.669601 308.796L0.618871 308.877L0.578288 308.918L0.517418 308.989L0.476836 309.04L0.405818 309.1L0.34494 309.182L0.273923 309.253L0.192765 309.354L0.152183 309.384L0.091305 309.445L0.0405826 309.496L0.030435 309.516L0.0101476 309.577L0 309.648V309.75L0.0101476 309.811L0.0405826 309.892L0.0811652 309.973L0.121748 310.024L0.142035 310.064L0.192765 310.135L0.243488 310.216L0.263783 310.227L0.294218 310.257L0.324653 310.277L0.365236 310.298L0.395671 310.318L0.456541 310.338H0.486983L0.517418 310.348L0.578288 310.338L0.649306 310.328H0.700036L0.750759 310.348L0.801489 310.379L0.811636 310.389L0.842072 310.47L0.862359 310.521L0.882654 310.592L0.902942 310.643L0.943524 310.683L0.994254 310.724L1.04498 310.764L1.12614 310.886L1.15658 310.957L1.19716 311.059L1.21745 311.099L1.27832 311.18L1.30876 311.231L1.34934 311.292L1.36963 311.343L1.38992 311.393L1.41021 311.464L1.42036 311.515V311.576L1.43051 311.637L1.44065 311.667L1.47108 311.708L1.5421 311.759H1.5624L1.63341 311.799L1.68414 311.901L1.70443 311.961L1.74501 312.063L1.7653 312.103L1.7856 312.164L1.84647 312.235L1.8769 312.306L1.92763 312.357L1.96821 312.408L1.99865 312.459L2.0088 312.479L2.03923 312.54L2.05952 312.57L2.1001 312.621L2.13054 312.641L2.19141 312.631H2.22185L2.25228 312.621L2.26243 312.611L2.29287 312.56L2.30301 312.469V312.448L2.34359 312.438L1.92763 311.454L1.674 310.825L1.47108 310.257L1.4508 310.156L1.43051 310.064L1.44065 309.943L1.4508 309.729L1.48123 309.415L1.50153 309.1L1.46094 308.766L1.44065 308.583L1.32905 307.487L1.83632 306.148L2.16097 305.052L2.4349 304.119L2.52621 303.663L2.60737 303.257L2.68854 302.546V302.536L2.80014 302.07L2.95232 301.917L3.38857 301.025L3.70308 300.051L4.13933 298.884L4.36253 298.448L4.41326 298.316L4.44369 297.971L4.48427 297.393L4.51471 296.997L4.54515 296.804L5.05242 294.724L6.12783 290.382L7.98445 290.281L16.9226 290.2H23.9838L32.7088 290.24L64.9307 290.281H84.6229L93.5509 290.321L118.681 290.291L143.903 290.189L149.452 290.342L157.406 290.392L162.215 290.402L162.124 287.927L161.566 275.316L161.048 264.004L160.703 260.666L160.105 254.396L159.303 246.524L159.05 243.571L158.36 241.319L156.787 235.871L156.25 233.933L157.193 231.376L157.863 229.652L158.482 228.678L160.085 226.314L161.322 224.478L161.444 224.325L161.525 224.224L161.637 224.102L161.769 224.001L163.088 223.199L167.765 220.287L174.856 215.895L178.488 213.622L181.532 213.115L184.91 212.526L187.183 212.171L187.396 212.12L187.568 212.06L187.782 211.958L188.867 211.451L190.419 210.73L192.103 209.949L193.534 209.29L196.141 208.062L197.349 207.839L199.327 207.433L201.742 207.078L201.711 195.167L201.691 183.571L201.62 162.164Z" fill="#6CB09A"/>
</svg>
