<svg width="331" height="254" viewBox="0 0 331 254" fill="none" xmlns="http://www.w3.org/2000/svg">
<path d="M4.22436 220.996L4.04833 221.072L3.8723 221.197L3.46997 221.424L2.99222 221.675L3.04256 221.902L3.11799 222.103L3.14308 222.279L3.21851 222.53L3.26885 222.807L3.34428 223.083L3.31911 223.435L3.24368 223.888L3.16825 224.466L3.04256 224.944L2.91679 225.371L2.76593 225.899L2.66533 226.428L2.64023 226.855V227.232L2.53963 227.735L2.3636 228.313L1.93619 229.068L1.60929 229.47L0.905247 230.35L0.502923 230.954L0.226369 231.456L0.125769 231.809L0.0251692 232.211V232.462L0 232.789L0.0251692 233.116L0.1006 233.493L0.326893 233.971L0.452662 234.323L0.553185 234.7L0.628616 235.128L0.678954 235.48L0.704047 235.882L0.729216 236.184L0.754385 236.485L0.779478 236.636L0.804647 236.787L0.880078 237.039L1.05611 237.491L1.30757 237.919L1.53386 238.145L1.93619 238.598L2.06188 238.648L2.64023 238.422L2.91679 238.271L3.14308 238.145L3.39454 238.069H3.57057L3.69626 238.271L3.7466 238.698L3.72143 239.1L3.7466 239.402L3.79686 239.754L3.8723 240.081L3.99806 240.257L4.29979 240.307L4.60151 240.333L4.75237 240.408L5.0541 240.659L5.20496 240.835L5.30556 241.112L5.45642 241.464L5.65754 241.715L5.909 241.992L6.21073 242.294L6.53762 242.545L6.86451 242.822L7.16624 243.023L7.44287 243.199L7.79485 243.375L8.02114 243.45L8.27261 243.551L8.47381 243.576L8.80062 243.551L9.10242 243.476L9.35381 243.4L9.75613 243.274L10.0579 243.325L10.3093 243.425L10.4853 243.551L10.7619 243.677H11.114L11.4659 243.627L11.8934 243.576L12.2203 243.526H12.5472L13.0752 243.627L13.6284 243.727L14.1816 243.777L14.6342 243.802H15.0617H15.4891L15.8914 243.752L16.344 243.727L16.9475 243.677L17.551 243.702L18.2802 243.752L19.2608 243.677L19.5625 243.652L19.9648 243.627L20.4175 243.677L21.2221 244.155L21.4233 244.305L21.6496 244.481L21.8759 244.582L22.5296 244.356L22.7056 244.18L22.932 243.928L23.4348 243.627L23.636 243.702L23.8874 243.903L24.0634 244.18L24.1892 244.456L24.4658 244.984L24.692 245.311L24.8681 245.512L24.9435 245.638L24.9938 245.839L24.9687 245.915L24.6166 245.89L24.3401 245.915L23.8874 246.116L23.5857 246.292L23.3091 246.443L22.9068 246.669L22.429 246.87L22.2028 246.971L21.8256 247.071L21.4484 247.197L21.197 247.272L20.8449 247.448L20.518 247.624L20.3169 247.826L20.2415 248.002L20.1911 248.278L20.166 248.58L20.1911 248.831L20.2415 249.083L20.3169 249.385L20.5432 249.787L20.7947 250.089L21.0964 250.365L21.4987 250.642L21.8004 250.868L22.1022 251.044L22.3034 251.195L22.4793 251.346L22.7559 251.673L22.932 251.949L22.9822 252.226V252.553L22.9068 252.88V253.081V253.458L22.9571 253.684L23.0325 253.835L23.1079 253.911L23.284 253.961L23.7365 253.86L24.0132 253.709L24.2646 253.609L24.5412 253.584L24.9183 253.609L25.1195 253.508L25.3961 253.106L25.5973 252.704L25.9745 252.176L26.1253 251.874L26.3264 251.698L26.5527 251.497L26.7791 251.346L27.1059 251.094L27.3323 250.969L27.5586 250.843L27.7849 250.667L28.1118 250.516L28.162 250.541L28.2877 250.566L28.4386 250.793L28.5141 250.944L28.5895 251.044H28.69L28.9667 250.793L29.1175 250.592L29.2936 250.466H29.5953L29.8216 250.642L29.897 250.893L30.0227 251.27L30.2239 251.673L30.4754 251.799L30.9279 251.874H31.2799L31.4811 251.824L31.7074 251.673L31.9337 251.497L32.16 251.472L32.4617 251.698L33.2161 252.377L33.543 252.528H33.8698L34.071 252.477L34.2721 252.402L34.4482 252.327L34.6493 252.226L34.8757 252.176L35.2025 252.226L35.5043 252.427L35.806 252.628L36.1077 252.804L36.2838 252.905L36.4597 252.98L36.7364 253.056H36.862L37.0632 252.98L37.2392 252.855L37.3901 252.754L37.4404 252.704L37.5158 252.653L37.5913 252.578L37.6415 252.427L37.6667 252.151L37.6415 251.949L37.5913 251.622L37.541 251.321L37.5158 251.044L37.4907 250.868L37.5158 250.466L37.5913 250.239L37.717 249.862L37.8678 249.535L37.9936 249.309L38.4462 249.259L38.6725 249.309L39.0245 249.359L39.2508 249.334L39.3765 249.309L39.4771 249.183L39.5274 249.108V248.957V248.781L39.628 248.555L39.7788 248.429L39.8794 248.354L40.0806 248.404L40.2063 248.505L40.2818 248.605L40.4326 248.831L40.4829 248.907H40.7343L40.9104 248.831L41.0612 248.731L41.363 248.63L41.8407 248.555L42.067 248.58L42.4945 248.655L42.8465 248.756L43.5254 248.982L44.0031 249.133L44.3803 249.234L44.6066 249.334L44.8581 249.385L44.9586 249.334L45.009 249.183L45.034 249.058L45.0592 248.882L45.0844 248.731L45.1095 248.505V248.404L45.3107 248.429L45.4364 248.404L45.537 248.379L45.9896 248.303L46.2662 248.178L46.4421 248.052V247.901L46.3416 247.197L46.4171 247.021L46.769 246.946L47.1211 247.071L47.2971 247.122H47.5737L47.7748 246.996L47.8502 246.92L47.976 246.82L48.328 246.594L48.5292 246.493L48.7052 246.468L49.1075 246.418L49.3087 246.342L49.5601 246.292L50.0379 246.367L50.239 246.418L50.7168 246.493H50.9179L51.1693 246.418L51.2699 246.317L51.5214 246.04L51.798 245.99L51.9237 246.015L52.1249 246.191L52.2505 246.392L52.2757 246.543L52.3511 246.669L52.678 246.795L52.8289 246.845L53.0301 246.895L53.1558 247.046V247.172L53.1055 247.348L53.0552 247.448L53.0301 247.65L53.0804 247.851L53.2061 247.926L53.4073 247.951H53.5329L53.5581 247.926L53.6587 247.876L53.7844 247.8L54.0359 247.926L54.1616 248.178L54.3376 248.429L54.4885 248.479L54.7147 248.429L54.8908 248.278L55.0165 248.178L55.5697 248.027H55.7709L56.0474 248.052L56.3491 248.002L56.4497 247.851L56.4749 247.624L56.5 247.423L56.5252 247.172V246.895V246.518L56.5503 246.443H56.6006H56.8018H57.1286L57.3549 246.493L57.6315 246.568L58.1847 246.77L58.5116 246.946H58.8385L58.9642 246.82L59.0396 246.669L59.2911 246.418L59.4922 246.292L59.7688 246.141L60.3975 246.267L60.6238 246.342L60.85 246.443L61.0512 246.568L61.1769 246.971L61.2272 247.172L61.3278 247.448L61.4284 247.624L61.705 247.876L61.8056 248.027L61.9564 248.153L62.057 248.303L62.2581 248.655L62.3587 248.982L62.4844 249.284L62.585 249.611L62.8616 249.938L62.937 249.963L63.1634 249.988L63.3393 249.913L63.6914 249.636L63.968 249.41L64.144 249.359L64.7223 249.334H64.9989L65.3258 249.41L65.4766 249.586V249.711L65.5269 249.963L65.7281 250.089L65.9796 250.189V250.315L65.9544 250.441L65.9292 250.667L65.9796 250.868L66.055 250.893L66.231 250.868L66.4573 250.768L66.759 250.642L66.8847 250.516L66.9099 250.265L67.0608 249.762L67.2619 249.41L67.4379 249.234L67.7397 248.982L68.0917 248.706L68.4689 248.454L68.7203 248.278L68.9215 248.027L68.9466 247.901L68.8964 247.8L68.8209 247.725H68.67L68.4689 247.775L68.2426 247.826L68.0163 247.901L67.7648 247.926L67.4128 247.901L67.2871 247.851L67.2368 247.775L67.1614 247.7L67.1362 247.549V247.348L67.2116 247.222L67.3877 247.021L67.5385 246.946L67.6894 246.895L68.0665 246.82H68.318L68.6449 246.719L68.8209 246.568L69.1981 246.367L69.3741 246.216L69.7513 245.94L70.1033 245.764L70.581 245.487L71.1342 245.16L71.6119 244.959L71.9388 244.859L72.3663 244.733L72.7183 244.632L73.1709 244.532L73.2715 244.456L73.3972 244.532L73.9755 244.959L74.3527 245.261L74.6293 245.462L74.9059 245.663L75.2076 245.814L75.5597 246.091L75.6603 246.191L75.7608 246.267L75.786 246.367V246.443L75.7105 246.493L75.4088 246.568L75.2328 246.644L75.1573 246.845L75.0567 247.046L74.9311 247.474L74.8305 247.725L74.7299 247.901L74.6042 248.077L74.5036 248.203L74.4533 248.404L74.4785 248.505L74.6544 248.555L74.8807 248.53L75.1573 248.404L75.4088 248.379L75.7357 248.555L76.1129 249.033L76.2385 249.334L76.3643 249.611L76.4648 249.862L76.5906 250.089L76.7415 250.315L76.8923 250.441L77.018 250.541L77.1689 250.642L77.4455 250.692L77.6466 250.617L77.9233 250.441L78.3256 250.064L78.9039 249.561L79.2559 249.234L79.6331 248.907L79.9096 248.681L80.2617 248.404L80.4628 248.253L80.9406 247.951L81.0914 247.876L81.4435 247.675L81.5189 247.7L81.5944 247.775L81.6195 248.077L81.6446 248.354L81.6698 248.479L81.695 248.53L81.8709 248.681L82.0973 248.605L82.4744 248.404L82.7259 248.253L82.9019 248.178L83.0025 248.153L83.1533 248.203L83.2791 248.228L83.6562 248.203L84.2597 247.851L84.6118 247.7L84.9889 247.574L85.19 247.524H85.3158L85.7181 247.599L85.9947 247.675H86.3216L86.4724 247.624L86.6485 247.373L86.7239 247.172L86.7742 247.046L86.8998 246.795L87.0508 246.669L87.2771 246.568L87.5285 246.518H87.7045L87.7799 246.594L88.0062 246.845L88.308 247.197L89.0372 247.499L89.4898 247.65L90.0178 247.75L90.2944 247.775L90.6213 247.8L90.9984 247.725L91.4762 247.524L91.8283 247.272L92.306 247.071L92.9597 246.77L93.2363 246.669L93.5381 246.543L93.7392 246.468L93.9152 246.443H94.1667L94.4684 246.342L94.8205 246.191L95.0216 246.091L95.1976 245.99L95.3737 245.94L95.625 245.915L95.9771 245.864L96.2286 245.789L96.4046 245.688L96.7314 245.537L96.8823 245.462L97.0835 245.437L97.4858 245.537L97.5361 245.663V245.839L97.5109 245.915L97.3852 246.091L97.3349 246.292L97.3098 246.468L97.3349 246.568L97.4858 246.719L97.7875 246.845L98.2149 246.87L98.567 246.845L99.0699 246.669L99.4722 246.443L99.8997 246.216L100.453 245.89L100.855 245.663L101.207 245.462L101.584 245.211L101.685 245.085L101.911 244.833L102.037 244.683L102.163 244.557L102.238 244.507L102.49 244.356L102.64 244.23L102.917 244.054L103.118 244.029L103.244 244.104L103.445 244.23L103.571 244.305L103.822 244.356L104.25 244.155L104.803 243.727L105.13 243.45L105.557 242.897L106.161 241.942L106.714 241.313L107.016 240.961L107.418 240.559L107.72 240.282L107.921 240.031L108.147 239.704L108.323 239.553L108.449 239.503L108.65 239.478L108.725 239.528L108.851 239.779L108.901 239.88L108.927 239.981L108.952 240.182V240.408L108.901 240.559L108.826 240.735L108.7 240.986L108.65 241.087L108.575 241.313L108.549 241.464L108.6 241.665L108.7 241.766L108.776 241.791L108.901 241.69L109.052 241.514L109.178 241.313L109.304 241.137L109.505 241.037L109.857 240.861L110.486 240.609L110.762 240.458L110.888 240.383H111.089L111.19 240.433L111.366 240.483L111.491 240.559L111.567 240.609L111.592 240.911L111.416 241.137L111.19 241.288L110.988 241.389L110.335 241.69L110.284 241.766L110.234 241.866L110.259 242.093L110.36 242.344L110.46 242.47L110.586 242.57L110.812 242.621L110.963 242.646L111.164 242.671H111.416L111.642 242.696L111.944 242.671L112.221 242.621H112.447L112.648 242.671L112.698 242.721L112.749 242.897L112.774 243.098L112.799 243.274L112.925 243.752L112.975 243.878L113.05 244.029L113.151 244.18L113.352 244.23L113.729 244.205L114.609 243.978L115.188 243.677L115.791 243.375L116.344 242.998L117.099 242.394L117.451 242.067L118.23 241.439L118.909 240.835L119.362 240.408L119.814 240.106L120.317 239.779L120.468 239.704L120.619 239.578L120.795 239.427L121.021 239.176L121.222 238.799L121.499 238.22L122.002 237.541L122.379 237.114L123.083 236.36L123.435 236.033L123.938 235.58L124.215 235.404L124.818 235.077L125.069 234.952L125.245 234.826L125.572 234.574L125.698 234.298L125.95 233.644L126.327 232.739L126.478 232.286L126.628 231.783L126.729 231.482L127.006 230.903L127.156 230.627L127.584 230.074L127.936 229.696L128.539 229.017L128.942 228.565L129.52 227.936L130.098 227.383L130.45 226.93L131.079 226.05L131.481 225.447L132.009 224.567L132.387 224.014L132.965 223.335L133.191 223.008L133.543 222.404L133.694 222.153L134.046 221.55L134.197 221.298L134.524 220.971L134.951 220.695L135.655 220.242L136.862 219.513L137.39 219.161L139.352 218.18L140.03 217.853L140.609 217.577L141.615 217.074L142.092 216.822L143.023 216.269L143.827 215.716L144.632 215.163L145.21 214.735L145.763 214.308L146.292 213.981L146.568 213.805L147.096 213.579L147.473 213.528L147.85 213.428L148.479 213.201L149.812 212.472L150.29 212.171L151.17 211.668L151.471 211.517L151.949 211.24L152.427 210.989L152.879 210.662L153.659 210.209L154.137 209.882L154.614 209.581L155.117 209.329L155.494 209.178L155.796 209.053L156.374 208.701L156.802 208.474L157.204 208.323L157.732 208.122L158.386 207.971L158.839 207.846L159.266 207.77L159.568 207.695L159.895 207.544L160.222 207.418L160.498 207.242L160.674 207.091L160.926 206.89L161.001 206.815L161.026 206.79L161.077 206.739L161.177 206.614L161.303 206.513L161.554 206.161L161.906 205.834L162.258 205.557L162.661 205.18L163.918 204.275L164.521 203.521L164.924 203.043L165.2 202.741L165.527 202.616H166.256L166.558 202.666L166.935 202.792L167.363 202.993L167.463 203.118L167.614 203.42L167.84 203.973L167.966 204.426L168.117 204.703L168.369 204.853L168.57 204.728L168.721 204.602L168.871 204.476L169.173 204.25L169.601 203.873L169.777 203.672L170.129 203.395L171.009 203.219L171.386 203.018L171.713 202.792L172.165 202.037L172.92 201.409L173.749 200.956L175.183 200.252L175.862 199.875L176.314 199.623L176.591 199.573L176.968 199.246L177.018 199.146L177.219 198.919L177.722 198.492L178.376 198.014L178.477 197.863L178.451 197.662L178.301 197.436L178.099 197.159L177.873 196.807L177.722 196.48L177.597 196.028L177.521 195.726L177.496 195.55L177.546 195.299L177.923 194.946L178.326 194.594L178.728 194.293L179.256 193.84L179.658 193.388L179.985 193.01L180.74 192.231L181.419 191.502L181.645 191.024L181.569 190.898L181.393 190.747L181.142 190.622L180.337 190.496L179.91 190.446L179.608 190.295L179.432 189.943L179.256 189.591L179.105 189.515L178.879 189.465L178.653 189.415L178.451 189.314L178.15 189.063L177.898 188.761L177.672 188.535L177.446 188.233L177.27 187.881L176.993 187.403L176.817 186.95L176.566 186.347L176.49 185.97L176.465 185.517V185.115L176.49 184.713L176.641 184.361L176.993 184.109L177.446 183.908L177.823 183.757L177.923 183.531L177.949 183.129L178.15 182.978L178.351 182.852L179.583 182.198L179.709 181.947L179.658 181.695L179.583 181.469L179.709 181.243L179.86 180.991L179.91 180.815L179.885 180.539L179.91 180.212L180.036 180.061L180.186 179.935L180.362 179.608V179.181L180.287 178.929L179.96 178.2L179.935 177.898L180.136 177.471L180.262 177.27L180.186 176.817L180.212 176.339L180.488 176.239V175.837L180.212 175.132L180.237 174.806L180.161 174.076L180.086 173.171L180.011 172.895L179.784 172.794L178.753 172.467L178.502 172.316L178.351 172.065L178.25 171.738L177.873 170.958L177.446 170.078L177.37 169.701L177.345 169.123V168.645L177.446 167.539V167.237L177.37 167.111L177.169 167.137L176.666 167.086L176.616 166.935L176.566 166.231V166.055L176.541 165.754V165.376L176.465 165.15L176.39 164.924L176.289 164.647L176.138 164.295L175.811 163.667L175.51 163.289L175.258 163.189L174.931 163.164L174.579 163.139L174.177 163.189L173.674 163.214L173.423 163.189L173.297 162.988L173.121 162.585L172.945 162.46L172.643 162.334L172.266 162.208L171.788 162.007L171.436 161.831L171.26 161.705L170.933 161.58L170.732 161.529L170.632 161.58L170.531 161.529L170.305 161.504L170.028 161.454H169.751L169.525 161.479L169.274 161.554L169.047 161.73L168.846 161.982L168.142 162.786L167.74 163.365L167.312 163.943L166.684 164.647L166.156 165.175L165.678 165.678L165.502 165.955L165.15 166.407L164.647 167.489L164.496 167.74L164.22 167.715L164.018 167.564L163.591 167.514L163.39 167.715L163.214 168.092L163.063 168.419L162.937 168.595L162.812 168.67L162.636 168.746L162.258 168.67L162.133 168.645L161.705 168.494L161.303 168.369L160.75 168.067L160.197 167.74L159.844 167.489L159.316 166.885L158.914 166.508L158.562 166.382L158.185 166.256H157.757L157.355 166.332L157.129 166.407L157.003 166.558L156.978 166.734L157.003 167.061L156.953 167.363L156.802 167.489L156.5 167.639L156.173 167.74L155.771 167.815H155.268L155.042 167.715L154.841 167.564L154.614 167.438L154.212 167.413L153.759 167.463L153.282 167.489L152.854 167.564L152.553 167.69L152.276 167.991L151.999 168.167L151.672 168.042L151.496 167.966L151.27 167.866L151.144 167.841L151.019 167.991L150.994 168.167L150.943 168.293L150.767 168.394L150.616 168.419L150.466 168.469L150.365 168.721L150.491 169.048L150.616 169.299L150.692 169.576L150.591 169.852L150.365 169.902L150.038 169.953L149.736 170.053L149.409 170.28L148.932 170.657L148.479 170.808L148.278 170.732L148.027 170.581L147.7 170.43L147.297 170.254L146.97 170.154L146.467 170.104L146.09 170.129L145.562 170.254L144.783 170.104L144.531 170.028L144.154 169.978L143.903 169.953L143.702 169.978L143.375 170.078L142.646 170.38L142.369 170.556L142.118 170.757L141.765 171.134L141.388 171.587L141.187 171.914L140.735 172.668L140.559 172.794L140.408 172.643L140.207 172.568L140.03 172.719L139.804 172.869L139.452 172.844L139.326 172.693L139.201 172.618L138.924 172.668L138.773 172.794L138.597 172.895L138.295 173.121L138.12 173.222L137.969 173.272H137.793L137.692 173.146L137.541 172.945L137.491 172.744L137.415 172.543V172.266L137.39 172.04L137.315 171.738L137.29 171.637L137.189 171.587L137.013 171.562L136.762 171.537L136.485 171.612L136.284 171.763L136.032 171.939L135.53 172.14L135.203 172.241L134.775 172.392L134.122 172.517L133.845 172.693L133.644 173.071L133.593 173.372L133.191 174.076L132.915 174.328L132.588 174.554L132.211 174.73L131.481 174.982L131.004 175.107L130.652 175.258L130.174 175.61L129.847 175.686L129.445 175.56L129.269 175.409L129.093 175.208L128.791 175.107L128.464 175.057L128.062 175.032L127.76 175.082L127.634 175.158L127.433 175.183H126.955L126.83 175.107L126.754 174.906L126.628 174.63L126.402 174.303L126.201 174.202L125.698 173.951L125.421 173.548L125.019 173.196L124.516 172.895L123.837 172.643L123.46 172.517L123.259 172.492L123.083 172.467H123.008L122.731 172.442L122.429 172.341L122.228 172.04V171.813L122.178 171.411L122.128 170.883L122.027 170.43L121.926 170.053L121.776 169.626L121.625 169.349L121.574 169.022L121.7 168.846L122.027 168.645L122.454 168.419L122.63 168.218L122.656 167.941L122.605 167.639L122.53 167.237L122.505 166.835L122.53 166.483L122.58 165.527L122.605 165.175L122.555 164.823L122.63 164.521L122.907 164.169L123.108 163.943L123.41 163.541L123.586 163.34L123.787 163.113L124.265 162.661L124.567 162.359L124.768 162.007L125.12 161.303L125.195 160.926L125.245 160.473L125.371 159.442L125.623 159.04L125.748 158.562L125.673 158.135L125.497 157.531L125.346 157.104L125.145 156.676L124.768 156.199L124.441 155.771L124.114 154.967L123.988 154.589L123.686 153.81L123.41 153.634L123.284 153.458V153.106L122.982 152.703L122.731 152.477L122.454 152.025L122.304 151.647L122.203 151.145L122.077 150.792L121.951 150.239L121.851 149.912L121.75 149.586L121.524 148.882L121.323 148.278L121.172 147.8L121.097 147.373L120.971 146.719L120.921 146.417L120.82 145.889V145.588L120.946 145.185L121.122 144.883L121.625 144.355L121.876 143.978L122.077 143.626L122.203 143.224L122.278 143.073L122.429 142.872L122.882 142.369L123.259 141.967L123.536 141.615L123.812 141.288L123.988 140.785L124.139 140.408L124.365 139.779V139.276L124.34 138.522L124.215 138.069L124.013 137.566L123.812 137.265L123.158 136.435L122.907 136.083L122.605 135.605L122.404 135.253L122.002 134.775L121.524 134.247L121.147 133.92L120.77 133.518L120.393 133.04L120.116 132.613L119.663 132.16L119.311 132.135L118.984 132.11L118.758 131.934L118.683 131.582V131.255L118.708 130.928L118.733 130.803L118.834 130.35L118.984 129.897L119.261 129.244L119.412 128.766L119.512 128.338L119.588 127.534V127.081V126.704L119.563 126.528L119.538 125.975L119.412 125.547L119.261 125.17L118.984 124.567L118.758 124.189L118.356 123.561L117.451 122.48L116.923 121.926L116.621 121.6L116.269 121.197L116.017 120.845L115.841 120.569L115.565 120.242L115.062 119.613L114.735 119.135L114.408 118.708L113.93 118.054L113.578 117.602L113.251 117.149L113.151 116.772L113.302 116.52L113.503 116.219L113.779 115.917L114.132 115.364L114.106 115.037L113.981 114.886L113.83 114.735L113.679 114.484V114.257L113.779 114.106L114.031 114.006H114.257L114.458 114.031L114.735 114.081L114.936 114.132L115.339 114.157L115.64 114.132L115.816 113.981L115.992 113.578L116.043 113.352L116.344 112.673L116.52 112.371L116.671 112.07L116.948 111.617L117.425 110.863L117.501 110.687L117.551 110.586L117.652 110.41L117.803 110.083L117.903 109.832L118.029 109.555L118.13 109.228L118.155 109.052L118.13 108.826V108.625V108.248L118.054 107.82L117.928 106.84L117.853 106.437V106.11L117.828 105.608L117.803 105.105V104.828L117.878 104.25L117.953 103.873L118.029 103.495L118.155 102.993V102.817V102.615L118.18 102.263V102.037L118.205 101.685V101.434L118.18 101.132L118.104 101.157L118.029 101.308L117.979 101.383L117.727 101.685L117.576 101.886L117.425 102.112L117.3 102.289L117.174 102.439L117.048 102.59L116.923 102.766L116.797 102.942L116.721 103.093L116.596 103.219L116.42 103.37L116.269 103.47L116.118 103.571L116.068 103.697L115.992 103.797L115.867 103.873L115.816 104.023L115.791 104.3L115.741 104.476L115.64 104.677L115.489 104.929L115.389 105.18L115.339 105.381L115.288 105.633L115.213 105.859L115.037 106.085L114.911 106.286L114.71 106.462V106.538L114.609 106.739L114.509 106.94L114.458 107.091L114.358 107.267L114.282 107.443L114.207 107.594L114.106 107.77L113.93 108.047L113.754 108.298L113.704 108.374L113.604 108.6L113.503 108.751L113.453 108.851L113.427 108.952L113.402 109.027L113.277 109.153L113.151 109.279L113 109.404L112.899 109.58L112.849 109.807L112.799 109.932L112.673 110.184L112.573 110.41L112.497 110.586L112.472 110.712V110.938L112.447 111.114L112.397 111.315L112.271 111.567L112.145 111.718L112.044 111.818L111.869 111.944L111.768 112.12L111.667 112.422L111.567 112.648L111.516 112.774L111.441 113.025L111.366 113.151L111.265 113.277L111.039 113.453L110.863 113.629L110.762 113.78L110.561 114.056L110.385 114.383L110.259 114.609L110.159 114.735L110.008 115.012L109.882 115.238L109.756 115.515L109.706 115.64L109.58 115.967L109.505 116.143L109.48 116.495L109.455 116.646L109.48 116.747V116.898L109.505 116.948V117.074L109.48 117.199L109.379 117.3L109.304 117.375L109.203 117.4L109.153 117.476L109.128 117.602L109.103 117.702V117.803L109.077 117.903L109.002 118.079L108.851 118.255L108.675 118.431L108.474 118.582L108.323 118.758L108.172 119.01L107.996 119.186L107.921 119.311L107.845 119.412L107.594 119.638L107.518 119.739L107.443 119.865L107.368 120.041L107.342 120.141L107.267 120.267L107.141 120.393L107.066 120.468L106.99 120.594L106.915 120.72L106.89 120.77L106.84 120.845L106.789 120.87L106.764 120.971L106.865 121.248L106.89 121.273L106.965 121.398V121.499L106.915 121.826L106.89 121.901L106.814 122.153L106.664 122.429L106.513 122.605L106.312 122.907L106.11 123.133L106.035 123.184L105.859 123.36L105.683 123.536L105.281 123.938L105.13 124.139L104.954 124.416L104.853 124.466L104.602 124.692L104.426 124.843L104.25 125.019L104.099 125.17L103.898 125.396L103.797 125.547L103.646 125.698L103.495 125.849L103.344 126L103.244 126.1L103.168 126.201L103.093 126.302L103.043 126.402L103.018 126.528L102.967 126.654L102.867 126.955L102.791 127.106L102.716 127.307L102.64 127.458L102.59 127.584L102.515 127.71L102.288 127.911L102.188 128.011L102.037 128.162L101.861 128.338L101.71 128.464L101.358 128.741L101.157 128.892L100.905 129.093L100.679 129.294L100.428 129.495L100.352 129.671L100.201 129.772L99.9751 129.948L99.6985 130.249L99.4973 130.4L99.2208 130.677L98.8939 130.928L98.6424 131.155L98.3659 131.431L98.0641 131.708L97.7875 132.009L97.4355 132.311L96.9829 132.638L96.7314 132.814L96.4297 133.04L96.304 133.141L96.0777 133.242L95.9771 133.317L95.8262 133.392L95.625 133.543L95.4239 133.694L95.0216 134.046L94.7199 134.247L94.3678 134.499L94.1415 134.675L93.865 134.876L93.6135 135.052L93.3118 135.253L93.0855 135.404L92.9095 135.555L92.6329 135.756L92.5574 135.806L92.482 135.907L92.4317 135.957L92.2557 136.033L92.0545 136.108L91.8283 136.259L91.7528 136.359L91.602 136.535L91.4762 136.711L91.2751 136.938L91.0236 137.114L90.7973 137.315L90.6465 137.491L90.3698 137.717L90.1687 137.818L89.867 138.044L89.6658 138.17L89.6407 138.27L89.5653 138.396L89.4898 138.522L89.4143 138.748L89.2886 138.924L89.1378 139.1L88.8863 139.301L88.7354 139.452L88.5846 139.578L88.3835 139.704L88.132 139.88L87.9308 140.056L87.8805 140.282L87.7799 140.533L87.7297 140.76L87.6542 140.961L87.5536 141.212V141.338L87.5034 141.539L87.4279 141.665L87.2267 141.841L87.0508 142.118L86.8244 142.495L86.5479 142.847L86.3216 143.023L86.0198 143.249L85.6678 143.45L85.4918 143.576L85.2906 143.827L85.19 143.978L85.1146 144.179L85.0895 144.456V144.607L85.0643 144.833L84.9889 145.06L84.8129 145.336L84.6118 145.512L84.4106 145.713L84.31 145.814L84.134 145.99L83.958 146.116L83.8071 146.216L83.6813 146.342L83.6311 146.543L83.6562 146.744L83.6059 146.82L83.5054 146.87L83.3294 146.97L83.2539 147.046L83.1785 147.222L83.0779 147.473L82.9773 147.75L82.927 147.825L82.8264 147.901L82.6756 148.052L82.4995 148.228L82.3236 148.404L82.223 148.479L82.1224 148.555L81.9967 148.68L81.8207 148.806L81.6698 148.882L81.5944 148.957L81.4687 149.058L81.3932 149.158L81.2926 149.334L81.192 149.51L81.1669 149.586L81.1166 149.711L81.0914 149.812V149.938V150.038L81.0412 150.264L80.9658 150.365L80.8652 150.491L80.7143 150.717L80.6389 150.868L80.6137 150.943L80.5634 151.094L80.5383 151.145L80.4377 151.245L80.3874 151.371V151.522L80.312 151.597L80.2869 151.698L80.2617 151.773L80.3371 151.924L80.3623 152.025L80.3874 152.175L80.312 152.301L80.2114 152.402L80.136 152.452L80.0354 152.578L79.9348 152.678L79.8594 152.804V152.854L79.8342 153.03L79.784 153.106L79.7337 153.156L79.6331 153.332L79.5828 153.558L79.6079 153.709L79.6331 153.785L79.6834 153.936L79.6331 154.011L79.5828 154.061L79.4822 154.112L79.4068 154.162L79.1805 154.288H79.1302L79.0547 154.363L79.0045 154.489L78.9793 154.564V154.614L79.0296 154.765L79.1553 154.916L79.2056 154.941L79.2559 155.017L79.281 155.168V155.293L79.2308 155.495L79.1805 155.62L79.0799 155.872L79.0296 155.972L78.9793 156.073L78.929 156.199L78.8788 156.299L78.8284 156.375L78.6022 156.651L78.5016 156.777L78.4261 156.953L78.3759 157.179L78.3507 157.355L78.3256 157.506V157.632L78.225 157.783L77.9987 158.034L77.8227 158.185L77.6466 158.311L77.4455 158.537L77.1689 158.789L76.9929 158.939L76.7415 159.166L76.5654 159.392L76.3643 159.694L76.2637 159.97L76.2134 160.171L76.1631 160.347L76.1129 160.523L76.0374 160.649L75.8866 160.876L75.786 161.026L75.6603 161.227L75.5848 161.404L75.5345 161.605V161.73V161.831V161.932L75.3836 162.158L75.2328 162.258L75.0567 162.359L74.9311 162.46L74.8556 162.61V162.736L74.7802 162.862L74.7048 162.962L74.6042 163.139L74.5539 163.264L74.4785 163.39L74.4281 163.49L74.2521 163.591L74.1516 163.641L74.0258 163.692L73.9253 163.817L73.8247 163.993L73.6487 164.094L73.523 164.245L73.2967 164.471L73.0452 164.672L72.7937 164.848L72.5675 165.075L72.3663 165.276L72.14 165.502L71.9137 165.754L71.788 165.879L71.6371 166.055L71.5113 166.181L71.3857 166.231L71.1845 166.382L71.0588 166.558L70.9331 166.734L70.5558 167.111L70.3547 167.313L70.2039 167.463L69.9776 167.715L69.8267 167.891L69.7261 168.017L69.6255 168.193L69.525 168.293L69.4746 168.369L69.3992 168.519L69.2735 168.67L69.0975 168.846L68.9215 169.022L68.6197 169.274L68.4689 169.425L68.3683 169.626L68.2677 169.802L68.1169 170.028L68.0414 170.28L67.9659 170.556L67.8654 170.783L67.7397 171.109L67.6642 171.311L67.614 171.461L67.5134 171.713L67.4883 171.763L67.3373 171.964L67.1362 172.165L66.9602 172.392L66.8596 172.492L66.6082 172.744L66.4573 172.895L66.3316 173.046L66.1807 173.272L66.055 173.448L65.9041 173.724L65.8287 173.976L65.7281 174.328L65.5772 174.504L65.4264 174.68L65.3258 174.831L65.2504 175.082L65.2252 175.309L65.1749 175.535L65.0492 175.862L64.9486 176.038L64.7726 176.239L64.5211 176.415L64.0937 176.717L63.8925 176.867L63.4148 177.27L63.1885 177.395L62.8616 177.622L62.6102 177.823L62.4342 178.024L62.1575 178.301L62.0067 178.477L61.7804 178.653L61.4535 178.829L61.1266 178.98L60.5986 179.256L60.3723 179.407L60.2717 179.483L59.9951 179.709L59.7939 179.86L59.5426 180.011L59.1151 180.212L58.8133 180.337L58.6373 180.388L58.3356 180.513L58.235 180.589L57.8578 180.74L57.6818 180.765L57.5309 180.84L57.2795 180.916H57.204L57.1286 180.991L57.0532 181.117L57.0029 181.243L56.8269 181.419L56.6006 181.595L56.2486 181.821L56.148 181.947L55.972 182.148L55.7709 182.324L55.5446 182.5L55.2428 182.726L54.9159 182.978L54.6393 183.204L54.5136 183.304L54.237 183.405L54.061 183.506L53.9604 183.556L53.7592 183.581L53.6084 183.732L53.5078 183.908L53.4575 184.109L53.4323 184.235L53.3569 184.31L53.2061 184.411L53.0804 184.436H53.0049L52.9295 184.411L52.8792 184.461L52.8037 184.662L52.7283 184.863L52.6278 185.039L52.5774 185.241L52.4015 185.492L52.1751 185.693L51.8231 185.92L51.5968 186.045L51.2699 186.246L51.0437 186.473L50.8928 186.699L50.7922 186.925L50.5911 187.127L50.239 187.453L50.0379 187.655L49.6607 188.082L49.4595 188.283L49.032 188.685L48.8812 188.836L48.6549 189.063L48.4789 189.289L48.2526 189.54L47.9508 189.943L47.8251 190.169L47.5989 190.471L47.3222 190.848L47.0708 191.099L46.8696 191.376L46.8445 191.401L46.769 191.577L46.6936 191.778L46.6182 191.979L46.3919 192.206L46.3667 192.256L46.0902 192.633L45.9141 192.809L45.7633 192.96L45.5118 193.186L45.2855 193.362L44.9838 193.639L44.5815 194.066L44.4809 194.343L44.4306 194.72L44.2797 195.097L44.154 195.324L43.9528 195.575L43.802 195.701L43.6511 195.852L43.4499 196.204L43.2236 196.43L43.0728 196.606L42.9973 196.883L42.9471 197.084L42.8465 197.36L42.6454 197.486L42.3436 197.562L42.1927 197.813L42.0922 197.939H42.0418L41.891 197.964L41.7653 198.064L41.5641 198.215L41.2373 198.366V198.567L41.1618 198.768L40.9606 199.095L40.8098 199.246L40.6841 199.372L40.5583 199.447L40.4074 199.573L40.332 199.699L40.2314 199.9L40.1057 200.051L40.0051 200.202L39.7286 200.403L39.5525 200.453H39.5274L39.3011 200.554L39.1502 200.73L38.9491 201.031L38.8988 201.107L38.7731 201.258L38.3456 201.66L38.1696 201.861L37.9433 202.037L37.7421 202.188L37.5913 202.264L37.3398 202.515L37.0381 202.817L36.7364 203.043L36.5352 203.244L36.3089 203.496L36.1077 203.747L35.8311 203.973L35.5545 204.2L35.2779 204.426L34.8505 204.703L34.5739 204.828L34.2721 204.979L33.9956 205.206L33.7441 205.356L33.5178 205.507L33.2915 205.683L33.0903 205.834L32.8892 205.96L32.7384 206.111L32.6126 206.186L32.4617 206.287L32.4115 206.312L32.3612 206.337L32.16 206.513L31.984 206.639L31.7074 206.815L31.4057 207.016L31.1542 207.167L30.7519 207.393L30.4754 207.594L30.2239 207.77L30.0227 207.896L29.7461 208.022L29.369 208.173L29.0169 208.323L28.5643 208.625L28.162 208.902L27.7849 209.153L27.4328 209.379L27.1311 209.581L26.6282 209.857L26.4522 209.958L26.1756 210.109L25.9493 210.209L25.7984 210.26L25.6978 210.31L25.1698 210.612L24.8429 210.813L24.6166 210.938L24.3903 211.064L24.1389 211.24L23.8874 211.416L23.6611 211.542L23.3091 211.718L22.9068 211.944L22.5547 212.12L22.2279 212.321L21.9261 212.497L21.4484 212.724L20.7947 213.025L20.518 213.151L19.99 213.403L19.5625 213.604L19.2105 213.805L19.0597 213.906L18.8334 214.031L18.2299 214.308L17.9533 214.534L17.8527 214.685L17.6264 214.911L17.3247 215.087L16.7715 215.339L16.3189 215.464L16.1177 215.565L15.816 215.741L15.288 215.967L14.8605 216.194L14.4331 216.42L13.7793 216.747L13.1004 217.023L12.6981 217.199L12.1449 217.476L11.5415 217.778L11.1642 217.979L10.5608 218.256L10.1585 218.381L9.35381 218.658L8.75036 218.96L8.32287 219.186L7.89545 219.387L7.26684 219.664L6.58796 219.99L6.1353 220.242L5.63245 220.443L4.60151 220.845L4.22436 220.996Z" fill="#7BB7A4"/>
<path d="M184.435 113.629L184.486 113.603L184.561 113.553L184.662 113.352L184.737 113.226L184.813 113.05L184.888 112.874L184.938 112.698L185.014 112.447L185.089 112.246L185.341 111.743L185.743 110.787L185.869 110.486L185.994 110.259L186.17 110.033L186.422 109.731L186.673 109.48L186.925 109.228L187.076 109.027L187.151 108.876L187.201 108.776L187.277 108.65L187.377 108.474L187.503 108.298L187.553 108.197L187.579 108.072L187.654 107.921L187.704 107.745L187.729 107.569L187.755 107.393V107.166L187.729 106.99V106.865L187.704 106.664L187.729 106.412L187.805 106.211L188.006 106.01L188.182 105.859L188.207 105.758L188.006 105.507L187.905 105.482H187.805H187.729H187.604L187.478 105.457H187.252L186.975 105.431H186.849L186.724 105.381L186.573 105.331L186.372 105.155L186.271 105.029L186.246 104.929V104.828L186.271 104.652L186.321 104.526L186.397 104.375V104.124L186.321 104.023L186.221 103.898L186.095 103.747L186.02 103.571L186.045 103.344L186.12 102.942L186.045 102.791L185.919 102.716L185.844 102.691L185.642 102.666L185.265 102.615L185.089 102.565L184.938 102.49L184.838 102.414L184.662 102.314L184.561 102.213L184.486 102.112L184.36 101.987L184.31 101.886L184.234 101.71L184.159 101.408L184.109 101.081V100.579V100.252L184.083 100.101V99.8242L183.983 99.4973L183.907 99.3465L183.706 99.1956L183.405 99.095L183.178 99.0447L182.751 98.9441L182.348 98.8687L181.996 98.7681L181.695 98.7178L181.318 98.5669L181.066 98.4161L180.94 98.2904L180.764 98.0389L180.613 97.8126L180.488 97.5863L180.312 97.2846L180.186 97.008L180.085 96.6811L179.985 96.2285L179.482 95.8011L179.004 95.7256L178.602 95.7005H178.325L177.948 95.6753L177.571 95.7005L176.942 95.7256H176.289L175.786 95.7508H175.509H174.805L174.453 95.6502L174.277 95.4742L174.202 95.273L174.176 95.097V94.7953L174.151 94.6193L174.026 94.4432L173.925 94.3427L173.699 94.2169L173.447 94.1415L173.045 94.0912L172.492 94.0158L172.064 94.0409L171.737 94.0912L171.235 94.2169L170.681 94.3175L170.153 94.3678H169.776L169.625 94.1918L169.349 93.8146L169.223 93.5632L169.097 93.2363L168.795 92.9848L168.519 92.8591L168.142 92.7334L167.79 92.5826L167.488 92.4065L167.287 92.1802L167.161 91.9036L166.935 91.5265L166.809 91.3253L166.608 90.9481L166.331 90.4201L166.13 90.0932L165.828 89.6658L165.527 89.4143L165.175 89.188L164.923 89.0623L164.32 88.8863L163.49 88.66L161.981 88.1571L161.227 87.9056L160.347 87.6793L159.668 87.5285L158.863 87.3273L157.732 86.9753L157.053 86.6735L156.676 86.4976L156.248 86.3215L155.947 86.2964L155.645 86.2461L155.393 86.221L154.966 86.1958L154.362 86.221L153.784 86.1958L153.533 86.1707L152.879 86.0952L151.747 85.9444L151.094 85.8186L150.314 85.6929L149.711 85.542L148.956 85.3912L148.328 85.2655L147.121 84.9889L146.367 84.7626L145.411 84.3602L144.958 84.1842L144.305 83.9579L143.601 83.7819L142.947 83.6813L142.218 83.6059L141.413 83.5556L140.91 83.5053L140.332 83.4299L139.502 83.279L138.873 83.1784L137.993 83.0276L137.239 82.927L136.711 82.8264L136.208 82.7007L135.454 82.4995L135.001 82.3487L134.699 82.2481L133.97 82.0721L133.115 81.8709L132.16 81.5943L131.657 81.4183L130.877 80.9909L130.475 80.7645L129.62 80.2617L128.916 79.7588L128.313 79.3313L127.961 79.0296L127.407 78.4261L126.905 77.8981L126.703 77.6466L126.402 77.2443L126.05 76.842L125.823 76.666L125.446 76.49L125.22 76.4145L124.868 76.1882L124.541 75.8865L124.415 75.6602L124.39 75.3082L124.415 75.0064L124.465 74.7801L124.516 74.6041L124.591 74.3778L124.642 74.0761L124.692 73.9001L124.767 73.5983V73.5229L124.692 73.2212L124.591 73.0955V73.196L124.566 73.3721L124.491 73.548L124.44 73.7492L124.415 73.9755L124.39 74.2773L124.34 74.579L124.29 74.7047L124.239 75.0316L124.189 75.3082L124.139 75.5345L124.088 75.8111V76.1379L124.038 76.4648L123.988 76.6408L123.887 76.9426L123.761 77.2694L123.661 77.546L123.585 77.7472L123.51 77.9987L123.485 78.3004L123.51 78.6021V78.8284L123.535 79.0296L123.46 79.2559L123.435 79.5073V79.8845V80.2114L123.334 80.5885L123.233 80.84L123.208 81.0663L123.233 81.3429L123.183 81.5943L123.083 81.8458L123.007 82.0469L122.932 82.2732L122.856 82.4744L122.73 82.751L122.705 82.9522L122.655 83.279L122.605 83.6311L122.58 83.8574L122.529 84.2597V84.5362L122.454 84.8883L122.379 85.2403L122.303 85.542L122.228 85.8438L122.026 86.3215L122.001 86.6232L121.976 86.8496L121.901 87.0759L121.825 87.3273L121.775 87.453L121.725 87.5788L121.649 87.6793L121.524 87.8302L121.448 87.9308L121.348 88.1068L121.247 88.3331L121.172 88.5091L121.121 88.6851L121.146 88.8863L121.172 89.0371L121.272 89.2131L121.373 89.3389L121.423 89.4143L121.498 89.5149L121.524 89.5652L121.498 89.6909L121.473 89.9424V90.0932L121.524 90.3447L121.549 90.5458L121.498 90.7973L121.348 91.0487L121.247 91.3504L121.146 91.6773L121.121 92.0294L121.146 92.2808L120.996 92.6077L120.945 92.7837L120.87 93.0603L120.744 93.4878L120.694 93.8398L120.618 94.1415L120.518 94.393L120.467 94.6193L120.417 94.745L120.317 94.8204L120.166 94.9964L120.116 95.1976L120.141 95.3736L120.116 95.4742L119.965 95.5748V95.6753L120.065 95.8262L120.09 96.0274L120.04 96.1279L120.065 96.3039V96.5051L120.015 96.8571L119.864 97.1589L119.814 97.2846L119.663 97.536L119.562 97.712L119.411 97.8881L119.286 97.9383L119.21 98.0641L119.235 98.2149L119.21 98.391L119.135 98.6424L119.085 98.919L119.009 99.1453L118.959 99.3213L118.858 99.5225L118.783 99.7236L118.733 99.8745V100.051L118.707 100.176V100.327L118.682 100.403L118.657 100.478L118.506 100.629L118.456 100.755L118.431 100.88V101.006V101.031V101.107L118.406 101.182L118.305 101.132L118.255 101.107L118.179 101.132L118.204 101.433V101.685L118.179 102.037V102.263L118.154 102.615V102.816V102.992L118.028 103.495L117.953 103.872L117.878 104.25L117.802 104.828V105.105L117.827 105.607L117.853 106.11V106.437L117.928 106.84L118.054 107.82L118.129 108.248V108.625V108.826L118.154 109.052L118.129 109.228L118.028 109.555L117.903 109.832L117.802 110.083L117.651 110.41L117.551 110.586L117.5 110.687L117.425 110.863L116.947 111.617L116.671 112.07L116.52 112.371L116.344 112.673L116.042 113.352L115.992 113.578L115.816 113.981L115.64 114.131L115.338 114.157L114.936 114.131L114.735 114.081L114.458 114.031L114.257 114.006H114.03L113.779 114.106L113.678 114.257V114.484L113.829 114.735L113.98 114.886L114.106 115.037L114.131 115.364L113.779 115.917L113.502 116.218L113.301 116.52L113.15 116.772L113.251 117.149L113.578 117.601L113.93 118.054L114.408 118.708L114.735 119.135L115.061 119.613L115.564 120.242L115.841 120.569L116.017 120.845L116.268 121.197L116.62 121.599L116.922 121.926L117.45 122.48L118.355 123.561L118.758 124.189L118.984 124.567L119.261 125.17L119.411 125.547L119.537 125.975L119.562 126.528L119.587 126.704V127.081V127.534L119.512 128.338L119.411 128.766L119.261 129.243L118.984 129.897L118.833 130.35L118.733 130.802L118.707 130.928L118.682 131.255V131.582L118.758 131.934L118.984 132.11L119.311 132.135L119.663 132.16L120.116 132.613L120.392 133.04L120.769 133.518L121.146 133.92L121.524 134.247L122.001 134.775L122.404 135.253L122.605 135.605L122.907 136.083L123.158 136.435L123.812 137.265L124.013 137.566L124.214 138.069L124.34 138.522L124.365 139.276V139.779L124.139 140.408L123.988 140.785L123.812 141.288L123.535 141.615L123.259 141.967L122.881 142.369L122.429 142.872L122.278 143.073L122.202 143.224L122.077 143.626L121.876 143.978L121.624 144.355L121.121 144.883L120.945 145.185L120.82 145.587V145.889L120.92 146.417L120.97 146.719L121.096 147.373L121.172 147.8L121.322 148.278L121.524 148.881L121.75 149.585L121.85 149.912L121.951 150.239L122.077 150.792L122.202 151.144L122.303 151.647L122.454 152.024L122.73 152.477L122.982 152.703L123.284 153.106V153.458L123.409 153.634L123.686 153.81L123.988 154.589L124.113 154.966L124.44 155.771L124.767 156.198L125.144 156.676L125.346 157.104L125.496 157.531L125.672 158.135L125.748 158.562L125.622 159.04L125.371 159.442L125.245 160.473L125.195 160.926L125.119 161.303L124.767 162.007L124.566 162.359L124.264 162.661L123.787 163.113L123.585 163.34L123.409 163.541L123.108 163.943L122.907 164.169L122.63 164.521L122.555 164.823L122.605 165.175L122.58 165.527L122.529 166.483L122.504 166.835L122.529 167.237L122.605 167.639L122.655 167.941L122.63 168.218L122.454 168.419L122.026 168.645L121.7 168.846L121.574 169.022L121.624 169.349L121.775 169.626L121.926 170.053L122.026 170.43L122.127 170.883L122.177 171.411L122.228 171.813V172.04L122.429 172.341L122.73 172.442L123.007 172.467H123.083L123.259 172.492L123.46 172.517L123.837 172.643L124.516 172.895L125.019 173.196L125.421 173.548L125.698 173.951L126.2 174.202L126.402 174.303L126.628 174.63L126.754 174.906L126.829 175.107L126.955 175.183H127.433L127.634 175.158L127.759 175.082L128.061 175.032L128.464 175.057L128.79 175.107L129.092 175.208L129.268 175.409L129.444 175.56L129.846 175.686L130.173 175.61L130.651 175.258L131.003 175.107L131.481 174.981L132.21 174.73L132.587 174.554L132.914 174.328L133.191 174.076L133.593 173.372L133.643 173.071L133.844 172.693L134.121 172.517L134.775 172.392L135.202 172.241L135.529 172.14L136.032 171.939L136.283 171.763L136.485 171.612L136.761 171.537L137.013 171.562L137.189 171.587L137.289 171.637L137.314 171.738L137.39 172.04L137.415 172.266V172.542L137.49 172.744L137.541 172.945L137.692 173.146L137.792 173.272H137.968L138.119 173.221L138.295 173.121L138.597 172.895L138.773 172.794L138.924 172.668L139.2 172.618L139.326 172.693L139.452 172.844L139.804 172.869L140.03 172.718L140.206 172.568L140.407 172.643L140.558 172.794L140.734 172.668L141.187 171.914L141.388 171.587L141.765 171.134L142.117 170.757L142.369 170.556L142.645 170.38L143.374 170.078L143.701 169.978L143.902 169.953L144.154 169.978L144.531 170.028L144.782 170.103L145.562 170.254L146.09 170.129L146.467 170.103L146.97 170.154L147.297 170.254L147.699 170.43L148.026 170.581L148.277 170.732L148.479 170.807L148.931 170.657L149.409 170.279L149.736 170.053L150.038 169.953L150.364 169.902L150.591 169.852L150.691 169.575L150.616 169.299L150.49 169.047L150.364 168.72L150.465 168.469L150.616 168.419L150.767 168.394L150.943 168.293L150.993 168.167L151.018 167.991L151.144 167.84L151.27 167.866L151.496 167.966L151.672 168.042L151.999 168.167L152.275 167.991L152.552 167.69L152.854 167.564L153.281 167.488L153.759 167.463L154.212 167.413L154.614 167.438L154.84 167.564L155.041 167.715L155.268 167.815H155.771L156.173 167.74L156.5 167.639L156.802 167.488L156.952 167.363L157.003 167.061L156.978 166.734L157.003 166.558L157.128 166.407L157.355 166.332L157.757 166.256H158.184L158.562 166.382L158.914 166.508L159.316 166.885L159.844 167.488L160.196 167.74L160.749 168.067L161.302 168.368L161.705 168.494L162.132 168.645L162.258 168.67L162.635 168.746L162.811 168.67L162.937 168.595L163.063 168.419L163.213 168.092L163.389 167.715L163.591 167.514L164.018 167.564L164.219 167.715L164.496 167.74L164.647 167.488L165.15 166.407L165.502 165.955L165.678 165.678L166.155 165.175L166.683 164.647L167.312 163.943L167.739 163.365L168.142 162.786L168.846 161.982L169.047 161.73L169.273 161.554L169.525 161.479L169.751 161.454H170.028L170.304 161.504L170.53 161.529L170.631 161.579L170.732 161.529L170.757 161.378V161.152L170.857 160.951H171.008L171.335 161.127L171.612 161.378L171.888 161.579L172.215 161.63L172.819 161.303L173.196 160.875L173.648 160.171L174.202 159.216L174.503 158.688L174.755 158.185L174.931 157.657L175.082 157.28L175.258 156.877L175.534 156.249L175.559 155.897L175.585 155.545L175.685 155.142L175.761 154.941L176.037 154.74L176.389 154.69L176.842 154.74L177.093 154.841L177.32 154.941L178.174 154.891L178.627 154.564L179.256 154.313L179.683 154.187L179.96 154.111L180.463 154.086L180.94 154.313L181.292 154.589L181.846 154.941L182.198 155.067L182.801 155.243L183.555 155.67L183.807 155.771H184.109L184.41 155.696L184.586 155.645L184.712 155.57L184.913 155.469L184.989 155.293L185.014 155.142L185.089 154.841L185.215 154.69L185.391 154.589H185.492L185.768 154.715L186.02 154.816L186.271 154.916L186.648 155.017L186.925 155.042L187.227 154.841L187.428 154.665L188.132 154.313L188.785 154.187L188.861 153.961V153.734L188.811 153.508L188.76 153.307L188.685 153.055L188.635 152.829L188.559 152.578L188.534 152.251V151.949L188.559 151.371L188.635 151.094L188.735 150.692L188.886 150.088L188.936 149.686L189.087 149.133L189.112 148.856L189.062 148.705L188.962 148.529L188.911 148.379L188.836 148.177L188.785 147.901L188.962 147.674L189.137 147.549L189.364 147.423L189.615 147.272L190.043 147.121L190.319 147.146L190.646 147.197H190.847L190.998 147.121L191.099 147.021L191.3 146.794L191.476 146.593L191.702 146.417L191.954 146.291L192.381 146.09L192.783 145.965L193.337 145.688L193.513 145.512L193.638 145.185L193.689 144.959L193.739 144.732L193.814 144.506L194.066 144.154L194.166 144.028L194.368 143.827L194.619 143.651L194.921 143.425L195.097 143.048L195.072 142.595L195.122 142.394L195.248 142.218L195.574 141.992L196.53 142.268L196.882 142.444L197.184 142.545L197.46 142.595L197.938 142.645L198.24 142.62L198.391 142.52L198.441 142.369L198.592 142.042L198.642 141.765L198.743 141.489L198.843 141.137L198.969 140.86L199.044 140.709L199.095 140.609L199.195 140.307L199.321 140.005L199.447 139.704L199.573 139.326V139.075V138.723L199.698 137.994L199.849 136.963L199.874 136.51L199.899 136.133L199.925 135.63L199.975 135.278V134.976L200.025 134.499L200 134.121L199.723 133.769L199.422 133.593L199.095 133.468L198.29 133.141L197.838 133.015L197.284 132.739L197.033 132.563L196.404 132.21L195.977 131.984L195.399 131.758L194.971 131.506L194.242 131.079L193.814 130.777L193.387 130.501L193.06 130.274L192.607 129.897L192.306 129.696L191.954 129.47L191.652 129.269L191.074 129.017L190.646 128.891L190.219 128.766L189.741 128.59L189.314 128.514L188.936 128.263L188.836 128.112L188.484 127.961H188.107L187.704 127.986L187.101 128.036H186.799L186.321 127.961H185.994L185.416 127.936L185.089 127.911L184.712 127.86L184.385 127.835L184.184 127.81L183.983 127.735L183.606 127.584L183.229 127.483L182.902 127.383L182.826 127.282V127.156L182.876 126.93L182.927 126.679L183.002 126.301L183.053 125.723L183.103 125.421L183.203 124.818L183.254 124.717L183.405 124.516L183.505 124.365L183.681 124.114L183.882 123.862L184.058 123.561L184.285 123.284L184.486 123.033L184.561 122.982L184.611 122.907L184.637 122.832L184.611 122.681V122.555V122.379L184.586 122.178V121.951V121.775L184.461 121.625V121.599L184.41 121.474L184.285 121.298L184.209 121.172L184.109 120.996L184.008 120.745L183.933 120.543L183.681 120.04L183.455 119.512L183.329 118.582L183.379 118.481L183.606 118.406L184.008 118.331L184.335 118.306H184.561L184.712 118.23L184.788 118.155L184.838 118.079L184.813 117.828L184.762 117.576L184.737 117.35L184.712 117.124L184.637 116.847L184.611 116.772L184.536 116.721L184.285 116.596L184.259 116.42L184.234 116.244L184.184 115.766L184.234 115.313V114.735L184.285 114.433L184.385 114.031L184.435 113.629Z" fill="#3C8E74" stroke="#EAF3E9" stroke-width="0.98"/>
<path d="M99.9512 39.125L99.8757 39.2005L99.6746 39.3514L99.5992 39.4771L99.4986 39.5525L99.3729 39.7034L99.2471 39.7537L99.1214 39.804L99.0208 39.8291H98.8951L98.7945 39.8543L98.7191 40.0051L98.6437 40.2063L98.5431 40.3823L98.4174 40.684L98.3168 40.9355L98.2162 41.1366L98.1911 41.2875L98.1157 41.5641L98.0653 41.6898L98.0151 41.9161V42.067L97.9899 42.2933L97.9396 42.4693L97.9145 42.5196L97.8642 42.595L97.7636 42.7962L97.7133 42.8967L97.6379 43.1482L97.5876 43.2991L97.5625 43.4248V43.5254L97.5121 43.6511L97.4367 43.8522L97.4116 44.0031L97.3864 44.1288L97.3613 44.2043V44.3551L97.3362 44.506V44.5814L97.3613 44.7826L97.3362 44.9334L97.2858 45.1095V45.2603L97.2104 45.4866L97.1602 45.6627V45.8135L97.2104 45.9896L97.2356 46.1656L97.2608 46.3416L97.2356 46.5679V46.6936L97.2608 46.8696L97.3362 47.0708L97.4116 47.1462L97.5625 47.2216L97.7133 47.2719H97.8894H97.9648L98.1408 47.2971L98.2665 47.3474L98.4174 47.3725H98.518L98.6939 47.4228L98.8197 47.4731H98.9957H99.0963L99.3477 47.5234H99.4483H99.6244L99.8507 47.4982H100.102L100.303 47.4731L100.404 47.4228L100.605 47.3474H100.655L100.831 47.2719H101.083H101.284L101.51 47.2216L101.736 47.1714L101.988 47.0708H102.189H102.34L102.541 47.1211H102.667L102.818 47.1462H103.044H103.195L103.371 47.1714L103.622 47.2468L103.748 47.3725L103.899 47.4479L104.075 47.5736L104.377 47.7245L104.678 47.8251L104.854 47.9005L105.081 47.976L105.257 48.0263L105.357 48.1268L105.483 48.3029L105.558 48.3783L105.76 48.4789H105.961H106.162L106.388 48.5795L106.69 48.7554L106.841 48.856L107.017 48.7806L107.193 48.856L107.419 48.9817L107.52 49.1075L107.696 49.2835L107.872 49.4595L107.972 49.5601L108.073 49.6858L108.199 49.8869L108.35 50.0881L108.425 50.239L108.526 50.3647L108.626 50.4401L108.752 50.6162L108.852 50.7419L109.054 50.8676L109.129 50.9179L109.255 51.0436L109.431 51.1442L109.607 51.2699L109.732 51.3956L109.858 51.5465L110.009 51.7225L110.135 51.8231L110.26 51.9237L110.386 52.0494L110.512 52.1751L110.613 52.2505L110.713 52.3763L110.864 52.5523L110.939 52.678L111.065 52.8037L111.115 52.9546L111.216 53.1558L111.291 53.3066L111.317 53.382L111.417 53.5078L111.467 53.6586L111.518 53.7341L111.568 53.885L111.618 54.0107V54.1113L111.669 54.2118V54.3376L111.719 54.5136L111.744 54.589V54.6393L111.819 54.6644L111.92 54.6896H112.071H112.146L112.272 54.7147L112.398 54.765L112.498 54.8153L112.574 54.8656L112.775 54.9662L112.876 55.0165L112.976 55.0668L113.102 55.117L113.202 55.1422H113.328L113.454 55.117L113.605 55.0919L113.756 55.0668L113.881 55.0919L114.007 55.117L114.133 55.1422L114.334 55.2176L114.51 55.2679L114.761 55.3182L114.862 55.3685L115.063 55.4691L115.139 55.5445L115.289 55.6954L115.44 55.9217L115.566 56.1228L115.692 56.2988L115.817 56.5503L115.968 56.7263L116.119 56.9778L116.27 57.1789L116.32 57.204L116.446 57.3801L116.572 57.5561L116.647 57.7069L116.723 57.8578L116.798 58.059L116.823 58.235L116.874 58.3607L116.924 58.5367V58.6373L116.949 58.7379V58.8385L116.999 58.9642L117.1 59.0648L117.175 59.1653L117.376 59.2911L117.552 59.3916H117.603L117.728 59.4922L117.779 59.5425L117.804 59.5928V59.6682V59.7437L117.879 59.8442L117.955 59.9448L118.03 60.1963V60.3723V60.498L118.131 60.6488L118.181 60.7494L118.231 60.8249L118.206 61.0009V61.2272V61.3529V61.3781L118.181 61.5038V61.5792L118.332 61.6547H118.407L118.508 61.6798L118.634 62.0067L118.785 62.3587L118.86 62.585L118.91 62.9119L118.961 63.1382L119.036 63.4148L119.162 63.6662L119.237 64.0434L119.287 64.2194L119.388 64.496L119.463 64.7977L119.564 64.9989L119.715 65.1498L119.765 65.1749L119.891 65.2503L119.941 65.3006L120.067 65.376L120.142 65.4263L120.268 65.5018L120.469 65.5521L120.545 65.6275L120.645 65.7281L120.771 65.8287L120.872 65.9292L120.922 65.9795L120.972 66.0801L121.123 66.1807L121.224 66.231L121.374 66.2561L121.475 66.3064L121.576 66.3567L121.701 66.5075L121.777 66.583L121.877 66.7339L121.953 66.8596L122.003 66.9099L122.078 67.0105L122.229 67.0859L122.38 67.111H122.456H122.556H122.632L122.757 67.1362L122.833 67.111H122.908H123.109H123.16L123.21 67.0859H123.285L123.311 67.0607H123.361L123.512 67.0356L123.487 67.1613L123.411 67.2871L123.361 67.3625L123.311 67.3876L123.235 67.4128L123.109 67.4379L123.034 67.4631L122.984 67.5134L122.808 67.5385L122.632 67.5636L122.556 67.7145L122.732 67.6642L122.933 67.6139L123.009 67.5888L123.135 67.5385L123.311 67.5134L123.436 67.4631L123.537 67.4128L123.612 67.3122L123.637 67.2619V67.1865L123.688 67.0859L123.763 67.1362L123.914 67.1865L124.065 67.2368L124.165 67.3373L124.367 67.4631L124.442 67.5636L124.593 67.6642L124.668 67.7648L124.744 67.9157L124.844 68.0665L124.92 68.2174L124.995 68.5443L125.071 68.6952L125.121 68.9969L125.146 69.1477L125.171 69.3489V69.5249V69.7512L125.146 69.9272L125.121 70.229L125.096 70.4301L125.046 70.5558L124.97 70.8073L124.92 70.9833L124.895 71.2348L124.844 71.461L124.794 71.6622L124.719 71.8131L124.668 71.9639V72.0897V72.2154V72.2657L124.694 72.2908L124.844 72.2657H125.02H125.171H125.322L125.473 72.2405L125.674 72.2154L125.926 72.1651L126.227 72.0645L126.454 71.9891L126.63 71.9137L126.931 71.7125L127.107 71.5616L127.334 71.2599L127.459 71.109L127.736 70.7067L128.063 70.2038L128.289 69.877L128.666 69.4998L129.044 69.2986L129.396 69.0723L129.722 68.6952L129.999 68.3431L130.326 67.9659L130.602 67.5888L130.904 67.1865L131.231 66.6333L131.407 66.2813L131.558 65.9041L132.036 64.9989L132.312 64.672L132.664 64.4205L133.117 64.2445L133.544 64.0434L133.695 63.8674L133.896 63.4902L134.022 63.2136L134.223 62.8365L134.55 62.233L135.179 61.202L135.481 60.5483L135.631 60.2466L135.883 59.7185L136.285 59.1402L136.486 58.7379L136.612 58.2601L136.587 57.9584L136.511 57.6567L136.537 57.2543L136.612 57.1035L136.713 56.9275L136.788 56.852L136.989 56.7515L137.09 56.7263H137.492L137.819 56.7515L138.196 56.8017L138.548 56.9275L138.749 57.0029L138.925 57.0783L139.202 57.1286L139.604 57.1789L139.981 57.2543L140.736 57.4052L141.214 57.5309H141.54L141.792 57.5058L141.968 57.4555L142.094 57.204L142.144 57.0783L142.244 56.8017L142.345 56.6257L142.546 56.4246L142.722 56.2988L142.923 56.1731L143.125 55.8714L143.25 55.5697L143.451 55.2428L143.602 55.1422L143.879 55.0416L144.281 54.8907L144.608 54.7399L144.86 54.589L145.212 54.3124L145.388 54.2118L145.74 54.0358L146.067 53.885L146.418 53.6335L146.645 53.4323L146.997 53.2312L147.525 53.0049L147.651 52.8037L147.726 52.4768L147.751 52.1751V51.9488L147.776 51.5968V51.2951L147.751 51.0687L147.701 50.6916L147.676 50.5407V50.1635L147.651 49.9372L147.701 49.6355L147.801 49.3338L147.827 49.1075L147.776 48.8309V48.6549L147.801 48.3531L147.852 48.1771L147.952 47.9005L148.078 47.6742L148.254 47.5234L148.531 47.3222L148.908 47.0456L149.335 46.8193L149.637 46.593L149.888 46.1656L150.014 45.713L150.14 45.4615L150.416 45.1849L150.794 44.9083L151.146 44.7072L151.498 44.4054L151.724 44.154L152.101 43.8019L152.529 43.5002L152.906 43.3494L153.434 43.1733L153.761 42.9973L154.113 42.8213L154.842 42.419L155.068 42.0418L155.244 41.7149L155.42 41.4383L155.647 41.0361L155.848 40.684L156.099 40.3068L156.3 40.0806L156.426 39.9045L156.627 39.6028L156.652 39.3514L156.426 39.125L156.2 39.0245L155.923 38.7228L155.722 38.3959L155.496 38.1947L155.32 38.1444L154.993 38.0438L154.767 37.9181L154.465 37.7421L154.289 37.5912L154.113 37.2644L154.037 37.038L154.062 36.7614L154.113 36.51L154.314 36.2837L154.616 36.0323L154.892 35.8814L155.244 35.7054L155.647 35.5545L155.999 35.4539L156.376 35.3785L156.803 35.2528L157.03 35.2025L157.457 35.1271L157.91 35.0516L158.211 35.0013L158.588 34.9511L159.116 34.8756L159.469 34.8002L159.921 34.5739L160.147 34.3979L160.374 34.0459L160.474 33.8447L160.676 33.3921L160.877 32.9897L161.078 32.688L161.279 32.2857L161.38 32.0091L161.556 31.5314L161.631 31.2548L161.681 30.8776L161.606 30.5256L161.354 30.249L160.776 29.9724L160.349 29.7712L160.298 29.6958L160.223 29.5198V29.3187V29.1678V28.866V28.6146L160.248 28.2626L160.298 27.9106L160.374 27.7094L160.525 27.5837L160.801 27.4831L161.254 27.3574L161.656 27.3071L161.958 27.3322L162.461 27.3574L162.687 27.2819L162.888 26.9048L162.964 26.7036L163.115 26.6282L163.467 26.4773L163.668 26.3264L163.718 26.1756L163.617 25.8487V25.7481L163.592 25.5721L163.542 25.2955L163.517 24.8177L163.542 24.6417L163.668 24.3652L163.894 24.2143L164.145 24.1389L164.548 24.0383L165 23.9628L165.227 23.8874L165.503 23.636L165.73 23.4851L165.956 23.3845L166.308 23.1582L166.61 22.9571L166.71 22.8565L166.886 22.5044L166.962 22.2278L167.037 21.8507L167.087 21.6495L167.188 21.4484L167.389 21.1969L167.49 21.0963L167.641 20.8952L167.993 20.5683L168.194 20.3672L168.294 20.2163L168.571 19.9145L168.747 19.638L168.797 19.4117L168.747 19.1099L168.571 18.9339L168.269 18.783L168.018 18.6071L167.892 18.431L167.741 18.0287L167.414 17.727L167.238 17.6264L166.861 17.4504L166.76 17.4253L166.484 17.2744L166.232 17.1738L165.931 17.0229L165.755 16.8218L165.579 16.5452L165.528 16.3189V16.1429L165.604 15.9166L165.654 15.7908L165.83 15.5897L166.258 15.3382L166.66 15.2376L166.836 15.2125L167.087 15.1622L167.389 15.1371L167.59 15.1119L167.791 15.0868L168.143 14.961L168.319 14.8856L168.571 14.8605L168.747 14.8856L168.948 14.9108L169.049 15.0365L169.174 15.1622H169.376L169.501 15.1119L169.728 14.9108L169.778 14.8605L169.728 14.7599L169.627 14.6593L169.602 14.5839L169.552 14.4079V14.3324L169.451 14.1061L169.426 13.9804L169.451 13.8044L169.426 13.6033L169.401 13.4021V13.3015L169.476 12.9998L169.552 12.8238L169.652 12.4969L169.702 12.2706L169.803 11.8683L169.878 11.642L169.979 11.29L170.029 11.1391L170.13 10.9882V10.7871L170.18 10.5105L170.331 10.259L170.532 10.0327L170.683 9.70583L170.557 9.52984L170.256 9.22808L169.853 9.00178L169.577 8.85092L169.3 8.47373L169.174 8.02114L169.149 7.79485L169.2 7.41766L169.401 7.14107L169.954 6.81421L170.23 6.71361L170.708 6.61305L171.035 6.31133L171.186 5.909L171.211 5.63241L171.261 5.40612L171.488 4.92837L171.94 4.47574L172.368 4.37518L172.82 4.24945L172.896 4.02316L172.795 3.7717L172.569 3.4448L172.393 3.09278L172.242 2.81619L171.739 1.93615L171.588 1.63442L171.463 1.40809L171.261 0.980639L171.085 0.653785L170.96 0.402323L170.834 0.452623L170.708 0.578316L170.557 0.704047L170.381 0.930339L170.281 1.08124L170.08 1.30753L169.753 1.35783L169.501 1.30753L169.3 1.20693L169.099 1.08124L168.697 0.980639L168.294 0.955508L167.817 0.980639L167.465 1.00581L166.911 1.05607L166.559 1.10637L165.981 1.2824L165.629 1.50869L165.428 1.76012L165.227 2.3636L165.126 2.58989L164.824 2.53963L164.523 2.33847L164.196 1.88585L164.095 1.81042L163.844 1.83555L163.517 1.91102L163.265 1.86072L163.215 1.70986L163.115 1.40809L162.888 1.05607L162.737 0.729216L162.586 0.352023L162.436 0.201162L161.807 0H161.354L161.028 0.0503L160.525 0.226292L160.097 0.528054L159.896 0.754347L159.846 0.880078L159.795 1.03094L159.72 1.30753L159.67 1.55896L159.544 2.01158L159.494 2.33847L159.343 2.71563L159.041 3.14308L158.739 3.31911L158.01 3.57053L157.407 3.67113L156.853 3.822L156.552 3.99799L156.225 4.22432L155.948 4.32488L155.672 4.29975L155.345 4.37518L154.892 4.9032L154.465 5.25522L154.138 5.30552L153.761 5.10436L153.233 4.92837H152.906L152.529 5.07923L152.202 5.28039L151.699 5.38095L151.322 5.23009L151.095 5.15466L150.567 4.87807L150.14 4.65177L149.813 4.7272L149.612 4.80263L149.486 4.87807L149.31 5.07923L149.235 5.23009V5.48155L149.36 5.70784L149.436 6.03474L149.461 6.38676L149.486 6.56275L149.335 7.11594L149.134 7.51826L148.908 7.76968L148.606 7.97084L148.053 8.22231L147.877 8.3983L147.827 8.64976L147.877 9.00178L147.977 9.37894L148.078 9.65553L148.003 10.0327L147.852 10.2339L147.575 10.4853L147.449 10.6613L147.399 10.7619L147.349 10.9128L147.324 10.9631V11.0637L147.374 11.1642L147.424 11.29V11.4659V11.7174L147.399 11.8431L147.424 12.1197L147.399 12.2957L147.223 12.5472L146.947 12.5975L146.645 12.6226L146.318 12.5472L146.067 12.4466L145.89 12.3712L145.74 12.2706L145.488 12.17L145.161 12.0694L144.935 12.0946L144.658 12.1952L144.332 12.3209L144.08 12.4215L143.728 12.5472L143.275 12.698L142.974 12.8238L142.571 13.1004L142.27 13.3267L142.119 13.4775L141.993 13.6284L141.742 13.9301L141.364 14.0558L140.987 14.1061L140.459 14.081H140.132H139.856L139.705 14.0307L139.579 13.905L139.353 13.7541L139.076 13.6033L138.925 13.5278L138.448 13.4272L138.146 13.4524L137.794 13.4775L137.442 13.6033L137.19 13.7792L136.939 14.0307L136.713 14.257L136.335 14.5085L136.16 14.5588L135.682 14.5839L135.405 14.5588H135.179L134.575 14.6342H134.223L133.72 14.5588H132.916L132.614 14.5839L132.136 14.609L131.659 14.6845H131.231H131.005L130.728 14.609L130.427 14.6342L130.175 14.7096L129.974 14.8102L129.798 14.9359L129.672 15.0365L129.471 15.3382L129.37 15.464L129.295 15.7154L129.194 15.9669L129.169 16.0926L129.119 16.4194V16.696L129.194 16.8721L129.169 17.1235L128.943 17.2995L128.792 17.4253L128.516 17.6767L128.365 17.8024L128.314 17.8778L128.063 18.0539L127.711 18.3053L127.459 18.4562L127.158 18.6071L126.881 18.7327L126.63 18.8585L126.454 18.9339L126.177 19.0596L126.001 19.1602L125.8 19.2608L125.574 19.4117L125.322 19.5877L125.096 19.7637L124.97 19.8643L124.618 20.1157L124.291 20.3169L124.09 20.5432L123.939 20.8701L123.889 21.1466L123.813 21.2975L123.512 21.6495L123.235 21.8256L122.959 22.1273L122.531 22.5547L122.154 22.8313L121.701 23.2085L121.123 23.7114L120.721 23.9377L120.218 24.2143L119.891 24.34L119.514 24.4406L118.81 24.6166L118.533 24.6669L117.98 24.7423L117.452 24.8177H117.226L116.748 24.8429L116.522 24.868L116.169 25.0189L115.918 25.1949L115.817 25.3709L115.692 25.5721L115.415 25.8739L114.46 26.9048L114.133 27.2819L113.705 27.8854L113.479 28.2374L113.253 28.8158L112.951 29.4444L112.85 29.8215L112.649 30.3999L112.498 30.7267L112.322 31.0536L111.643 32.336L111.342 32.7132L110.437 33.5681L110.059 33.9201L109.833 34.1715L109.481 34.5236L109.38 34.7499L109.179 35.1774L108.953 35.5294L108.601 36.158L108.425 36.4597L108.199 36.686L107.947 36.8872L107.721 37.0129L107.344 37.2141L107.092 37.3649L106.665 37.5661L106.388 37.6667L105.986 37.8176L105.734 37.9181L105.257 38.069L104.955 38.1696L104.578 38.2701L104.276 38.3204L103.874 38.3959L103.145 38.4964L102.843 38.4713H102.692L102.39 38.4964L102.139 38.5216L101.887 38.5467L101.058 38.5216L100.58 38.4462L100.53 38.5216L100.454 38.6473L100.203 38.8736L100.052 39.0245L99.9512 39.125Z" fill="#186149"/>
<path d="M124.594 73.0955L124.694 73.2212L124.77 73.5229V73.5984L124.694 73.9001L124.644 74.0761L124.594 74.3778L124.518 74.6041L124.468 74.7802L124.418 75.0065L124.393 75.3082L124.418 75.6602L124.543 75.8865L124.87 76.1883L125.222 76.4146L125.449 76.49L125.826 76.666L126.052 76.842L126.404 77.2443L126.706 77.6467L126.907 77.8981L127.41 78.4261L127.963 79.0296L128.315 79.3313L128.919 79.7588L129.623 80.2617L130.478 80.7646L130.88 80.9909L131.659 81.4184L132.162 81.5943L133.118 81.8709L133.973 82.0721L134.702 82.2481L135.004 82.3487L135.456 82.4996L136.211 82.7007L136.714 82.8264L137.242 82.927L137.996 83.0276L138.876 83.1785L139.505 83.279L140.334 83.4299L140.913 83.5054L141.416 83.5556L142.22 83.6059L142.949 83.6814L143.603 83.782L144.307 83.9579L144.961 84.1842L145.414 84.3603L146.369 84.7626L147.123 84.9889L148.33 85.2655L148.959 85.3912L149.713 85.5421L150.317 85.6929L151.096 85.8187L151.75 85.9444L152.881 86.0953L153.535 86.1707L153.787 86.1958L154.365 86.221L154.968 86.1958L155.396 86.221L155.647 86.2461L155.949 86.2964L156.251 86.3216L156.678 86.4976L157.056 86.6736L157.734 86.9753L158.866 87.3273L159.67 87.5285L160.349 87.6793L161.23 87.9057L161.984 88.1571L163.493 88.66L164.322 88.8863L164.926 89.0623L165.177 89.188L165.529 89.4143L165.831 89.6658L166.133 90.0932L166.334 90.4201L166.61 90.9482L166.812 91.3253L166.937 91.5265L167.164 91.9037L167.289 92.1803L167.491 92.4065L167.792 92.5826L168.144 92.7334L168.521 92.8592L168.798 92.9849L169.1 93.2363L169.226 93.5632L169.351 93.8146L169.628 94.1918L169.779 94.3678H170.156L170.684 94.3176L171.237 94.217L171.74 94.0912L172.067 94.041L172.494 94.0158L173.047 94.0912L173.45 94.1415L173.701 94.217L173.928 94.3427L174.028 94.4433L174.154 94.6193L174.179 94.7953V95.097L174.204 95.273L174.28 95.4742L174.456 95.6502L174.808 95.7508H175.512H175.788L176.291 95.7257H176.945L177.574 95.7005L177.951 95.6754L178.328 95.7005H178.604L179.007 95.7257L179.484 95.8011L179.987 96.2285L180.088 96.6811L180.189 97.008L180.314 97.2846L180.49 97.5863L180.616 97.8127L180.767 98.039L180.943 98.2904L181.069 98.4161L181.32 98.567L181.697 98.7179L181.999 98.7681L182.351 98.8687L182.753 98.9442L183.181 99.0447L183.407 99.095L183.709 99.1956L183.91 99.3465L183.985 99.4974L184.086 99.8242V100.101L184.111 100.252V100.579V101.081L184.161 101.408L184.237 101.71L184.312 101.886L184.363 101.987L184.488 102.112L184.564 102.213L184.664 102.314L184.84 102.414L184.941 102.49L185.092 102.565L185.268 102.615L185.645 102.666L185.846 102.691L185.922 102.716L186.047 102.791L186.123 102.942L186.047 103.344L186.022 103.571L186.098 103.747L186.223 103.898L186.324 104.023L186.399 104.124V104.375L186.324 104.526L186.274 104.652L186.248 104.828V104.929L186.274 105.029L186.374 105.155L186.575 105.331L186.726 105.381L186.852 105.431H186.978L187.254 105.457H187.48L187.606 105.482H187.732H187.807H187.908L188.009 105.507L188.21 105.758L188.185 105.859L188.009 106.01L187.807 106.211L187.732 106.412L187.707 106.664L187.732 106.865V106.99L187.757 107.166V107.393L187.732 107.569L187.707 107.745L187.656 107.921L187.581 108.072L187.556 108.197L187.506 108.298L187.38 108.474L187.279 108.65L187.204 108.776L187.154 108.876L187.078 109.027L186.927 109.228L186.676 109.48L186.424 109.731L186.173 110.033L185.997 110.259L185.871 110.486L185.746 110.787L185.343 111.743L185.092 112.246L185.016 112.447L184.941 112.698L184.891 112.874L184.815 113.05L184.74 113.226L184.664 113.352L184.564 113.553L184.488 113.603L184.438 113.629L184.388 114.031L184.287 114.433L184.237 114.735V115.313L184.187 115.766L184.237 116.244L184.262 116.42L184.287 116.596L184.539 116.721L184.614 116.772L184.639 116.847L184.715 117.124L184.74 117.35L184.765 117.576L184.815 117.828L184.84 118.079L184.79 118.155L184.715 118.23L184.564 118.306H184.337L184.011 118.331L183.608 118.406L183.382 118.482L183.332 118.582L183.457 119.512L183.684 120.041L183.935 120.543L184.011 120.745L184.111 120.996L184.212 121.172L184.287 121.298L184.413 121.474L184.463 121.599V121.625L184.589 121.776V121.951V122.178L184.614 122.379V122.555V122.681L184.639 122.832L184.614 122.907L184.564 122.982L184.488 123.033L184.287 123.284L184.061 123.561L183.885 123.863L183.684 124.114L183.508 124.365L183.407 124.516L183.256 124.717L183.206 124.818L183.105 125.421L183.055 125.723L183.005 126.302L182.929 126.679L182.879 126.93L182.829 127.156V127.282L182.904 127.383L183.231 127.483L183.608 127.584L183.985 127.735L184.187 127.81L184.388 127.835L184.715 127.86L185.092 127.911L185.419 127.936L185.997 127.961H186.324L186.802 128.036H187.103L187.707 127.986L188.109 127.961H188.486L188.838 128.112L188.939 128.263L189.316 128.514L189.744 128.59L190.221 128.766L190.649 128.891L191.076 129.017L191.654 129.269L191.956 129.47L192.308 129.696L192.61 129.897L193.063 130.274L193.389 130.501L193.817 130.777L194.244 131.079L194.974 131.506L195.401 131.758L195.979 131.984L196.407 132.211L197.035 132.563L197.287 132.739L197.84 133.015L198.293 133.141L199.097 133.468L199.424 133.593L199.726 133.769L200.003 134.121L200.028 134.499L199.977 134.976V135.278L199.927 135.63L199.902 136.133L199.877 136.51L199.852 136.963L199.701 137.994L199.575 138.723V139.075V139.326L199.6 139.452H199.676H199.826L200.028 139.427L200.179 139.377L200.505 139.201L200.681 139.1L200.933 139L201.109 138.974L201.31 138.949L201.511 139.025L201.637 139.1L202.266 139L202.467 138.824L202.718 138.547L203.045 138.17L203.271 137.969L203.573 137.767L203.799 137.667H204.051L204.277 137.692L204.931 137.767L205.233 137.793L205.308 137.767L205.66 137.466L206.414 137.038L206.766 136.887H206.942L207.345 136.963H207.571L207.621 136.837L207.722 136.611L207.998 136.385L208.099 136.309H208.275H208.602L208.979 136.51L209.13 136.812L209.231 136.913L209.331 136.938L209.507 136.812L209.784 136.561L209.96 136.41L210.086 136.259L210.312 135.982L210.463 135.806L210.639 135.555L210.84 135.278L210.915 134.976L210.966 134.65V134.323L210.915 134.071L210.815 133.82L210.739 133.719L210.563 133.468L210.463 133.216V133.015L210.588 132.739L210.639 132.613L210.764 132.311L210.991 131.909L211.091 131.582L211.267 131.28L211.594 130.978L211.921 130.702L212.298 130.375L212.701 130.073L212.977 129.897L213.405 129.621L213.807 129.369L214.159 129.143L214.36 128.917L214.385 128.665V128.439L214.335 128.187L214.26 127.911L214.033 127.332L213.857 127.031L213.631 126.628L213.455 126.377L213.304 126.151L213.078 125.824L213.027 125.597V125.22L212.776 124.743L212.55 124.642L212.474 124.315L212.499 124.114V123.938L212.424 123.686L212.298 123.51L212.198 123.36L212.223 123.259L212.449 123.158L212.701 123.083L212.927 123.058L213.203 123.033L213.581 123.008L213.933 122.882L214.335 122.706L214.712 122.605L215.441 122.48L215.944 121.951L215.894 121.725L215.819 121.549L215.793 121.373L215.768 121.222L215.793 121.046L215.819 120.795L215.844 120.569L215.869 120.367L215.919 119.89V119.613L215.869 119.261L215.819 118.934L215.768 118.607L215.693 118.23L215.592 117.601L215.617 117.4L215.693 117.073L215.341 116.596L215.114 116.294L214.989 116.068L214.938 115.917L214.913 115.59L214.964 115.464L215.089 115.364L215.19 115.338L215.416 115.464L215.793 115.565L215.919 115.464V115.263L215.844 115.012L215.693 114.685L215.617 114.458L215.567 114.308V114.182L215.592 114.132L215.743 113.981L215.919 113.88L216.372 113.754L216.648 113.679L216.975 113.629L217.73 113.528L217.981 113.503L218.786 113.729L219.112 113.779L219.364 113.805H219.565L219.741 113.779L220.093 113.629L220.319 113.402L220.395 113.251L220.47 113.05L220.621 112.698L220.772 112.271L220.923 111.969L221.099 111.617L221.149 111.29L221.049 111.039L220.898 110.838L220.722 110.611L220.697 110.259L220.671 109.631L220.495 109.555L220.294 109.53L220.143 109.48L219.942 109.429L219.867 109.329L219.791 109.253L219.766 109.153L219.716 108.977L219.691 108.901L219.64 108.751L219.565 108.6L219.49 108.474L219.314 108.449L219.238 108.474L218.71 108.524L218.584 108.499H218.484L218.232 108.424L217.931 108.373L217.679 108.298L217.453 108.122L217.327 107.921L217.302 107.745L217.277 107.644L217.201 107.317V107.192L217.252 107.066L217.352 107.016L217.553 106.915L217.73 106.814L218.056 106.664L218.383 106.488L218.534 106.337L218.66 106.11L218.786 105.934L218.886 105.859L219.087 105.834L219.565 105.884H219.691L219.942 105.834L220.269 105.683L220.521 105.507L220.722 105.281V104.853L220.747 104.778L220.873 104.652L221.099 104.501L221.225 104.325L221.375 104.149L221.501 104.074L221.677 104.149L221.803 104.275L222.029 104.501L222.331 104.652L222.457 104.677L222.834 104.602L222.96 104.501L223.11 104.375L223.513 104.124L223.84 103.847L224.368 103.42L224.971 102.917L225.273 102.691L225.927 102.515L226.404 102.439L227.31 102.389L227.586 102.339H227.812L228.24 102.263L228.894 102.163L229.195 102.087L229.95 101.987L230.252 102.012L230.754 102.213L231.081 102.314L231.509 102.213L231.911 101.836L232.112 101.71L232.213 101.66L232.389 101.635L232.766 101.408L233.118 101.107L233.42 100.83L233.797 100.327L233.923 100.051L234.048 99.7488L234.199 99.3465L234.3 98.9944L234.375 98.6424L234.551 98.391L234.727 98.215L235.13 98.0138L235.356 97.9887L235.456 98.0138L235.632 98.1647L235.783 98.3156L236.06 98.6424L236.261 98.8687L236.563 99.1202L236.739 99.2459L236.99 99.3465H237.166L237.569 99.2962H237.745L238.222 99.2208L238.474 99.1202L238.926 99.0196L239.153 98.9693H239.63H239.957L240.083 98.9944L240.209 98.9442L240.309 98.7179L240.335 98.5921L240.511 98.3658L240.762 98.1898L241.189 98.039L241.491 97.8378L241.793 97.5863L242.044 97.3852L242.421 97.1338L242.623 97.0835L242.849 96.8572L242.899 96.6811L243.025 96.5806L243.176 96.5303L243.402 96.5806L243.503 96.656L243.754 96.9075L243.855 97.1086L244.182 97.3349L244.71 97.2092L244.936 97.0835L245.238 96.9326L245.489 96.7566L246.193 96.5806L246.57 96.3543L246.847 96.1279L247.174 96.0023L247.677 95.8262L247.777 95.6754L247.928 95.4491L248.205 95.2479L248.783 95.0719L249.336 94.8707L249.713 94.7953L250.594 94.5439L251.021 94.4181L251.474 94.3427L252.052 94.393L252.303 94.3427L252.756 94.2673H252.907L253.083 94.3427L253.209 94.6193L253.158 94.8204L253.083 95.0216L252.831 95.2479L252.706 95.4239L252.63 95.7257L252.681 95.9017L252.781 96.0023L253.083 96.1782L253.284 96.2788L253.686 96.4548L253.887 96.5303L254.114 96.7314L254.365 97.0583L254.617 97.2846L254.868 97.4355L255.22 97.4103L255.597 97.2343L255.673 97.0835L255.698 96.8572L255.773 96.5554L255.899 96.1028L256.025 95.8765L256.201 95.7508L256.679 95.5245L256.955 95.4239L257.508 95.0719L257.961 94.6947L258.263 94.4181L258.464 94.1415L258.615 93.9152L258.816 93.4124L259.042 92.8843L259.193 92.4317L259.344 92.13L259.62 91.7779L259.998 91.4259L260.299 91.2499L260.878 91.0739L261.406 90.9733L262.235 90.9482L262.361 91.0488L262.512 91.3756L262.663 91.5768L262.789 91.7779L262.99 91.8534L263.241 91.7528L263.442 91.6271L263.92 91.4259L264.071 91.3505L264.498 91.3002H264.725H264.926L265.303 91.1493L265.479 90.923L265.63 90.7219L265.806 90.4704L266.183 90.1435L266.586 89.8167L267.063 89.5904L267.491 89.3892L268.17 89.1629L268.522 89.1126L268.849 89.0623L269.201 89.0875L269.427 88.9869L269.502 88.8109L269.578 88.4337L269.653 88.1571L269.729 87.8302L269.829 87.5788L270.106 87.3022L270.433 87.1262L270.986 86.9753L271.187 87.0005L271.413 87.1513L271.614 87.4531L271.715 87.5537L272.168 88.1068L272.344 88.3331L272.746 88.8109L273.048 89.0372L273.349 89.0623L273.551 88.9869L273.852 88.9366L273.978 88.9869L274.229 89.1126H274.481L274.934 89.2383L275.11 89.4143L275.26 89.5904L275.361 89.7161L276.191 90.1184L276.543 90.2441L277.775 90.395H278.152H278.429L278.73 90.3698L279.51 90.395H279.56L279.636 90.4201L279.988 90.5207L280.39 90.6213L280.918 90.6967H281.32L281.974 90.9985L282.075 91.1493L282.804 91.275H283.483L284.287 91.1745L284.665 91.1242H284.966L285.369 91.1493L285.846 90.9985L286.223 90.7973L286.626 90.6464L286.953 90.5459L287.104 90.4453L287.229 90.2693L287.355 90.0681L287.531 89.8167L287.707 89.6909L288.285 89.4898L288.839 89.2886L289.392 89.0372L289.819 88.8863L290.196 88.7857L290.272 88.7606H290.699L291.152 88.7857L291.479 88.8611L291.881 88.9114L292.208 89.012L293.189 89.3641L293.415 89.4898L293.943 89.8921L294.245 90.0429L294.521 90.1184L294.999 90.0681L295.577 89.9173L295.929 89.867L296.256 89.7412L296.809 89.4143L297.564 88.9366L297.941 88.7355L298.067 88.6852L298.393 88.5594L299.098 88.6097L299.274 88.7103L299.751 89.0623L299.927 89.1629H300.103L300.355 89.2132L300.48 89.3892L300.631 89.4898L300.757 89.4395L300.833 89.3138L300.958 89.1629L301.059 89.1126H301.159L301.31 89.2132L301.562 89.5401L301.637 89.6407L302.039 89.6909L302.241 89.6407L302.542 89.4898L302.744 89.3138L302.919 89.2132L303.272 88.9869L303.573 88.8611L303.925 88.66L304.227 88.4086L304.579 88.0817L305.61 86.8244L305.962 86.3467L306.44 85.8187L307.119 85.1649L307.622 84.6369L308.049 84.3603L308.577 84.0585L308.728 83.782L308.828 83.4802L309.231 82.6756L309.457 82.4493L309.633 82.3487L310.061 82.2481L310.513 82.1727L310.74 82.1475L311.091 82.0721L311.343 82.1224L311.645 82.1978L311.745 82.0973L311.896 81.7704L312.072 81.5692L312.248 81.5189L312.6 81.4687L313.204 81.4435H313.757L314.31 81.4687L314.587 81.3932L314.838 81.2926L315.039 81.2172L315.24 81.1921H315.592H315.944L316.397 81.2172L316.523 81.1669L316.623 81.0915L317.353 80.2617L317.604 80.0605L317.755 79.8845L317.83 79.7839L318.383 79.0548L318.534 78.7782L318.962 78.3004L319.59 77.6467L319.892 77.3701L320.144 77.1689L320.269 76.9174L320.294 76.7415L320.219 76.49L320.144 76.3391L320.093 76.1883L319.993 75.9871L320.043 75.8614L320.093 75.7608L320.269 75.5848L320.345 75.4842L320.672 75.2076L320.873 75.0568L321.149 74.8807L321.552 74.6293L321.803 74.5287L322.055 74.403L322.432 74.3778L322.608 74.403L322.834 74.4281L323.111 74.403H323.186L323.287 74.3778L323.312 74.3024L323.337 74.2521L323.412 74.1264L323.488 73.9253L323.563 73.7492L323.689 73.5481L323.764 73.3469L323.815 72.9446L323.865 72.7183L323.94 72.4669L323.966 72.1903L323.94 71.9388L323.739 71.2348L323.689 71.0839L323.588 70.8324L323.488 70.581L323.337 70.405L323.086 70.2038L322.96 70.1033L322.708 69.9775L322.482 69.877L322.13 69.7764L321.904 69.7009L321.401 69.525L320.898 69.1729L320.697 69.022L320.47 68.7706L320.144 68.2929L319.917 68.0163L319.741 67.8402L319.565 67.7145L319.364 67.5636L319.163 67.3876L318.937 67.1362L318.786 66.8596L318.685 66.583L318.585 66.1053L318.559 65.8538V65.5521L318.585 65.3509L318.635 65.1246V64.7977L318.735 64.4206L318.836 64.0183L319.113 62.9873L319.289 62.3084L319.389 61.8558L319.465 61.1769L319.565 60.6992L319.641 60.2717L319.666 59.9197V59.3916L319.741 58.7882L319.817 58.411L319.993 57.9333L320.144 57.6064L320.496 57.1538L320.672 57.0783L320.873 57.0029L321.25 56.9023L322.407 56.852L322.859 56.8772L323.161 56.852L323.614 56.7766L324.016 56.7263L324.443 56.676L325.399 56.5754L326.178 56.4749L326.706 56.3995L327.159 56.2989L327.435 56.1229L327.561 56.0223L327.662 55.9217L327.788 55.796L327.989 55.5194L328.14 55.3182L328.29 55.1171L328.441 54.9662L328.617 54.765L329.02 54.3627L329.372 54.0107L329.699 53.6838L329.925 53.3569L330 53.1558L329.975 53.0049L329.925 52.7786L329.849 52.678L329.799 52.6026L329.623 52.4769L329.246 52.2506L328.995 52.0997L328.793 51.974L328.592 51.9237L328.366 51.8231L328.114 51.6974L327.938 51.6219L327.737 51.5214L327.612 51.4208L327.435 51.1945L327.234 50.8676L327.159 50.6413L327.058 50.3396L326.983 50.1384L326.933 49.9624L326.857 49.711L326.782 49.4092L326.631 48.8561L326.48 48.504L326.329 48.2023L326.153 47.8754L325.977 47.5234L325.701 47.0205L325.198 46.1907L324.996 45.9141L324.77 45.6627L324.544 45.3861L324.318 45.1598L323.966 44.8078L323.764 44.5312L323.664 44.2797L323.563 43.8774L323.538 43.7517L323.513 43.5757L323.488 43.2739L323.438 43.0476L323.387 42.9219L323.236 42.7711L322.633 42.5196L322.381 42.419L322.13 42.3184L321.904 42.1676L321.677 42.0167L321.426 41.6898L321.225 41.5138L321.074 41.3629L320.923 41.0109L320.823 40.7092L320.596 40.3823L320.345 40.156L320.118 40.0303L319.389 39.8794L318.886 40.0303L318.71 40.1057L318.484 40.0051L318.333 39.8794L318.182 39.7788L317.931 39.5525L317.679 39.3765L317.453 39.2005L317.277 39.0496L317.026 38.8485L316.799 38.5467L316.674 38.3708L316.623 38.0187L316.649 37.8427L316.674 37.6918L316.749 37.4655L316.774 37.2644L316.799 37.0632L316.85 36.7866V36.6358L316.875 36.2083V35.6551L316.9 35.3031L316.975 35.0768L317.076 34.8254L317.177 34.6242L317.453 34.2973L317.629 34.1213L317.705 34.0459L317.73 33.9201L317.629 33.6687L317.453 33.5681L317.327 33.4927L317.227 33.4173L317.026 33.2664L316.799 33.0652L316.322 32.7383L316.171 32.4869L316.07 32.3109L316.02 32.2103L316.095 31.984L316.045 31.5062L315.819 31.3302L315.668 31.2799L315.492 31.1542L315.366 31.0788L315.266 30.9531L315.064 30.7268L314.939 30.5508L314.561 30.1233L314.335 29.7964L314.184 29.5701L314.059 29.369L314.008 29.1175L314.033 29.0672L314.084 28.9415L314.184 28.8158L314.285 28.6901L314.411 28.5392L314.536 28.3883L314.662 28.2123L314.712 28.1369V28.0111L314.637 27.9106L314.587 27.8603L314.486 27.7848L314.335 27.6843L314.109 27.5334L313.883 27.4077L313.581 27.3322L313.254 27.2317L312.826 27.0557L312.399 26.8545L311.997 26.6533L311.846 26.5779L311.821 26.4773V26.3768V26.2762L311.896 26.1002L312.047 25.899L312.173 25.5973L312.198 25.3207L312.148 25.0944L312.122 24.8429L312.047 24.6418L311.972 24.4406L311.796 24.2394L311.494 24.2143L311.318 24.1891L310.84 24.2143L310.563 24.2394L310.287 24.2143L310.086 24.1137L309.96 24.0383L309.834 23.9377L309.709 23.8623L309.357 23.4097L309.256 23.2085L309.105 22.9822L308.954 22.781L308.828 22.5548L308.602 22.253L308.351 21.8507L308.124 21.4987L307.898 21.2975L307.596 21.1718L307.144 21.0209L306.54 20.7946L305.887 20.4929L305.56 20.2918L305.509 20.166V20.0152L305.535 19.8894L305.61 19.7134L305.66 19.5625L305.736 19.4117L305.912 19.1854L306.088 19.0094L306.239 18.8334L306.49 18.5316L306.616 18.3556L306.691 18.0539V17.7521V17.2995L306.716 16.9223V16.6961L306.742 16.5201L306.892 15.7657V15.3383L306.917 15.0114L306.943 14.609L306.993 14.2319L307.018 13.7793V13.5278L306.993 12.9244L306.968 12.4718L306.993 12.1952L306.968 11.994V11.7426L307.018 11.5666L307.194 11.3151L307.32 11.2145L307.446 11.1139L307.521 11.0637L307.596 11.0134L307.647 10.9631L307.898 10.7871L308.225 10.6362L308.502 10.4602L309.005 10.2339L309.357 10.0076L309.734 9.78128L310.161 9.52985L310.488 9.32869L310.79 9.15266L311.091 9.0018L311.444 8.72521L311.77 8.39832L311.921 8.02116V7.89543L311.821 7.59371L311.695 7.46798L311.544 7.31711L311.293 7.11595L310.865 6.66337L310.538 6.38678L310.237 6.13531L309.96 5.93415L309.658 5.70786L309.507 5.60726L309.256 5.48157L308.979 5.33067L308.753 5.17981L308.703 4.97864L308.678 4.80265L308.577 4.70205L308.477 4.62662L308.2 4.55119L307.974 4.47576L307.823 4.40033L307.697 4.29977L307.596 4.19917L307.446 4.02317L307.395 3.92257L307.144 3.57055L306.993 3.62085H306.565H306.314L306.037 3.59572H305.761L305.409 3.57055L305.233 3.54542L305.032 3.49512L304.805 3.46999L304.654 3.54542L304.629 3.67115L304.579 3.94774L304.554 4.19917L304.479 4.55119L303.8 4.95351L303.422 5.10437L303.171 5.17981L302.97 5.28041L302.618 5.38097L302.291 5.4564L302.039 5.48157L301.788 5.4564L301.587 5.38097L301.461 5.30554L301.184 5.15467L300.682 4.87808L300.33 4.65179L299.952 4.4255L299.726 4.22434L299.475 4.0483L299.324 3.82201L299.148 3.36939L299.098 3.21853L298.871 3.04253L298.117 2.89167L297.689 2.84137L297.111 2.74077H296.835L296.658 2.79107H296.105L295.879 2.69051L295.678 2.61508L295.2 2.43905L294.924 2.31332L294.471 2.08703L293.817 1.93616L293.515 1.88586L293.339 1.91103L293.088 2.0619L292.887 2.26306L292.686 2.48935L292.459 2.71564L292.208 2.84137L291.982 2.9671L291.856 3.16827L291.68 3.36939L291.403 3.62085L291.102 3.998L290.875 4.24947L290.749 4.47576L290.674 4.70205L290.548 4.92838L290.196 5.25524L289.668 5.33067L289.392 5.40614L289.191 5.63243L289.04 5.83359L288.989 6.13531L288.939 6.38678V6.61307L288.914 6.88966L288.889 7.39255L288.939 7.79487L289.015 8.12172L289.165 8.42348L289.291 8.62465L289.492 9.0018L289.568 9.25326L289.543 9.65555L289.04 10.2842L288.839 10.4602L288.612 10.6362L288.512 10.6865L288.436 10.7619L288.361 10.9128L288.336 11.0134L288.26 11.1139L288.084 11.29L287.958 11.3905L287.657 11.5414L286.802 11.7677L286.525 11.8432L286.324 11.8683L285.922 11.994L285.721 12.1449L285.519 12.3963L285.243 12.8238L285.117 13.0501L284.866 13.4524L284.69 13.7541L284.463 14.2319L284.363 14.4834L284.237 14.7599L284.287 14.9862L284.438 15.1622L284.589 15.3383L284.665 15.6149V15.7154L284.514 16.0423L284.438 16.168L284.312 16.2937L284.011 16.6206L283.86 16.7715L283.558 17.0229L283.407 17.1989L283.256 17.3498L283.055 17.5258L282.804 17.6767L282.552 17.8527L282.301 17.9785L281.748 18.1544L281.496 18.2802L281.245 18.4562L281.044 18.6573L280.842 18.8837L280.641 19.0597L280.415 19.2357L280.239 19.3614L279.912 19.5374L279.032 19.814L278.906 19.7888L278.705 19.7134L278.454 19.5625L278.127 19.3614L277.901 19.2608L277.649 19.1351L277.448 18.9842L277.272 18.9088L276.995 18.8334L276.643 18.7579L276.115 18.7076H275.612H275.361H275.16L274.682 18.7579H274.431L274.154 18.6825L273.978 18.5568L273.802 18.431L273.5 18.2047L273.324 18.079L273.123 17.9533L272.947 17.8527L272.771 17.7521L272.444 17.551L271.916 17.1989L271.564 16.9726L271.187 16.7464L270.885 16.5955L270.533 16.5452L270.005 16.5955H269.804L269.628 16.5703L269.502 16.4698L269.301 16.344L269.075 16.2937L268.748 16.2183L268.496 16.168L268.295 16.1429L267.994 16.1177H267.843H267.692H267.566L267.39 16.1429L267.189 16.2183L266.988 16.2937L266.686 16.4195L266.384 16.5452L266.057 16.6458L265.68 16.7715L265.404 16.8721L265.228 16.9475L264.876 17.1235L264.323 17.4504L263.996 17.6767L263.367 18.0539L262.965 18.255L262.537 18.4059L262.135 18.5316L260.903 18.7579L260.651 18.7328L260.45 18.6573L260.149 18.6322L259.947 18.6825L259.796 18.7328L259.646 18.8585L259.344 19.2105L259.143 19.3111L258.841 19.3614L258.64 19.462L258.514 19.6128L258.414 19.7386L258.288 19.99L258.162 20.1409L257.735 20.518L257.609 20.6186L257.408 20.7946L257.181 21.0209L256.955 21.197L256.679 21.5238L256.402 21.8004L256.176 22.0016L255.974 22.0519L255.396 22.0267L255.069 21.9513L254.843 21.9261L254.416 21.8758L253.988 21.8507H253.787H253.535L253.334 21.8758L253.058 21.9261L252.706 22.0016L252.429 22.077L252.052 22.1524L251.7 22.2279L251.197 22.3536L250.845 22.4542L250.568 22.5045L250.242 22.5548L249.764 22.6554L249.412 22.7559L249.185 22.8313L249.035 22.8816L248.582 23.0325L248.154 23.2337L247.677 23.4348L247.375 23.5605L246.897 23.6863L246.369 23.812L245.841 23.8874L245.464 23.9126L245.162 23.7869L244.835 23.5605L244.634 23.3342L244.584 23.284L244.358 23.1079L244.106 22.9319L243.955 22.8313L243.402 22.6554H243.025L242.673 22.6805L242.371 22.7308L241.919 22.7559H241.541L241.29 22.7308L240.963 22.6805L240.46 22.5296L240.335 22.5045L239.982 22.5296H239.781L239.555 22.5548L239.278 22.6554L239.077 22.7308L238.952 22.781L238.851 22.8313L238.574 22.9822L238.424 23.0576L238.222 23.1834L237.719 23.4348L237.518 23.5103L237.317 23.5354L237.091 23.5103L236.94 23.4348L236.789 23.3845L236.563 23.2588L236.311 23.1582L236.085 23.0325L235.758 22.8816L235.557 22.781L235.356 22.6554L235.13 22.5296L235.004 22.4793H234.752L234.476 22.5296L234.249 22.6302L234.149 22.6805L233.898 22.8062L233.571 22.9822H233.47H233.294H233.093H232.992L232.766 23.0325L232.515 23.2337L232.439 23.4097L232.364 23.5103L232.213 23.7114L232.012 23.9126L231.785 24.0635L231.66 24.1891L231.509 24.2897L231.056 24.5412L230.654 24.5663L230.528 24.516L230.503 24.4909L230.377 24.4155L230.277 24.3652L230.101 24.2646L229.925 24.1389V23.9629L229.95 23.812L229.975 23.6863L230.025 23.5605L230.075 23.3845L230.151 23.1582L230.201 23.0325L230.226 22.8062V22.7308L230.126 22.6302L229.975 22.5045L229.874 22.4793L229.648 22.429L229.195 22.2782L229.045 22.253L228.869 22.1776L228.592 22.1022L228.24 22.0016L227.989 21.9261L227.536 21.901L227.184 21.8758L226.958 21.8256L226.782 21.7753H226.58L226.279 21.6998L225.977 21.5992L225.6 21.4484L225.399 21.3981L225.097 21.373L224.82 21.3478L224.594 21.3227L224.493 21.2975L224.192 21.3478L224.091 21.4233L223.865 21.5992L223.714 21.725L223.613 21.8004L223.362 21.8758L222.884 21.9261H222.582L222.406 21.8758H222.281H222.13H221.979L221.401 21.9764L221.174 22.077L220.973 22.1776L220.797 22.2782L220.546 22.3788L220.219 22.4793L219.942 22.5296L219.666 22.5548H219.414L219.012 22.5296H218.735L218.082 22.3788L217.88 22.2782L217.654 22.1273L217.528 22.0267L217.352 21.9261L217.151 21.8758L216.875 21.8507L216.673 21.8758L216.472 21.9764L216.07 22.1273L215.718 22.253L215.24 22.4542L214.989 22.6051L214.637 22.7559L214.109 23.1582L213.706 23.4348L212.826 24.0383L212.474 24.2897L212.223 24.4155L211.846 24.4909H211.695L211.393 24.5663L211.091 24.5915H210.79L210.639 24.5663L210.438 24.4657L210.362 24.34L210.312 24.2143L210.236 24.1137L210.035 23.7617L209.759 23.284L209.532 22.9319L209.381 22.5799L209.306 22.3536L209.231 22.1524L209.155 22.0267L209.105 21.9513L208.979 21.8256L208.828 21.6495L208.703 21.4736L208.501 21.1215L208.426 20.8701V20.7192L208.652 20.4677L208.803 20.3672L208.904 20.0403L208.803 19.7888L208.677 19.5877L208.275 19.1351L207.973 18.7579L207.823 18.6322L207.596 18.4562L207.269 18.2802L206.892 18.1293L206.616 17.9785L206.44 17.8527L206.339 17.6013L206.238 17.375L206.113 17.1235L205.836 16.8218L205.685 16.6458L205.585 16.4698L205.635 16.2435L205.71 16.0674L205.761 15.9417L205.886 15.7657L205.962 15.5646L205.987 15.3634L205.962 15.1622L205.937 14.9359V14.7851L206.339 14.081L206.465 13.8799L206.716 13.4775L206.766 13.2512L206.741 12.9495L206.691 12.7484L206.616 12.5472L206.54 12.3712L206.314 12.0694L206.238 11.9689L206.188 11.9437L206.012 11.8934L205.61 11.8432L205.384 11.7929L205.057 11.7174L204.705 11.6671L204.327 11.642L203.875 11.6168L203.171 11.5414L202.944 11.466L202.844 11.3403L202.643 11.1139H202.416L202.064 11.2145L201.587 11.4157L201.386 11.4911L200.807 11.3654L200.48 11.3905L199.474 11.4911L199.022 11.5163L198.544 11.466L198.418 11.4408L198.293 11.3654L198.142 11.2145L197.991 11.0385L197.79 10.8373L197.513 10.6614L197.237 10.4602L196.96 10.259L196.658 10.0579L196.281 9.88188L196.03 9.75615L195.627 9.65555L195.225 9.58012L194.898 9.50469L194.622 9.47955L194.32 9.40412L194.094 9.35382L193.691 9.20296L193.415 9.07723L193.239 8.90124L193.113 8.70008L193.037 8.52405L193.012 8.37318L193.037 8.12172L193.088 7.9206V7.79487L193.163 7.56858L193.138 7.36741L193.063 7.16625L192.887 6.96509L192.736 6.88966L192.56 6.86449L192.233 6.88966L191.881 6.81423L191.654 6.6382L191.504 6.56277L191.353 6.51247H191.152L190.976 6.56277H190.774L190.523 6.46221L190.372 6.38678L190.272 6.21074L190.196 6.03475L190.146 5.90902L190.121 5.68273L190.045 5.5067L189.894 5.30554L189.769 5.17981L189.417 4.92838L189.065 4.75235L188.763 4.62662L188.461 4.50093L188.185 4.4255L187.858 4.35003L187.682 4.29977L187.38 4.17404L187.154 3.97287L186.877 3.82201L186.6 3.69628L186.424 3.62085L186.198 3.57055L185.519 3.62085L185.192 3.72141L184.991 3.77171L184.715 3.87231L184.312 4.02317L184.111 4.12374L183.935 4.19917L183.231 4.35003L182.728 4.47576L182.426 4.62662L182.1 4.85295L181.823 5.05411L181.37 5.20497L181.094 5.28041L180.641 5.43127L180.566 5.65756L180.666 5.90902L180.742 6.11018L180.893 6.36161L180.968 6.56277V6.83936L180.792 7.01539L180.39 7.14108L180.088 7.36741L179.736 7.64401L178.856 8.47375L178.479 9.0018L178.152 9.40412L177.8 9.70585L177.574 9.98244L177.171 10.4099L176.945 10.7117L176.844 10.8876L176.769 11.0134L176.693 11.1139L176.668 11.2145L176.618 11.3151V11.5414L176.668 11.9689L176.693 12.0694L176.719 12.2706L176.769 12.3963L176.819 12.5975V12.8741L176.869 13.1255L176.895 13.3015L176.945 13.5781L176.97 13.729L176.92 13.9302L176.869 14.1816L176.769 14.4834L176.618 14.7348L176.392 15.0365L176.115 15.464L176.04 15.5394L175.914 15.6651L175.637 15.7908L175.31 15.8411L175.135 15.8663L174.933 15.8411L174.707 15.7908L174.355 15.7154L174.179 15.6651L173.701 15.5143L173.55 15.464L173.324 15.4137L173.047 15.3383L172.746 15.288L172.243 15.3885L171.79 15.4388L171.614 15.464L171.388 15.3885L171.212 15.288L171.036 15.2377L170.734 15.1622L170.357 15.0365L170.106 14.9862L169.93 14.9359L169.779 14.8605L169.728 14.9108L169.502 15.112L169.376 15.1622H169.175L169.049 15.0365L168.949 14.9108L168.748 14.8856L168.572 14.8605L168.32 14.8856L168.144 14.9611L167.792 15.0868L167.591 15.112L167.39 15.1371L167.088 15.1622L166.837 15.2125L166.661 15.2377L166.258 15.3383L165.831 15.5897L165.655 15.7908L165.605 15.9166L165.529 16.1429V16.3189L165.58 16.5452L165.756 16.8218L165.932 17.0229L166.233 17.1738L166.485 17.2744L166.761 17.4253L166.862 17.4504L167.239 17.6264L167.415 17.727L167.742 18.0287L167.893 18.431L168.019 18.6071L168.27 18.7831L168.572 18.9339L168.748 19.11L168.798 19.4117L168.748 19.638L168.572 19.9146L168.295 20.2163L168.195 20.3672L167.993 20.5683L167.641 20.8952L167.491 21.0964L167.39 21.197L167.189 21.4484L167.088 21.6495L167.038 21.8507L166.963 22.2279L166.887 22.5045L166.711 22.8565L166.61 22.9571L166.309 23.1582L165.957 23.3845L165.73 23.4851L165.504 23.636L165.228 23.8874L165.001 23.9629L164.549 24.0383L164.146 24.1389L163.895 24.2143L163.669 24.3652L163.543 24.6418L163.518 24.8178L163.543 25.2955L163.593 25.5721L163.618 25.7481V25.8487L163.719 26.1756L163.669 26.3265L163.467 26.4773L163.115 26.6282L162.964 26.7036L162.889 26.9048L162.688 27.282L162.462 27.3574L161.959 27.3322L161.657 27.3071L161.255 27.3574L160.802 27.4831L160.525 27.5837L160.375 27.7094L160.299 27.9106L160.249 28.2626L160.224 28.6146V28.866V29.1678V29.3187V29.5198L160.299 29.6958L160.349 29.7713L160.777 29.9724L161.355 30.249L161.607 30.5256L161.682 30.8776L161.632 31.2548L161.556 31.5314L161.38 32.0091L161.28 32.2857L161.079 32.688L160.877 32.9898L160.676 33.3921L160.475 33.8447L160.375 34.0459L160.148 34.3979L159.922 34.5739L159.469 34.8002L159.117 34.8756L158.589 34.9511L158.212 35.0013L157.91 35.0516L157.458 35.1271L157.03 35.2025L156.804 35.2528L156.377 35.3785L155.999 35.454L155.647 35.5545L155.245 35.7054L154.893 35.8814L154.616 36.0323L154.315 36.2837L154.114 36.51L154.063 36.7615L154.038 37.0381L154.114 37.2644L154.29 37.5912L154.466 37.7421L154.767 37.9181L154.994 38.0439L155.321 38.1444L155.497 38.1947L155.723 38.3959L155.924 38.7228L156.201 39.0245L156.427 39.1251L156.653 39.3514L156.628 39.6028L156.427 39.9045L156.301 40.0806L156.1 40.3069L155.849 40.6841L155.647 41.0361L155.421 41.4384L155.245 41.715L155.069 42.0418L154.843 42.419L154.114 42.8213L153.762 42.9974L153.435 43.1733L152.907 43.3494L152.529 43.5002L152.102 43.802L151.725 44.154L151.498 44.4054L151.147 44.7072L150.794 44.9083L150.417 45.1849L150.141 45.4615L150.015 45.713L149.889 46.1656L149.638 46.593L149.336 46.8193L148.909 47.0456L148.531 47.3222L148.255 47.5234L148.079 47.6743L147.953 47.9006L147.853 48.1771L147.802 48.3531L147.777 48.6549V48.8309L147.827 49.1075L147.802 49.3338L147.702 49.6355L147.651 49.9373L147.677 50.1636V50.5407L147.702 50.6916L147.752 51.0688L147.777 51.2951V51.5968L147.752 51.9488V52.1751L147.727 52.4769L147.651 52.8037L147.526 53.0049L146.998 53.2312L146.646 53.4324L146.419 53.6335L146.067 53.885L145.74 54.0358L145.388 54.2118L145.212 54.3124L144.86 54.589L144.609 54.7399L144.282 54.8908L143.88 55.0416L143.603 55.1422L143.452 55.2428L143.251 55.5697L143.125 55.8714L142.924 56.1731L142.723 56.2989L142.547 56.4246L142.346 56.6257L142.245 56.8017L142.145 57.0783L142.094 57.2041L141.969 57.4555L141.793 57.5058L141.541 57.531H141.214L140.737 57.4052L139.982 57.2544L139.605 57.1789L139.203 57.1286L138.926 57.0783L138.75 57.0029L138.549 56.9275L138.197 56.8017L137.82 56.7515L137.493 56.7263H137.091L136.99 56.7515L136.789 56.852L136.714 56.9275L136.613 57.1035L136.537 57.2544L136.512 57.6567L136.588 57.9584L136.613 58.2601L136.487 58.7379L136.286 59.1402L135.884 59.7185L135.632 60.2466L135.481 60.5483L135.18 61.202L134.551 62.233L134.224 62.8365L134.023 63.2136L133.897 63.4902L133.696 63.8674L133.545 64.0434L133.118 64.2446L132.665 64.4206L132.313 64.672L132.037 64.9989L131.559 65.9041L131.408 66.2813L131.232 66.6333L130.905 67.1865L130.603 67.5888L130.327 67.966L130 68.3432L129.723 68.6952L129.396 69.0723L129.044 69.2986L128.667 69.4998L128.29 69.877L128.064 70.2038L127.737 70.7067L127.46 71.109L127.335 71.2599L127.108 71.5617L126.932 71.7125L126.63 71.9137L126.454 71.9891L126.228 72.0645L125.926 72.1651L125.675 72.2154L125.474 72.2405L125.323 72.2657H125.172H125.021H124.845L124.694 72.2908L124.669 72.2657L124.694 72.3411L124.719 72.4166L124.795 72.492L124.719 72.5171L124.644 72.5423L124.594 72.6177L124.619 72.7686L124.644 72.8943L124.594 73.0955Z" fill="#227359" stroke="#EAF3E9" stroke-width="0.98"/>
</svg>
