<svg width="44" height="51" viewBox="0 0 44 51" fill="none" xmlns="http://www.w3.org/2000/svg">
<path fill-rule="evenodd" clip-rule="evenodd" d="M22.0003 0C14.9218 0 9.18359 5.73822 9.18359 12.8167C9.18359 19.8951 14.9218 25.6333 22.0003 25.6333C29.0787 25.6333 34.8169 19.8951 34.8169 12.8167C34.8169 5.73822 29.0787 0 22.0003 0ZM11.4836 12.8167C11.4836 7.00847 16.1921 2.3 22.0003 2.3C27.8085 2.3 32.5169 7.00847 32.5169 12.8167C32.5169 18.6249 27.8085 23.3333 22.0003 23.3333C16.1921 23.3333 11.4836 18.6249 11.4836 12.8167Z" fill="#033323"/>
<path d="M13.2503 31C9.85107 31 6.5911 32.3503 4.18751 34.7539C1.78392 37.1575 0.433594 40.4175 0.433594 43.8167V49.65C0.433594 50.2851 0.948466 50.8 1.58359 50.8C2.21872 50.8 2.73359 50.2851 2.73359 49.65V43.8167C2.73359 41.0275 3.8416 38.3525 5.81385 36.3803C7.78611 34.408 10.4611 33.3 13.2503 33.3H30.7503C33.5395 33.3 36.2144 34.408 38.1867 36.3803C40.1589 38.3525 41.2669 41.0275 41.2669 43.8167V49.65C41.2669 50.2851 41.7818 50.8 42.4169 50.8C43.0521 50.8 43.5669 50.2851 43.5669 49.65V43.8167C43.5669 40.4175 42.2166 37.1575 39.813 34.7539C37.4094 32.3503 34.1495 31 30.7503 31H13.2503Z" fill="#033323"/>
</svg>
