<svg width="29" height="29" viewBox="0 0 29 29" fill="none" xmlns="http://www.w3.org/2000/svg">
<path d="M14.1667 -0.00012207C21.9906 -0.00012207 28.3333 6.34251 28.3333 14.1665C28.3333 21.9905 21.9906 28.3332 14.1667 28.3332C6.34263 28.3332 0 21.9905 0 14.1665C0 6.34251 6.34263 -0.00012207 14.1667 -0.00012207ZM14.1667 7.08321C13.6288 7.08321 13.1842 7.48292 13.1138 8.00154L13.1042 8.14571V13.104H8.14583C7.55904 13.104 7.08333 13.5798 7.08333 14.1665C7.08333 14.7045 7.48305 15.149 8.00166 15.2194L8.14583 15.229H13.1042V20.1874C13.1042 20.7742 13.5799 21.2499 14.1667 21.2499C14.7046 21.2499 15.1491 20.8501 15.2195 20.3316L15.2292 20.1874V15.229H20.1875C20.7743 15.229 21.25 14.7533 21.25 14.1665C21.25 13.6286 20.8502 13.1841 20.3317 13.1137L20.1875 13.104H15.2292V8.14571C15.2292 7.55891 14.7534 7.08321 14.1667 7.08321Z" fill="#1E6F5C"/>
</svg>
