<svg width="32" height="32" viewBox="0 0 32 32" fill="none" xmlns="http://www.w3.org/2000/svg">
<path d="M17.4508 7.53025C16.6128 6.82325 15.3872 6.82325 14.5492 7.53025L7.79916 13.2248C7.29241 13.6523 7 14.2815 7 14.9445V24.2497C7 25.2162 7.7835 25.9997 8.75 25.9997H11.75C12.7165 25.9997 13.5 25.2162 13.5 24.2497V20.2471C13.5 19.5678 14.0418 19.0151 14.7169 18.9975H17.2831C17.9582 19.0151 18.5 19.5678 18.5 20.2471V24.2497C18.5 25.2162 19.2835 25.9997 20.25 25.9997H23.25C24.2165 25.9997 25 25.2162 25 24.2497V14.9445C25 14.2815 24.7076 13.6523 24.2008 13.2248L17.4508 7.53025Z" fill="#58726C"/>
</svg>
