<svg width="24" height="24" viewBox="0 0 24 24" fill="none" xmlns="http://www.w3.org/2000/svg">
<path d="M13.4508 3.53025C12.6128 2.82325 11.3872 2.82325 10.5492 3.53025L3.79916 9.22479C3.29241 9.6523 3 10.2815 3 10.9445V20.2497C3 21.2162 3.7835 21.9997 4.75 21.9997H7.75C8.7165 21.9997 9.5 21.2162 9.5 20.2497V16.2471C9.5 15.5678 10.0418 15.0151 10.7169 14.9975H13.2831C13.9582 15.0151 14.5 15.5678 14.5 16.2471V20.2497C14.5 21.2162 15.2835 21.9997 16.25 21.9997H19.25C20.2165 21.9997 21 21.2162 21 20.2497V10.9445C21 10.2815 20.7076 9.6523 20.2008 9.22479L13.4508 3.53025Z" fill="#EAF3E9"/>
</svg>
