<svg width="20" height="20" viewBox="0 0 20 20"  xmlns="http://www.w3.org/2000/svg">
<path d="M8.33073 4.16667H11.6641C11.6641 3.24619 10.9179 2.5 9.9974 2.5C9.0769 2.5 8.33073 3.24619 8.33073 4.16667ZM7.08073 4.16667C7.08073 2.55583 8.38656 1.25 9.9974 1.25C11.6082 1.25 12.9141 2.55583 12.9141 4.16667H17.7057C18.0509 4.16667 18.3307 4.44649 18.3307 4.79167C18.3307 5.13684 18.0509 5.41667 17.7057 5.41667H16.6065L15.6298 15.5093C15.4748 17.1112 14.1286 18.3333 12.5193 18.3333H7.47547C5.86618 18.3333 4.52002 17.1112 4.365 15.5093L3.3883 5.41667H2.28906C1.94389 5.41667 1.66406 5.13684 1.66406 4.79167C1.66406 4.44649 1.94389 4.16667 2.28906 4.16667H7.08073ZM8.7474 8.125C8.7474 7.77983 8.46756 7.5 8.1224 7.5C7.77722 7.5 7.4974 7.77983 7.4974 8.125V14.375C7.4974 14.7202 7.77722 15 8.1224 15C8.46756 15 8.7474 14.7202 8.7474 14.375V8.125ZM11.8724 7.5C11.5272 7.5 11.2474 7.77983 11.2474 8.125V14.375C11.2474 14.7202 11.5272 15 11.8724 15C12.2176 15 12.4974 14.7202 12.4974 14.375V8.125C12.4974 7.77983 12.2176 7.5 11.8724 7.5Z"/>
</svg>
