<svg width="11" height="16" viewBox="0 0 11 16" fill="none" xmlns="http://www.w3.org/2000/svg">
<path d="M8.02166 10.3652C8.05701 10.0264 8.16014 9.85546 8.39289 9.76413C8.60797 9.67869 8.9085 9.80538 9.02635 10.0322C9.12652 10.2238 9.04108 10.922 8.86136 11.417C8.5844 12.1772 7.92148 12.9579 7.25856 13.3085C6.86965 13.5148 6.44538 13.2643 6.44538 12.8312C6.44538 12.6309 6.5485 12.4836 6.81073 12.3156C7.49427 11.8766 7.94211 11.1518 8.02166 10.3652Z" fill="#1E6F5C"/>
<path fill-rule="evenodd" clip-rule="evenodd" d="M4.60394 1.2493C4.99285 0.665928 5.06062 0.577538 5.17847 0.515667C5.34052 0.430223 5.53202 0.439062 5.69113 0.536291C5.77362 0.589324 6.04468 0.972344 6.89617 2.2422C7.5031 3.14377 8.16013 4.14257 8.36048 4.45783C9.71284 6.59095 10.4907 8.17901 10.7529 9.35164C10.8089 9.60797 10.8206 9.74056 10.8206 10.1589C10.8206 10.8572 10.7323 11.3522 10.4936 11.9945C9.8248 13.8006 8.16602 15.1618 6.2686 15.4593C5.18436 15.6302 4.08244 15.4741 3.10132 15.0086C1.48969 14.2455 0.375985 12.7811 0.0636765 11.0281C-0.00703495 10.6215 -0.0217665 9.9468 0.0342134 9.59913C0.269918 8.16134 1.29818 6.16963 3.46666 2.94048C3.65384 2.66259 3.87128 2.33896 4.07324 2.03836C4.28454 1.72387 4.4789 1.43459 4.60394 1.2493ZM8.1454 6.13722C7.65042 5.30342 7.45596 5.00289 6.40708 3.41778C5.8738 2.61344 5.42596 1.95346 5.41417 1.95346C5.39355 1.95346 3.50202 4.79076 3.18382 5.29752C2.69178 6.08124 2.18207 6.97692 1.87271 7.59564C1.18917 8.95684 0.977032 9.76413 1.08015 10.6038C1.26872 12.1182 2.13199 13.3468 3.48434 14.0127C4.50671 14.5165 5.66755 14.602 6.76947 14.2514C8.25736 13.7799 9.35339 12.5484 9.68927 10.9662C9.77471 10.5596 9.78355 9.82305 9.70694 9.51075C9.48302 8.60623 9.01456 7.59564 8.1454 6.13722Z" fill="#1E6F5C"/>
</svg>
