<svg width="61" height="49" viewBox="0 0 61 49" fill="none" xmlns="http://www.w3.org/2000/svg">
<path fill-rule="evenodd" clip-rule="evenodd" d="M13.8086 33.2333C13.8086 31.7928 14.9764 30.625 16.4169 30.625C17.8575 30.625 19.0253 31.7928 19.0253 33.2333C19.0253 34.6739 17.8575 35.8417 16.4169 35.8417C14.9764 35.8417 13.8086 34.6739 13.8086 33.2333ZM16.4169 32.925C16.2466 32.925 16.1086 33.063 16.1086 33.2333C16.1086 33.4036 16.2466 33.5417 16.4169 33.5417C16.5872 33.5417 16.7253 33.4036 16.7253 33.2333C16.7253 33.063 16.5872 32.925 16.4169 32.925Z" fill="#033323"/>
<path fill-rule="evenodd" clip-rule="evenodd" d="M3.59961 1.15C3.59961 0.514873 4.11448 0 4.74961 0H30.9996C31.5719 0 32.0571 0.420819 32.1381 0.987365L35.0284 21.2196L44.4336 21.9891V6.98335C44.4336 5.84702 44.8174 4.81071 45.5725 4.0556C46.3276 3.30048 47.3639 2.91669 48.5003 2.91669C49.1354 2.91669 49.6503 3.43156 49.6503 4.06669C49.6503 4.70181 49.1354 5.21669 48.5003 5.21669C47.8866 5.21669 47.4646 5.41622 47.1988 5.68194C46.9331 5.94766 46.7336 6.36969 46.7336 6.98335V22.1773L57.3016 23.042C58.5065 23.0564 59.5095 23.5842 60.1309 24.4881C60.7371 25.3698 60.9011 26.4892 60.7194 27.5849L60.7187 27.5891L58.3865 42.165C58.2973 42.7229 57.816 43.1334 57.251 43.1334H55.39C54.8416 46.443 51.966 48.9667 48.5009 48.9667C45.0358 48.9667 42.1602 46.4429 41.6118 43.1333H28.6458C25.7612 46.692 21.3547 48.9667 16.4169 48.9667C7.72765 48.9667 0.683594 41.9226 0.683594 33.2333C0.683594 28.2952 2.95855 23.8885 6.51758 21.004V2.3H4.74961C4.11448 2.3 3.59961 1.78513 3.59961 1.15ZM41.6118 40.8333C42.1602 37.5237 45.0358 35 48.5009 35C51.966 35 54.8417 37.5237 55.39 40.8334H56.2703L58.4487 27.2183L58.45 27.211C58.5588 26.558 58.4307 26.0749 58.2356 25.7911C58.0636 25.5409 57.7736 25.3417 57.251 25.3417C57.2197 25.3417 57.1884 25.3404 57.1572 25.3379L45.9155 24.4181C45.8104 24.4497 45.699 24.4667 45.5836 24.4667C45.4019 24.4667 45.23 24.4245 45.0772 24.3495L28.3516 22.981C30.7193 25.7347 32.1503 29.3169 32.1503 33.2333C32.1503 35.9896 31.4415 38.5804 30.1962 40.8333H41.6118ZM29.8503 33.2333C29.8503 36.2423 28.861 39.0202 27.1899 41.2595C27.1783 41.2738 27.1671 41.2883 27.1562 41.3031C27.1502 41.3113 27.1443 41.3196 27.1385 41.328C24.6861 44.5711 20.7962 46.6667 16.4169 46.6667C8.9979 46.6667 2.98359 40.6524 2.98359 33.2333C2.98359 28.8569 5.07638 24.9693 8.31578 22.5167C8.34413 22.4973 8.37158 22.4767 8.39804 22.4549C10.6361 20.7871 13.4112 19.8 16.4169 19.8C19.4296 19.8 22.2106 20.7917 24.4513 22.4665C24.4686 22.4803 24.4864 22.4937 24.5046 22.5065C27.7517 24.9586 29.8503 28.8509 29.8503 33.2333ZM25.5869 20.4471L32.6775 21.0273L30.0022 2.3H20.4836V18.0306C22.3427 18.5266 24.0662 19.3546 25.5869 20.4471ZM18.1836 17.5981C17.6036 17.5333 17.0142 17.5 16.4169 17.5C13.6609 17.5 11.0703 18.2086 8.81758 19.4537V2.3H18.1836V17.5981ZM43.8176 41.9833C43.8176 39.3968 45.9144 37.3 48.5009 37.3C51.0874 37.3 53.1842 39.3968 53.1842 41.9833C53.1842 44.5699 51.0874 46.6667 48.5009 46.6667C45.9144 46.6667 43.8176 44.5699 43.8176 41.9833Z" fill="#033323"/>
</svg>
