<svg width="19" height="19" viewBox="0 0 19 19" fill="none" xmlns="http://www.w3.org/2000/svg">
<path d="M8.499 7.49905L8.5 19.001L3.25006 19.0017C1.51701 19.0017 0.10076 17.6454 0.00514007 15.9362L0 15.7518V7.49905H8.499ZM9.999 13.499H18.5L18.5008 15.7518C18.5006 17.5466 17.0456 19.0017 15.2507 19.0017L10 19.001L9.999 13.499ZM15.2514 0.498047C16.9844 0.498047 18.4007 1.8544 18.4963 3.56354L18.5014 3.74797L18.5 11.999H9.999L10 0.498047H15.2514ZM8.5 0.498047L8.499 5.99905H0L0.0006001 3.74799C0.0008101 1.95316 1.45582 0.498047 3.25065 0.498047H8.5Z" fill="#EAF3E9"/>
</svg>
