<svg width="18" height="18" viewBox="0 0 18 18"  xmlns="http://www.w3.org/2000/svg">
<path d="M4.66873 11.9229C5.05925 11.5324 5.69242 11.5324 6.08294 11.9229C6.47347 12.3134 6.47347 12.9466 6.08294 13.3371L3.415 16.0042H5C5.51284 16.0042 5.93551 16.3903 5.99327 16.8876L6 17.0042C6 17.5565 5.55228 18.0042 5 18.0042H1C0.44772 18.0042 0 17.5565 0 17.0042V13.0042C0 12.4519 0.44772 12.0042 1 12.0042C1.55228 12.0042 2 12.4519 2 13.0042V14.5912L4.66873 11.9229ZM13.005 18.0042C12.4527 18.0042 12.005 17.5565 12.005 17.0042C12.005 16.4519 12.4527 16.0042 13.005 16.0042H14.588L11.9226 13.3368C11.5623 12.9762 11.5348 12.409 11.8399 12.0168L11.9232 11.9226C12.3138 11.5322 12.947 11.5325 13.3374 11.9232L16.005 14.5932V13.0042C16.005 12.4914 16.3911 12.0687 16.8884 12.0109L17.005 12.0042C17.5573 12.0042 18.005 12.4519 18.005 13.0042V17.0042C18.005 17.5565 17.5573 18.0042 17.005 18.0042H13.005ZM5 0C5.55228 0 6 0.44772 6 1C6 1.55228 5.55228 2 5 2H3.417L6.08239 4.66817C6.44273 5.0288 6.47023 5.59604 6.16505 5.98821L6.08183 6.08239C5.69115 6.47276 5.05799 6.47251 4.66762 6.08183L2 3.412V5C2 5.51284 1.61396 5.93551 1.11662 5.99327L1 6C0.44772 6 0 5.55228 0 5V1C0 0.44772 0.44772 0 1 0H5ZM17.005 0C17.5573 0 18.005 0.44772 18.005 1V5C18.005 5.55228 17.5573 6 17.005 6C16.4527 6 16.005 5.55228 16.005 5V3.412L13.3372 6.08196C12.9768 6.44252 12.4096 6.47037 12.0173 6.16542L11.923 6.08225C11.5324 5.6918 11.5323 5.05864 11.9228 4.66804L14.589 2H13.005C12.4922 2 12.0695 1.61396 12.0117 1.11662L12.005 1C12.005 0.44772 12.4527 0 13.005 0H17.005Z" />
</svg>
