<svg width="12" height="16" viewBox="0 0 12 16" fill="none" xmlns="http://www.w3.org/2000/svg">
<path d="M8.51692 10.5199C8.55446 10.1601 8.66394 9.9787 8.91107 9.88172C9.13943 9.791 9.45851 9.92552 9.58364 10.1664C9.69 10.3697 9.59928 11.1111 9.40846 11.6367C9.11441 12.4437 8.41056 13.2727 7.70671 13.645C7.29379 13.8639 6.84332 13.598 6.84332 13.1382C6.84332 12.9255 6.95281 12.7691 7.23122 12.5908C7.95697 12.1247 8.43246 11.3551 8.51692 10.5199Z" fill="#033323"/>
<path fill-rule="evenodd" clip-rule="evenodd" d="M4.88819 0.84118C5.30111 0.221794 5.37306 0.127947 5.49819 0.0622555C5.67024 -0.0284635 5.87357 -0.0190792 6.0425 0.0841533C6.13009 0.140461 6.41788 0.547129 7.32194 1.89539C7.96635 2.85262 8.66394 3.91309 8.87666 4.24781C10.3125 6.51263 11.1384 8.19874 11.4168 9.44377C11.4762 9.71592 11.4887 9.85669 11.4887 10.3009C11.4887 11.0423 11.3949 11.5678 11.1415 12.2498C10.4314 14.1674 8.6702 15.6126 6.65563 15.9286C5.50444 16.11 4.33449 15.9442 3.2928 15.4499C1.58166 14.6397 0.399199 13.085 0.0676079 11.2237C-0.00746928 10.792 -0.0231104 10.0757 0.0363257 9.70654C0.286583 8.17997 1.37833 6.0653 3.6807 2.63678C3.87943 2.34173 4.1103 1.99812 4.32472 1.67897C4.54907 1.34505 4.75543 1.03791 4.88819 0.84118ZM8.6483 6.03089C8.12276 5.1456 7.9163 4.82653 6.80265 3.14355C6.23645 2.28954 5.76096 1.58882 5.74844 1.58882C5.72655 1.58882 3.71823 4.60129 3.38039 5.13935C2.85797 5.97145 2.31679 6.92243 1.98833 7.57935C1.26259 9.02459 1.03735 9.88172 1.14684 10.7733C1.34705 12.3812 2.26361 13.6856 3.69946 14.3926C4.78495 14.9275 6.01747 15.0182 7.18742 14.646C8.76717 14.1455 9.93087 12.8379 10.2875 11.158C10.3782 10.7263 10.3876 9.94428 10.3063 9.61269C10.0685 8.65233 9.57112 7.57935 8.6483 6.03089Z" fill="#033323"/>
</svg>
