<svg width="32" height="32" viewBox="0 0 32 32" fill="none" xmlns="http://www.w3.org/2000/svg">
<path d="M25.0236 23.7423L25.0328 23.7381L25.0398 23.7349L25.048 23.731L25.0549 23.7276L25.0635 23.7235L25.0703 23.7201L25.0787 23.7158L25.0853 23.7125L25.0939 23.708L25.1007 23.7044L25.1095 23.6998L25.1156 23.6965L25.1298 23.6886L25.1366 23.6848L25.1447 23.6802L25.1527 23.6756L25.1589 23.672L25.1674 23.667L25.1738 23.6632L25.1819 23.6583L25.1883 23.6543L25.1966 23.6492L25.2026 23.6454L25.2108 23.6402L25.217 23.6362C25.2287 23.6287 25.2403 23.621 25.2518 23.6131L25.2522 23.6128L25.2634 23.6051L25.266 23.6033L25.277 23.5955L25.2796 23.5936L25.2908 23.5856L25.2927 23.5842L25.3045 23.5756L25.3053 23.5749C25.8407 23.1772 26.1812 22.4339 25.8927 21.892C25.0779 21.7348 24.5254 21.5522 24.0852 21.3315L24.0848 21.3313C24.0572 21.3175 24.0301 21.3035 24.0034 21.2894L23.9988 21.287C23.9815 21.2778 23.9644 21.2685 23.9473 21.2592L23.933 21.2513C23.8977 21.2318 23.863 21.2119 23.8289 21.1918L23.8145 21.1832C23.7808 21.1631 23.7477 21.1428 23.7151 21.1221L23.7006 21.1129C23.6596 21.0866 23.6193 21.06 23.5796 21.0328C23.5634 21.0217 23.5472 21.0105 23.5312 20.9992C23.4522 20.9437 23.3751 20.8862 23.2986 20.8265C23.2813 20.813 23.2641 20.7994 23.2468 20.7857C23.2353 20.7766 23.2238 20.7674 23.2124 20.7582L23.1951 20.7443C23.1722 20.7258 23.1492 20.7071 23.1261 20.6881C23.0858 20.655 23.0452 20.6212 23.0043 20.5868C22.981 20.5671 22.9575 20.5472 22.9338 20.5271C22.922 20.5171 22.9101 20.507 22.8982 20.4968L22.8802 20.4816C22.8491 20.455 22.818 20.427 22.7869 20.3998L22.7866 20.4007C22.7676 20.384 22.7485 20.3673 22.7295 20.3504L22.7273 20.3485C22.7111 20.3341 22.6949 20.3197 22.6787 20.3051L22.677 20.3036C22.6609 20.2892 22.6448 20.2747 22.6287 20.2601L22.6254 20.2572C22.6093 20.2425 22.5931 20.2279 22.577 20.2131L22.5764 20.2126C22.5605 20.1981 22.5445 20.1835 22.5286 20.1688L22.5221 20.1629C22.5082 20.1501 22.4943 20.1372 22.4804 20.1244L22.4699 20.1147C22.4561 20.1019 22.4422 20.089 22.4284 20.0762L22.4195 20.068C22.407 20.0563 22.3945 20.0447 22.382 20.033L22.3637 20.0159C22.3558 20.0086 22.348 20.0012 22.3401 19.9939C21.2786 19.0005 20.1667 17.8643 18.6018 18.1178C17.8403 18.2412 17.1855 18.7142 16.4582 18.971C16.1982 19.0628 15.9311 19.1263 15.6598 19.1675C15.3436 17.3892 15.2017 15.9621 15.2098 14.636C16.2137 14.0582 17.0282 13.7082 17.7169 13.5069C18.1741 14.4981 19.06 15.2828 20.0995 15.6162C21.1465 15.9519 22.3329 15.8245 23.2847 15.2742C24.5637 14.5348 25.3184 13.1585 25.9632 11.8293C25.9555 11.8305 25.9478 11.8316 25.94 11.8327L25.9404 11.8322C24.7497 12.0001 23.6324 11.2327 22.4559 10.9523L22.45 10.9509C22.4424 10.949 22.4347 10.9473 22.4271 10.9455L22.4212 10.9441C22.4143 10.9426 22.4074 10.941 22.4006 10.9395L22.3922 10.9376C22.3633 10.9311 22.3344 10.925 22.3054 10.9192C22.1577 10.8897 22.0085 10.8686 21.8585 10.8559C21.8435 10.8546 21.8285 10.8534 21.8135 10.8523C21.7084 10.8445 21.603 10.8409 21.4977 10.8412C21.4676 10.8413 21.4375 10.8418 21.4074 10.8425C21.3773 10.8433 21.3472 10.8444 21.3171 10.8458C21.2581 10.8485 21.1992 10.8526 21.1404 10.8579C21.1242 10.8593 21.1081 10.8608 21.0919 10.8625C21.0635 10.8654 21.0352 10.8685 21.0069 10.872C20.9903 10.874 20.9738 10.8761 20.9573 10.8783C20.9275 10.8823 20.8977 10.8867 20.8679 10.8913C20.8109 10.9003 20.754 10.9104 20.6973 10.9217C20.6802 10.9251 20.663 10.9286 20.6459 10.9322C20.6311 10.9354 20.6164 10.9386 20.6017 10.9418C20.5723 10.9484 20.543 10.9553 20.5138 10.9625C20.3676 10.9985 20.2234 11.0424 20.082 11.0941C20.0538 11.1045 20.0256 11.1151 19.9976 11.1261C19.8294 11.1919 19.6655 11.2688 19.5076 11.3566C19.455 11.3859 19.4032 11.4163 19.3523 11.4478C19.1615 11.566 18.983 11.6995 18.8178 11.8466C18.7957 11.8662 18.7739 11.8861 18.7524 11.9062C18.7308 11.9263 18.7095 11.9466 18.6884 11.9672C18.6778 11.9774 18.6673 11.9878 18.6569 11.9982C18.6256 12.0294 18.5949 12.061 18.5647 12.0933C18.5546 12.104 18.5446 12.1148 18.5347 12.1256C18.5148 12.1473 18.4951 12.1692 18.4757 12.1913C18.466 12.2024 18.4564 12.2135 18.4468 12.2247C18.3852 12.2965 18.3263 12.3705 18.2699 12.4466C18.2509 12.4721 18.2322 12.4979 18.2138 12.524C18.2044 12.5373 18.1951 12.5507 18.1858 12.5641C18.1805 12.5718 18.1753 12.5795 18.17 12.5873C18.1446 12.6247 18.1199 12.6625 18.0957 12.7008C17.9645 12.9086 17.8511 13.129 17.7566 13.3597C17.0581 13.556 16.2318 13.9038 15.2114 14.4859C15.2125 14.4095 15.2141 14.3335 15.2163 14.2577C15.2519 12.9834 15.4269 11.9314 15.7514 11.0417C15.7564 11.0279 15.7615 11.0141 15.7667 11.0003C16.8438 11.0823 17.9493 10.7004 18.7447 9.96911C19.5541 9.22499 20.0299 8.13072 20.022 7.03128C20.0115 5.55396 19.1882 4.21764 18.3516 3C18.3488 3.0073 18.3459 3.01457 18.343 3.02184L18.3428 3.02124C17.8962 4.14906 16.6595 4.74146 15.8339 5.63841L15.8311 5.64141C15.8044 5.67053 15.778 5.69997 15.7522 5.72975C15.3476 6.19613 15.0536 6.75629 14.8921 7.35203C14.8803 7.39563 14.8692 7.4394 14.8588 7.48336C14.8415 7.55661 14.8262 7.63032 14.8129 7.7044C14.773 7.92663 14.7515 8.1521 14.7494 8.37798C14.7491 8.4081 14.7491 8.43817 14.7496 8.46818C14.75 8.4982 14.7507 8.52815 14.7519 8.55807C14.7524 8.57302 14.7531 8.58797 14.7538 8.60289C14.7574 8.67752 14.7633 8.75179 14.7712 8.82561C14.7728 8.84038 14.7744 8.85513 14.7762 8.86986C14.7815 8.91406 14.7875 8.95812 14.7942 9.00198C14.7987 9.03122 14.8036 9.06041 14.8088 9.0895C14.814 9.11859 14.8195 9.14761 14.8253 9.17655C14.834 9.21995 14.8435 9.26317 14.8537 9.30619C14.8809 9.42089 14.9133 9.53421 14.9506 9.64584C14.96 9.67374 14.9696 9.70155 14.9795 9.72925C15.0044 9.79851 15.0312 9.86708 15.0599 9.93493C15.0714 9.96207 15.0831 9.98908 15.0952 10.016C15.1073 10.0429 15.1196 10.0697 15.1323 10.0963C15.145 10.123 15.1579 10.1495 15.1712 10.1759C15.1934 10.2202 15.2165 10.2641 15.2403 10.3076C15.252 10.329 15.2638 10.3503 15.2759 10.3715C15.2979 10.4101 15.3206 10.4484 15.3439 10.4863C15.3594 10.5116 15.3752 10.5368 15.3913 10.5618C15.4235 10.6119 15.4568 10.6613 15.4911 10.7102C15.5083 10.7346 15.5258 10.7589 15.5435 10.783C15.5524 10.795 15.5613 10.8071 15.5703 10.819C15.598 10.8559 15.6263 10.8924 15.6553 10.9286C15.6467 10.9514 15.6381 10.9743 15.6297 10.9974C15.3004 11.9003 15.1229 12.9656 15.0868 14.2541C15.0703 14.845 15.0836 15.4512 15.129 16.0955C14.5459 15.178 14.0177 14.5262 13.5273 14.0504C13.5376 13.9495 13.5444 13.8486 13.5476 13.7479C13.5485 13.7185 13.5491 13.6891 13.5494 13.6598C13.5496 13.6449 13.5497 13.63 13.5497 13.6151C13.5498 13.2882 13.512 12.9642 13.4358 12.6496C13.4323 12.6353 13.4288 12.6211 13.4252 12.6068C13.4107 12.5497 13.3949 12.493 13.3778 12.4366C13.3736 12.4226 13.3692 12.4085 13.3648 12.3944C13.3029 12.1978 13.2254 12.0056 13.132 11.8195C13.1187 11.793 13.105 11.7665 13.091 11.7402C13.077 11.7138 13.0627 11.6877 13.0481 11.6616C13.0115 11.5965 12.9729 11.5321 12.9323 11.4688C12.8429 11.3293 12.7448 11.1955 12.639 11.0683C12.6197 11.0451 12.6002 11.0222 12.5805 10.9995C12.4817 10.8859 12.3767 10.7778 12.2661 10.6756C12.2439 10.6552 12.2216 10.635 12.199 10.6151C12.1426 10.5652 12.0849 10.5169 12.0259 10.4701C11.9315 10.3953 11.8338 10.3246 11.7333 10.2582C11.7082 10.2416 11.6829 10.2253 11.6574 10.2093C11.53 10.1291 11.3983 10.0558 11.2629 9.98991C11.2494 9.98333 11.2358 9.97682 11.2222 9.97038C11.0453 9.88672 10.8625 9.81575 10.6752 9.75868C9.47328 9.39238 8.05173 9.58356 7.04119 8.84157L7.04132 8.84219L7.02246 8.82825C6.96106 10.3043 6.97404 11.8739 7.75043 13.1308C8.32819 14.0662 9.31287 14.7402 10.394 14.9402C11.4724 15.1398 12.63 14.8646 13.5036 14.2014C13.9997 14.697 14.5367 15.3819 15.1403 16.3572L15.1501 16.3694C15.2209 17.2217 15.3464 18.1437 15.5315 19.1854C14.9375 19.2605 14.326 19.235 13.7282 19.1731C12.8129 19.0783 11.904 18.9021 10.9839 18.8873C10.0639 18.8726 9.10959 19.0338 8.35058 19.554C7.59156 20.0742 7.02524 21.0404 7.2368 21.9146H7.23698C7.28041 22.0923 7.36678 22.2622 7.48667 22.3936C7.67842 22.6036 7.92472 22.7401 8.18831 22.8432C8.20219 22.8486 8.21608 22.8539 8.23006 22.8592C8.24402 22.8644 8.25802 22.8696 8.27207 22.8747C8.2791 22.8772 8.28612 22.8797 8.29316 22.8822C8.32132 22.8922 8.3496 22.9019 8.37801 22.9113C8.3993 22.9184 8.42063 22.9253 8.44203 22.9321C8.46339 22.9389 8.4848 22.9456 8.50624 22.9521C8.51339 22.9543 8.52054 22.9565 8.52767 22.9586C8.54911 22.9651 8.57055 22.9715 8.59199 22.9778C8.59914 22.9799 8.60629 22.982 8.61343 22.9841C8.62771 22.9882 8.64201 22.9923 8.65627 22.9964C8.67053 23.0005 8.6848 23.0046 8.69903 23.0086C8.71328 23.0127 8.72748 23.0167 8.7417 23.0207C8.8553 23.0528 8.97039 23.0855 9.08429 23.122C9.09139 23.1243 9.0985 23.1266 9.10562 23.1289C9.11982 23.1335 9.13403 23.1382 9.1482 23.1429C9.16235 23.1477 9.17651 23.1525 9.19061 23.1574C9.20472 23.1623 9.2188 23.1673 9.23283 23.1723C9.25389 23.1798 9.27486 23.1876 9.29574 23.1955C9.30465 23.1989 9.31356 23.2024 9.32243 23.2059C9.35902 23.2201 9.39527 23.2351 9.43109 23.2508C9.44084 23.255 9.45057 23.2594 9.46024 23.2638L9.48041 23.273C9.49034 23.2776 9.50021 23.2823 9.51006 23.287C9.53119 23.2972 9.55214 23.3076 9.5729 23.3184C9.58521 23.3248 9.59744 23.3313 9.60961 23.338L9.6269 23.3475C9.65465 23.363 9.68198 23.3791 9.70884 23.3959L9.71727 23.4013C9.82109 23.4671 9.91787 23.5437 10.0045 23.6345C10.1834 23.8222 10.3049 24.0552 10.4016 24.3062C10.4045 24.3138 10.4074 24.3214 10.4103 24.329C10.4586 24.4571 10.5008 24.5896 10.5411 24.7229L10.545 24.7356C10.5507 24.7547 10.5564 24.7738 10.5621 24.793C10.5683 24.8136 10.5744 24.8343 10.5805 24.8549C10.6005 24.9224 10.6203 24.9898 10.6406 25.0566L10.6444 25.0693C10.6599 25.1201 10.6756 25.1706 10.6919 25.2205L10.6956 25.2319C10.7095 25.2744 10.7238 25.3164 10.7386 25.3579L10.7436 25.372C10.7552 25.4041 10.7671 25.4358 10.7793 25.4671C10.7846 25.4803 10.7898 25.4935 10.7952 25.5066C10.8079 25.5379 10.8211 25.5687 10.8347 25.599L10.8407 25.6123C10.8451 25.6219 10.8496 25.6315 10.8541 25.641C10.8651 25.6642 10.8764 25.6871 10.888 25.7096C10.8986 25.73 10.9094 25.7501 10.9205 25.7699L10.9318 25.7896C10.9431 25.8092 10.9548 25.8285 10.9668 25.8476C10.9735 25.8581 10.9803 25.8685 10.9871 25.8788L10.9953 25.891C11.0011 25.8995 11.007 25.908 11.013 25.9165C11.0406 25.9553 11.0699 25.9925 11.1011 26.028C11.1177 26.0468 11.1348 26.0651 11.1525 26.0829L11.1682 26.0984C11.2348 26.1629 11.3094 26.2202 11.3939 26.2687C11.5202 26.3411 11.6564 26.3849 11.797 26.4164L11.8052 26.4183C11.8308 26.4239 11.8565 26.4291 11.8823 26.4341C11.896 26.4367 11.9097 26.4392 11.9234 26.4417C11.9372 26.4442 11.9509 26.4465 11.9647 26.4489C11.998 26.4546 12.0315 26.4599 12.065 26.4651L12.0711 26.4661C12.1106 26.4722 12.1502 26.4782 12.1898 26.4844C12.1978 26.4857 12.2058 26.4869 12.2139 26.4882C12.2267 26.4902 12.2396 26.4923 12.2525 26.4944L12.2584 26.4954C12.2978 26.5019 12.3371 26.5088 12.3762 26.5165C12.3992 26.521 12.422 26.5257 12.4448 26.5308C12.4572 26.5335 12.4696 26.5363 12.4819 26.5393C12.509 26.5457 12.536 26.5527 12.5628 26.5603L12.5825 26.566L12.5839 26.5665L12.6011 26.5717L12.6059 26.5732L12.6195 26.5775L12.6256 26.5795L12.6389 26.5839L12.6444 26.5858L12.6577 26.5904L12.6636 26.5925L12.6819 26.5991C12.7838 26.6371 12.8788 26.6855 12.9683 26.7422C12.9802 26.7498 12.9921 26.7575 13.0038 26.7653C13.0742 26.8124 13.1413 26.8647 13.2057 26.921L13.2217 26.9351C13.2324 26.9446 13.243 26.9543 13.2535 26.964C13.2798 26.9882 13.3057 27.0132 13.3312 27.0387C13.3618 27.0693 13.3918 27.1008 13.4215 27.1329L13.4362 27.1491C13.4461 27.1599 13.4558 27.1708 13.4656 27.1817C13.5191 27.2419 13.5714 27.3042 13.6228 27.3678C13.6322 27.3794 13.6415 27.391 13.6508 27.4027C13.6974 27.4609 13.7434 27.5201 13.7894 27.5796C13.7986 27.5915 13.8077 27.6034 13.8169 27.6153C13.8261 27.6273 13.8353 27.6392 13.8445 27.6511C13.8537 27.6631 13.8629 27.675 13.8721 27.6869C13.8859 27.7048 13.8997 27.7228 13.9135 27.7406C13.9227 27.7526 13.932 27.7645 13.9412 27.7764C13.969 27.812 13.9969 27.8476 14.025 27.8829C14.0343 27.8947 14.0437 27.9064 14.0532 27.9181L14.0673 27.9356C14.0768 27.9473 14.0863 27.9589 14.0958 27.9705C14.1053 27.9821 14.1149 27.9937 14.1244 28.0052C14.1388 28.0224 14.1533 28.0395 14.1679 28.0566L14.1825 28.0735C14.202 28.0961 14.2217 28.1185 14.2416 28.1406C14.2566 28.1571 14.2716 28.1736 14.2868 28.1898C14.3121 28.2169 14.3377 28.2435 14.3638 28.2696L14.3795 28.2851C14.4739 28.3782 14.5737 28.4641 14.6816 28.5391C14.7024 28.5535 14.7235 28.5675 14.7448 28.5811L14.7608 28.5912C14.7682 28.5958 14.7758 28.6004 14.7833 28.6049C14.811 28.6216 14.839 28.6375 14.8673 28.6527C14.906 28.6734 14.9453 28.6927 14.9852 28.7106L14.998 28.7163C15.006 28.7198 15.0139 28.7233 15.0219 28.7267C15.0294 28.7299 15.0368 28.733 15.0443 28.7361C15.1236 28.7686 15.2048 28.7959 15.2875 28.8182L15.2951 28.8203C15.426 28.855 15.5604 28.8773 15.6965 28.888L15.7152 28.8894C15.8585 28.8996 16.0034 28.897 16.1478 28.8827L16.1515 28.8823C16.1815 28.8793 16.2115 28.8758 16.2415 28.8718C16.2486 28.8709 16.2557 28.8699 16.2628 28.8689C16.3056 28.8628 16.3483 28.8557 16.3908 28.8477C16.4121 28.8437 16.4333 28.8394 16.4544 28.8349C16.4642 28.8328 16.4739 28.8307 16.4836 28.8286L16.4919 28.8267C16.5015 28.8245 16.511 28.8223 16.5205 28.8201L16.5294 28.8179C16.5387 28.8157 16.548 28.8134 16.5573 28.8111C16.5666 28.8087 16.576 28.8063 16.5853 28.8039C16.5943 28.8015 16.6033 28.7991 16.6123 28.7967L16.6224 28.7939C16.6312 28.7915 16.64 28.789 16.6488 28.7865L16.6593 28.7835C16.6679 28.781 16.6765 28.7785 16.6851 28.7759C16.7562 28.7545 16.8264 28.7305 16.8955 28.704C16.9027 28.7012 16.9099 28.6984 16.9171 28.6956C16.943 28.6854 16.9687 28.6749 16.9942 28.664C17.011 28.6569 17.0277 28.6495 17.0443 28.6421C17.0569 28.6365 17.0695 28.6308 17.082 28.625C17.1275 28.6041 17.1725 28.5823 17.217 28.5595C17.2278 28.554 17.2385 28.5484 17.2493 28.5428C17.3038 28.5142 17.3577 28.4842 17.4108 28.4531C17.5614 28.3647 17.7065 28.2664 17.8469 28.1605C17.8589 28.1514 17.871 28.1422 17.8829 28.133C17.9107 28.1116 17.9383 28.09 17.9658 28.068C17.9818 28.0552 17.9978 28.0423 18.0137 28.0293C18.027 28.0184 18.0403 28.0075 18.0535 27.9965C18.0662 27.9859 18.0788 27.9753 18.0914 27.9647C18.1161 27.9438 18.1407 27.9226 18.1652 27.9013C18.1845 27.8845 18.2036 27.8676 18.2227 27.8506C18.2513 27.8251 18.2797 27.7993 18.308 27.7733C18.3357 27.7478 18.3632 27.7221 18.3906 27.6961C18.4008 27.6865 18.4109 27.6768 18.421 27.6671C18.4389 27.65 18.4567 27.6328 18.4745 27.6155L18.4759 27.6141C18.5125 27.5785 18.5488 27.5424 18.5849 27.5062C18.6027 27.4882 18.6205 27.4702 18.6382 27.4521L18.6393 27.451C18.6568 27.4332 18.6742 27.4153 18.6915 27.3974C18.7007 27.3879 18.7098 27.3783 18.719 27.3688C18.7279 27.3596 18.7367 27.3503 18.7456 27.3411C18.7633 27.3225 18.7809 27.3039 18.7985 27.2853C18.8336 27.2481 18.8685 27.2107 18.9032 27.1732C18.9713 27.0995 19.0393 27.0249 19.1073 26.9498C19.1243 26.931 19.1412 26.9122 19.1582 26.8934C19.1922 26.8557 19.2262 26.8179 19.2601 26.78C19.2771 26.761 19.2941 26.7421 19.3111 26.7231C19.3196 26.7136 19.3282 26.7041 19.3367 26.6946C19.3622 26.6661 19.3877 26.6376 19.4132 26.6091C19.4218 26.5995 19.4303 26.59 19.4388 26.5805C19.4729 26.5424 19.507 26.5044 19.5412 26.4663C19.5498 26.4568 19.5583 26.4473 19.5669 26.4378C20.4396 25.4674 21.3537 24.5156 22.5747 24.1987C23.3743 23.9911 24.2424 24.0819 25.0023 23.7519L25.0052 23.7507L25.0175 23.7452L25.0236 23.7423Z" fill="#58726C"/>
<path d="M15.2096 14.636C16.2135 14.0582 17.028 13.7082 17.7167 13.5069C19.02 13.1259 19.873 13.2776 20.7073 13.426C20.8733 13.4555 21.045 13.486 21.2175 13.5119C22.9809 13.7769 24.3382 13.2319 25.1665 12.7284C25.1971 12.7098 25.2068 12.67 25.1882 12.6394C25.1697 12.6088 25.1297 12.5992 25.0992 12.6177C24.2892 13.1102 22.9617 13.6429 21.2367 13.3839C21.0659 13.3582 20.8951 13.3278 20.7299 13.2985C19.8951 13.15 19.0421 12.9983 17.7563 13.3597C17.0578 13.556 16.2316 13.9038 15.2111 14.4858C15.2123 14.4095 15.2139 14.3334 15.216 14.2577C15.2516 12.9833 15.4267 11.9313 15.7511 11.0416C15.7561 11.0278 15.7613 11.014 15.7664 11.0002C16.104 10.0962 16.6587 9.30611 17.1954 8.54165C17.4089 8.23764 17.6296 7.92325 17.8354 7.60398C18.4875 6.59249 19.115 5.38921 18.825 4.13409C18.8169 4.09923 18.7822 4.07741 18.7473 4.08558C18.7125 4.09361 18.6907 4.1284 18.6988 4.16325C18.9779 5.37136 18.364 6.54504 17.7266 7.53381C17.5221 7.85092 17.3022 8.16423 17.0894 8.46722C16.5532 9.23102 15.9992 10.0202 15.6551 10.9285C15.6464 10.9514 15.6378 10.9743 15.6294 10.9973C15.3002 11.9003 15.1226 12.9656 15.0866 14.254C15.07 14.8449 15.0834 15.4512 15.1288 16.0954C14.5456 15.1779 14.0174 14.5262 13.527 14.0504C12.5754 13.1271 11.7661 12.8663 10.9743 12.6111C10.8025 12.5558 10.6249 12.4985 10.449 12.4354C8.80711 11.8468 7.88997 10.7489 7.40968 9.93165C7.39157 9.90081 7.35186 9.89043 7.32103 9.90862C7.29018 9.92673 7.27988 9.96644 7.298 9.99727C7.78913 10.833 8.72689 11.9556 10.4052 12.5574C10.5831 12.6211 10.7618 12.6787 10.9345 12.7344C11.7615 13.0009 12.5584 13.2577 13.5033 14.2014C13.9995 14.697 14.5365 15.3819 15.1401 16.3572L15.1498 16.3694C15.2206 17.2217 15.3461 18.1437 15.5312 19.1854C15.5741 19.18 15.6169 19.174 15.6596 19.1675C15.3434 17.3892 15.2015 15.962 15.2096 14.636Z" fill="#58726C"/>
<path d="M25.896 21.8918C24.2139 21.5674 23.6496 21.1346 22.8835 20.4815C21.6477 19.4278 20.4366 17.821 18.6051 18.1177C17.8436 18.2411 17.1888 18.7141 16.4615 18.9709C16.2015 19.0628 15.9344 19.1262 15.6631 19.1674C15.6204 19.1739 15.5776 19.1799 15.5347 19.1853C14.9407 19.2604 14.3293 19.2349 13.7314 19.173C12.8162 19.0782 11.9072 18.902 10.9872 18.8872C10.0671 18.8725 9.11285 19.0337 8.35384 19.5539C7.59482 20.0741 7.02852 21.0403 7.24006 21.9145H7.24026C7.23841 21.907 7.23664 21.8994 7.23494 21.8919L25.896 21.8918Z" fill="#58726C"/>
<path d="M25.8955 21.892H7.23438C7.23607 21.8995 7.23786 21.9071 7.23969 21.9146C7.28312 22.0923 7.36948 22.2622 7.48938 22.3936C7.81234 22.7473 8.28999 22.8925 8.74441 23.0207C9.19884 23.149 9.67689 23.2881 10.0072 23.6345C10.7012 24.3625 10.5316 25.7722 11.3966 26.2687C11.7849 26.4915 12.2666 26.4434 12.6846 26.5991C13.5545 26.9232 13.9174 28.0059 14.6843 28.539C15.3512 29.0026 16.2537 28.981 16.9969 28.664C17.7401 28.347 18.3509 27.7733 18.9059 27.1731C19.9962 25.9939 21.0452 24.5963 22.5774 24.1986C23.377 23.9911 24.2451 24.0819 25.005 23.7519C25.7017 23.4493 26.2355 22.5307 25.8955 21.892Z" fill="#58726C"/>
<path d="M7.40779 9.93166C7.83633 10.6609 8.61272 11.6135 9.94128 12.2284C10.3531 12.3629 10.778 12.4658 11.1873 12.6022C11.5645 12.728 11.9364 12.8749 12.2871 13.0633C12.6111 13.2373 12.9544 13.4438 13.1933 13.7289C13.211 13.7499 13.2279 13.7713 13.2441 13.7929C13.3365 13.8726 13.4301 13.9582 13.5252 14.0504C13.6177 13.1439 13.4236 12.2388 12.9302 11.4687C12.7596 11.2025 12.5572 10.9571 12.3296 10.7376C12.3079 10.7167 12.2861 10.696 12.2639 10.6756C12.2529 10.6654 12.2418 10.6552 12.2306 10.6451C12.1971 10.6149 12.1631 10.5851 12.1286 10.5559C12.0941 10.5268 12.0592 10.4981 12.0238 10.4701C12.0002 10.4514 11.9764 10.433 11.9524 10.4148C11.9404 10.4057 11.9283 10.3967 11.9162 10.3877C11.892 10.3698 11.8676 10.3521 11.8431 10.3347C11.8185 10.3173 11.7937 10.3002 11.7688 10.2833C11.7313 10.258 11.6935 10.2333 11.6553 10.2093C11.617 10.1852 11.5784 10.1617 11.5395 10.1389C11.4875 10.1085 11.4349 10.0793 11.3816 10.0512C11.3683 10.0441 11.3549 10.0372 11.3415 10.0303C11.2612 9.98901 11.1795 9.95037 11.0967 9.9145C10.9586 9.85471 10.8171 9.80257 10.6731 9.75867C10.6449 9.75007 10.6165 9.74178 10.5881 9.73378L10.5736 9.72976L10.5594 9.72582L10.5491 9.72306L10.5307 9.71808L10.5235 9.71617C10.5162 9.71424 10.5089 9.71232 10.5017 9.71043L10.5011 9.71029C9.33759 9.40837 8.00182 9.54846 7.03906 8.84155L7.0392 8.84218C7.11453 9.20483 7.21366 9.56136 7.35831 9.90005C7.37818 9.90201 7.3969 9.91312 7.40779 9.93166Z" fill="#58726C"/>
<path d="M18.2069 13.2227C18.5523 13.0847 18.9524 13.0655 19.3202 13.0656C19.7184 13.0657 20.1154 13.1124 20.5073 13.1803C20.9324 13.2539 21.3554 13.3645 21.7819 13.4411C23.243 13.5285 24.378 13.0571 25.1007 12.6178C25.1191 12.6066 25.1408 12.6057 25.1593 12.6134C25.4471 12.3836 25.7032 12.1165 25.9413 11.8327L25.9417 11.8322C24.7003 12.0072 23.5387 11.1657 22.3066 10.9192C21.7898 10.8158 21.2534 10.8162 20.7357 10.9144C20.7061 10.92 20.6766 10.926 20.6471 10.9322C20.6177 10.9385 20.5883 10.945 20.559 10.9519C20.5297 10.9588 20.5004 10.966 20.4713 10.9735C20.4421 10.981 20.413 10.9889 20.3841 10.997C20.3696 11.0011 20.3551 11.0053 20.3407 11.0095C20.2973 11.0222 20.2542 11.0356 20.2113 11.0497C20.1541 11.0685 20.0973 11.0886 20.041 11.1099C19.9706 11.1365 19.901 11.1651 19.8322 11.1955C19.7221 11.2443 19.6142 11.298 19.5089 11.3566C19.1141 11.5762 18.768 11.8594 18.477 12.1913C18.4382 12.2356 18.4003 12.2807 18.3635 12.3267C18.3359 12.3611 18.3088 12.3961 18.2823 12.4314C18.2558 12.4668 18.2299 12.5027 18.2045 12.5389C18.1453 12.6236 18.0892 12.7106 18.0363 12.7998C18.0061 12.8508 17.9769 12.9024 17.9488 12.9548C17.9417 12.9679 17.9347 12.981 17.9278 12.9942C17.8658 13.1128 17.809 13.2348 17.7578 13.3597C17.8717 13.3277 17.9821 13.2998 18.0895 13.2755C18.1275 13.2564 18.1665 13.2388 18.2069 13.2227Z" fill="#58726C"/>
<path d="M15.7287 10.4323C15.7796 10.0638 15.9606 9.70647 16.1425 9.3868C16.3395 9.04078 16.5763 8.71875 16.829 8.41166C17.3302 7.80255 17.9354 7.26063 18.2842 6.5425C18.6144 5.8627 18.7369 5.09398 18.668 4.34342C18.6263 3.88953 18.5029 3.45 18.3439 3.02184L18.3436 3.02124C17.8971 4.14906 16.6603 4.74145 15.8347 5.63841L15.832 5.6414C15.8052 5.67053 15.7789 5.69997 15.753 5.72975C15.5557 5.95725 15.3846 6.20708 15.2424 6.47246C15.2353 6.48573 15.2283 6.49904 15.2213 6.51238C15.1795 6.59245 15.1404 6.67389 15.1038 6.75653C15.0734 6.82539 15.0449 6.89507 15.0182 6.96547C15.0075 6.99363 14.9972 7.0219 14.9871 7.05029C14.9369 7.19223 14.8942 7.33686 14.8596 7.48336C14.8527 7.51267 14.8461 7.54203 14.8398 7.57148C14.8366 7.5862 14.8336 7.60094 14.8306 7.61569C14.8246 7.64519 14.819 7.67477 14.8137 7.7044C14.7738 7.92663 14.7523 8.1521 14.7502 8.37797C14.7413 9.31278 15.0725 10.2009 15.6561 10.9286C15.6763 10.8751 15.6973 10.8222 15.7189 10.7695C15.7108 10.6591 15.7129 10.5469 15.7287 10.4323Z" fill="#58726C"/>
<path d="M25.8955 21.892H25.0589C24.9918 21.9948 24.9121 22.0897 24.8155 22.1705C24.4824 22.4493 24.0306 22.5084 23.6111 22.4914C23.1497 22.4727 22.6963 22.3653 22.2432 22.2844C21.8139 22.2077 21.3879 22.166 20.9519 22.1998C20.0507 22.2695 19.1447 22.5828 18.4765 23.2077C17.9319 23.7171 17.6066 24.4187 17.0418 24.9073C16.7756 25.1376 16.4292 25.3047 16.0733 25.3183C15.8148 25.3281 15.5889 25.2207 15.4012 25.0489C14.9836 24.6668 14.7576 24.1189 14.3308 23.7441C14.1101 23.5502 13.8431 23.4206 13.5464 23.408C13.1531 23.3913 12.8672 23.6559 12.5335 23.8138C12.4094 23.8725 12.2139 23.9382 12.0875 23.8527C11.9808 23.7805 11.9475 23.6182 11.9277 23.5009C11.8731 23.1764 11.9696 22.8261 11.8585 22.512C11.7088 22.089 11.2417 22.0285 10.8484 22.0467C10.6095 22.0577 10.372 22.0971 10.1326 22.0975C9.89544 22.0979 9.65459 22.0862 9.41854 22.0634C9.1573 22.0381 8.90181 21.9861 8.66403 21.892H7.23438C7.23605 21.8995 7.23786 21.9071 7.2397 21.9146C7.28314 22.0923 7.36948 22.2622 7.48939 22.3936C7.81234 22.7473 8.29 22.8925 8.74441 23.0207C8.81087 23.0395 8.87782 23.0585 8.94475 23.0783C8.96707 23.0849 8.98938 23.0916 9.01166 23.0984C9.02948 23.1039 9.04729 23.1094 9.06508 23.115C9.08285 23.1207 9.10063 23.1264 9.11836 23.1322C9.13608 23.138 9.15378 23.1439 9.17141 23.1499C9.19788 23.1589 9.22424 23.1681 9.25047 23.1777C9.26796 23.1841 9.28538 23.1906 9.30275 23.1972C9.3201 23.2038 9.33738 23.2106 9.35458 23.2175C9.37179 23.2244 9.38893 23.2315 9.40594 23.2387C9.46556 23.2641 9.52403 23.2914 9.58097 23.3212C9.60946 23.3361 9.63758 23.3516 9.66523 23.3679C9.6798 23.3764 9.69426 23.3851 9.70859 23.3941C9.72023 23.4013 9.73177 23.4087 9.74321 23.4162L9.76154 23.4284C9.78073 23.4414 9.79965 23.4548 9.8183 23.4686L9.83023 23.4775C9.89278 23.5246 9.95203 23.5767 10.0072 23.6345C10.1895 23.8257 10.3121 24.0639 10.4097 24.3203L10.4162 24.3376C10.4345 24.3863 10.4519 24.4357 10.4687 24.4855C10.4726 24.4972 10.4765 24.509 10.4804 24.5208C10.4849 24.5345 10.4894 24.5483 10.4938 24.5621C10.4995 24.5797 10.5051 24.5974 10.5107 24.6151C10.53 24.6765 10.5486 24.7383 10.567 24.8001C10.5717 24.816 10.5764 24.8319 10.5811 24.8479C10.5899 24.8773 10.5986 24.9068 10.6073 24.9363C10.6103 24.9466 10.6134 24.9569 10.6164 24.9671C10.6212 24.983 10.6259 24.9989 10.6306 25.0147C10.6336 25.0244 10.6365 25.0342 10.6394 25.0439C10.6431 25.056 10.6468 25.0681 10.6504 25.0802L10.6538 25.0912C10.6645 25.1262 10.6754 25.161 10.6865 25.1955L10.6913 25.2105C10.6947 25.2209 10.6981 25.2313 10.7015 25.2418C10.7075 25.2597 10.7134 25.2776 10.7195 25.2955C10.7273 25.3184 10.7353 25.3412 10.7434 25.3639C10.7461 25.3714 10.7488 25.379 10.7516 25.3865C10.7598 25.409 10.7682 25.4314 10.7768 25.4536C10.8039 25.5237 10.833 25.592 10.8649 25.6578C10.8699 25.6683 10.8751 25.6788 10.8803 25.6892C10.918 25.7641 10.9595 25.8355 11.0059 25.9024C11.0151 25.9158 11.0246 25.9291 11.0343 25.9421C11.044 25.9551 11.0539 25.9679 11.064 25.9806C11.0741 25.9932 11.0844 26.0057 11.095 26.0179C11.1319 26.0607 11.1716 26.1011 11.2145 26.1386C11.2329 26.1547 11.2519 26.1703 11.2715 26.1853C11.3106 26.2153 11.3523 26.2432 11.3966 26.2686C11.4064 26.2742 11.4161 26.2796 11.426 26.2848L11.4305 26.2873L11.4425 26.2935L11.4476 26.2961L11.4588 26.3017L11.465 26.3047L11.4753 26.3096L11.4825 26.313L11.4938 26.3182L11.4997 26.3209L11.5115 26.326L11.5174 26.3285L11.5279 26.3329L11.5353 26.336L11.545 26.3399L11.5531 26.3431L11.5636 26.3472L11.5708 26.3499L11.5822 26.3541L11.5886 26.3564L11.5998 26.3604L11.6069 26.3628L11.6172 26.3663L11.6251 26.369L11.6353 26.3723L11.6434 26.3749L11.653 26.3778L11.6619 26.3806L11.6718 26.3835L11.6799 26.3859L11.691 26.3891L11.6983 26.3911L11.7095 26.3942L11.7167 26.3961L11.7281 26.3991L11.7355 26.401L11.7458 26.4037L11.7545 26.4058L11.7651 26.4084L11.7725 26.4102L11.7841 26.4129L11.7915 26.4146L11.803 26.4172L11.81 26.4187L11.8217 26.4213L11.8293 26.4229L11.8402 26.4252L11.8482 26.4268L11.8588 26.4289L11.8677 26.4307L11.8777 26.4327L11.886 26.4343L11.8984 26.4366L11.9041 26.4377L11.9178 26.4402L11.923 26.4411L11.9367 26.4436L11.942 26.4445L11.9564 26.447L11.9607 26.4477L11.9757 26.4503L11.9798 26.451L11.9936 26.4533L12.0001 26.4543L12.0135 26.4565L12.0185 26.4573L12.0334 26.4597L12.0362 26.4602C12.1038 26.4709 12.1717 26.4809 12.2394 26.4919L12.241 26.4921C12.2531 26.4941 12.2651 26.4961 12.2772 26.4981L12.2802 26.4986C12.2928 26.5008 12.3053 26.5029 12.3179 26.5052L12.3182 26.5052L12.3345 26.5081L12.3383 26.5088L12.3536 26.5117L12.3574 26.5124L12.3724 26.5153L12.3768 26.5161C12.4147 26.5234 12.4523 26.5315 12.4896 26.5405L12.4913 26.5409L12.5087 26.5452L12.5108 26.5457L12.5287 26.5503L12.5303 26.5507L12.5458 26.5549L12.5494 26.5559L12.564 26.5599L12.5674 26.5609L12.585 26.566L12.5871 26.5666L12.6036 26.5716L12.6044 26.5719L12.6074 26.5728L12.6089 26.5733L12.622 26.5775L12.6229 26.5778L12.6277 26.5793L12.6285 26.5796L12.6413 26.5838L12.6428 26.5843L12.6465 26.5856L12.6473 26.5858L12.6599 26.5902L12.662 26.591L12.6658 26.5923L12.6664 26.5925L12.6846 26.5991C12.7895 26.6382 12.887 26.6883 12.9787 26.7471C12.9858 26.7517 12.9928 26.7562 12.9998 26.7609C13.0138 26.7701 13.0277 26.7796 13.0414 26.7893C13.0757 26.8134 13.1092 26.8387 13.1419 26.8652C13.2141 26.9233 13.2828 26.9867 13.349 27.054C13.3697 27.075 13.3902 27.0964 13.4104 27.1181C13.4196 27.1279 13.4287 27.1378 13.4377 27.1478C13.8511 27.6014 14.1805 28.1888 14.6843 28.5391C14.7556 28.5886 14.8295 28.6326 14.9057 28.6713L14.9167 28.6768C14.9259 28.6814 14.935 28.6859 14.9442 28.6903L14.9464 28.6914C14.9563 28.6961 14.9662 28.7007 14.9761 28.7053C14.9833 28.7086 14.9905 28.7118 14.9977 28.715C15.0075 28.7194 15.0174 28.7236 15.0274 28.7278C15.0373 28.7321 15.0473 28.7362 15.0573 28.7402L15.0712 28.7458L15.0894 28.7529C15.112 28.7616 15.1348 28.7698 15.1577 28.7777C15.1714 28.7824 15.1852 28.787 15.199 28.7914C15.2271 28.8004 15.2554 28.8087 15.2839 28.8165C15.2917 28.8187 15.2996 28.8208 15.3074 28.8228L15.3168 28.8252C15.3319 28.8291 15.347 28.8328 15.3622 28.8363L15.3706 28.8383C15.3801 28.8404 15.3895 28.8425 15.399 28.8446L15.4068 28.8462C15.4287 28.8508 15.4508 28.8552 15.4729 28.8591C15.4873 28.8617 15.5016 28.8641 15.516 28.8664C15.5265 28.8681 15.5369 28.8696 15.5474 28.8712L15.5527 28.8719C15.5634 28.8734 15.5741 28.8749 15.5848 28.8763L15.5895 28.8769C15.6136 28.8799 15.6377 28.8825 15.6618 28.8848L15.6805 28.8865C15.6988 28.8881 15.7172 28.8895 15.7356 28.8906L15.7379 28.8908C15.756 28.8919 15.7742 28.8928 15.7924 28.8936L15.7938 28.8936C15.8282 28.895 15.8627 28.8956 15.8972 28.8956C15.9145 28.8956 15.9317 28.8953 15.949 28.8949C15.9663 28.8946 15.9836 28.894 16.0009 28.8933L16.0198 28.8924C16.0514 28.8909 16.0829 28.8887 16.1144 28.886L16.1333 28.8844C16.1516 28.8827 16.1699 28.8808 16.1882 28.8787L16.192 28.8783C16.2033 28.877 16.2145 28.8756 16.2257 28.8742L16.23 28.8737C16.2544 28.8705 16.2788 28.8671 16.3032 28.8633C16.3158 28.8614 16.3283 28.8593 16.3408 28.8572C16.3533 28.8551 16.3659 28.8529 16.3784 28.8506C16.3891 28.8486 16.3998 28.8466 16.4105 28.8445C16.4319 28.8403 16.4532 28.8359 16.4745 28.8312C16.4852 28.8289 16.4958 28.8265 16.5065 28.824C16.5383 28.8167 16.5701 28.8087 16.6017 28.8003C16.6123 28.7975 16.6228 28.7946 16.6333 28.7917L16.6424 28.7891C16.6576 28.7849 16.6727 28.7805 16.6877 28.776C16.7028 28.7714 16.7178 28.7668 16.7327 28.7621C16.7402 28.7597 16.7477 28.7573 16.7552 28.7548C16.7775 28.7475 16.7998 28.74 16.822 28.7322C16.8368 28.7269 16.8515 28.7216 16.8662 28.7161C16.9103 28.6998 16.9539 28.6824 16.9969 28.6641C17.0524 28.6404 17.1072 28.6153 17.1613 28.5888C17.2064 28.5668 17.2509 28.5438 17.295 28.52C17.3095 28.5121 17.3239 28.5042 17.3383 28.4962C17.3502 28.4895 17.3621 28.4829 17.3739 28.4761C17.3913 28.4662 17.4087 28.4561 17.4259 28.4459C17.4432 28.4356 17.4604 28.4253 17.4775 28.4148C17.4946 28.4044 17.5117 28.3938 17.5287 28.383C17.5372 28.3777 17.5457 28.3723 17.5541 28.3669C17.5681 28.3579 17.582 28.3488 17.596 28.3397C17.6072 28.3322 17.6185 28.3248 17.6297 28.3173C17.6381 28.3117 17.6464 28.306 17.6548 28.3004C17.7108 28.2622 17.7662 28.2227 17.8208 28.1821L17.8331 28.1729C17.8453 28.1638 17.8575 28.1546 17.8696 28.1453C17.8796 28.1377 17.8895 28.1301 17.8994 28.1224C17.9075 28.1162 17.9154 28.11 17.9234 28.1038C18.018 28.0297 18.1106 27.9522 18.2012 27.8722L18.2065 27.8675C18.2818 27.8008 18.3559 27.7322 18.4288 27.6623C18.4361 27.6553 18.4435 27.6482 18.4508 27.6411C18.4655 27.6269 18.4802 27.6127 18.4948 27.5984C18.5167 27.5769 18.5385 27.5554 18.5602 27.5337C18.5693 27.5245 18.5785 27.5154 18.5876 27.5062C18.6055 27.4882 18.6232 27.4702 18.6409 27.4521L18.642 27.451C18.6595 27.4332 18.6769 27.4153 18.6942 27.3974C18.7038 27.3875 18.7133 27.3776 18.7228 27.3676C18.7398 27.35 18.7567 27.3323 18.7735 27.3146L18.7762 27.3117C18.8198 27.2658 18.863 27.2195 18.9059 27.1731C19.0385 27.0298 19.1704 26.8832 19.3027 26.7356C19.3424 26.6913 19.3821 26.6469 19.4218 26.6025C19.4616 26.5581 19.5014 26.5136 19.5413 26.4692L19.5465 26.4634C19.5868 26.4186 19.6272 26.3738 19.6677 26.3291C19.7486 26.2396 19.83 26.1506 19.912 26.0623C19.953 26.0182 19.9942 25.9743 20.0355 25.9307L20.0383 25.9278C20.1074 25.8549 20.177 25.7828 20.2473 25.7117C20.4562 25.5005 20.6708 25.2985 20.8944 25.1131C20.9114 25.099 20.9285 25.085 20.9456 25.071C20.9659 25.0546 20.9862 25.0383 21.0066 25.0221L21.0226 25.0094C21.055 24.9839 21.0876 24.9588 21.1203 24.9341L21.1395 24.9197C21.1714 24.8958 21.2034 24.8724 21.2356 24.8493C21.2432 24.8439 21.2507 24.8385 21.2583 24.8332C21.2895 24.8111 21.321 24.7893 21.3526 24.7679C21.4018 24.7347 21.4514 24.7025 21.5015 24.6712C21.5315 24.6525 21.5617 24.6341 21.5921 24.6161C21.6451 24.5846 21.6988 24.5543 21.753 24.5252C21.7817 24.5099 21.8105 24.4949 21.8394 24.4802C22.0733 24.3618 22.3185 24.2659 22.5774 24.1987C22.666 24.1757 22.7553 24.1564 22.8453 24.1398C22.8625 24.1366 22.8797 24.1335 22.8969 24.1305C22.9248 24.1257 22.9527 24.1211 22.9807 24.1167C22.9958 24.1143 23.0109 24.112 23.026 24.1098C23.0562 24.1053 23.0865 24.101 23.1168 24.0969C23.1471 24.0928 23.1775 24.0889 23.2078 24.0852C23.2382 24.0814 23.2687 24.0779 23.2991 24.0744L23.307 24.0735C23.4603 24.0561 23.6142 24.0416 23.7675 24.0254C23.7804 24.024 23.7933 24.0226 23.8061 24.0213C23.8576 24.0157 23.909 24.0099 23.9603 24.0037C23.9988 23.999 24.0372 23.9941 24.0755 23.9889C24.0851 23.9876 24.0947 23.9863 24.1042 23.985C24.1234 23.9823 24.1425 23.9795 24.1616 23.9767C24.1807 23.9738 24.1997 23.9709 24.2188 23.9678C24.2473 23.9633 24.2758 23.9585 24.3043 23.9534C24.3422 23.9467 24.38 23.9395 24.4176 23.9318C24.4301 23.9292 24.4427 23.9266 24.4552 23.9239C24.4927 23.9158 24.5301 23.9072 24.5674 23.898C24.5798 23.8949 24.5922 23.8917 24.6045 23.8885C24.6788 23.8691 24.7523 23.8471 24.825 23.8219C24.8372 23.8178 24.8493 23.8135 24.8613 23.8091C24.8855 23.8003 24.9095 23.7912 24.9335 23.7817C24.9575 23.7722 24.9813 23.7623 25.0051 23.752L25.0204 23.7452L25.0254 23.7429L25.0358 23.7381L25.042 23.7353L25.0511 23.7309L25.0571 23.728L25.0668 23.7233L25.0727 23.7204L25.0823 23.7155L25.0876 23.7128L25.0983 23.7073L25.1029 23.7048L25.1145 23.6986L25.1182 23.6967L25.1328 23.6887L25.1396 23.6848L25.1474 23.6804L25.1551 23.6759L25.1621 23.6718L25.1698 23.6673L25.1767 23.6632L25.1845 23.6585L25.1914 23.6543L25.1992 23.6494L25.2054 23.6455L25.2137 23.6402L25.2199 23.6362L25.2279 23.631L25.2314 23.6287C25.2383 23.6242 25.2452 23.6196 25.252 23.6149L25.2553 23.6127L25.2659 23.6053L25.2688 23.6033L25.2793 23.5959L25.2827 23.5935L25.293 23.5861L25.2961 23.5839L25.3073 23.5756L25.3081 23.575L25.3281 23.5599L25.3304 23.5582L25.35 23.5428L25.3516 23.5416L25.3711 23.5259L25.3724 23.5248L25.3914 23.509L25.3927 23.5079C25.8782 23.0979 26.1684 22.4047 25.8955 21.892Z" fill="#58726C"/>
<path d="M25.9759 22.1319C25.8934 22.3552 25.7728 22.5661 25.6312 22.7484C25.3472 23.114 24.9113 23.2938 24.4578 23.3194C23.9982 23.3453 23.5412 23.2411 23.0909 23.1654C22.5704 23.0779 22.0347 23.0117 21.5063 23.0178C20.9766 23.0239 20.4539 23.1224 19.9927 23.3932C19.6292 23.6066 19.3393 23.9141 19.0865 24.2476C18.5811 24.9144 18.2076 25.6898 17.5481 26.2273C16.888 26.7653 15.7823 27.1958 15.166 26.3667C14.9252 26.0428 14.8624 25.6206 14.6159 25.302C14.3292 24.9313 13.8178 24.9516 13.399 25.0077C12.9295 25.0705 12.4531 25.1987 11.9784 25.1054C11.5805 25.0273 11.2593 24.7787 11.165 24.3745C11.0858 24.0345 11.1474 23.6801 11.0732 23.3407C11.0376 23.1782 10.9665 23.0269 10.8264 22.9295C10.657 22.8119 10.4469 22.7677 10.2457 22.743C9.8177 22.6904 9.38414 22.7437 8.95556 22.6953C8.61306 22.6566 8.28022 22.5628 7.95996 22.4368C7.74578 22.3526 7.51084 22.238 7.29688 22.0933C7.34402 22.2038 7.40617 22.3074 7.48476 22.3935C7.80769 22.7472 8.28535 22.8924 8.73976 23.0206C8.82836 23.0456 8.91787 23.071 9.00701 23.0983C9.02483 23.1038 9.04264 23.1093 9.06043 23.1149C9.0782 23.1206 9.09598 23.1263 9.11371 23.1321C9.13143 23.1379 9.14913 23.1438 9.16676 23.1498C9.19323 23.1588 9.21959 23.168 9.24582 23.1776C9.26331 23.184 9.28074 23.1905 9.2981 23.1971C9.31545 23.2037 9.33274 23.2105 9.34993 23.2174C9.36714 23.2243 9.38428 23.2314 9.40129 23.2386C9.46091 23.264 9.51938 23.2913 9.57632 23.3211C9.60481 23.336 9.63293 23.3515 9.66058 23.3677C9.67515 23.3763 9.68961 23.385 9.70394 23.394C9.71558 23.4012 9.72712 23.4086 9.73856 23.4161L9.75689 23.4283C9.77608 23.4413 9.795 23.4547 9.81365 23.4685L9.82558 23.4774C9.88813 23.5245 9.94738 23.5766 10.0025 23.6344C10.1848 23.8256 10.3075 24.0638 10.405 24.3202L10.4116 24.3375C10.4298 24.3862 10.4472 24.4356 10.464 24.4854C10.4679 24.4971 10.4719 24.5089 10.4757 24.5207C10.4803 24.5344 10.4848 24.5482 10.4892 24.562C10.4949 24.5796 10.5005 24.5973 10.506 24.615C10.5253 24.6764 10.5439 24.7381 10.5623 24.8C10.567 24.8159 10.5718 24.8318 10.5765 24.8478C10.5852 24.8772 10.5939 24.9067 10.6026 24.9361C10.6057 24.9465 10.6087 24.9567 10.6118 24.967C10.6165 24.9829 10.6213 24.9987 10.626 25.0146C10.6289 25.0243 10.6319 25.034 10.6348 25.0438C10.6384 25.0559 10.6421 25.068 10.6458 25.0801L10.6492 25.0911C10.6599 25.1261 10.6707 25.1608 10.6818 25.1954L10.6867 25.2104C10.6901 25.2208 10.6934 25.2312 10.6969 25.2416C10.7028 25.2596 10.7088 25.2775 10.7148 25.2953C10.7227 25.3183 10.7306 25.3411 10.7388 25.3638C10.7415 25.3713 10.7442 25.3788 10.7469 25.3864C10.7552 25.4089 10.7635 25.4313 10.7721 25.4535C10.7993 25.5236 10.8284 25.5919 10.8602 25.6577C10.8653 25.6682 10.8704 25.6787 10.8756 25.6891C10.9134 25.764 10.9548 25.8354 11.0012 25.9023C11.0105 25.9157 11.02 25.9289 11.0297 25.942C11.0393 25.955 11.0492 25.9678 11.0593 25.9805C11.0695 25.9931 11.0798 26.0055 11.0903 26.0178C11.1273 26.0606 11.167 26.101 11.2099 26.1385C11.2283 26.1546 11.2472 26.1702 11.2668 26.1852C11.306 26.2152 11.3476 26.2431 11.392 26.2685C11.4017 26.2741 11.4115 26.2795 11.4213 26.2847L11.4259 26.2872L11.4379 26.2934L11.443 26.296L11.4542 26.3016L11.4603 26.3046L11.4707 26.3095L11.4778 26.3129L11.4891 26.318L11.4951 26.3207L11.5068 26.3259L11.5127 26.3284L11.5232 26.3328L11.5306 26.3359L11.5404 26.3398L11.5484 26.343L11.559 26.347L11.5661 26.3498L11.5776 26.354L11.584 26.3563L11.5951 26.3602L11.6022 26.3627L11.6126 26.3662L11.6205 26.3689L11.6306 26.3722L11.6388 26.3747L11.6484 26.3777L11.6573 26.3805L11.6672 26.3834L11.6752 26.3858L11.6863 26.389L11.6937 26.391L11.7048 26.3941L11.7121 26.396L11.7235 26.399L11.7308 26.4009L11.7412 26.4036L11.7498 26.4057L11.7605 26.4083L11.7679 26.4101L11.7794 26.4128L11.7869 26.4145L11.7983 26.4171L11.8053 26.4186L11.8171 26.4212L11.8246 26.4228L11.8356 26.4251L11.8436 26.4267L11.8541 26.4288L11.863 26.4306L11.8731 26.4326L11.8814 26.4342L11.8937 26.4365L11.8995 26.4376L11.9131 26.4401L11.9183 26.441L11.932 26.4435L11.9374 26.4444L11.9517 26.4469L11.9561 26.4476L11.971 26.4502L11.9751 26.4509L11.989 26.4532L11.9955 26.4542L12.0089 26.4564L12.0138 26.4572L12.0288 26.4596L12.0315 26.4601C12.0991 26.4708 12.167 26.4808 12.2347 26.4918L12.2363 26.492C12.2484 26.494 12.2605 26.496 12.2725 26.498L12.2755 26.4985C12.2881 26.5006 12.3007 26.5028 12.3132 26.505L12.3136 26.5051L12.3299 26.508L12.3336 26.5087L12.3489 26.5116L12.3528 26.5123L12.3678 26.5151L12.3722 26.516C12.41 26.5233 12.4476 26.5314 12.485 26.5404L12.4867 26.5408L12.5041 26.5451L12.5061 26.5456L12.5241 26.5502L12.5257 26.5506L12.5411 26.5548L12.5448 26.5557L12.5594 26.5598L12.5628 26.5608L12.5804 26.5659L12.5824 26.5665L12.599 26.5715L12.5998 26.5718L12.6027 26.5727L12.6042 26.5732L12.6174 26.5774L12.6182 26.5776L12.623 26.5792L12.6239 26.5795L12.6366 26.5837L12.6381 26.5842L12.6418 26.5855L12.6426 26.5857L12.6553 26.5901L12.6574 26.5909L12.6611 26.5922L12.6618 26.5924L12.6799 26.599C12.7848 26.6381 12.8823 26.6882 12.9741 26.747C12.9811 26.7516 12.9882 26.7561 12.9952 26.7608C13.0092 26.77 13.023 26.7795 13.0367 26.7891C13.071 26.8133 13.1045 26.8386 13.1373 26.8651C13.2094 26.9232 13.2781 26.9866 13.3444 27.0539C13.3651 27.0749 13.3855 27.0963 13.4058 27.118C13.4149 27.1278 13.424 27.1377 13.4331 27.1476C13.8464 27.6013 14.1759 28.1887 14.6797 28.539C14.7509 28.5885 14.8249 28.6325 14.901 28.6712L14.9121 28.6767C14.9212 28.6813 14.9304 28.6858 14.9396 28.6902L14.9417 28.6913C14.9516 28.696 14.9615 28.7006 14.9715 28.7052C14.9787 28.7084 14.9858 28.7117 14.993 28.7149C15.0029 28.7192 15.0128 28.7235 15.0227 28.7277C15.0327 28.732 15.0427 28.7361 15.0527 28.7401L15.0665 28.7457L15.0848 28.7528C15.1074 28.7615 15.1301 28.7697 15.153 28.7776C15.1668 28.7823 15.1805 28.7869 15.1944 28.7913C15.2225 28.8003 15.2508 28.8086 15.2792 28.8164C15.2871 28.8185 15.2949 28.8207 15.3028 28.8227L15.3121 28.8251C15.3272 28.829 15.3424 28.8327 15.3576 28.8362L15.366 28.8382C15.3754 28.8403 15.3849 28.8424 15.3943 28.8445L15.4021 28.8461C15.4241 28.8507 15.4461 28.855 15.4683 28.859C15.4826 28.8616 15.497 28.864 15.5114 28.8663C15.5218 28.8679 15.5323 28.8695 15.5428 28.871L15.5481 28.8718C15.5588 28.8733 15.5695 28.8748 15.5802 28.8761L15.5849 28.8767C15.6089 28.8798 15.633 28.8824 15.6572 28.8847L15.6759 28.8864C15.6942 28.888 15.7125 28.8894 15.7309 28.8905L15.7332 28.8907C15.7514 28.8918 15.7695 28.8927 15.7877 28.8935L15.7891 28.8935C15.8236 28.8949 15.858 28.8955 15.8926 28.8955C15.9098 28.8955 15.9271 28.8952 15.9444 28.8948C15.9616 28.8945 15.9789 28.8939 15.9962 28.8932L16.0152 28.8923C16.0467 28.8907 16.0782 28.8886 16.1098 28.8859L16.1287 28.8843C16.147 28.8826 16.1653 28.8807 16.1835 28.8786L16.1874 28.8782C16.1986 28.8769 16.2098 28.8755 16.2211 28.8741L16.2253 28.8736C16.2498 28.8704 16.2742 28.867 16.2986 28.8632C16.3111 28.8612 16.3236 28.8592 16.3362 28.8571C16.3487 28.855 16.3612 28.8528 16.3737 28.8505C16.3844 28.8485 16.3951 28.8465 16.4058 28.8444C16.4272 28.8402 16.4486 28.8358 16.4699 28.8311C16.4805 28.8288 16.4912 28.8264 16.5018 28.8239C16.5337 28.8166 16.5655 28.8086 16.5971 28.8002C16.6076 28.7974 16.6181 28.7945 16.6286 28.7916L16.6378 28.789C16.6529 28.7847 16.668 28.7803 16.6831 28.7758C16.6981 28.7713 16.7131 28.7667 16.7281 28.7619C16.7356 28.7596 16.743 28.7572 16.7505 28.7547C16.7729 28.7474 16.7952 28.7399 16.8173 28.732C16.8321 28.7268 16.8469 28.7215 16.8616 28.716C16.9056 28.6997 16.9492 28.6823 16.9923 28.664C17.0478 28.6403 17.1026 28.6152 17.1566 28.5887C17.2017 28.5667 17.2463 28.5437 17.2904 28.5199C17.3049 28.512 17.3193 28.5041 17.3337 28.4961C17.3456 28.4894 17.3574 28.4828 17.3693 28.476C17.3867 28.466 17.404 28.456 17.4213 28.4458C17.4385 28.4355 17.4557 28.4252 17.4729 28.4147C17.49 28.4042 17.507 28.3936 17.524 28.3829C17.5325 28.3776 17.541 28.3722 17.5494 28.3668C17.5635 28.3578 17.5774 28.3487 17.5913 28.3396C17.6026 28.3321 17.6139 28.3247 17.6251 28.3171C17.6334 28.3115 17.6418 28.3059 17.6501 28.3003C17.7062 28.2621 17.7615 28.2226 17.8161 28.182L17.8284 28.1728C17.8406 28.1637 17.8528 28.1545 17.865 28.1452C17.8749 28.1376 17.8849 28.13 17.8948 28.1223C17.9028 28.1161 17.9108 28.1099 17.9187 28.1037C18.0134 28.0296 18.1059 27.9521 18.1965 27.872L18.2018 27.8674C18.2772 27.8007 18.3512 27.7321 18.4241 27.6622C18.4315 27.6552 18.4388 27.6481 18.4462 27.641C18.4609 27.6268 18.4755 27.6126 18.4901 27.5983C18.512 27.5768 18.5338 27.5553 18.5555 27.5336C18.5647 27.5244 18.5738 27.5153 18.583 27.5061C18.6008 27.4881 18.6186 27.4701 18.6363 27.452L18.6374 27.4509C18.6548 27.4331 18.6722 27.4152 18.6896 27.3973C18.6991 27.3874 18.7087 27.3774 18.7182 27.3675C18.7351 27.3499 18.752 27.3322 18.7688 27.3145L18.7716 27.3116C18.8152 27.2657 18.8584 27.2194 18.9013 27.173C19.0338 27.0297 19.1658 26.8831 19.298 26.7355C19.3377 26.6912 19.3774 26.6468 19.4172 26.6024C19.457 26.558 19.4968 26.5135 19.5367 26.4691L19.5419 26.4633C19.5822 26.4185 19.6225 26.3737 19.663 26.329C19.7439 26.2395 19.8253 26.1505 19.9073 26.0622C19.9483 26.0181 19.9895 25.9742 20.0309 25.9306L20.0336 25.9277C20.1027 25.8548 20.1724 25.7827 20.2427 25.7116C20.4516 25.5004 20.6662 25.2984 20.8897 25.113C20.9068 25.0989 20.9238 25.0849 20.941 25.0709C20.9612 25.0545 20.9816 25.0382 21.002 25.022L21.018 25.0093C21.0503 24.9838 21.0829 24.9587 21.1157 24.934L21.1349 24.9195C21.1667 24.8957 21.1987 24.8723 21.231 24.8492C21.2385 24.8438 21.2461 24.8384 21.2536 24.8331C21.2849 24.8109 21.3163 24.7892 21.348 24.7678C21.3971 24.7346 21.4467 24.7024 21.4968 24.6711C21.5269 24.6524 21.557 24.634 21.5874 24.616C21.6405 24.5845 21.6941 24.5542 21.7484 24.5251C21.777 24.5098 21.8058 24.4948 21.8348 24.4801C22.0687 24.3616 22.3138 24.2658 22.5728 24.1986C22.6613 24.1756 22.7507 24.1563 22.8407 24.1396C22.8578 24.1365 22.8751 24.1334 22.8923 24.1304C22.9202 24.1256 22.9481 24.1209 22.9761 24.1166C22.9911 24.1142 23.0062 24.1119 23.0213 24.1096C23.0516 24.1051 23.0818 24.1009 23.1122 24.0968C23.1425 24.0927 23.1728 24.0888 23.2032 24.0851C23.2336 24.0813 23.264 24.0777 23.2944 24.0743L23.3023 24.0734C23.4557 24.056 23.6095 24.0415 23.7628 24.0253C23.7757 24.0239 23.7886 24.0225 23.8015 24.0212C23.853 24.0156 23.9044 24.0098 23.9557 24.0036C23.9941 23.9989 24.0326 23.994 24.0709 23.9888C24.0805 23.9875 24.09 23.9862 24.0996 23.9849C24.1187 23.9822 24.1379 23.9794 24.1569 23.9766C24.176 23.9737 24.1951 23.9708 24.2141 23.9677C24.2427 23.9632 24.2712 23.9584 24.2996 23.9533C24.3375 23.9466 24.3753 23.9394 24.4129 23.9317C24.4255 23.9291 24.438 23.9265 24.4505 23.9238C24.4881 23.9157 24.5255 23.9071 24.5627 23.8978C24.5751 23.8948 24.5875 23.8916 24.5999 23.8884C24.6741 23.869 24.7477 23.847 24.8204 23.8218C24.8325 23.8176 24.8446 23.8134 24.8567 23.809C24.8808 23.8002 24.9049 23.7911 24.9288 23.7816C24.9528 23.7721 24.9767 23.7622 25.0004 23.7519L25.0158 23.7451L25.0208 23.7428L25.0312 23.738L25.0373 23.7351L25.0464 23.7308L25.0525 23.7279L25.0621 23.7232L25.068 23.7203L25.0776 23.7154L25.083 23.7127L25.0936 23.7072L25.0983 23.7047L25.1099 23.6985L25.1135 23.6966L25.1281 23.6886L25.1349 23.6847L25.1427 23.6803L25.1505 23.6758L25.1575 23.6717L25.1652 23.6672L25.172 23.6631L25.1798 23.6584L25.1867 23.6541L25.1945 23.6493L25.2008 23.6453L25.2091 23.6401L25.2153 23.6361L25.2233 23.6309L25.2268 23.6286C25.2337 23.6241 25.2405 23.6195 25.2474 23.6148L25.2507 23.6126L25.2613 23.6052L25.2642 23.6032L25.2746 23.5958L25.278 23.5934L25.2883 23.586L25.2914 23.5837L25.3026 23.5755L25.3034 23.5749L25.3234 23.5598L25.3257 23.5581L25.3454 23.5427L25.3469 23.5415C25.7827 23.1954 26.0753 22.6208 25.9759 22.1319Z" fill="#58726C"/>
<path d="M24.3809 23.7832C23.63 23.825 22.8789 23.7398 22.1277 23.759C21.4234 23.7771 20.734 23.8986 20.1862 24.372C19.6121 24.8683 19.213 25.5264 18.7991 26.1531C18.3846 26.7808 17.9428 27.4167 17.3143 27.8492C16.8072 28.1982 16.0844 28.4828 15.4833 28.2105C15.0228 28.0019 14.7645 27.5177 14.5277 27.0984C14.3123 26.717 14.0693 26.2364 13.6291 26.104C13.2571 25.9921 12.8822 26.1595 12.5293 26.2673C12.214 26.3636 11.8763 26.4225 11.5625 26.3467C11.8662 26.4624 12.2089 26.4666 12.5273 26.5502L12.5289 26.5506L12.5444 26.5547L12.548 26.5557L12.5626 26.5598L12.566 26.5608L12.5836 26.5659L12.5856 26.5665L12.6022 26.5715L12.603 26.5718L12.606 26.5727L12.6075 26.5732L12.6206 26.5773L12.6215 26.5776L12.6263 26.5792L12.6271 26.5794L12.6399 26.5837L12.6413 26.5842L12.6451 26.5854L12.6459 26.5857L12.6585 26.5901L12.6606 26.5908L12.6644 26.5922L12.665 26.5924L12.6832 26.599C12.7881 26.6381 12.8856 26.6882 12.9773 26.747C12.9844 26.7515 12.9914 26.7561 12.9984 26.7607C13.0124 26.77 13.0262 26.7795 13.04 26.7891C13.0743 26.8133 13.1077 26.8386 13.1405 26.865C13.2127 26.9232 13.2814 26.9866 13.3476 27.0538C13.3683 27.0749 13.3888 27.0962 13.409 27.118C13.4182 27.1278 13.4272 27.1377 13.4363 27.1476C13.8497 27.6013 14.1791 28.1887 14.6829 28.5389C14.7542 28.5885 14.8281 28.6324 14.9043 28.6711L14.9153 28.6767C14.9244 28.6812 14.9336 28.6858 14.9428 28.6902L14.945 28.6912C14.9549 28.696 14.9648 28.7006 14.9747 28.7051C14.9819 28.7084 14.9891 28.7117 14.9963 28.7148C15.0061 28.7192 15.016 28.7235 15.0259 28.7277C15.0359 28.7319 15.0459 28.7361 15.0559 28.7401L15.0698 28.7456L15.088 28.7528C15.1106 28.7614 15.1334 28.7697 15.1563 28.7776C15.17 28.7823 15.1838 28.7868 15.1976 28.7912C15.2257 28.8002 15.254 28.8086 15.2824 28.8164C15.2903 28.8185 15.2981 28.8206 15.306 28.8227L15.3154 28.8251C15.3305 28.8289 15.3456 28.8326 15.3608 28.8362L15.3692 28.8381C15.3787 28.8403 15.3881 28.8424 15.3976 28.8444L15.4053 28.8461C15.4273 28.8507 15.4494 28.855 15.4715 28.859C15.4859 28.8615 15.5002 28.864 15.5146 28.8662C15.5251 28.8679 15.5355 28.8695 15.546 28.871L15.5513 28.8718C15.562 28.8733 15.5727 28.8748 15.5834 28.8761L15.5881 28.8767C15.6122 28.8797 15.6363 28.8824 15.6604 28.8847L15.6791 28.8864C15.6974 28.8879 15.7158 28.8893 15.7342 28.8905L15.7364 28.8906C15.7546 28.8918 15.7727 28.8927 15.791 28.8934L15.7924 28.8935C15.8268 28.8949 15.8613 28.8955 15.8958 28.8954C15.9131 28.8954 15.9303 28.8952 15.9476 28.8948C15.9649 28.8944 15.9822 28.8939 15.9995 28.8931L16.0184 28.8923C16.0499 28.8907 16.0815 28.8886 16.113 28.8859L16.1319 28.8842C16.1502 28.8825 16.1685 28.8806 16.1868 28.8786L16.1906 28.8781C16.2019 28.8769 16.2131 28.8755 16.2243 28.8741L16.2286 28.8735C16.253 28.8704 16.2774 28.8669 16.3018 28.8632C16.3144 28.8612 16.3269 28.8592 16.3394 28.8571C16.3519 28.8549 16.3644 28.8527 16.3769 28.8504C16.3877 28.8485 16.3984 28.8464 16.4091 28.8443C16.4305 28.8401 16.4518 28.8357 16.4731 28.8311C16.4838 28.8287 16.4944 28.8263 16.505 28.8239C16.5369 28.8165 16.5687 28.8086 16.6003 28.8002C16.6108 28.7974 16.6214 28.7945 16.6319 28.7916L16.641 28.789C16.6562 28.7847 16.6712 28.7803 16.6863 28.7758C16.7013 28.7713 16.7164 28.7667 16.7313 28.7619C16.7388 28.7595 16.7463 28.7571 16.7537 28.7547C16.7761 28.7474 16.7984 28.7398 16.8206 28.732C16.8354 28.7268 16.8501 28.7214 16.8648 28.716C16.9089 28.6997 16.9525 28.6823 16.9955 28.6639C17.051 28.6402 17.1058 28.6151 17.1599 28.5887C17.205 28.5666 17.2495 28.5437 17.2936 28.5198C17.3081 28.512 17.3225 28.504 17.3369 28.496C17.3488 28.4894 17.3607 28.4827 17.3725 28.476C17.3899 28.466 17.4072 28.4559 17.4245 28.4457C17.4418 28.4355 17.459 28.4252 17.4761 28.4147C17.4932 28.4042 17.5103 28.3936 17.5273 28.3829C17.5358 28.3775 17.5442 28.3721 17.5527 28.3667C17.5667 28.3577 17.5806 28.3486 17.5945 28.3395C17.6058 28.3321 17.6171 28.3246 17.6283 28.3171C17.6367 28.3115 17.645 28.3059 17.6533 28.3002C17.7094 28.2621 17.7647 28.2226 17.8194 28.182L17.8317 28.1728C17.8439 28.1636 17.8561 28.1544 17.8682 28.1452C17.8782 28.1376 17.8881 28.1299 17.898 28.1223C17.906 28.1161 17.914 28.1099 17.922 28.1036C18.0166 28.0296 18.1092 27.9521 18.1998 27.872L18.2051 27.8674C18.2804 27.8006 18.3545 27.7321 18.4274 27.6622C18.4347 27.6551 18.4421 27.648 18.4494 27.641C18.4641 27.6268 18.4788 27.6125 18.4934 27.5982C18.5153 27.5768 18.5371 27.5552 18.5588 27.5335C18.5679 27.5244 18.5771 27.5152 18.5862 27.506C18.604 27.4881 18.6218 27.4701 18.6395 27.452L18.6406 27.4509C18.6581 27.433 18.6755 27.4152 18.6928 27.3972C18.7024 27.3873 18.7119 27.3774 18.7214 27.3675C18.7384 27.3499 18.7553 27.3322 18.7721 27.3144L18.7748 27.3116C18.8184 27.2656 18.8616 27.2194 18.9045 27.173C19.0371 27.0296 19.169 26.8831 19.3013 26.7354C19.341 26.6912 19.3807 26.6468 19.4204 26.6024C19.4602 26.5579 19.5 26.5135 19.5399 26.4691L19.5451 26.4633C19.5854 26.4184 19.6258 26.3736 19.6662 26.3289C19.7472 26.2395 19.8286 26.1504 19.9106 26.0622C19.9516 26.0181 19.9928 25.9742 20.0341 25.9305L20.0369 25.9277C20.106 25.8548 20.1756 25.7827 20.2459 25.7116C20.4548 25.5003 20.6694 25.2983 20.893 25.1129C20.91 25.0988 20.9271 25.0848 20.9442 25.0709C20.9645 25.0544 20.9848 25.0381 21.0052 25.0219L21.0212 25.0093C21.0536 24.9838 21.0861 24.9587 21.1189 24.934L21.1381 24.9195C21.17 24.8957 21.202 24.8722 21.2342 24.8492C21.2417 24.8438 21.2493 24.8384 21.2569 24.8331C21.2881 24.8109 21.3196 24.7891 21.3512 24.7678C21.4004 24.7346 21.45 24.7023 21.5001 24.671C21.5301 24.6523 21.5603 24.6339 21.5907 24.6159C21.6437 24.5845 21.6974 24.5542 21.7516 24.5251C21.7802 24.5097 21.809 24.4947 21.838 24.4801C22.0719 24.3616 22.3171 24.2658 22.576 24.1985C22.6646 24.1756 22.7539 24.1562 22.8439 24.1396C22.8611 24.1364 22.8783 24.1334 22.8955 24.1304C22.9234 24.1255 22.9513 24.1209 22.9793 24.1165C22.9944 24.1142 23.0095 24.1119 23.0246 24.1096C23.0548 24.1051 23.0851 24.1008 23.1154 24.0968C23.1457 24.0927 23.1761 24.0888 23.2064 24.085C23.2368 24.0813 23.2672 24.0777 23.2977 24.0742L23.3056 24.0733C23.4589 24.056 23.6128 24.0415 23.7661 24.0252C23.779 24.0239 23.7918 24.0225 23.8047 24.0211C23.8562 24.0156 23.9076 24.0098 23.9589 24.0035C23.9974 23.9989 24.0358 23.994 24.0741 23.9888C24.0837 23.9875 24.0933 23.9862 24.1028 23.9848C24.122 23.9821 24.1411 23.9794 24.1602 23.9765C24.1793 23.9737 24.1983 23.9707 24.2174 23.9677C24.2459 23.9631 24.2744 23.9583 24.3029 23.9533C24.3407 23.9465 24.3785 23.9394 24.4162 23.9317C24.4287 23.9291 24.4413 23.9265 24.4538 23.9238C24.4913 23.9157 24.5287 23.9071 24.5659 23.8978C24.5783 23.8947 24.5907 23.8916 24.6031 23.8883C24.6773 23.869 24.7509 23.847 24.8236 23.8218C24.8358 23.8176 24.8479 23.8133 24.8599 23.8089C24.8841 23.8002 24.9081 23.7911 24.9321 23.7816C24.956 23.772 24.9799 23.7621 25.0036 23.7518C25.0542 23.7298 25.1036 23.7038 25.1522 23.6757C24.9005 23.7368 24.6395 23.7688 24.3809 23.7832Z" fill="#58726C"/>
<path d="M25.3976 21.7853C25.3867 21.7827 25.3757 21.7801 25.3649 21.7775C25.3533 21.7747 25.3418 21.7718 25.3304 21.769C25.3193 21.7663 25.3083 21.7635 25.2973 21.7608C25.2807 21.7567 25.2642 21.7525 25.2479 21.7483C25.2401 21.7463 25.2325 21.7444 25.2248 21.7424L25.2091 21.7383C25.2004 21.736 25.1918 21.7337 25.1832 21.7315C25.1743 21.7291 25.1655 21.7268 25.1566 21.7244C25.149 21.7223 25.1414 21.7203 25.1338 21.7182L25.1331 21.718L25.1199 21.7145L25.1067 21.7108L25.1058 21.7106C25.0981 21.7085 25.0904 21.7063 25.0827 21.7042C25.0744 21.7019 25.0661 21.6996 25.0579 21.6972L25.0447 21.6935C25.033 21.6902 25.0214 21.6869 25.0099 21.6835C25.0015 21.6811 24.9931 21.6787 24.9848 21.6762C24.9743 21.6732 24.9638 21.6701 24.9534 21.667C24.9223 21.6577 24.8916 21.6483 24.8614 21.6389C24.8544 21.6367 24.8473 21.6345 24.8403 21.6322C24.8282 21.6284 24.8161 21.6245 24.8041 21.6207C24.7914 21.6166 24.7788 21.6125 24.7663 21.6083C24.7478 21.6022 24.7296 21.5961 24.7115 21.59C24.7031 21.5871 24.6949 21.5843 24.6866 21.5814C24.6762 21.5778 24.6658 21.5742 24.6555 21.5706C24.6474 21.5677 24.6393 21.5649 24.6313 21.562C24.6225 21.5589 24.6138 21.5557 24.6051 21.5526C24.5703 21.54 24.5363 21.5272 24.5028 21.5144L24.4958 21.5116L24.483 21.5066C24.4647 21.4995 24.4466 21.4924 24.4287 21.4851L24.4194 21.4814L24.4185 21.481C24.4057 21.4758 24.393 21.4706 24.3805 21.4654C24.3725 21.4621 24.3646 21.4588 24.3567 21.4554L24.3506 21.4528C24.3427 21.4495 24.3349 21.4461 24.3271 21.4428L24.3233 21.4412L24.3031 21.4324L24.2866 21.4252L24.282 21.4232C24.2725 21.4189 24.2629 21.4147 24.2535 21.4104L24.241 21.4048L24.2281 21.3988C24.2174 21.3939 24.2067 21.389 24.1961 21.3841L24.1893 21.3809L24.1751 21.3741L24.1569 21.3655L24.1483 21.3614L24.1334 21.3541L24.1303 21.3527L24.1225 21.3488L24.1033 21.3394L24.1015 21.3385L24.0944 21.3349L24.087 21.3312L24.0718 21.3236L24.0662 21.3207L24.0575 21.3162C24.0491 21.3119 24.0408 21.3077 24.0325 21.3034L24.0278 21.3009C24.0047 21.2889 23.9819 21.2767 23.9593 21.2644L23.959 21.2643L23.9547 21.2619L23.9529 21.2609C23.9444 21.2563 23.936 21.2516 23.9276 21.247L23.9223 21.244C23.9129 21.2388 23.9036 21.2335 23.8943 21.2283L23.8913 21.2265L23.887 21.2241C23.88 21.2201 23.8729 21.2161 23.866 21.212L23.8548 21.2056L23.8458 21.2003L23.8396 21.1967C23.8288 21.1903 23.8181 21.1839 23.8074 21.1775L23.8034 21.1751C23.7921 21.1683 23.7808 21.1615 23.7696 21.1546L23.7565 21.1465L23.7504 21.1428L23.7432 21.1383L23.7287 21.1292L23.7199 21.1236L23.7005 21.1113L23.6914 21.1054L23.6813 21.0989C23.6723 21.0931 23.6634 21.0873 23.6545 21.0814L23.6362 21.0693L23.6264 21.0628L23.6097 21.0516L23.5989 21.0443L23.5796 21.0311L23.5686 21.0236L23.5495 21.0103L23.5391 21.0031C23.5295 20.9964 23.5198 20.9896 23.5102 20.9827C23.4997 20.9752 23.4891 20.9676 23.4786 20.96L23.4691 20.9531L23.4573 20.9446L23.4397 20.9317C23.4292 20.924 23.4188 20.9162 23.4083 20.9084L23.4008 20.9028L23.3874 20.8927L23.3672 20.8774L23.3529 20.8665C23.3236 20.8442 23.2944 20.8215 23.2654 20.7985L23.2523 20.7882C23.2455 20.7828 23.2386 20.7774 23.2317 20.7719L23.2145 20.7581L23.1973 20.7442C23.1801 20.7303 23.1628 20.7163 23.1455 20.7021L23.1282 20.688C23.0994 20.6643 23.0705 20.6403 23.0414 20.616C23.0298 20.6062 23.0182 20.5965 23.0065 20.5866C22.989 20.5719 22.9713 20.557 22.9537 20.542C22.936 20.527 22.9182 20.5119 22.9003 20.4967L22.8824 20.4814C22.8513 20.4549 22.8201 20.4269 22.789 20.3997L22.7888 20.4005C22.7695 20.3836 22.7501 20.3666 22.7308 20.3495L22.7303 20.3491C22.6969 20.3194 22.6634 20.2894 22.6299 20.2591L22.6287 20.2581C22.6122 20.2431 22.5957 20.2281 22.5792 20.2131L22.5785 20.2124C22.5621 20.1974 22.5456 20.1823 22.5291 20.1672L22.527 20.1652C22.5107 20.1502 22.4944 20.1352 22.4781 20.1201L22.477 20.1192C22.4614 20.1047 22.4458 20.0902 22.4301 20.0757L22.4234 20.0694C22.4086 20.0556 22.3938 20.0418 22.379 20.028L22.3716 20.0211C22.3586 20.009 22.3456 19.9968 22.3325 19.9846C22.3249 19.9774 22.3173 19.9703 22.3096 19.9631L22.2913 19.946C21.9457 19.6217 21.5941 19.285 21.2227 18.9884C20.85 18.8827 20.4579 18.8678 20.0586 18.97C19.3287 19.1568 18.7631 19.6503 18.1401 20.0446C17.5167 20.4391 16.8078 20.7086 16.0699 20.7718C15.3267 20.8355 14.5377 20.7283 13.8289 20.5014C13.0942 20.2662 12.4619 19.8032 11.7271 19.5714C11.0379 19.354 10.3314 19.4015 9.67387 19.701C9.06443 19.9785 8.52686 20.4343 8.22859 21.0406C8.09857 21.305 8.00552 21.5965 7.97656 21.8918H8.6635H25.0584H25.8911H25.8949C25.7172 21.8576 25.552 21.8222 25.3976 21.7853Z" fill="#58726C"/>
<path d="M21.8283 21.2651C21.1067 21.5192 20.3553 21.5102 19.6083 21.3927C19.2245 21.3324 18.8453 21.2462 18.4617 21.1854C18.085 21.1256 17.7028 21.1078 17.3217 21.1164C15.7699 21.1517 14.2692 21.623 12.7225 21.7037C11.8063 21.7516 10.8916 21.8252 9.97656 21.8919H25.0496H25.8823H25.8861C25.7084 21.8577 25.5432 21.8222 25.3889 21.7853C25.3779 21.7827 25.367 21.7801 25.3561 21.7775C25.3446 21.7747 25.3331 21.7718 25.3217 21.769C25.3106 21.7663 25.2995 21.7635 25.2886 21.7608C25.272 21.7567 25.2555 21.7525 25.2391 21.7483C25.2314 21.7463 25.2237 21.7444 25.2161 21.7424L25.2003 21.7383C25.1917 21.736 25.183 21.7337 25.1745 21.7315C25.1656 21.7291 25.1567 21.7268 25.1479 21.7244C25.1403 21.7223 25.1326 21.7203 25.1251 21.7182L25.1244 21.718L25.1111 21.7145L25.098 21.7108L25.0971 21.7106C25.0894 21.7085 25.0816 21.7063 25.0739 21.7042C25.0656 21.7019 25.0573 21.6996 25.0491 21.6972L25.036 21.6935C25.0243 21.6902 25.0127 21.6869 25.0012 21.6836C24.9927 21.6811 24.9844 21.6787 24.976 21.6762C24.9655 21.6732 24.9551 21.6701 24.9447 21.667C24.9135 21.6577 24.8829 21.6483 24.8527 21.6389C24.8456 21.6367 24.8386 21.6345 24.8315 21.6322C24.8194 21.6284 24.8074 21.6245 24.7954 21.6207C24.7827 21.6166 24.7701 21.6125 24.7576 21.6083C24.7391 21.6022 24.7208 21.5961 24.7027 21.59C24.6944 21.5871 24.6861 21.5843 24.6779 21.5814C24.6674 21.5778 24.6571 21.5742 24.6468 21.5706C24.6387 21.5677 24.6306 21.5649 24.6226 21.562C24.6138 21.5589 24.605 21.5557 24.5964 21.5526C24.5616 21.54 24.5275 21.5272 24.4941 21.5144L24.487 21.5116L24.4742 21.5066C24.456 21.4995 24.4378 21.4924 24.42 21.4851L24.4106 21.4814L24.4097 21.481C24.397 21.4758 24.3843 21.4706 24.3717 21.4654C24.3637 21.4621 24.3558 21.4588 24.3479 21.4554L24.3418 21.4528C24.334 21.4495 24.3261 21.4461 24.3183 21.4428L24.3146 21.4412L24.2943 21.4324L24.2779 21.4252L24.2733 21.4232C24.2637 21.4189 24.2542 21.4147 24.2447 21.4104L24.2322 21.4048L24.2193 21.3988C24.2086 21.3939 24.198 21.389 24.1874 21.3841L24.1806 21.3809L24.1663 21.3741L24.1482 21.3655L24.1396 21.3614L24.1246 21.3541L24.1216 21.3527L24.1137 21.3488L24.0946 21.3394L24.0928 21.3385L24.0857 21.3349L24.0782 21.3312L24.0631 21.3236L24.0574 21.3207L24.0487 21.3162C24.0404 21.3119 24.032 21.3077 24.0237 21.3034L24.0191 21.3009C23.9959 21.2889 23.9731 21.2767 23.9506 21.2644L23.9503 21.2643L23.9459 21.2619L23.9442 21.2609C23.9357 21.2563 23.9273 21.2516 23.9189 21.247L23.9135 21.244C23.9042 21.2388 23.8949 21.2335 23.8856 21.2283L23.8826 21.2265L23.8782 21.2241C23.8712 21.2201 23.8642 21.2161 23.8572 21.212L23.8461 21.2056L23.837 21.2003L23.8309 21.1967C23.8201 21.1903 23.8093 21.1839 23.7986 21.1775L23.7947 21.1751C23.7833 21.1683 23.7721 21.1615 23.7609 21.1546L23.7478 21.1465L23.7417 21.1428L23.7345 21.1383L23.72 21.1292L23.7112 21.1236L23.6918 21.1113L23.6826 21.1054L23.6725 21.0989C23.6636 21.0931 23.6546 21.0873 23.6457 21.0814L23.6274 21.0693L23.6177 21.0628L23.601 21.0516L23.5901 21.0443L23.5709 21.0311L23.5599 21.0236L23.5407 21.0103L23.5304 21.0031C23.5207 20.9964 23.5111 20.9896 23.5015 20.9827C23.4909 20.9752 23.4804 20.9676 23.4699 20.96L23.4603 20.9531L23.4486 20.9446L23.431 20.9317C23.4205 20.924 23.41 20.9162 23.3996 20.9084L23.3921 20.9028L23.3786 20.8927L23.3585 20.8774L23.3441 20.8665C23.3149 20.8442 23.2857 20.8215 23.2566 20.7985L23.2436 20.7882C23.2367 20.7828 23.2299 20.7774 23.223 20.7719L23.2058 20.7581L23.1886 20.7442C23.1713 20.7303 23.1541 20.7163 23.1368 20.7021L23.1195 20.688C23.0907 20.6643 23.0618 20.6403 23.0327 20.616C23.0211 20.6062 23.0094 20.5965 22.9977 20.5866C22.9802 20.5719 22.9626 20.557 22.9449 20.542C22.9272 20.527 22.9095 20.5119 22.8916 20.4967L22.8737 20.4814C22.8425 20.4549 22.8114 20.4269 22.7803 20.3997L22.78 20.4005C22.6642 20.8462 22.2634 21.112 21.8283 21.2651Z" fill="#58726C"/>
<path d="M13.5 14.2013C13.4817 14.1831 13.4635 14.1651 13.4453 14.1473C13.4555 14.1712 13.4653 14.1952 13.4747 14.2194C13.483 14.2132 13.4916 14.2074 13.5 14.2013Z" fill="#58726C"/>
<path d="M11.3075 10.4124C12.0608 10.8981 12.6578 11.6135 12.9886 12.4266C12.9976 12.4488 13.019 12.4622 13.0416 12.4622C13.0487 12.4622 13.056 12.4609 13.0631 12.458C13.0923 12.4461 13.1063 12.4128 13.0945 12.3835C12.7549 11.5488 12.1423 10.8147 11.3694 10.3164C11.343 10.2993 11.3075 10.3069 11.2904 10.3335C11.2733 10.36 11.2809 10.3953 11.3075 10.4124Z" fill="#58726C"/>
<path d="M7.41824 11.0312C7.41314 11.0001 7.38358 10.9789 7.35265 10.984C7.32151 10.9891 7.30035 11.0185 7.30545 11.0496C7.41155 11.7002 7.68453 12.4451 8.03568 13.0424C8.04633 13.0604 8.06542 13.0705 8.08498 13.0705C8.09485 13.0705 8.10482 13.068 8.11392 13.0626C8.14112 13.0466 8.15019 13.0116 8.1342 12.9844C7.795 12.4075 7.52064 11.6591 7.41824 11.0312Z" fill="#58726C"/>
<path d="M23.2344 13.4765C23.4515 13.4403 23.6652 13.3858 23.8734 13.3148C23.6726 13.378 23.4594 13.4331 23.2344 13.4765Z" fill="#58726C"/>
<path d="M17.7547 13.4963C17.7427 13.4998 17.7308 13.5032 17.7188 13.5067L17.7256 13.5208C17.7352 13.5125 17.7449 13.5044 17.7547 13.4963Z" fill="#58726C"/>
<path d="M18.9244 12.2053C18.9372 12.2053 18.9501 12.201 18.9607 12.1922C19.6372 11.6326 20.5017 11.2853 21.3953 11.2142C21.4267 11.2117 21.4502 11.1841 21.4477 11.1527C21.4451 11.1212 21.4177 11.098 21.3862 11.1003C20.4695 11.1732 19.5822 11.5297 18.8879 12.1041C18.8636 12.1242 18.8602 12.1602 18.8803 12.1846C18.8916 12.1982 18.9079 12.2053 18.9244 12.2053Z" fill="#58726C"/>
<path d="M24.7245 13.4983C24.6996 13.4789 24.6636 13.4834 24.6443 13.5083C24.0259 14.3033 22.8297 15.1953 21.9754 15.2501C21.9439 15.2521 21.92 15.2793 21.922 15.3107C21.9239 15.341 21.9491 15.3642 21.979 15.3642L21.9827 15.3641C22.8806 15.3066 24.0869 14.411 24.7345 13.5784C24.7539 13.5535 24.7494 13.5176 24.7245 13.4983Z" fill="#58726C"/>
<path d="M15.4454 6.58614C15.4166 6.57285 15.3827 6.58528 15.3694 6.61385C15.0082 7.39087 14.8909 8.27561 15.0391 9.10514C15.0441 9.13283 15.0681 9.15224 15.0953 9.15224L15.1054 9.15134C15.1365 9.14579 15.1571 9.11611 15.1516 9.08504C15.0075 8.27843 15.1216 7.4179 15.4731 6.66207C15.4863 6.63342 15.474 6.59945 15.4454 6.58614Z" fill="#58726C"/>
<path d="M19.4853 8.06622C19.4722 8.09493 19.485 8.1288 19.5138 8.14181C19.5214 8.14528 19.5294 8.14691 19.5373 8.14691C19.559 8.14691 19.5798 8.13445 19.5894 8.11331C19.9577 7.29977 19.718 5.76668 19.2735 4.75448C19.2609 4.72565 19.2272 4.71249 19.1982 4.72516C19.1693 4.73785 19.1562 4.77156 19.1689 4.80047C19.5939 5.76831 19.8357 7.29207 19.4853 8.06622Z" fill="#58726C"/>
<path d="M12.213 13.9302C11.5276 13.8187 10.8692 13.5481 10.3014 13.1487C9.7703 12.775 9.23699 12.104 8.53555 12.085C8.3068 12.0788 8.08316 12.1777 8.11187 12.4403C8.12334 12.5452 8.17169 12.6422 8.22467 12.7334C8.8512 13.8119 10.0272 14.4368 11.244 14.6222C11.7021 14.6919 12.1865 14.6888 12.6096 14.4998C12.6981 14.4603 12.7918 14.388 12.8177 14.302C12.9026 14.0196 12.382 13.9577 12.213 13.9302Z" fill="#58726C"/>
<path d="M18.0809 8.25268C17.8506 8.81552 17.4926 9.32613 17.0395 9.73201C16.9278 9.83212 16.5729 10.1237 16.7689 10.2919C16.8286 10.3432 16.9319 10.3523 17.0158 10.3397C17.4173 10.2793 17.7761 10.0528 18.0812 9.78502C18.8916 9.07364 19.4641 8.05714 19.4171 6.9655C19.4131 6.8732 19.403 6.77876 19.3619 6.69599C19.2591 6.4886 19.0474 6.52127 18.8815 6.63387C18.373 6.97917 18.2964 7.72614 18.0809 8.25268Z" fill="#58726C"/>
<path d="M23.0059 14.5728C23.153 14.394 23.0364 14.2142 22.8658 14.1091C22.3424 13.7866 21.6296 14.0227 21.061 14.0418C20.4533 14.0623 19.8408 13.9449 19.2849 13.6979C19.1478 13.6369 18.7365 13.4327 18.6633 13.6804C18.641 13.7558 18.675 13.8538 18.7209 13.9252C18.9404 14.2667 19.294 14.5013 19.6633 14.6699C20.6442 15.1177 21.8061 15.2236 22.7827 14.7335C22.8652 14.6921 22.9472 14.6441 23.0059 14.5728Z" fill="#58726C"/>
</svg>
