<svg width="20" height="20" viewBox="0 0 20 20" fill="none" xmlns="http://www.w3.org/2000/svg">
<path d="M15.1291 14.0683L14.14 15.0466C13.4109 15.7621 12.465 16.6821 11.3017 17.8067C10.5749 18.5095 9.4217 18.5094 8.69495 17.8065L5.78567 14.9766C5.42004 14.6176 5.11398 14.3148 4.86744 14.0683C2.03377 11.2347 2.03377 6.64033 4.86744 3.80665C7.70112 0.972978 12.2955 0.972978 15.1291 3.80665C17.9628 6.64033 17.9628 11.2347 15.1291 14.0683ZM12.0818 9.16641C12.0818 8.0157 11.149 7.08289 9.99829 7.08289C8.84762 7.08289 7.91477 8.0157 7.91477 9.16641C7.91477 10.3171 8.84762 11.2499 9.99829 11.2499C11.149 11.2499 12.0818 10.3171 12.0818 9.16641Z" fill="#58726C"/>
</svg>
