<svg  viewBox="0 0 17 18" fill="none" xmlns="http://www.w3.org/2000/svg">
<path fill-rule="evenodd" clip-rule="evenodd" d="M9.03913 1.63636C7.07768 1.63636 5.19657 2.41217 3.80961 3.79312C2.42266 5.17407 1.64348 7.04704 1.64348 9C1.64348 10.953 2.42266 12.8259 3.80961 14.2069C5.19657 15.5878 7.07768 16.3636 9.03913 16.3636C9.49296 16.3636 9.86087 16.7299 9.86087 17.1818C9.86087 17.6337 9.49296 18 9.03913 18C6.6418 18 4.34267 17.0518 2.6475 15.364C0.952334 13.6761 0 11.3869 0 9C0 6.61305 0.952334 4.32387 2.6475 2.63604C4.34267 0.948212 6.6418 0 9.03913 0C9.49296 0 9.86087 0.366312 9.86087 0.818182C9.86087 1.27005 9.49296 1.63636 9.03913 1.63636ZM10.9233 4.33055C11.2442 4.01103 11.7645 4.01103 12.0854 4.33055L16.1941 8.42146C16.515 8.74098 16.515 9.25902 16.1941 9.57854L12.0854 13.6695C11.7645 13.989 11.2442 13.989 10.9233 13.6695C10.6024 13.3499 10.6024 12.8319 10.9233 12.5124L13.6292 9.81818H5.75217C5.29834 9.81818 4.93043 9.45187 4.93043 9C4.93043 8.54813 5.29834 8.18182 5.75217 8.18182H13.6292L10.9233 5.48763C10.6024 5.16811 10.6024 4.65007 10.9233 4.33055Z" fill="#5BAD6B"/>
</svg>
