<svg  viewBox="0 0 69 43" fill="none" xmlns="http://www.w3.org/2000/svg">
<path d="M3.98882 30.4506H11.3732V32.2097H3.98882V30.4506ZM4.19337 37.9986H2.14782V23.6798H12.2528V25.4594H4.19337V37.9986ZM15.1322 37.9986V23.6798H17.1778V37.9986H15.1322ZM21.4647 37.9986V23.6798H27.049C28.3036 23.6798 29.3741 23.8775 30.2605 24.273C31.1469 24.6685 31.8288 25.2412 32.306 25.9913C32.7833 26.7413 33.022 27.6345 33.022 28.6709C33.022 29.7073 32.7833 30.6006 32.306 31.3506C31.8288 32.087 31.1469 32.6529 30.2605 33.0484C29.3741 33.4439 28.3036 33.6416 27.049 33.6416H22.5897L23.5102 32.7007V37.9986H21.4647ZM31.0378 37.9986L27.3967 32.8029H29.5855L33.2675 37.9986H31.0378ZM23.5102 32.9052L22.5897 31.9029H26.9876C28.2968 31.9029 29.2855 31.6233 29.9537 31.0642C30.6355 30.4915 30.9764 29.6937 30.9764 28.6709C30.9764 27.6482 30.6355 26.8572 29.9537 26.2981C29.2855 25.739 28.2968 25.4594 26.9876 25.4594H22.5897L23.5102 24.4367V32.9052Z" fill="#43B14C"/>
<path d="M36.3268 37.9986V23.6798H38.0042L44.4272 34.5007H43.5271L49.8683 23.6798H51.5457L51.5661 37.9986H49.6024L49.582 26.7686H50.0524L44.4067 36.2599H43.4658L37.7792 26.7686H38.2905V37.9986H36.3268ZM53.6951 37.9986L60.1795 23.6798H62.2046L68.7094 37.9986H66.5616L60.7727 24.8253H61.5909L55.802 37.9986H53.6951ZM56.4566 34.4189L57.0089 32.7825H65.0684L65.6616 34.4189H56.4566Z" fill="url(#paint0_linear_139_620)"/>
<path d="M27.3758 9.69746C26.9233 9.68171 26.7813 9.66001 26.3005 9.52514C25.5219 9.30675 25.1198 9.26543 24.8165 9.38423C24.414 9.53706 24.3463 9.75092 24.4595 10.5122C24.5405 11.0548 24.5468 11.1762 24.5424 11.7929C24.5353 12.5345 24.5419 12.5567 25.0935 13.203C25.8382 14.0742 25.8936 14.2778 25.755 15.5942C25.6699 16.3761 25.6707 16.4625 25.734 16.628C25.8009 16.8024 25.8414 16.8364 26.166 17.0086C26.3659 17.1133 26.4516 17.3197 26.4968 17.8245C26.54 18.2557 26.5975 18.4379 26.7068 18.4825C26.7489 18.4993 26.9236 18.5456 27.0982 18.5919C27.9307 18.7937 28.1389 19.0459 28.1797 19.8825C28.1911 20.1382 28.2312 20.4137 28.2768 20.5344C28.4177 20.9013 28.8091 21.1531 29.5468 21.3418C30.297 21.536 30.7345 21.477 31.2173 21.1158C31.3905 20.9893 31.612 20.8587 31.7198 20.8254C32.1199 20.6983 32.797 20.6915 33.4891 20.807C33.7381 20.8515 33.9447 20.8835 33.949 20.8839C33.9537 20.88 33.7857 20.5711 33.5761 20.1936C33.3664 19.8161 33.1288 19.3627 33.049 19.1871C32.9475 18.962 32.8704 18.8513 32.7992 18.8189C32.7402 18.7962 32.4124 18.753 32.0658 18.7255C31.3081 18.66 30.9945 18.7002 30.1875 18.9798L29.6461 19.1716L29.859 18.9927C30.4362 18.5064 31.4143 18.2642 32.3283 18.3871C32.5356 18.4105 32.7048 18.4218 32.7064 18.4047C32.7075 18.3918 32.5691 18.2367 32.3968 18.0698C32.2292 17.899 31.9754 17.621 31.8338 17.4526C31.6572 17.2379 31.5281 17.1224 31.414 17.0817C30.8188 16.8629 29.8498 16.6745 29.3175 16.673C29.1345 16.6691 28.983 16.6551 28.9846 16.638C28.9893 16.5867 29.4753 16.476 29.7998 16.4584C29.9844 16.4452 30.3227 16.4677 30.6245 16.5085L31.1328 16.5811L31.0246 16.4288C30.9994 16.3926 30.9413 16.31 30.8654 16.2024C30.7672 16.0629 30.6393 15.8814 30.5152 15.7044C30.2996 15.3911 30.0978 15.1179 30.0687 15.1023C30.003 15.0574 28.8967 14.7484 28.4989 14.66C28.1051 14.5763 27.9021 14.5058 27.6361 14.3605C27.4154 14.2453 26.8045 13.7704 26.8088 13.7234C26.8108 13.702 26.9198 13.7508 27.0484 13.8231C27.6342 14.1446 28.0194 14.2749 28.6693 14.3736C29.0136 14.4269 29.3873 14.4915 29.5069 14.5198L29.7206 14.5696L29.5451 14.342C29.2878 14.0076 29.0652 13.7714 28.4865 13.2305C28.1608 12.9292 28.012 12.7912 27.8449 12.6804C27.6984 12.5832 27.5377 12.5069 27.2311 12.3597C26.6878 12.0983 26.104 11.8978 25.823 11.8676C25.6932 11.8557 25.6684 11.8404 25.7109 11.8055C25.777 11.7512 26.4317 11.7985 26.8424 11.8881L27.1119 11.9474L26.3952 11.1047C25.9975 10.6365 25.6843 10.2452 25.6985 10.2336C25.7406 10.2029 26.1277 10.4543 26.4523 10.7215C26.6065 10.8479 26.9523 11.1689 27.2159 11.4348L27.6954 11.9148L27.7659 11.4811C27.8052 11.2431 27.8599 11.028 27.8836 11.0086C27.9213 10.9776 27.9308 11.0173 27.9201 11.1328C27.9024 11.3729 27.9433 11.6399 28.0617 12.0132C28.1596 12.3243 28.1793 12.3477 28.5542 12.6843C28.7678 12.8766 29.0334 13.1211 29.1455 13.2307C29.4216 13.5021 29.463 13.5275 29.4382 13.4173C29.4004 13.2585 29.4804 12.5797 29.5571 12.3623L29.6331 12.1536L29.6452 12.5905C29.6601 13.045 29.7659 13.5554 29.9283 13.9716C30.0066 14.1644 30.7536 15.3422 30.9692 15.6081C31.0046 15.6501 31.033 15.4845 31.0905 14.9072C31.1389 14.3808 31.1901 14.0619 31.257 13.8566C31.3711 13.5175 31.5722 13.0872 31.6198 13.0916C31.6371 13.0932 31.6269 13.2045 31.5974 13.3355C31.434 14.0671 31.3977 15.2203 31.5035 16.1103L31.5467 16.4466L32.0019 17.002C32.3783 17.4639 32.9578 18.0912 33.0097 18.096C33.0184 18.0968 33.0208 17.9762 33.0129 17.8244C32.9886 17.4251 33.1102 16.625 33.2456 16.2923C33.3538 16.0174 33.6041 15.6218 33.6395 15.6639C33.6473 15.6733 33.6092 15.8036 33.5564 15.9498C33.3951 16.3751 33.3131 17.4075 33.3926 18.0147C33.4519 18.4603 33.4661 18.4962 33.5994 18.612C34.0318 18.9884 34.4299 19.3573 34.7612 19.6942L35.1321 20.0736L35.1215 19.9043C35.1192 19.8805 35.1154 19.84 35.1104 19.7878C35.0965 19.6398 35.0737 19.3971 35.0496 19.1684C34.9781 18.4757 35.0056 18.3185 35.2952 17.7324C35.623 17.0635 35.7187 16.6882 35.7597 15.9109C35.7963 15.1806 35.7452 14.7401 35.5836 14.3627C35.4148 13.9674 35.1741 13.833 34.7369 13.8877C34.4009 13.9345 34.2074 13.7613 33.9372 13.1884C33.7908 12.8815 33.5438 12.5782 33.4356 12.5683C33.4053 12.5655 33.2574 12.513 33.1063 12.4474C32.862 12.3515 32.7809 12.2836 32.476 11.9449C32.2589 11.6962 32.0815 11.5374 31.9965 11.5123C31.9245 11.4884 31.7207 11.474 31.5409 11.4833C31.1463 11.5031 30.7702 11.4167 30.468 11.2379C30.3524 11.1668 30.0766 10.9386 29.8559 10.7284C29.3952 10.2804 29.0431 10.0279 28.6816 9.87807C28.3869 9.76032 28.1111 9.72199 27.3758 9.69746Z" fill="#43B14C"/>
<path d="M35.9381 21.7729C35.0018 20.5172 34.4558 19.906 33.6198 19.1731C33.3901 18.9664 33.1914 18.8014 33.1827 18.8006C33.1005 18.793 34.8441 20.6744 35.6234 21.8811C36.3589 23.0207 36.4288 23.7154 36.3895 24.9555C36.3859 24.994 36.4528 24.8583 36.7455 24.6177C37.0379 24.3814 37.4081 24.1047 37.5698 24.0074C37.8197 23.8535 37.8488 23.8216 37.7918 23.7776C37.3165 23.4404 36.6104 22.672 35.9381 21.7729Z" fill="#43B14C"/>
<path d="M41.9187 1.90707C42.0318 1.69739 42.0566 1.62402 42.2707 0.871682C42.3959 0.428454 42.5026 0.0663661 42.5047 0.0702924C42.5089 0.0741345 42.4186 0.445575 42.3078 0.896234C42.07 1.84639 42.0703 1.85245 42.1048 2.7167C42.1281 3.26816 42.1146 3.42154 42.0235 3.6303C41.9654 3.76936 41.9428 3.80245 41.873 3.85362C41.7606 3.93872 41.6101 3.87677 41.5374 3.71712C41.3652 3.33266 41.5017 2.68405 41.9187 1.90707Z" fill="#43B14C"/>
<path d="M43.1785 1.82372C43.2218 1.76163 43.3896 1.42709 43.5528 1.07868C43.7181 0.732198 43.854 0.449227 43.858 0.449058C43.866 0.448721 43.5512 1.18321 43.394 1.53137C43.3283 1.67878 43.2842 1.81926 43.253 1.97928C43.1357 2.56279 42.9614 2.97797 42.739 3.20231C42.4629 3.48116 42.185 3.43263 42.2416 3.11685C42.2611 3.00956 42.3398 2.83949 42.4303 2.70911C42.4624 2.66356 42.6282 2.47174 42.796 2.28184C42.9639 2.09193 43.1371 1.88574 43.1785 1.82372Z" fill="#43B14C"/>
<path d="M41.4688 2.09081L41.2676 2.95912L41.1084 3.30735C40.7846 4.01812 40.682 4.42825 40.7206 4.86858C40.7364 5.05473 40.746 5.0925 40.8088 5.20636C40.8847 5.3478 40.9486 5.39331 41.0664 5.38834C41.212 5.38218 41.3352 5.17609 41.3875 4.85246C41.4111 4.70079 41.4097 4.6205 41.3743 4.15995C41.3522 3.87361 41.3308 3.50889 41.326 3.34838L41.3157 3.05753L41.5016 2.15773C41.6026 1.66329 41.6811 1.25016 41.6788 1.24222C41.6744 1.23236 41.5806 1.614 41.4688 2.09081Z" fill="#43B14C"/>
<path d="M42.6145 3.42453C43.0377 3.12541 43.0894 3.073 43.6738 2.33114C44.1937 1.67437 44.3745 1.45781 44.1286 1.78761L44.093 1.83566C43.3488 2.84196 43.2274 3.006 43.1387 3.18621C43.1215 3.2213 43.1055 3.257 43.0863 3.29966L43.0796 3.31448C42.8586 3.80796 42.6657 4.11544 42.4053 4.38559C42.0892 4.71232 41.7225 4.83228 41.5929 4.65093C41.4569 4.4598 41.6932 4.09023 42.1683 3.74471C42.2114 3.71381 42.2613 3.67804 42.3129 3.64103C42.4217 3.56302 42.5382 3.47953 42.6145 3.42453Z" fill="#43B14C"/>
<path d="M40.6994 2.52308C40.7003 2.54514 40.7065 2.5509 40.7118 2.5346C40.7172 2.52031 40.7145 2.50235 40.7082 2.49659C40.7019 2.48882 40.6964 2.5011 40.6994 2.52308Z" fill="#43B14C"/>
<path d="M40.3413 4.69375C40.4345 4.44071 40.4378 4.4225 40.5632 3.51119C40.6317 3.00406 40.6924 2.5957 40.6948 2.60564C40.6992 2.6155 40.6587 3.02703 40.6075 3.51936L40.603 3.56259C40.5443 4.1249 40.5166 4.38932 40.5302 4.65161C40.5421 4.88444 40.5865 5.1156 40.6703 5.55194L40.6768 5.58559C40.7611 6.01997 40.773 6.39513 40.7118 6.60263C40.6046 6.95268 40.3627 6.99906 40.1844 6.70526C40.092 6.55247 40.0511 6.38947 40.0423 6.13471C40.0299 5.74551 40.1278 5.27129 40.3413 4.69375Z" fill="#43B14C"/>
<path d="M43.1055 3.69485C42.7609 4.13122 42.6122 4.31946 42.4372 4.47848C42.3045 4.59913 42.1566 4.70296 41.8965 4.88556L41.8423 4.92364C41.3803 5.24851 41.3068 5.30786 41.166 5.47453C40.9678 5.70388 40.894 5.89784 40.9555 6.02783C40.9973 6.11847 41.0626 6.15187 41.1844 6.14673C41.6373 6.1276 42.1185 5.59299 42.5553 4.62433C42.6632 4.38674 42.71 4.31244 43.1791 3.68192C43.7672 2.88567 43.8144 2.8214 43.8045 2.82182C43.8005 2.82199 43.5176 3.17545 43.1759 3.60572L43.1055 3.69485Z" fill="#43B14C"/>
<path d="M39.9381 4.40915L39.9558 4.2721C39.9903 4.00145 40.0212 3.7872 40.0257 3.79705C40.0301 3.80691 39.9867 4.2949 39.9296 4.88391L39.9171 5.01421C39.8603 5.60054 39.8341 5.87205 39.8514 6.14073C39.8664 6.37244 39.9138 6.60205 40.0022 7.02967L40.0249 7.13989C40.1354 7.6716 40.1381 8.11545 40.0321 8.35095C39.9608 8.50865 39.8268 8.60069 39.7135 8.56932C39.6892 8.5623 39.6379 8.53032 39.5986 8.49984C39.3606 8.30699 39.2688 7.79057 39.3637 7.19795C39.4112 6.90265 39.5552 6.38229 39.6688 6.09022C39.7476 5.8899 39.7481 5.88602 39.9381 4.40915Z" fill="#43B14C"/>
<path d="M42.5558 5.06426C42.1752 5.56448 41.9094 5.89713 41.8265 5.97095C41.7553 6.03623 41.5192 6.21897 41.3001 6.37889C40.6542 6.84813 40.4661 7.03086 40.3489 7.28691C40.2209 7.56955 40.3285 7.74982 40.6028 7.71212C40.7877 7.68824 40.9766 7.57178 41.1815 7.35822C41.465 7.065 41.6576 6.75151 41.9111 6.17429C41.9188 6.15686 41.9259 6.14058 41.9326 6.12516C41.9513 6.08235 41.9671 6.04617 41.984 6.01058C42.0758 5.81759 42.2013 5.64084 43.0079 4.5056L43.1174 4.35149C43.1496 4.30995 43.1702 4.27493 43.1662 4.2751C43.1602 4.27535 42.8873 4.6304 42.5558 5.06426Z" fill="#43B14C"/>
<path d="M38.9789 7.31466L39.0073 6.18848C39.0231 5.56907 39.0399 5.11635 39.0467 5.18236C39.0515 5.24845 39.0595 5.76842 39.0635 6.33677L39.0692 7.37111L39.1281 7.62978C39.1601 7.77106 39.2637 8.14234 39.3588 8.45372C39.5584 9.10823 39.5913 9.27157 39.5897 9.56494C39.5887 9.82613 39.5508 9.97036 39.4556 10.0809C39.3946 10.1517 39.377 10.1605 39.2912 10.1641C39.1335 10.1708 39.026 10.087 38.9006 9.86323C38.7817 9.64929 38.745 9.49013 38.7278 9.08305C38.7074 8.60177 38.7593 8.1737 38.9101 7.57872L38.9789 7.31466Z" fill="#43B14C"/>
<path d="M42.1276 6.33189C41.7976 6.80184 41.4938 7.22851 41.4499 7.27657C41.3337 7.41206 41.0694 7.63818 40.6475 7.96737C40.0496 8.43459 39.749 8.79683 39.7232 9.0852C39.7119 9.19616 39.7577 9.28664 39.8518 9.3369C39.9378 9.3855 40.0475 9.37886 40.2066 9.31388C40.6567 9.13214 41.1117 8.4982 41.4619 7.56133C41.5535 7.31639 41.5961 7.23624 41.8457 6.85204C42.2644 6.20959 42.7056 5.53405 42.7283 5.50295C42.7377 5.4905 42.7412 5.4783 42.7352 5.47855C42.7292 5.47881 42.4557 5.86402 42.1276 6.33189Z" fill="#43B14C"/>
<path d="M38.5182 6.91627C38.5156 6.94852 38.5107 6.92663 38.5084 6.87249C38.506 6.81634 38.509 6.7921 38.514 6.816C38.5191 6.8419 38.5209 6.88602 38.5182 6.91627Z" fill="#43B14C"/>
<path d="M38.4699 8.0915C38.4428 9.15334 38.4404 9.19161 38.3883 9.37863C38.2359 9.93551 38.1679 10.4547 38.1873 10.9139C38.2011 11.289 38.2499 11.4978 38.3668 11.7099C38.5377 12.016 38.7814 12.1062 38.9314 11.919C39.0339 11.7902 39.0548 11.6708 39.0392 11.2998L39.0378 11.2681C39.0334 11.1629 39.0305 11.0923 39.0216 11.0224C39.0035 10.8798 38.9606 10.7402 38.8301 10.3157L38.8041 10.2309C38.7276 9.98103 38.636 9.65745 38.5998 9.51032L38.5364 9.24179L38.5266 8.15741C38.5214 7.56098 38.512 7.05514 38.5072 7.03525C38.5023 7.01336 38.4844 7.49023 38.4699 8.0915Z" fill="#43B14C"/>
<path d="M40.8714 8.96036C40.9635 8.87008 41.1844 8.56343 41.6815 7.83732C42.0561 7.28913 42.369 6.83999 42.373 6.83982C42.3789 6.83956 42.3622 6.8704 42.3378 6.90559C42.3133 6.94278 42.0283 7.38874 41.706 7.89655C41.1625 8.75521 41.116 8.83552 41.0336 9.06199C40.6383 10.1635 40.1824 10.8216 39.6792 11.0236C39.4552 11.1155 39.2921 11.0882 39.2103 10.949C39.1608 10.8647 39.158 10.7986 39.2019 10.6561C39.2983 10.3346 39.5158 10.0904 40.2133 9.5185C40.505 9.27918 40.8022 9.02756 40.8714 8.96036Z" fill="#43B14C"/>
<path d="M37.9468 8.34261C37.9462 8.37478 37.9347 8.95383 37.9192 9.62947L37.8911 10.8561L37.8144 11.1707C37.5216 12.3784 37.5203 13.2001 37.8123 13.7221C37.9008 13.8771 38.0093 13.987 38.1147 14.0207C38.3621 14.1047 38.5276 13.9048 38.5637 13.4814C38.5888 13.177 38.5316 12.864 38.3214 12.1939C38.1619 11.6824 38.1125 11.5077 38.0444 11.2213C37.9909 10.9945 37.9905 10.9845 37.9826 10.2295C37.9768 9.80985 37.9715 9.21142 37.9704 8.90009C37.9692 8.58876 37.9639 8.3218 37.9574 8.30802C37.9508 8.29423 37.9454 8.30852 37.9468 8.34261Z" fill="#43B14C"/>
<path d="M40.1923 10.8571C40.3935 10.6316 40.5523 10.368 40.9903 9.64097L40.9957 9.6321C41.3394 9.06312 41.6237 8.59912 41.6277 8.59895C41.6284 8.59892 41.6294 8.59837 41.6303 8.59786C41.6416 8.59158 41.6418 8.59143 41.0503 9.64787C40.5281 10.582 40.4874 10.66 40.4191 10.8899C40.1321 11.8563 39.7739 12.5082 39.3629 12.8108C39.0643 13.0304 38.8013 13.0495 38.6914 12.8613C38.6332 12.7613 38.6496 12.63 38.7461 12.407C38.8828 12.0939 39.0145 11.9457 39.7385 11.2923L39.7486 11.2832C39.9497 11.1013 40.0778 10.9854 40.1923 10.8571Z" fill="#43B14C"/>
<path d="M40.5834 11.2265L39.9649 12.3897L39.7303 12.6567C39.6026 12.8047 39.3136 13.1082 39.0892 13.3327C38.6674 13.7583 38.5625 13.8772 38.422 14.1001C38.214 14.4303 38.1394 14.7469 38.2324 14.9117C38.3403 15.1 38.6273 15.0798 38.9159 14.8627C39.379 14.5157 39.7456 13.777 40.0249 12.6282C40.0878 12.3664 40.1061 12.3274 40.6326 11.2566L40.684 11.1521C41.1836 10.1358 41.2179 10.0659 41.2127 10.0628C41.212 10.0624 41.2109 10.063 41.2099 10.063C41.2039 10.0633 40.9222 10.5874 40.5834 11.2265Z" fill="#43B14C"/>
<path d="M37.3594 11.4745C37.3615 11.008 37.3631 10.6618 37.3621 10.6374C37.3608 10.6073 37.3639 10.5851 37.3701 10.5908C37.3764 10.5966 37.3933 11.1403 37.4093 11.8025C37.4252 12.4628 37.4459 13.0947 37.4566 13.2048C37.479 13.4529 37.5525 13.725 37.7842 14.4304C38.0024 15.1002 38.0358 15.2274 38.0617 15.5095C38.0949 15.8697 38.0404 16.1412 37.9059 16.2694C37.8521 16.3219 37.8246 16.3331 37.7348 16.3369C37.649 16.3406 37.6126 16.33 37.5448 16.2867C37.3905 16.1827 37.2593 15.9633 37.1685 15.6597C37.1263 15.5129 37.1169 15.4329 37.1004 15.0881C37.0777 14.5527 37.125 14.1569 37.2907 13.4428L37.35 13.1892L37.3572 11.9413C37.3579 11.779 37.3587 11.6222 37.3594 11.477L37.3594 11.4745Z" fill="#43B14C"/>
<path d="M40.0106 13.5242C39.698 14.1816 39.5675 14.456 39.3955 14.7009C39.2722 14.8765 39.1277 15.0368 38.8795 15.3121C38.852 15.3427 38.8231 15.3747 38.7929 15.4083C38.1705 16.1016 38.0159 16.321 37.9086 16.6691C37.7117 17.3062 38.1964 17.4705 38.7098 16.9426C39.0929 16.5488 39.387 15.8433 39.5831 14.8546C39.5865 14.8368 39.5897 14.8201 39.5927 14.8042C39.6042 14.7438 39.6133 14.6957 39.6247 14.6481C39.6693 14.4611 39.7477 14.2821 40.1348 13.3996C40.169 13.3218 40.2055 13.2385 40.2446 13.1493C40.4762 12.6212 40.6637 12.1854 40.6596 12.1835C40.6555 12.1797 40.4018 12.7047 40.0932 13.3505C40.0643 13.4112 40.0368 13.4691 40.0106 13.5242Z" fill="#43B14C"/>
<path d="M40.6593 15.1547C41.0502 14.7083 41.3675 14.4598 41.764 14.2864C41.8287 14.2575 41.8997 14.2345 41.9217 14.2335C41.9436 14.2326 41.9184 14.2497 41.8633 14.2722C41.5647 14.3953 41.2894 14.5977 40.9928 14.9116C40.2946 15.6543 39.6401 16.9113 39.0313 18.6848C38.5094 20.1954 38.0036 22.1795 37.6594 24.0643C37.6391 24.1753 37.6249 24.2483 37.6177 24.3219C37.6014 24.4899 37.6222 24.6616 37.6935 25.2984C37.8032 26.2861 37.9895 27.4293 38.1918 28.3389C38.2514 28.6136 38.2602 28.6815 38.241 28.7004C38.1874 28.7549 38.0316 28.8057 37.8664 28.8227L37.6952 28.84L37.6687 28.7326C37.63 28.5735 37.5016 27.9482 37.4422 27.6292C36.8278 24.3465 36.7451 21.0655 37.2023 18.1634C37.2732 17.7124 37.4117 17.0175 37.496 16.6946C37.5493 16.4894 37.5512 16.4873 37.6019 16.5033C37.6303 16.5141 37.6785 16.5201 37.7105 16.5188L37.7683 16.5163L37.7333 16.6323C37.6877 16.7849 37.679 17.0504 37.7172 17.1513C37.733 17.1948 37.7901 17.2687 37.8462 17.3186L37.9459 17.4068L37.8965 17.658C37.6534 18.9057 37.5025 20.5855 37.5106 21.9613L37.511 22.3028L37.6686 21.7738C38.1832 20.0425 38.5784 18.941 39.112 17.7553C39.6455 16.5676 40.1252 15.7619 40.6593 15.1547Z" fill="#43B14C"/>
<path d="M48.8491 9.90958C49.0522 9.68538 49.2217 9.49738 49.224 9.49267C49.2389 9.46283 49.185 9.51634 48.8585 9.85156C48.5461 10.1742 48.4844 10.2316 48.3063 10.3507C48.0869 10.4982 47.8667 10.6904 47.744 10.839C47.637 10.968 47.5463 11.1775 47.5478 11.288C47.5493 11.4377 47.6452 11.4952 47.7803 11.4272C47.938 11.349 48.0459 11.1949 48.2866 10.7034L48.4773 10.3163L48.8491 9.90958Z" fill="#43B14C"/>
<path d="M49.7065 10.2843C49.7268 10.2682 49.7441 10.2544 49.7573 10.244C49.9573 10.0849 49.8573 10.1488 49.5145 10.3994C49.3271 10.5374 49.1412 10.6643 49.1006 10.6833C49.06 10.7023 48.8906 10.7689 48.7228 10.8323C48.5557 10.8941 48.3878 10.9615 48.3527 10.9812C48.127 11.1099 48.0395 11.2858 48.169 11.3503C48.3719 11.4512 48.7678 11.2152 49.1185 10.7843C49.1693 10.7214 49.2927 10.6104 49.4247 10.5056C49.5213 10.431 49.6332 10.3423 49.7065 10.2843Z" fill="#43B14C"/>
<path d="M48.362 9.9297C48.3534 9.94697 48.3463 9.94935 48.3479 9.93446C48.3487 9.92114 48.3573 9.90778 48.3643 9.9054C48.3721 9.90145 48.3721 9.9132 48.362 9.9297Z" fill="#43B14C"/>
<path d="M47.9831 10.3858C48.1667 10.1656 48.3198 9.97926 48.3245 9.96984C48.3432 9.93214 48.2901 9.98801 47.9699 10.3498C47.6605 10.6975 47.6035 10.7534 47.4153 10.8968C47.0147 11.201 46.8077 11.4252 46.7006 11.6756C46.6365 11.8279 46.6232 11.9251 46.652 12.0159C46.6925 12.1379 46.8322 12.1428 46.9681 12.0263C47.1024 11.9128 47.1829 11.7746 47.3729 11.3381C47.4667 11.1222 47.5675 10.9079 47.5964 10.8655C47.6253 10.823 47.7988 10.6076 47.9831 10.3858Z" fill="#43B14C"/>
<path d="M49.2565 11.1606C48.8419 11.356 48.724 11.4207 48.5733 11.5319C48.1867 11.8195 47.833 11.9825 47.5942 11.9851C47.3483 11.9862 47.2305 11.8943 47.3008 11.7529C47.3446 11.665 47.5008 11.5703 47.6671 11.5296C47.7342 11.5121 47.9645 11.4758 48.1823 11.449C48.3985 11.4214 48.6178 11.3875 48.6709 11.3708C48.7217 11.3549 48.984 11.2464 49.2541 11.1301C49.5219 11.0145 49.746 10.9203 49.7507 10.9226C49.7538 10.9241 49.5313 11.0309 49.2565 11.1606Z" fill="#43B14C"/>
<path d="M47.0353 10.8938C47.2118 10.6368 47.3626 10.416 47.3673 10.4027C47.3884 10.3563 47.3486 10.409 47.008 10.8743C46.7665 11.2068 46.6416 11.3641 46.5845 11.4121C46.3573 11.6027 46.1042 11.8765 45.9683 12.0832C45.8026 12.3338 45.747 12.6177 45.8367 12.7466C45.8772 12.8021 45.8811 12.806 45.9451 12.8065C46.0747 12.8082 46.2302 12.6407 46.3388 12.3793C46.3748 12.2953 46.4412 12.1069 46.4858 11.9626C46.629 11.5028 46.6681 11.4282 47.0353 10.8938Z" fill="#43B14C"/>
<path d="M48.9979 11.5472C48.9832 11.5541 48.9527 11.5685 48.9109 11.5883C48.808 11.6369 48.6363 11.718 48.4615 11.7995C48.0875 11.9759 47.9852 12.0328 47.8189 12.1557C47.412 12.4607 47.0443 12.6285 46.7797 12.6281C46.6095 12.6296 46.5018 12.5838 46.4738 12.4954C46.413 12.3163 46.716 12.1496 47.2015 12.0934C47.5762 12.0487 47.751 12.026 47.8572 12.0004C47.9111 11.99 48.1882 11.8791 48.4732 11.7564C48.976 11.5403 49.1821 11.4587 48.9979 11.5472Z" fill="#43B14C"/>
<path d="M46.5755 10.9138C46.5747 10.9272 46.5817 10.9209 46.5927 10.8989C46.6036 10.8769 46.6044 10.8675 46.595 10.8746C46.5864 10.884 46.577 10.9029 46.5755 10.9138Z" fill="#43B14C"/>
<path d="M46.5435 10.9626C46.5372 10.979 46.3778 11.2172 46.1919 11.493C45.7973 12.0745 45.7707 12.1279 45.6127 12.6449C45.4844 13.0709 45.3398 13.3732 45.2149 13.4874C45.1126 13.5795 45.0368 13.6026 44.9588 13.5637C44.7981 13.4837 44.8178 13.1859 45.0053 12.856C45.1468 12.607 45.3632 12.3561 45.667 12.09C45.774 11.9963 45.8474 11.9035 46.1739 11.4547C46.3857 11.1662 46.5505 10.9445 46.5435 10.9626Z" fill="#43B14C"/>
<path d="M47.6971 12.4305C47.845 12.3575 47.9936 12.284 48.0733 12.2432C48.3403 12.1096 48.1857 12.1737 47.5853 12.4451C47.0497 12.688 47.0083 12.7007 46.4596 12.7744C46.0521 12.8303 45.828 12.8971 45.6953 13.0034C45.6055 13.0744 45.5867 13.1042 45.5882 13.1677C45.589 13.2366 45.6147 13.271 45.6951 13.3129C45.9486 13.4411 46.4069 13.2753 46.9481 12.8608C47.134 12.7182 47.2308 12.6606 47.5197 12.5183C47.5755 12.4906 47.6362 12.4606 47.6971 12.4305Z" fill="#43B14C"/>
<path d="M45.5323 11.4881C45.5012 11.547 45.4475 11.6494 45.3847 11.7692C45.3152 11.9017 45.2346 12.0554 45.1611 12.1948L45.1601 12.1967C45.0203 12.4645 44.9495 12.5999 44.8989 12.7424C44.8471 12.8881 44.8164 13.0413 44.7541 13.3511L44.7482 13.3805C44.637 13.9287 44.5447 14.1571 44.3761 14.3005C44.287 14.3776 44.2347 14.3888 44.1551 14.3492C44.0397 14.2918 44 14.0976 44.0563 13.8474C44.0845 13.7165 44.1033 13.6709 44.226 13.444C44.3753 13.1675 44.5221 12.9663 44.7549 12.7177C44.8744 12.591 44.8978 12.5556 45.2409 11.9602C45.6339 11.2761 45.7176 11.1433 45.5323 11.4881Z" fill="#43B14C"/>
<path d="M47.2655 12.9226C47.4036 12.8478 47.5128 12.7886 47.5515 12.7672C47.7857 12.6369 47.5952 12.7263 46.9932 13.0283C46.6575 13.1943 46.3319 13.3477 46.2695 13.3676C46.2062 13.3851 45.9494 13.4395 45.6972 13.4845C45.0993 13.5945 44.8791 13.6808 44.758 13.8616C44.726 13.9103 44.7221 13.9299 44.74 13.9956C44.7571 14.0629 44.7688 14.0746 44.8414 14.1088C45.1387 14.2509 45.6938 14.0157 46.2951 13.492C46.4021 13.3983 46.5325 13.3202 46.93 13.1045C47.0462 13.0414 47.1632 12.978 47.2647 12.923L47.2655 12.9226Z" fill="#43B14C"/>
<path d="M44.6318 12.4017C44.567 12.5203 44.399 12.8384 44.2591 13.1077L44.2502 13.1247C44.1156 13.3825 44.0455 13.5168 43.9948 13.658C43.9397 13.8115 43.9074 13.9732 43.8402 14.3108L43.8368 14.3279C43.7624 14.7044 43.7014 14.8974 43.6076 15.0506C43.5279 15.1833 43.449 15.2558 43.3623 15.2773C43.1914 15.3196 43.0932 15.1257 43.1363 14.8317C43.1528 14.7164 43.1692 14.6756 43.2958 14.4212C43.4529 14.1055 43.5576 13.9578 43.8349 13.6549C43.9821 13.4942 43.9886 13.4829 44.3303 12.8903L44.3443 12.866C44.721 12.207 44.8249 12.0412 44.6318 12.4017Z" fill="#43B14C"/>
<path d="M46.3153 13.7842C46.6635 13.5892 46.9587 13.4225 46.9704 13.4147C47.0079 13.3863 46.9251 13.4274 46.2747 13.764C45.8343 13.9916 45.5743 14.115 45.4721 14.1444C45.3878 14.1691 45.1301 14.2251 44.8999 14.2692C44.4401 14.3558 44.2597 14.4091 44.0989 14.5054C43.9224 14.6096 43.8435 14.7212 43.87 14.8284C43.8848 14.8848 43.8949 14.8957 43.9862 14.9392C44.1282 15.0099 44.2851 15.0037 44.5279 14.9188C44.8238 14.8172 45.1322 14.62 45.5094 14.2884C45.6617 14.1546 45.7468 14.1009 46.3153 13.7842Z" fill="#43B14C"/>
<path d="M43.7929 13.1841L43.7922 13.1855C43.7223 13.3159 43.6353 13.4781 43.5421 13.6523L43.1412 14.4031L43.0849 14.6102C43.0536 14.7239 42.9933 14.9937 42.9502 15.2093C42.8508 15.7026 42.8242 15.7913 42.7093 16.0065C42.6225 16.1651 42.6054 16.1879 42.521 16.2517C42.439 16.3109 42.4172 16.3196 42.3508 16.3081C42.2837 16.2982 42.2697 16.2912 42.2315 16.2389C42.1683 16.1585 42.1442 15.9956 42.1685 15.8216C42.1873 15.6977 42.2061 15.6365 42.289 15.4544C42.4367 15.1301 42.6164 14.8708 42.9585 14.4885L43.1288 14.2989L43.5383 13.5818C43.7641 13.1867 43.9524 12.863 43.9571 12.8614C43.9618 12.8598 43.9618 12.8677 43.9555 12.8802C43.9519 12.8875 43.8884 13.006 43.7929 13.1841Z" fill="#43B14C"/>
<path d="M45.3468 14.619C45.6818 14.4075 45.9614 14.2292 45.97 14.2237C46.0332 14.1749 45.856 14.2767 45.3094 14.6004C44.6019 15.0203 44.5645 15.0369 43.9321 15.1925C43.4965 15.301 43.2771 15.3818 43.1335 15.4906C42.8898 15.675 42.8912 15.8795 43.1363 15.9309C43.4906 16.0054 43.9591 15.7565 44.5659 15.1709C44.7229 15.0198 44.8002 14.9661 45.3468 14.619Z" fill="#43B14C"/>
<path d="M45.2241 14.9831L45.2014 14.9993L45.2012 14.9994C45.122 15.0559 44.8573 15.2447 44.5556 15.4577C44.027 15.8353 43.9075 15.9268 43.8153 16.0298C43.5177 16.3696 43.1452 16.6917 42.8813 16.8386C42.6142 16.9878 42.3394 17.0431 42.174 16.9843C41.9781 16.9123 41.9775 16.7258 42.1751 16.5518C42.357 16.3935 42.4351 16.3579 43.1541 16.1142L43.8568 15.8761L44.5525 15.4131C44.9336 15.1599 45.2491 14.9524 45.2522 14.954C45.2569 14.9563 45.2428 14.9689 45.2241 14.9831Z" fill="#43B14C"/>
<path d="M42.0452 15.7607C42.1009 15.5837 42.1845 15.4153 42.3738 15.0341C42.3973 14.9868 42.4225 14.9361 42.4494 14.8817L42.8324 14.1122L42.58 14.5646L42.5753 14.573C42.0415 15.5331 42.0395 15.5368 41.8697 15.7297C41.608 16.0246 41.4564 16.2431 41.3134 16.5305C41.2204 16.7174 41.1805 16.8132 41.1602 16.9049C41.0897 17.2226 41.1489 17.4636 41.3073 17.5092C41.4283 17.5439 41.5438 17.4564 41.6657 17.2388C41.7767 17.0393 41.8166 16.9044 41.9059 16.4237C41.9135 16.3823 41.9206 16.3434 41.9273 16.3068C41.9747 16.0462 42.0012 15.9008 42.0452 15.7607Z" fill="#43B14C"/>
<path d="M44.2735 16.0246C44.2485 16.0436 43.9463 16.2792 43.6026 16.5471C43.0271 16.9993 42.9693 17.049 42.8482 17.1984C42.5717 17.5388 42.2304 17.8569 41.9704 18.0194C41.6073 18.2443 41.2256 18.2679 41.1414 18.0693C41.0923 17.9567 41.1665 17.8192 41.3579 17.6695C41.5086 17.5506 41.6726 17.4754 42.2058 17.2803C42.4837 17.1796 42.7562 17.0742 42.8148 17.0465C42.8718 17.018 43.2239 16.772 43.5972 16.4993C43.9697 16.2281 44.2852 16.0011 44.2969 15.9971C44.311 15.9924 44.3008 16.0049 44.2735 16.0246Z" fill="#43B14C"/>
<path d="M41.3451 19.2405C42.5689 18.1311 43.5043 17.5974 44.2349 17.5887C44.4425 17.5862 44.3832 17.5684 44.16 17.5671C43.9415 17.5641 43.712 17.6106 43.4176 17.7169C42.4121 18.0746 41.1071 19.0613 39.5161 20.662L39.2482 20.9304L39.3108 20.8047C39.4413 20.5425 39.8414 19.8755 40.1195 19.4535C40.332 19.1361 40.6797 18.6566 40.8851 18.4042L41.057 18.1919L41.0289 18.1152C41.0134 18.0722 41.0032 18.0142 41.0056 17.986C41.0127 17.9131 41.0924 17.7647 41.1627 17.69C41.1963 17.6538 41.2221 17.6215 41.2213 17.6192C41.2205 17.6168 41.1971 17.5934 41.1698 17.57L41.1183 17.5248L41.0175 17.6334C40.6637 18.0118 40.1716 18.6486 39.7778 19.2443C39.3481 19.8926 39.0566 20.4 38.6642 21.1884C38.1077 22.3104 37.6949 23.3629 37.3312 24.5907C37.2788 24.765 37.2572 24.8225 37.2769 24.852C37.2896 24.8709 37.3194 24.8783 37.3692 24.8977C37.4293 24.9217 37.5136 24.9441 37.5588 24.947C37.6299 24.953 37.64 24.9482 37.6517 24.909C37.9553 23.8922 38.2274 23.1224 38.5323 22.4159L38.63 22.1922L38.8503 21.9178C39.6072 20.9797 40.5945 19.9192 41.3451 19.2405Z" fill="#43B14C"/>
<path fill-rule="evenodd" clip-rule="evenodd" d="M34.0362 7.00951C33.0733 8.44599 32.9523 9.08109 33.5185 9.72602C33.7821 10.0263 34.0535 10.1363 34.5306 10.1363C34.8489 10.1363 34.9658 10.1022 35.216 9.93642C35.8108 9.54254 35.9473 8.86926 35.587 8.10633C35.3718 7.65071 34.5681 6.40381 34.4895 6.40381C34.4635 6.40381 34.2595 6.67641 34.0362 7.00951ZM33.8209 7.75437C33.8633 7.64584 33.903 7.54425 33.9323 7.45149C32.7798 9.12783 33.4644 9.76332 34.2597 9.93639C33.2487 9.21886 33.5789 8.3737 33.8209 7.75437Z" fill="#00A5CF"/>
<path fill-rule="evenodd" clip-rule="evenodd" d="M24.9302 3.89709C24.378 4.72091 24.3086 5.08515 24.6333 5.45502C24.7845 5.6272 24.9402 5.69029 25.2138 5.69029C25.3963 5.69029 25.4634 5.67073 25.6069 5.57568C25.948 5.34979 26.0263 4.96366 25.8196 4.52612C25.6962 4.26482 25.2353 3.54971 25.1902 3.54971C25.1753 3.54971 25.0583 3.70605 24.9302 3.89709ZM24.8062 4.32426C24.8306 4.26202 24.8533 4.20376 24.8701 4.15056C24.2092 5.11194 24.6018 5.47641 25.0579 5.57566C24.4781 5.16415 24.6675 4.67945 24.8062 4.32426Z" fill="#00A5CF"/>
<path fill-rule="evenodd" clip-rule="evenodd" d="M38.1558 1.75976C37.6036 2.58358 37.5342 2.94782 37.8589 3.31769C38.0101 3.48987 38.1658 3.55297 38.4394 3.55297C38.6219 3.55297 38.689 3.5334 38.8325 3.43835C39.1736 3.21246 39.2518 2.82633 39.0452 2.38879C38.9218 2.12749 38.4609 1.41238 38.4158 1.41238C38.4009 1.41238 38.2839 1.56872 38.1558 1.75976ZM38.0319 2.18696C38.0562 2.12472 38.079 2.06645 38.0958 2.01325C37.4348 2.97464 37.8274 3.3391 38.2835 3.43836C37.7037 3.02685 37.8931 2.54214 38.0319 2.18696Z" fill="#00A5CF"/>
<path fill-rule="evenodd" clip-rule="evenodd" d="M20.7249 18.4239C20.2327 18.6664 20.2159 19.6301 20.6276 19.9915C20.8355 20.1741 21.0924 20.2452 21.3398 20.1888C21.5974 20.13 21.7544 20.0048 21.8853 19.7537C22.2353 19.0819 21.4132 18.0847 20.7249 18.4239ZM20.6276 18.9566C20.588 19.0171 20.5313 19.1361 20.5017 19.2212C20.4052 19.4979 20.5401 19.8567 20.7153 19.7894C20.7723 19.7675 20.7712 19.7238 20.7083 19.4977C20.6412 19.2567 20.6414 19.2135 20.7098 19.0392C20.7921 18.8298 20.743 18.7805 20.6276 18.9566ZM20.7931 19.9505C20.7931 20.0203 21.0971 20.1406 21.2585 20.1347C21.3888 20.1299 21.3883 20.129 21.2373 20.0931C21.1523 20.0729 21.0292 20.0213 20.9636 19.9783C20.8243 19.887 20.7931 19.8819 20.7931 19.9505Z" fill="#00A5CF"/>
<path fill-rule="evenodd" clip-rule="evenodd" d="M44.6391 7.47387C44.2584 7.44879 43.9133 8.02323 44.0355 8.384C44.0972 8.56619 44.2272 8.69834 44.3958 8.75038C44.5714 8.80456 44.7094 8.78375 44.8755 8.67803C45.3199 8.3952 45.1715 7.5089 44.6391 7.47387ZM44.1487 8.41676C44.1245 8.4588 44.2657 8.63693 44.3649 8.68945C44.445 8.73187 44.4451 8.73117 44.3666 8.65702C44.3224 8.61536 44.2663 8.54145 44.2417 8.49275C44.1896 8.38932 44.1726 8.37545 44.1487 8.41676Z" fill="#00A5CF"/>
<path fill-rule="evenodd" clip-rule="evenodd" d="M30.1887 5.41812C29.8431 5.57988 29.818 6.24956 30.0992 6.50656C30.2412 6.63634 30.4188 6.68937 30.5916 6.65356C30.7715 6.61629 30.8824 6.53143 30.9768 6.35869C31.2295 5.89654 30.6718 5.19188 30.1887 5.41812ZM30.025 6.29815C30.0008 6.34018 30.1419 6.51831 30.2412 6.57084C30.3213 6.61325 30.3214 6.61255 30.2429 6.53841C30.1987 6.49674 30.1426 6.42283 30.118 6.37413C30.0659 6.27071 30.0489 6.25683 30.025 6.29815Z" fill="#00A5CF"/>
<path fill-rule="evenodd" clip-rule="evenodd" d="M47.9001 17.1393C47.3339 17.4043 47.2928 18.5018 47.7535 18.9229C47.9862 19.1356 48.2773 19.2225 48.5604 19.1638C48.8552 19.1027 49.0369 18.9636 49.1917 18.6806C49.6057 17.9233 48.6919 16.7685 47.9001 17.1393ZM47.631 18.5814C47.5913 18.6503 47.8226 18.9422 47.9853 19.0282C48.1165 19.0977 48.1166 19.0966 47.988 18.9751C47.9157 18.9068 47.8237 18.7857 47.7834 18.7059C47.6979 18.5364 47.6701 18.5137 47.631 18.5814Z" fill="#00A5CF"/>
<defs>
<linearGradient id="paint0_linear_139_620" x1="36.9812" y1="23.7865" x2="68.9782" y2="38.6918" gradientUnits="userSpaceOnUse">
<stop offset="0.0382966" stop-color="#43B14C"/>
<stop offset="0.491596" stop-color="#00A5CF"/>
</linearGradient>
</defs>
</svg>
