<svg viewBox="0 0 628 591"  xmlns="http://www.w3.org/2000/svg">
<path  clip-rule="evenodd" d="M452.454 1.20784C451.241 2.41284 449.533 2.81684 439.531 4.26484C436.3 4.73284 435.785 5.23184 434.706 8.94684C431.339 20.5328 417.112 50.4218 411.029 58.6928C408.725 61.8248 406.163 65.6978 405.336 67.2978C403.103 71.6188 395.541 78.1778 390.038 80.5688C387.374 81.7258 384.519 83.0788 383.695 83.5748C380.848 85.2898 372.193 89.3148 368.707 90.5438C350.164 97.0838 342.931 100.003 341.173 101.657C340.033 102.728 337.963 103.604 336.573 103.604C334.153 103.604 330.772 106.243 330.705 108.183C330.688 108.689 329.674 110.229 328.452 111.604C325.169 115.298 310.265 128.26 307.753 129.605C306.076 130.503 305.725 131.342 306.211 133.282C306.562 134.678 306.324 136.42 305.678 137.2C304.827 138.224 304.81 138.962 305.611 139.928C308.02 142.833 305.333 148.045 296.451 157.698C292.776 161.693 289.769 165.583 289.769 166.341C289.769 167.1 288.496 169.382 286.94 171.413C284.172 175.023 284.113 175.368 284.248 187.104C284.341 195.193 283.961 199.984 283.081 201.804C281.295 205.498 281.44 206.604 283.707 206.604C284.776 206.604 287.237 208.557 289.22 210.977C292.794 215.343 292.798 215.36 291.659 220.727C290.023 228.436 285.639 236.448 280.373 241.349C277.864 243.683 275.199 247.058 274.452 248.849C273.703 250.639 269.044 256.262 264.099 261.344C256.156 269.505 253.978 271.119 245.448 275.163C236.798 279.264 229.421 284.586 224.899 289.988C219.854 296.014 217.751 297.414 209.788 300.046C205.142 301.582 200.096 303.476 198.575 304.256C195.825 305.665 179.619 308.818 168.58 310.09C163.283 310.701 162.602 311.07 160.439 314.498C159.141 316.556 156.983 318.958 155.643 319.837C154.129 320.83 152.354 323.831 150.95 327.769C149.707 331.253 147.61 335.782 146.289 337.833C144.967 339.883 143.886 342.221 143.886 343.027C143.886 345.47 137.318 358.991 135.29 360.724C132.521 363.091 117.841 370.604 115.988 370.604C115.115 370.604 113.129 371.954 111.573 373.604C110.017 375.254 108.067 376.604 107.241 376.604C104.98 376.604 101.99 380.733 101.952 383.904C101.919 386.741 99.7376 391.865 97.3995 394.604C96.6951 395.429 95.4021 398.541 94.5268 401.52C93.6515 404.499 92.2846 407.656 91.4882 408.536C89.3799 410.868 87.7562 419.26 88.4796 424.089C89.7426 432.515 85.464 441.171 78.1338 445.024C76.652 445.803 70.4939 451.234 64.4487 457.094C58.4035 462.953 53.3076 467.677 53.1247 467.592C52.9409 467.507 52.4912 467.772 52.1255 468.181C51.7588 468.59 52.0206 468.601 52.7081 468.205C53.5734 467.707 53.9571 468.298 53.9571 470.129C53.9571 471.747 52.2125 474.995 49.4607 478.501C46.9876 481.651 44.9642 484.699 44.9642 485.273C44.9642 485.848 42.721 489.321 39.9792 492.992C35.6147 498.835 35.147 499.912 36.2252 501.639C37.664 503.944 36.473 506.57 33.3375 508.007C31.414 508.888 28.9769 514.714 28.9769 518.433C28.9769 519.457 28.0777 521.109 26.9785 522.104C25.8794 523.099 24.9801 524.684 24.9801 525.624C24.9801 526.565 24.0169 528.56 22.8388 530.058C21.2611 532.066 20.056 532.66 18.2595 532.316C16.305 531.942 15.2439 532.648 12.9037 535.881C11.299 538.098 9.49645 541.755 8.89692 544.008C8.2974 546.261 7.24723 548.779 6.56278 549.604C5.87732 550.429 5.22584 553.129 5.11393 555.604C5.00302 558.079 4.50641 561.679 4.01181 563.604C3.5182 565.529 2.80377 570.479 2.42607 574.604C2.04837 578.729 1.33194 582.892 0.834336 583.854C0.327739 584.835 0.31475 585.604 0.806358 585.604C1.64969 585.604 2.59993 582.92 4.96405 573.854L6.07217 569.604H82.973H159.873V562.411C159.873 550.711 157.872 527.553 156.319 521.273C154.405 513.535 154.488 511.969 157.034 507.847C159.885 503.231 174.371 493.865 180.07 492.955C182.426 492.578 186.726 491.221 189.628 489.937C192.529 488.654 195.788 487.604 196.872 487.604C198.806 487.604 198.842 486.697 198.842 437.764V387.925L225.071 387.267C239.497 386.904 268.049 386.607 288.52 386.606L325.741 386.604V339.073C325.741 297.089 325.922 291.472 327.288 290.947C328.166 290.61 329.387 291.109 330.111 292.101C330.995 293.309 332.06 293.636 333.561 293.159C334.756 292.78 335.733 292.105 335.733 291.659C335.733 291.213 337.981 290.963 340.729 291.104C345.354 291.341 345.725 291.188 345.725 289.053C345.725 287.785 345.05 286.072 344.226 285.247C343.402 284.422 342.727 283.427 342.727 283.036C342.727 281.609 346.294 279.667 348.972 279.636C350.483 279.618 351.72 279.182 351.72 278.666C351.72 277.333 355.85 277.732 358.188 279.29C360.759 281.005 364.166 280.964 365.628 279.202C366.267 278.431 367.896 277.523 369.247 277.183C370.598 276.844 371.704 275.915 371.704 275.12C371.704 272.362 375.285 271.834 391.688 272.174C409.482 272.543 412.739 271.946 414.54 267.989C415.992 264.801 415.965 263.077 414.42 260.46C413.445 258.806 413.437 258.246 414.387 257.901C415.056 257.658 417.193 256.38 419.136 255.06C422.134 253.024 423.478 252.744 428.025 253.207C432.733 253.687 433.444 253.519 433.888 251.822C434.329 250.132 435.19 249.922 440.768 250.144C444.276 250.284 447.369 250.498 447.644 250.62C447.919 250.741 448.427 250.805 448.774 250.762C449.121 250.719 450.202 251.566 451.177 252.644C453.629 255.355 458.028 255.18 459.916 252.296C460.902 250.79 461.121 249.44 460.546 248.412C459.941 247.331 460.288 246.042 461.648 244.312C462.739 242.924 463.631 240.6 463.631 239.147C463.631 237.694 464.379 235.065 465.292 233.304C466.206 231.544 466.992 228.946 467.04 227.53C467.089 226.114 468.206 223.383 469.523 221.459C471.691 218.294 473.63 217.006 478.869 215.252C479.892 214.91 480.618 213.662 480.618 212.244C480.618 209.458 483.266 208.378 490.765 208.106C493.583 208.004 496.071 207.28 497.081 206.271C497.997 205.354 499.051 204.567 499.424 204.523C499.797 204.478 501.451 204.242 503.1 203.998C504.748 203.754 507.334 203.548 508.845 203.539C510.356 203.531 511.593 203.002 511.593 202.364C511.593 201.506 511.906 201.517 512.792 202.404C514.816 204.43 515.59 203.761 515.59 199.987C515.59 196.759 515.831 196.423 517.838 196.859C519.074 197.127 520.935 197.701 521.971 198.135C523.367 198.718 523.731 198.557 523.377 197.513C522.836 195.925 526.152 192.604 528.278 192.604C529.322 192.604 529.509 191.746 529.026 189.174C528.5 186.362 528.761 185.507 530.48 184.433C533.446 182.58 533.324 181.546 529.266 174.104C526.095 168.288 523.581 162.416 523.984 161.764C524.209 161.401 528.419 161.141 533.34 161.186C540.625 161.253 542.824 161.645 545.176 163.295C552.212 168.235 558.208 169.868 561.054 167.619C561.603 167.185 563.995 166.509 566.369 166.117C568.743 165.725 570.937 164.749 571.245 163.947C571.551 163.145 572.437 162.732 573.211 163.03C573.985 163.327 574.875 162.903 575.187 162.087C575.5 161.271 576.152 160.604 576.635 160.604C578.593 160.604 585.461 154.985 585.496 153.354C585.524 152.08 586.359 151.604 588.564 151.604C590.23 151.604 593.208 150.929 595.18 150.104C599.499 148.298 605.888 148.189 613.627 149.789C621.338 151.383 622.634 150.382 621.168 143.968C620.114 139.361 620.124 139.333 623.804 136.378L627.498 133.412L624.084 131.094C622.207 129.819 619.059 128.011 617.091 127.076C613.897 125.559 612.983 124.492 613.762 123.185C613.9 122.954 613.069 121.716 611.918 120.435C610.628 118.998 609.804 116.691 609.771 114.42C609.741 112.393 609.228 110.143 608.632 109.42C601.427 100.681 601.098 99.0698 606.021 96.6038C608.56 95.3318 608.968 94.6098 608.703 91.8538C608.484 89.5878 607.876 88.6038 606.694 88.6038C604.738 88.6038 602.275 85.1288 601.909 81.8538C601.699 79.9778 602.142 79.6038 604.571 79.6038H607.485L605.416 75.3538C604.278 73.0158 602.712 69.9098 601.935 68.4498C601.158 66.9898 600.522 64.9418 600.522 63.8998C600.522 62.8568 600.031 61.5118 599.43 60.9108C598.641 60.1208 598.651 59.2338 599.467 57.7078C600.414 55.9368 600.192 55.1608 598.093 52.8938C595.868 50.4938 595.753 50.0108 597.056 48.5688C599.008 46.4108 598.91 44.8608 596.775 44.1818C595.814 43.8758 593.87 42.5518 592.456 41.2388C591.042 39.9248 588.911 38.5418 587.723 38.1648C586.534 37.7868 584.284 36.1988 582.721 34.6348C578.867 30.7778 573.747 29.4178 570.159 31.2988C568.329 32.2588 566.365 32.4858 564.237 31.9848C562.486 31.5728 560.284 31.3428 559.344 31.4758C556.814 31.8318 553.562 29.7808 553.545 27.8188C553.537 26.8758 552.939 24.4058 552.217 22.3308L550.904 18.5578L549.775 21.0368C548.268 24.3478 540.249 27.9978 534.907 27.8048C532.618 27.7218 528.892 26.9128 526.629 26.0058C522.831 24.4858 522.374 24.4838 520.722 25.9808C518.697 27.8148 516.456 28.0708 515.019 26.6328C514.391 26.0038 510.963 26.3888 505.309 27.7228C496.992 29.6848 496.198 29.7088 488.883 28.2158C481.254 26.6588 473.749 22.6368 467.742 16.8868C466.43 15.6308 464.752 14.6038 464.014 14.6038C463.274 14.6038 462.361 13.3708 461.982 11.8638C461.605 10.3568 460.669 8.49684 459.904 7.73084C459.135 6.96084 458.651 4.94384 458.824 3.22084C459.101 0.447843 458.839 0.0928425 456.451 0.00384254C454.975 -0.0511575 453.176 0.490842 452.454 1.20784ZM48.7882 470.354C47.9728 471.316 46.2802 473.904 45.0252 476.104C42.8269 479.961 42.8209 480.036 44.8543 478.199C46.0134 477.151 46.9626 475.749 46.9626 475.084C46.9626 474.418 47.8949 472.688 49.034 471.239C51.3302 468.317 51.1283 467.591 48.7882 470.354ZM0 588.486C0 589.036 0.449642 589.764 0.999205 590.104C1.54877 590.444 1.99841 590.272 1.99841 589.722C1.99841 589.172 1.54877 588.444 0.999205 588.104C0.449642 587.764 0 587.936 0 588.486Z" mask="url(#path-1-inside-1_610_31)"/>
</svg>
