<svg  viewBox="0 0 18 18" fill="none" xmlns="http://www.w3.org/2000/svg">
<path fill-rule="evenodd" clip-rule="evenodd" d="M9 1.63663C7.69803 1.63663 6.44938 2.15392 5.52875 3.0747C4.60812 3.99548 4.09091 5.24433 4.09091 6.54651V10.6381C4.09091 11.2176 3.93724 11.7813 3.65246 12.2747H14.3475C14.0628 11.7813 13.9091 11.2176 13.9091 10.6381V6.54651C13.9091 5.24433 13.3919 3.99548 12.4713 3.0747C11.5506 2.15392 10.302 1.63663 9 1.63663ZM17.1818 12.2747C16.7478 12.2747 16.3316 12.1023 16.0247 11.7953C15.7179 11.4884 15.5455 11.0721 15.5455 10.6381V6.54651C15.5455 4.81027 14.8558 3.14514 13.6283 1.91743C12.4008 0.689719 10.736 0 9 0C7.26404 0 5.59918 0.689719 4.37166 1.91743C3.14415 3.14514 2.45455 4.81027 2.45455 6.54651V10.6381C2.45455 11.0721 2.28214 11.4884 1.97527 11.7953C1.66839 12.1023 1.25217 12.2747 0.818182 12.2747C0.366312 12.2747 0 12.6411 0 13.093C0 13.545 0.366312 13.9113 0.818182 13.9113H17.1818C17.6337 13.9113 18 13.545 18 13.093C18 12.6411 17.6337 12.2747 17.1818 12.2747ZM7.17401 15.6584C7.56487 15.4317 8.06554 15.5647 8.29227 15.9557C8.3642 16.0797 8.46743 16.1826 8.59164 16.2542C8.71584 16.3257 8.85666 16.3634 9 16.3634C9.14334 16.3634 9.28416 16.3257 9.40837 16.2542C9.53257 16.1826 9.6358 16.0797 9.70773 15.9557C9.93446 15.5647 10.4351 15.4317 10.826 15.6584C11.2169 15.8852 11.3499 16.386 11.1232 16.7769C10.9074 17.1489 10.5977 17.4577 10.2251 17.6724C9.85248 17.887 9.43001 18 9 18C8.56999 18 8.14753 17.887 7.7749 17.6724C7.40228 17.4577 7.09259 17.1489 6.87682 16.7769C6.65008 16.386 6.78314 15.8852 7.17401 15.6584Z" fill="#5BAD6B"/>
</svg>
