<svg  viewBox="0 0 23 29"  xmlns="http://www.w3.org/2000/svg">
<path fill-rule="evenodd" clip-rule="evenodd" d="M20.3727 1.75081C20.4561 1.74278 20.5302 1.80392 20.5382 1.88716L21.4318 11.1667C21.9534 16.5852 17.8869 21.4269 12.45 21.9503C10.1103 22.1757 7.86924 21.5504 6.04811 20.3285C7.52429 17.0978 9.13479 15.2343 9.9606 14.592C10.2876 14.3377 10.3465 13.8665 10.0922 13.5396C9.83786 13.2126 9.36665 13.1537 9.03969 13.408C8.0258 14.1966 6.35843 16.1552 4.83871 19.3723C3.16498 17.8215 2.02927 15.6877 1.79532 13.258C1.28326 7.93998 5.17923 3.21377 10.4972 2.70171L20.3727 1.75081ZM4.20468 20.8139C2.06205 19.0031 0.591025 16.401 0.302227 13.4017C-0.289235 7.25914 4.21085 1.80008 10.3535 1.20861L20.2289 0.257722C21.1368 0.170285 21.9439 0.835397 22.0313 1.74352L22.9249 11.0229C23.5277 17.2843 18.837 22.8424 12.5937 23.4434C10.0009 23.6931 7.50962 23.0366 5.45256 21.7306C4.79413 23.4006 4.19141 25.368 3.73558 27.6471C3.65435 28.0533 3.25923 28.3167 2.85306 28.2355C2.44689 28.1542 2.18348 27.7591 2.26471 27.3529C2.76953 24.8288 3.45256 22.6531 4.20468 20.8139Z" />
</svg>
