<svg width="24" height="20" viewBox="0 0 24 20" fill="none" xmlns="http://www.w3.org/2000/svg">
<path d="M10.3803 14.0036C10.3705 15.5995 10.5413 17.317 10.9219 19.4572L10.7674 19.4787C10.5447 18.2251 10.3936 17.1154 10.3084 16.0897L10.2967 16.0751C9.57026 14.9014 8.92402 14.077 8.32687 13.4806C7.27562 14.2787 5.88248 14.6099 4.58454 14.3697C3.28348 14.129 2.09845 13.3179 1.40312 12.1921C0.468755 10.6795 0.453133 8.79058 0.527035 7.01415L0.549568 7.03018C1.76574 7.92316 3.47653 7.69307 4.92303 8.13391C5.14837 8.20259 5.36842 8.288 5.5813 8.38868L5.6303 8.41218C5.79319 8.49143 5.95173 8.57967 6.10505 8.67619C6.13572 8.69551 6.16617 8.71514 6.19641 8.73512C6.31738 8.81497 6.43489 8.9001 6.54853 8.99011C6.61954 9.04638 6.68904 9.10455 6.75691 9.16456C6.78405 9.18856 6.81096 9.21284 6.83757 9.23743C6.97067 9.36037 7.0971 9.49047 7.21598 9.62716C7.23976 9.6545 7.26321 9.68209 7.28639 9.70995C7.41377 9.86314 7.53184 10.0241 7.63939 10.1919C7.68828 10.2682 7.73472 10.3456 7.77874 10.424C7.79634 10.4554 7.81357 10.4869 7.83038 10.5186C7.84722 10.5503 7.86365 10.5821 7.87971 10.6141C7.99208 10.838 8.08541 11.0693 8.1599 11.306L8.17557 11.3568C8.19609 11.4246 8.21507 11.4929 8.23251 11.5615C8.23687 11.5787 8.24115 11.5959 8.2453 11.6131C8.33707 11.9917 8.38252 12.3816 8.38237 12.7751L8.38208 12.8288C8.38169 12.8641 8.38094 12.8994 8.37982 12.9348C8.37598 13.056 8.36784 13.1774 8.35543 13.2989C8.94559 13.8715 9.58128 14.6559 10.2831 15.7601C10.2284 14.9847 10.2124 14.2551 10.2323 13.544C10.2757 11.9934 10.4894 10.7113 10.8856 9.62464C10.8957 9.59692 10.9061 9.56935 10.9165 9.54184C10.8816 9.49836 10.8475 9.45443 10.8141 9.41001L10.7819 9.36663C10.7605 9.33761 10.7396 9.30841 10.7189 9.27902C10.6775 9.22025 10.6375 9.16074 10.5988 9.10049C10.5794 9.07037 10.5604 9.04008 10.5417 9.00961C10.5136 8.96392 10.4864 8.91782 10.4598 8.87136C10.4453 8.84589 10.4311 8.82027 10.417 8.79455C10.3883 8.74216 10.3605 8.68932 10.3338 8.63602C10.3179 8.60426 10.3022 8.57234 10.287 8.54025C10.2718 8.50817 10.2569 8.47596 10.2424 8.44357C10.2279 8.41119 10.2137 8.37868 10.1999 8.34602C10.1654 8.26436 10.1331 8.18184 10.1032 8.09849C10.0912 8.06515 10.0796 8.03168 10.0684 7.99811C10.0234 7.86376 9.9845 7.72739 9.95175 7.58934C9.93947 7.53757 9.92806 7.48556 9.91754 7.43332C9.91052 7.39849 9.90391 7.36357 9.89768 7.32856C9.89146 7.29355 9.8856 7.25843 9.88018 7.22323C9.87204 7.17045 9.8648 7.11743 9.85846 7.06424C9.85634 7.0465 9.85434 7.02875 9.85243 7.01098C9.84291 6.92213 9.83589 6.83276 9.83151 6.74294C9.83061 6.72498 9.82984 6.70699 9.82918 6.689C9.82784 6.65299 9.82692 6.61695 9.8264 6.58082C9.82591 6.5447 9.82581 6.50851 9.82616 6.47227C9.82874 6.20043 9.85465 5.92908 9.9026 5.66163C9.91859 5.57248 9.93703 5.48376 9.95787 5.39562C9.97038 5.34271 9.98374 5.29003 9.99795 5.23756C10.1923 4.5206 10.5462 3.84646 11.0331 3.28519C11.0642 3.24935 11.0958 3.21392 11.128 3.17887L11.1314 3.17527C12.1249 2.0958 13.6136 1.38358 14.1511 0.026282L14.1614 0C15.1682 1.4654 16.1591 3.07363 16.1717 4.85155C16.1811 6.1747 15.6085 7.49162 14.6345 8.38715C13.6772 9.2673 12.3468 9.72684 11.0505 9.62815L11.032 9.67801C10.6416 10.7487 10.431 12.0147 10.3881 13.5484C10.3855 13.6396 10.3836 13.7311 10.3822 13.8229C11.6103 13.1225 12.6046 12.7039 13.4453 12.4676C13.559 12.19 13.6955 11.9247 13.8534 11.6747C13.8825 11.6286 13.9123 11.5831 13.9428 11.538L13.9619 11.5102C13.973 11.494 13.9842 11.4779 13.9956 11.4619C14.0177 11.4305 14.0402 11.3995 14.063 11.3687C14.1309 11.2772 14.2019 11.1881 14.276 11.1017C14.2875 11.0882 14.2991 11.0749 14.3108 11.0616C14.3341 11.0349 14.3578 11.0086 14.3817 10.9825C14.3937 10.9694 14.4057 10.9564 14.4178 10.9435C14.4542 10.9047 14.4912 10.8666 14.5288 10.8291L14.5667 10.7918C14.592 10.767 14.6177 10.7426 14.6437 10.7184C14.6696 10.6942 14.6959 10.6703 14.7224 10.6467C14.9213 10.4697 15.1361 10.3089 15.3657 10.1667C15.427 10.1288 15.4893 10.0922 15.5526 10.057C15.7427 9.95128 15.9398 9.85871 16.1423 9.77955C16.176 9.76637 16.2099 9.75355 16.2439 9.7411C16.414 9.67887 16.5876 9.62602 16.7635 9.58268C16.7987 9.57402 16.834 9.56571 16.8693 9.55781L16.9225 9.54625C16.9431 9.54188 16.9637 9.53767 16.9844 9.53355C17.0526 9.51997 17.121 9.50777 17.1897 9.49703C17.2255 9.49143 17.2614 9.48621 17.2973 9.48139C17.3172 9.47873 17.337 9.47619 17.3569 9.47376C17.391 9.46959 17.4251 9.46577 17.4593 9.4623C17.4787 9.46033 17.4982 9.45849 17.5176 9.45675C17.5884 9.45039 17.6593 9.44553 17.7303 9.44219C17.7665 9.4405 17.8027 9.43919 17.8389 9.43828C17.8751 9.43738 17.9113 9.43684 17.9476 9.43671C18.0744 9.43629 18.2012 9.44072 18.3277 9.45004C18.3457 9.45136 18.3638 9.45281 18.3818 9.45434C18.5623 9.46967 18.7419 9.49501 18.9197 9.53057C18.9545 9.53754 18.9893 9.54493 19.0241 9.55267L19.0342 9.55494L19.0591 9.56059L19.0661 9.56222L19.0938 9.56867L19.1008 9.57036C20.5167 9.90789 21.8608 10.832 23.2939 10.6299L23.3218 10.6259C22.5457 12.2255 21.6375 13.8819 20.0983 14.7718C18.9528 15.434 17.5249 15.5873 16.265 15.1833C15.0139 14.7821 13.9477 13.8377 13.3975 12.6448C12.5687 12.887 11.5885 13.3083 10.3803 14.0036Z" fill="#1E6F5C"/>
</svg>
