<svg width="20" height="17" viewBox="0 0 20 17" fill="none" xmlns="http://www.w3.org/2000/svg">
<path d="M19.5922 0C19.2861 0.754939 17.8685 2.36291 12.6051 4.56202C7.34164 6.76114 9.32957 13.5799 9.32957 13.5799C8.75201 14.424 7.75993 15.1902 7.03847 15.6706C7.03633 15.6634 7.03417 15.6561 7.032 15.6488C7.08978 15.5443 7.15236 15.4334 7.2166 15.3195L7.21674 15.3193C7.5665 14.6995 7.96532 13.9927 7.90595 13.747C7.94063 13.8905 7.93317 14.2782 7.62588 14.6805C7.85489 14.6812 8.3282 14.5427 8.38942 13.9826C8.40658 13.731 8.3548 13.1025 8.01041 12.6019C8.00885 12.7046 7.91559 12.9581 7.39743 13.4564C6.87928 13.9546 7.42363 14.6651 7.42363 14.6651C7.3907 14.8058 7.15354 15.276 7.00467 15.5566C6.96975 15.4383 6.93201 15.3087 6.89147 15.1695C6.33722 13.2663 5.26182 9.5737 3.7758 8.47705C5.52764 9.44041 6.06617 10.0056 6.91024 12.7141C9.65485 10.6948 7.23185 7.55623 5.67727 6.23934C5.07127 5.76874 3.08742 4.68489 0 4.11433C0.311992 4.50301 1.1001 6.30379 1.75657 10.3974C1.94719 11.4846 2.93279 14.2348 5.87576 13.8145C6.35154 14.7174 6.62374 15.3659 6.77013 15.8444C6.5836 15.9617 6.42782 16.0523 6.31986 16.1111L6.46104 16.6795C7.72917 15.6062 9.02207 14.6407 10.22 13.7462C13.0157 11.6587 15.2941 9.95739 15.5331 8.17136C15.3776 9.33286 14.2098 12.1795 10.7817 14.2741C12.4738 14.9367 16.3731 15.2701 18.4334 11.3025C19.2826 9.48992 20.7033 4.69182 19.5922 0Z" fill="#1E6F5C"/>
</svg>
