<svg width="750" height="500" viewBox="0 0 750 500" fill="none" xmlns="http://www.w3.org/2000/svg">
<g opacity="0.05">
<mask id="mask0_634_127" style="mask-type:luminance" maskUnits="userSpaceOnUse" x="0" y="0" width="750" height="500">
<path d="M750 0H0V500H750V0Z" fill="white"/>
</mask>
<g mask="url(#mask0_634_127)">
<path d="M356.826 -9.96997C345.68 -13.673 337.21 -5.30197 328.388 -0.331974C320.107 4.33303 311.43 6.25003 307.723 16.348C306.216 20.453 305.867 25.013 303.631 28.771C301.981 31.544 299.434 33.649 296.938 35.695C290.801 40.726 284.664 45.757 278.527 50.789C274.534 54.063 270.446 57.448 267.942 61.964C265.438 66.48 264.855 72.452 267.886 76.633C273.171 83.923 284.515 81.417 293.017 84.382C304.104 88.249 309.54 101.305 320.129 106.38C319.411 112.043 319.391 119.155 324.434 121.831C328.909 124.205 334.199 121.345 338.877 119.4C344.306 117.143 350.575 116.143 356.043 118.304C361.511 120.465 365.685 126.464 364.353 132.191C363.287 136.772 359.056 141.065 360.736 145.458C361.472 147.383 363.214 148.725 364.333 150.458C370.954 160.72 355.332 175.643 370.406 181.142C381.695 185.26 395.386 181.543 404.724 191.704C413.801 201.581 409.311 218.652 401.63 228.042C393.853 237.55 379.613 232.022 372.628 243.097C371.421 245.011 370.679 247.188 369.473 249.102C365.243 255.82 356.449 257.911 350.529 263.199C342.232 270.609 340.695 283.115 333.741 291.797C329.243 297.413 322.798 301.043 317.098 305.432C311.398 309.82 306.054 315.682 305.461 322.851C304.977 328.7 307.96 334.154 307.772 339.914C307.559 346.432 305.241 351.276 306.137 358.184C306.416 360.336 306.873 362.591 308.314 364.214C310.158 366.291 313.126 366.835 315.649 367.998C326.16 372.845 328.6 388.231 339.27 392.716C344.995 395.122 352.349 393.967 356.767 398.33C360.472 401.99 360.326 408.283 357.797 412.835C355.267 417.387 350.894 420.575 346.584 423.5C322.334 439.957 295.682 452.869 267.737 461.699C265.923 462.272 263.937 462.825 262.162 462.141C258.935 460.898 258.437 456.655 256.789 453.614C253.986 448.439 247.333 446.605 241.46 446.977C235.587 447.349 229.914 449.382 224.041 449.756C203.692 451.049 188.082 433.278 172.23 420.453C159.102 409.831 143.829 401.871 127.603 397.193C124.261 396.229 120.613 395.231 118.535 392.441C115.653 388.574 117.035 383.172 116.733 378.359C116.227 370.308 110.041 362.94 102.2 361.048C98.1365 360.068 93.8864 360.448 89.7114 360.235C71.9294 359.326 52.6615 348.014 37.7175 357.695C33.8905 360.174 30.6255 363.962 26.1245 364.688C22.7065 365.239 19.3025 363.877 16.1085 362.542C1.59345 356.476 -12.9205 350.41 -27.4355 344.345" stroke="#1A674E" stroke-width="3" stroke-miterlimit="10"/>
<path d="M767.071 281.831C756.992 282.521 748.184 275.634 738.73 272.07C727.449 267.816 715.035 268.308 703.03 267.2C673.247 264.453 644.676 251.599 614.772 252.19C590.973 252.66 568.09 261.691 547.303 273.29C537.177 278.94 527.22 285.389 519.941 294.416C508.773 308.265 505.077 327.801 510.415 344.772C515.753 361.744 529.966 375.646 547.051 380.609C564.128 385.569 582.382 381.908 600.149 382.648C617.916 383.388 638.032 391.078 643.058 408.135C643.993 411.307 644.359 414.693 645.935 417.6C648.48 422.294 653.642 424.844 658.528 426.998C668.246 431.282 678.803 435.231 689.252 433.331C699.04 431.551 707.151 424.925 716.234 420.866C733.942 412.952 755.919 415.613 771.226 427.526" stroke="#1A674E" stroke-width="3" stroke-miterlimit="10"/>
<path d="M600.3 -12.255C591.46 -2.879 582.057 6.22999 575.751 17.467C569.444 28.704 566.607 42.735 571.774 54.54C576.94 66.342 589.726 76.155 587.506 88.845C586.79 92.941 584.491 96.639 583.847 100.746C582.716 107.959 587.019 115.167 592.886 119.514C598.753 123.86 605.972 125.892 613.037 127.734C624.075 130.611 635.599 133.247 646.793 131.052C657.986 128.857 668.774 120.518 670.182 109.199C670.84 103.906 669.437 98.565 669.624 93.235C669.811 87.905 672.364 81.931 677.527 80.595C681.809 79.487 686.689 81.904 690.625 79.886C696.365 76.943 694.655 68.28 697.401 62.443C700.961 54.878 711.587 53.637 719.432 56.528C727.277 59.419 733.799 65.161 741.581 68.217C751.361 72.058 762.86 71.229 771.987 66.024" stroke="#1A674E" stroke-width="3" stroke-miterlimit="10"/>
<path d="M759.602 297.567C742.542 290.068 723.752 287.668 705.262 285.349C690.993 283.559 676.724 281.769 662.456 279.979C645.332 277.831 628.034 275.68 610.862 277.406C593.483 279.153 576.522 284.922 561.682 294.133C552.721 299.695 544.311 306.765 539.525 316.164C534.739 325.562 534.207 337.633 540.264 346.267C543.854 351.385 549.362 354.87 555.117 357.312C569.449 363.395 585.455 363.648 600.894 365.653C616.334 367.659 632.62 372.157 642.585 384.12C648.192 390.851 651.37 399.493 657.729 405.518C671.25 418.33 693.03 414.656 710.727 408.844C728.424 403.031 748.226 395.999 764.882 404.339" stroke="#1A674E" stroke-miterlimit="10"/>
<path d="M684.712 325.944C680.525 326.098 676.186 326.762 672.729 329.13C669.272 331.497 666.961 335.947 668.178 339.957C669.418 344.046 673.768 346.403 677.958 347.243C682.147 348.083 686.518 347.852 690.65 348.941C698.512 351.014 705.053 357.726 713.184 357.713C727.353 357.691 730.525 340.023 720.043 332.381C712.157 326.632 693.788 325.611 684.712 325.944Z" stroke="#1A674E" stroke-miterlimit="10"/>
<path d="M704.947 310.667C690.429 306.361 677.082 305.273 662.229 308.588C647.347 311.91 632.334 327.024 641.429 342.853C647.779 353.905 660.422 356.849 671.562 360.804C680.417 363.948 686.744 369.944 694.999 373.859C707.094 379.595 722.015 377.65 733.552 371.475C743.105 366.362 755.126 353.575 751.607 341.699C748.338 330.665 734.472 322.617 724.822 318.036C718.43 315.002 711.722 312.676 704.947 310.667Z" stroke="#1A674E" stroke-miterlimit="10"/>
<path d="M762.439 320.138C740.624 310.18 718.403 300.751 695.047 295.315C671.691 289.879 646.985 288.572 623.838 294.84C614.876 297.267 605.997 300.948 599.283 307.362C592.569 313.776 588.336 323.322 590.097 332.439C591.848 341.505 599.098 348.651 607.198 353.084C615.298 357.517 624.371 359.78 633.051 362.931C641.731 366.082 650.403 370.412 655.979 377.773C658.044 380.499 659.634 383.58 661.892 386.148C667.924 393.005 677.888 395.162 686.982 394.317C696.076 393.473 704.706 390.091 713.477 387.545C730.955 382.472 749.378 380.679 767.506 382.285" stroke="#1A674E" stroke-miterlimit="10"/>
<path d="M606.772 -6.11597C597.914 -0.0859666 590.163 8.00203 586.164 17.944C582.164 27.885 582.339 39.808 588.136 48.82C591.467 53.999 596.444 58.03 599.35 63.459C603.042 70.355 602.942 78.603 602.355 86.403C602.013 90.944 601.589 95.764 603.662 99.818C605.654 103.713 609.607 106.184 613.544 108.089C619.199 110.825 625.447 112.827 631.692 112.151C639.072 111.352 645.901 106.579 649.188 99.924C651.668 94.902 652.156 89.169 653.533 83.739C654.909 78.31 657.607 72.688 662.678 70.31C665.751 68.869 669.327 68.808 672.41 67.39C682.527 62.739 681.974 47.168 690.704 40.256C696.592 35.594 705.161 36.227 712.191 38.868C719.221 41.509 725.535 45.864 732.663 48.226C744.328 52.091 757.783 50.067 767.794 42.94" stroke="#1A674E" stroke-miterlimit="10"/>
<path d="M630.272 -6.095C624.593 -3.129 619.355 0.678002 614.78 5.162C608.089 11.721 602.586 21.069 605.048 30.109C607.011 37.315 613.584 42.538 615.675 49.708C616.792 53.537 616.536 57.626 617.222 61.555C617.907 65.484 619.947 69.624 623.722 70.91C625.242 71.428 626.912 71.422 628.475 71.054C636.116 69.254 639.271 60.269 645.027 54.931C649.903 50.408 656.673 48.575 662.154 44.807C670.365 39.163 675.123 29.405 676.38 19.521C677.636 9.637 675.728 -0.403997 672.782 -9.922" stroke="#1A674E" stroke-miterlimit="10"/>
<path d="M690.24 -6.47498C690.194 8.05602 699.303 22.219 712.543 28.206C720.177 31.658 728.705 32.485 737.064 33.051C746.11 33.664 755.748 33.893 763.586 29.335" stroke="#1A674E" stroke-miterlimit="10"/>
<path d="M711.658 -7.87799C711.327 -2.03099 715.661 3.11801 720.559 6.32801C727.355 10.782 735.572 12.754 743.696 12.928C751.82 13.102 759.893 11.56 767.738 9.44001" stroke="#1A674E" stroke-miterlimit="10"/>
<path d="M644.434 -5.79996C644.509 -0.485961 639.955 3.56504 637.388 8.21804C635.71 11.259 634.857 14.682 634.227 18.098C633.361 22.792 633.276 28.52 637.137 31.326C639.738 33.216 643.44 33.03 646.29 31.541C649.139 30.052 651.261 27.468 652.987 24.756C659.786 14.074 661.4 0.25104 657.245 -11.71" stroke="#1A674E" stroke-miterlimit="10"/>
<path d="M-13.6191 107.091C-9.85414 112.606 -4.44514 116.776 1.10486 120.488C19.3689 132.704 40.5109 141.054 62.4339 142.533C84.3569 144.012 107.04 138.29 124.482 124.926C132.702 118.628 139.722 110.731 148.617 105.429C162.737 97.013 179.869 96.046 196.03 93.042C212.192 90.038 229.48 83.551 237.104 68.988C240.458 62.583 241.665 55.038 246.108 49.335C252.417 41.238 263.683 38.755 271.129 31.689C278.091 25.083 280.914 15.301 286.29 7.34998C292.567 -1.93402 302.539 -8.64402 313.504 -10.96" stroke="#1A674E" stroke-miterlimit="10"/>
<path d="M-13.7129 94.724C-10.4139 99.503 -5.73189 103.149 -0.920891 106.403C14.9071 117.108 33.2451 124.462 52.2821 125.934C71.3191 127.406 90.9501 122.603 106.371 111.493C108.881 109.685 111.313 107.749 113.67 105.69C118.335 101.615 122.629 97.253 127.649 93.86C129.656 92.51 131.738 91.336 133.9 90.314C143.003 85.992 153.552 84.415 163.881 82.742C165.77 82.436 167.652 82.125 169.523 81.79C177.814 80.302 186.42 77.944 193.644 73.793C199.077 70.667 203.712 66.519 206.822 61.065C210.013 55.478 211.373 48.873 215.37 43.754C221.046 36.487 230.734 33.803 237.07 27.264C239.608 24.646 241.487 21.537 243.141 18.269C245.347 13.916 247.165 9.27003 249.683 5.12603C254.824 -3.36497 263.069 -9.70197 272.612 -12.246" stroke="#1A674E" stroke-miterlimit="10"/>
<path d="M-13.8066 82.356C-10.9726 86.399 -7.01764 89.522 -2.94764 92.316C10.4444 101.51 25.9784 107.867 42.1294 109.332C58.2794 110.797 74.8814 106.929 88.2584 98.056C90.5214 96.555 92.7564 94.978 94.8644 93.176C99.0404 89.608 102.539 85.541 106.678 82.285C108.325 80.99 110.045 79.846 111.856 78.838C119.491 74.55 128.856 72.848 138.009 71.358C139.683 71.086 141.353 70.816 143.013 70.532C150.379 69.27 158.009 67.398 164.51 63.925C169.385 61.313 173.595 57.785 176.537 53.136C179.565 48.368 181.077 42.702 184.629 38.168C189.672 31.731 197.782 28.845 203.008 22.835C205.101 20.431 206.635 17.627 207.953 14.693C209.711 10.792 211.108 6.64299 213.072 2.89699C217.078 -4.80101 223.596 -10.766 231.716 -13.536" stroke="#1A674E" stroke-miterlimit="10"/>
<path d="M-13.9023 69.989C-11.5333 73.296 -8.30534 75.896 -4.97634 78.23C5.97966 85.913 18.7097 91.273 31.9747 92.732C45.2387 94.191 58.8427 91.285 70.1437 84.622C72.1637 83.431 74.1987 82.21 76.0567 80.666C79.7427 77.605 82.4517 73.84 85.7067 70.714C86.9947 69.477 88.3537 68.364 89.8107 67.365C95.9907 63.129 104.16 61.283 112.136 59.977C113.595 59.738 115.052 59.511 116.502 59.277C122.944 58.241 129.597 56.855 135.375 54.06C139.693 51.962 143.476 49.053 146.251 45.209C149.116 41.26 150.781 36.533 153.887 32.584C158.297 26.978 164.828 23.89 168.945 18.407C170.593 16.216 171.782 13.716 172.765 11.118C174.076 7.66903 175.059 4.02003 176.461 0.670026C179.347 -6.22897 184.122 -11.828 190.82 -14.824" stroke="#1A674E" stroke-miterlimit="10"/>
<path d="M-13.998 57.621C-12.094 60.191 -9.59305 62.268 -7.00405 64.144C1.51595 70.316 11.442 74.679 21.821 76.132C32.199 77.584 42.852 75.689 52.031 71.187C53.816 70.312 55.642 69.441 57.251 68.155C60.448 65.601 62.367 62.142 64.737 59.142C65.668 57.964 66.663 56.877 67.767 55.892C72.482 51.689 79.464 49.719 86.264 48.596C87.507 48.391 88.752 48.205 89.992 48.022C95.509 47.211 101.187 46.311 106.24 44.196C110 42.612 113.357 40.323 115.965 37.283C118.667 34.152 120.485 30.365 123.145 27.001C126.922 22.225 131.875 18.936 134.882 13.98C136.085 12.002 136.929 9.80798 137.576 7.54398C138.439 4.54698 139.003 1.39398 139.849 -1.55602C141.601 -7.66402 144.648 -12.888 149.923 -16.111" stroke="#1A674E" stroke-miterlimit="10"/>
<path d="M-14.0918 45.254C-12.6528 47.088 -10.8798 48.641 -9.0308 50.058C-2.9478 54.72 4.1752 58.085 11.6672 59.531C19.1582 60.977 26.9192 60.188 33.9172 57.752C35.4772 57.209 37.0852 56.672 38.4442 55.644C41.1522 53.597 42.2862 50.447 43.7662 47.571C44.3412 46.454 44.9692 45.389 45.7222 44.42C48.9672 40.245 54.7682 38.156 60.3922 37.216C61.4202 37.044 62.4522 36.9 63.4832 36.768C68.0762 36.182 72.7772 35.769 77.1072 34.332C80.3102 33.262 83.2402 31.592 85.6812 29.358C88.2192 27.046 90.1902 24.198 92.4052 21.419C95.5492 17.473 98.9242 13.983 100.821 9.55503C101.579 7.79003 102.078 5.90103 102.389 3.97103C102.805 1.42603 102.945 -1.23197 103.239 -3.78097C103.852 -9.09897 105.176 -13.948 109.028 -17.397" stroke="#1A674E" stroke-miterlimit="10"/>
<path d="M-14.1875 32.887C-6.8075 41.209 4.7575 45.617 15.8045 44.318C17.1465 44.16 18.5285 43.904 19.6385 43.134C22.7075 41.004 22.2175 36.385 23.6785 32.947C25.4425 28.795 30.0725 26.591 34.5205 25.835C38.9675 25.079 43.5595 25.397 47.9735 24.468C58.8655 22.176 67.3735 11.526 67.2025 0.397001C67.1035 -6.102 64.5495 -13.263 68.1335 -18.685" stroke="#1A674E" stroke-miterlimit="10"/>
<path d="M-32.0368 306.914C-22.4358 319.165 -11.1928 332.38 4.2642 334.21C16.9142 335.708 29.1822 329.033 41.9182 328.766C54.1542 328.51 65.7122 334.15 77.8242 335.904C94.7332 338.351 112.174 332.968 126.347 323.428C150.663 307.061 165.969 278.094 165.79 248.783C165.726 238.351 163.845 227.806 165.823 217.564C167.306 209.886 170.886 202.797 173.36 195.379C177.991 181.495 178.68 166.32 175.327 152.074C174.394 148.109 173.076 144.075 170.311 141.084C165.25 135.609 156.546 135.074 149.479 137.452C142.412 139.83 136.429 144.553 130.133 148.546C104.758 164.64 73.5492 169.091 43.5182 168.054C34.1952 167.732 24.7752 166.897 15.9582 163.852C4.0752 159.747 -6.0688 151.871 -15.9728 144.128C-20.2448 140.788 -25.5668 139.54 -30.8938 140.556C-36.2208 141.572 -40.9328 144.649 -45.0898 148.132C-61.2728 161.694 -70.9558 182.691 -70.7648 203.804C-70.6868 212.473 -69.0398 221.053 -67.0078 229.481C-60.5168 256.413 -49.1248 285.109 -32.0368 306.914Z" stroke="#1A674E" stroke-miterlimit="10"/>
<path d="M25.3889 179.848C15.8129 176.958 7.31289 171.368 -0.976112 165.719C-4.52811 163.298 -8.85611 162.421 -13.1951 163.258C-17.5441 164.098 -21.4311 166.488 -24.8931 169.194C-38.4981 179.763 -47.0791 196.102 -47.5561 213.168C-47.7301 220.133 -46.6301 227.121 -45.1131 234.109C-39.6491 255.205 -30.8411 277.823 -17.3551 295.019C-9.72411 304.748 -0.698114 315.061 11.5489 316.656C21.5729 317.961 31.3489 313.017 41.4619 312.736C51.4559 312.425 60.8379 316.277 70.6039 317.125C84.2079 318.328 98.1529 313.497 109.767 305.812C129.03 292.984 141.714 270.967 142.396 248.152C142.634 240.037 141.445 231.842 143.093 223.882C144.358 217.865 147.146 212.297 149.061 206.491C152.666 195.538 153.099 183.66 150.347 172.539C149.581 169.445 148.516 166.304 146.354 163.95C142.404 159.649 135.69 159.069 130.179 160.692C124.679 162.323 119.97 165.729 115.009 168.605C95.0789 180.227 70.5459 183.369 46.9959 182.746C39.6779 182.553 32.3189 181.939 25.3889 179.848Z" stroke="#1A674E" stroke-miterlimit="10"/>
<path d="M34.8179 195.845C27.5299 194.18 20.7029 190.864 14.0199 187.31C11.1919 185.806 7.85389 185.302 4.50289 185.961C1.13089 186.625 -1.92411 188.338 -4.69811 190.257C-15.7001 197.87 -23.2481 209.511 -24.3491 222.533C-24.7941 227.792 -24.2221 233.19 -23.2191 238.739C-18.7841 253.998 -12.5591 270.539 -2.67511 283.126C2.98589 290.333 9.79489 297.745 18.8319 299.104C26.2289 300.217 33.5159 297.031 41.0039 296.707C48.7579 296.371 55.9619 298.405 63.3809 298.348C73.6809 298.308 84.1499 294.059 93.1849 288.197C107.428 278.956 117.457 263.841 119.001 247.521C119.541 241.722 119.022 235.872 120.362 230.201C121.392 225.841 123.406 221.798 124.762 217.603C127.342 209.582 127.518 201 125.366 193.006C124.768 190.783 123.954 188.534 122.396 186.817C119.557 183.691 114.831 183.055 110.878 183.932C106.943 184.805 103.504 186.892 99.8849 188.663C85.3769 195.764 67.5429 197.647 50.4729 197.436C45.1599 197.373 39.8489 196.994 34.8179 195.845Z" stroke="#1A674E" stroke-miterlimit="10"/>
<path d="M44.2478 211.842C39.2098 211.439 34.1138 210.345 29.0168 208.902C26.9218 208.309 24.5648 208.184 22.2008 208.664C19.8068 209.152 17.5768 210.179 15.4978 211.32C7.07084 215.946 0.624844 222.918 -1.14116 231.898C-1.84016 235.45 -1.81216 239.258 -1.32416 243.368C2.08284 252.791 5.72384 263.255 12.0058 271.231C15.6978 275.916 20.2888 280.426 26.1158 281.55C30.8858 282.471 35.6828 281.016 40.5458 280.676C46.0588 280.29 51.0838 280.516 56.1588 279.568C63.1508 278.263 70.1308 274.593 76.6038 270.58C85.7948 264.882 93.2009 256.713 95.6059 246.889C96.4489 243.406 96.6168 239.904 97.6308 236.518C98.4398 233.817 99.6648 231.297 100.462 228.714C102.016 223.624 101.936 218.34 100.385 213.47C99.9548 212.117 99.3929 210.762 98.4389 209.682C96.7109 207.73 93.9769 207.046 91.5779 207.171C89.2109 207.294 87.0448 208.062 84.7618 208.721C75.7038 211.333 64.5398 211.925 53.9508 212.126C50.6418 212.193 47.3538 212.09 44.2478 211.842Z" stroke="#1A674E" stroke-miterlimit="10"/>
<path d="M20.5703 247.998C22.9493 251.585 24.0063 255.971 26.6863 259.338C29.8183 263.274 35.1113 265.37 40.0893 264.647C47.7833 263.529 53.1783 256.653 60.0233 252.965C64.1293 250.753 68.9453 249.587 72.2113 246.258C85.0813 233.139 65.3523 223.003 53.6763 227.838C42.2683 232.563 20.7383 230.749 20.5703 247.998Z" stroke="#1A674E" stroke-miterlimit="10"/>
<path d="M293.326 113.355C298.539 119.41 301.578 127.033 306.339 133.449C311.1 139.865 318.724 145.296 326.564 143.757C328.741 143.33 330.886 142.376 333.088 142.649C336.868 143.117 339.269 146.955 340.394 150.594C343.179 159.602 341.559 169.308 342.128 178.719C342.697 188.13 346.664 198.654 355.587 201.7C359.484 203.031 364.049 202.817 367.266 205.388C373.157 210.097 369.891 219.839 364.626 225.239C357.143 232.913 346.935 237.312 338.738 244.219C327.227 253.92 320.309 267.992 309.839 278.809C297.905 291.138 281.332 298.866 264.216 300.082C247.1 301.298 229.601 295.99 216.045 285.471C207.38 278.748 200.413 270.107 193.899 261.284C191.575 258.136 189.235 254.811 188.549 250.959C187.944 247.56 188.69 244.078 189.513 240.725C192.002 230.588 195.232 220.633 199.169 210.966C201.403 205.481 203.894 199.979 204.508 194.088C205.148 187.951 203.709 181.815 202.494 175.766C199.164 159.184 197.807 140.709 207.062 126.553C223.012 102.158 272.18 88.793 293.326 113.355Z" stroke="#1A674E" stroke-miterlimit="10"/>
<path d="M225.927 148.462C236.566 129.704 271.663 119.663 288.116 136.139C292.148 140.177 294.71 145.338 298.402 149.734C302.127 154.137 307.727 157.928 313.408 157.147C314.995 156.929 316.56 156.346 318.147 156.632C321.087 157.162 323.04 160.098 324.092 162.905C326.235 168.62 326.144 174.85 326.175 181.06C326.183 182.422 326.201 183.76 326.244 185.074C326.497 192.859 328.185 200.437 333.116 203.129C335.297 204.319 337.771 204.598 339.658 206.586C343.101 210.214 341.007 216.681 337.342 220.544C332.131 226.037 325.158 229.383 319.555 234.413C315.844 237.743 312.826 241.725 309.924 245.819C306.671 250.41 303.558 255.15 299.772 259.279C291.605 268.184 280.275 273.887 268.423 275.354C256.331 276.851 243.477 273.888 233.532 266.365C227.043 261.482 222.074 254.85 217.701 248.152C216.141 245.776 214.598 243.284 214.171 240.441C213.794 237.932 214.328 235.369 214.913 232.892C215.622 229.891 216.411 226.91 217.262 223.952C218.535 219.525 219.944 215.153 221.498 210.851C222.968 206.778 224.587 202.695 224.94 198.353C225.308 193.83 224.276 189.307 223.389 184.842C220.956 172.599 219.874 159.133 225.927 148.462Z" stroke="#1A674E" stroke-miterlimit="10"/>
<path d="M244.794 170.372C250.086 157.198 271.116 150.538 282.908 158.923C285.752 160.945 287.832 163.656 290.467 166.018C293.146 168.421 296.736 170.564 300.254 170.535C301.252 170.527 302.236 170.33 303.207 170.613C305.311 171.225 306.812 173.24 307.791 175.213C309.787 179.233 310.293 183.812 310.356 188.431C310.371 189.471 310.373 190.469 310.361 191.428C310.281 197.589 309.63 202.154 310.646 204.556C311.079 205.58 311.808 206.101 312.051 207.781C313.577 209.785 312.124 213.521 310.059 215.846C307.12 219.157 303.383 221.451 300.373 224.603C298.38 226.687 296.751 229.105 295.187 231.573C293.431 234.347 291.747 237.202 289.707 239.744C285.308 245.224 279.203 248.943 272.631 250.622C265.54 252.433 257.367 251.762 251.019 247.254C246.716 244.198 243.75 239.581 241.503 235.014C240.713 233.408 239.962 231.751 239.793 229.917C239.644 228.299 239.965 226.655 240.314 225.052C240.735 223.112 241.198 221.181 241.666 219.261C242.367 216.386 243.081 213.539 243.827 210.729C244.534 208.069 245.279 205.404 245.372 202.61C245.469 199.7 244.843 196.79 244.283 193.909C242.75 186.014 241.919 177.527 244.794 170.372Z" stroke="#1A674E" stroke-miterlimit="10"/>
<path d="M263.658 192.281C263.982 199.768 266.794 207.116 266.067 214.574C265.829 217.014 265.213 219.43 265.303 221.88C265.393 224.33 266.367 226.944 268.504 228.146C271.227 229.678 274.836 228.291 276.836 225.892C278.836 223.492 279.634 220.345 280.447 217.329C281.26 214.313 282.225 211.178 284.442 208.978C289.354 204.104 294.794 204.007 294.536 195.804C294.394 191.292 292.01 187.002 288.265 184.597C280.453 179.58 263.146 180.442 263.658 192.281Z" stroke="#1A674E" stroke-miterlimit="10"/>
<path d="M166.068 319.588C160.009 328.091 154.648 337.091 150.055 346.468C148.255 350.142 146.54 354.017 146.512 358.108C146.446 367.7 155.219 374.689 163.129 380.115C176.516 389.299 189.904 398.483 203.291 407.667C210.354 412.512 217.798 417.505 226.311 418.458C235.095 419.441 244.524 416.053 252.554 419.746C255.954 421.31 258.705 424.006 261.973 425.831C273.267 432.137 287.444 426.744 298.417 419.896C302.956 417.064 307.811 413.164 307.911 407.815C308.019 402.026 302.43 397.771 297.003 395.753C291.576 393.735 285.5 392.77 281.171 388.925C272.977 381.648 275.163 368.673 273.514 357.839C271.386 343.861 261.81 331.898 250.266 323.734C238.293 315.266 221.254 305.405 207.354 300.441C190.484 294.418 175.317 306.608 166.068 319.588Z" stroke="#1A674E" stroke-miterlimit="10"/>
<path d="M182.372 338.438C179.525 343.435 176.721 348.451 174.691 353.691C173.895 355.744 173.108 357.888 173.317 360.11C173.843 365.72 179.513 369.432 184.5 372.423C192.889 377.471 201.215 382.752 209.42 388.238C213.749 391.132 218.225 394.203 223.212 395.215C228.178 396.222 233.467 394.992 238.158 397.161C240.155 398.084 241.843 399.532 243.796 400.506C250.546 403.87 258.83 400.924 265.276 396.897C268.25 395.037 271.191 392.55 271.624 389.28C272.1 385.682 269.546 382.76 266.871 380.942C264.208 379.132 261.052 377.833 258.635 375.109C254.11 370.009 254.36 362.122 252.456 355.616C251.153 351.165 248.686 347.165 245.591 343.81C242.802 340.786 239.34 338.108 235.565 335.933C227.389 331.208 216.293 326.131 207.239 324.116C196.479 321.719 187.532 329.38 182.372 338.438Z" stroke="#1A674E" stroke-miterlimit="10"/>
<path d="M198.676 357.288C198.59 359.008 198.974 360.828 200.122 362.112C201.547 363.707 203.806 364.175 205.872 364.73C211.053 366.122 215.938 368.605 220.116 371.971C221.283 372.911 222.413 373.93 223.766 374.574C226.404 375.83 229.665 375.451 232.138 373.896C241.735 367.859 234.696 353.262 226.351 349.82C217.862 346.317 199.331 344.263 198.676 357.288Z" stroke="#1A674E" stroke-miterlimit="10"/>
<path d="M-12.1543 372.077C-1.6623 385.322 18.3767 384.811 35.0067 381.819C51.6367 378.826 70.2837 374.958 84.2477 384.472C95.0047 391.801 99.9007 405.292 109.724 413.833C120.051 422.811 134.464 425.245 146.292 432.126C165.433 443.262 179.231 466.466 201.368 467.022C207.681 467.181 213.952 465.338 220.248 465.831C230.282 466.617 238.822 473.115 248.176 476.829C269.037 485.113 292.958 479.087 313.062 469.103C333.166 459.119 351.325 445.317 372.118 436.861C392.911 428.405 418.183 426.119 436.683 438.831C466.647 459.422 463.683 505.956 487.225 533.66" stroke="#1A674E" stroke-miterlimit="10"/>
<path d="M276.369 509.761C297.769 495.232 319.906 481.788 342.665 469.497C355.82 462.393 369.463 455.58 384.231 453.246C398.999 450.912 415.261 453.666 426.288 463.763C434.927 471.673 439.415 483.015 443.628 493.944C445.791 499.556 447.955 505.167 450.118 510.779" stroke="#1A674E" stroke-miterlimit="10"/>
<path d="M317.789 510.832C327.11 504.073 336.431 497.315 345.753 490.557C352.9 485.375 360.14 480.141 368.334 476.855C376.528 473.569 385.907 472.382 394.18 475.463C407.751 480.517 414.808 495.118 420.545 508.414" stroke="#1A674E" stroke-miterlimit="10"/>
<path d="M-14.8691 400.744C-1.76014 406.676 13.4379 403.527 27.5559 400.752C41.6749 397.976 57.3679 395.947 69.5539 403.597C73.8009 406.262 77.2969 409.937 80.9329 413.389C88.4439 420.519 96.6979 426.814 104.934 433.093C110.094 437.027 115.311 440.995 121.225 443.665C124.855 445.304 128.702 446.431 132.309 448.119C147.555 455.253 157.138 471.644 172.763 477.905C187.803 483.932 206.152 479.57 219.889 488.161C229.449 494.14 234.589 505.194 237.542 516.076" stroke="#1A674E" stroke-miterlimit="10"/>
<path d="M-16.3594 415.677C-4.91238 420.538 8.28062 417.906 20.5746 415.621C28.0866 414.225 36.0876 413.075 43.6116 413.857C48.4016 414.355 53.0006 415.639 57.1566 418.151C60.8776 420.399 63.9726 423.493 67.1836 426.406C73.8196 432.425 81.0676 437.772 88.2796 443.143C92.8036 446.51 97.3666 449.922 102.498 452.271C105.648 453.713 108.973 454.735 112.092 456.233C116.744 458.466 120.796 461.678 124.672 465.16C131.775 471.54 138.274 478.809 146.891 482.538C151.136 484.375 155.685 485.261 160.309 485.896C169.651 487.177 179.299 487.432 187.266 492.471C195.554 497.714 200.199 507.137 203.046 516.354" stroke="#1A674E" stroke-miterlimit="10"/>
<path d="M-17.8496 430.609C-8.06561 434.4 3.12439 432.285 13.5944 430.489C19.9954 429.392 26.7874 428.508 33.1954 429.176C37.2684 429.6 41.1914 430.658 44.7614 432.703C47.9554 434.534 50.6504 437.046 53.4354 439.421C59.1964 444.328 65.4394 448.727 71.6264 453.19C75.5154 455.991 79.4244 458.846 83.7714 460.873C86.4404 462.117 89.2434 463.035 91.8754 464.342C95.7994 466.291 99.2274 469.043 102.495 472.036C108.479 477.514 113.895 483.76 121.02 487.165C124.529 488.843 128.286 489.759 132.117 490.464C139.855 491.886 147.9 492.444 154.644 496.775C161.66 501.282 165.81 509.074 168.552 516.626" stroke="#1A674E" stroke-miterlimit="10"/>
<path d="M-19.3398 445.541C-11.2188 448.262 -2.03284 446.663 6.61316 445.357C11.9032 444.56 17.4862 443.942 22.7782 444.495C26.1342 444.846 29.3812 445.676 32.3642 447.256C35.0322 448.67 37.3262 450.601 39.6862 452.437C44.5712 456.233 49.8092 459.684 54.9722 463.238C58.2252 465.473 61.4802 467.771 65.0442 469.476C67.2322 470.523 69.5142 471.336 71.6592 472.453C74.8552 474.117 77.6592 476.41 80.3192 478.914C85.1842 483.489 89.5182 488.712 95.1492 491.794C97.9232 493.314 100.887 494.259 103.925 495.034C110.06 496.595 116.501 497.458 122.021 501.082C127.766 504.853 131.421 511.013 134.056 516.901" stroke="#1A674E" stroke-miterlimit="10"/>
<path d="M-20.8301 460.473C-14.3711 462.124 -7.18908 461.041 -0.368078 460.224C3.81092 459.726 8.18492 459.375 12.3609 459.813C14.9999 460.09 17.5719 460.694 19.9669 461.807C22.1089 462.804 24.0029 464.153 25.9359 465.451C29.9459 468.135 34.1779 470.638 38.3159 473.285C40.9339 474.953 43.5349 476.694 46.3149 478.078C48.0229 478.928 49.7829 479.636 51.4399 480.563C53.9079 481.943 56.0879 483.777 58.1399 485.791C61.8849 489.464 65.1369 493.663 69.2749 496.422C71.3139 497.783 73.4849 498.758 75.7289 499.603C80.2599 501.305 85.0969 502.471 89.3949 505.387C93.8679 508.422 97.0279 512.951 99.5569 517.174" stroke="#1A674E" stroke-miterlimit="10"/>
<path d="M-22.3203 475.405C-17.5243 475.986 -12.3453 475.419 -7.34931 475.092C-4.28131 474.893 -1.11731 474.808 1.94369 475.132C3.86569 475.335 5.76169 475.712 7.57069 476.36C9.18669 476.939 10.6797 477.708 12.1877 478.467C15.3227 480.04 18.5487 481.595 21.6627 483.333C23.6447 484.435 25.5917 485.619 27.5887 486.681C28.8157 487.334 30.0547 487.937 31.2237 488.673C32.9637 489.768 34.5197 491.143 35.9637 492.668C38.5897 495.439 40.7587 498.615 43.4037 501.051C44.7077 502.253 46.0847 503.258 47.5367 504.173C50.4647 506.015 53.6977 507.485 56.7727 509.693C59.9737 511.992 62.6387 514.89 65.0617 517.448" stroke="#1A674E" stroke-miterlimit="10"/>
<path d="M-23.8105 490.337C-18.7445 489.546 -13.5715 489.902 -8.47355 490.452C-0.286547 491.335 8.61645 493.137 13.7845 499.547C16.0355 502.339 17.3495 505.762 19.3425 508.744C22.0465 512.79 26.0235 515.973 30.5645 517.724" stroke="#1A674E" stroke-miterlimit="10"/>
<path d="M331.718 18.789C327.894 24.296 326.469 31.271 322.222 36.458C316.928 42.923 308.242 45.479 301.82 50.825C300.553 51.88 299.346 53.085 298.702 54.602C297.118 58.331 299.442 62.671 302.573 65.242C310.098 71.422 321.892 71.322 328.102 78.822C330.784 82.06 331.991 86.282 334.438 89.701C342.77 101.338 360.67 99.188 373.326 105.871C380.092 109.444 385.345 115.781 387.603 123.092C391.197 134.73 388.172 149.615 397.563 157.371C400.177 159.53 403.44 160.751 406.72 161.609C417.435 164.413 429.054 163.639 439.303 159.439C445.833 156.763 451.732 152.784 457.637 148.919C469.089 141.423 481.178 134.095 494.713 132.053C512.757 129.331 532.285 136.17 548.904 128.63C564.33 121.632 572.516 101.827 566.534 85.98C562.458 75.182 553.019 66.853 549.984 55.717C547.01 44.807 550.754 33.163 556.022 23.158C561.29 13.152 568.131 3.91602 572.058 -6.68798C572.736 -8.51898 573.319 -10.581 572.558 -12.38C572.1 -13.463 571.21 -14.297 570.332 -15.08C549.966 -33.263 522.865 -43.033 495.621 -44.803C468.377 -46.574 440.996 -40.702 415.664 -30.521C406.566 -26.865 397.991 -22.524 391.524 -15.002C386.296 -8.92198 381.41 -4.41298 373.833 -1.22898C359.893 4.62802 341.089 5.29402 331.718 18.789Z" stroke="#1A674E" stroke-miterlimit="10"/>
<path d="M424.237 -16.574C417.099 -13.705 410.325 -10.336 405.116 -4.58595C400.933 0.0540452 396.998 3.51304 391.043 5.98104C380.026 10.538 365.349 11.211 357.787 21.55C354.685 25.775 353.39 31.1111 349.99 35.1171C345.74 40.1171 338.965 42.204 333.917 46.411C332.921 47.241 331.967 48.183 331.445 49.364C330.187 52.212 331.885 55.533 334.181 57.525C339.699 62.315 348.441 62.416 353.028 68.227C355.008 70.736 355.889 73.984 357.707 76.63C363.895 85.638 377.337 84.315 386.954 89.588C392.401 92.609 396.855 97.422 399.065 102.843C400.169 105.56 400.781 108.489 401.331 111.405C402.513 117.756 403.504 124.069 408.848 128.056C411.029 129.676 413.692 130.625 416.361 131.352C424.842 133.632 433.858 133.407 441.812 130.66C446.874 128.9 451.449 126.18 456.04 123.535C461.903 120.161 467.993 116.823 474.536 114.551C477.935 113.372 481.455 112.472 485.112 112.007C499.376 110.194 514.88 115.067 527.853 108.853C539.741 103.16 546.048 87.818 541.751 75.434C538.824 66.994 531.759 60.448 529.858 51.794C527.952 43.119 531.457 34.046 535.823 26.198C540.244 18.306 545.579 10.925 548.346 2.17505C548.812 0.702047 549.225 -0.939953 548.61 -2.39395C548.242 -3.26395 547.548 -3.94795 546.861 -4.59595C531.378 -19.116 510.585 -27.243 489.306 -28.679C488.792 -28.714 488.277 -28.746 487.762 -28.774C466.107 -29.941 444.357 -24.663 424.237 -16.574Z" stroke="#1A674E" stroke-miterlimit="10"/>
<path d="M432.809 -2.62896C427.631 -0.546962 422.645 1.83804 418.708 5.82804C415.56 9.01804 412.586 11.438 408.253 13.189C400.156 16.447 389.623 17.139 383.854 24.31C381.481 27.26 380.309 30.95 377.756 33.775C374.549 37.31 369.685 38.929 366.012 41.997C365.287 42.602 364.586 43.281 364.186 44.126C363.255 46.093 364.326 48.394 365.787 49.808C369.298 53.208 374.989 53.51 377.952 57.631C379.231 59.41 379.786 61.685 380.974 63.559C385.018 69.939 394.002 69.442 400.58 73.306C404.708 75.775 408.363 79.063 410.525 82.594C411.602 84.364 412.357 86.234 413.036 88.085C414.514 92.112 415.871 96.092 420.13 98.74C421.874 99.825 423.939 100.506 425.999 101.094C432.239 102.875 438.662 103.191 444.318 101.88C447.914 101.047 451.162 99.576 454.441 98.15C458.63 96.336 462.996 94.52 467.763 93.305C470.24 92.675 472.823 92.192 475.509 91.96C485.993 91.057 497.472 93.969 506.801 89.075C515.151 84.694 519.578 73.808 516.967 64.888C515.189 58.805 510.518 54.019 509.73 47.87C508.901 41.4 512.139 34.915 515.623 29.238C519.176 23.447 523.038 17.95 524.634 11.037C524.89 9.92604 525.132 8.70104 524.662 7.59004C524.385 6.93404 523.889 6.39704 523.391 5.88604C512.35 -5.44496 497.022 -11.924 481.051 -12.696C480.669 -12.715 480.287 -12.732 479.905 -12.745C463.837 -13.31 447.717 -8.62496 432.809 -2.62896Z" stroke="#1A674E" stroke-miterlimit="10"/>
<path d="M441.383 11.317C438.165 12.613 434.978 14.02 432.301 16.243C430.197 17.99 428.175 19.363 425.464 20.398C420.288 22.357 413.884 23.061 409.922 27.071C408.271 28.741 407.229 30.79 405.523 32.434C403.359 34.503 400.406 35.655 398.108 37.583C397.655 37.963 397.208 38.378 396.929 38.887C396.331 39.975 396.769 41.255 397.395 42.09C398.899 44.1 401.538 44.603 402.878 47.034C403.456 48.084 403.684 49.384 404.242 50.486C406.142 54.237 410.668 54.567 414.208 57.021C417.017 58.938 419.878 60.696 421.987 62.343C423.038 63.164 423.928 63.975 424.744 64.763C426.504 66.463 428.249 68.104 431.415 69.422C432.726 69.968 434.19 70.378 435.64 70.834C439.644 72.093 443.461 72.962 446.827 73.098C448.951 73.184 450.879 72.969 452.844 72.763C455.359 72.508 458.002 72.215 460.991 72.057C462.547 71.977 464.191 71.91 465.907 71.911C472.61 71.917 480.069 72.89 485.75 69.295C490.567 66.247 493.11 59.796 492.185 54.34C491.557 50.615 489.359 47.536 489.605 43.945C489.902 39.615 492.842 35.793 495.425 32.276C498.129 28.595 500.541 25.003 500.923 19.897C500.979 19.152 501.039 18.339 500.715 17.572C500.528 17.129 500.229 16.742 499.921 16.366C493.288 8.26502 483.459 3.41902 472.795 3.28502C472.546 3.28202 472.297 3.28002 472.048 3.28102C461.568 3.32202 451.078 7.41302 441.383 11.317Z" stroke="#1A674E" stroke-miterlimit="10"/>
<path d="M429.67 33.648C427.777 35.446 426.702 38.384 427.833 40.737C430.059 42.776 433.555 42.303 436.448 41.44C439.341 40.577 442.473 39.454 445.277 40.574C449.545 42.28 450.524 48.072 454.217 50.809C457.337 53.121 462.233 52.516 464.696 49.514C466.957 46.759 467.117 42.69 469.476 40.018C473.774 35.15 480.244 34.867 476.448 26.845C474.163 22.016 469.893 18.709 464.536 19.265C459.529 19.785 454.545 23.407 449.956 25.262C443.723 27.782 434.674 28.896 429.67 33.648Z" stroke="#1A674E" stroke-miterlimit="10"/>
<path d="M756.913 89.247C746.497 84.521 735.757 80.509 724.793 77.248C718.991 75.522 710.839 75.101 708.805 80.802C708.06 82.89 708.489 85.217 708.029 87.385C706.822 93.069 700.225 95.706 694.459 96.421C693.069 96.594 691.609 96.732 690.439 97.503C688.4 98.847 687.928 101.59 687.706 104.022C686.886 113.002 686.808 122.536 682.047 130.194C674.848 141.773 659.552 145.072 645.923 145.414C631.238 145.783 616.5 143.96 602.347 140.025C592.207 137.205 581.702 133.27 571.451 135.657C565.975 136.932 561.065 139.935 555.73 141.71C547.308 144.512 538.221 144.149 529.363 144.695C502.718 146.337 476.683 156.722 456.224 173.871C449.402 179.589 443.043 186.253 439.69 194.499C435.71 204.287 436.366 215.469 439.408 225.588C442.451 235.706 447.727 244.984 452.961 254.163C456.658 260.647 461.794 267.995 469.256 267.822C472.197 267.754 475.19 266.454 477.994 267.341C482.204 268.674 483.477 273.903 486.305 277.293C490.888 282.786 499.584 282.942 506.076 279.938C512.568 276.934 517.558 271.522 522.952 266.823C551.653 241.819 592.395 236.667 630.458 236.355C639.981 236.277 649.67 236.457 658.746 239.342C664.293 241.105 669.497 243.847 675.077 245.502C684.691 248.353 694.922 247.853 704.941 248.279C727.069 249.22 748.985 254.865 768.814 264.729" stroke="#1A674E" stroke-miterlimit="10"/>
<path d="M753.68 103.877C748.886 99.742 743.869 95.485 737.754 93.844C731.639 92.203 724.101 94.019 721.156 99.623C720.556 100.765 720.133 102.06 719.161 102.908C717.704 104.179 715.549 104.036 713.619 104.157C707.003 104.571 700.867 109.316 698.8 115.614C696.203 123.528 699.588 132.975 695.245 140.082C692.565 144.467 687.564 146.804 682.745 148.591C665.662 154.926 647.161 157.404 629.012 155.786C611.804 154.252 594.513 149.107 577.534 152.295C571.318 153.462 565.359 155.723 559.191 157.12C551.512 158.86 543.598 159.245 535.801 160.343C521.302 162.385 507.158 166.928 494.181 173.711C482.396 179.871 471.245 188.245 464.896 199.929C458.547 211.613 457.96 227.082 466.069 237.621C467.381 239.327 468.991 240.94 471.054 241.55C473.836 242.372 476.856 241.217 479.712 241.727C486.52 242.942 489.23 252.607 496.041 253.804C499.159 254.352 502.247 252.909 505.069 251.475C525.66 241.011 545.819 228.731 568.431 224.024C579.386 221.743 590.63 221.313 601.811 220.889C621.411 220.147 641.354 219.441 660.311 224.473C666.714 226.173 672.947 228.515 679.428 229.887C693.084 232.777 707.268 231.252 721.162 232.591C733.997 233.828 746.589 237.542 758.04 243.468" stroke="#1A674E" stroke-miterlimit="10"/>
<path d="M505.964 191.034C501.986 193.193 497.947 195.63 495.456 199.409C492.965 203.188 492.497 208.673 495.552 212.012C497.19 213.801 499.679 214.864 500.717 217.056C501.541 218.797 501.249 220.878 501.908 222.688C502.955 225.566 506.246 227.124 509.308 227.097C512.37 227.07 515.267 225.793 518.05 224.516C534.87 216.802 551.665 208.144 569.981 205.514C585.791 203.244 602.021 205.595 617.783 203.016C623.56 202.071 630.188 199.53 631.509 193.828C635.094 178.356 611.454 167.053 599.125 167.772C579.384 168.923 559.464 171.009 540.466 176.705C528.518 180.288 516.93 185.084 505.964 191.034Z" stroke="#1A674E" stroke-miterlimit="10"/>
<path d="M758.413 120.496C753.982 121.129 749.827 118.534 745.853 116.474C741.879 114.414 736.847 112.866 733.128 115.358C730.724 116.969 729.515 119.905 727.233 121.686C725.391 123.124 722.953 123.725 721.306 125.382C719.102 127.6 718.899 131.033 718.363 134.113C717.073 141.525 713.032 148.425 707.2 153.177C700.972 158.251 693.102 160.748 685.48 163.286C677.858 165.825 670.039 168.66 664.225 174.203C658.411 179.746 655.122 188.741 658.492 196.033C661.824 203.243 670.235 206.5 678.031 208.019C691.658 210.675 705.703 210.13 719.478 211.86C733.253 213.59 747.492 218.08 756.627 228.535" stroke="#1A674E" stroke-miterlimit="10"/>
<path d="M756.559 146.261C754.84 143.401 751.197 141.952 747.911 142.537C744.625 143.122 741.81 145.557 740.438 148.599C739.606 150.443 739.263 152.473 738.467 154.333C735.573 161.097 727.751 163.936 720.954 166.752C715.37 169.066 709.969 171.824 704.821 174.992C700.785 177.475 696.485 180.95 696.432 185.688C696.394 189.088 698.726 192.184 701.668 193.89C704.61 195.596 708.079 196.129 711.47 196.368C719.719 196.95 728.085 195.988 736.227 197.43C744.298 198.859 751.929 202.689 757.899 208.305" stroke="#1A674E" stroke-miterlimit="10"/>
<path d="M753.745 167.317C749.137 168.771 744.529 170.226 739.921 171.681C738.303 172.191 736.646 172.723 735.318 173.779C733.234 175.436 732.261 178.205 732.262 180.868C732.262 182.53 732.647 184.278 733.783 185.491C736.188 188.057 740.354 187.054 743.801 186.359C750.42 185.024 758.382 186.178 762.037 191.856" stroke="#1A674E" stroke-miterlimit="10"/>
<path d="M540.714 191.349C539.492 191.902 538.22 192.531 537.48 193.65C536.74 194.769 536.792 196.522 537.934 197.227C538.771 197.743 539.846 197.54 540.804 197.319C552.487 194.627 564.26 191.73 576.286 191.201C580.075 191.034 594.54 194.107 590.842 188.392C588.047 184.073 576.96 182.945 572.481 183.051C561.786 183.305 550.375 186.979 540.714 191.349Z" stroke="#1A674E" stroke-miterlimit="10"/>
<path d="M383.322 267.51C369.579 279.701 361.81 297.744 347.309 309.021C339.69 314.946 329.703 319.796 327.467 329.185C326.255 334.274 327.723 339.607 329.631 344.478C331.044 348.084 332.72 351.622 335.059 354.71C345.658 368.705 367.349 370.756 377.357 385.18C380.843 390.205 382.653 396.447 387.114 400.631C391.494 404.738 397.761 406.178 403.759 406.44C409.757 406.702 415.778 405.954 421.762 406.434C436.687 407.631 451.356 416.373 465.819 412.498C474.616 410.141 481.571 403.427 487.187 396.258C492.232 389.818 496.654 382.497 497.551 374.366C499.26 358.872 487.996 344.522 488.025 328.934C488.033 324.354 489.026 319.824 489.134 315.245C489.242 310.666 488.306 305.77 485.107 302.491C482.199 299.51 477.68 298.117 475.652 294.48C475.081 293.455 474.745 292.303 474.081 291.336C471 286.852 464.134 289.144 458.705 288.793C440.008 287.585 441.371 262.53 428.421 254.432C415.555 246.387 392.867 259.043 383.322 267.51Z" stroke="#1A674E" stroke-miterlimit="10"/>
<path d="M391.902 288.872C388.579 291.942 385.835 295.484 383.204 299.157C378.47 305.776 374.009 312.733 367.635 317.811C362.434 321.947 355.62 325.357 353.967 331.791C353.073 335.275 353.965 338.923 355.151 342.262C356.029 344.735 357.084 347.163 358.583 349.291C365.356 358.964 379.949 360.464 386.313 370.739C387.997 373.457 389.526 376.472 391.481 378.815C392.503 380.046 393.616 381.133 394.933 382.021C396.173 382.858 397.545 383.47 398.997 383.921C401.947 384.83 405.262 385.072 408.522 385.2C412.823 385.38 417.129 384.951 421.406 385.363C428.862 386.083 436.224 389.332 443.542 390.314C446.692 390.736 449.834 390.737 452.962 389.949C459.287 388.358 464.38 383.756 468.527 378.753C472.3 374.232 475.493 369.102 476.209 363.422C477.622 352.493 469.665 342.28 469.126 331.358C468.969 328.174 469.482 325.03 469.387 321.865C469.289 318.697 468.49 315.328 466.185 313.051C464.072 310.971 460.888 309.963 459.374 307.475C458.948 306.774 458.682 305.987 458.192 305.329C455.895 302.242 451.033 303.673 447.126 303.349C433.9 302.251 433.952 285.305 424.485 279.779C416.471 275.143 403.833 280.418 395.804 285.837C394.308 286.85 392.974 287.881 391.902 288.872Z" stroke="#1A674E" stroke-miterlimit="10"/>
<path d="M400.482 310.234C398.738 312.006 397.405 314.002 396.106 316.074C393.77 319.824 391.388 323.694 387.961 326.6C385.178 328.947 381.537 330.918 380.467 334.397C379.892 336.277 380.206 338.238 380.672 340.045C381.015 341.385 381.455 342.699 382.108 343.872C385.083 349.208 392.328 350.36 395.271 356.299C396.348 358.473 397.85 360.649 399.694 361.923C400.655 362.587 401.657 363.077 402.755 363.412C403.786 363.729 404.877 363.888 405.998 363.959C408.289 364.104 410.783 363.874 413.288 363.961C415.893 364.052 418.483 363.948 421.053 364.294C425.538 364.898 429.958 366.877 434.399 367.514C436.303 367.786 438.21 367.809 440.109 367.401C443.962 366.575 447.179 364.074 449.87 361.249C452.359 358.636 454.319 355.705 454.87 352.478C455.957 346.108 451.348 340.047 450.23 333.782C449.911 331.998 449.941 330.237 449.643 328.484C449.34 326.727 448.681 324.882 447.267 323.609C445.953 322.426 444.099 321.807 443.101 320.468C442.819 320.091 442.622 319.67 442.309 319.321C440.792 317.631 437.938 318.204 435.554 317.903C427.8 316.926 426.555 308.047 420.556 305.124C415.37 302.597 407.874 305.276 402.867 308.395C401.948 308.972 401.117 309.589 400.482 310.234Z" stroke="#1A674E" stroke-miterlimit="10"/>
<path d="M409.927 330.956C409.589 331.095 409.238 331.275 409.064 331.597C408.838 332.013 408.976 332.52 409.009 332.992C409.254 336.458 403.845 338.406 404.229 341.86C404.422 343.599 406.169 344.836 407.907 345.033C409.645 345.229 411.366 344.628 412.998 343.999C414.63 343.37 416.303 342.692 418.052 342.725C420.552 342.772 422.796 344.258 425.255 344.716C427.272 345.092 429.417 344.743 431.211 343.747C437.631 340.183 430.548 334.751 426.421 333.317C421.668 331.666 414.774 328.958 409.927 330.956Z" stroke="#1A674E" stroke-miterlimit="10"/>
<path d="M498.544 514.011C487.947 496.865 479.278 478.529 472.753 459.459C470.94 454.16 469.301 448.29 471.364 443.083C474.682 434.706 485.378 432.482 492.147 426.535C499.62 419.97 502.078 408.937 509.826 402.699C515.829 397.866 524.066 396.755 531.75 397.353C539.433 397.951 546.927 400.055 554.587 400.899C566.765 402.241 579.079 400.377 591.314 401.018C603.548 401.659 616.573 405.44 623.91 415.252C627.567 420.143 629.484 426.101 632.608 431.349C639.717 443.291 652.937 450.859 666.668 453.001C680.399 455.144 694.556 452.303 707.399 446.994C716.289 443.319 724.766 438.45 734.126 436.232C743.486 434.015 754.34 434.962 761.23 441.674C763.423 443.81 768.264 446.022 770.31 448.299C779.806 458.864 785.459 472.451 788.368 486.355C791.278 500.259 791.594 514.567 791.495 528.772" stroke="#1A674E" stroke-miterlimit="10"/>
<path d="M524.783 512.671C516.428 499.462 509.616 485.24 504.564 470.427C503.16 466.311 501.9 461.763 503.427 457.711C505.885 451.192 513.942 449.321 519.028 444.589C524.746 439.268 526.773 430.543 532.894 425.549C537.637 421.678 544.11 420.656 550.197 421.004C552.633 421.143 555.052 421.477 557.467 421.876C561.084 422.473 564.686 423.21 568.331 423.626C577.993 424.728 587.747 423.553 597.46 424.108C607.084 424.651 617.298 427.444 623.244 434.719C626.208 438.346 627.866 442.763 630.429 446.645C634.486 452.791 640.76 457.344 647.84 460.069C650.94 461.261 654.199 462.105 657.495 462.58C668.313 464.144 679.468 462.059 689.558 458.263C696.556 455.642 703.184 452.096 710.43 450.838C717.77 449.563 725.997 450.953 731.143 456.628C732.803 458.459 736.401 460.385 737.972 462.307C745.032 470.948 749.518 481.684 751.944 492.699C754.37 503.715 754.947 514.993 755.296 526.122" stroke="#1A674E" stroke-miterlimit="10"/>
<path d="M551.021 511.331C544.908 502.059 539.953 491.951 536.375 481.395C535.381 478.462 534.497 475.236 535.49 472.34C537.087 467.68 542.504 466.151 545.908 462.643C549.872 458.559 551.466 452.15 555.96 448.398C559.443 445.49 564.152 444.556 568.641 444.653C570.438 444.692 572.23 444.88 574.024 445.132C576.708 445.51 579.377 446.025 582.073 446.351C589.219 447.213 596.413 446.727 603.605 447.196C610.618 447.64 618.021 449.445 622.578 454.184C624.848 456.547 626.247 459.423 628.25 461.94C631.418 465.924 636.065 468.839 641.249 470.57C643.522 471.326 645.908 471.859 648.321 472.159C656.226 473.144 664.38 471.815 671.716 469.533C676.822 467.965 681.622 465.756 686.732 465.444C692.078 465.118 697.649 466.958 701.055 471.581C702.182 473.111 704.539 474.739 705.633 476.314C710.274 482.996 713.576 490.915 715.518 499.042C717.46 507.169 718.299 515.419 719.095 523.471" stroke="#1A674E" stroke-miterlimit="10"/>
<path d="M577.259 509.991C573.388 504.657 570.29 498.663 568.185 492.362C567.6 490.612 567.094 488.709 567.553 486.967C568.29 484.166 571.054 482.956 572.789 480.696C574.993 477.824 576.161 473.756 579.027 471.247C581.25 469.301 584.194 468.456 587.087 468.303C588.245 468.242 589.41 468.283 590.582 468.389C592.332 468.548 594.069 468.842 595.816 469.077C600.447 469.7 605.08 469.902 609.751 470.284C614.154 470.629 618.746 471.446 621.913 473.649C623.489 474.748 624.63 476.083 626.072 477.234C628.352 479.057 631.37 480.334 634.659 481.069C636.106 481.389 637.619 481.612 639.149 481.735C644.14 482.142 649.291 481.55 653.875 480.799C657.088 480.273 660.108 479.473 663.036 480.047C666.447 480.715 669.284 482.988 670.968 486.531C671.556 487.769 672.687 489.077 673.295 490.319C675.575 494.972 677.635 500.145 679.093 505.383C680.551 510.622 681.651 515.842 682.895 520.818" stroke="#1A674E" stroke-miterlimit="10"/>
<path d="M603.497 508.651C600.688 506.241 599.032 502.397 599.669 498.751C600.306 495.105 603.448 491.917 607.139 491.646C610.12 491.427 612.936 492.966 615.896 493.373C619.983 493.935 624.013 492.327 628.068 491.571C632.124 490.815 637.005 491.25 639.338 494.653C641.215 497.39 640.762 501.014 640.956 504.326C641.253 509.407 643.31 514.367 646.695 518.168" stroke="#1A674E" stroke-miterlimit="10"/>
</g>
</g>
</svg>
