<svg width="62" height="44" viewBox="0 0 62 44" fill="none" xmlns="http://www.w3.org/2000/svg">
<path fill-rule="evenodd" clip-rule="evenodd" d="M31.5146 0.121409C31.1908 -0.0404696 30.8097 -0.0404696 30.486 0.121409L1.3193 14.7047C0.929697 14.8995 0.683594 15.2977 0.683594 15.7333C0.683594 16.1689 0.929697 16.5671 1.3193 16.7619L12.3496 22.2771V36.15C12.3496 36.455 12.4708 36.7475 12.6864 36.9631C17.3259 41.6026 24.2089 43.8625 30.9996 43.8625C37.7904 43.8625 44.6733 41.6026 49.3128 36.9631C49.5285 36.7475 49.6496 36.455 49.6496 36.15V22.2777L59.0169 17.5941V33.2333C59.0169 33.8685 59.5318 34.3833 60.1669 34.3833C60.8021 34.3833 61.3169 33.8685 61.3169 33.2333V15.7333C61.3169 15.2977 61.0708 14.8995 60.6812 14.7047L31.5146 0.121409ZM48.0187 20.5217C47.9967 20.5318 47.975 20.5427 47.9538 20.5542L31.0003 29.0309L4.40507 15.7333L31.0003 2.43574L57.5954 15.7333L48.0187 20.5217ZM47.3496 23.4277V35.6647C43.2395 39.5597 37.1632 41.5625 30.9996 41.5625C24.836 41.5625 18.7597 39.5597 14.6496 35.6647V23.4271L30.486 31.3453C30.8097 31.5071 31.1908 31.5071 31.5146 31.3453L47.3496 23.4277Z" fill="#033323"/>
</svg>
