<svg xmlns="http://www.w3.org/2000/svg" width="12" height="20" viewBox="0 0 12 20" fill="none">
<path d="M1.5 0.75C1.5 0.33579 1.16421 0 0.75 0C0.33579 0 0 0.33579 0 0.75V3.75C0 4.64648 0.67409 5.38552 1.54305 5.48789L0.52732 7.99292C0.11943 8.9988 0.16369 10.1753 0.64554 11.1355L4.6354 19.0866C4.9193 19.6524 5.4386 20 6 20C6.5614 20 7.0807 19.6524 7.3646 19.0866L11.3545 11.1355C11.8363 10.1753 11.8806 8.9988 11.4727 7.99292L10.4569 5.48789C11.3259 5.38552 12 4.64648 12 3.75V0.75C12 0.33579 11.6642 0 11.25 0C10.8358 0 10.5 0.33579 10.5 0.75V3.75C10.5 3.88807 10.3881 4 10.25 4H1.75C1.61193 4 1.5 3.88807 1.5 3.75V0.75ZM8.8432 5.5L10.0826 8.5566C10.3302 9.1672 10.2997 9.8929 10.0138 10.4628L6.75 16.9669V10.2993C7.1984 10.04 7.5 9.5552 7.5 9C7.5 8.1716 6.8284 7.5 6 7.5C5.1716 7.5 4.5 8.1716 4.5 9C4.5 9.5552 4.8016 10.04 5.25 10.2993V16.9669L1.98622 10.4628C1.70026 9.8929 1.66979 9.1672 1.91739 8.5566L3.15676 5.5H8.8432Z" fill="#071E18"/>
</svg>