<svg width="20" height="15" viewBox="0 0 20 15" fill="none" xmlns="http://www.w3.org/2000/svg">
<path d="M9.99562 0.761719H9.91277C7.38598 0.761719 4.98346 1.77658 3.18157 3.61989C1.4004 5.4632 0.40625 7.86572 0.40625 10.3925V10.4339C0.40625 11.863 1.56609 13.0229 2.99517 13.0229H7.53096C8.15231 13.6856 9.00147 14.0584 9.91277 14.0584C10.3891 14.0584 10.8448 13.9549 11.259 13.7685C11.549 13.6442 11.8804 13.4164 12.3567 13.0229H16.7889C18.1973 13.0229 19.3365 11.9044 19.3779 10.4961C19.3779 10.4339 19.3779 10.3511 19.3779 10.2682C19.3779 7.74145 18.4044 5.38036 16.6233 3.57847C14.8628 1.79729 12.5017 0.78243 9.99562 0.761719ZM18.4459 10.4546C18.4251 11.3452 17.7003 12.0494 16.8097 12.0494H12.046C11.3833 12.6086 11.0933 12.795 10.9069 12.8779C10.5962 13.0229 10.2856 13.085 9.9542 13.085C9.16716 13.085 8.44226 12.6915 8.00733 12.0494H2.99517C2.08387 12.0494 1.35897 11.3245 1.35897 10.4132V10.3718C1.35897 8.09355 2.24956 5.91885 3.86505 4.26194C5.48054 2.60503 7.63452 1.69373 9.91277 1.69373H9.97491C12.2324 1.71444 14.3657 2.60503 15.9605 4.22052C17.5553 5.83601 18.4459 7.96928 18.4459 10.2475C18.4459 10.3304 18.4459 10.3925 18.4459 10.4546Z" fill="#1E6F5C"/>
<path d="M9.35967 9.48104C8.65549 9.79171 8.34482 10.6202 8.65549 11.3244C8.88331 11.8421 9.4011 12.1528 9.91888 12.1528C10.1053 12.1528 10.3124 12.1114 10.4988 12.0285C11.203 11.6972 14.0612 8.90112 14.0612 8.90112C14.0612 8.90112 10.0639 9.17037 9.35967 9.48104Z" fill="#1E6F5C"/>
<path d="M9.90996 4.61406C10.1792 4.61406 10.3863 4.40695 10.3863 4.1377V3.24711C10.3863 2.97787 10.1792 2.77075 9.90996 2.77075C9.64071 2.77075 9.43359 2.97787 9.43359 3.24711V4.1377C9.45431 4.40695 9.66142 4.61406 9.90996 4.61406Z" fill="#1E6F5C"/>
<path d="M4.07789 9.79199H3.1873C2.91805 9.79199 2.71094 9.99911 2.71094 10.2684C2.71094 10.5376 2.91805 10.7447 3.1873 10.7447H4.07789C4.34714 10.7447 4.55425 10.5376 4.55425 10.2684C4.55425 9.99911 4.34714 9.79199 4.07789 9.79199Z" fill="#1E6F5C"/>
<path d="M6.74105 4.01383C6.59607 3.80671 6.30611 3.74458 6.07828 3.88956C5.87117 4.03454 5.80903 4.3245 5.95401 4.55232L6.49251 5.36007C6.57535 5.48434 6.74105 5.56718 6.88603 5.56718C6.96887 5.56718 7.07243 5.54647 7.15527 5.48434C7.36239 5.33936 7.42452 5.0494 7.27954 4.82157L6.74105 4.01383Z" fill="#1E6F5C"/>
<path d="M12.6776 5.48434C12.7604 5.54647 12.8433 5.56718 12.9468 5.56718C13.0918 5.56718 13.2368 5.50505 13.3404 5.36007L13.8788 4.55232C14.0238 4.34521 13.9617 4.03454 13.7546 3.88956C13.5475 3.74458 13.2368 3.80671 13.0918 4.01383L12.5533 4.82157C12.4083 5.02869 12.4498 5.33936 12.6776 5.48434Z" fill="#1E6F5C"/>
<path d="M4.83395 6.80949L4.06763 6.37455C3.8398 6.25028 3.54984 6.33313 3.42557 6.54024C3.30131 6.76807 3.38415 7.05802 3.59127 7.18229L4.35759 7.61723C4.44043 7.65865 4.50257 7.67937 4.58541 7.67937C4.7511 7.67937 4.91679 7.59652 4.99964 7.43083C5.14462 7.24443 5.06177 6.95447 4.83395 6.80949Z" fill="#1E6F5C"/>
<path d="M15.2776 5.46338C15.0912 5.29769 14.822 5.29769 14.6563 5.46338L11.5703 8.15586C11.6739 8.15586 11.7774 8.13515 11.881 8.13515C12.958 8.03159 13.9521 7.96946 13.9935 7.96946C14.0143 7.96946 14.035 7.96946 14.0557 7.96946C14.4285 7.96946 14.7599 8.17657 14.9256 8.52866C15.0912 8.88076 15.0084 9.3157 14.7184 9.58494C14.6977 9.60565 14.1799 10.1234 13.5172 10.7448H16.6653C16.9346 10.7448 17.1417 10.5377 17.1417 10.2684C17.1417 10.2477 17.1417 10.2477 17.1417 10.227C17.1002 7.12029 15.3605 5.52551 15.2776 5.46338Z" fill="#1E6F5C"/>
</svg>
