<svg width="17" height="17" viewBox="0 0 17 17" fill="none" xmlns="http://www.w3.org/2000/svg">
<path fill-rule="evenodd" clip-rule="evenodd" d="M8.02467 0.838888C7.88792 0.902472 7.76531 1.03327 7.71333 1.17104C7.68671 1.24152 7.67393 2.15954 7.67393 3.99803V6.72064H7.00573C6.46512 6.72064 6.31338 6.73217 6.21097 6.78097C5.94829 6.90613 5.81205 7.21619 5.90531 7.47664C5.96988 7.65694 7.79119 10.2317 7.92687 10.3345C8.06199 10.4368 8.3912 10.4565 8.54819 10.3715C8.63864 10.3226 8.93067 9.94118 9.63786 8.94831C10.1692 8.20228 10.6201 7.53285 10.6397 7.46067C10.6884 7.28215 10.6445 7.08027 10.5262 6.93913C10.362 6.74311 10.2587 6.72064 9.52179 6.72064H8.85672L8.84683 3.94271C8.83704 1.20267 8.83586 1.16337 8.76077 1.06241C8.7189 1.0061 8.64122 0.927461 8.58817 0.887679C8.46582 0.795955 8.17179 0.770484 8.02467 0.838888ZM13.5962 8.55527C12.8319 8.72226 12.1697 9.2339 11.8256 9.92335C11.676 10.2229 11.6692 10.3178 11.7812 10.5406C11.9225 10.8218 12.2396 10.9425 12.5208 10.8222C12.6621 10.7618 12.7577 10.658 12.8956 10.4153C13.1341 9.9955 13.5885 9.71031 14.0229 9.70776C14.4755 9.70512 14.9161 10.0015 15.1409 10.4598C15.24 10.662 15.263 10.7561 15.2729 11.0019C15.2843 11.2852 15.2792 11.3081 15.165 11.4799C15.034 11.6772 14.8359 11.8398 14.5779 11.9621L14.4117 12.0409L7.3905 12.0595C0.370947 12.078 0.369286 12.078 0.267351 12.1545C0.0735982 12.2997 0.0131612 12.4182 0.0131612 12.6527C0.0131612 12.8871 0.0736351 13.0056 0.267351 13.1509L0.369323 13.2273H7.44588C15.4084 13.2273 14.6507 13.2548 15.2475 12.9439C15.7298 12.6927 16.1777 12.2085 16.3743 11.7258C16.4819 11.4617 16.4717 10.6469 16.3564 10.2984C16.0652 9.41809 15.3582 8.76916 14.4581 8.55605C14.1784 8.48984 13.8969 8.48958 13.5962 8.55527ZM0.34359 13.8911C0.0994049 13.9982 -0.0414795 14.2826 0.0108722 14.5628C0.0432505 14.7362 0.227626 14.941 0.395018 14.9896C0.488424 15.0167 2.93828 15.0254 8.34502 15.0178L16.16 15.0069L16.2619 14.9305C16.4557 14.7852 16.5161 14.6667 16.5161 14.4323C16.5161 14.1978 16.4557 14.0793 16.2619 13.9341L16.16 13.8576L8.3081 13.8496C1.8365 13.8431 0.436405 13.8504 0.34359 13.8911ZM0.34359 15.6707C0.0994049 15.7778 -0.0414795 16.0622 0.0108722 16.3424C0.0432505 16.5158 0.227626 16.7206 0.395018 16.7692C0.488424 16.7963 2.93828 16.805 8.34502 16.7975L16.16 16.7866L16.2619 16.7101C16.4557 16.5648 16.5161 16.4464 16.5161 16.2119C16.5161 15.9774 16.4557 15.8589 16.2619 15.7137L16.16 15.6372L8.3081 15.6293C1.8365 15.6227 0.436405 15.63 0.34359 15.6707Z" fill="#033323"/>
</svg>
