<svg width="20" height="17" viewBox="0 0 20 17"  xmlns="http://www.w3.org/2000/svg">
<path d="M9.99995 0.000976562C13.5208 0.000976562 15.5181 2.33144 15.8085 5.14587H15.8974C18.1632 5.14587 20 6.97787 20 9.23778C20 11.4977 18.1632 13.3298 15.8974 13.3298L15.2498 13.3296L13.4923 16.257C13.2621 16.6556 12.7525 16.7921 12.3539 16.562C11.9884 16.351 11.8433 15.9052 11.9988 15.5253L12.0487 15.4236L13.3253 13.3296H10.9518L9.19401 16.257C8.96389 16.6556 8.45419 16.7921 8.05561 16.562C7.69018 16.351 7.54497 15.9052 7.70057 15.5253L7.75052 15.4236L9.02722 13.3296H6.65262L4.89572 16.257C4.66558 16.6556 4.1559 16.7921 3.75729 16.562C3.39192 16.351 3.24671 15.9052 3.40231 15.5253L3.45225 15.4236L4.72806 13.3296L4.10256 13.3298C1.83678 13.3298 0 11.4977 0 9.23778C0 6.97787 1.83678 5.14587 4.10258 5.14587H4.19141C4.48358 2.31294 6.47918 0.000976562 9.99995 0.000976562ZM9.99995 1.66507C7.69838 1.66507 5.69227 3.47989 5.69227 5.98667C5.69227 6.38388 5.33786 6.69552 4.93204 6.69552H4.16472C2.76352 6.69552 1.62764 7.80814 1.62764 9.18056C1.62764 10.5531 2.76352 11.6657 4.16472 11.6657H15.8353C17.2365 11.6657 18.3723 10.5531 18.3723 9.18056C18.3723 7.80814 17.2365 6.69552 15.8353 6.69552H15.0679C14.6621 6.69552 14.3077 6.38388 14.3077 5.98667C14.3077 3.44773 12.3016 1.66507 9.99995 1.66507Z" />
</svg>
