<svg width="21" height="21" viewBox="0 0 21 21" fill="none" xmlns="http://www.w3.org/2000/svg">
<path d="M0 2.64706C0 1.18514 1.18566 0 2.64706 0H6.53079V6.53114H0V2.64706Z" fill="#58726C"/>
<path fill-rule="evenodd" clip-rule="evenodd" d="M7.23392 0V6.53114H13.7647V0H7.23392ZM13.4118 0.352941H7.58686V6.17819H13.4118V0.352941Z" fill="#58726C"/>
<path d="M18.3529 0H14.4692V6.53114H21V2.64706C21 1.18514 19.8157 0 18.3529 0Z" fill="#58726C"/>
<path d="M0 7.23443H6.53079V13.7656H0V7.23443Z" fill="#58726C"/>
<path fill-rule="evenodd" clip-rule="evenodd" d="M7.23392 13.7656V7.23443H13.7647V13.7656H7.23392ZM7.58686 7.58737H13.4118V13.4126H7.58686V7.58737Z" fill="#58726C"/>
<path fill-rule="evenodd" clip-rule="evenodd" d="M14.4692 7.23443V13.7656H21V7.23443H14.4692ZM20.6471 7.58737H14.8222V13.4126H20.6471V7.58737Z" fill="#58726C"/>
<path fill-rule="evenodd" clip-rule="evenodd" d="M0 18.3529V14.4689H6.53079V21H2.64706C1.18566 21 0 19.8149 0 18.3529ZM0.352941 14.8218H6.17785V20.6471H2.64706C1.38006 20.6471 0.352941 19.6199 0.352941 18.3529V14.8218Z" fill="#58726C"/>
<path d="M7.23392 14.4689H13.7647V21H7.23392V14.4689Z" fill="#58726C"/>
<path d="M21 14.4689H14.4692V21H18.3529C19.8157 21 21 19.8149 21 18.3529V14.4689Z" fill="#58726C"/>
</svg>
