<svg width="18" height="18" viewBox="0 0 18 18"  xmlns="http://www.w3.org/2000/svg">
<path fill-rule="evenodd" clip-rule="evenodd" d="M10.8728 0.446407C10.821 0.187683 10.5944 0.0010916 10.3305 4.77108e-06C10.0667 -0.0010821 9.8385 0.183636 9.78463 0.441925C9.56284 1.50523 9.15434 2.52081 8.57808 3.44153C8.41537 3.7015 8.49422 4.04415 8.75419 4.20686C9.01416 4.36957 9.35681 4.29073 9.51952 4.03076C9.83402 3.52826 10.1039 3.00056 10.3268 2.45375C11.0112 4.12774 12.1442 5.65126 13.5353 6.76419C15.2126 8.10599 15.9924 9.64611 15.9924 11.2173L15.9924 11.2196C15.9971 12.3378 15.6696 13.4322 15.0515 14.364C14.4334 15.2959 13.5525 16.0232 12.5206 16.4539C11.4886 16.8845 10.352 16.999 9.25489 16.7829C8.15777 16.5668 7.14951 16.0299 6.35793 15.2401C6.14082 15.0234 5.78922 15.0238 5.5726 15.2409C5.35598 15.458 5.35638 15.8096 5.57348 16.0263C6.52076 16.9714 7.72734 17.614 9.04026 17.8726C10.3532 18.1312 11.7133 17.9942 12.9483 17.4788C14.1832 16.9635 15.2373 16.0931 15.977 14.9779C16.7165 13.8631 17.1084 12.5537 17.1031 11.2159C17.1026 9.23366 16.1054 7.39798 14.2291 5.89694C12.5499 4.55358 11.2904 2.53433 10.8728 0.446407ZM17.1031 11.2159L17.1031 11.215L16.5477 11.2173H17.1031V11.2159ZM4.65384 2.47221C4.60193 2.21265 4.37402 2.02581 4.10931 2.02581C3.84461 2.02581 3.6167 2.21265 3.56478 2.47221C3.33287 3.6318 2.64799 4.75206 1.72775 5.48825C0.598705 6.39149 0 7.53671 0 8.7562C0 11.0282 1.84078 12.9099 4.10931 12.9099C6.37785 12.9099 8.21863 11.0282 8.21863 8.7562C8.21863 7.52339 7.60707 6.3988 6.49501 5.49159C5.5771 4.74277 4.88504 3.62821 4.65384 2.47221ZM2.42155 6.35551C3.11902 5.79753 3.7017 5.06564 4.11109 4.2517C4.52235 5.06307 5.10531 5.7912 5.79295 6.35217C6.70667 7.09757 7.108 7.92768 7.108 8.7562C7.108 10.4292 5.75018 11.7993 4.10931 11.7993C2.46845 11.7993 1.11063 10.4292 1.11063 8.7562C1.11063 7.93214 1.50704 7.08711 2.42155 6.35551Z" />
</svg>
