<svg viewBox="0 0 18 18"  xmlns="http://www.w3.org/2000/svg">
<path fill-rule="evenodd" clip-rule="evenodd" d="M9.00041 0C9.2928 0 9.52982 0.237026 9.52982 0.529412V2.22353C9.52982 2.51592 9.2928 2.75294 9.00041 2.75294C8.70803 2.75294 8.471 2.51592 8.471 2.22353V0.529412C8.471 0.237026 8.70803 0 9.00041 0ZM9 6.14118C7.42111 6.14118 6.14118 7.42111 6.14118 9C6.14118 10.5789 7.42111 11.8588 9 11.8588C10.5789 11.8588 11.8588 10.5789 11.8588 9C11.8588 7.42111 10.5789 6.14118 9 6.14118ZM5.08235 9C5.08235 6.83634 6.83634 5.08235 9 5.08235C11.1637 5.08235 12.9176 6.83634 12.9176 9C12.9176 11.1637 11.1637 12.9176 9 12.9176C6.83634 12.9176 5.08235 11.1637 5.08235 9ZM9.52982 15.7765C9.52982 15.4841 9.2928 15.2471 9.00041 15.2471C8.70803 15.2471 8.471 15.4841 8.471 15.7765V17.4706C8.471 17.763 8.70803 18 9.00041 18C9.2928 18 9.52982 17.763 9.52982 17.4706V15.7765ZM2.63792 2.63699C2.84467 2.43024 3.17987 2.43024 3.38662 2.63699L4.58097 3.83134C4.78772 4.03809 4.78772 4.3733 4.58097 4.58004C4.37423 4.78679 4.03902 4.78679 3.83227 4.58004L2.63792 3.38569C2.43117 3.17894 2.43117 2.84374 2.63792 2.63699ZM14.1692 13.42C13.9625 13.2133 13.6273 13.2133 13.4205 13.42C13.2138 13.6268 13.2138 13.962 13.4205 14.1687L14.6149 15.3631C14.8216 15.5698 15.1569 15.5698 15.3636 15.3631C15.5704 15.1563 15.5704 14.8211 15.3636 14.6144L14.1692 13.42ZM0 9.00002C0 8.70764 0.237026 8.47061 0.529412 8.47061H2.22353C2.51592 8.47061 2.75294 8.70764 2.75294 9.00002C2.75294 9.29241 2.51592 9.52944 2.22353 9.52944H0.529412C0.237026 9.52944 0 9.29241 0 9.00002ZM15.7765 8.47061C15.4841 8.47061 15.2471 8.70764 15.2471 9.00002C15.2471 9.29241 15.4841 9.52944 15.7765 9.52944H17.4706C17.763 9.52944 18 9.29241 18 9.00002C18 8.70764 17.763 8.47061 17.4706 8.47061H15.7765ZM4.58097 13.42C4.78772 13.6268 4.78772 13.962 4.58097 14.1687L3.38662 15.3631C3.17987 15.5698 2.84467 15.5698 2.63792 15.3631C2.43117 15.1563 2.43117 14.8211 2.63792 14.6144L3.83227 13.42C4.03902 13.2133 4.37423 13.2133 4.58097 13.42ZM15.3636 3.38569C15.5704 3.17894 15.5704 2.84374 15.3636 2.63699C15.1569 2.43024 14.8216 2.43024 14.6149 2.63699L13.4205 3.83134C13.2138 4.03809 13.2138 4.3733 13.4205 4.58004C13.6273 4.78679 13.9625 4.78679 14.1692 4.58004L15.3636 3.38569Z"/>
</svg>
