<svg width="25" height="25" viewBox="0 0 25 25" fill="none" xmlns="http://www.w3.org/2000/svg">
<path d="M0 2C0 0.89543 0.895432 0 2 0H4.25C5.35457 0 6.25 0.89543 6.25 2V4.25C6.25 5.35457 5.35457 6.25 4.25 6.25H2C0.895432 6.25 0 5.35457 0 4.25V2Z" fill="#033323"/>
<path d="M9.25016 2C9.25016 0.89543 10.1456 0 11.2502 0H13.5002C14.6047 0 15.5002 0.89543 15.5002 2V4.25C15.5002 5.35457 14.6047 6.25 13.5002 6.25H11.2502C10.1456 6.25 9.25016 5.35457 9.25016 4.25V2Z" fill="#033323"/>
<path d="M20.75 0C19.6454 0 18.75 0.89543 18.75 2V4.25C18.75 5.35457 19.6454 6.25 20.75 6.25H23C24.1046 6.25 25 5.35457 25 4.25V2C25 0.89543 24.1046 0 23 0H20.75Z" fill="#033323"/>
<path d="M0 11.25C0 10.1454 0.895432 9.25 2 9.25H4.25C5.35457 9.25 6.25 10.1454 6.25 11.25V13.5C6.25 14.6046 5.35457 15.5 4.25 15.5H2C0.895432 15.5 0 14.6046 0 13.5V11.25Z" fill="#033323"/>
<path d="M11.2502 9.25C10.1456 9.25 9.25016 10.1454 9.25016 11.25V13.5C9.25016 14.6046 10.1456 15.5 11.2502 15.5H13.5002C14.6047 15.5 15.5002 14.6046 15.5002 13.5V11.25C15.5002 10.1454 14.6047 9.25 13.5002 9.25H11.2502Z" fill="#033323"/>
<path d="M18.75 11.25C18.75 10.1454 19.6454 9.25 20.75 9.25H23C24.1046 9.25 25 10.1454 25 11.25V13.5C25 14.6046 24.1046 15.5 23 15.5H20.75C19.6454 15.5 18.75 14.6046 18.75 13.5V11.25Z" fill="#033323"/>
<path d="M2 18.5C0.895432 18.5 0 19.3954 0 20.5V22.75C0 23.8546 0.895432 24.75 2 24.75H4.25C5.35457 24.75 6.25 23.8546 6.25 22.75V20.5C6.25 19.3954 5.35457 18.5 4.25 18.5H2Z" fill="#033323"/>
<path d="M9.25016 20.5C9.25016 19.3954 10.1456 18.5 11.2502 18.5H13.5002C14.6047 18.5 15.5002 19.3954 15.5002 20.5V22.75C15.5002 23.8546 14.6047 24.75 13.5002 24.75H11.2502C10.1456 24.75 9.25016 23.8546 9.25016 22.75V20.5Z" fill="#033323"/>
<path d="M20.75 18.5C19.6454 18.5 18.75 19.3954 18.75 20.5V22.75C18.75 23.8546 19.6454 24.75 20.75 24.75H23C24.1046 24.75 25 23.8546 25 22.75V20.5C25 19.3954 24.1046 18.5 23 18.5H20.75Z" fill="#033323"/>
</svg>
