<svg width="24" height="24" viewBox="0 0 24 24" fill="none" xmlns="http://www.w3.org/2000/svg">
<g clip-path="url(#clip0_1174_216)">
<path d="M5.97933 13.7867C5.158 13.7867 4.43078 13.5642 3.79767 13.1193C3.16456 12.6744 2.66833 12.0756 2.309 11.3227C1.94967 10.5698 1.77 9.73133 1.77 8.80733C1.77 7.86622 1.94967 7.01922 2.309 6.26633C2.66833 5.51344 3.16456 4.91455 3.79767 4.46967C4.43078 4.02478 5.158 3.80233 5.97933 3.80233C6.81778 3.80233 7.545 4.02478 8.161 4.46967C8.79411 4.91455 9.28178 5.51344 9.624 6.26633C9.98333 7.01922 10.163 7.86622 10.163 8.80733C10.163 9.73133 9.97478 10.5698 9.59833 11.3227C9.22189 12.0756 8.71711 12.6744 8.084 13.1193C7.468 13.5642 6.76644 13.7867 5.97933 13.7867ZM5.97933 11.5023C6.49267 11.5023 6.88622 11.2457 7.16 10.7323C7.45089 10.219 7.59633 9.57733 7.59633 8.80733C7.59633 8.03733 7.45944 7.39567 7.18567 6.88233C6.91189 6.369 6.50978 6.11233 5.97933 6.11233C5.466 6.11233 5.06389 6.369 4.773 6.88233C4.48211 7.39567 4.33667 8.03733 4.33667 8.80733C4.33667 9.57733 4.47356 10.219 4.74733 10.7323C5.03822 11.2457 5.44889 11.5023 5.97933 11.5023ZM16.9903 22.2567C16.2032 22.2567 15.4931 22.0342 14.86 21.5893C14.2269 21.1444 13.7221 20.5456 13.3457 19.7927C12.9692 19.0398 12.781 18.2013 12.781 17.2773C12.781 16.3362 12.9607 15.4892 13.32 14.7363C13.6793 13.9834 14.1756 13.3846 14.8087 12.9397C15.4418 12.4948 16.169 12.2723 16.9903 12.2723C17.8288 12.2723 18.556 12.4948 19.172 12.9397C19.8051 13.3846 20.2928 13.9834 20.635 14.7363C20.9943 15.4892 21.174 16.3362 21.174 17.2773C21.174 18.2013 20.9858 19.0398 20.6093 19.7927C20.2329 20.5456 19.7281 21.1444 19.095 21.5893C18.479 22.0342 17.7774 22.2567 16.9903 22.2567ZM16.9903 19.9723C17.5037 19.9723 17.8972 19.7157 18.171 19.2023C18.4619 18.689 18.6073 18.0473 18.6073 17.2773C18.6073 16.5073 18.4704 15.8657 18.1967 15.3523C17.9229 14.839 17.5208 14.5823 16.9903 14.5823C16.477 14.5823 16.0749 14.839 15.784 15.3523C15.4931 15.8657 15.3477 16.5073 15.3477 17.2773C15.3477 18.0473 15.4846 18.689 15.7583 19.2023C16.0492 19.7157 16.4599 19.9723 16.9903 19.9723ZM6.28733 22.0513C6.01356 22.0513 5.72267 21.9401 5.41467 21.7177C5.10667 21.4781 4.95267 21.1701 4.95267 20.7937C4.95267 20.5712 5.03822 20.3146 5.20933 20.0237L15.4247 4.598C15.7327 4.18733 16.0834 3.982 16.477 3.982C16.7679 3.982 17.0588 4.09322 17.3497 4.31567C17.6577 4.53811 17.8117 4.84611 17.8117 5.23966C17.8117 5.46211 17.7261 5.71878 17.555 6.00967L7.33967 21.4353C7.03167 21.846 6.68089 22.0513 6.28733 22.0513Z" fill="#1E6F5C"/>
</g>
<defs>
<clipPath id="clip0_1174_216">
<rect width="24" height="24" fill="white"/>
</clipPath>
</defs>
</svg>
