<svg  viewBox="0 0 429 374" fill="none" xmlns="http://www.w3.org/2000/svg">
<path d="M273.147 268.447H176.917L161.074 297.198L187.772 342.966H230.019L273.147 268.447Z" fill="#EBB662"/>
<path d="M160.486 240.868L176.915 268.447L161.072 297.198L43.7188 296.905L75.991 240.868H160.486Z" fill="#CD760F"/>
<path d="M33.4531 314.801L129.096 371.718L213.884 372.011L229.727 343.259L187.773 342.966L161.075 297.198L43.7216 296.905L33.4531 314.801Z" fill="#EBB662"/>
<path d="M273.149 268.447H367.5L405.5 334.458H364.098L342.681 372.304L213.883 372.011L230.022 342.966L273.149 268.447Z" fill="#EBB662"/>
<path d="M361.456 372.305H342.68L364.099 334.458H406.051L428.054 372.305H392.848H361.456Z" fill="#EBB662"/>
<path d="M64.2551 372.011H129.093L33.4498 315.095L22.0078 335.045L64.2551 372.011Z" fill="#EBB662"/>
<path d="M1.47266 371.131L22.0095 335.044L63.6701 371.424L1.47266 371.131Z" fill="#EBB662"/>
<path d="M213.881 1.46704L118.238 167.229L150.605 223.559L257.009 223.265L299.843 149.919L213.881 1.46704Z" fill="#704731"/>
<path d="M257.01 223.559H150.512L177.21 268.153L282.828 267.86L257.01 223.559Z" fill="#CD760F"/>
<path d="M300.136 150.213L341.796 223.265L256.715 223.559L300.136 150.213Z" fill="#704731"/>
<path d="M257.305 223.265H342.093L367.91 267.86H282.829L257.305 223.265Z" fill="#CD760F"/>
<path d="M118.238 168.109L77.1641 240.282L160.778 240.868L118.238 168.109Z" fill="#704731"/>
<path fill-rule="evenodd" clip-rule="evenodd" d="M214.052 9.29557e-08C214.5 -0.000172119 214.914 0.238951 215.138 0.627063L428.833 371.688C429.056 372.076 429.056 372.553 428.831 372.94C428.607 373.327 428.193 373.565 427.746 373.564L1.24915 372.67C0.802817 372.669 0.390749 372.431 0.16763 372.044C-0.055489 371.658 -0.0559019 371.182 0.166546 370.795L212.968 0.627898C213.191 0.239614 213.605 0.000172445 214.052 9.29557e-08ZM34.3771 316.309L23.5922 335.069L64.3534 370.299L125.547 370.427L34.3771 316.309ZM35.1571 314.952L128.623 370.434L214.501 370.614L213.851 370.249L228.826 343.578H187.179L160.806 297.665H45.0951L35.1571 314.952ZM230.839 343.19L215.44 370.616L342.642 370.882L363.272 334.732L282.721 269.187H273.956L230.845 343.179L230.839 343.19ZM404.076 333.717L364.558 333.761L285.2 269.187H366.913L404.076 333.717ZM229.713 342.014L272.145 269.187H177.411L162.156 296.874L188.084 342.014H229.713ZM281.732 267.622H177.395L161.252 240.418L161.246 240.407L151.967 224.178H256.258L281.732 267.622ZM256.256 222.613L298.334 150.105L214.054 3.76171L119.742 167.817L151.072 222.613H256.256ZM283.546 267.622H366.012L340.992 224.178H258.072L283.546 267.622ZM258.065 222.613L299.235 151.67L340.091 222.613H258.065ZM78.2319 240.024H159.224L118.838 169.389L78.2319 240.024ZM160.128 241.588H77.3324L45.9947 296.1H160.796L176.048 268.419L160.128 241.588ZM3.41265 370.171L22.7979 336.451L61.9547 370.294L3.41265 370.171ZM404.977 335.28L364.735 335.326L344.441 370.886L425.58 371.056L404.977 335.28Z" fill="#2D2D2D"/>
<path fill-rule="evenodd" clip-rule="evenodd" d="M214.052 9.29555e-08C214.5 -0.000172119 214.914 0.238951 215.138 0.627063L428.833 371.688C429.056 372.076 429.056 372.553 428.831 372.94C428.607 373.327 428.193 373.565 427.746 373.564L1.24915 372.67C0.802817 372.669 0.390749 372.431 0.16763 372.044C-0.0554889 371.658 -0.0559019 371.182 0.166546 370.795L212.968 0.627898C213.191 0.239614 213.605 0.000172445 214.052 9.29555e-08ZM34.3771 316.309L23.5922 335.069L64.3534 370.299L125.547 370.427L34.3771 316.309ZM35.1571 314.952L128.623 370.434L214.501 370.614L213.851 370.249L228.826 343.578H187.179L160.806 297.665H45.0951L35.1571 314.952ZM230.839 343.19L215.44 370.616L342.642 370.882L363.272 334.732L282.721 269.187H273.956L230.845 343.179L230.839 343.19ZM404.076 333.717L364.558 333.761L363.353 332.781L285.2 269.187H366.913L404.076 333.717ZM229.713 342.014L272.145 269.187H177.411L162.156 296.874L188.084 342.014H229.713ZM281.732 267.622H177.395L161.252 240.418L161.246 240.407L151.967 224.178H256.258L281.732 267.622ZM256.256 222.613L298.334 150.105L214.054 3.76171L119.742 167.817L151.072 222.613H256.256ZM283.546 267.622H366.012L340.992 224.178H258.072L283.546 267.622ZM258.065 222.613L299.235 151.67L340.091 222.613H258.065ZM78.2319 240.024H159.224L118.838 169.389L78.2319 240.024ZM160.128 241.588H77.3324L45.9947 296.1H160.796L176.048 268.419L160.128 241.588ZM3.41265 370.171L22.7979 336.451L61.9547 370.294L3.41265 370.171ZM404.977 335.28L364.735 335.326L344.441 370.886L425.58 371.056L404.977 335.28Z" fill="#2D2D2D"/>
<path d="M304.563 273.81L368.594 328.887L366 332.5L362.5 336L351.85 334.478L273.335 271.342L282.5 269L287.5 269L304.563 273.81Z" fill="#EBB662"/>
<path d="M373.83 351.455C373.778 351.023 373.571 350.688 373.207 350.449C372.844 350.21 372.398 350.091 371.869 350.091C371.483 350.091 371.145 350.153 370.855 350.278C370.568 350.403 370.344 350.575 370.182 350.794C370.023 351.013 369.943 351.261 369.943 351.54C369.943 351.773 369.999 351.973 370.109 352.141C370.223 352.305 370.368 352.443 370.544 352.554C370.72 352.662 370.905 352.751 371.098 352.822C371.291 352.891 371.469 352.946 371.631 352.989L372.517 353.227C372.744 353.287 372.997 353.369 373.276 353.474C373.557 353.58 373.825 353.723 374.081 353.905C374.339 354.084 374.553 354.314 374.72 354.595C374.888 354.876 374.972 355.222 374.972 355.631C374.972 356.102 374.848 356.528 374.601 356.909C374.357 357.29 373.999 357.592 373.527 357.817C373.058 358.041 372.489 358.153 371.818 358.153C371.193 358.153 370.652 358.053 370.195 357.851C369.74 357.649 369.382 357.368 369.121 357.007C368.862 356.646 368.716 356.227 368.682 355.75H369.773C369.801 356.08 369.912 356.352 370.105 356.568C370.301 356.781 370.548 356.94 370.847 357.045C371.148 357.148 371.472 357.199 371.818 357.199C372.222 357.199 372.584 357.134 372.905 357.003C373.226 356.869 373.48 356.685 373.668 356.449C373.855 356.21 373.949 355.932 373.949 355.614C373.949 355.324 373.868 355.088 373.706 354.906C373.544 354.724 373.331 354.577 373.067 354.463C372.803 354.349 372.517 354.25 372.21 354.165L371.136 353.858C370.455 353.662 369.915 353.382 369.517 353.018C369.119 352.655 368.92 352.179 368.92 351.591C368.92 351.102 369.053 350.676 369.317 350.312C369.584 349.946 369.942 349.662 370.391 349.46C370.842 349.256 371.347 349.153 371.903 349.153C372.466 349.153 372.966 349.254 373.403 349.456C373.841 349.655 374.188 349.928 374.443 350.274C374.702 350.621 374.838 351.014 374.852 351.455H373.83ZM377.766 349.273V358H376.709V349.273H377.766ZM379.885 358V349.273H380.942V357.062H384.999V358H379.885ZM384.998 350.21V349.273H391.543V350.21H388.799V358H387.742V350.21H384.998Z" fill="white"/>
<path d="M289.83 325.455C289.778 325.023 289.571 324.688 289.207 324.449C288.844 324.21 288.398 324.091 287.869 324.091C287.483 324.091 287.145 324.153 286.855 324.278C286.568 324.403 286.344 324.575 286.182 324.794C286.023 325.013 285.943 325.261 285.943 325.54C285.943 325.773 285.999 325.973 286.109 326.141C286.223 326.305 286.368 326.443 286.544 326.554C286.72 326.662 286.905 326.751 287.098 326.822C287.291 326.891 287.469 326.946 287.631 326.989L288.517 327.227C288.744 327.287 288.997 327.369 289.276 327.474C289.557 327.58 289.825 327.723 290.081 327.905C290.339 328.084 290.553 328.314 290.72 328.595C290.888 328.876 290.972 329.222 290.972 329.631C290.972 330.102 290.848 330.528 290.601 330.909C290.357 331.29 289.999 331.592 289.527 331.817C289.058 332.041 288.489 332.153 287.818 332.153C287.193 332.153 286.652 332.053 286.195 331.851C285.74 331.649 285.382 331.368 285.121 331.007C284.862 330.646 284.716 330.227 284.682 329.75H285.773C285.801 330.08 285.912 330.352 286.105 330.568C286.301 330.781 286.548 330.94 286.847 331.045C287.148 331.148 287.472 331.199 287.818 331.199C288.222 331.199 288.584 331.134 288.905 331.003C289.226 330.869 289.48 330.685 289.668 330.449C289.855 330.21 289.949 329.932 289.949 329.614C289.949 329.324 289.868 329.088 289.706 328.906C289.544 328.724 289.331 328.577 289.067 328.463C288.803 328.349 288.517 328.25 288.21 328.165L287.136 327.858C286.455 327.662 285.915 327.382 285.517 327.018C285.119 326.655 284.92 326.179 284.92 325.591C284.92 325.102 285.053 324.676 285.317 324.312C285.584 323.946 285.942 323.662 286.391 323.46C286.842 323.256 287.347 323.153 287.903 323.153C288.466 323.153 288.966 323.254 289.403 323.456C289.841 323.655 290.188 323.928 290.443 324.274C290.702 324.621 290.838 325.014 290.852 325.455H289.83ZM293.766 323.273V332H292.709V323.273H293.766ZM295.885 332V323.273H296.942V331.062H300.999V332H295.885ZM300.998 324.21V323.273H307.543V324.21H304.799V332H303.742V324.21H300.998Z" fill="white"/>
<path d="M198.057 303V294.273H199.114V302.062H203.17V303H198.057ZM211.831 298.636C211.831 299.557 211.664 300.352 211.332 301.023C211 301.693 210.544 302.21 209.964 302.574C209.385 302.938 208.723 303.119 207.978 303.119C207.234 303.119 206.572 302.938 205.993 302.574C205.413 302.21 204.957 301.693 204.625 301.023C204.292 300.352 204.126 299.557 204.126 298.636C204.126 297.716 204.292 296.92 204.625 296.25C204.957 295.58 205.413 295.062 205.993 294.699C206.572 294.335 207.234 294.153 207.978 294.153C208.723 294.153 209.385 294.335 209.964 294.699C210.544 295.062 211 295.58 211.332 296.25C211.664 296.92 211.831 297.716 211.831 298.636ZM210.808 298.636C210.808 297.881 210.681 297.243 210.429 296.723C210.179 296.203 209.839 295.81 209.41 295.543C208.984 295.276 208.507 295.142 207.978 295.142C207.45 295.142 206.971 295.276 206.542 295.543C206.116 295.81 205.777 296.203 205.524 296.723C205.274 297.243 205.149 297.881 205.149 298.636C205.149 299.392 205.274 300.03 205.524 300.55C205.777 301.07 206.116 301.463 206.542 301.73C206.971 301.997 207.45 302.131 207.978 302.131C208.507 302.131 208.984 301.997 209.41 301.73C209.839 301.463 210.179 301.07 210.429 300.55C210.681 300.03 210.808 299.392 210.808 298.636ZM213.555 303H212.447L215.652 294.273H216.743L219.947 303H218.839L216.232 295.653H216.163L213.555 303ZM213.964 299.591H218.43V300.528H213.964V299.591ZM221.307 294.273H222.568L225.534 301.517H225.636L228.602 294.273H229.864V303H228.875V296.369H228.79L226.062 303H225.108L222.381 296.369H222.295V303H221.307V294.273Z" fill="white"/>
<path d="M94.8295 328.455C94.7784 328.023 94.571 327.688 94.2074 327.449C93.8438 327.21 93.3977 327.091 92.8693 327.091C92.483 327.091 92.1449 327.153 91.8551 327.278C91.5682 327.403 91.3438 327.575 91.1818 327.794C91.0227 328.013 90.9432 328.261 90.9432 328.54C90.9432 328.773 90.9986 328.973 91.1094 329.141C91.223 329.305 91.3679 329.443 91.544 329.554C91.7202 329.662 91.9048 329.751 92.098 329.822C92.2912 329.891 92.4688 329.946 92.6307 329.989L93.517 330.227C93.7443 330.287 93.9972 330.369 94.2756 330.474C94.5568 330.58 94.8253 330.723 95.081 330.905C95.3395 331.084 95.5526 331.314 95.7202 331.595C95.8878 331.876 95.9716 332.222 95.9716 332.631C95.9716 333.102 95.848 333.528 95.6009 333.909C95.3565 334.29 94.9986 334.592 94.527 334.817C94.0582 335.041 93.4886 335.153 92.8182 335.153C92.1932 335.153 91.652 335.053 91.1946 334.851C90.7401 334.649 90.3821 334.368 90.1207 334.007C89.8622 333.646 89.7159 333.227 89.6818 332.75H90.7727C90.8011 333.08 90.9119 333.352 91.1051 333.568C91.3011 333.781 91.5483 333.94 91.8466 334.045C92.1477 334.148 92.4716 334.199 92.8182 334.199C93.2216 334.199 93.5838 334.134 93.9048 334.003C94.2259 333.869 94.4801 333.685 94.6676 333.449C94.8551 333.21 94.9489 332.932 94.9489 332.614C94.9489 332.324 94.8679 332.088 94.706 331.906C94.544 331.724 94.331 331.577 94.0668 331.463C93.8026 331.349 93.517 331.25 93.2102 331.165L92.1364 330.858C91.4545 330.662 90.9148 330.382 90.517 330.018C90.1193 329.655 89.9205 329.179 89.9205 328.591C89.9205 328.102 90.0526 327.676 90.3168 327.312C90.5838 326.946 90.9418 326.662 91.3906 326.46C91.8423 326.256 92.3466 326.153 92.9034 326.153C93.4659 326.153 93.9659 326.254 94.4034 326.456C94.8409 326.655 95.1875 326.928 95.4432 327.274C95.7017 327.621 95.8381 328.014 95.8523 328.455H94.8295ZM98.0671 335H96.9592L100.164 326.273H101.255L104.459 335H103.351L100.743 327.653H100.675L98.0671 335ZM98.4762 331.591H102.942V332.528H98.4762V331.591ZM112.739 326.273V335H111.716L106.961 328.148H106.875V335H105.819V326.273H106.841L111.614 333.142H111.699V326.273H112.739ZM117.547 335H114.854V326.273H117.666C118.513 326.273 119.237 326.447 119.839 326.797C120.442 327.143 120.903 327.642 121.224 328.293C121.545 328.94 121.706 329.716 121.706 330.619C121.706 331.528 121.544 332.311 121.22 332.967C120.896 333.621 120.425 334.124 119.805 334.476C119.186 334.825 118.433 335 117.547 335ZM115.911 334.062H117.479C118.2 334.062 118.798 333.923 119.273 333.645C119.747 333.366 120.101 332.97 120.334 332.456C120.567 331.942 120.683 331.33 120.683 330.619C120.683 329.915 120.568 329.308 120.338 328.8C120.108 328.288 119.764 327.896 119.307 327.624C118.849 327.348 118.28 327.21 117.598 327.21H115.911V334.062ZM122.319 326.273H123.529L125.949 330.347H126.051L128.472 326.273H129.682L126.529 331.403V335H125.472V331.403L122.319 326.273ZM134.424 335V326.273H135.481V334.062H139.538V335H134.424ZM148.198 330.636C148.198 331.557 148.032 332.352 147.699 333.023C147.367 333.693 146.911 334.21 146.331 334.574C145.752 334.938 145.09 335.119 144.346 335.119C143.601 335.119 142.939 334.938 142.36 334.574C141.78 334.21 141.324 333.693 140.992 333.023C140.659 332.352 140.493 331.557 140.493 330.636C140.493 329.716 140.659 328.92 140.992 328.25C141.324 327.58 141.78 327.062 142.36 326.699C142.939 326.335 143.601 326.153 144.346 326.153C145.09 326.153 145.752 326.335 146.331 326.699C146.911 327.062 147.367 327.58 147.699 328.25C148.032 328.92 148.198 329.716 148.198 330.636ZM147.175 330.636C147.175 329.881 147.049 329.243 146.796 328.723C146.546 328.203 146.206 327.81 145.777 327.543C145.351 327.276 144.874 327.142 144.346 327.142C143.817 327.142 143.338 327.276 142.909 327.543C142.483 327.81 142.144 328.203 141.891 328.723C141.641 329.243 141.516 329.881 141.516 330.636C141.516 331.392 141.641 332.03 141.891 332.55C142.144 333.07 142.483 333.463 142.909 333.73C143.338 333.997 143.817 334.131 144.346 334.131C144.874 334.131 145.351 333.997 145.777 333.73C146.206 333.463 146.546 333.07 146.796 332.55C147.049 332.03 147.175 331.392 147.175 330.636ZM149.923 335H148.815L152.019 326.273H153.11L156.315 335H155.207L152.599 327.653H152.531L149.923 335ZM150.332 331.591H154.798V332.528H150.332V331.591ZM157.674 326.273H158.935L161.901 333.517H162.004L164.969 326.273H166.231V335H165.242V328.369H165.157L162.43 335H161.475L158.748 328.369H158.663V335H157.674V326.273Z" fill="white"/>
<path d="M32.3233 332.136L36.2486 325.337L37.0719 325.812L33.5683 331.881L36.7286 333.705L36.307 334.436L32.3233 332.136ZM45.0162 334.931C44.6022 335.648 44.1149 336.193 43.5544 336.566C42.994 336.939 42.4062 337.137 41.7911 337.159C41.1761 337.182 40.5787 337.026 39.9988 336.691C39.419 336.356 38.9851 335.917 38.6971 335.373C38.4092 334.829 38.2866 334.221 38.3292 333.549C38.3718 332.877 38.6001 332.183 39.0141 331.466C39.4281 330.749 39.9153 330.204 40.4758 329.831C41.0363 329.458 41.6241 329.261 42.2391 329.238C42.8542 329.215 43.4516 329.371 44.0315 329.706C44.6113 330.041 45.0452 330.48 45.3331 331.024C45.6211 331.568 45.7437 332.176 45.7011 332.848C45.6585 333.52 45.4302 334.214 45.0162 334.931ZM44.2194 334.471C44.5593 333.883 44.7477 333.329 44.7846 332.81C44.8236 332.293 44.7361 331.833 44.5221 331.432C44.3102 331.033 43.9984 330.714 43.5868 330.476C43.1751 330.239 42.7422 330.127 42.2879 330.143C41.8358 330.159 41.3943 330.313 40.9635 330.604C40.535 330.897 40.1507 331.337 39.8108 331.926C39.4709 332.515 39.2815 333.068 39.2424 333.585C39.2055 334.104 39.293 334.563 39.5049 334.963C39.719 335.364 40.0318 335.683 40.4435 335.921C40.8551 336.158 41.287 336.269 41.7391 336.253C42.1934 336.238 42.6348 336.084 43.0634 335.791C43.4942 335.5 43.8796 335.06 44.2194 334.471ZM44.3972 339.106L43.5341 338.608L49.9558 333.251L50.8057 333.741L49.3768 341.981L48.5137 341.483L49.7863 334.587L49.7332 334.556L44.3972 339.106ZM46.2492 336.635L49.7283 338.643L49.3066 339.374L45.8276 337.365L46.2492 336.635ZM54.3611 335.794L55.3438 336.361L54.396 343.339L54.4757 343.385L60.0445 339.075L61.0272 339.643L57.1018 346.441L56.3317 345.997L59.314 340.831L59.2476 340.793L54.1406 344.732L53.397 344.303L54.2547 337.91L54.1883 337.872L51.206 343.038L50.4358 342.593L54.3611 335.794ZM62.0936 340.258L63.0364 340.803L63.0897 345.065L63.1694 345.111L66.8873 343.026L67.8301 343.57L63.0659 346.149L61.4482 348.951L60.6249 348.476L62.2426 345.674L62.0936 340.258ZM74.261 349.549C74.4153 349.19 74.4046 348.836 74.2286 348.486C74.0527 348.137 73.7589 347.843 73.3472 347.605C73.0462 347.432 72.7547 347.328 72.4728 347.295C72.193 347.264 71.9409 347.297 71.7163 347.394C71.494 347.493 71.3202 347.651 71.195 347.868C71.0902 348.049 71.0433 348.23 71.0542 348.411C71.0687 348.59 71.1196 348.763 71.2069 348.928C71.2956 349.092 71.3992 349.244 71.5178 349.387C71.6376 349.527 71.751 349.65 71.858 349.756L72.4412 350.34C72.5914 350.489 72.7513 350.667 72.9209 350.874C73.0927 351.082 73.2373 351.315 73.3547 351.571C73.4756 351.827 73.5381 352.102 73.5422 352.397C73.5463 352.691 73.4563 352.998 73.2723 353.316C73.0602 353.684 72.7723 353.96 72.4085 354.146C72.047 354.332 71.632 354.407 71.1637 354.37C70.6976 354.334 70.2034 354.165 69.6811 353.863C69.1942 353.582 68.8179 353.26 68.5523 352.898C68.2889 352.536 68.1366 352.156 68.0952 351.757C68.0561 351.36 68.1306 350.968 68.3187 350.58L69.1686 351.071C69.0425 351.341 69.0061 351.603 69.0595 351.858C69.1164 352.112 69.2374 352.347 69.4225 352.563C69.6111 352.778 69.8404 352.964 70.1104 353.12C70.4247 353.301 70.7362 353.413 71.0451 353.456C71.3552 353.496 71.6364 353.467 71.8885 353.367C72.1419 353.266 72.3401 353.091 72.4833 352.843C72.6136 352.617 72.6566 352.397 72.6122 352.183C72.5678 351.968 72.4683 351.757 72.3136 351.55C72.1589 351.343 71.9812 351.137 71.7805 350.933L71.0819 350.21C70.6389 349.751 70.3443 349.29 70.198 348.828C70.0517 348.366 70.1108 347.906 70.3753 347.448C70.5951 347.067 70.8896 346.794 71.259 346.63C71.6319 346.465 72.0385 346.404 72.4789 346.449C72.9228 346.493 73.3616 346.64 73.7954 346.89C74.2336 347.143 74.5778 347.447 74.8279 347.801C75.0793 348.153 75.2266 348.521 75.2699 348.906C75.3154 349.292 75.2447 349.66 75.0577 350.009L74.261 349.549ZM73.8392 356.105L72.976 355.606L79.3978 350.249L80.2476 350.74L78.8188 358.98L77.9556 358.481L79.2283 351.585L79.1751 351.555L73.8392 356.105ZM75.6912 353.633L79.1703 355.642L78.7486 356.372L75.2695 354.363L75.6912 353.633ZM89.1943 355.905L85.269 362.704L84.4723 362.244L83.8494 354.767L83.783 354.728L80.7011 360.066L79.8778 359.591L83.8031 352.792L84.5998 353.252L85.2283 360.75L85.2947 360.789L88.3843 355.437L89.1943 355.905ZM89.0145 364.866L86.9164 363.655L90.8418 356.856L93.0328 358.121C93.6923 358.502 94.1781 358.964 94.4901 359.507C94.8034 360.048 94.9388 360.644 94.8963 361.295C94.855 361.944 94.6312 362.62 94.2249 363.324C93.816 364.032 93.3379 364.569 92.7904 364.935C92.2442 365.298 91.6506 365.478 91.0097 365.474C90.3701 365.467 89.705 365.265 89.0145 364.866ZM88.1614 363.4L89.3831 364.105C89.9452 364.43 90.4737 364.59 90.9685 364.587C91.4633 364.583 91.9171 364.434 92.3299 364.138C92.7426 363.842 93.1087 363.418 93.4282 362.864C93.7451 362.315 93.9282 361.791 93.9777 361.291C94.0284 360.79 93.937 360.33 93.7033 359.911C93.4709 359.491 93.0892 359.127 92.558 358.821L91.2434 358.062L88.1614 363.4Z" fill="white"/>
<path d="M16.8295 358.455C16.7784 358.023 16.571 357.688 16.2074 357.449C15.8438 357.21 15.3977 357.091 14.8693 357.091C14.483 357.091 14.1449 357.153 13.8551 357.278C13.5682 357.403 13.3438 357.575 13.1818 357.794C13.0227 358.013 12.9432 358.261 12.9432 358.54C12.9432 358.773 12.9986 358.973 13.1094 359.141C13.223 359.305 13.3679 359.443 13.544 359.554C13.7202 359.662 13.9048 359.751 14.098 359.822C14.2912 359.891 14.4688 359.946 14.6307 359.989L15.517 360.227C15.7443 360.287 15.9972 360.369 16.2756 360.474C16.5568 360.58 16.8253 360.723 17.081 360.905C17.3395 361.084 17.5526 361.314 17.7202 361.595C17.8878 361.876 17.9716 362.222 17.9716 362.631C17.9716 363.102 17.848 363.528 17.6009 363.909C17.3565 364.29 16.9986 364.592 16.527 364.817C16.0582 365.041 15.4886 365.153 14.8182 365.153C14.1932 365.153 13.652 365.053 13.1946 364.851C12.7401 364.649 12.3821 364.368 12.1207 364.007C11.8622 363.646 11.7159 363.227 11.6818 362.75H12.7727C12.8011 363.08 12.9119 363.352 13.1051 363.568C13.3011 363.781 13.5483 363.94 13.8466 364.045C14.1477 364.148 14.4716 364.199 14.8182 364.199C15.2216 364.199 15.5838 364.134 15.9048 364.003C16.2259 363.869 16.4801 363.685 16.6676 363.449C16.8551 363.21 16.9489 362.932 16.9489 362.614C16.9489 362.324 16.8679 362.088 16.706 361.906C16.544 361.724 16.331 361.577 16.0668 361.463C15.8026 361.349 15.517 361.25 15.2102 361.165L14.1364 360.858C13.4545 360.662 12.9148 360.382 12.517 360.018C12.1193 359.655 11.9205 359.179 11.9205 358.591C11.9205 358.102 12.0526 357.676 12.3168 357.312C12.5838 356.946 12.9418 356.662 13.3906 356.46C13.8423 356.256 14.3466 356.153 14.9034 356.153C15.4659 356.153 15.9659 356.254 16.4034 356.456C16.8409 356.655 17.1875 356.928 17.4432 357.274C17.7017 357.621 17.8381 358.014 17.8523 358.455H16.8295ZM20.0671 365H18.9592L22.1637 356.273H23.2546L26.4592 365H25.3512L22.7433 357.653H22.6751L20.0671 365ZM20.4762 361.591H24.9421V362.528H20.4762V361.591ZM34.739 356.273V365H33.7163L28.9606 358.148H28.8754V365H27.8185V356.273H28.8413L33.614 363.142H33.6992V356.273H34.739ZM39.5469 365H36.8537V356.273H39.6662C40.5128 356.273 41.2372 356.447 41.8395 356.797C42.4418 357.143 42.9034 357.642 43.2244 358.293C43.5455 358.94 43.706 359.716 43.706 360.619C43.706 361.528 43.544 362.311 43.2202 362.967C42.8963 363.621 42.4247 364.124 41.8054 364.476C41.1861 364.825 40.4332 365 39.5469 365ZM37.9105 364.062H39.4787C40.2003 364.062 40.7983 363.923 41.2727 363.645C41.7472 363.366 42.1009 362.97 42.3338 362.456C42.5668 361.942 42.6832 361.33 42.6832 360.619C42.6832 359.915 42.5682 359.308 42.3381 358.8C42.108 358.288 41.7642 357.896 41.3068 357.624C40.8494 357.348 40.2798 357.21 39.598 357.21H37.9105V364.062Z" fill="white"/>
<path d="M87.0307 262.455C86.9796 262.023 86.7722 261.688 86.4086 261.449C86.0449 261.21 85.5989 261.091 85.0705 261.091C84.6841 261.091 84.3461 261.153 84.0563 261.278C83.7694 261.403 83.5449 261.575 83.383 261.794C83.2239 262.013 83.1444 262.261 83.1444 262.54C83.1444 262.773 83.1998 262.973 83.3105 263.141C83.4242 263.305 83.5691 263.443 83.7452 263.554C83.9213 263.662 84.106 263.751 84.2992 263.822C84.4924 263.891 84.6699 263.946 84.8319 263.989L85.7182 264.227C85.9455 264.287 86.1983 264.369 86.4767 264.474C86.758 264.58 87.0265 264.723 87.2821 264.905C87.5407 265.084 87.7537 265.314 87.9213 265.595C88.089 265.876 88.1728 266.222 88.1728 266.631C88.1728 267.102 88.0492 267.528 87.802 267.909C87.5577 268.29 87.1998 268.592 86.7282 268.817C86.2594 269.041 85.6898 269.153 85.0194 269.153C84.3944 269.153 83.8532 269.053 83.3958 268.851C82.9412 268.649 82.5833 268.368 82.3219 268.007C82.0634 267.646 81.9171 267.227 81.883 266.75H82.9739C83.0023 267.08 83.1131 267.352 83.3063 267.568C83.5023 267.781 83.7495 267.94 84.0478 268.045C84.3489 268.148 84.6728 268.199 85.0194 268.199C85.4228 268.199 85.785 268.134 86.106 268.003C86.427 267.869 86.6813 267.685 86.8688 267.449C87.0563 267.21 87.15 266.932 87.15 266.614C87.15 266.324 87.0691 266.088 86.9071 265.906C86.7452 265.724 86.5321 265.577 86.2679 265.463C86.0037 265.349 85.7182 265.25 85.4114 265.165L84.3375 264.858C83.6557 264.662 83.1159 264.382 82.7182 264.018C82.3205 263.655 82.1216 263.179 82.1216 262.591C82.1216 262.102 82.2537 261.676 82.5179 261.312C82.785 260.946 83.1429 260.662 83.5918 260.46C84.0435 260.256 84.5478 260.153 85.1046 260.153C85.6671 260.153 86.1671 260.254 86.6046 260.456C87.0421 260.655 87.3887 260.928 87.6444 261.274C87.9029 261.621 88.0392 262.014 88.0534 262.455H87.0307ZM90.2683 269H89.1603L92.3649 260.273H93.4558L96.6603 269H95.5524L92.9444 261.653H92.8762L90.2683 269ZM90.6774 265.591H95.1433V266.528H90.6774V265.591ZM104.94 260.273V269H103.917L99.1618 262.148H99.0765V269H98.0197V260.273H99.0424L103.815 267.142H103.9V260.273H104.94ZM109.748 269H107.055V260.273H109.867C110.714 260.273 111.438 260.447 112.041 260.797C112.643 261.143 113.105 261.642 113.426 262.293C113.747 262.94 113.907 263.716 113.907 264.619C113.907 265.528 113.745 266.311 113.421 266.967C113.097 267.621 112.626 268.124 112.007 268.476C111.387 268.825 110.634 269 109.748 269ZM108.112 268.062H109.68C110.401 268.062 110.999 267.923 111.474 267.645C111.948 267.366 112.302 266.97 112.535 266.456C112.768 265.942 112.884 265.33 112.884 264.619C112.884 263.915 112.769 263.308 112.539 262.8C112.309 262.288 111.965 261.896 111.508 261.624C111.051 261.348 110.481 261.21 109.799 261.21H108.112V268.062ZM114.52 260.273H115.73L118.15 264.347H118.253L120.673 260.273H121.883L118.73 265.403V269H117.673V265.403L114.52 260.273ZM133.648 263H132.591C132.529 262.696 132.419 262.429 132.263 262.199C132.11 261.969 131.922 261.776 131.7 261.619C131.482 261.46 131.239 261.341 130.972 261.261C130.705 261.182 130.426 261.142 130.137 261.142C129.608 261.142 129.129 261.276 128.7 261.543C128.274 261.81 127.935 262.203 127.682 262.723C127.432 263.243 127.307 263.881 127.307 264.636C127.307 265.392 127.432 266.03 127.682 266.55C127.935 267.07 128.274 267.463 128.7 267.73C129.129 267.997 129.608 268.131 130.137 268.131C130.426 268.131 130.705 268.091 130.972 268.011C131.239 267.932 131.482 267.814 131.7 267.658C131.922 267.499 132.11 267.304 132.263 267.074C132.419 266.841 132.529 266.574 132.591 266.273H133.648C133.568 266.719 133.423 267.118 133.213 267.47C133.003 267.822 132.742 268.122 132.429 268.369C132.117 268.614 131.766 268.8 131.377 268.928C130.99 269.055 130.577 269.119 130.137 269.119C129.392 269.119 128.73 268.938 128.151 268.574C127.571 268.21 127.115 267.693 126.783 267.023C126.45 266.352 126.284 265.557 126.284 264.636C126.284 263.716 126.45 262.92 126.783 262.25C127.115 261.58 127.571 261.062 128.151 260.699C128.73 260.335 129.392 260.153 130.137 260.153C130.577 260.153 130.99 260.217 131.377 260.345C131.766 260.473 132.117 260.661 132.429 260.908C132.742 261.152 133.003 261.45 133.213 261.803C133.423 262.152 133.568 262.551 133.648 263ZM135.356 269V260.273H136.412V268.062H140.469V269H135.356ZM143.014 269H141.906L145.111 260.273H146.202L149.406 269H148.298L145.691 261.653H145.622L143.014 269ZM143.423 265.591H147.889V266.528H143.423V265.591ZM149.125 260.273H150.335L152.756 264.347H152.858L155.279 260.273H156.489L153.335 265.403V269H152.279V265.403L149.125 260.273ZM103.094 284V275.273H104.151V283.062H108.208V284H103.094ZM116.868 279.636C116.868 280.557 116.702 281.352 116.369 282.023C116.037 282.693 115.581 283.21 115.001 283.574C114.422 283.938 113.76 284.119 113.015 284.119C112.271 284.119 111.609 283.938 111.03 283.574C110.45 283.21 109.994 282.693 109.662 282.023C109.329 281.352 109.163 280.557 109.163 279.636C109.163 278.716 109.329 277.92 109.662 277.25C109.994 276.58 110.45 276.062 111.03 275.699C111.609 275.335 112.271 275.153 113.015 275.153C113.76 275.153 114.422 275.335 115.001 275.699C115.581 276.062 116.037 276.58 116.369 277.25C116.702 277.92 116.868 278.716 116.868 279.636ZM115.845 279.636C115.845 278.881 115.719 278.243 115.466 277.723C115.216 277.203 114.876 276.81 114.447 276.543C114.021 276.276 113.544 276.142 113.015 276.142C112.487 276.142 112.008 276.276 111.579 276.543C111.153 276.81 110.814 277.203 110.561 277.723C110.311 278.243 110.186 278.881 110.186 279.636C110.186 280.392 110.311 281.03 110.561 281.55C110.814 282.07 111.153 282.463 111.579 282.73C112.008 282.997 112.487 283.131 113.015 283.131C113.544 283.131 114.021 282.997 114.447 282.73C114.876 282.463 115.216 282.07 115.466 281.55C115.719 281.03 115.845 280.392 115.845 279.636ZM118.593 284H117.485L120.689 275.273H121.78L124.985 284H123.877L121.269 276.653H121.2L118.593 284ZM119.002 280.591H123.468V281.528H119.002V280.591ZM126.344 275.273H127.605L130.571 282.517H130.673L133.639 275.273H134.901V284H133.912V277.369H133.827L131.1 284H130.145L127.418 277.369H127.333V284H126.344V275.273Z" fill="white"/>
<path d="M281.978 237.455C281.927 237.023 281.719 236.688 281.356 236.449C280.992 236.21 280.546 236.091 280.018 236.091C279.631 236.091 279.293 236.153 279.004 236.278C278.717 236.403 278.492 236.575 278.33 236.794C278.171 237.013 278.092 237.261 278.092 237.54C278.092 237.773 278.147 237.973 278.258 238.141C278.371 238.305 278.516 238.443 278.692 238.554C278.869 238.662 279.053 238.751 279.246 238.822C279.44 238.891 279.617 238.946 279.779 238.989L280.665 239.227C280.893 239.287 281.146 239.369 281.424 239.474C281.705 239.58 281.974 239.723 282.229 239.905C282.488 240.084 282.701 240.314 282.869 240.595C283.036 240.876 283.12 241.222 283.12 241.631C283.12 242.102 282.996 242.528 282.749 242.909C282.505 243.29 282.147 243.592 281.675 243.817C281.207 244.041 280.637 244.153 279.967 244.153C279.342 244.153 278.8 244.053 278.343 243.851C277.888 243.649 277.531 243.368 277.269 243.007C277.011 242.646 276.864 242.227 276.83 241.75H277.921C277.95 242.08 278.06 242.352 278.254 242.568C278.45 242.781 278.697 242.94 278.995 243.045C279.296 243.148 279.62 243.199 279.967 243.199C280.37 243.199 280.732 243.134 281.053 243.003C281.374 242.869 281.629 242.685 281.816 242.449C282.004 242.21 282.097 241.932 282.097 241.614C282.097 241.324 282.016 241.088 281.854 240.906C281.692 240.724 281.479 240.577 281.215 240.463C280.951 240.349 280.665 240.25 280.359 240.165L279.285 239.858C278.603 239.662 278.063 239.382 277.665 239.018C277.268 238.655 277.069 238.179 277.069 237.591C277.069 237.102 277.201 236.676 277.465 236.312C277.732 235.946 278.09 235.662 278.539 235.46C278.991 235.256 279.495 235.153 280.052 235.153C280.614 235.153 281.114 235.254 281.552 235.456C281.989 235.655 282.336 235.928 282.592 236.274C282.85 236.621 282.987 237.014 283.001 237.455H281.978ZM285.914 235.273V244H284.858V235.273H285.914ZM288.033 244V235.273H289.09V243.062H293.147V244H288.033ZM293.146 236.21V235.273H299.691V236.21H296.947V244H295.89V236.21H293.146ZM300.572 235.273H301.783L304.203 239.347H304.305L306.726 235.273H307.936L304.783 240.403V244H303.726V240.403L300.572 235.273ZM319.701 238H318.644C318.581 237.696 318.472 237.429 318.316 237.199C318.162 236.969 317.975 236.776 317.753 236.619C317.534 236.46 317.292 236.341 317.025 236.261C316.757 236.182 316.479 236.142 316.189 236.142C315.661 236.142 315.182 236.276 314.753 236.543C314.327 236.81 313.988 237.203 313.735 237.723C313.485 238.243 313.36 238.881 313.36 239.636C313.36 240.392 313.485 241.03 313.735 241.55C313.988 242.07 314.327 242.463 314.753 242.73C315.182 242.997 315.661 243.131 316.189 243.131C316.479 243.131 316.757 243.091 317.025 243.011C317.292 242.932 317.534 242.814 317.753 242.658C317.975 242.499 318.162 242.304 318.316 242.074C318.472 241.841 318.581 241.574 318.644 241.273H319.701C319.621 241.719 319.476 242.118 319.266 242.47C319.056 242.822 318.794 243.122 318.482 243.369C318.169 243.614 317.819 243.8 317.429 243.928C317.043 244.055 316.63 244.119 316.189 244.119C315.445 244.119 314.783 243.938 314.203 243.574C313.624 243.21 313.168 242.693 312.836 242.023C312.503 241.352 312.337 240.557 312.337 239.636C312.337 238.716 312.503 237.92 312.836 237.25C313.168 236.58 313.624 236.062 314.203 235.699C314.783 235.335 315.445 235.153 316.189 235.153C316.63 235.153 317.043 235.217 317.429 235.345C317.819 235.473 318.169 235.661 318.482 235.908C318.794 236.152 319.056 236.45 319.266 236.803C319.476 237.152 319.621 237.551 319.701 238ZM321.408 244V235.273H322.465V243.062H326.522V244H321.408ZM329.067 244H327.959L331.164 235.273H332.255L335.459 244H334.351L331.743 236.653H331.675L329.067 244ZM329.476 240.591H333.942V241.528H329.476V240.591ZM335.178 235.273H336.388L338.809 239.347H338.911L341.331 235.273H342.542L339.388 240.403V244H338.331V240.403L335.178 235.273ZM293.594 259V250.273H294.651V258.062H298.708V259H293.594ZM307.368 254.636C307.368 255.557 307.202 256.352 306.869 257.023C306.537 257.693 306.081 258.21 305.501 258.574C304.922 258.938 304.26 259.119 303.515 259.119C302.771 259.119 302.109 258.938 301.53 258.574C300.95 258.21 300.494 257.693 300.162 257.023C299.829 256.352 299.663 255.557 299.663 254.636C299.663 253.716 299.829 252.92 300.162 252.25C300.494 251.58 300.95 251.062 301.53 250.699C302.109 250.335 302.771 250.153 303.515 250.153C304.26 250.153 304.922 250.335 305.501 250.699C306.081 251.062 306.537 251.58 306.869 252.25C307.202 252.92 307.368 253.716 307.368 254.636ZM306.345 254.636C306.345 253.881 306.219 253.243 305.966 252.723C305.716 252.203 305.376 251.81 304.947 251.543C304.521 251.276 304.044 251.142 303.515 251.142C302.987 251.142 302.508 251.276 302.079 251.543C301.653 251.81 301.314 252.203 301.061 252.723C300.811 253.243 300.686 253.881 300.686 254.636C300.686 255.392 300.811 256.03 301.061 256.55C301.314 257.07 301.653 257.463 302.079 257.73C302.508 257.997 302.987 258.131 303.515 258.131C304.044 258.131 304.521 257.997 304.947 257.73C305.376 257.463 305.716 257.07 305.966 256.55C306.219 256.03 306.345 255.392 306.345 254.636ZM309.093 259H307.985L311.189 250.273H312.28L315.485 259H314.377L311.769 251.653H311.7L309.093 259ZM309.502 255.591H313.968V256.528H309.502V255.591ZM316.844 250.273H318.105L321.071 257.517H321.173L324.139 250.273H325.401V259H324.412V252.369H324.327L321.6 259H320.645L317.918 252.369H317.833V259H316.844V250.273Z" fill="white"/>
<path d="M190.08 247H189.023C188.96 246.696 188.851 246.429 188.695 246.199C188.541 245.969 188.354 245.776 188.132 245.619C187.913 245.46 187.67 245.341 187.403 245.261C187.136 245.182 186.858 245.142 186.568 245.142C186.04 245.142 185.561 245.276 185.132 245.543C184.706 245.81 184.366 246.203 184.114 246.723C183.864 247.243 183.739 247.881 183.739 248.636C183.739 249.392 183.864 250.03 184.114 250.55C184.366 251.07 184.706 251.463 185.132 251.73C185.561 251.997 186.04 252.131 186.568 252.131C186.858 252.131 187.136 252.091 187.403 252.011C187.67 251.932 187.913 251.814 188.132 251.658C188.354 251.499 188.541 251.304 188.695 251.074C188.851 250.841 188.96 250.574 189.023 250.273H190.08C190 250.719 189.855 251.118 189.645 251.47C189.435 251.822 189.173 252.122 188.861 252.369C188.548 252.614 188.197 252.8 187.808 252.928C187.422 253.055 187.009 253.119 186.568 253.119C185.824 253.119 185.162 252.938 184.582 252.574C184.003 252.21 183.547 251.693 183.214 251.023C182.882 250.352 182.716 249.557 182.716 248.636C182.716 247.716 182.882 246.92 183.214 246.25C183.547 245.58 184.003 245.062 184.582 244.699C185.162 244.335 185.824 244.153 186.568 244.153C187.009 244.153 187.422 244.217 187.808 244.345C188.197 244.473 188.548 244.661 188.861 244.908C189.173 245.152 189.435 245.45 189.645 245.803C189.855 246.152 190 246.551 190.08 247ZM191.787 253V244.273H192.844V252.062H196.901V253H191.787ZM199.446 253H198.338L201.543 244.273H202.634L205.838 253H204.73L202.122 245.653H202.054L199.446 253ZM199.855 249.591H204.321V250.528H199.855V249.591ZM205.557 244.273H206.767L209.188 248.347H209.29L211.71 244.273H212.92L209.767 249.403V253H208.71V249.403L205.557 244.273ZM217.662 253V244.273H218.719V252.062H222.776V253H217.662ZM231.436 248.636C231.436 249.557 231.27 250.352 230.938 251.023C230.605 251.693 230.149 252.21 229.57 252.574C228.99 252.938 228.328 253.119 227.584 253.119C226.839 253.119 226.178 252.938 225.598 252.574C225.018 252.21 224.563 251.693 224.23 251.023C223.898 250.352 223.732 249.557 223.732 248.636C223.732 247.716 223.898 246.92 224.23 246.25C224.563 245.58 225.018 245.062 225.598 244.699C226.178 244.335 226.839 244.153 227.584 244.153C228.328 244.153 228.99 244.335 229.57 244.699C230.149 245.062 230.605 245.58 230.938 246.25C231.27 246.92 231.436 247.716 231.436 248.636ZM230.413 248.636C230.413 247.881 230.287 247.243 230.034 246.723C229.784 246.203 229.445 245.81 229.016 245.543C228.589 245.276 228.112 245.142 227.584 245.142C227.055 245.142 226.577 245.276 226.148 245.543C225.722 245.81 225.382 246.203 225.129 246.723C224.879 247.243 224.754 247.881 224.754 248.636C224.754 249.392 224.879 250.03 225.129 250.55C225.382 251.07 225.722 251.463 226.148 251.73C226.577 251.997 227.055 252.131 227.584 252.131C228.112 252.131 228.589 251.997 229.016 251.73C229.445 251.463 229.784 251.07 230.034 250.55C230.287 250.03 230.413 249.392 230.413 248.636ZM233.161 253H232.053L235.257 244.273H236.348L239.553 253H238.445L235.837 245.653H235.769L233.161 253ZM233.57 249.591H238.036V250.528H233.57V249.591ZM240.912 244.273H242.174L245.14 251.517H245.242L248.208 244.273H249.469V253H248.48V246.369H248.395L245.668 253H244.713L241.986 246.369H241.901V253H240.912V244.273Z" fill="white"/>
<path d="M288.83 192.455C288.778 192.023 288.571 191.688 288.207 191.449C287.844 191.21 287.398 191.091 286.869 191.091C286.483 191.091 286.145 191.153 285.855 191.278C285.568 191.403 285.344 191.575 285.182 191.794C285.023 192.013 284.943 192.261 284.943 192.54C284.943 192.773 284.999 192.973 285.109 193.141C285.223 193.305 285.368 193.443 285.544 193.554C285.72 193.662 285.905 193.751 286.098 193.822C286.291 193.891 286.469 193.946 286.631 193.989L287.517 194.227C287.744 194.287 287.997 194.369 288.276 194.474C288.557 194.58 288.825 194.723 289.081 194.905C289.339 195.084 289.553 195.314 289.72 195.595C289.888 195.876 289.972 196.222 289.972 196.631C289.972 197.102 289.848 197.528 289.601 197.909C289.357 198.29 288.999 198.592 288.527 198.817C288.058 199.041 287.489 199.153 286.818 199.153C286.193 199.153 285.652 199.053 285.195 198.851C284.74 198.649 284.382 198.368 284.121 198.007C283.862 197.646 283.716 197.227 283.682 196.75H284.773C284.801 197.08 284.912 197.352 285.105 197.568C285.301 197.781 285.548 197.94 285.847 198.045C286.148 198.148 286.472 198.199 286.818 198.199C287.222 198.199 287.584 198.134 287.905 198.003C288.226 197.869 288.48 197.685 288.668 197.449C288.855 197.21 288.949 196.932 288.949 196.614C288.949 196.324 288.868 196.088 288.706 195.906C288.544 195.724 288.331 195.577 288.067 195.463C287.803 195.349 287.517 195.25 287.21 195.165L286.136 194.858C285.455 194.662 284.915 194.382 284.517 194.018C284.119 193.655 283.92 193.179 283.92 192.591C283.92 192.102 284.053 191.676 284.317 191.312C284.584 190.946 284.942 190.662 285.391 190.46C285.842 190.256 286.347 190.153 286.903 190.153C287.466 190.153 287.966 190.254 288.403 190.456C288.841 190.655 289.188 190.928 289.443 191.274C289.702 191.621 289.838 192.014 289.852 192.455H288.83ZM292.766 190.273V199H291.709V190.273H292.766ZM294.885 199V190.273H295.942V198.062H299.999V199H294.885ZM299.998 191.21V190.273H306.543V191.21H303.799V199H302.742V191.21H299.998ZM307.424 190.273H308.634L311.055 194.347H311.157L313.577 190.273H314.788L311.634 195.403V199H310.577V195.403L307.424 190.273ZM291.08 208H290.023C289.96 207.696 289.851 207.429 289.695 207.199C289.541 206.969 289.354 206.776 289.132 206.619C288.913 206.46 288.67 206.341 288.403 206.261C288.136 206.182 287.858 206.142 287.568 206.142C287.04 206.142 286.561 206.276 286.132 206.543C285.706 206.81 285.366 207.203 285.114 207.723C284.864 208.243 284.739 208.881 284.739 209.636C284.739 210.392 284.864 211.03 285.114 211.55C285.366 212.07 285.706 212.463 286.132 212.73C286.561 212.997 287.04 213.131 287.568 213.131C287.858 213.131 288.136 213.091 288.403 213.011C288.67 212.932 288.913 212.814 289.132 212.658C289.354 212.499 289.541 212.304 289.695 212.074C289.851 211.841 289.96 211.574 290.023 211.273H291.08C291 211.719 290.855 212.118 290.645 212.47C290.435 212.822 290.173 213.122 289.861 213.369C289.548 213.614 289.197 213.8 288.808 213.928C288.422 214.055 288.009 214.119 287.568 214.119C286.824 214.119 286.162 213.938 285.582 213.574C285.003 213.21 284.547 212.693 284.214 212.023C283.882 211.352 283.716 210.557 283.716 209.636C283.716 208.716 283.882 207.92 284.214 207.25C284.547 206.58 285.003 206.062 285.582 205.699C286.162 205.335 286.824 205.153 287.568 205.153C288.009 205.153 288.422 205.217 288.808 205.345C289.197 205.473 289.548 205.661 289.861 205.908C290.173 206.152 290.435 206.45 290.645 206.803C290.855 207.152 291 207.551 291.08 208ZM292.787 214V205.273H293.844V213.062H297.901V214H292.787ZM300.446 214H299.338L302.543 205.273H303.634L306.838 214H305.73L303.122 206.653H303.054L300.446 214ZM300.855 210.591H305.321V211.528H300.855V210.591ZM306.557 205.273H307.767L310.188 209.347H310.29L312.71 205.273H313.92L310.767 210.403V214H309.71V210.403L306.557 205.273Z" fill="white"/>
<path d="M102.83 210.455C102.778 210.023 102.571 209.688 102.207 209.449C101.844 209.21 101.398 209.091 100.869 209.091C100.483 209.091 100.145 209.153 99.8551 209.278C99.5682 209.403 99.3438 209.575 99.1818 209.794C99.0227 210.013 98.9432 210.261 98.9432 210.54C98.9432 210.773 98.9986 210.973 99.1094 211.141C99.223 211.305 99.3679 211.443 99.544 211.554C99.7202 211.662 99.9048 211.751 100.098 211.822C100.291 211.891 100.469 211.946 100.631 211.989L101.517 212.227C101.744 212.287 101.997 212.369 102.276 212.474C102.557 212.58 102.825 212.723 103.081 212.905C103.339 213.084 103.553 213.314 103.72 213.595C103.888 213.876 103.972 214.222 103.972 214.631C103.972 215.102 103.848 215.528 103.601 215.909C103.357 216.29 102.999 216.592 102.527 216.817C102.058 217.041 101.489 217.153 100.818 217.153C100.193 217.153 99.652 217.053 99.1946 216.851C98.7401 216.649 98.3821 216.368 98.1207 216.007C97.8622 215.646 97.7159 215.227 97.6818 214.75H98.7727C98.8011 215.08 98.9119 215.352 99.1051 215.568C99.3011 215.781 99.5483 215.94 99.8466 216.045C100.148 216.148 100.472 216.199 100.818 216.199C101.222 216.199 101.584 216.134 101.905 216.003C102.226 215.869 102.48 215.685 102.668 215.449C102.855 215.21 102.949 214.932 102.949 214.614C102.949 214.324 102.868 214.088 102.706 213.906C102.544 213.724 102.331 213.577 102.067 213.463C101.803 213.349 101.517 213.25 101.21 213.165L100.136 212.858C99.4545 212.662 98.9148 212.382 98.517 212.018C98.1193 211.655 97.9205 211.179 97.9205 210.591C97.9205 210.102 98.0526 209.676 98.3168 209.312C98.5838 208.946 98.9418 208.662 99.3906 208.46C99.8423 208.256 100.347 208.153 100.903 208.153C101.466 208.153 101.966 208.254 102.403 208.456C102.841 208.655 103.188 208.928 103.443 209.274C103.702 209.621 103.838 210.014 103.852 210.455H102.83ZM106.067 217H104.959L108.164 208.273H109.255L112.459 217H111.351L108.743 209.653H108.675L106.067 217ZM106.476 213.591H110.942V214.528H106.476V213.591ZM120.739 208.273V217H119.716L114.961 210.148H114.875V217H113.819V208.273H114.841L119.614 215.142H119.699V208.273H120.739ZM125.547 217H122.854V208.273H125.666C126.513 208.273 127.237 208.447 127.839 208.797C128.442 209.143 128.903 209.642 129.224 210.293C129.545 210.94 129.706 211.716 129.706 212.619C129.706 213.528 129.544 214.311 129.22 214.967C128.896 215.621 128.425 216.124 127.805 216.476C127.186 216.825 126.433 217 125.547 217ZM123.911 216.062H125.479C126.2 216.062 126.798 215.923 127.273 215.645C127.747 215.366 128.101 214.97 128.334 214.456C128.567 213.942 128.683 213.33 128.683 212.619C128.683 211.915 128.568 211.308 128.338 210.8C128.108 210.288 127.764 209.896 127.307 209.624C126.849 209.348 126.28 209.21 125.598 209.21H123.911V216.062ZM130.319 208.273H131.529L133.949 212.347H134.051L136.472 208.273H137.682L134.529 213.403V217H133.472V213.403L130.319 208.273ZM105.08 226H104.023C103.96 225.696 103.851 225.429 103.695 225.199C103.541 224.969 103.354 224.776 103.132 224.619C102.913 224.46 102.67 224.341 102.403 224.261C102.136 224.182 101.858 224.142 101.568 224.142C101.04 224.142 100.561 224.276 100.132 224.543C99.706 224.81 99.3665 225.203 99.1136 225.723C98.8636 226.243 98.7386 226.881 98.7386 227.636C98.7386 228.392 98.8636 229.03 99.1136 229.55C99.3665 230.07 99.706 230.463 100.132 230.73C100.561 230.997 101.04 231.131 101.568 231.131C101.858 231.131 102.136 231.091 102.403 231.011C102.67 230.932 102.913 230.814 103.132 230.658C103.354 230.499 103.541 230.304 103.695 230.074C103.851 229.841 103.96 229.574 104.023 229.273H105.08C105 229.719 104.855 230.118 104.645 230.47C104.435 230.822 104.173 231.122 103.861 231.369C103.548 231.614 103.197 231.8 102.808 231.928C102.422 232.055 102.009 232.119 101.568 232.119C100.824 232.119 100.162 231.938 99.5824 231.574C99.0028 231.21 98.5469 230.693 98.2145 230.023C97.8821 229.352 97.7159 228.557 97.7159 227.636C97.7159 226.716 97.8821 225.92 98.2145 225.25C98.5469 224.58 99.0028 224.062 99.5824 223.699C100.162 223.335 100.824 223.153 101.568 223.153C102.009 223.153 102.422 223.217 102.808 223.345C103.197 223.473 103.548 223.661 103.861 223.908C104.173 224.152 104.435 224.45 104.645 224.803C104.855 225.152 105 225.551 105.08 226ZM106.787 232V223.273H107.844V231.062H111.901V232H106.787ZM114.446 232H113.338L116.543 223.273H117.634L120.838 232H119.73L117.122 224.653H117.054L114.446 232ZM114.855 228.591H119.321V229.528H114.855V228.591ZM120.557 223.273H121.767L124.188 227.347H124.29L126.71 223.273H127.92L124.767 228.403V232H123.71V228.403L120.557 223.273Z" fill="white"/>
<path d="M205.08 135H204.023C203.96 134.696 203.851 134.429 203.695 134.199C203.541 133.969 203.354 133.776 203.132 133.619C202.913 133.46 202.67 133.341 202.403 133.261C202.136 133.182 201.858 133.142 201.568 133.142C201.04 133.142 200.561 133.276 200.132 133.543C199.706 133.81 199.366 134.203 199.114 134.723C198.864 135.243 198.739 135.881 198.739 136.636C198.739 137.392 198.864 138.03 199.114 138.55C199.366 139.07 199.706 139.463 200.132 139.73C200.561 139.997 201.04 140.131 201.568 140.131C201.858 140.131 202.136 140.091 202.403 140.011C202.67 139.932 202.913 139.814 203.132 139.658C203.354 139.499 203.541 139.304 203.695 139.074C203.851 138.841 203.96 138.574 204.023 138.273H205.08C205 138.719 204.855 139.118 204.645 139.47C204.435 139.822 204.173 140.122 203.861 140.369C203.548 140.614 203.197 140.8 202.808 140.928C202.422 141.055 202.009 141.119 201.568 141.119C200.824 141.119 200.162 140.938 199.582 140.574C199.003 140.21 198.547 139.693 198.214 139.023C197.882 138.352 197.716 137.557 197.716 136.636C197.716 135.716 197.882 134.92 198.214 134.25C198.547 133.58 199.003 133.062 199.582 132.699C200.162 132.335 200.824 132.153 201.568 132.153C202.009 132.153 202.422 132.217 202.808 132.345C203.197 132.473 203.548 132.661 203.861 132.908C204.173 133.152 204.435 133.45 204.645 133.803C204.855 134.152 205 134.551 205.08 135ZM206.787 141V132.273H207.844V140.062H211.901V141H206.787ZM214.446 141H213.338L216.543 132.273H217.634L220.838 141H219.73L217.122 133.653H217.054L214.446 141ZM214.855 137.591H219.321V138.528H214.855V137.591ZM220.557 132.273H221.767L224.188 136.347H224.29L226.71 132.273H227.92L224.767 137.403V141H223.71V137.403L220.557 132.273Z" fill="white"/>
</svg>
