<svg width="16" height="16" viewBox="0 0 16 16" fill="none" xmlns="http://www.w3.org/2000/svg">
<path d="M0.356787 11.0236C-0.115303 10.764 -0.115303 10.1447 0.356787 9.89446C0.441201 9.84755 0.953935 9.84442 5.73424 9.85068L11.0179 9.85693L11.2993 9.94451C11.8151 10.1072 12.1997 10.3292 12.5717 10.6795C12.9813 11.0642 13.2596 11.5209 13.4284 12.0776C13.5065 12.3341 13.5128 12.4061 13.5159 12.8909C13.519 13.5008 13.469 13.751 13.2564 14.2076C12.5123 15.7965 10.6334 16.4534 9.07952 15.6683C8.10095 15.1741 7.46628 14.2202 7.385 13.1192C7.36311 12.7845 7.41314 12.6187 7.59447 12.4561C8.00716 12.0839 8.62619 12.3873 8.62619 12.9628C8.62619 13.1786 8.73249 13.5633 8.85129 13.7917C8.98573 14.045 9.30775 14.3672 9.56724 14.511C10.1019 14.8082 10.6834 14.8269 11.2493 14.5611C11.4619 14.461 11.5588 14.3922 11.7495 14.1951C12.1153 13.8229 12.2841 13.4257 12.2841 12.9315C12.2841 12.6 12.2372 12.4029 12.0903 12.0995C11.8808 11.671 11.5088 11.3457 11.0179 11.1643C10.8678 11.1112 10.6146 11.108 5.65608 11.0924C0.882027 11.0768 0.444327 11.0736 0.356787 11.0236Z" fill="#033323"/>
<path d="M12.4029 2.49106C11.2305 2.70375 10.2894 3.55137 9.95492 4.69613C9.86738 4.99327 9.82048 5.49058 9.858 5.69389C9.88301 5.83151 10.0675 6.04733 10.2113 6.10988C10.4864 6.22248 10.8241 6.11301 10.9804 5.86279C11.0554 5.74393 11.0742 5.66574 11.0961 5.4249C11.1398 4.93697 11.3024 4.57102 11.6151 4.26137C11.9777 3.90168 12.3404 3.73904 12.8344 3.71714C13.4002 3.69212 13.8036 3.84851 14.2006 4.24574C14.679 4.72116 14.854 5.34045 14.6915 5.97539C14.532 6.60094 14.0724 7.08574 13.4409 7.29843C13.2783 7.3516 13.0157 7.35473 8.0947 7.37037L2.92046 7.38601L2.80165 7.46107C2.736 7.50173 2.64533 7.59244 2.59844 7.66125C2.52965 7.76759 2.51402 7.82389 2.51402 7.99279C2.51402 8.23988 2.59218 8.39314 2.78915 8.52138L2.91733 8.60583H13.394L13.7004 8.52138C16.0046 7.88645 16.7737 5.04957 15.0979 3.36371C14.7133 2.97587 14.2194 2.68811 13.7004 2.55049C13.4284 2.47542 12.6687 2.44102 12.4029 2.49106Z" fill="#033323"/>
<path d="M5.39972 0.0357705C4.23043 0.257841 3.28 1.1211 2.96736 2.24397C2.87044 2.59428 2.82979 3.02904 2.87669 3.21983C2.9486 3.52009 3.2925 3.75468 3.57388 3.69212C3.90841 3.62018 4.05535 3.43564 4.09912 3.03216C4.13351 2.68185 4.19604 2.46604 4.33361 2.20331C4.53995 1.80608 4.95889 1.46203 5.39034 1.32441C5.70923 1.22432 6.1782 1.22745 6.49709 1.33066C7.24431 1.57776 7.75704 2.27212 7.7633 3.05406C7.7633 3.37934 7.7164 3.59203 7.56946 3.89855C7.36624 4.31142 6.92854 4.68362 6.45332 4.84001C6.3564 4.87441 5.70298 4.88692 3.38942 4.89944C3.17687 4.90067 2.97922 4.90175 2.79538 4.90276C0.601847 4.91479 0.374492 4.91604 0.251259 5.02999C0.23701 5.04317 0.224152 5.05785 0.209808 5.07423C0.200326 5.08506 0.190195 5.09663 0.178583 5.109C-0.118428 5.41864 -0.0340144 5.89406 0.350536 6.09111C0.463088 6.15054 0.553754 6.15054 3.47696 6.14428L6.48459 6.1349L6.75971 6.04732C7.67263 5.7627 8.32918 5.20596 8.71998 4.39587C9.0764 3.64833 9.11391 2.74128 8.81065 1.95934C8.61994 1.46203 8.21038 0.927182 7.76955 0.595639C7.51318 0.401718 7.01295 0.164009 6.68781 0.0826869C6.33765 -0.00489033 5.73425 -0.0267846 5.39972 0.0357705Z" fill="#5BAD6B"/>
</svg>
