<svg width="106" height="106" viewBox="0 0 106 106" fill="none" xmlns="http://www.w3.org/2000/svg">
<path d="M52.9987 8.83325C54.8281 8.83325 56.3112 10.3163 56.3112 12.1458V18.7708C56.3112 20.6002 54.8281 22.0833 52.9987 22.0833C51.1693 22.0833 49.6862 20.6002 49.6862 18.7708V12.1458C49.6862 10.3163 51.1693 8.83325 52.9987 8.83325ZM52.9987 75.0833C65.1949 75.0833 75.082 65.1961 75.082 52.9999C75.082 40.8036 65.1949 30.9166 52.9987 30.9166C40.8024 30.9166 30.9154 40.8036 30.9154 52.9999C30.9154 65.1961 40.8024 75.0833 52.9987 75.0833ZM52.9987 68.4583C44.4613 68.4583 37.5404 61.5373 37.5404 52.9999C37.5404 44.4625 44.4613 37.5416 52.9987 37.5416C61.5361 37.5416 68.457 44.4625 68.457 52.9999C68.457 61.5373 61.5361 68.4583 52.9987 68.4583ZM93.8529 56.3124C95.6823 56.3124 97.1654 54.8293 97.1654 52.9999C97.1654 51.1705 95.6823 49.6874 93.8529 49.6874H87.2279C85.3985 49.6874 83.9154 51.1705 83.9154 52.9999C83.9154 54.8293 85.3985 56.3124 87.2279 56.3124H93.8529ZM52.9987 83.9166C54.8281 83.9166 56.3112 85.3997 56.3112 87.2291V93.8541C56.3112 95.6835 54.8281 97.1666 52.9987 97.1666C51.1693 97.1666 49.6862 95.6835 49.6862 93.8541V87.2291C49.6862 85.3997 51.1693 83.9166 52.9987 83.9166ZM18.7695 56.3124C20.599 56.3124 22.082 54.8293 22.082 52.9999C22.082 51.1705 20.599 49.6874 18.7695 49.6874H12.1445C10.3151 49.6874 8.83203 51.1705 8.83203 52.9999C8.83203 54.8293 10.3151 56.3124 12.1445 56.3124H18.7695ZM18.6356 18.6384C19.9292 17.3448 22.0266 17.3448 23.3202 18.6384L29.9452 25.2634C31.2388 26.5571 31.2388 28.6544 29.9452 29.948C28.6516 31.2417 26.5542 31.2417 25.2606 29.948L18.6356 23.323C17.342 22.0294 17.342 19.9321 18.6356 18.6384ZM23.3202 87.3647C22.0266 88.6583 19.9292 88.6583 18.6356 87.3647C17.342 86.071 17.342 83.9736 18.6356 82.6799L25.2606 76.0549C26.5542 74.7613 28.6516 74.7613 29.9452 76.0549C31.2388 77.3486 31.2388 79.446 29.9452 80.7397L23.3202 87.3647ZM87.3617 18.6384C86.0681 17.3448 83.971 17.3448 82.6774 18.6384L76.0524 25.2634C74.7587 26.5571 74.7587 28.6544 76.0524 29.948C77.346 31.2417 79.4431 31.2417 80.7367 29.948L87.3617 23.323C88.6553 22.0294 88.6553 19.9321 87.3617 18.6384ZM82.6774 87.3647C83.971 88.6583 86.0681 88.6583 87.3617 87.3647C88.6553 86.071 88.6553 83.9736 87.3617 82.6799L80.7367 76.0549C79.4431 74.7613 77.346 74.7613 76.0524 76.0549C74.7587 77.3486 74.7587 79.446 76.0524 80.7397L82.6774 87.3647Z" fill="#F2D125"/>
</svg>
