<svg width="9" height="20" viewBox="0 0 9 20"  xmlns="http://www.w3.org/2000/svg">
<path fill-rule="evenodd" clip-rule="evenodd" d="M4.59949 1.78732C4.33102 1.78732 4.07354 1.89398 3.88369 2.08382C3.69385 2.27366 3.5872 2.53114 3.5872 2.79962V12.2837C3.5872 12.565 3.43713 12.8249 3.19353 12.9655C2.65746 13.275 2.2385 13.7528 2.00161 14.3246C1.76473 14.8965 1.72317 15.5306 1.88338 16.1285C2.04359 16.7264 2.39662 17.2547 2.8877 17.6316C3.37879 18.0084 3.98049 18.2126 4.59949 18.2126C5.21849 18.2126 5.8202 18.0084 6.31128 17.6316C6.80237 17.2547 7.15539 16.7264 7.3156 16.1285C7.47581 15.5306 7.43425 14.8965 7.19737 14.3246C6.96049 13.7528 6.54153 13.275 6.00546 12.9655C5.76185 12.8249 5.61179 12.565 5.61179 12.2837V2.79962C5.61179 2.53114 5.50513 2.27366 5.31529 2.08382C5.12545 1.89398 4.86797 1.78732 4.59949 1.78732ZM2.77023 0.970352C3.25538 0.485201 3.91339 0.212646 4.59949 0.212646C5.2856 0.212646 5.94361 0.485201 6.42876 0.970352C6.91391 1.4555 7.18646 2.11351 7.18646 2.79962V11.8581C7.83445 12.3313 8.34284 12.9752 8.65218 13.722C9.02172 14.6142 9.08655 15.6033 8.83662 16.5361C8.5867 17.4688 8.03598 18.293 7.26989 18.8808C6.50379 19.4687 5.56513 19.7873 4.59949 19.7873C3.63385 19.7873 2.6952 19.4687 1.9291 18.8808C1.16301 18.293 0.612288 17.4688 0.362362 16.5361C0.112436 15.6033 0.177268 14.6142 0.546802 13.722C0.856145 12.9752 1.36454 12.3313 2.01252 11.8581V2.79962C2.01252 2.11351 2.28508 1.4555 2.77023 0.970352Z"/>
</svg>
