<svg width="32" height="32" viewBox="0 0 32 32" fill="none" xmlns="http://www.w3.org/2000/svg">
<path d="M7 10.25C7 8.45507 8.45507 7 10.25 7H21.75C23.5449 7 25 8.45507 25 10.25V21.75C25 23.5449 23.5449 25 21.75 25H10.25C8.45507 25 7 23.5449 7 21.75V10.25ZM16.5 13.25C16.5 13.6642 16.8358 14 17.25 14H20.75C21.1642 14 21.5 13.6642 21.5 13.25C21.5 12.8358 21.1642 12.5 20.75 12.5H17.25C16.8358 12.5 16.5 12.8358 16.5 13.25ZM17.2501 18C16.8358 18 16.5001 18.3358 16.5001 18.75C16.5001 19.1642 16.8358 19.5 17.2501 19.5H20.7499C21.1642 19.5 21.4999 19.1642 21.4999 18.75C21.4999 18.3358 21.1642 18 20.7499 18H17.2501ZM14.7803 12.7803C15.0732 12.4874 15.0732 12.0126 14.7803 11.7197C14.4874 11.4268 14.0126 11.4268 13.7197 11.7197L12.25 13.1893L11.7803 12.7197C11.4874 12.4268 11.0126 12.4268 10.7197 12.7197C10.4268 13.0126 10.4268 13.4874 10.7197 13.7803L11.7197 14.7803C12.0126 15.0732 12.4874 15.0732 12.7803 14.7803L14.7803 12.7803ZM14.7803 17.2197C14.4874 16.9268 14.0126 16.9268 13.7197 17.2197L12.25 18.6893L11.7803 18.2197C11.4874 17.9268 11.0126 17.9268 10.7197 18.2197C10.4268 18.5126 10.4268 18.9874 10.7197 19.2803L11.7197 20.2803C12.0126 20.5732 12.4874 20.5732 12.7803 20.2803L14.7803 18.2803C15.0732 17.9874 15.0732 17.5126 14.7803 17.2197Z" fill="#58726C"/>
</svg>
