<svg width="456" height="26" viewBox="0 0 456 26" fill="none" xmlns="http://www.w3.org/2000/svg">
<path d="M5.016 21.12C4.376 21.12 3.78 21.016 3.228 20.808C2.684 20.592 2.208 20.292 1.8 19.908C1.4 19.516 1.088 19.056 0.864 18.528C0.64 18 0.528 17.424 0.528 16.8C0.528 16.176 0.64 15.6 0.864 15.072C1.088 14.544 1.404 14.088 1.812 13.704C2.22 13.312 2.696 13.012 3.24 12.804C3.784 12.588 4.38 12.48 5.028 12.48C5.716 12.48 6.344 12.6 6.912 12.84C7.48 13.072 7.96 13.42 8.352 13.884L7.344 14.832C7.04 14.504 6.7 14.26 6.324 14.1C5.948 13.932 5.54 13.848 5.1 13.848C4.66 13.848 4.256 13.92 3.888 14.064C3.528 14.208 3.212 14.412 2.94 14.676C2.676 14.94 2.468 15.252 2.316 15.612C2.172 15.972 2.1 16.368 2.1 16.8C2.1 17.232 2.172 17.628 2.316 17.988C2.468 18.348 2.676 18.66 2.94 18.924C3.212 19.188 3.528 19.392 3.888 19.536C4.256 19.68 4.66 19.752 5.1 19.752C5.54 19.752 5.948 19.672 6.324 19.512C6.7 19.344 7.04 19.092 7.344 18.756L8.352 19.716C7.96 20.172 7.48 20.52 6.912 20.76C6.344 21 5.712 21.12 5.016 21.12ZM9.70275 21V12.096H11.2028V21H9.70275ZM13.1715 21V14.592H14.6715V21H13.1715ZM13.9275 13.536C13.6475 13.536 13.4155 13.448 13.2315 13.272C13.0555 13.096 12.9675 12.884 12.9675 12.636C12.9675 12.38 13.0555 12.168 13.2315 12C13.4155 11.824 13.6475 11.736 13.9275 11.736C14.2075 11.736 14.4355 11.82 14.6115 11.988C14.7955 12.148 14.8875 12.352 14.8875 12.6C14.8875 12.864 14.7995 13.088 14.6235 13.272C14.4475 13.448 14.2155 13.536 13.9275 13.536ZM19.5803 21.084C18.9083 21.084 18.3083 20.944 17.7803 20.664C17.2603 20.376 16.8523 19.984 16.5563 19.488C16.2603 18.992 16.1123 18.428 16.1123 17.796C16.1123 17.156 16.2603 16.592 16.5563 16.104C16.8523 15.608 17.2603 15.22 17.7803 14.94C18.3083 14.66 18.9083 14.52 19.5803 14.52C20.2043 14.52 20.7523 14.648 21.2243 14.904C21.7043 15.152 22.0683 15.52 22.3163 16.008L21.1643 16.68C20.9723 16.376 20.7363 16.152 20.4563 16.008C20.1843 15.864 19.8883 15.792 19.5683 15.792C19.2003 15.792 18.8683 15.872 18.5723 16.032C18.2763 16.192 18.0443 16.424 17.8763 16.728C17.7083 17.024 17.6243 17.38 17.6243 17.796C17.6243 18.212 17.7083 18.572 17.8763 18.876C18.0443 19.172 18.2763 19.4 18.5723 19.56C18.8683 19.72 19.2003 19.8 19.5683 19.8C19.8883 19.8 20.1843 19.728 20.4563 19.584C20.7363 19.44 20.9723 19.216 21.1643 18.912L22.3163 19.584C22.0683 20.064 21.7043 20.436 21.2243 20.7C20.7523 20.956 20.2043 21.084 19.5803 21.084ZM24.7783 19.572L24.8143 17.688L28.1623 14.592H29.9623L27.1183 17.448L26.3263 18.108L24.7783 19.572ZM23.5543 21V12.096H25.0543V21H23.5543ZM28.3903 21L26.0503 18.108L26.9983 16.908L30.2143 21H28.3903ZM37.3796 21.084C36.7236 21.084 36.1396 20.944 35.6276 20.664C35.1156 20.376 34.7116 19.984 34.4156 19.488C34.1196 18.992 33.9716 18.428 33.9716 17.796C33.9716 17.156 34.1196 16.592 34.4156 16.104C34.7116 15.608 35.1156 15.22 35.6276 14.94C36.1396 14.66 36.7236 14.52 37.3796 14.52C38.0436 14.52 38.6316 14.66 39.1436 14.94C39.6636 15.22 40.0676 15.604 40.3556 16.092C40.6516 16.58 40.7996 17.148 40.7996 17.796C40.7996 18.428 40.6516 18.992 40.3556 19.488C40.0676 19.984 39.6636 20.376 39.1436 20.664C38.6316 20.944 38.0436 21.084 37.3796 21.084ZM37.3796 19.8C37.7476 19.8 38.0756 19.72 38.3636 19.56C38.6516 19.4 38.8756 19.168 39.0356 18.864C39.2036 18.56 39.2876 18.204 39.2876 17.796C39.2876 17.38 39.2036 17.024 39.0356 16.728C38.8756 16.424 38.6516 16.192 38.3636 16.032C38.0756 15.872 37.7516 15.792 37.3916 15.792C37.0236 15.792 36.6956 15.872 36.4076 16.032C36.1276 16.192 35.9036 16.424 35.7356 16.728C35.5676 17.024 35.4836 17.38 35.4836 17.796C35.4836 18.204 35.5676 18.56 35.7356 18.864C35.9036 19.168 36.1276 19.4 36.4076 19.56C36.6956 19.72 37.0196 19.8 37.3796 19.8ZM45.87 14.52C46.382 14.52 46.838 14.62 47.238 14.82C47.646 15.02 47.966 15.328 48.198 15.744C48.43 16.152 48.546 16.68 48.546 17.328V21H47.046V17.52C47.046 16.952 46.91 16.528 46.638 16.248C46.374 15.968 46.002 15.828 45.522 15.828C45.17 15.828 44.858 15.9 44.586 16.044C44.314 16.188 44.102 16.404 43.95 16.692C43.806 16.972 43.734 17.328 43.734 17.76V21H42.234V14.592H43.662V16.32L43.41 15.792C43.634 15.384 43.958 15.072 44.382 14.856C44.814 14.632 45.31 14.52 45.87 14.52ZM74.2953 21V19.704L74.2113 19.428V17.16C74.2113 16.72 74.0793 16.38 73.8153 16.14C73.5513 15.892 73.1513 15.768 72.6153 15.768C72.2553 15.768 71.8993 15.824 71.5473 15.936C71.2033 16.048 70.9113 16.204 70.6713 16.404L70.0833 15.312C70.4273 15.048 70.8353 14.852 71.3073 14.724C71.7873 14.588 72.2833 14.52 72.7953 14.52C73.7233 14.52 74.4393 14.744 74.9433 15.192C75.4553 15.632 75.7113 16.316 75.7113 17.244V21H74.2953ZM72.2793 21.084C71.7993 21.084 71.3793 21.004 71.0193 20.844C70.6593 20.676 70.3793 20.448 70.1793 20.16C69.9873 19.864 69.8913 19.532 69.8913 19.164C69.8913 18.804 69.9753 18.48 70.1433 18.192C70.3193 17.904 70.6033 17.676 70.9953 17.508C71.3873 17.34 71.9073 17.256 72.5553 17.256H74.4153V18.252H72.6633C72.1513 18.252 71.8073 18.336 71.6313 18.504C71.4553 18.664 71.3673 18.864 71.3673 19.104C71.3673 19.376 71.4753 19.592 71.6913 19.752C71.9073 19.912 72.2073 19.992 72.5913 19.992C72.9593 19.992 73.2873 19.908 73.5753 19.74C73.8713 19.572 74.0833 19.324 74.2113 18.996L74.4633 19.896C74.3193 20.272 74.0593 20.564 73.6833 20.772C73.3153 20.98 72.8473 21.084 72.2793 21.084ZM83.0768 21L80.2928 12.6H81.9128L84.3968 20.196H83.5928L86.1728 12.6H87.6128L90.1208 20.196H89.3408L91.8848 12.6H93.3728L90.5888 21H88.9328L86.6408 14.148H87.0728L84.7448 21H83.0768ZM97.9672 21V19.704L97.8832 19.428V17.16C97.8832 16.72 97.7512 16.38 97.4872 16.14C97.2232 15.892 96.8232 15.768 96.2872 15.768C95.9272 15.768 95.5712 15.824 95.2192 15.936C94.8752 16.048 94.5832 16.204 94.3432 16.404L93.7552 15.312C94.0992 15.048 94.5072 14.852 94.9792 14.724C95.4592 14.588 95.9552 14.52 96.4672 14.52C97.3952 14.52 98.1112 14.744 98.6152 15.192C99.1272 15.632 99.3832 16.316 99.3832 17.244V21H97.9672ZM95.9512 21.084C95.4712 21.084 95.0512 21.004 94.6912 20.844C94.3312 20.676 94.0512 20.448 93.8512 20.16C93.6592 19.864 93.5632 19.532 93.5632 19.164C93.5632 18.804 93.6472 18.48 93.8152 18.192C93.9912 17.904 94.2752 17.676 94.6672 17.508C95.0592 17.34 95.5792 17.256 96.2272 17.256H98.0872V18.252H96.3352C95.8232 18.252 95.4792 18.336 95.3032 18.504C95.1272 18.664 95.0392 18.864 95.0392 19.104C95.0392 19.376 95.1472 19.592 95.3632 19.752C95.5792 19.912 95.8792 19.992 96.2632 19.992C96.6312 19.992 96.9592 19.908 97.2472 19.74C97.5432 19.572 97.7552 19.324 97.8832 18.996L98.1352 19.896C97.9912 20.272 97.7312 20.564 97.3552 20.772C96.9872 20.98 96.5192 21.084 95.9512 21.084ZM103.72 21.084C103.016 21.084 102.472 20.904 102.088 20.544C101.704 20.176 101.512 19.636 101.512 18.924V13.176H103.012V18.888C103.012 19.192 103.088 19.428 103.24 19.596C103.4 19.764 103.62 19.848 103.9 19.848C104.236 19.848 104.516 19.76 104.74 19.584L105.16 20.652C104.984 20.796 104.768 20.904 104.512 20.976C104.256 21.048 103.992 21.084 103.72 21.084ZM100.456 15.84V14.64H104.728V15.84H100.456ZM109.195 21.084C108.483 21.084 107.859 20.944 107.323 20.664C106.795 20.376 106.383 19.984 106.087 19.488C105.799 18.992 105.655 18.428 105.655 17.796C105.655 17.156 105.795 16.592 106.075 16.104C106.363 15.608 106.755 15.22 107.251 14.94C107.755 14.66 108.327 14.52 108.967 14.52C109.591 14.52 110.147 14.656 110.635 14.928C111.123 15.2 111.507 15.584 111.787 16.08C112.067 16.576 112.207 17.16 112.207 17.832C112.207 17.896 112.203 17.968 112.195 18.048C112.195 18.128 112.191 18.204 112.183 18.276H106.843V17.28H111.391L110.803 17.592C110.811 17.224 110.735 16.9 110.575 16.62C110.415 16.34 110.195 16.12 109.915 15.96C109.643 15.8 109.327 15.72 108.967 15.72C108.599 15.72 108.275 15.8 107.995 15.96C107.723 16.12 107.507 16.344 107.347 16.632C107.195 16.912 107.119 17.244 107.119 17.628V17.868C107.119 18.252 107.207 18.592 107.383 18.888C107.559 19.184 107.807 19.412 108.127 19.572C108.447 19.732 108.815 19.812 109.231 19.812C109.591 19.812 109.915 19.756 110.203 19.644C110.491 19.532 110.747 19.356 110.971 19.116L111.775 20.04C111.487 20.376 111.123 20.636 110.683 20.82C110.251 20.996 109.755 21.084 109.195 21.084ZM113.648 21V14.592H115.076V16.356L114.908 15.84C115.1 15.408 115.4 15.08 115.808 14.856C116.224 14.632 116.74 14.52 117.356 14.52V15.948C117.292 15.932 117.232 15.924 117.176 15.924C117.12 15.916 117.064 15.912 117.008 15.912C116.44 15.912 115.988 16.08 115.652 16.416C115.316 16.744 115.148 17.236 115.148 17.892V21H113.648ZM120.667 21.084C120.131 21.084 119.615 21.016 119.119 20.88C118.631 20.736 118.243 20.564 117.955 20.364L118.531 19.224C118.819 19.408 119.163 19.56 119.563 19.68C119.963 19.8 120.363 19.86 120.763 19.86C121.235 19.86 121.575 19.796 121.783 19.668C121.999 19.54 122.107 19.368 122.107 19.152C122.107 18.976 122.035 18.844 121.891 18.756C121.747 18.66 121.559 18.588 121.327 18.54C121.095 18.492 120.835 18.448 120.547 18.408C120.267 18.368 119.983 18.316 119.695 18.252C119.415 18.18 119.159 18.08 118.927 17.952C118.695 17.816 118.507 17.636 118.363 17.412C118.219 17.188 118.147 16.892 118.147 16.524C118.147 16.116 118.263 15.764 118.495 15.468C118.727 15.164 119.051 14.932 119.467 14.772C119.891 14.604 120.391 14.52 120.967 14.52C121.399 14.52 121.835 14.568 122.275 14.664C122.715 14.76 123.079 14.896 123.367 15.072L122.791 16.212C122.487 16.028 122.179 15.904 121.867 15.84C121.563 15.768 121.259 15.732 120.955 15.732C120.499 15.732 120.159 15.8 119.935 15.936C119.719 16.072 119.611 16.244 119.611 16.452C119.611 16.644 119.683 16.788 119.827 16.884C119.971 16.98 120.159 17.056 120.391 17.112C120.623 17.168 120.879 17.216 121.159 17.256C121.447 17.288 121.731 17.34 122.011 17.412C122.291 17.484 122.547 17.584 122.779 17.712C123.019 17.832 123.211 18.004 123.355 18.228C123.499 18.452 123.571 18.744 123.571 19.104C123.571 19.504 123.451 19.852 123.211 20.148C122.979 20.444 122.647 20.676 122.215 20.844C121.783 21.004 121.267 21.084 120.667 21.084ZM128.499 14.52C129.011 14.52 129.467 14.62 129.867 14.82C130.275 15.02 130.595 15.328 130.827 15.744C131.059 16.152 131.175 16.68 131.175 17.328V21H129.675V17.52C129.675 16.952 129.539 16.528 129.267 16.248C129.003 15.968 128.631 15.828 128.151 15.828C127.799 15.828 127.487 15.9 127.215 16.044C126.943 16.188 126.731 16.404 126.579 16.692C126.435 16.972 126.363 17.328 126.363 17.76V21H124.863V12.096H126.363V16.32L126.039 15.792C126.263 15.384 126.587 15.072 127.011 14.856C127.443 14.632 127.939 14.52 128.499 14.52ZM136.101 21.084C135.389 21.084 134.765 20.944 134.229 20.664C133.701 20.376 133.289 19.984 132.993 19.488C132.705 18.992 132.561 18.428 132.561 17.796C132.561 17.156 132.701 16.592 132.981 16.104C133.269 15.608 133.661 15.22 134.157 14.94C134.661 14.66 135.233 14.52 135.873 14.52C136.497 14.52 137.053 14.656 137.541 14.928C138.029 15.2 138.413 15.584 138.693 16.08C138.973 16.576 139.113 17.16 139.113 17.832C139.113 17.896 139.109 17.968 139.101 18.048C139.101 18.128 139.097 18.204 139.089 18.276H133.749V17.28H138.297L137.709 17.592C137.717 17.224 137.641 16.9 137.481 16.62C137.321 16.34 137.101 16.12 136.821 15.96C136.549 15.8 136.233 15.72 135.873 15.72C135.505 15.72 135.181 15.8 134.901 15.96C134.629 16.12 134.413 16.344 134.253 16.632C134.101 16.912 134.025 17.244 134.025 17.628V17.868C134.025 18.252 134.113 18.592 134.289 18.888C134.465 19.184 134.713 19.412 135.033 19.572C135.353 19.732 135.721 19.812 136.137 19.812C136.497 19.812 136.821 19.756 137.109 19.644C137.397 19.532 137.653 19.356 137.877 19.116L138.681 20.04C138.393 20.376 138.029 20.636 137.589 20.82C137.157 20.996 136.661 21.084 136.101 21.084ZM143.266 21.084C142.65 21.084 142.094 20.948 141.598 20.676C141.11 20.396 140.726 20.012 140.446 19.524C140.166 19.036 140.026 18.46 140.026 17.796C140.026 17.132 140.166 16.556 140.446 16.068C140.726 15.58 141.11 15.2 141.598 14.928C142.094 14.656 142.65 14.52 143.266 14.52C143.802 14.52 144.282 14.64 144.706 14.88C145.13 15.112 145.466 15.468 145.714 15.948C145.962 16.428 146.086 17.044 146.086 17.796C146.086 18.54 145.966 19.156 145.726 19.644C145.486 20.124 145.154 20.484 144.73 20.724C144.306 20.964 143.818 21.084 143.266 21.084ZM143.446 19.8C143.806 19.8 144.126 19.72 144.406 19.56C144.694 19.4 144.922 19.168 145.09 18.864C145.266 18.56 145.354 18.204 145.354 17.796C145.354 17.38 145.266 17.024 145.09 16.728C144.922 16.424 144.694 16.192 144.406 16.032C144.126 15.872 143.806 15.792 143.446 15.792C143.086 15.792 142.762 15.872 142.474 16.032C142.194 16.192 141.966 16.424 141.79 16.728C141.622 17.024 141.538 17.38 141.538 17.796C141.538 18.204 141.622 18.56 141.79 18.864C141.966 19.168 142.194 19.4 142.474 19.56C142.762 19.72 143.086 19.8 143.446 19.8ZM145.39 21V19.488L145.45 17.784L145.33 16.08V12.096H146.818V21H145.39ZM155.661 21.084C155.117 21.084 154.633 20.964 154.209 20.724C153.785 20.484 153.449 20.124 153.201 19.644C152.961 19.156 152.841 18.54 152.841 17.796C152.841 17.044 152.965 16.428 153.213 15.948C153.469 15.468 153.809 15.112 154.233 14.88C154.665 14.64 155.141 14.52 155.661 14.52C156.293 14.52 156.849 14.656 157.329 14.928C157.817 15.2 158.201 15.58 158.481 16.068C158.769 16.556 158.913 17.132 158.913 17.796C158.913 18.46 158.769 19.036 158.481 19.524C158.201 20.012 157.817 20.396 157.329 20.676C156.849 20.948 156.293 21.084 155.661 21.084ZM152.109 21V12.096H153.609V16.08L153.489 17.784L153.537 19.488V21H152.109ZM155.493 19.8C155.853 19.8 156.173 19.72 156.453 19.56C156.741 19.4 156.969 19.168 157.137 18.864C157.305 18.56 157.389 18.204 157.389 17.796C157.389 17.38 157.305 17.024 157.137 16.728C156.969 16.424 156.741 16.192 156.453 16.032C156.173 15.872 155.853 15.792 155.493 15.792C155.133 15.792 154.809 15.872 154.521 16.032C154.233 16.192 154.005 16.424 153.837 16.728C153.669 17.024 153.585 17.38 153.585 17.796C153.585 18.204 153.669 18.56 153.837 18.864C154.005 19.168 154.233 19.4 154.521 19.56C154.809 19.72 155.133 19.8 155.493 19.8ZM163.348 21.084C162.636 21.084 162.012 20.944 161.476 20.664C160.948 20.376 160.536 19.984 160.24 19.488C159.952 18.992 159.808 18.428 159.808 17.796C159.808 17.156 159.948 16.592 160.228 16.104C160.516 15.608 160.908 15.22 161.404 14.94C161.908 14.66 162.48 14.52 163.12 14.52C163.744 14.52 164.3 14.656 164.788 14.928C165.276 15.2 165.66 15.584 165.94 16.08C166.22 16.576 166.36 17.16 166.36 17.832C166.36 17.896 166.356 17.968 166.348 18.048C166.348 18.128 166.344 18.204 166.336 18.276H160.996V17.28H165.544L164.956 17.592C164.964 17.224 164.888 16.9 164.728 16.62C164.568 16.34 164.348 16.12 164.068 15.96C163.796 15.8 163.48 15.72 163.12 15.72C162.752 15.72 162.428 15.8 162.148 15.96C161.876 16.12 161.66 16.344 161.5 16.632C161.348 16.912 161.272 17.244 161.272 17.628V17.868C161.272 18.252 161.36 18.592 161.536 18.888C161.712 19.184 161.96 19.412 162.28 19.572C162.6 19.732 162.968 19.812 163.384 19.812C163.744 19.812 164.068 19.756 164.356 19.644C164.644 19.532 164.9 19.356 165.124 19.116L165.928 20.04C165.64 20.376 165.276 20.636 164.836 20.82C164.404 20.996 163.908 21.084 163.348 21.084ZM167.8 21V12.096H169.3V21H167.8ZM174.149 21.084C173.493 21.084 172.909 20.944 172.397 20.664C171.885 20.376 171.481 19.984 171.185 19.488C170.889 18.992 170.741 18.428 170.741 17.796C170.741 17.156 170.889 16.592 171.185 16.104C171.481 15.608 171.885 15.22 172.397 14.94C172.909 14.66 173.493 14.52 174.149 14.52C174.813 14.52 175.401 14.66 175.913 14.94C176.433 15.22 176.837 15.604 177.125 16.092C177.421 16.58 177.569 17.148 177.569 17.796C177.569 18.428 177.421 18.992 177.125 19.488C176.837 19.984 176.433 20.376 175.913 20.664C175.401 20.944 174.813 21.084 174.149 21.084ZM174.149 19.8C174.517 19.8 174.845 19.72 175.133 19.56C175.421 19.4 175.645 19.168 175.805 18.864C175.973 18.56 176.057 18.204 176.057 17.796C176.057 17.38 175.973 17.024 175.805 16.728C175.645 16.424 175.421 16.192 175.133 16.032C174.845 15.872 174.521 15.792 174.161 15.792C173.793 15.792 173.465 15.872 173.177 16.032C172.897 16.192 172.673 16.424 172.505 16.728C172.337 17.024 172.253 17.38 172.253 17.796C172.253 18.204 172.337 18.56 172.505 18.864C172.673 19.168 172.897 19.4 173.177 19.56C173.465 19.72 173.789 19.8 174.149 19.8ZM180.244 21L177.892 14.592H179.308L181.324 20.244H180.652L182.764 14.592H184.024L186.076 20.244H185.416L187.492 14.592H188.824L186.46 21H185.02L183.148 15.996H183.592L181.684 21H180.244ZM195.584 21.084C194.88 21.084 194.336 20.904 193.951 20.544C193.568 20.176 193.376 19.636 193.376 18.924V13.176H194.876V18.888C194.876 19.192 194.952 19.428 195.104 19.596C195.264 19.764 195.484 19.848 195.764 19.848C196.1 19.848 196.38 19.76 196.604 19.584L197.024 20.652C196.848 20.796 196.632 20.904 196.376 20.976C196.12 21.048 195.856 21.084 195.584 21.084ZM192.32 15.84V14.64H196.592V15.84H192.32ZM200.927 21.084C200.271 21.084 199.687 20.944 199.175 20.664C198.663 20.376 198.259 19.984 197.963 19.488C197.667 18.992 197.519 18.428 197.519 17.796C197.519 17.156 197.667 16.592 197.963 16.104C198.259 15.608 198.663 15.22 199.175 14.94C199.687 14.66 200.271 14.52 200.927 14.52C201.591 14.52 202.179 14.66 202.691 14.94C203.211 15.22 203.615 15.604 203.903 16.092C204.199 16.58 204.347 17.148 204.347 17.796C204.347 18.428 204.199 18.992 203.903 19.488C203.615 19.984 203.211 20.376 202.691 20.664C202.179 20.944 201.591 21.084 200.927 21.084ZM200.927 19.8C201.295 19.8 201.623 19.72 201.911 19.56C202.199 19.4 202.423 19.168 202.583 18.864C202.751 18.56 202.835 18.204 202.835 17.796C202.835 17.38 202.751 17.024 202.583 16.728C202.423 16.424 202.199 16.192 201.911 16.032C201.623 15.872 201.299 15.792 200.939 15.792C200.571 15.792 200.243 15.872 199.955 16.032C199.675 16.192 199.451 16.424 199.283 16.728C199.115 17.024 199.031 17.38 199.031 17.796C199.031 18.204 199.115 18.56 199.283 18.864C199.451 19.168 199.675 19.4 199.955 19.56C200.243 19.72 200.567 19.8 200.927 19.8ZM212.853 21.12C211.701 21.12 210.797 20.796 210.141 20.148C209.493 19.5 209.169 18.564 209.169 17.34V12.6H210.729V17.28C210.729 18.144 210.913 18.772 211.281 19.164C211.657 19.556 212.185 19.752 212.865 19.752C213.545 19.752 214.069 19.556 214.437 19.164C214.805 18.772 214.989 18.144 214.989 17.28V12.6H216.525V17.34C216.525 18.564 216.197 19.5 215.541 20.148C214.893 20.796 213.997 21.12 212.853 21.12ZM222.202 14.52C222.714 14.52 223.17 14.62 223.57 14.82C223.978 15.02 224.298 15.328 224.53 15.744C224.762 16.152 224.878 16.68 224.878 17.328V21H223.378V17.52C223.378 16.952 223.242 16.528 222.97 16.248C222.706 15.968 222.334 15.828 221.854 15.828C221.502 15.828 221.19 15.9 220.918 16.044C220.646 16.188 220.434 16.404 220.282 16.692C220.138 16.972 220.066 17.328 220.066 17.76V21H218.566V14.592H219.994V16.32L219.742 15.792C219.966 15.384 220.29 15.072 220.714 14.856C221.146 14.632 221.642 14.52 222.202 14.52ZM228.368 21L225.62 14.592H227.18L229.544 20.244H228.776L231.224 14.592H232.664L229.916 21H228.368ZM236.437 21.084C235.725 21.084 235.101 20.944 234.565 20.664C234.037 20.376 233.625 19.984 233.329 19.488C233.041 18.992 232.897 18.428 232.897 17.796C232.897 17.156 233.037 16.592 233.317 16.104C233.605 15.608 233.997 15.22 234.493 14.94C234.997 14.66 235.569 14.52 236.209 14.52C236.833 14.52 237.389 14.656 237.877 14.928C238.365 15.2 238.749 15.584 239.029 16.08C239.309 16.576 239.449 17.16 239.449 17.832C239.449 17.896 239.445 17.968 239.437 18.048C239.437 18.128 239.433 18.204 239.425 18.276H234.085V17.28H238.633L238.045 17.592C238.053 17.224 237.977 16.9 237.817 16.62C237.657 16.34 237.437 16.12 237.157 15.96C236.885 15.8 236.569 15.72 236.209 15.72C235.841 15.72 235.517 15.8 235.237 15.96C234.965 16.12 234.749 16.344 234.589 16.632C234.437 16.912 234.361 17.244 234.361 17.628V17.868C234.361 18.252 234.449 18.592 234.625 18.888C234.801 19.184 235.049 19.412 235.369 19.572C235.689 19.732 236.057 19.812 236.473 19.812C236.833 19.812 237.157 19.756 237.445 19.644C237.733 19.532 237.989 19.356 238.213 19.116L239.017 20.04C238.729 20.376 238.365 20.636 237.925 20.82C237.493 20.996 236.997 21.084 236.437 21.084ZM240.89 21V14.592H242.39V21H240.89ZM241.646 13.536C241.366 13.536 241.134 13.448 240.95 13.272C240.774 13.096 240.686 12.884 240.686 12.636C240.686 12.38 240.774 12.168 240.95 12C241.134 11.824 241.366 11.736 241.646 11.736C241.926 11.736 242.154 11.82 242.33 11.988C242.514 12.148 242.606 12.352 242.606 12.6C242.606 12.864 242.518 13.088 242.342 13.272C242.166 13.448 241.934 13.536 241.646 13.536ZM244.359 21V12.096H245.859V21H244.359ZM252.992 21V13.92H250.208V12.6H257.336V13.92H254.552V21H252.992ZM258.363 21V14.592H259.863V21H258.363ZM259.119 13.536C258.839 13.536 258.607 13.448 258.423 13.272C258.247 13.096 258.159 12.884 258.159 12.636C258.159 12.38 258.247 12.168 258.423 12C258.607 11.824 258.839 11.736 259.119 11.736C259.399 11.736 259.627 11.82 259.803 11.988C259.987 12.148 260.079 12.352 260.079 12.6C260.079 12.864 259.991 13.088 259.815 13.272C259.639 13.448 259.407 13.536 259.119 13.536ZM269.92 14.52C270.432 14.52 270.884 14.62 271.276 14.82C271.676 15.02 271.988 15.328 272.212 15.744C272.436 16.152 272.548 16.68 272.548 17.328V21H271.048V17.52C271.048 16.952 270.924 16.528 270.676 16.248C270.428 15.968 270.072 15.828 269.608 15.828C269.28 15.828 268.988 15.9 268.732 16.044C268.484 16.188 268.288 16.4 268.144 16.68C268.008 16.96 267.94 17.316 267.94 17.748V21H266.44V17.52C266.44 16.952 266.316 16.528 266.068 16.248C265.82 15.968 265.464 15.828 265 15.828C264.672 15.828 264.38 15.9 264.124 16.044C263.876 16.188 263.68 16.4 263.536 16.68C263.4 16.96 263.332 17.316 263.332 17.748V21H261.832V14.592H263.26V16.296L263.008 15.792C263.224 15.376 263.536 15.06 263.944 14.844C264.36 14.628 264.832 14.52 265.36 14.52C265.96 14.52 266.48 14.668 266.92 14.964C267.368 15.26 267.664 15.708 267.808 16.308L267.22 16.104C267.428 15.624 267.772 15.24 268.252 14.952C268.732 14.664 269.288 14.52 269.92 14.52ZM277.488 21.084C276.776 21.084 276.152 20.944 275.616 20.664C275.088 20.376 274.676 19.984 274.38 19.488C274.092 18.992 273.948 18.428 273.948 17.796C273.948 17.156 274.088 16.592 274.368 16.104C274.656 15.608 275.048 15.22 275.544 14.94C276.048 14.66 276.62 14.52 277.26 14.52C277.884 14.52 278.44 14.656 278.928 14.928C279.416 15.2 279.8 15.584 280.08 16.08C280.36 16.576 280.5 17.16 280.5 17.832C280.5 17.896 280.496 17.968 280.488 18.048C280.488 18.128 280.484 18.204 280.476 18.276H275.136V17.28H279.684L279.096 17.592C279.104 17.224 279.028 16.9 278.868 16.62C278.708 16.34 278.488 16.12 278.208 15.96C277.936 15.8 277.62 15.72 277.26 15.72C276.892 15.72 276.568 15.8 276.288 15.96C276.016 16.12 275.8 16.344 275.64 16.632C275.488 16.912 275.412 17.244 275.412 17.628V17.868C275.412 18.252 275.5 18.592 275.676 18.888C275.852 19.184 276.1 19.412 276.42 19.572C276.74 19.732 277.108 19.812 277.524 19.812C277.884 19.812 278.208 19.756 278.496 19.644C278.784 19.532 279.04 19.356 279.264 19.116L280.068 20.04C279.78 20.376 279.416 20.636 278.976 20.82C278.544 20.996 278.048 21.084 277.488 21.084ZM281.941 21V12.096H283.441V21H281.941ZM285.938 23.412C285.626 23.412 285.314 23.36 285.002 23.256C284.69 23.152 284.43 23.008 284.222 22.824L284.822 21.72C284.974 21.856 285.146 21.964 285.338 22.044C285.53 22.124 285.726 22.164 285.926 22.164C286.198 22.164 286.418 22.096 286.586 21.96C286.754 21.824 286.91 21.596 287.054 21.276L287.426 20.436L287.546 20.256L289.97 14.592H291.41L288.41 21.516C288.21 21.996 287.986 22.376 287.738 22.656C287.498 22.936 287.226 23.132 286.922 23.244C286.626 23.356 286.298 23.412 285.938 23.412ZM287.258 21.228L284.366 14.592H285.926L288.278 20.124L287.258 21.228ZM299.696 21.12C299.056 21.12 298.46 21.016 297.908 20.808C297.364 20.592 296.888 20.292 296.48 19.908C296.08 19.516 295.768 19.056 295.544 18.528C295.32 18 295.208 17.424 295.208 16.8C295.208 16.176 295.32 15.6 295.544 15.072C295.768 14.544 296.084 14.088 296.492 13.704C296.9 13.312 297.376 13.012 297.92 12.804C298.464 12.588 299.06 12.48 299.708 12.48C300.396 12.48 301.024 12.6 301.592 12.84C302.16 13.072 302.64 13.42 303.032 13.884L302.024 14.832C301.72 14.504 301.38 14.26 301.004 14.1C300.628 13.932 300.22 13.848 299.78 13.848C299.34 13.848 298.936 13.92 298.568 14.064C298.208 14.208 297.892 14.412 297.62 14.676C297.356 14.94 297.148 15.252 296.996 15.612C296.852 15.972 296.78 16.368 296.78 16.8C296.78 17.232 296.852 17.628 296.996 17.988C297.148 18.348 297.356 18.66 297.62 18.924C297.892 19.188 298.208 19.392 298.568 19.536C298.936 19.68 299.34 19.752 299.78 19.752C300.22 19.752 300.628 19.672 301.004 19.512C301.38 19.344 301.72 19.092 302.024 18.756L303.032 19.716C302.64 20.172 302.16 20.52 301.592 20.76C301.024 21 300.392 21.12 299.696 21.12ZM308.018 14.52C308.53 14.52 308.986 14.62 309.386 14.82C309.794 15.02 310.114 15.328 310.346 15.744C310.578 16.152 310.694 16.68 310.694 17.328V21H309.194V17.52C309.194 16.952 309.058 16.528 308.786 16.248C308.522 15.968 308.15 15.828 307.67 15.828C307.318 15.828 307.006 15.9 306.734 16.044C306.462 16.188 306.25 16.404 306.098 16.692C305.954 16.972 305.882 17.328 305.882 17.76V21H304.382V12.096H305.882V16.32L305.558 15.792C305.782 15.384 306.106 15.072 306.53 14.856C306.962 14.632 307.458 14.52 308.018 14.52ZM316.545 21V19.704L316.461 19.428V17.16C316.461 16.72 316.329 16.38 316.065 16.14C315.801 15.892 315.401 15.768 314.865 15.768C314.505 15.768 314.149 15.824 313.797 15.936C313.453 16.048 313.161 16.204 312.921 16.404L312.333 15.312C312.677 15.048 313.085 14.852 313.557 14.724C314.037 14.588 314.533 14.52 315.045 14.52C315.973 14.52 316.689 14.744 317.193 15.192C317.705 15.632 317.961 16.316 317.961 17.244V21H316.545ZM314.529 21.084C314.049 21.084 313.629 21.004 313.269 20.844C312.909 20.676 312.629 20.448 312.429 20.16C312.237 19.864 312.141 19.532 312.141 19.164C312.141 18.804 312.225 18.48 312.393 18.192C312.569 17.904 312.853 17.676 313.245 17.508C313.637 17.34 314.157 17.256 314.805 17.256H316.665V18.252H314.913C314.401 18.252 314.057 18.336 313.881 18.504C313.705 18.664 313.617 18.864 313.617 19.104C313.617 19.376 313.725 19.592 313.941 19.752C314.157 19.912 314.457 19.992 314.841 19.992C315.209 19.992 315.537 19.908 315.825 19.74C316.121 19.572 316.333 19.324 316.461 18.996L316.713 19.896C316.569 20.272 316.309 20.564 315.933 20.772C315.565 20.98 315.097 21.084 314.529 21.084ZM319.886 21V14.592H321.314V16.356L321.146 15.84C321.338 15.408 321.638 15.08 322.046 14.856C322.462 14.632 322.978 14.52 323.594 14.52V15.948C323.53 15.932 323.47 15.924 323.414 15.924C323.358 15.916 323.302 15.912 323.246 15.912C322.678 15.912 322.226 16.08 321.89 16.416C321.554 16.744 321.386 17.236 321.386 17.892V21H319.886ZM327.513 21.084C326.809 21.084 326.265 20.904 325.881 20.544C325.497 20.176 325.305 19.636 325.305 18.924V13.176H326.805V18.888C326.805 19.192 326.881 19.428 327.033 19.596C327.193 19.764 327.413 19.848 327.693 19.848C328.029 19.848 328.309 19.76 328.533 19.584L328.953 20.652C328.777 20.796 328.561 20.904 328.305 20.976C328.049 21.048 327.785 21.084 327.513 21.084ZM324.249 15.84V14.64H328.521V15.84H324.249ZM332.167 21.084C331.631 21.084 331.115 21.016 330.619 20.88C330.131 20.736 329.743 20.564 329.455 20.364L330.031 19.224C330.319 19.408 330.663 19.56 331.063 19.68C331.463 19.8 331.863 19.86 332.263 19.86C332.735 19.86 333.075 19.796 333.283 19.668C333.499 19.54 333.607 19.368 333.607 19.152C333.607 18.976 333.535 18.844 333.391 18.756C333.247 18.66 333.059 18.588 332.827 18.54C332.595 18.492 332.335 18.448 332.047 18.408C331.767 18.368 331.483 18.316 331.195 18.252C330.915 18.18 330.659 18.08 330.427 17.952C330.195 17.816 330.007 17.636 329.863 17.412C329.719 17.188 329.647 16.892 329.647 16.524C329.647 16.116 329.763 15.764 329.995 15.468C330.227 15.164 330.551 14.932 330.967 14.772C331.391 14.604 331.891 14.52 332.467 14.52C332.899 14.52 333.335 14.568 333.775 14.664C334.215 14.76 334.579 14.896 334.867 15.072L334.291 16.212C333.987 16.028 333.679 15.904 333.367 15.84C333.063 15.768 332.759 15.732 332.455 15.732C331.999 15.732 331.659 15.8 331.435 15.936C331.219 16.072 331.111 16.244 331.111 16.452C331.111 16.644 331.183 16.788 331.327 16.884C331.471 16.98 331.659 17.056 331.891 17.112C332.123 17.168 332.379 17.216 332.659 17.256C332.947 17.288 333.231 17.34 333.511 17.412C333.791 17.484 334.047 17.584 334.279 17.712C334.519 17.832 334.711 18.004 334.855 18.228C334.999 18.452 335.071 18.744 335.071 19.104C335.071 19.504 334.951 19.852 334.711 20.148C334.479 20.444 334.147 20.676 333.715 20.844C333.283 21.004 332.767 21.084 332.167 21.084ZM343.627 21V19.704L343.543 19.428V17.16C343.543 16.72 343.411 16.38 343.147 16.14C342.883 15.892 342.483 15.768 341.947 15.768C341.587 15.768 341.231 15.824 340.879 15.936C340.535 16.048 340.243 16.204 340.003 16.404L339.415 15.312C339.759 15.048 340.167 14.852 340.639 14.724C341.119 14.588 341.615 14.52 342.127 14.52C343.055 14.52 343.771 14.744 344.275 15.192C344.787 15.632 345.043 16.316 345.043 17.244V21H343.627ZM341.611 21.084C341.131 21.084 340.711 21.004 340.351 20.844C339.991 20.676 339.711 20.448 339.511 20.16C339.319 19.864 339.223 19.532 339.223 19.164C339.223 18.804 339.307 18.48 339.475 18.192C339.651 17.904 339.935 17.676 340.327 17.508C340.719 17.34 341.239 17.256 341.887 17.256H343.747V18.252H341.995C341.483 18.252 341.139 18.336 340.963 18.504C340.787 18.664 340.699 18.864 340.699 19.104C340.699 19.376 340.807 19.592 341.023 19.752C341.239 19.912 341.539 19.992 341.923 19.992C342.291 19.992 342.619 19.908 342.907 19.74C343.203 19.572 343.415 19.324 343.543 18.996L343.795 19.896C343.651 20.272 343.391 20.564 343.015 20.772C342.647 20.98 342.179 21.084 341.611 21.084ZM350.604 14.52C351.116 14.52 351.572 14.62 351.972 14.82C352.38 15.02 352.7 15.328 352.932 15.744C353.164 16.152 353.28 16.68 353.28 17.328V21H351.78V17.52C351.78 16.952 351.644 16.528 351.372 16.248C351.108 15.968 350.736 15.828 350.256 15.828C349.904 15.828 349.592 15.9 349.32 16.044C349.048 16.188 348.836 16.404 348.684 16.692C348.54 16.972 348.468 17.328 348.468 17.76V21H346.968V14.592H348.396V16.32L348.144 15.792C348.368 15.384 348.692 15.072 349.116 14.856C349.548 14.632 350.044 14.52 350.604 14.52ZM357.907 21.084C357.291 21.084 356.735 20.948 356.239 20.676C355.751 20.396 355.367 20.012 355.087 19.524C354.807 19.036 354.667 18.46 354.667 17.796C354.667 17.132 354.807 16.556 355.087 16.068C355.367 15.58 355.751 15.2 356.239 14.928C356.735 14.656 357.291 14.52 357.907 14.52C358.443 14.52 358.923 14.64 359.347 14.88C359.771 15.112 360.107 15.468 360.355 15.948C360.603 16.428 360.727 17.044 360.727 17.796C360.727 18.54 360.607 19.156 360.367 19.644C360.127 20.124 359.795 20.484 359.371 20.724C358.947 20.964 358.459 21.084 357.907 21.084ZM358.087 19.8C358.447 19.8 358.767 19.72 359.047 19.56C359.335 19.4 359.563 19.168 359.731 18.864C359.907 18.56 359.995 18.204 359.995 17.796C359.995 17.38 359.907 17.024 359.731 16.728C359.563 16.424 359.335 16.192 359.047 16.032C358.767 15.872 358.447 15.792 358.087 15.792C357.727 15.792 357.403 15.872 357.115 16.032C356.835 16.192 356.607 16.424 356.431 16.728C356.263 17.024 356.179 17.38 356.179 17.796C356.179 18.204 356.263 18.56 356.431 18.864C356.607 19.168 356.835 19.4 357.115 19.56C357.403 19.72 357.727 19.8 358.087 19.8ZM360.031 21V19.488L360.091 17.784L359.971 16.08V12.096H361.459V21H360.031ZM366.894 21V12.6H370.566C371.478 12.6 372.278 12.776 372.966 13.128C373.654 13.48 374.19 13.968 374.574 14.592C374.958 15.216 375.15 15.952 375.15 16.8C375.15 17.64 374.958 18.376 374.574 19.008C374.19 19.632 373.654 20.12 372.966 20.472C372.278 20.824 371.478 21 370.566 21H366.894ZM368.454 19.68H370.494C371.126 19.68 371.67 19.56 372.126 19.32C372.59 19.08 372.946 18.744 373.194 18.312C373.45 17.88 373.578 17.376 373.578 16.8C373.578 16.216 373.45 15.712 373.194 15.288C372.946 14.856 372.59 14.52 372.126 14.28C371.67 14.04 371.126 13.92 370.494 13.92H368.454V19.68ZM380.612 21V19.704L380.528 19.428V17.16C380.528 16.72 380.396 16.38 380.132 16.14C379.868 15.892 379.468 15.768 378.932 15.768C378.572 15.768 378.216 15.824 377.864 15.936C377.52 16.048 377.228 16.204 376.988 16.404L376.4 15.312C376.744 15.048 377.152 14.852 377.624 14.724C378.104 14.588 378.6 14.52 379.112 14.52C380.04 14.52 380.756 14.744 381.26 15.192C381.772 15.632 382.028 16.316 382.028 17.244V21H380.612ZM378.596 21.084C378.116 21.084 377.696 21.004 377.336 20.844C376.976 20.676 376.696 20.448 376.496 20.16C376.304 19.864 376.208 19.532 376.208 19.164C376.208 18.804 376.292 18.48 376.46 18.192C376.636 17.904 376.92 17.676 377.312 17.508C377.704 17.34 378.224 17.256 378.872 17.256H380.732V18.252H378.98C378.468 18.252 378.124 18.336 377.948 18.504C377.772 18.664 377.684 18.864 377.684 19.104C377.684 19.376 377.792 19.592 378.008 19.752C378.224 19.912 378.524 19.992 378.908 19.992C379.276 19.992 379.604 19.908 379.892 19.74C380.188 19.572 380.4 19.324 380.528 18.996L380.78 19.896C380.636 20.272 380.376 20.564 380 20.772C379.632 20.98 379.164 21.084 378.596 21.084ZM386.365 21.084C385.661 21.084 385.117 20.904 384.733 20.544C384.349 20.176 384.157 19.636 384.157 18.924V13.176H385.657V18.888C385.657 19.192 385.733 19.428 385.885 19.596C386.045 19.764 386.265 19.848 386.545 19.848C386.881 19.848 387.161 19.76 387.385 19.584L387.805 20.652C387.629 20.796 387.413 20.904 387.157 20.976C386.901 21.048 386.637 21.084 386.365 21.084ZM383.101 15.84V14.64H387.373V15.84H383.101ZM392.987 21V19.704L392.903 19.428V17.16C392.903 16.72 392.771 16.38 392.507 16.14C392.243 15.892 391.843 15.768 391.307 15.768C390.947 15.768 390.591 15.824 390.239 15.936C389.895 16.048 389.603 16.204 389.363 16.404L388.775 15.312C389.119 15.048 389.527 14.852 389.999 14.724C390.479 14.588 390.975 14.52 391.487 14.52C392.415 14.52 393.131 14.744 393.635 15.192C394.147 15.632 394.403 16.316 394.403 17.244V21H392.987ZM390.971 21.084C390.491 21.084 390.071 21.004 389.711 20.844C389.351 20.676 389.071 20.448 388.871 20.16C388.679 19.864 388.583 19.532 388.583 19.164C388.583 18.804 388.667 18.48 388.835 18.192C389.011 17.904 389.295 17.676 389.687 17.508C390.079 17.34 390.599 17.256 391.247 17.256H393.107V18.252H391.355C390.843 18.252 390.499 18.336 390.323 18.504C390.147 18.664 390.059 18.864 390.059 19.104C390.059 19.376 390.167 19.592 390.383 19.752C390.599 19.912 390.899 19.992 391.283 19.992C391.651 19.992 391.979 19.908 392.267 19.74C392.563 19.572 392.775 19.324 392.903 18.996L393.155 19.896C393.011 20.272 392.751 20.564 392.375 20.772C392.007 20.98 391.539 21.084 390.971 21.084ZM398.6 21L402.38 12.6H403.916L407.708 21H406.076L402.824 13.428H403.448L400.208 21H398.6ZM400.34 19.056L400.76 17.832H405.296L405.716 19.056H400.34ZM412.268 14.52C412.78 14.52 413.236 14.62 413.636 14.82C414.044 15.02 414.364 15.328 414.596 15.744C414.828 16.152 414.944 16.68 414.944 17.328V21H413.444V17.52C413.444 16.952 413.308 16.528 413.036 16.248C412.772 15.968 412.4 15.828 411.92 15.828C411.568 15.828 411.256 15.9 410.984 16.044C410.712 16.188 410.5 16.404 410.348 16.692C410.204 16.972 410.132 17.328 410.132 17.76V21H408.632V14.592H410.06V16.32L409.808 15.792C410.032 15.384 410.356 15.072 410.78 14.856C411.212 14.632 411.708 14.52 412.268 14.52ZM420.795 21V19.704L420.711 19.428V17.16C420.711 16.72 420.579 16.38 420.315 16.14C420.051 15.892 419.651 15.768 419.115 15.768C418.755 15.768 418.399 15.824 418.047 15.936C417.703 16.048 417.411 16.204 417.171 16.404L416.583 15.312C416.927 15.048 417.335 14.852 417.807 14.724C418.287 14.588 418.783 14.52 419.295 14.52C420.223 14.52 420.939 14.744 421.443 15.192C421.955 15.632 422.211 16.316 422.211 17.244V21H420.795ZM418.779 21.084C418.299 21.084 417.879 21.004 417.519 20.844C417.159 20.676 416.879 20.448 416.679 20.16C416.487 19.864 416.391 19.532 416.391 19.164C416.391 18.804 416.475 18.48 416.643 18.192C416.819 17.904 417.103 17.676 417.495 17.508C417.887 17.34 418.407 17.256 419.055 17.256H420.915V18.252H419.163C418.651 18.252 418.307 18.336 418.131 18.504C417.955 18.664 417.867 18.864 417.867 19.104C417.867 19.376 417.975 19.592 418.191 19.752C418.407 19.912 418.707 19.992 419.091 19.992C419.459 19.992 419.787 19.908 420.075 19.74C420.371 19.572 420.583 19.324 420.711 18.996L420.963 19.896C420.819 20.272 420.559 20.564 420.183 20.772C419.815 20.98 419.347 21.084 418.779 21.084ZM424.136 21V12.096H425.636V21H424.136ZM428.133 23.412C427.821 23.412 427.509 23.36 427.197 23.256C426.885 23.152 426.625 23.008 426.417 22.824L427.017 21.72C427.169 21.856 427.341 21.964 427.533 22.044C427.725 22.124 427.921 22.164 428.121 22.164C428.393 22.164 428.613 22.096 428.781 21.96C428.949 21.824 429.105 21.596 429.249 21.276L429.621 20.436L429.741 20.256L432.165 14.592H433.605L430.605 21.516C430.405 21.996 430.181 22.376 429.933 22.656C429.693 22.936 429.421 23.132 429.117 23.244C428.821 23.356 428.493 23.412 428.133 23.412ZM429.453 21.228L426.561 14.592H428.121L430.473 20.124L429.453 21.228ZM437.13 21.084C436.426 21.084 435.882 20.904 435.498 20.544C435.114 20.176 434.922 19.636 434.922 18.924V13.176H436.422V18.888C436.422 19.192 436.498 19.428 436.65 19.596C436.81 19.764 437.03 19.848 437.31 19.848C437.646 19.848 437.926 19.76 438.15 19.584L438.57 20.652C438.394 20.796 438.178 20.904 437.922 20.976C437.666 21.048 437.402 21.084 437.13 21.084ZM433.866 15.84V14.64H438.138V15.84H433.866ZM439.804 21V14.592H441.304V21H439.804ZM440.56 13.536C440.28 13.536 440.048 13.448 439.864 13.272C439.688 13.096 439.6 12.884 439.6 12.636C439.6 12.38 439.688 12.168 439.864 12C440.048 11.824 440.28 11.736 440.56 11.736C440.84 11.736 441.068 11.82 441.244 11.988C441.428 12.148 441.52 12.352 441.52 12.6C441.52 12.864 441.432 13.088 441.256 13.272C441.08 13.448 440.848 13.536 440.56 13.536ZM446.213 21.084C445.541 21.084 444.941 20.944 444.413 20.664C443.893 20.376 443.485 19.984 443.189 19.488C442.893 18.992 442.745 18.428 442.745 17.796C442.745 17.156 442.893 16.592 443.189 16.104C443.485 15.608 443.893 15.22 444.413 14.94C444.941 14.66 445.541 14.52 446.213 14.52C446.837 14.52 447.385 14.648 447.857 14.904C448.337 15.152 448.701 15.52 448.949 16.008L447.797 16.68C447.605 16.376 447.369 16.152 447.089 16.008C446.817 15.864 446.521 15.792 446.201 15.792C445.833 15.792 445.501 15.872 445.205 16.032C444.909 16.192 444.677 16.424 444.509 16.728C444.341 17.024 444.257 17.38 444.257 17.796C444.257 18.212 444.341 18.572 444.509 18.876C444.677 19.172 444.909 19.4 445.205 19.56C445.501 19.72 445.833 19.8 446.201 19.8C446.521 19.8 446.817 19.728 447.089 19.584C447.369 19.44 447.605 19.216 447.797 18.912L448.949 19.584C448.701 20.064 448.337 20.436 447.857 20.7C447.385 20.956 446.837 21.084 446.213 21.084ZM452.226 21.084C451.69 21.084 451.174 21.016 450.678 20.88C450.19 20.736 449.802 20.564 449.514 20.364L450.09 19.224C450.378 19.408 450.722 19.56 451.122 19.68C451.522 19.8 451.922 19.86 452.322 19.86C452.794 19.86 453.134 19.796 453.342 19.668C453.558 19.54 453.666 19.368 453.666 19.152C453.666 18.976 453.594 18.844 453.45 18.756C453.306 18.66 453.118 18.588 452.886 18.54C452.654 18.492 452.394 18.448 452.106 18.408C451.826 18.368 451.542 18.316 451.254 18.252C450.974 18.18 450.718 18.08 450.486 17.952C450.254 17.816 450.066 17.636 449.922 17.412C449.778 17.188 449.706 16.892 449.706 16.524C449.706 16.116 449.822 15.764 450.054 15.468C450.286 15.164 450.61 14.932 451.026 14.772C451.45 14.604 451.95 14.52 452.526 14.52C452.958 14.52 453.394 14.568 453.834 14.664C454.274 14.76 454.638 14.896 454.926 15.072L454.35 16.212C454.046 16.028 453.738 15.904 453.426 15.84C453.122 15.768 452.818 15.732 452.514 15.732C452.058 15.732 451.718 15.8 451.494 15.936C451.278 16.072 451.17 16.244 451.17 16.452C451.17 16.644 451.242 16.788 451.386 16.884C451.53 16.98 451.718 17.056 451.95 17.112C452.182 17.168 452.438 17.216 452.718 17.256C453.006 17.288 453.29 17.34 453.57 17.412C453.85 17.484 454.106 17.584 454.338 17.712C454.578 17.832 454.77 18.004 454.914 18.228C455.058 18.452 455.13 18.744 455.13 19.104C455.13 19.504 455.01 19.852 454.77 20.148C454.538 20.444 454.206 20.676 453.774 20.844C453.342 21.004 452.826 21.084 452.226 21.084Z" fill="#4F4F4F"/>
<path d="M55.0215 0.166656C55.4702 0.166656 55.834 0.530429 55.834 0.979156V3.68749C55.834 4.13622 55.4702 4.49999 55.0215 4.49999C54.5728 4.49999 54.209 4.13622 54.209 3.68749V0.979156C54.209 0.530429 54.5728 0.166656 55.0215 0.166656ZM49.8428 2.30062C50.1601 1.98331 50.6745 1.98329 50.9918 2.30057L52.8877 4.19628C53.205 4.51356 53.205 5.02802 52.8877 5.34533C52.5704 5.66265 52.056 5.66266 51.7386 5.34537L49.8428 3.44967C49.5255 3.13238 49.5255 2.61793 49.8428 2.30062ZM60.2001 2.3006C60.5175 2.6179 60.5175 3.13235 60.2001 3.44964L58.3043 5.34548C57.987 5.66279 57.4726 5.66279 57.1553 5.34548C56.838 5.02818 56.838 4.51374 57.1553 4.19643L59.0512 2.3006C59.3685 1.9833 59.8828 1.9833 60.2001 2.3006ZM47.709 7.47916C47.709 7.03043 48.0728 6.66666 48.5215 6.66666H51.2298C51.6785 6.66666 52.0423 7.03043 52.0423 7.47916C52.0423 7.92788 51.6785 8.29166 51.2298 8.29166H48.5215C48.0728 8.29166 47.709 7.92788 47.709 7.47916ZM56.5677 7.19274C55.6409 6.39828 54.209 7.05686 54.209 8.27764V20.4909C54.209 21.8024 55.8282 22.4211 56.7027 21.4436L59.5352 18.2779C59.8334 17.9446 60.2541 17.7463 60.7011 17.7285L64.8611 17.5621C66.1586 17.5102 66.7198 15.8945 65.7339 15.0494L56.5677 7.19274ZM55.834 19.9776V8.70405L64.2973 15.9583L60.6361 16.1048C59.7498 16.1402 58.9156 16.5333 58.3241 17.1944L55.834 19.9776Z" fill="#4F4F4F"/>
</svg>
