<svg width="19" height="20" viewBox="0 0 19 20" fill="none" xmlns="http://www.w3.org/2000/svg">
<path d="M5.4981 2.81638C6.08637 1.17468 7.6553 0 9.5 0C11.3447 0 12.9136 1.17468 13.5019 2.81638C15.4907 3.17156 17 4.90933 17 7C17 7.36664 16.9534 7.7231 16.8657 8.0634C18.1405 8.7966 19 10.1722 19 11.75C19 13.9526 17.3249 15.7633 15.1786 15.9786C15.1214 15.9926 15.0615 16 15 16H12V18.25C12 19.2165 11.2165 20 10.25 20H8.75C7.7835 20 7 19.2165 7 18.25V16H4C3.93845 16 3.87864 15.9926 3.8214 15.9786C1.67511 15.7633 0 13.9526 0 11.75C0 10.1722 0.85949 8.7966 2.13432 8.0634C2.04659 7.72309 2 7.36664 2 7C2 4.90934 3.50929 3.17156 5.4981 2.81638ZM8.5 16V18.25C8.5 18.3881 8.6119 18.5 8.75 18.5H10.25C10.3881 18.5 10.5 18.3881 10.5 18.25V16H8.5Z" fill="#1E6F5C"/>
</svg>
