<svg xmlns="http://www.w3.org/2000/svg" width="21" height="21" viewBox="0 0 21 21" fill="none">
<path d="M5 0C3.89543 0 3 0.89543 3 2V15C3 16.1046 3.89543 17 5 17H9.1739C9.0602 16.5185 9 16.0163 9 15.5H5C4.72386 15.5 4.5 15.2761 4.5 15V2C4.5 1.72386 4.72386 1.5 5 1.5H10.5001L10.5 4.74996C10.5 5.71647 11.2835 6.5 12.25 6.5H15.5V9C16.0163 9 16.5185 9.0602 17 9.1739V5.76777C17 5.23733 16.7893 4.72863 16.4142 4.35355L12.6464 0.58579C12.2714 0.21071 11.7627 0 11.2322 0H5ZM12 4.74999L12.0001 2.06075L14.9393 5H12.25C12.112 5 12 4.88807 12 4.74999ZM4.5 18.5H9.7322C10.0194 19.051 10.3832 19.5557 10.8096 20H4.5C2.01472 20 0 17.9853 0 15.5V13.75C0 13.3358 0.33579 13 0.75 13C1.16421 13 1.5 13.3358 1.5 13.75V15.5C1.5 17.1569 2.84315 18.5 4.5 18.5ZM6 3.75C6 3.33579 6.33579 3 6.75 3H8.25C8.6642 3 9 3.33579 9 3.75C9 4.16421 8.6642 4.5 8.25 4.5H6.75C6.33579 4.5 6 4.16421 6 3.75ZM6.75 6C6.33579 6 6 6.33579 6 6.75C6 7.16421 6.33579 7.5 6.75 7.5H8.25C8.6642 7.5 9 7.16421 9 6.75C9 6.33579 8.6642 6 8.25 6H6.75ZM6.75 9C6.33579 9 6 9.3358 6 9.75C6 10.1642 6.33579 10.5 6.75 10.5H8.25C8.6642 10.5 9 10.1642 9 9.75C9 9.3358 8.6642 9 8.25 9H6.75ZM21 15.5C21 12.4624 18.5376 10 15.5 10C12.4624 10 10 12.4624 10 15.5C10 18.5376 12.4624 21 15.5 21C18.5376 21 21 18.5376 21 15.5ZM16.0006 16L16.0011 18.5035C16.0011 18.7797 15.7773 19.0035 15.5011 19.0035C15.225 19.0035 15.0011 18.7797 15.0011 18.5035L15.0006 16H12.4956C12.2197 16 11.9961 15.7762 11.9961 15.5C11.9961 15.2239 12.2197 15 12.4956 15H15.0005L15 12.4993C15 12.2231 15.2239 11.9993 15.5 11.9993C15.7761 11.9993 16 12.2231 16 12.4993L16.0005 15H18.4966C18.7725 15 18.9961 15.2239 18.9961 15.5C18.9961 15.7762 18.7725 16 18.4966 16H16.0006Z" fill="#071E18"/>
</svg>