<svg width="20" height="20" viewBox="0 0 20 20" fill="none" xmlns="http://www.w3.org/2000/svg">
<path d="M10.0026 1.66675V6.66675C10.0026 7.58722 10.7488 8.33341 11.6693 8.33341H16.6693V16.6667C16.6693 17.5872 15.9231 18.3334 15.0026 18.3334H9.32794C10.2619 17.3602 10.8359 16.0388 10.8359 14.5834C10.8359 11.5918 8.41085 9.16675 5.41927 9.16675C4.68102 9.16675 3.97726 9.31441 3.33594 9.58191V3.33341C3.33594 2.41294 4.08213 1.66675 5.0026 1.66675H10.0026ZM11.2526 2.08341V6.66675C11.2526 6.89686 11.4392 7.08341 11.6693 7.08341H16.2526L11.2526 2.08341ZM10.0026 14.5834C10.0026 12.0521 7.95058 10.0001 5.41927 10.0001C2.88796 10.0001 0.835938 12.0521 0.835938 14.5834C0.835938 17.1147 2.88796 19.1667 5.41927 19.1667C7.95058 19.1667 10.0026 17.1147 10.0026 14.5834ZM5.83648 15.0001L5.83686 17.0863C5.83686 17.3165 5.65031 17.503 5.4202 17.503C5.19008 17.503 5.00353 17.3165 5.00353 17.0863L5.00315 15.0001H2.9156C2.68571 15.0001 2.49935 14.8136 2.49935 14.5834C2.49935 14.3533 2.68571 14.1667 2.9156 14.1667H5.00299L5.0026 12.0828C5.0026 11.8527 5.18915 11.6662 5.41927 11.6662C5.64939 11.6662 5.83594 11.8527 5.83594 12.0828L5.83632 14.1667H7.91643C8.14632 14.1667 8.33268 14.3533 8.33268 14.5834C8.33268 14.8136 8.14632 15.0001 7.91643 15.0001H5.83648Z" fill="#58726C"/>
</svg>
