<svg width="32" height="32" viewBox="0 0 32 32" fill="none" xmlns="http://www.w3.org/2000/svg">
<path d="M15.5 7C15.8935 7 16.2125 7.319 16.2125 7.7125V9.1375C16.2125 9.531 15.8935 9.85 15.5 9.85C15.1065 9.85 14.7875 9.531 14.7875 9.1375V7.7125C14.7875 7.319 15.1065 7 15.5 7ZM15.5 21.25C18.1233 21.25 20.25 19.1233 20.25 16.5C20.25 13.8767 18.1233 11.75 15.5 11.75C12.8767 11.75 10.75 13.8767 10.75 16.5C10.75 19.1233 12.8767 21.25 15.5 21.25ZM15.5 19.825C13.6637 19.825 12.175 18.3363 12.175 16.5C12.175 14.6637 13.6637 13.175 15.5 13.175C17.3363 13.175 18.825 14.6637 18.825 16.5C18.825 18.3363 17.3363 19.825 15.5 19.825ZM24.2875 17.2125C24.681 17.2125 25 16.8935 25 16.5C25 16.1065 24.681 15.7875 24.2875 15.7875H22.8625C22.469 15.7875 22.15 16.1065 22.15 16.5C22.15 16.8935 22.469 17.2125 22.8625 17.2125H24.2875ZM15.5 23.15C15.8935 23.15 16.2125 23.469 16.2125 23.8625V25.2875C16.2125 25.681 15.8935 26 15.5 26C15.1065 26 14.7875 25.681 14.7875 25.2875V23.8625C14.7875 23.469 15.1065 23.15 15.5 23.15ZM8.1375 17.2125C8.531 17.2125 8.85 16.8935 8.85 16.5C8.85 16.1065 8.531 15.7875 8.1375 15.7875H6.7125C6.319 15.7875 6 16.1065 6 16.5C6 16.8935 6.319 17.2125 6.7125 17.2125H8.1375ZM8.10869 9.10904C8.38693 8.83079 8.83807 8.83079 9.11631 9.10904L10.5413 10.534C10.8196 10.8123 10.8196 11.2634 10.5413 11.5417C10.2631 11.8199 9.81193 11.8199 9.53369 11.5417L8.10869 10.1167C7.83044 9.83842 7.83044 9.38729 8.10869 9.10904ZM9.11631 23.8917C8.83807 24.1699 8.38693 24.1699 8.10869 23.8917C7.83044 23.6134 7.83044 23.1623 8.10869 22.884L9.53369 21.459C9.81193 21.1807 10.2631 21.1807 10.5413 21.459C10.8196 21.7373 10.8196 22.1884 10.5413 22.4667L9.11631 23.8917ZM22.8913 9.10904C22.613 8.83079 22.162 8.83079 21.8837 9.10904L20.4587 10.534C20.1805 10.8123 20.1805 11.2634 20.4587 11.5417C20.737 11.8199 21.188 11.8199 21.4663 11.5417L22.8913 10.1167C23.1695 9.83842 23.1695 9.38729 22.8913 9.10904ZM21.8837 23.8917C22.162 24.1699 22.613 24.1699 22.8913 23.8917C23.1695 23.6134 23.1695 23.1623 22.8913 22.884L21.4663 21.459C21.188 21.1807 20.737 21.1807 20.4587 21.459C20.1805 21.7373 20.1805 22.1884 20.4587 22.4667L21.8837 23.8917Z" fill="#58726C"/>
<circle cx="15.5707" cy="16.4328" r="3.6566" fill="#58726C"/>
</svg>
