<svg width="40" height="25" viewBox="0 0 40 25" fill="none" xmlns="http://www.w3.org/2000/svg">
<path d="M2.28234 16.978H6.5076V17.9846H2.28234V16.978ZM2.39939 21.2969H1.22895V13.1039H7.01089V14.1221H2.39939V21.2969ZM8.65845 21.2969V13.1039H9.82888V21.2969H8.65845ZM12.2818 21.2969V13.1039H15.477C16.1949 13.1039 16.8074 13.217 17.3146 13.4433C17.8218 13.6696 18.212 13.9973 18.4851 14.4264C18.7582 14.8556 18.8947 15.3667 18.8947 15.9597C18.8947 16.5527 18.7582 17.0638 18.4851 17.493C18.212 17.9143 17.8218 18.2381 17.3146 18.4644C16.8074 18.6907 16.1949 18.8039 15.477 18.8039H12.9255L13.4522 18.2655V21.2969H12.2818ZM17.7594 21.2969L15.676 18.324H16.9284L19.0352 21.2969H17.7594ZM13.4522 18.3825L12.9255 17.809H15.4419C16.191 17.809 16.7567 17.649 17.1391 17.3291C17.5292 17.0014 17.7243 16.5449 17.7243 15.9597C17.7243 15.3745 17.5292 14.9219 17.1391 14.602C16.7567 14.2821 16.191 14.1221 15.4419 14.1221H12.9255L13.4522 13.5369V18.3825ZM20.7857 21.2969V13.1039H21.7454L25.4206 19.2954H24.9056L28.5339 13.1039H29.4937L29.5054 21.2969H28.3818L28.3701 14.8712H28.6393L25.4089 20.302H24.8705L21.6167 14.8712H21.9093V21.2969H20.7857ZM30.7236 21.2969L34.4338 13.1039H35.5926L39.3145 21.2969H38.0856L34.7733 13.7593H35.2414L31.9291 21.2969H30.7236ZM32.3036 19.2486L32.6197 18.3123H37.2312L37.5706 19.2486H32.3036Z" fill="white"/>
<path d="M15.6691 5.54885C15.4102 5.53983 15.3289 5.52741 15.0538 5.45024C14.6083 5.32528 14.3783 5.30164 14.2047 5.36962C13.9744 5.45706 13.9356 5.57943 14.0004 6.01504C14.0468 6.32549 14.0504 6.39496 14.0479 6.74782C14.0438 7.17215 14.0476 7.18485 14.3632 7.55465C14.7893 8.05314 14.821 8.16965 14.7417 8.92287C14.693 9.37026 14.6935 9.41968 14.7297 9.51438C14.768 9.6142 14.7911 9.63362 14.9769 9.7322C15.0912 9.79211 15.1403 9.91021 15.1661 10.199C15.1909 10.4457 15.2237 10.55 15.2863 10.5755C15.3104 10.5851 15.4103 10.6116 15.5103 10.6381C15.9866 10.7536 16.1057 10.8979 16.1291 11.3766C16.1356 11.5229 16.1585 11.6805 16.1846 11.7496C16.2652 11.9595 16.4892 12.1036 16.9113 12.2116C17.3406 12.3227 17.5909 12.2889 17.8672 12.0822C17.9662 12.0099 18.093 11.9351 18.1546 11.9161C18.3836 11.8433 18.771 11.8395 19.167 11.9056C19.3095 11.931 19.4277 11.9493 19.4302 11.9496C19.4329 11.9473 19.3368 11.7706 19.2168 11.5546C19.0968 11.3386 18.9609 11.0792 18.9152 10.9787C18.8571 10.8499 18.813 10.7865 18.7723 10.768C18.7385 10.755 18.551 10.7303 18.3526 10.7145C17.9191 10.6771 17.7396 10.7001 17.2779 10.8601L16.9681 10.9698L17.0899 10.8675C17.4202 10.5892 17.9799 10.4506 18.5028 10.5209C18.6215 10.5343 18.7183 10.5408 18.7192 10.531C18.7198 10.5236 18.6406 10.4349 18.542 10.3394C18.4461 10.2416 18.3009 10.0826 18.2199 9.98624C18.1188 9.86336 18.045 9.7973 17.9797 9.77401C17.6391 9.64883 17.0847 9.541 16.7801 9.54013C16.6754 9.5379 16.5887 9.52992 16.5896 9.52013C16.5923 9.49075 16.8704 9.42745 17.0561 9.41738C17.1617 9.40981 17.3553 9.42269 17.5279 9.44599L17.8188 9.48758L17.7569 9.4004C17.7425 9.37971 17.7092 9.33246 17.6658 9.27088C17.6096 9.19108 17.5364 9.08721 17.4654 8.9859C17.342 8.80664 17.2266 8.65033 17.2099 8.64139C17.1723 8.6157 16.5393 8.43892 16.3117 8.38834C16.0864 8.34044 15.9702 8.30012 15.8181 8.21697C15.6918 8.15103 15.3422 7.87934 15.3447 7.8524C15.3458 7.84016 15.4081 7.86812 15.4818 7.90947C15.8169 8.09341 16.0373 8.16802 16.4092 8.22447C16.6062 8.25494 16.82 8.29191 16.8885 8.30809L17.0107 8.33662L16.9103 8.20639C16.7631 8.01506 16.6357 7.87987 16.3046 7.57037C16.1182 7.39798 16.0331 7.31902 15.9375 7.25562C15.8537 7.20001 15.7617 7.15636 15.5863 7.07215C15.2754 6.92254 14.9414 6.80784 14.7806 6.79058C14.7063 6.78374 14.6922 6.77503 14.7165 6.75504C14.7543 6.72395 15.1289 6.75102 15.3639 6.80228L15.5181 6.83623L15.108 6.35402C14.8804 6.08616 14.7012 5.86225 14.7094 5.85559C14.7334 5.83805 14.9549 5.9819 15.1407 6.1348C15.2289 6.20712 15.4268 6.39077 15.5776 6.54293L15.852 6.81758L15.8923 6.56943C15.9148 6.43322 15.9461 6.31017 15.9596 6.29907C15.9812 6.28131 15.9866 6.30403 15.9805 6.37013C15.9704 6.50748 15.9938 6.66025 16.0615 6.8739C16.1176 7.05191 16.1288 7.06529 16.3434 7.25788C16.4656 7.3679 16.6175 7.50781 16.6817 7.57051C16.8397 7.7258 16.8633 7.74032 16.8492 7.67729C16.8275 7.58641 16.8733 7.19801 16.9172 7.07365L16.9607 6.95419L16.9676 7.20422C16.9761 7.46427 17.0367 7.75628 17.1296 7.99447C17.1744 8.10477 17.6018 8.7787 17.7252 8.9308C17.7454 8.95489 17.7617 8.86008 17.7946 8.52976C17.8223 8.2286 17.8516 8.0461 17.8899 7.92863C17.9552 7.73464 18.0702 7.48843 18.0975 7.49094C18.1074 7.49185 18.1015 7.55551 18.0846 7.6305C17.9911 8.04907 17.9704 8.70891 18.0309 9.2182L18.0556 9.41061L18.316 9.72842C18.5315 9.9927 18.863 10.3516 18.8927 10.3544C18.8977 10.3548 18.8991 10.2858 18.8946 10.199C18.8806 9.97051 18.9502 9.5127 19.0277 9.3223C19.0896 9.16503 19.2328 8.93869 19.2531 8.96278C19.2576 8.96813 19.2357 9.04267 19.2056 9.12631C19.1132 9.36968 19.0663 9.96044 19.1118 10.3078C19.1458 10.5628 19.1539 10.5833 19.2302 10.6496C19.4775 10.865 19.7053 11.0761 19.8949 11.2688L20.1071 11.4859L20.1011 11.3891C20.0997 11.3754 20.0976 11.3523 20.0947 11.3224C20.0868 11.2377 20.0737 11.0988 20.0599 10.968C20.019 10.5716 20.0348 10.4817 20.2005 10.1463C20.388 9.76356 20.4428 9.54884 20.4662 9.10407C20.4872 8.68623 20.458 8.43415 20.3655 8.21822C20.2689 7.99204 20.1311 7.91516 19.881 7.94647C19.6888 7.97322 19.578 7.87413 19.4234 7.54631C19.3397 7.37069 19.1983 7.19718 19.1364 7.19149C19.1191 7.18989 19.0344 7.15988 18.948 7.12229C18.8082 7.06745 18.7618 7.02861 18.5874 6.83477C18.4631 6.69246 18.3616 6.60164 18.313 6.58728C18.2718 6.57362 18.1552 6.56535 18.0523 6.5707C17.8265 6.58202 17.6113 6.53258 17.4384 6.43024C17.3722 6.38958 17.2144 6.259 17.0882 6.13874C16.8246 5.88237 16.6231 5.73789 16.4162 5.65218C16.2476 5.58481 16.0898 5.56288 15.6691 5.54885Z" fill="white"/>
<path d="M20.5683 12.4582C20.0326 11.7398 19.7202 11.39 19.2418 10.9707C19.1104 10.8524 18.9967 10.758 18.9917 10.7575C18.9447 10.7532 19.9424 11.8297 20.3883 12.5201C20.8091 13.1722 20.8491 13.5697 20.8266 14.2793C20.8245 14.3013 20.8628 14.2237 21.0303 14.086C21.1976 13.9508 21.4094 13.7925 21.502 13.7368C21.6449 13.6487 21.6616 13.6305 21.629 13.6053C21.357 13.4123 20.953 12.9727 20.5683 12.4582Z" fill="white"/>
<path d="M23.9898 1.09031C24.0545 0.970332 24.0688 0.92835 24.1913 0.497874C24.2629 0.244265 24.3239 0.0370838 24.3252 0.0393304C24.3276 0.0415288 24.2759 0.254062 24.2125 0.511922C24.0765 1.05559 24.0766 1.05906 24.0963 1.55357C24.1097 1.86911 24.1019 1.95687 24.0498 2.07631C24.0166 2.15588 24.0036 2.17482 23.9637 2.20409C23.8994 2.25279 23.8133 2.21734 23.7717 2.126C23.6732 1.90601 23.7513 1.53488 23.9898 1.09031Z" fill="white"/>
<path d="M24.7107 1.04262C24.7355 1.00709 24.8315 0.81567 24.9249 0.616317C25.0194 0.418063 25.0972 0.256151 25.0995 0.256055C25.1041 0.255862 24.924 0.676127 24.834 0.875335C24.7964 0.959685 24.7712 1.04006 24.7533 1.13162C24.6862 1.4655 24.5865 1.70306 24.4592 1.83143C24.3012 1.99098 24.1422 1.96321 24.1746 1.78253C24.1858 1.72113 24.2308 1.62383 24.2826 1.54922C24.3009 1.52316 24.3958 1.4134 24.4919 1.30474C24.5879 1.19608 24.687 1.0781 24.7107 1.04262Z" fill="white"/>
<path d="M23.7324 1.19544L23.6173 1.69227L23.5262 1.89153C23.3409 2.29822 23.2822 2.53289 23.3043 2.78484C23.3134 2.89136 23.3189 2.91296 23.3548 2.97812C23.3982 3.05904 23.4348 3.08508 23.5022 3.08224C23.5855 3.07872 23.656 2.96079 23.6859 2.77562C23.6994 2.68884 23.6986 2.64289 23.6783 2.37937C23.6657 2.21553 23.6535 2.00685 23.6507 1.91501L23.6448 1.74858L23.7512 1.23373C23.809 0.950819 23.8539 0.714431 23.8526 0.70989C23.8501 0.704249 23.7964 0.922616 23.7324 1.19544Z" fill="white"/>
<path d="M24.388 1.95858C24.6301 1.78742 24.6597 1.75744 24.9941 1.33296C25.2916 0.957158 25.395 0.833245 25.2543 1.02195L25.234 1.04945C24.8081 1.62524 24.7387 1.7191 24.6879 1.82221C24.6781 1.84229 24.6689 1.86272 24.6579 1.88713L24.6541 1.89561C24.5277 2.17797 24.4173 2.3539 24.2683 2.50848C24.0874 2.69543 23.8776 2.76407 23.8034 2.6603C23.7256 2.55094 23.8608 2.33948 24.1327 2.14178C24.1573 2.1241 24.1859 2.10363 24.2154 2.08245C24.2777 2.03782 24.3443 1.99005 24.388 1.95858Z" fill="white"/>
<path d="M23.2922 1.44278C23.2927 1.4554 23.2963 1.4587 23.2993 1.44937C23.3024 1.4412 23.3008 1.43092 23.2972 1.42762C23.2936 1.42318 23.2905 1.43021 23.2922 1.44278Z" fill="white"/>
<path d="M23.0873 2.68481C23.1406 2.54002 23.1425 2.5296 23.2142 2.00816C23.2535 1.71799 23.2882 1.48433 23.2896 1.49002C23.2921 1.49566 23.2689 1.73113 23.2396 2.01284L23.237 2.03757C23.2034 2.35932 23.1876 2.51061 23.1953 2.6607C23.2022 2.79392 23.2276 2.92618 23.2756 3.17585L23.2793 3.19511C23.3275 3.44365 23.3343 3.65831 23.2993 3.77704C23.2379 3.97733 23.0995 4.00387 22.9975 3.83576C22.9446 3.74834 22.9212 3.65507 22.9162 3.5093C22.9091 3.28661 22.9651 3.01527 23.0873 2.68481Z" fill="white"/>
<path d="M24.6689 2.11325C24.4717 2.36293 24.3867 2.47064 24.2865 2.56163C24.2106 2.63066 24.126 2.69007 23.9772 2.79456L23.9462 2.81635C23.6818 3.00223 23.6398 3.03619 23.5591 3.13156C23.4457 3.26279 23.4035 3.37377 23.4387 3.44815C23.4626 3.50001 23.5 3.51912 23.5697 3.51618C23.8289 3.50523 24.1042 3.19934 24.3541 2.64509C24.4158 2.50914 24.4426 2.46663 24.7111 2.10585C25.0475 1.65025 25.0746 1.61347 25.0689 1.61371C25.0666 1.61381 24.9047 1.81606 24.7092 2.06225L24.6689 2.11325Z" fill="white"/>
<path d="M22.8566 2.52196L22.8667 2.44354C22.8865 2.28868 22.9042 2.16609 22.9067 2.17173C22.9092 2.17737 22.8844 2.45659 22.8517 2.79361L22.8445 2.86817C22.8121 3.20366 22.7971 3.35901 22.807 3.51275C22.8156 3.64533 22.8427 3.77671 22.8933 4.02139L22.9063 4.08445C22.9695 4.38869 22.971 4.64265 22.9104 4.7774C22.8696 4.86763 22.7929 4.9203 22.7281 4.90235C22.7142 4.89834 22.6848 4.88004 22.6624 4.86259C22.5262 4.75225 22.4736 4.45676 22.5279 4.11767C22.5551 3.9487 22.6375 3.65096 22.7025 3.48385C22.7476 3.36923 22.7479 3.36701 22.8566 2.52196Z" fill="white"/>
<path d="M24.3544 2.89681C24.1366 3.18303 23.9845 3.37337 23.9371 3.4156C23.8964 3.45295 23.7613 3.55751 23.6359 3.64902C23.2663 3.91751 23.1587 4.02206 23.0917 4.16858C23.0184 4.3303 23.08 4.43345 23.2369 4.41187C23.3427 4.39821 23.4508 4.33157 23.568 4.20937C23.7302 4.0416 23.8405 3.86222 23.9855 3.53195C23.9899 3.52197 23.994 3.51266 23.9978 3.50384C24.0085 3.47934 24.0175 3.45864 24.0272 3.43828C24.0797 3.32785 24.1516 3.22672 24.6131 2.57715L24.6757 2.48897C24.6942 2.4652 24.7059 2.44516 24.7036 2.44526C24.7002 2.4454 24.5441 2.64856 24.3544 2.89681Z" fill="white"/>
<path d="M22.3077 4.18445L22.324 3.54007C22.333 3.18565 22.3427 2.92661 22.3466 2.96438C22.3493 3.0022 22.3539 3.29972 22.3562 3.62492L22.3594 4.21675L22.3931 4.36476C22.4114 4.4456 22.4707 4.65804 22.5251 4.83621C22.6393 5.21071 22.6581 5.30417 22.6572 5.47203C22.6567 5.62148 22.635 5.70401 22.5805 5.76723C22.5456 5.80779 22.5355 5.81281 22.4864 5.81489C22.3962 5.8187 22.3347 5.77072 22.263 5.64271C22.1949 5.52029 22.1739 5.42922 22.164 5.1963C22.1524 4.92092 22.1821 4.67598 22.2684 4.33554L22.3077 4.18445Z" fill="white"/>
<path d="M24.1094 3.62212C23.9206 3.89103 23.7467 4.13516 23.7216 4.16266C23.6551 4.24018 23.5039 4.36956 23.2625 4.55793C22.9204 4.82526 22.7484 5.03253 22.7336 5.19753C22.7272 5.26102 22.7534 5.31279 22.8072 5.34155C22.8564 5.36936 22.9192 5.36556 23.0102 5.32838C23.2678 5.22439 23.5281 4.86166 23.7285 4.32559C23.7809 4.18544 23.8053 4.13958 23.9481 3.91975C24.1876 3.55215 24.4401 3.16561 24.4531 3.14782C24.4585 3.1407 24.4605 3.13371 24.4571 3.13386C24.4536 3.134 24.2971 3.35442 24.1094 3.62212Z" fill="white"/>
<path d="M22.0441 3.9565C22.0426 3.97495 22.0398 3.96243 22.0385 3.93145C22.0372 3.89932 22.0389 3.88545 22.0417 3.89913C22.0446 3.91395 22.0457 3.93919 22.0441 3.9565Z" fill="white"/>
<path d="M22.0165 4.62895C22.001 5.23652 21.9996 5.25842 21.9698 5.36543C21.8826 5.68406 21.8437 5.98112 21.8548 6.24388C21.8627 6.45849 21.8906 6.578 21.9575 6.69932C22.0553 6.87451 22.1947 6.92609 22.2806 6.81901C22.3392 6.74527 22.3512 6.67694 22.3422 6.46467L22.3415 6.44654C22.339 6.38636 22.3373 6.34596 22.3322 6.306C22.3218 6.22435 22.2973 6.14452 22.2226 5.90159L22.2077 5.85309C22.1639 5.71011 22.1115 5.52496 22.0908 5.44078L22.0546 5.28713L22.049 4.66666C22.046 4.3254 22.0406 4.03596 22.0378 4.02458C22.035 4.01206 22.0248 4.28491 22.0165 4.62895Z" fill="white"/>
<path d="M23.3906 5.1261C23.4433 5.07444 23.5697 4.89898 23.8541 4.48351C24.0685 4.16985 24.2475 3.91285 24.2498 3.91275C24.2532 3.91261 24.2436 3.93026 24.2296 3.95039C24.2157 3.97167 24.0526 4.22684 23.8681 4.5174C23.5572 5.00871 23.5305 5.05467 23.4834 5.18425C23.2572 5.81451 22.9964 6.19106 22.7084 6.30667C22.5803 6.35921 22.487 6.34362 22.4401 6.26398C22.4118 6.21575 22.4102 6.17789 22.4353 6.09636C22.4905 5.91242 22.615 5.77267 23.014 5.44546C23.181 5.30852 23.351 5.16455 23.3906 5.1261Z" fill="white"/>
<path d="M21.7172 4.77263C21.7168 4.79104 21.7102 5.12236 21.7014 5.50895L21.6853 6.21081L21.6414 6.39083C21.4739 7.08183 21.4732 7.55199 21.6402 7.85069C21.6908 7.93936 21.753 8.00226 21.8133 8.02155C21.9548 8.06959 22.0495 7.95525 22.0702 7.71299C22.0845 7.53881 22.0518 7.35973 21.9315 6.97629C21.8402 6.68359 21.812 6.58363 21.7731 6.41975C21.7424 6.29 21.7422 6.28427 21.7376 5.85226C21.7344 5.61216 21.7313 5.26975 21.7307 5.09161C21.73 4.91347 21.727 4.76072 21.7232 4.75284C21.7195 4.74495 21.7164 4.75313 21.7172 4.77263Z" fill="white"/>
<path d="M23.002 6.21138C23.1171 6.08237 23.208 5.93152 23.4587 5.51553L23.4617 5.51046C23.6584 5.1849 23.821 4.9194 23.8233 4.9193C23.8238 4.91928 23.8243 4.91897 23.8248 4.91868C23.8313 4.91509 23.8314 4.915 23.493 5.51948C23.1942 6.05396 23.1709 6.09862 23.1318 6.23016C22.9676 6.78309 22.7626 7.15613 22.5274 7.32929C22.3566 7.4549 22.2061 7.46586 22.1432 7.35817C22.1099 7.30095 22.1193 7.22584 22.1746 7.09821C22.2528 6.91904 22.3281 6.83425 22.7424 6.46041L22.7482 6.45518C22.8632 6.35111 22.9365 6.28478 23.002 6.21138Z" fill="white"/>
<path d="M23.2258 6.42275L22.8719 7.0883L22.7377 7.2411C22.6646 7.3258 22.4992 7.49945 22.3708 7.62787C22.1295 7.8714 22.0695 7.93946 21.9891 8.067C21.8701 8.25594 21.8274 8.43706 21.8806 8.53137C21.9423 8.63911 22.1065 8.62757 22.2717 8.50335C22.5367 8.30479 22.7464 7.88213 22.9062 7.22478C22.9422 7.07498 22.9527 7.0527 23.254 6.43995L23.2834 6.38015C23.5692 5.79865 23.5889 5.75868 23.5859 5.75688C23.5855 5.75667 23.5849 5.75699 23.5843 5.75701C23.5808 5.75716 23.4197 6.05708 23.2258 6.42275Z" fill="white"/>
<path d="M21.3811 6.56464C21.3823 6.29776 21.3832 6.09964 21.3826 6.08565C21.3819 6.06844 21.3837 6.05572 21.3872 6.05902C21.3908 6.06232 21.4005 6.37341 21.4097 6.75235C21.4188 7.13014 21.4306 7.49172 21.4367 7.55468C21.4495 7.69667 21.4916 7.85237 21.6242 8.25598C21.749 8.63922 21.7681 8.71198 21.7829 8.87343C21.8019 9.07953 21.7707 9.23488 21.6938 9.30825C21.663 9.33828 21.6473 9.34469 21.5959 9.34686C21.5468 9.34894 21.526 9.34292 21.4872 9.31812C21.3989 9.25863 21.3238 9.13306 21.2718 8.95939C21.2477 8.87535 21.2423 8.8296 21.2329 8.63229C21.2199 8.32593 21.247 8.09949 21.3418 7.69088L21.3757 7.54576L21.3798 6.83177C21.3803 6.7389 21.3807 6.64918 21.3811 6.5661L21.3811 6.56464Z" fill="white"/>
<path d="M22.8981 7.73746C22.7192 8.11361 22.6445 8.27062 22.5461 8.41078C22.4756 8.5112 22.3929 8.60297 22.2509 8.7605C22.2351 8.77799 22.2186 8.79631 22.2013 8.81553C21.8452 9.21219 21.7567 9.33777 21.6954 9.53692C21.5827 9.90147 21.86 9.9955 22.1538 9.69343C22.373 9.46807 22.5412 9.0644 22.6534 8.49872C22.6554 8.48852 22.6572 8.47893 22.659 8.46983C22.6655 8.43531 22.6708 8.40779 22.6772 8.38056C22.7028 8.27352 22.7477 8.17115 22.9692 7.66619C22.9887 7.62166 23.0096 7.574 23.032 7.52293C23.1645 7.22077 23.2718 6.9714 23.2694 6.97035C23.267 6.96816 23.1219 7.26855 22.9453 7.63809C22.9288 7.67283 22.9131 7.70592 22.8981 7.73746Z" fill="white"/>
<path d="M23.2692 8.67041C23.4929 8.41498 23.6745 8.27282 23.9013 8.17358C23.9384 8.15707 23.979 8.14386 23.9916 8.14333C24.0041 8.1428 23.9897 8.15261 23.9582 8.16543C23.7873 8.23587 23.6298 8.35172 23.4601 8.53131C23.0606 8.95625 22.686 9.67554 22.3377 10.6903C22.0391 11.5546 21.7497 12.6899 21.5528 13.7684C21.5411 13.8319 21.533 13.8736 21.5289 13.9157C21.5195 14.0119 21.5314 14.1101 21.5723 14.4745C21.635 15.0396 21.7416 15.6938 21.8574 16.2142C21.8915 16.3714 21.8965 16.4102 21.8856 16.4211C21.8548 16.4522 21.7657 16.4813 21.6712 16.491L21.5732 16.5009L21.5581 16.4395C21.5359 16.3485 21.4625 15.9906 21.4285 15.8082C21.0769 13.9299 21.0296 12.0525 21.2912 10.392C21.3317 10.1339 21.411 9.7363 21.4593 9.55149C21.4898 9.43411 21.4908 9.43291 21.5198 9.44203C21.5361 9.44824 21.5637 9.45168 21.582 9.4509L21.6151 9.44951L21.595 9.51587C21.569 9.60318 21.5639 9.75512 21.5858 9.81282C21.5949 9.83773 21.6275 9.88003 21.6596 9.90856L21.7167 9.95902L21.6884 10.1027C21.5493 10.8167 21.4629 11.7778 21.4676 12.565L21.4679 12.7604L21.558 12.4578C21.8524 11.4671 22.0786 10.8369 22.3839 10.1584C22.6892 9.47885 22.9636 9.01781 23.2692 8.67041Z" fill="white"/>
<path d="M27.9501 5.67048C28.0663 5.5422 28.1633 5.43463 28.1647 5.43193C28.1731 5.41486 28.1423 5.44548 27.9555 5.63728C27.7767 5.82188 27.7414 5.85476 27.6396 5.9229C27.514 6.00729 27.388 6.11723 27.3178 6.20227C27.2566 6.27607 27.2047 6.39599 27.2055 6.4592C27.2064 6.54483 27.2613 6.57776 27.3386 6.53886C27.4288 6.49408 27.4905 6.40594 27.6283 6.12469L27.7374 5.90319L27.9501 5.67048Z" fill="white"/>
<path d="M28.4407 5.88486C28.4523 5.87566 28.4622 5.86781 28.4698 5.86184C28.5842 5.77078 28.527 5.80734 28.3309 5.95077C28.2236 6.0297 28.1173 6.10234 28.094 6.11321C28.0708 6.12407 27.9739 6.16215 27.8778 6.19844C27.7822 6.23383 27.6862 6.27236 27.6661 6.28366C27.537 6.3573 27.4869 6.45794 27.561 6.49483C27.6771 6.5526 27.9036 6.41755 28.1043 6.17099C28.1333 6.135 28.2039 6.07148 28.2795 6.01152C28.3347 5.9688 28.3988 5.91807 28.4407 5.88486Z" fill="white"/>
<path d="M27.6714 5.68199C27.6665 5.69188 27.6624 5.69324 27.6633 5.68472C27.6638 5.67709 27.6687 5.66945 27.6727 5.66809C27.6772 5.66583 27.6772 5.67255 27.6714 5.68199Z" fill="white"/>
<path d="M27.4546 5.94298C27.5597 5.81699 27.6473 5.71035 27.6499 5.70496C27.6607 5.68339 27.6303 5.71536 27.447 5.92239C27.27 6.12132 27.2374 6.15329 27.1297 6.23536C26.9005 6.40942 26.7821 6.53771 26.7208 6.68099C26.6841 6.76813 26.6765 6.82375 26.693 6.87568C26.7162 6.94552 26.7961 6.9483 26.8738 6.88161C26.9507 6.81671 26.9968 6.73761 27.1055 6.48787C27.1591 6.36435 27.2168 6.2417 27.2334 6.21742C27.2499 6.19314 27.3491 6.06986 27.4546 5.94298Z" fill="white"/>
<path d="M28.1832 6.3863C27.946 6.49808 27.8785 6.53514 27.7923 6.59873C27.5711 6.76334 27.3687 6.85658 27.2321 6.85808C27.0914 6.8587 27.024 6.80609 27.0642 6.72522C27.0893 6.6749 27.1786 6.62071 27.2738 6.59742C27.3122 6.58739 27.444 6.56664 27.5686 6.5513C27.6923 6.53551 27.8178 6.51613 27.8482 6.50658C27.8772 6.49748 28.0273 6.4354 28.1819 6.36882C28.3351 6.30269 28.4633 6.24878 28.466 6.25011C28.4678 6.251 28.3405 6.31208 28.1832 6.3863Z" fill="white"/>
<path d="M26.9123 6.23364C27.0133 6.0866 27.0996 5.96024 27.1023 5.95261C27.1143 5.92611 27.0915 5.95624 26.8966 6.2225C26.7585 6.41275 26.687 6.50273 26.6544 6.53022C26.5243 6.63928 26.3795 6.79593 26.3018 6.91418C26.207 7.05761 26.1752 7.22004 26.2265 7.29378C26.2497 7.32551 26.2519 7.32774 26.2885 7.32803C26.3627 7.32905 26.4516 7.23317 26.5138 7.08361C26.5344 7.03555 26.5724 6.92778 26.5979 6.84518C26.6798 6.58211 26.7022 6.53942 26.9123 6.23364Z" fill="white"/>
<path d="M28.0352 6.60753C28.0268 6.61145 28.0094 6.61969 27.9855 6.631C27.9266 6.65882 27.8284 6.70524 27.7283 6.75189C27.5143 6.8528 27.4558 6.88534 27.3606 6.9557C27.1278 7.13022 26.9174 7.22619 26.766 7.22596C26.6687 7.22683 26.607 7.20065 26.591 7.15007C26.5562 7.04756 26.7296 6.9522 27.0074 6.92004C27.2218 6.89444 27.3218 6.88145 27.3826 6.86683C27.4134 6.86087 27.572 6.79741 27.735 6.7272C28.0227 6.60355 28.1407 6.55685 28.0352 6.60753Z" fill="white"/>
<path d="M26.6492 6.2451C26.6487 6.25272 26.6528 6.24912 26.659 6.23654C26.6653 6.22396 26.6657 6.21858 26.6604 6.22264C26.6555 6.22804 26.6501 6.23882 26.6492 6.2451Z" fill="white"/>
<path d="M26.6309 6.27298C26.6273 6.28241 26.5361 6.41865 26.4297 6.57648C26.2039 6.90923 26.1887 6.93978 26.0983 7.23561C26.0249 7.47937 25.9422 7.65234 25.8707 7.71766C25.8121 7.77037 25.7688 7.78356 25.7242 7.76134C25.6322 7.71557 25.6435 7.54516 25.7508 7.35639C25.8317 7.21392 25.9555 7.07037 26.1293 6.91807C26.1906 6.86445 26.2326 6.81137 26.4194 6.55456C26.5406 6.38949 26.6349 6.26265 26.6309 6.27298Z" fill="white"/>
<path d="M27.2909 7.11293C27.3756 7.07112 27.4606 7.02911 27.5062 7.00572C27.659 6.92928 27.5705 6.96598 27.227 7.12127C26.9205 7.26025 26.8969 7.26753 26.5829 7.30971C26.3497 7.34167 26.2215 7.37989 26.1455 7.44074C26.0942 7.48132 26.0834 7.4984 26.0843 7.53471C26.0847 7.57416 26.0994 7.59382 26.1454 7.61783C26.2905 7.69116 26.5527 7.59631 26.8624 7.35913C26.9688 7.27752 27.0242 7.24455 27.1895 7.16313C27.2214 7.1473 27.2561 7.13013 27.2909 7.11293Z" fill="white"/>
<path d="M26.0523 6.57366C26.0345 6.60737 26.0037 6.66599 25.9678 6.73453C25.9281 6.81035 25.8819 6.89831 25.8399 6.97808L25.8394 6.97914C25.7593 7.13237 25.7188 7.20984 25.6899 7.29137C25.6602 7.37476 25.6426 7.4624 25.607 7.63966L25.6036 7.65652C25.54 7.97017 25.4872 8.10086 25.3907 8.18288C25.3398 8.22704 25.3098 8.23344 25.2643 8.21078C25.1982 8.1779 25.1755 8.06682 25.2078 7.92366C25.2239 7.84872 25.2346 7.82267 25.3048 7.6928C25.3903 7.53462 25.4743 7.41948 25.6075 7.27723C25.6759 7.20475 25.6893 7.18452 25.8856 6.84383C26.1105 6.45236 26.1583 6.37638 26.0523 6.57366Z" fill="white"/>
<path d="M27.044 7.39449C27.1231 7.35167 27.1855 7.31783 27.2076 7.3056C27.3417 7.23104 27.2327 7.28217 26.8882 7.45495C26.6961 7.54994 26.5098 7.63773 26.4741 7.6491C26.4379 7.65912 26.2909 7.69025 26.1467 7.71599C25.8045 7.77892 25.6786 7.82834 25.6093 7.93175C25.5909 7.95963 25.5887 7.97085 25.5989 8.00846C25.6087 8.04697 25.6154 8.05367 25.657 8.07321C25.8271 8.1545 26.1447 8.01996 26.4888 7.72031C26.55 7.66669 26.6246 7.62198 26.852 7.49859C26.9185 7.46248 26.9855 7.4262 27.0435 7.39474L27.044 7.39449Z" fill="white"/>
<path d="M25.5371 7.09644C25.5 7.1643 25.4038 7.34629 25.3238 7.50041L25.3187 7.51011C25.2417 7.65763 25.2016 7.73447 25.1726 7.81528C25.141 7.90312 25.1226 7.99565 25.0841 8.18877L25.0821 8.1986C25.0396 8.41398 25.0047 8.52442 24.951 8.61208C24.9054 8.68804 24.8603 8.72949 24.8107 8.74181C24.7129 8.766 24.6567 8.65507 24.6813 8.48684C24.6908 8.4209 24.7002 8.39754 24.7726 8.25197C24.8625 8.07135 24.9224 7.98681 25.0811 7.81351C25.1653 7.72157 25.169 7.7151 25.3645 7.37599L25.3725 7.36212C25.5881 6.98503 25.6475 6.89018 25.5371 7.09644Z" fill="white"/>
<path d="M26.5003 7.8875C26.6996 7.77589 26.8685 7.68055 26.8752 7.67604C26.8966 7.6598 26.8492 7.68332 26.4771 7.87594C26.2251 8.00617 26.0764 8.07676 26.0178 8.09361C25.9696 8.10772 25.8222 8.13975 25.6904 8.16498C25.4273 8.21456 25.3242 8.24505 25.2321 8.30015C25.1311 8.35977 25.086 8.42363 25.1011 8.48498C25.1096 8.51722 25.1154 8.52348 25.1676 8.54835C25.2489 8.58879 25.3387 8.58526 25.4776 8.53668C25.6469 8.47855 25.8234 8.36569 26.0392 8.176C26.1264 8.0994 26.1751 8.0687 26.5003 7.8875Z" fill="white"/>
<path d="M25.0571 7.54414L25.0566 7.5449C25.0166 7.61952 24.9669 7.71236 24.9135 7.81199L24.6842 8.24158L24.6519 8.36008C24.634 8.42516 24.5995 8.57954 24.5749 8.70293C24.518 8.98517 24.5027 9.0359 24.437 9.15902C24.3874 9.2498 24.3775 9.26285 24.3293 9.29937C24.2824 9.3332 24.2699 9.33819 24.2319 9.33163C24.1935 9.32597 24.1855 9.32197 24.1636 9.29203C24.1275 9.24601 24.1137 9.15283 24.1276 9.05324C24.1384 8.98236 24.1491 8.94734 24.1965 8.84313C24.281 8.6576 24.3839 8.5092 24.5796 8.29046L24.677 8.18199L24.9113 7.77165C25.0406 7.54558 25.1483 7.3604 25.151 7.35949C25.1537 7.35858 25.1537 7.36306 25.1501 7.37025C25.148 7.3744 25.1117 7.44218 25.0571 7.54414Z" fill="white"/>
<path d="M25.9462 8.36514C26.1379 8.24415 26.2978 8.14212 26.3027 8.13896C26.3389 8.11101 26.2375 8.16929 25.9247 8.35447C25.52 8.59476 25.4985 8.60427 25.1367 8.69328C24.8875 8.75535 24.7619 8.80163 24.6797 8.86386C24.5403 8.96938 24.5411 9.08638 24.6813 9.1158C24.8841 9.1584 25.1521 9.016 25.4994 8.68092C25.5892 8.59445 25.6334 8.56377 25.9462 8.36514Z" fill="white"/>
<path d="M25.8759 8.57348L25.863 8.58273L25.8628 8.58281C25.8175 8.61513 25.666 8.72315 25.4935 8.84504C25.191 9.06112 25.1226 9.11342 25.0699 9.17239C24.8996 9.36681 24.6864 9.5511 24.5354 9.63516C24.3826 9.72056 24.2254 9.75219 24.1307 9.71853C24.0187 9.67733 24.0183 9.57063 24.1313 9.47106C24.2355 9.38049 24.2801 9.36012 24.6916 9.22068L25.0936 9.08441L25.4917 8.8195C25.7097 8.67463 25.8902 8.55593 25.892 8.55682C25.8947 8.55815 25.8867 8.56536 25.8759 8.57348Z" fill="white"/>
<path d="M24.057 9.01842C24.0889 8.91711 24.1367 8.82079 24.245 8.60268C24.2585 8.57557 24.2729 8.54658 24.2883 8.51547L24.5074 8.07516L24.363 8.33402L24.3603 8.33885C24.0549 8.88816 24.0538 8.89027 23.9566 9.00066C23.8069 9.16943 23.7201 9.29445 23.6383 9.45889C23.5851 9.56582 23.5623 9.62062 23.5506 9.67312C23.5103 9.85487 23.5442 9.9928 23.6348 10.0188C23.704 10.0387 23.7702 9.98866 23.8399 9.86417C23.9034 9.75002 23.9262 9.67281 23.9773 9.39777C23.9817 9.37406 23.9857 9.35182 23.9895 9.33088C24.0167 9.18179 24.0319 9.09854 24.057 9.01842Z" fill="white"/>
<path d="M25.332 9.16943C25.3177 9.18026 25.1448 9.31506 24.9482 9.46835C24.6189 9.72714 24.5858 9.75553 24.5165 9.84101C24.3583 10.0358 24.163 10.2178 24.0142 10.3108C23.8064 10.4395 23.588 10.453 23.5399 10.3394C23.5118 10.2749 23.5543 10.1963 23.6638 10.1106C23.75 10.0425 23.8438 9.99954 24.1489 9.88791C24.3079 9.83027 24.4639 9.76996 24.4974 9.75412C24.53 9.73784 24.7315 9.59708 24.9451 9.44102C25.1582 9.28586 25.3387 9.15595 25.3454 9.15368C25.3535 9.15096 25.3477 9.15816 25.332 9.16943Z" fill="white"/>
<path d="M23.6564 11.0095C24.3567 10.3747 24.8919 10.0693 25.31 10.0643C25.4288 10.0629 25.3948 10.0528 25.2671 10.052C25.142 10.0503 25.0107 10.0769 24.8423 10.1377C24.2669 10.3424 23.5203 10.907 22.6099 11.8229L22.4566 11.9764L22.4924 11.9045C22.5671 11.7545 22.796 11.3728 22.9552 11.1314C23.0768 10.9497 23.2757 10.6754 23.3933 10.531L23.4916 10.4095L23.4755 10.3656C23.4666 10.341 23.4608 10.3079 23.4622 10.2917C23.4662 10.25 23.5118 10.1651 23.5521 10.1223C23.5713 10.1016 23.586 10.0831 23.5856 10.0818C23.5851 10.0805 23.5718 10.0671 23.5561 10.0537L23.5267 10.0278L23.469 10.0899C23.2666 10.3065 22.985 10.6708 22.7596 11.0117C22.5138 11.3826 22.347 11.6729 22.1225 12.124C21.8041 12.7661 21.5679 13.3683 21.3597 14.0708C21.3298 14.1705 21.3174 14.2034 21.3287 14.2203C21.3359 14.2311 21.353 14.2354 21.3815 14.2465C21.4159 14.2602 21.4641 14.273 21.49 14.2747C21.5306 14.2781 21.5364 14.2754 21.5432 14.2529C21.7168 13.6712 21.8725 13.2307 22.047 12.8264L22.1029 12.6984L22.2289 12.5414C22.6621 12.0046 23.227 11.3978 23.6564 11.0095Z" fill="white"/>
<path fill-rule="evenodd" clip-rule="evenodd" d="M19.4789 4.01064C18.9279 4.83257 18.8587 5.19597 19.1827 5.56499C19.3335 5.73677 19.4888 5.79972 19.7618 5.79972C19.9439 5.79972 20.0108 5.7802 20.154 5.68537C20.4943 5.46 20.5724 5.07476 20.3663 4.63822C20.2431 4.37752 19.7833 3.66406 19.7383 3.66406C19.7234 3.66406 19.6067 3.82004 19.4789 4.01064ZM19.3504 4.43712C19.3746 4.37502 19.3973 4.31689 19.4141 4.26382C18.7547 5.22299 19.1464 5.58662 19.6014 5.68564C19.023 5.27508 19.2119 4.79149 19.3504 4.43712Z" fill="white"/>
<path fill-rule="evenodd" clip-rule="evenodd" d="M14.2658 2.23001C13.9498 2.70139 13.9101 2.9098 14.0959 3.12144C14.1824 3.21996 14.2714 3.25606 14.428 3.25606C14.5324 3.25606 14.5708 3.24486 14.6529 3.19048C14.8481 3.06123 14.8929 2.84029 14.7746 2.58994C14.704 2.44042 14.4403 2.03125 14.4145 2.03125C14.406 2.03125 14.339 2.1207 14.2658 2.23001ZM14.1977 2.47476C14.2116 2.43915 14.2247 2.40581 14.2343 2.37537C13.8561 2.92546 14.0808 3.134 14.3417 3.19079C14.01 2.95533 14.1183 2.67799 14.1977 2.47476Z" fill="white"/>
<path fill-rule="evenodd" clip-rule="evenodd" d="M21.8322 1.0054C21.5162 1.47678 21.4765 1.68519 21.6623 1.89683C21.7488 1.99535 21.8379 2.03145 21.9944 2.03145C22.0988 2.03145 22.1372 2.02025 22.2193 1.96587C22.4145 1.83662 22.4593 1.61568 22.3411 1.36533C22.2704 1.21581 22.0067 0.806641 21.9809 0.806641C21.9724 0.806641 21.9055 0.896095 21.8322 1.0054ZM21.7641 1.25113C21.778 1.21551 21.7911 1.18218 21.8007 1.15174C21.4225 1.70183 21.6472 1.91037 21.9081 1.96716C21.5764 1.7317 21.6847 1.45436 21.7641 1.25113Z" fill="white"/>
<path fill-rule="evenodd" clip-rule="evenodd" d="M11.8515 10.5431C11.5698 10.6818 11.5602 11.2332 11.7958 11.4401C11.9147 11.5445 12.0617 11.5852 12.2033 11.5529C12.3507 11.5193 12.4406 11.4477 12.5154 11.304C12.7157 10.9196 12.2453 10.349 11.8515 10.5431ZM11.7941 10.8481C11.7714 10.8826 11.739 10.9507 11.722 10.9994C11.6668 11.1578 11.744 11.363 11.8443 11.3246C11.8769 11.312 11.8763 11.287 11.8403 11.1576C11.8019 11.0197 11.802 10.995 11.8411 10.8953C11.8882 10.7755 11.8601 10.7473 11.7941 10.8481ZM11.8888 11.4167C11.8888 11.4567 12.0627 11.5255 12.1551 11.5221C12.2296 11.5194 12.2294 11.5189 12.1429 11.4983C12.0943 11.4868 12.0239 11.4572 11.9863 11.4326C11.9066 11.3804 11.8888 11.3775 11.8888 11.4167Z" fill="white"/>
<path fill-rule="evenodd" clip-rule="evenodd" d="M25.5384 4.27674C25.3205 4.26239 25.1231 4.59108 25.193 4.7975C25.2283 4.90175 25.3027 4.97737 25.3992 5.00714C25.4996 5.03814 25.5786 5.02623 25.6736 4.96574C25.9279 4.80392 25.843 4.29678 25.5384 4.27674ZM25.2593 4.81695C25.2454 4.84101 25.3262 4.94293 25.3829 4.97298C25.4288 4.99725 25.4288 4.99685 25.3839 4.95443C25.3586 4.93058 25.3265 4.8883 25.3125 4.86043C25.2826 4.80125 25.2729 4.79331 25.2593 4.81695Z" fill="white"/>
<path fill-rule="evenodd" clip-rule="evenodd" d="M17.2824 3.09954C17.0847 3.1921 17.0704 3.57528 17.2312 3.72233C17.3125 3.79659 17.4141 3.82693 17.513 3.80644C17.6159 3.78512 17.6794 3.73656 17.7334 3.63772C17.878 3.37329 17.5589 2.97009 17.2824 3.09954ZM17.1837 3.60331C17.1698 3.62737 17.2506 3.72929 17.3074 3.75934C17.3532 3.78361 17.3533 3.78321 17.3084 3.74079C17.2831 3.71694 17.251 3.67465 17.2369 3.64679C17.2071 3.58761 17.1974 3.57967 17.1837 3.60331Z" fill="white"/>
<path fill-rule="evenodd" clip-rule="evenodd" d="M27.4089 9.8077C27.0848 9.95937 27.0614 10.5873 27.325 10.8283C27.4581 10.9499 27.6246 10.9997 27.7867 10.9661C27.9553 10.9312 28.0593 10.8516 28.1478 10.6896C28.3848 10.2563 27.8619 9.59557 27.4089 9.8077ZM27.2455 10.6349C27.2227 10.6744 27.3554 10.8417 27.4486 10.8911C27.5239 10.9309 27.5239 10.9303 27.4502 10.8606C27.4087 10.8215 27.356 10.752 27.3329 10.7063C27.2839 10.6091 27.2679 10.5961 27.2455 10.6349Z" fill="white"/>
</svg>
