<svg width="16" height="16" viewBox="0 0 16 16" fill="none" xmlns="http://www.w3.org/2000/svg">
<path d="M0.914165 10.8391C0.469527 10.5946 0.469527 10.0113 0.914165 9.77564C0.99367 9.73145 1.47659 9.72851 5.97892 9.7344L10.9553 9.74029L11.2204 9.82278C11.7062 9.97596 12.0684 10.1851 12.4188 10.5151C12.8046 10.8774 13.0666 11.3075 13.2256 11.8319C13.2993 12.0734 13.3052 12.1412 13.3081 12.5978C13.311 13.1722 13.2639 13.4079 13.0637 13.838C12.3629 15.3345 10.5932 15.9531 9.12967 15.2137C8.208 14.7483 7.61024 13.8498 7.53368 12.8128C7.51307 12.4976 7.56019 12.3415 7.73097 12.1883C8.11966 11.8378 8.7027 12.1235 8.7027 12.6655C8.7027 12.8688 8.80282 13.2312 8.91471 13.4462C9.04133 13.6848 9.34463 13.9882 9.58903 14.1238C10.0926 14.4036 10.6403 14.4213 11.1732 14.1709C11.3735 14.0766 11.4648 14.0118 11.6444 13.8262C11.9889 13.4757 12.1479 13.1015 12.1479 12.6361C12.1479 12.3238 12.1037 12.1382 11.9653 11.8525C11.7681 11.4489 11.4176 11.1425 10.9553 10.9717C10.814 10.9216 10.5755 10.9186 5.90531 10.9039C1.40886 10.8892 0.996615 10.8862 0.914165 10.8391Z" fill="#1E6F5C"/>
<path d="M12.2598 2.80275C11.1556 3.00307 10.2692 3.8014 9.95417 4.8796C9.87172 5.15945 9.82755 5.62785 9.86288 5.81933C9.88644 5.94895 10.0602 6.15221 10.1956 6.21113C10.4548 6.31718 10.7728 6.21408 10.92 5.97841C10.9907 5.86646 11.0083 5.79282 11.029 5.56598C11.0702 5.10643 11.2233 4.76176 11.5178 4.47012C11.8593 4.13134 12.2009 3.97816 12.6662 3.95753C13.1991 3.93397 13.579 4.08126 13.953 4.45539C14.4035 4.90316 14.5684 5.48645 14.4153 6.08446C14.2651 6.67364 13.8322 7.13025 13.2374 7.33057C13.0843 7.38065 12.837 7.38359 8.20211 7.39832L3.32876 7.41305L3.21686 7.48375C3.15503 7.52205 3.06963 7.60748 3.02546 7.67229C2.96068 7.77245 2.94596 7.82547 2.94596 7.98455C2.94596 8.21728 3.01957 8.36162 3.20508 8.4824L3.32581 8.56194H13.1933L13.4818 8.4824C15.652 7.88439 16.3764 5.21248 14.7981 3.62465C14.4359 3.25936 13.9706 2.98834 13.4818 2.85872C13.2256 2.78802 12.5101 2.75562 12.2598 2.80275Z" fill="#1E6F5C"/>
<path d="M5.66385 0.490233C4.56256 0.699391 3.66739 1.51245 3.37293 2.57002C3.28165 2.89996 3.24337 3.30944 3.28754 3.48914C3.35526 3.77194 3.67917 3.99288 3.94419 3.93397C4.25926 3.86621 4.39766 3.6924 4.43888 3.31239C4.47127 2.98245 4.53017 2.77918 4.65973 2.53173C4.85408 2.1576 5.24866 1.83355 5.65501 1.70394C5.95537 1.60967 6.39706 1.61261 6.69741 1.70983C7.40118 1.94255 7.8841 2.59654 7.88999 3.33301C7.88999 3.63938 7.84582 3.8397 7.70742 4.12839C7.51602 4.51725 7.10377 4.86781 6.65619 5.0151C6.5649 5.04751 5.94948 5.05929 3.77045 5.07108C3.57026 5.07224 3.3841 5.07326 3.21095 5.07421C1.14497 5.08554 0.93084 5.08672 0.814774 5.19404C0.801352 5.20645 0.789243 5.22028 0.775732 5.23571C0.766802 5.24591 0.75726 5.2568 0.746323 5.26845C0.466584 5.56009 0.546089 6.00787 0.908278 6.19346C1.01428 6.24943 1.09968 6.24943 3.8529 6.24354L6.68563 6.2347L6.94476 6.15221C7.80459 5.88414 8.42296 5.35977 8.79104 4.59679C9.12673 3.89272 9.16206 3.03842 8.87644 2.30195C8.69681 1.83355 8.31107 1.32981 7.89587 1.01755C7.65442 0.834901 7.18328 0.611014 6.87703 0.534422C6.54724 0.451937 5.97892 0.431316 5.66385 0.490233Z" fill="#1E6F5C"/>
</svg>
