<svg width="20" height="17" viewBox="0 0 20 17" xmlns="http://www.w3.org/2000/svg">
<path fill-rule="evenodd" clip-rule="evenodd" d="M9.36186 1.2041C9.15103 1.16302 8.9333 1.17489 8.72819 1.23865C8.52308 1.30241 8.337 1.41608 8.18662 1.56945C7.95847 1.80215 7.58487 1.80583 7.35218 1.57768C7.11948 1.34953 7.1158 0.975937 7.34395 0.74324C7.63103 0.450437 7.98628 0.233445 8.37786 0.111715C8.76944 -0.0100141 9.1851 -0.0326765 9.58759 0.0457596C9.99009 0.124196 10.3668 0.301279 10.684 0.561136C11.0013 0.820992 11.249 1.1555 11.4052 1.53468C11.5613 1.91385 11.6209 2.32584 11.5786 2.73372C11.5364 3.1416 11.3936 3.53262 11.163 3.87172C10.9324 4.21083 10.6213 4.48742 10.2576 4.67672C9.89512 4.86533 9.49167 4.96139 9.08316 4.95638H0.590067C0.264182 4.95638 0 4.69219 0 4.36631C0 4.04042 0.264182 3.77624 0.590067 3.77624H9.08703H9.09532L9.09532 3.7763C9.31009 3.77932 9.52226 3.72899 9.7128 3.62984C9.90334 3.53069 10.0663 3.38581 10.1871 3.20818C10.3078 3.03055 10.3826 2.82574 10.4048 2.61208C10.4269 2.39843 10.3957 2.18263 10.3139 1.98401C10.2321 1.7854 10.1024 1.61018 9.93619 1.47406C9.77003 1.33795 9.57269 1.24519 9.36186 1.2041ZM17.4082 4.04974C17.1264 3.99147 16.8347 4.00276 16.5583 4.08263C16.2819 4.1625 16.0291 4.30853 15.8218 4.5081C15.5871 4.73414 15.2135 4.72708 14.9875 4.49232C14.7615 4.25757 14.7685 3.88403 15.0033 3.65799C15.3487 3.32538 15.77 3.08198 16.2307 2.94887C16.6914 2.81576 17.1776 2.79695 17.6472 2.89406C18.1168 2.99118 18.5556 3.2013 18.9257 3.50622C19.2958 3.81114 19.586 4.20168 19.7712 4.64403C19.9563 5.08637 20.0309 5.56717 19.9884 6.04482C19.9459 6.52247 19.7876 6.98255 19.5272 7.38524C19.2668 7.78792 18.9122 8.12107 18.4941 8.35584C18.0759 8.59061 17.6069 8.71992 17.1275 8.73257L17.1119 8.73278H0.590067C0.264182 8.73278 0 8.46859 0 8.14271C0 7.81682 0.264182 7.55264 0.590067 7.55264H17.1036C17.3887 7.54395 17.6675 7.46649 17.9163 7.32681C18.1672 7.18595 18.38 6.98606 18.5362 6.74445C18.6924 6.50284 18.7874 6.22678 18.8129 5.9402C18.8384 5.65361 18.7937 5.36513 18.6826 5.09972C18.5715 4.83431 18.3974 4.59999 18.1753 4.41704C17.9532 4.23408 17.6899 4.10801 17.4082 4.04974ZM13.0899 11.6088C12.7274 11.4202 12.324 11.3241 11.9155 11.3291H0.590067C0.264182 11.3291 0 11.5933 0 11.9192C0 12.2451 0.264182 12.5093 0.590067 12.5093H11.9194V12.5093L11.9276 12.5092C12.1424 12.5062 12.3546 12.5565 12.5451 12.6557C12.7357 12.7548 12.8986 12.8997 13.0194 13.0773C13.1402 13.255 13.215 13.4598 13.2371 13.6734C13.2593 13.8871 13.228 14.1029 13.1462 14.3015C13.0645 14.5001 12.9347 14.6753 12.7685 14.8114C12.6024 14.9476 12.405 15.0403 12.1942 15.0814C11.9834 15.1225 11.7656 15.1106 11.5605 15.0469C11.3554 14.9831 11.1693 14.8694 11.0189 14.7161C10.7908 14.4834 10.4172 14.4797 10.1845 14.7078C9.9518 14.936 9.94812 15.3096 10.1763 15.5423C10.4634 15.8351 10.8186 16.0521 11.2102 16.1738C11.6018 16.2955 12.0174 16.3182 12.4199 16.2397C12.8224 16.1613 13.1991 15.9842 13.5164 15.7244C13.8336 15.4645 14.0814 15.13 14.2375 14.7508C14.3936 14.3717 14.4532 13.9597 14.411 13.5518C14.3687 13.1439 14.2259 12.7529 13.9953 12.4138C13.7648 12.0747 13.4536 11.7981 13.0899 11.6088Z"/>
</svg>
