<svg width="18" height="18" viewBox="0 0 18 18" fill="none" xmlns="http://www.w3.org/2000/svg">
<path d="M2 1C2 0.44772 1.55228 0 1 0C0.44772 0 0 0.44772 0 1V14.5C0 16.433 1.567 18 3.5 18H17C17.5523 18 18 17.5523 18 17C18 16.4477 17.5523 16 17 16H3.5C2.67157 16 2 15.3284 2 14.5V1ZM12 3C11.4477 3 11 3.44772 11 4C11 4.55228 11.4477 5 12 5H14.0858L10.25 8.8358L8.4571 7.0429C8.0666 6.65237 7.4334 6.65237 7.0429 7.0429L3.79289 10.2929C3.40237 10.6834 3.40237 11.3166 3.79289 11.7071C4.18342 12.0976 4.81658 12.0976 5.20711 11.7071L7.75 9.1642L9.5429 10.9571C9.9334 11.3476 10.5666 11.3476 10.9571 10.9571L15.5007 6.41353L15.5 8.4997C15.4998 9.052 15.9474 9.4998 16.4997 9.5C17.052 9.5002 17.4998 9.0526 17.5 8.5003L17.5015 4.00033C17.5016 3.73505 17.3962 3.48062 17.2087 3.29301C17.0211 3.1054 16.7667 3 16.5015 3H12Z" fill="#EAF3E9"/>
</svg>
