<svg  viewBox="0 0 22 23" fill="none" xmlns="http://www.w3.org/2000/svg">
<path d="M11.7497 1.75003C11.7497 1.25692 11.35 0.857178 10.8569 0.857178C10.3638 0.857178 9.96401 1.25692 9.96401 1.75003V3.53575C9.96401 4.02886 10.3638 4.42861 10.8569 4.42861C11.35 4.42861 11.7497 4.02886 11.7497 3.53575V1.75003Z" fill="#5BAD6B"/>
<path d="M4.52392 3.97583C4.17524 3.62715 3.60992 3.62715 3.26123 3.97583C2.91255 4.32451 2.91255 4.88984 3.26123 5.23852L4.51123 6.48852C4.85992 6.83721 5.42524 6.83721 5.77392 6.48852C6.12261 6.13984 6.12261 5.57451 5.77392 5.22583L4.52392 3.97583Z" fill="#5BAD6B"/>
<path d="M18.4525 5.23852C18.8012 4.88984 18.8012 4.32451 18.4525 3.97583C18.1038 3.62715 17.5385 3.62715 17.1898 3.97583L15.9398 5.22583C15.5911 5.57451 15.5911 6.13984 15.9398 6.48852C16.2885 6.83721 16.8538 6.83721 17.2025 6.48852L18.4525 5.23852Z" fill="#5BAD6B"/>
<path d="M1.03544 10.6786C0.542324 10.6786 0.142578 11.0784 0.142578 11.5715C0.142578 12.0646 0.542324 12.4643 1.03544 12.4643H2.82115C3.31426 12.4643 3.71401 12.0646 3.71401 11.5715C3.71401 11.0784 3.31426 10.6786 2.82115 10.6786H1.03544Z" fill="#5BAD6B"/>
<path d="M18.8926 10.6786C18.3995 10.6786 17.9997 11.0784 17.9997 11.5715C17.9997 12.0646 18.3995 12.4643 18.8926 12.4643H20.6783C21.1714 12.4643 21.5711 12.0646 21.5711 11.5715C21.5711 11.0784 21.1714 10.6786 20.6783 10.6786H18.8926Z" fill="#5BAD6B"/>
<path d="M5.77392 17.9171C6.12261 17.5684 6.12261 17.0031 5.77392 16.6544C5.42524 16.3057 4.85992 16.3057 4.51123 16.6544L3.26123 17.9044C2.91255 18.2531 2.91255 18.8184 3.26123 19.1671C3.60991 19.5158 4.17524 19.5158 4.52392 19.1671L5.77392 17.9171Z" fill="#5BAD6B"/>
<path d="M17.2025 16.6544C16.8538 16.3057 16.2885 16.3057 15.9398 16.6544C15.5911 17.0031 15.5911 17.5684 15.9398 17.9171L17.1898 19.1671C17.5385 19.5158 18.1038 19.5158 18.4525 19.1671C18.8012 18.8184 18.8012 18.2531 18.4525 17.9044L17.2025 16.6544Z" fill="#5BAD6B"/>
<path d="M11.7497 19.6072C11.7497 19.1141 11.35 18.7143 10.8569 18.7143C10.3638 18.7143 9.96401 19.1141 9.96401 19.6072V21.3929C9.96401 21.886 10.3638 22.2857 10.8569 22.2857C11.35 22.2857 11.7497 21.886 11.7497 21.3929V19.6072Z" fill="#5BAD6B"/>
<path fill-rule="evenodd" clip-rule="evenodd" d="M10.8569 6.21432C7.8982 6.21432 5.49972 8.6128 5.49972 11.5715C5.49972 14.5301 7.8982 16.9286 10.8569 16.9286C13.8155 16.9286 16.214 14.5301 16.214 11.5715C16.214 8.6128 13.8155 6.21432 10.8569 6.21432ZM7.28544 11.5715C7.28544 9.59902 8.88442 8.00004 10.8569 8.00004C12.8293 8.00004 14.4283 9.59902 14.4283 11.5715C14.4283 13.5439 12.8293 15.1429 10.8569 15.1429C8.88442 15.1429 7.28544 13.5439 7.28544 11.5715Z" fill="#5BAD6B"/>
</svg>
