<svg viewBox="0 0 22 22" fill="none" xmlns="http://www.w3.org/2000/svg">
<path d="M8.88561 2.61341C9.3186 2.61341 9.66963 2.96444 9.66963 3.39744V11.7604H18.0326C18.4295 11.7604 18.7575 12.0554 18.8095 12.438L18.8166 12.5444C18.8166 17.7405 14.6044 21.43 9.40829 21.43C4.21224 21.43 0 17.2178 0 12.0217C0 6.82565 3.68956 2.61341 8.88561 2.61341ZM8.10159 4.22014L7.8832 4.24495C4.02654 4.73713 1.56805 8.03127 1.56805 12.0217C1.56805 16.3517 5.07824 19.862 9.40829 19.862C13.3988 19.862 16.6929 17.4035 17.1851 13.5468L17.2088 13.3284H8.88561C8.48868 13.3284 8.16066 13.0334 8.10875 12.6508L8.10159 12.5444V4.22014ZM12.0217 0C17.2178 0 21.43 4.21224 21.43 9.40829C21.43 9.84128 21.079 10.1923 20.646 10.1923H12.0217C11.5887 10.1923 11.2377 9.84128 11.2377 9.40829V0.784024C11.2377 0.351023 11.5887 0 12.0217 0ZM12.8057 1.60673V8.62427H19.8222L19.7985 8.40588C19.3482 4.87745 16.5525 2.08183 13.0241 1.63153L12.8057 1.60673Z" fill="#5BAD6B"/>
</svg>
