<svg  viewBox="0 0 21 22" fill="none" xmlns="http://www.w3.org/2000/svg">
<path fill-rule="evenodd" clip-rule="evenodd" d="M6.38538 2.28826C6.25767 2.28826 6.14303 2.3666 6.09662 2.48559L2.02371 12.929C1.96883 13.0697 2.02336 13.2295 2.15282 13.3072L13.2117 19.9532C13.3229 20.02 13.4639 20.0105 13.5651 19.9294L18.9824 15.5887C19.1238 15.4754 19.1382 15.2655 19.0138 15.1339L16.4532 12.4256C15.9296 11.8718 15.735 11.0839 15.9405 10.35L18.0876 2.68178C18.1429 2.48414 17.9944 2.28826 17.7891 2.28826H6.38538ZM4.36405 1.80989C4.68889 0.976974 5.49137 0.428589 6.38538 0.428589H17.7891C19.2258 0.428589 20.2658 1.79974 19.8784 3.1832L17.7313 10.8514C17.7019 10.9563 17.7297 11.0688 17.8045 11.1479L20.3651 13.8562C21.2364 14.7778 21.1349 16.2469 20.1452 17.0399L14.728 21.3807C14.0194 21.9485 13.0321 22.0149 12.2538 21.5472L1.19489 14.9012C0.288725 14.3567 -0.0929989 13.2382 0.291135 12.2533L4.36405 1.80989Z" fill="#5BAD6B"/>
</svg>
