<svg viewBox="0 0 21 22" fill="none" xmlns="http://www.w3.org/2000/svg">
<path fill-rule="evenodd" clip-rule="evenodd" d="M11.3547 0.205176C10.9976 -0.0683921 10.4975 -0.0683921 10.1403 0.205176L1.23924 7.02336C0.998329 7.20789 0.857422 7.49163 0.857422 7.79221V18.5065C0.857422 19.2815 1.17002 20.0247 1.72645 20.5727C2.28287 21.1207 3.03755 21.4286 3.82445 21.4286H7.77858C7.77922 21.4286 7.77986 21.4286 7.7805 21.4286C7.78114 21.4286 7.78177 21.4286 7.78241 21.4286H13.7126C13.7133 21.4286 13.7139 21.4286 13.7146 21.4286C13.7152 21.4286 13.7158 21.4286 13.7165 21.4286H17.6706C18.4575 21.4286 19.2122 21.1207 19.7686 20.5727C20.325 20.0247 20.6376 19.2815 20.6376 18.5065V7.79221C20.6376 7.49163 20.4967 7.20789 20.2558 7.02336L11.3547 0.205176ZM14.7036 19.4805H17.6706C17.9329 19.4805 18.1845 19.3779 18.3699 19.1952C18.5554 19.0126 18.6596 18.7648 18.6596 18.5065V8.26859L10.7475 2.20798L2.83544 8.26859V18.5065C2.83544 18.7648 2.93964 19.0126 3.12512 19.1952C3.31059 19.3779 3.56215 19.4805 3.82445 19.4805H6.79149V10.7143C6.79149 10.1763 7.23428 9.74026 7.7805 9.74026H13.7146C14.2608 9.74026 14.7036 10.1763 14.7036 10.7143V19.4805ZM8.76951 19.4805H12.7256V11.6883H8.76951V19.4805Z" fill="#5BAD6B"/>
</svg>
