<svg  viewBox="0 0 16 22" fill="none" xmlns="http://www.w3.org/2000/svg">
<path d="M11.4076 14.3749C11.4578 13.8931 11.6045 13.6501 11.9354 13.5202C12.2413 13.3987 12.6686 13.5789 12.8362 13.9015C12.9787 14.1738 12.8572 15.1667 12.6016 15.8706C12.2078 16.9515 11.2651 18.0617 10.3225 18.5603C9.76944 18.8535 9.16614 18.4974 9.16614 17.8816C9.16614 17.5967 9.31277 17.3872 9.68565 17.1484C10.6576 16.5241 11.2944 15.4935 11.4076 14.3749Z" fill="#5BAD6B"/>
<path fill-rule="evenodd" clip-rule="evenodd" d="M6.54765 1.41235C7.10068 0.582812 7.19704 0.457125 7.36462 0.369144C7.59505 0.247646 7.86737 0.260214 8.09361 0.398472C8.21091 0.473884 8.59635 1.01853 9.80714 2.82423C10.6702 4.10624 11.6045 5.52651 11.8894 5.97479C13.8124 9.00804 14.9184 11.2662 15.2913 12.9337C15.3709 13.2982 15.3876 13.4867 15.3876 14.0816C15.3876 15.0745 15.262 15.7784 14.9226 16.6917C13.9716 19.2599 11.6128 21.1955 8.91476 21.6187C7.373 21.8617 5.8061 21.6396 4.41097 20.9777C2.11928 19.8926 0.535617 17.8103 0.0915228 15.3175C-0.00902694 14.7394 -0.0299748 13.78 0.0496271 13.2856C0.384793 11.2411 1.84695 8.40893 4.93048 3.81716C5.19664 3.42201 5.50584 2.96182 5.79302 2.53438C6.09348 2.08718 6.36986 1.67583 6.54765 1.41235ZM11.5835 8.36285C10.8797 7.1772 10.6032 6.74986 9.11167 4.49587C8.35336 3.35212 7.71654 2.41366 7.69979 2.41366C7.67046 2.41366 4.98075 6.44821 4.52828 7.16882C3.82862 8.28325 3.10383 9.55688 2.66392 10.4367C1.69194 12.3723 1.39029 13.5202 1.53693 14.7142C1.80506 16.8677 3.0326 18.6147 4.95562 19.5616C6.4094 20.278 8.06009 20.3995 9.62699 19.9009C11.7427 19.2306 13.3012 17.4794 13.7789 15.2296C13.9004 14.6514 13.9129 13.604 13.804 13.1599C13.4856 11.8737 12.8194 10.4367 11.5835 8.36285Z" fill="#5BAD6B"/>
</svg>
