<svg  viewBox="0 0 25 18" fill="none" xmlns="http://www.w3.org/2000/svg">
<path fill-rule="evenodd" clip-rule="evenodd" d="M15 1.74114C15 1.17406 15.4197 0.714355 15.9375 0.714355H24.0625C24.5803 0.714355 25 1.17406 25 1.74114V10.64C25 11.207 24.5803 11.6667 24.0625 11.6667C23.5447 11.6667 23.125 11.207 23.125 10.64V4.22002L14.9843 13.136C14.13 14.0717 12.745 14.0717 11.8907 13.136L8.65847 9.59597C8.53643 9.4623 8.33857 9.4623 8.21653 9.59597L1.60041 16.8422C1.2343 17.2432 0.640704 17.2432 0.274587 16.8422C-0.0915291 16.4412 -0.0915291 15.7911 0.274587 15.3901L6.8907 8.14387C7.74498 7.20824 9.13002 7.20824 9.9843 8.14387L13.2165 11.6839C13.3386 11.8176 13.5364 11.8176 13.6585 11.6839L21.7992 2.76793H15.9375C15.4197 2.76793 15 2.30822 15 1.74114Z" fill="#5BAD6B"/>
</svg>
